<?xml version="1.0" encoding="utf-8" standalone="no"?>
<!DOCTYPE svg PUBLIC "-//W3C//DTD SVG 1.1//EN"
  "http://www.w3.org/Graphics/SVG/1.1/DTD/svg11.dtd">
<!-- Created with matplotlib (http://matplotlib.org/) -->
<svg height="720pt" version="1.1" viewBox="0 0 720 720" width="720pt" xmlns="http://www.w3.org/2000/svg" xmlns:xlink="http://www.w3.org/1999/xlink">
 <defs>
  <style type="text/css">
*{stroke-linecap:butt;stroke-linejoin:round;}
  </style>
 </defs>
 <g id="figure_1">
  <g id="patch_1">
   <path d="
M0 720
L720 720
L720 0
L0 0
z
" style="fill:#ffffff;"/>
  </g>
  <g id="axes_1">
   <g id="patch_2">
    <path d="
M90 333.818
L648 333.818
L648 72
L90 72
z
" style="fill:#ffffff;"/>
   </g>
   <g id="matplotlib.axis_1">
    <g id="xtick_1">
     <g id="line2d_1">
      <defs>
       <path d="
M0 0
L0 6" id="m44d4eda7dc" style="stroke:#262626;"/>
      </defs>
      <g>
       <use style="fill:#262626;stroke:#262626;" x="90.0" xlink:href="#m44d4eda7dc" y="333.818181818"/>
      </g>
     </g>
     <g id="line2d_2">
      <defs>
       <path d="
M0 0
L0 -6" id="m6214b81e1c" style="stroke:#262626;"/>
      </defs>
      <g>
       <use style="fill:#262626;stroke:#262626;" x="90.0" xlink:href="#m6214b81e1c" y="72.0"/>
      </g>
     </g>
     <g id="text_1">
      <!-- 0 -->
      <defs>
       <path d="
M31.7812 66.4062
Q24.1719 66.4062 20.3281 58.9062
Q16.5 51.4219 16.5 36.375
Q16.5 21.3906 20.3281 13.8906
Q24.1719 6.39062 31.7812 6.39062
Q39.4531 6.39062 43.2812 13.8906
Q47.125 21.3906 47.125 36.375
Q47.125 51.4219 43.2812 58.9062
Q39.4531 66.4062 31.7812 66.4062
M31.7812 74.2188
Q44.0469 74.2188 50.5156 64.5156
Q56.9844 54.8281 56.9844 36.375
Q56.9844 17.9688 50.5156 8.26562
Q44.0469 -1.42188 31.7812 -1.42188
Q19.5312 -1.42188 13.0625 8.26562
Q6.59375 17.9688 6.59375 36.375
Q6.59375 54.8281 13.0625 64.5156
Q19.5312 74.2188 31.7812 74.2188" id="BitstreamVeraSans-Roman-30"/>
      </defs>
      <g style="fill:#262626;" transform="translate(87.48046875 354.416619318)scale(0.1 -0.1)">
       <use xlink:href="#BitstreamVeraSans-Roman-30"/>
      </g>
     </g>
    </g>
    <g id="xtick_2">
     <g id="line2d_3">
      <g>
       <use style="fill:#262626;stroke:#262626;" x="229.5" xlink:href="#m44d4eda7dc" y="333.818181818"/>
      </g>
     </g>
     <g id="line2d_4">
      <g>
       <use style="fill:#262626;stroke:#262626;" x="229.5" xlink:href="#m6214b81e1c" y="72.0"/>
      </g>
     </g>
     <g id="text_2">
      <!-- 5 -->
      <defs>
       <path d="
M10.7969 72.9062
L49.5156 72.9062
L49.5156 64.5938
L19.8281 64.5938
L19.8281 46.7344
Q21.9688 47.4688 24.1094 47.8281
Q26.2656 48.1875 28.4219 48.1875
Q40.625 48.1875 47.75 41.5
Q54.8906 34.8125 54.8906 23.3906
Q54.8906 11.625 47.5625 5.09375
Q40.2344 -1.42188 26.9062 -1.42188
Q22.3125 -1.42188 17.5469 -0.640625
Q12.7969 0.140625 7.71875 1.70312
L7.71875 11.625
Q12.1094 9.23438 16.7969 8.0625
Q21.4844 6.89062 26.7031 6.89062
Q35.1562 6.89062 40.0781 11.3281
Q45.0156 15.7656 45.0156 23.3906
Q45.0156 31 40.0781 35.4375
Q35.1562 39.8906 26.7031 39.8906
Q22.75 39.8906 18.8125 39.0156
Q14.8906 38.1406 10.7969 36.2812
z
" id="BitstreamVeraSans-Roman-35"/>
      </defs>
      <g style="fill:#262626;" transform="translate(227.14140625 354.416619318)scale(0.1 -0.1)">
       <use xlink:href="#BitstreamVeraSans-Roman-35"/>
      </g>
     </g>
    </g>
    <g id="xtick_3">
     <g id="line2d_5">
      <g>
       <use style="fill:#262626;stroke:#262626;" x="369.0" xlink:href="#m44d4eda7dc" y="333.818181818"/>
      </g>
     </g>
     <g id="line2d_6">
      <g>
       <use style="fill:#262626;stroke:#262626;" x="369.0" xlink:href="#m6214b81e1c" y="72.0"/>
      </g>
     </g>
     <g id="text_3">
      <!-- 10 -->
      <defs>
       <path d="
M12.4062 8.29688
L28.5156 8.29688
L28.5156 63.9219
L10.9844 60.4062
L10.9844 69.3906
L28.4219 72.9062
L38.2812 72.9062
L38.2812 8.29688
L54.3906 8.29688
L54.3906 0
L12.4062 0
z
" id="BitstreamVeraSans-Roman-31"/>
      </defs>
      <g style="fill:#262626;" transform="translate(363.51875 354.416619318)scale(0.1 -0.1)">
       <use xlink:href="#BitstreamVeraSans-Roman-31"/>
       <use x="63.623046875" xlink:href="#BitstreamVeraSans-Roman-30"/>
      </g>
     </g>
    </g>
    <g id="xtick_4">
     <g id="line2d_7">
      <g>
       <use style="fill:#262626;stroke:#262626;" x="508.5" xlink:href="#m44d4eda7dc" y="333.818181818"/>
      </g>
     </g>
     <g id="line2d_8">
      <g>
       <use style="fill:#262626;stroke:#262626;" x="508.5" xlink:href="#m6214b81e1c" y="72.0"/>
      </g>
     </g>
     <g id="text_4">
      <!-- 15 -->
      <g style="fill:#262626;" transform="translate(503.1234375 354.416619318)scale(0.1 -0.1)">
       <use xlink:href="#BitstreamVeraSans-Roman-31"/>
       <use x="63.623046875" xlink:href="#BitstreamVeraSans-Roman-35"/>
      </g>
     </g>
    </g>
    <g id="xtick_5">
     <g id="line2d_9">
      <g>
       <use style="fill:#262626;stroke:#262626;" x="648.0" xlink:href="#m44d4eda7dc" y="333.818181818"/>
      </g>
     </g>
     <g id="line2d_10">
      <g>
       <use style="fill:#262626;stroke:#262626;" x="648.0" xlink:href="#m6214b81e1c" y="72.0"/>
      </g>
     </g>
     <g id="text_5">
      <!-- 20 -->
      <defs>
       <path d="
M19.1875 8.29688
L53.6094 8.29688
L53.6094 0
L7.32812 0
L7.32812 8.29688
Q12.9375 14.1094 22.625 23.8906
Q32.3281 33.6875 34.8125 36.5312
Q39.5469 41.8438 41.4219 45.5312
Q43.3125 49.2188 43.3125 52.7812
Q43.3125 58.5938 39.2344 62.25
Q35.1562 65.9219 28.6094 65.9219
Q23.9688 65.9219 18.8125 64.3125
Q13.6719 62.7031 7.8125 59.4219
L7.8125 69.3906
Q13.7656 71.7812 18.9375 73
Q24.125 74.2188 28.4219 74.2188
Q39.75 74.2188 46.4844 68.5469
Q53.2188 62.8906 53.2188 53.4219
Q53.2188 48.9219 51.5312 44.8906
Q49.8594 40.875 45.4062 35.4062
Q44.1875 33.9844 37.6406 27.2188
Q31.1094 20.4531 19.1875 8.29688" id="BitstreamVeraSans-Roman-32"/>
      </defs>
      <g style="fill:#262626;" transform="translate(642.3359375 354.416619318)scale(0.1 -0.1)">
       <use xlink:href="#BitstreamVeraSans-Roman-32"/>
       <use x="63.623046875" xlink:href="#BitstreamVeraSans-Roman-30"/>
      </g>
     </g>
    </g>
    <g id="text_6">
     <!-- # of Regulators for Reaction -->
     <defs>
      <path id="BitstreamVeraSans-Roman-20"/>
      <path d="
M51.125 44
L36.9219 44
L32.8125 27.6875
L47.125 27.6875
z

M43.7969 71.7812
L38.7188 51.5156
L52.9844 51.5156
L58.1094 71.7812
L65.9219 71.7812
L60.8906 51.5156
L76.125 51.5156
L76.125 44
L58.9844 44
L54.9844 27.6875
L70.5156 27.6875
L70.5156 20.2188
L53.0781 20.2188
L48 0
L40.1875 0
L45.2188 20.2188
L30.9062 20.2188
L25.875 0
L18.0156 0
L23.0938 20.2188
L7.71875 20.2188
L7.71875 27.6875
L24.9062 27.6875
L29 44
L13.2812 44
L13.2812 51.5156
L30.9062 51.5156
L35.8906 71.7812
z
" id="BitstreamVeraSans-Roman-23"/>
      <path d="
M8.5 21.5781
L8.5 54.6875
L17.4844 54.6875
L17.4844 21.9219
Q17.4844 14.1562 20.5 10.2656
Q23.5312 6.39062 29.5938 6.39062
Q36.8594 6.39062 41.0781 11.0312
Q45.3125 15.6719 45.3125 23.6875
L45.3125 54.6875
L54.2969 54.6875
L54.2969 0
L45.3125 0
L45.3125 8.40625
Q42.0469 3.42188 37.7188 1
Q33.4062 -1.42188 27.6875 -1.42188
Q18.2656 -1.42188 13.375 4.4375
Q8.5 10.2969 8.5 21.5781" id="BitstreamVeraSans-Roman-75"/>
      <path d="
M54.8906 33.0156
L54.8906 0
L45.9062 0
L45.9062 32.7188
Q45.9062 40.4844 42.875 44.3281
Q39.8438 48.1875 33.7969 48.1875
Q26.5156 48.1875 22.3125 43.5469
Q18.1094 38.9219 18.1094 30.9062
L18.1094 0
L9.07812 0
L9.07812 54.6875
L18.1094 54.6875
L18.1094 46.1875
Q21.3438 51.125 25.7031 53.5625
Q30.0781 56 35.7969 56
Q45.2188 56 50.0469 50.1719
Q54.8906 44.3438 54.8906 33.0156" id="BitstreamVeraSans-Roman-6e"/>
      <path d="
M41.1094 46.2969
Q39.5938 47.1719 37.8125 47.5781
Q36.0312 48 33.8906 48
Q26.2656 48 22.1875 43.0469
Q18.1094 38.0938 18.1094 28.8125
L18.1094 0
L9.07812 0
L9.07812 54.6875
L18.1094 54.6875
L18.1094 46.1875
Q20.9531 51.1719 25.4844 53.5781
Q30.0312 56 36.5312 56
Q37.4531 56 38.5781 55.875
Q39.7031 55.7656 41.0625 55.5156
z
" id="BitstreamVeraSans-Roman-72"/>
      <path d="
M30.6094 48.3906
Q23.3906 48.3906 19.1875 42.75
Q14.9844 37.1094 14.9844 27.2969
Q14.9844 17.4844 19.1562 11.8438
Q23.3438 6.20312 30.6094 6.20312
Q37.7969 6.20312 41.9844 11.8594
Q46.1875 17.5312 46.1875 27.2969
Q46.1875 37.0156 41.9844 42.7031
Q37.7969 48.3906 30.6094 48.3906
M30.6094 56
Q42.3281 56 49.0156 48.375
Q55.7188 40.7656 55.7188 27.2969
Q55.7188 13.875 49.0156 6.21875
Q42.3281 -1.42188 30.6094 -1.42188
Q18.8438 -1.42188 12.1719 6.21875
Q5.51562 13.875 5.51562 27.2969
Q5.51562 40.7656 12.1719 48.375
Q18.8438 56 30.6094 56" id="BitstreamVeraSans-Roman-6f"/>
      <path d="
M9.42188 75.9844
L18.4062 75.9844
L18.4062 0
L9.42188 0
z
" id="BitstreamVeraSans-Roman-6c"/>
      <path d="
M44.2812 53.0781
L44.2812 44.5781
Q40.4844 46.5312 36.375 47.5
Q32.2812 48.4844 27.875 48.4844
Q21.1875 48.4844 17.8438 46.4375
Q14.5 44.3906 14.5 40.2812
Q14.5 37.1562 16.8906 35.375
Q19.2812 33.5938 26.5156 31.9844
L29.5938 31.2969
Q39.1562 29.25 43.1875 25.5156
Q47.2188 21.7812 47.2188 15.0938
Q47.2188 7.46875 41.1875 3.01562
Q35.1562 -1.42188 24.6094 -1.42188
Q20.2188 -1.42188 15.4531 -0.5625
Q10.6875 0.296875 5.42188 2
L5.42188 11.2812
Q10.4062 8.6875 15.2344 7.39062
Q20.0625 6.10938 24.8125 6.10938
Q31.1562 6.10938 34.5625 8.28125
Q37.9844 10.4531 37.9844 14.4062
Q37.9844 18.0625 35.5156 20.0156
Q33.0625 21.9688 24.7031 23.7812
L21.5781 24.5156
Q13.2344 26.2656 9.51562 29.9062
Q5.8125 33.5469 5.8125 39.8906
Q5.8125 47.6094 11.2812 51.7969
Q16.75 56 26.8125 56
Q31.7812 56 36.1719 55.2656
Q40.5781 54.5469 44.2812 53.0781" id="BitstreamVeraSans-Roman-73"/>
      <path d="
M44.3906 34.1875
Q47.5625 33.1094 50.5625 29.5938
Q53.5625 26.0781 56.5938 19.9219
L66.6094 0
L56 0
L46.6875 18.7031
Q43.0625 26.0312 39.6719 28.4219
Q36.2812 30.8125 30.4219 30.8125
L19.6719 30.8125
L19.6719 0
L9.8125 0
L9.8125 72.9062
L32.0781 72.9062
Q44.5781 72.9062 50.7344 67.6719
Q56.8906 62.4531 56.8906 51.9062
Q56.8906 45.0156 53.6875 40.4688
Q50.4844 35.9375 44.3906 34.1875
M19.6719 64.7969
L19.6719 38.9219
L32.0781 38.9219
Q39.2031 38.9219 42.8438 42.2188
Q46.4844 45.5156 46.4844 51.9062
Q46.4844 58.2969 42.8438 61.5469
Q39.2031 64.7969 32.0781 64.7969
z
" id="BitstreamVeraSans-Roman-52"/>
      <path d="
M9.42188 54.6875
L18.4062 54.6875
L18.4062 0
L9.42188 0
z

M9.42188 75.9844
L18.4062 75.9844
L18.4062 64.5938
L9.42188 64.5938
z
" id="BitstreamVeraSans-Roman-69"/>
      <path d="
M56.2031 29.5938
L56.2031 25.2031
L14.8906 25.2031
Q15.4844 15.9219 20.4844 11.0625
Q25.4844 6.20312 34.4219 6.20312
Q39.5938 6.20312 44.4531 7.46875
Q49.3125 8.73438 54.1094 11.2812
L54.1094 2.78125
Q49.2656 0.734375 44.1875 -0.34375
Q39.1094 -1.42188 33.8906 -1.42188
Q20.7969 -1.42188 13.1562 6.1875
Q5.51562 13.8125 5.51562 26.8125
Q5.51562 40.2344 12.7656 48.1094
Q20.0156 56 32.3281 56
Q43.3594 56 49.7812 48.8906
Q56.2031 41.7969 56.2031 29.5938
M47.2188 32.2344
Q47.125 39.5938 43.0938 43.9844
Q39.0625 48.3906 32.4219 48.3906
Q24.9062 48.3906 20.3906 44.1406
Q15.875 39.8906 15.1875 32.1719
z
" id="BitstreamVeraSans-Roman-65"/>
      <path d="
M45.4062 27.9844
Q45.4062 37.75 41.375 43.1094
Q37.3594 48.4844 30.0781 48.4844
Q22.8594 48.4844 18.8281 43.1094
Q14.7969 37.75 14.7969 27.9844
Q14.7969 18.2656 18.8281 12.8906
Q22.8594 7.51562 30.0781 7.51562
Q37.3594 7.51562 41.375 12.8906
Q45.4062 18.2656 45.4062 27.9844
M54.3906 6.78125
Q54.3906 -7.17188 48.1875 -13.9844
Q42 -20.7969 29.2031 -20.7969
Q24.4688 -20.7969 20.2656 -20.0938
Q16.0625 -19.3906 12.1094 -17.9219
L12.1094 -9.1875
Q16.0625 -11.3281 19.9219 -12.3438
Q23.7812 -13.375 27.7812 -13.375
Q36.625 -13.375 41.0156 -8.76562
Q45.4062 -4.15625 45.4062 5.17188
L45.4062 9.625
Q42.625 4.78125 38.2812 2.39062
Q33.9375 0 27.875 0
Q17.8281 0 11.6719 7.65625
Q5.51562 15.3281 5.51562 27.9844
Q5.51562 40.6719 11.6719 48.3281
Q17.8281 56 27.875 56
Q33.9375 56 38.2812 53.6094
Q42.625 51.2188 45.4062 46.3906
L45.4062 54.6875
L54.3906 54.6875
z
" id="BitstreamVeraSans-Roman-67"/>
      <path d="
M37.1094 75.9844
L37.1094 68.5
L28.5156 68.5
Q23.6875 68.5 21.7969 66.5469
Q19.9219 64.5938 19.9219 59.5156
L19.9219 54.6875
L34.7188 54.6875
L34.7188 47.7031
L19.9219 47.7031
L19.9219 0
L10.8906 0
L10.8906 47.7031
L2.29688 47.7031
L2.29688 54.6875
L10.8906 54.6875
L10.8906 58.5
Q10.8906 67.625 15.1406 71.7969
Q19.3906 75.9844 28.6094 75.9844
z
" id="BitstreamVeraSans-Roman-66"/>
      <path d="
M34.2812 27.4844
Q23.3906 27.4844 19.1875 25
Q14.9844 22.5156 14.9844 16.5
Q14.9844 11.7188 18.1406 8.90625
Q21.2969 6.10938 26.7031 6.10938
Q34.1875 6.10938 38.7031 11.4062
Q43.2188 16.7031 43.2188 25.4844
L43.2188 27.4844
z

M52.2031 31.2031
L52.2031 0
L43.2188 0
L43.2188 8.29688
Q40.1406 3.32812 35.5469 0.953125
Q30.9531 -1.42188 24.3125 -1.42188
Q15.9219 -1.42188 10.9531 3.29688
Q6 8.01562 6 15.9219
Q6 25.1406 12.1719 29.8281
Q18.3594 34.5156 30.6094 34.5156
L43.2188 34.5156
L43.2188 35.4062
Q43.2188 41.6094 39.1406 45
Q35.0625 48.3906 27.6875 48.3906
Q23 48.3906 18.5469 47.2656
Q14.1094 46.1406 10.0156 43.8906
L10.0156 52.2031
Q14.9375 54.1094 19.5781 55.0469
Q24.2188 56 28.6094 56
Q40.4844 56 46.3438 49.8438
Q52.2031 43.7031 52.2031 31.2031" id="BitstreamVeraSans-Roman-61"/>
      <path d="
M18.3125 70.2188
L18.3125 54.6875
L36.8125 54.6875
L36.8125 47.7031
L18.3125 47.7031
L18.3125 18.0156
Q18.3125 11.3281 20.1406 9.42188
Q21.9688 7.51562 27.5938 7.51562
L36.8125 7.51562
L36.8125 0
L27.5938 0
Q17.1875 0 13.2344 3.875
Q9.28125 7.76562 9.28125 18.0156
L9.28125 47.7031
L2.6875 47.7031
L2.6875 54.6875
L9.28125 54.6875
L9.28125 70.2188
z
" id="BitstreamVeraSans-Roman-74"/>
      <path d="
M48.7812 52.5938
L48.7812 44.1875
Q44.9688 46.2969 41.1406 47.3438
Q37.3125 48.3906 33.4062 48.3906
Q24.6562 48.3906 19.8125 42.8438
Q14.9844 37.3125 14.9844 27.2969
Q14.9844 17.2812 19.8125 11.7344
Q24.6562 6.20312 33.4062 6.20312
Q37.3125 6.20312 41.1406 7.25
Q44.9688 8.29688 48.7812 10.4062
L48.7812 2.09375
Q45.0156 0.34375 40.9844 -0.53125
Q36.9688 -1.42188 32.4219 -1.42188
Q20.0625 -1.42188 12.7812 6.34375
Q5.51562 14.1094 5.51562 27.2969
Q5.51562 40.6719 12.8594 48.3281
Q20.2188 56 33.0156 56
Q37.1562 56 41.1094 55.1406
Q45.0625 54.2969 48.7812 52.5938" id="BitstreamVeraSans-Roman-63"/>
     </defs>
     <g style="fill:#262626;" transform="translate(291.6321875 369.854588068)scale(0.11 -0.11)">
      <use xlink:href="#BitstreamVeraSans-Roman-23"/>
      <use x="83.7890625" xlink:href="#BitstreamVeraSans-Roman-20"/>
      <use x="115.576171875" xlink:href="#BitstreamVeraSans-Roman-6f"/>
      <use x="176.7578125" xlink:href="#BitstreamVeraSans-Roman-66"/>
      <use x="211.962890625" xlink:href="#BitstreamVeraSans-Roman-20"/>
      <use x="243.75" xlink:href="#BitstreamVeraSans-Roman-52"/>
      <use x="308.732421875" xlink:href="#BitstreamVeraSans-Roman-65"/>
      <use x="370.255859375" xlink:href="#BitstreamVeraSans-Roman-67"/>
      <use x="433.732421875" xlink:href="#BitstreamVeraSans-Roman-75"/>
      <use x="497.111328125" xlink:href="#BitstreamVeraSans-Roman-6c"/>
      <use x="524.89453125" xlink:href="#BitstreamVeraSans-Roman-61"/>
      <use x="586.173828125" xlink:href="#BitstreamVeraSans-Roman-74"/>
      <use x="625.3828125" xlink:href="#BitstreamVeraSans-Roman-6f"/>
      <use x="686.564453125" xlink:href="#BitstreamVeraSans-Roman-72"/>
      <use x="727.677734375" xlink:href="#BitstreamVeraSans-Roman-73"/>
      <use x="779.77734375" xlink:href="#BitstreamVeraSans-Roman-20"/>
      <use x="811.564453125" xlink:href="#BitstreamVeraSans-Roman-66"/>
      <use x="846.76953125" xlink:href="#BitstreamVeraSans-Roman-6f"/>
      <use x="907.951171875" xlink:href="#BitstreamVeraSans-Roman-72"/>
      <use x="949.064453125" xlink:href="#BitstreamVeraSans-Roman-20"/>
      <use x="980.8515625" xlink:href="#BitstreamVeraSans-Roman-52"/>
      <use x="1045.83398438" xlink:href="#BitstreamVeraSans-Roman-65"/>
      <use x="1107.35742188" xlink:href="#BitstreamVeraSans-Roman-61"/>
      <use x="1168.63671875" xlink:href="#BitstreamVeraSans-Roman-63"/>
      <use x="1223.6171875" xlink:href="#BitstreamVeraSans-Roman-74"/>
      <use x="1262.82617188" xlink:href="#BitstreamVeraSans-Roman-69"/>
      <use x="1290.609375" xlink:href="#BitstreamVeraSans-Roman-6f"/>
      <use x="1351.79101562" xlink:href="#BitstreamVeraSans-Roman-6e"/>
     </g>
    </g>
   </g>
   <g id="matplotlib.axis_2">
    <g id="ytick_1">
     <g id="line2d_11">
      <defs>
       <path d="
M0 0
L-6 0" id="m0dfa6ce036" style="stroke:#262626;"/>
      </defs>
      <g>
       <use style="fill:#262626;stroke:#262626;" x="90.0" xlink:href="#m0dfa6ce036" y="333.818181818"/>
      </g>
     </g>
     <g id="line2d_12">
      <defs>
       <path d="
M0 0
L6 0" id="m0afc27f78c" style="stroke:#262626;"/>
      </defs>
      <g>
       <use style="fill:#262626;stroke:#262626;" x="648.0" xlink:href="#m0afc27f78c" y="333.818181818"/>
      </g>
     </g>
     <g id="text_7">
      <!-- 0 -->
      <g style="fill:#262626;" transform="translate(71.9609375 336.577556818)scale(0.1 -0.1)">
       <use xlink:href="#BitstreamVeraSans-Roman-30"/>
      </g>
     </g>
    </g>
    <g id="ytick_2">
     <g id="line2d_13">
      <g>
       <use style="fill:#262626;stroke:#262626;" x="90.0" xlink:href="#m0dfa6ce036" y="304.727272727"/>
      </g>
     </g>
     <g id="line2d_14">
      <g>
       <use style="fill:#262626;stroke:#262626;" x="648.0" xlink:href="#m0afc27f78c" y="304.727272727"/>
      </g>
     </g>
     <g id="text_8">
      <!-- 1 -->
      <g style="fill:#262626;" transform="translate(72.659375 307.486647727)scale(0.1 -0.1)">
       <use xlink:href="#BitstreamVeraSans-Roman-31"/>
      </g>
     </g>
    </g>
    <g id="ytick_3">
     <g id="line2d_15">
      <g>
       <use style="fill:#262626;stroke:#262626;" x="90.0" xlink:href="#m0dfa6ce036" y="275.636363636"/>
      </g>
     </g>
     <g id="line2d_16">
      <g>
       <use style="fill:#262626;stroke:#262626;" x="648.0" xlink:href="#m0afc27f78c" y="275.636363636"/>
      </g>
     </g>
     <g id="text_9">
      <!-- 2 -->
      <g style="fill:#262626;" transform="translate(72.371875 278.395738636)scale(0.1 -0.1)">
       <use xlink:href="#BitstreamVeraSans-Roman-32"/>
      </g>
     </g>
    </g>
    <g id="ytick_4">
     <g id="line2d_17">
      <g>
       <use style="fill:#262626;stroke:#262626;" x="90.0" xlink:href="#m0dfa6ce036" y="246.545454545"/>
      </g>
     </g>
     <g id="line2d_18">
      <g>
       <use style="fill:#262626;stroke:#262626;" x="648.0" xlink:href="#m0afc27f78c" y="246.545454545"/>
      </g>
     </g>
     <g id="text_10">
      <!-- 3 -->
      <defs>
       <path d="
M40.5781 39.3125
Q47.6562 37.7969 51.625 33
Q55.6094 28.2188 55.6094 21.1875
Q55.6094 10.4062 48.1875 4.48438
Q40.7656 -1.42188 27.0938 -1.42188
Q22.5156 -1.42188 17.6562 -0.515625
Q12.7969 0.390625 7.625 2.20312
L7.625 11.7188
Q11.7188 9.32812 16.5938 8.10938
Q21.4844 6.89062 26.8125 6.89062
Q36.0781 6.89062 40.9375 10.5469
Q45.7969 14.2031 45.7969 21.1875
Q45.7969 27.6406 41.2812 31.2656
Q36.7656 34.9062 28.7188 34.9062
L20.2188 34.9062
L20.2188 43.0156
L29.1094 43.0156
Q36.375 43.0156 40.2344 45.9219
Q44.0938 48.8281 44.0938 54.2969
Q44.0938 59.9062 40.1094 62.9062
Q36.1406 65.9219 28.7188 65.9219
Q24.6562 65.9219 20.0156 65.0312
Q15.375 64.1562 9.8125 62.3125
L9.8125 71.0938
Q15.4375 72.6562 20.3438 73.4375
Q25.25 74.2188 29.5938 74.2188
Q40.8281 74.2188 47.3594 69.1094
Q53.9062 64.0156 53.9062 55.3281
Q53.9062 49.2656 50.4375 45.0938
Q46.9688 40.9219 40.5781 39.3125" id="BitstreamVeraSans-Roman-33"/>
      </defs>
      <g style="fill:#262626;" transform="translate(72.2015625 249.304829545)scale(0.1 -0.1)">
       <use xlink:href="#BitstreamVeraSans-Roman-33"/>
      </g>
     </g>
    </g>
    <g id="ytick_5">
     <g id="line2d_19">
      <g>
       <use style="fill:#262626;stroke:#262626;" x="90.0" xlink:href="#m0dfa6ce036" y="217.454545455"/>
      </g>
     </g>
     <g id="line2d_20">
      <g>
       <use style="fill:#262626;stroke:#262626;" x="648.0" xlink:href="#m0afc27f78c" y="217.454545455"/>
      </g>
     </g>
     <g id="text_11">
      <!-- 4 -->
      <defs>
       <path d="
M37.7969 64.3125
L12.8906 25.3906
L37.7969 25.3906
z

M35.2031 72.9062
L47.6094 72.9062
L47.6094 25.3906
L58.0156 25.3906
L58.0156 17.1875
L47.6094 17.1875
L47.6094 0
L37.7969 0
L37.7969 17.1875
L4.89062 17.1875
L4.89062 26.7031
z
" id="BitstreamVeraSans-Roman-34"/>
      </defs>
      <g style="fill:#262626;" transform="translate(71.6875 220.213920455)scale(0.1 -0.1)">
       <use xlink:href="#BitstreamVeraSans-Roman-34"/>
      </g>
     </g>
    </g>
    <g id="ytick_6">
     <g id="line2d_21">
      <g>
       <use style="fill:#262626;stroke:#262626;" x="90.0" xlink:href="#m0dfa6ce036" y="188.363636364"/>
      </g>
     </g>
     <g id="line2d_22">
      <g>
       <use style="fill:#262626;stroke:#262626;" x="648.0" xlink:href="#m0afc27f78c" y="188.363636364"/>
      </g>
     </g>
     <g id="text_12">
      <!-- 5 -->
      <g style="fill:#262626;" transform="translate(72.2828125 191.123011364)scale(0.1 -0.1)">
       <use xlink:href="#BitstreamVeraSans-Roman-35"/>
      </g>
     </g>
    </g>
    <g id="ytick_7">
     <g id="line2d_23">
      <g>
       <use style="fill:#262626;stroke:#262626;" x="90.0" xlink:href="#m0dfa6ce036" y="159.272727273"/>
      </g>
     </g>
     <g id="line2d_24">
      <g>
       <use style="fill:#262626;stroke:#262626;" x="648.0" xlink:href="#m0afc27f78c" y="159.272727273"/>
      </g>
     </g>
     <g id="text_13">
      <!-- 6 -->
      <defs>
       <path d="
M33.0156 40.375
Q26.375 40.375 22.4844 35.8281
Q18.6094 31.2969 18.6094 23.3906
Q18.6094 15.5312 22.4844 10.9531
Q26.375 6.39062 33.0156 6.39062
Q39.6562 6.39062 43.5312 10.9531
Q47.4062 15.5312 47.4062 23.3906
Q47.4062 31.2969 43.5312 35.8281
Q39.6562 40.375 33.0156 40.375
M52.5938 71.2969
L52.5938 62.3125
Q48.875 64.0625 45.0938 64.9844
Q41.3125 65.9219 37.5938 65.9219
Q27.8281 65.9219 22.6719 59.3281
Q17.5312 52.7344 16.7969 39.4062
Q19.6719 43.6562 24.0156 45.9219
Q28.375 48.1875 33.5938 48.1875
Q44.5781 48.1875 50.9531 41.5156
Q57.3281 34.8594 57.3281 23.3906
Q57.3281 12.1562 50.6875 5.35938
Q44.0469 -1.42188 33.0156 -1.42188
Q20.3594 -1.42188 13.6719 8.26562
Q6.98438 17.9688 6.98438 36.375
Q6.98438 53.6562 15.1875 63.9375
Q23.3906 74.2188 37.2031 74.2188
Q40.9219 74.2188 44.7031 73.4844
Q48.4844 72.75 52.5938 71.2969" id="BitstreamVeraSans-Roman-36"/>
      </defs>
      <g style="fill:#262626;" transform="translate(71.965625 162.032102273)scale(0.1 -0.1)">
       <use xlink:href="#BitstreamVeraSans-Roman-36"/>
      </g>
     </g>
    </g>
    <g id="ytick_8">
     <g id="line2d_25">
      <g>
       <use style="fill:#262626;stroke:#262626;" x="90.0" xlink:href="#m0dfa6ce036" y="130.181818182"/>
      </g>
     </g>
     <g id="line2d_26">
      <g>
       <use style="fill:#262626;stroke:#262626;" x="648.0" xlink:href="#m0afc27f78c" y="130.181818182"/>
      </g>
     </g>
     <g id="text_14">
      <!-- 7 -->
      <defs>
       <path d="
M8.20312 72.9062
L55.0781 72.9062
L55.0781 68.7031
L28.6094 0
L18.3125 0
L43.2188 64.5938
L8.20312 64.5938
z
" id="BitstreamVeraSans-Roman-37"/>
      </defs>
      <g style="fill:#262626;" transform="translate(72.3125 132.941193182)scale(0.1 -0.1)">
       <use xlink:href="#BitstreamVeraSans-Roman-37"/>
      </g>
     </g>
    </g>
    <g id="ytick_9">
     <g id="line2d_27">
      <g>
       <use style="fill:#262626;stroke:#262626;" x="90.0" xlink:href="#m0dfa6ce036" y="101.090909091"/>
      </g>
     </g>
     <g id="line2d_28">
      <g>
       <use style="fill:#262626;stroke:#262626;" x="648.0" xlink:href="#m0afc27f78c" y="101.090909091"/>
      </g>
     </g>
     <g id="text_15">
      <!-- 8 -->
      <defs>
       <path d="
M31.7812 34.625
Q24.75 34.625 20.7188 30.8594
Q16.7031 27.0938 16.7031 20.5156
Q16.7031 13.9219 20.7188 10.1562
Q24.75 6.39062 31.7812 6.39062
Q38.8125 6.39062 42.8594 10.1719
Q46.9219 13.9688 46.9219 20.5156
Q46.9219 27.0938 42.8906 30.8594
Q38.875 34.625 31.7812 34.625
M21.9219 38.8125
Q15.5781 40.375 12.0312 44.7188
Q8.5 49.0781 8.5 55.3281
Q8.5 64.0625 14.7188 69.1406
Q20.9531 74.2188 31.7812 74.2188
Q42.6719 74.2188 48.875 69.1406
Q55.0781 64.0625 55.0781 55.3281
Q55.0781 49.0781 51.5312 44.7188
Q48 40.375 41.7031 38.8125
Q48.8281 37.1562 52.7969 32.3125
Q56.7812 27.4844 56.7812 20.5156
Q56.7812 9.90625 50.3125 4.23438
Q43.8438 -1.42188 31.7812 -1.42188
Q19.7344 -1.42188 13.25 4.23438
Q6.78125 9.90625 6.78125 20.5156
Q6.78125 27.4844 10.7812 32.3125
Q14.7969 37.1562 21.9219 38.8125
M18.3125 54.3906
Q18.3125 48.7344 21.8438 45.5625
Q25.3906 42.3906 31.7812 42.3906
Q38.1406 42.3906 41.7188 45.5625
Q45.3125 48.7344 45.3125 54.3906
Q45.3125 60.0625 41.7188 63.2344
Q38.1406 66.4062 31.7812 66.4062
Q25.3906 66.4062 21.8438 63.2344
Q18.3125 60.0625 18.3125 54.3906" id="BitstreamVeraSans-Roman-38"/>
      </defs>
      <g style="fill:#262626;" transform="translate(72.0 103.850284091)scale(0.1 -0.1)">
       <use xlink:href="#BitstreamVeraSans-Roman-38"/>
      </g>
     </g>
    </g>
    <g id="ytick_10">
     <g id="line2d_29">
      <g>
       <use style="fill:#262626;stroke:#262626;" x="90.0" xlink:href="#m0dfa6ce036" y="72.0"/>
      </g>
     </g>
     <g id="line2d_30">
      <g>
       <use style="fill:#262626;stroke:#262626;" x="648.0" xlink:href="#m0afc27f78c" y="72.0"/>
      </g>
     </g>
     <g id="text_16">
      <!-- 9 -->
      <defs>
       <path d="
M10.9844 1.51562
L10.9844 10.5
Q14.7031 8.73438 18.5 7.8125
Q22.3125 6.89062 25.9844 6.89062
Q35.75 6.89062 40.8906 13.4531
Q46.0469 20.0156 46.7812 33.4062
Q43.9531 29.2031 39.5938 26.9531
Q35.25 24.7031 29.9844 24.7031
Q19.0469 24.7031 12.6719 31.3125
Q6.29688 37.9375 6.29688 49.4219
Q6.29688 60.6406 12.9375 67.4219
Q19.5781 74.2188 30.6094 74.2188
Q43.2656 74.2188 49.9219 64.5156
Q56.5938 54.8281 56.5938 36.375
Q56.5938 19.1406 48.4062 8.85938
Q40.2344 -1.42188 26.4219 -1.42188
Q22.7031 -1.42188 18.8906 -0.6875
Q15.0938 0.046875 10.9844 1.51562
M30.6094 32.4219
Q37.25 32.4219 41.125 36.9531
Q45.0156 41.5 45.0156 49.4219
Q45.0156 57.2812 41.125 61.8438
Q37.25 66.4062 30.6094 66.4062
Q23.9688 66.4062 20.0938 61.8438
Q16.2188 57.2812 16.2188 49.4219
Q16.2188 41.5 20.0938 36.9531
Q23.9688 32.4219 30.6094 32.4219" id="BitstreamVeraSans-Roman-39"/>
      </defs>
      <g style="fill:#262626;" transform="translate(71.9703125 74.759375)scale(0.1 -0.1)">
       <use xlink:href="#BitstreamVeraSans-Roman-39"/>
      </g>
     </g>
    </g>
    <g id="text_17">
     <!-- # of Genes Encoding Reaction -->
     <defs>
      <path d="
M59.5156 10.4062
L59.5156 29.9844
L43.4062 29.9844
L43.4062 38.0938
L69.2812 38.0938
L69.2812 6.78125
Q63.5781 2.73438 56.6875 0.65625
Q49.8125 -1.42188 42 -1.42188
Q24.9062 -1.42188 15.25 8.5625
Q5.60938 18.5625 5.60938 36.375
Q5.60938 54.25 15.25 64.2344
Q24.9062 74.2188 42 74.2188
Q49.125 74.2188 55.5469 72.4531
Q61.9688 70.7031 67.3906 67.2812
L67.3906 56.7812
Q61.9219 61.4219 55.7656 63.7656
Q49.6094 66.1094 42.8281 66.1094
Q29.4375 66.1094 22.7188 58.6406
Q16.0156 51.1719 16.0156 36.375
Q16.0156 21.625 22.7188 14.1562
Q29.4375 6.6875 42.8281 6.6875
Q48.0469 6.6875 52.1406 7.59375
Q56.25 8.5 59.5156 10.4062" id="BitstreamVeraSans-Roman-47"/>
      <path d="
M45.4062 46.3906
L45.4062 75.9844
L54.3906 75.9844
L54.3906 0
L45.4062 0
L45.4062 8.20312
Q42.5781 3.32812 38.25 0.953125
Q33.9375 -1.42188 27.875 -1.42188
Q17.9688 -1.42188 11.7344 6.48438
Q5.51562 14.4062 5.51562 27.2969
Q5.51562 40.1875 11.7344 48.0938
Q17.9688 56 27.875 56
Q33.9375 56 38.25 53.625
Q42.5781 51.2656 45.4062 46.3906
M14.7969 27.2969
Q14.7969 17.3906 18.875 11.75
Q22.9531 6.10938 30.0781 6.10938
Q37.2031 6.10938 41.2969 11.75
Q45.4062 17.3906 45.4062 27.2969
Q45.4062 37.2031 41.2969 42.8438
Q37.2031 48.4844 30.0781 48.4844
Q22.9531 48.4844 18.875 42.8438
Q14.7969 37.2031 14.7969 27.2969" id="BitstreamVeraSans-Roman-64"/>
      <path d="
M9.8125 72.9062
L55.9062 72.9062
L55.9062 64.5938
L19.6719 64.5938
L19.6719 43.0156
L54.3906 43.0156
L54.3906 34.7188
L19.6719 34.7188
L19.6719 8.29688
L56.7812 8.29688
L56.7812 0
L9.8125 0
z
" id="BitstreamVeraSans-Roman-45"/>
     </defs>
     <g style="fill:#262626;" transform="translate(64.39984375 285.960809659)rotate(-90.0)scale(0.11 -0.11)">
      <use xlink:href="#BitstreamVeraSans-Roman-23"/>
      <use x="83.7890625" xlink:href="#BitstreamVeraSans-Roman-20"/>
      <use x="115.576171875" xlink:href="#BitstreamVeraSans-Roman-6f"/>
      <use x="176.7578125" xlink:href="#BitstreamVeraSans-Roman-66"/>
      <use x="211.962890625" xlink:href="#BitstreamVeraSans-Roman-20"/>
      <use x="243.75" xlink:href="#BitstreamVeraSans-Roman-47"/>
      <use x="321.240234375" xlink:href="#BitstreamVeraSans-Roman-65"/>
      <use x="382.763671875" xlink:href="#BitstreamVeraSans-Roman-6e"/>
      <use x="446.142578125" xlink:href="#BitstreamVeraSans-Roman-65"/>
      <use x="507.666015625" xlink:href="#BitstreamVeraSans-Roman-73"/>
      <use x="559.765625" xlink:href="#BitstreamVeraSans-Roman-20"/>
      <use x="591.552734375" xlink:href="#BitstreamVeraSans-Roman-45"/>
      <use x="654.736328125" xlink:href="#BitstreamVeraSans-Roman-6e"/>
      <use x="718.115234375" xlink:href="#BitstreamVeraSans-Roman-63"/>
      <use x="773.095703125" xlink:href="#BitstreamVeraSans-Roman-6f"/>
      <use x="834.27734375" xlink:href="#BitstreamVeraSans-Roman-64"/>
      <use x="897.75390625" xlink:href="#BitstreamVeraSans-Roman-69"/>
      <use x="925.537109375" xlink:href="#BitstreamVeraSans-Roman-6e"/>
      <use x="988.916015625" xlink:href="#BitstreamVeraSans-Roman-67"/>
      <use x="1052.39257812" xlink:href="#BitstreamVeraSans-Roman-20"/>
      <use x="1084.1796875" xlink:href="#BitstreamVeraSans-Roman-52"/>
      <use x="1149.16210938" xlink:href="#BitstreamVeraSans-Roman-65"/>
      <use x="1210.68554688" xlink:href="#BitstreamVeraSans-Roman-61"/>
      <use x="1271.96484375" xlink:href="#BitstreamVeraSans-Roman-63"/>
      <use x="1326.9453125" xlink:href="#BitstreamVeraSans-Roman-74"/>
      <use x="1366.15429688" xlink:href="#BitstreamVeraSans-Roman-69"/>
      <use x="1393.9375" xlink:href="#BitstreamVeraSans-Roman-6f"/>
      <use x="1455.11914062" xlink:href="#BitstreamVeraSans-Roman-6e"/>
     </g>
    </g>
   </g>
   <g id="PathCollection_1">
    <defs>
     <path d="
M0 9.1515
C2.42701 9.1515 4.75494 8.18724 6.47109 6.47109
C8.18724 4.75494 9.1515 2.42701 9.1515 0
C9.1515 -2.42701 8.18724 -4.75494 6.47109 -6.47109
C4.75494 -8.18724 2.42701 -9.1515 0 -9.1515
C-2.42701 -9.1515 -4.75494 -8.18724 -6.47109 -6.47109
C-8.18724 -4.75494 -9.1515 -2.42701 -9.1515 0
C-9.1515 2.42701 -8.18724 4.75494 -6.47109 6.47109
C-4.75494 8.18724 -2.42701 9.1515 0 9.1515
z
" id="C0_0_1bcdd59e0e"/>
     <path d="
M0 6.32456
C1.67729 6.32456 3.28611 5.65816 4.47214 4.47214
C5.65816 3.28611 6.32456 1.67729 6.32456 0
C6.32456 -1.67729 5.65816 -3.28611 4.47214 -4.47214
C3.28611 -5.65816 1.67729 -6.32456 0 -6.32456
C-1.67729 -6.32456 -3.28611 -5.65816 -4.47214 -4.47214
C-5.65816 -3.28611 -6.32456 -1.67729 -6.32456 0
C-6.32456 1.67729 -5.65816 3.28611 -4.47214 4.47214
C-3.28611 5.65816 -1.67729 6.32456 0 6.32456
z
" id="C0_1_14246cb0a9"/>
     <path d="
M0 2.5
C0.663008 2.5 1.29895 2.23658 1.76777 1.76777
C2.23658 1.29895 2.5 0.663008 2.5 0
C2.5 -0.663008 2.23658 -1.29895 1.76777 -1.76777
C1.29895 -2.23658 0.663008 -2.5 0 -2.5
C-0.663008 -2.5 -1.29895 -2.23658 -1.76777 -1.76777
C-2.23658 -1.29895 -2.5 -0.663008 -2.5 0
C-2.5 0.663008 -2.23658 1.29895 -1.76777 1.76777
C-1.29895 2.23658 -0.663008 2.5 0 2.5
z
" id="C0_2_c2852accaa"/>
     <path d="
M0 1.11803
C0.296506 1.11803 0.580908 1.00023 0.790569 0.790569
C1.00023 0.580908 1.11803 0.296506 1.11803 0
C1.11803 -0.296506 1.00023 -0.580908 0.790569 -0.790569
C0.580908 -1.00023 0.296506 -1.11803 0 -1.11803
C-0.296506 -1.11803 -0.580908 -1.00023 -0.790569 -0.790569
C-1.00023 -0.580908 -1.11803 -0.296506 -1.11803 0
C-1.11803 0.296506 -1.00023 0.580908 -0.790569 0.790569
C-0.580908 1.00023 -0.296506 1.11803 0 1.11803
z
" id="C0_3_af07e0942b"/>
     <path d="
M0 1.11803
C0.296506 1.11803 0.580908 1.00023 0.790569 0.790569
C1.00023 0.580908 1.11803 0.296506 1.11803 0
C1.11803 -0.296506 1.00023 -0.580908 0.790569 -0.790569
C0.580908 -1.00023 0.296506 -1.11803 0 -1.11803
C-0.296506 -1.11803 -0.580908 -1.00023 -0.790569 -0.790569
C-1.00023 -0.580908 -1.11803 -0.296506 -1.11803 0
C-1.11803 0.296506 -1.00023 0.580908 -0.790569 0.790569
C-0.580908 1.00023 -0.296506 1.11803 0 1.11803
z
" id="C0_4_af07e0942b"/>
     <path d="
M0 1.11803
C0.296506 1.11803 0.580908 1.00023 0.790569 0.790569
C1.00023 0.580908 1.11803 0.296506 1.11803 0
C1.11803 -0.296506 1.00023 -0.580908 0.790569 -0.790569
C0.580908 -1.00023 0.296506 -1.11803 0 -1.11803
C-0.296506 -1.11803 -0.580908 -1.00023 -0.790569 -0.790569
C-1.00023 -0.580908 -1.11803 -0.296506 -1.11803 0
C-1.11803 0.296506 -1.00023 0.580908 -0.790569 0.790569
C-0.580908 1.00023 -0.296506 1.11803 0 1.11803
z
" id="C0_5_af07e0942b"/>
     <path d="
M0 6.12372
C1.62403 6.12372 3.18176 5.47849 4.33013 4.33013
C5.47849 3.18176 6.12372 1.62403 6.12372 0
C6.12372 -1.62403 5.47849 -3.18176 4.33013 -4.33013
C3.18176 -5.47849 1.62403 -6.12372 0 -6.12372
C-1.62403 -6.12372 -3.18176 -5.47849 -4.33013 -4.33013
C-5.47849 -3.18176 -6.12372 -1.62403 -6.12372 0
C-6.12372 1.62403 -5.47849 3.18176 -4.33013 4.33013
C-3.18176 5.47849 -1.62403 6.12372 0 6.12372
z
" id="C0_6_b6e9a3c12a"/>
     <path d="
M0 1.58114
C0.419323 1.58114 0.821528 1.41454 1.11803 1.11803
C1.41454 0.821528 1.58114 0.419323 1.58114 0
C1.58114 -0.419323 1.41454 -0.821528 1.11803 -1.11803
C0.821528 -1.41454 0.419323 -1.58114 0 -1.58114
C-0.419323 -1.58114 -0.821528 -1.41454 -1.11803 -1.11803
C-1.41454 -0.821528 -1.58114 -0.419323 -1.58114 0
C-1.58114 0.419323 -1.41454 0.821528 -1.11803 1.11803
C-0.821528 1.41454 -0.419323 1.58114 0 1.58114
z
" id="C0_7_71348ff635"/>
     <path d="
M0 5.3619
C1.42199 5.3619 2.78594 4.79694 3.79144 3.79144
C4.79694 2.78594 5.3619 1.42199 5.3619 0
C5.3619 -1.42199 4.79694 -2.78594 3.79144 -3.79144
C2.78594 -4.79694 1.42199 -5.3619 0 -5.3619
C-1.42199 -5.3619 -2.78594 -4.79694 -3.79144 -3.79144
C-4.79694 -2.78594 -5.3619 -1.42199 -5.3619 0
C-5.3619 1.42199 -4.79694 2.78594 -3.79144 3.79144
C-2.78594 4.79694 -1.42199 5.3619 0 5.3619
z
" id="C0_8_ea12693092"/>
     <path d="
M0 1.58114
C0.419323 1.58114 0.821528 1.41454 1.11803 1.11803
C1.41454 0.821528 1.58114 0.419323 1.58114 0
C1.58114 -0.419323 1.41454 -0.821528 1.11803 -1.11803
C0.821528 -1.41454 0.419323 -1.58114 0 -1.58114
C-0.419323 -1.58114 -0.821528 -1.41454 -1.11803 -1.11803
C-1.41454 -0.821528 -1.58114 -0.419323 -1.58114 0
C-1.58114 0.419323 -1.41454 0.821528 -1.11803 1.11803
C-0.821528 1.41454 -0.419323 1.58114 0 1.58114
z
" id="C0_9_71348ff635"/>
     <path d="
M0 1.58114
C0.419323 1.58114 0.821528 1.41454 1.11803 1.11803
C1.41454 0.821528 1.58114 0.419323 1.58114 0
C1.58114 -0.419323 1.41454 -0.821528 1.11803 -1.11803
C0.821528 -1.41454 0.419323 -1.58114 0 -1.58114
C-0.419323 -1.58114 -0.821528 -1.41454 -1.11803 -1.11803
C-1.41454 -0.821528 -1.58114 -0.419323 -1.58114 0
C-1.58114 0.419323 -1.41454 0.821528 -1.11803 1.11803
C-0.821528 1.41454 -0.419323 1.58114 0 1.58114
z
" id="C0_a_71348ff635"/>
     <path d="
M0 3.7081
C0.983399 3.7081 1.92665 3.31739 2.62202 2.62202
C3.31739 1.92665 3.7081 0.983399 3.7081 0
C3.7081 -0.983399 3.31739 -1.92665 2.62202 -2.62202
C1.92665 -3.31739 0.983399 -3.7081 0 -3.7081
C-0.983399 -3.7081 -1.92665 -3.31739 -2.62202 -2.62202
C-3.31739 -1.92665 -3.7081 -0.983399 -3.7081 0
C-3.7081 0.983399 -3.31739 1.92665 -2.62202 2.62202
C-1.92665 3.31739 -0.983399 3.7081 0 3.7081
z
" id="C0_b_feda8d285d"/>
     <path d="
M0 4.8734
C1.29244 4.8734 2.53212 4.35991 3.44601 3.44601
C4.35991 2.53212 4.8734 1.29244 4.8734 0
C4.8734 -1.29244 4.35991 -2.53212 3.44601 -3.44601
C2.53212 -4.35991 1.29244 -4.8734 0 -4.8734
C-1.29244 -4.8734 -2.53212 -4.35991 -3.44601 -3.44601
C-4.35991 -2.53212 -4.8734 -1.29244 -4.8734 0
C-4.8734 1.29244 -4.35991 2.53212 -3.44601 3.44601
C-2.53212 4.35991 -1.29244 4.8734 0 4.8734
z
" id="C0_c_05c5bf0d76"/>
     <path d="
M0 1.58114
C0.419323 1.58114 0.821528 1.41454 1.11803 1.11803
C1.41454 0.821528 1.58114 0.419323 1.58114 0
C1.58114 -0.419323 1.41454 -0.821528 1.11803 -1.11803
C0.821528 -1.41454 0.419323 -1.58114 0 -1.58114
C-0.419323 -1.58114 -0.821528 -1.41454 -1.11803 -1.11803
C-1.41454 -0.821528 -1.58114 -0.419323 -1.58114 0
C-1.58114 0.419323 -1.41454 0.821528 -1.11803 1.11803
C-0.821528 1.41454 -0.419323 1.58114 0 1.58114
z
" id="C0_d_71348ff635"/>
     <path d="
M0 1.58114
C0.419323 1.58114 0.821528 1.41454 1.11803 1.11803
C1.41454 0.821528 1.58114 0.419323 1.58114 0
C1.58114 -0.419323 1.41454 -0.821528 1.11803 -1.11803
C0.821528 -1.41454 0.419323 -1.58114 0 -1.58114
C-0.419323 -1.58114 -0.821528 -1.41454 -1.11803 -1.11803
C-1.41454 -0.821528 -1.58114 -0.419323 -1.58114 0
C-1.58114 0.419323 -1.41454 0.821528 -1.11803 1.11803
C-0.821528 1.41454 -0.419323 1.58114 0 1.58114
z
" id="C0_e_71348ff635"/>
     <path d="
M0 1.93649
C0.513564 1.93649 1.00616 1.73245 1.36931 1.36931
C1.73245 1.00616 1.93649 0.513564 1.93649 0
C1.93649 -0.513564 1.73245 -1.00616 1.36931 -1.36931
C1.00616 -1.73245 0.513564 -1.93649 0 -1.93649
C-0.513564 -1.93649 -1.00616 -1.73245 -1.36931 -1.36931
C-1.73245 -1.00616 -1.93649 -0.513564 -1.93649 0
C-1.93649 0.513564 -1.73245 1.00616 -1.36931 1.36931
C-1.00616 1.73245 -0.513564 1.93649 0 1.93649
z
" id="C0_f_43e184535d"/>
     <path d="
M0 1.11803
C0.296506 1.11803 0.580908 1.00023 0.790569 0.790569
C1.00023 0.580908 1.11803 0.296506 1.11803 0
C1.11803 -0.296506 1.00023 -0.580908 0.790569 -0.790569
C0.580908 -1.00023 0.296506 -1.11803 0 -1.11803
C-0.296506 -1.11803 -0.580908 -1.00023 -0.790569 -0.790569
C-1.00023 -0.580908 -1.11803 -0.296506 -1.11803 0
C-1.11803 0.296506 -1.00023 0.580908 -0.790569 0.790569
C-0.580908 1.00023 -0.296506 1.11803 0 1.11803
z
" id="C0_10_af07e0942b"/>
     <path d="
M0 1.58114
C0.419323 1.58114 0.821528 1.41454 1.11803 1.11803
C1.41454 0.821528 1.58114 0.419323 1.58114 0
C1.58114 -0.419323 1.41454 -0.821528 1.11803 -1.11803
C0.821528 -1.41454 0.419323 -1.58114 0 -1.58114
C-0.419323 -1.58114 -0.821528 -1.41454 -1.11803 -1.11803
C-1.41454 -0.821528 -1.58114 -0.419323 -1.58114 0
C-1.58114 0.419323 -1.41454 0.821528 -1.11803 1.11803
C-0.821528 1.41454 -0.419323 1.58114 0 1.58114
z
" id="C0_11_71348ff635"/>
     <path d="
M0 1.11803
C0.296506 1.11803 0.580908 1.00023 0.790569 0.790569
C1.00023 0.580908 1.11803 0.296506 1.11803 0
C1.11803 -0.296506 1.00023 -0.580908 0.790569 -0.790569
C0.580908 -1.00023 0.296506 -1.11803 0 -1.11803
C-0.296506 -1.11803 -0.580908 -1.00023 -0.790569 -0.790569
C-1.00023 -0.580908 -1.11803 -0.296506 -1.11803 0
C-1.11803 0.296506 -1.00023 0.580908 -0.790569 0.790569
C-0.580908 1.00023 -0.296506 1.11803 0 1.11803
z
" id="C0_12_af07e0942b"/>
     <path d="
M0 1.11803
C0.296506 1.11803 0.580908 1.00023 0.790569 0.790569
C1.00023 0.580908 1.11803 0.296506 1.11803 0
C1.11803 -0.296506 1.00023 -0.580908 0.790569 -0.790569
C0.580908 -1.00023 0.296506 -1.11803 0 -1.11803
C-0.296506 -1.11803 -0.580908 -1.00023 -0.790569 -0.790569
C-1.00023 -0.580908 -1.11803 -0.296506 -1.11803 0
C-1.11803 0.296506 -1.00023 0.580908 -0.790569 0.790569
C-0.580908 1.00023 -0.296506 1.11803 0 1.11803
z
" id="C0_13_af07e0942b"/>
     <path d="
M0 2.23607
C0.593012 2.23607 1.16182 2.00046 1.58114 1.58114
C2.00046 1.16182 2.23607 0.593012 2.23607 0
C2.23607 -0.593012 2.00046 -1.16182 1.58114 -1.58114
C1.16182 -2.00046 0.593012 -2.23607 0 -2.23607
C-0.593012 -2.23607 -1.16182 -2.00046 -1.58114 -1.58114
C-2.00046 -1.16182 -2.23607 -0.593012 -2.23607 0
C-2.23607 0.593012 -2.00046 1.16182 -1.58114 1.58114
C-1.16182 2.00046 -0.593012 2.23607 0 2.23607
z
" id="C0_14_919e3f95db"/>
     <path d="
M0 1.11803
C0.296506 1.11803 0.580908 1.00023 0.790569 0.790569
C1.00023 0.580908 1.11803 0.296506 1.11803 0
C1.11803 -0.296506 1.00023 -0.580908 0.790569 -0.790569
C0.580908 -1.00023 0.296506 -1.11803 0 -1.11803
C-0.296506 -1.11803 -0.580908 -1.00023 -0.790569 -0.790569
C-1.00023 -0.580908 -1.11803 -0.296506 -1.11803 0
C-1.11803 0.296506 -1.00023 0.580908 -0.790569 0.790569
C-0.580908 1.00023 -0.296506 1.11803 0 1.11803
z
" id="C0_15_af07e0942b"/>
     <path d="
M0 1.11803
C0.296506 1.11803 0.580908 1.00023 0.790569 0.790569
C1.00023 0.580908 1.11803 0.296506 1.11803 0
C1.11803 -0.296506 1.00023 -0.580908 0.790569 -0.790569
C0.580908 -1.00023 0.296506 -1.11803 0 -1.11803
C-0.296506 -1.11803 -0.580908 -1.00023 -0.790569 -0.790569
C-1.00023 -0.580908 -1.11803 -0.296506 -1.11803 0
C-1.11803 0.296506 -1.00023 0.580908 -0.790569 0.790569
C-0.580908 1.00023 -0.296506 1.11803 0 1.11803
z
" id="C0_16_af07e0942b"/>
    </defs>
    <g clip-path="url(#p57599689ab)">
     <use style="fill:#0000ff;stroke:#000000;stroke-width:0.3;" x="117.9" xlink:href="#C0_0_1bcdd59e0e" y="304.727272727"/>
    </g>
    <g clip-path="url(#p57599689ab)">
     <use style="fill:#0000ff;stroke:#000000;stroke-width:0.3;" x="117.9" xlink:href="#C0_1_14246cb0a9" y="275.636363636"/>
    </g>
    <g clip-path="url(#p57599689ab)">
     <use style="fill:#0000ff;stroke:#000000;stroke-width:0.3;" x="117.9" xlink:href="#C0_2_c2852accaa" y="246.545454545"/>
    </g>
    <g clip-path="url(#p57599689ab)">
     <use style="fill:#0000ff;stroke:#000000;stroke-width:0.3;" x="117.9" xlink:href="#C0_3_af07e0942b" y="217.454545455"/>
    </g>
    <g clip-path="url(#p57599689ab)">
     <use style="fill:#0000ff;stroke:#000000;stroke-width:0.3;" x="117.9" xlink:href="#C0_4_af07e0942b" y="188.363636364"/>
    </g>
    <g clip-path="url(#p57599689ab)">
     <use style="fill:#0000ff;stroke:#000000;stroke-width:0.3;" x="117.9" xlink:href="#C0_5_af07e0942b" y="101.090909091"/>
    </g>
    <g clip-path="url(#p57599689ab)">
     <use style="fill:#0000ff;stroke:#000000;stroke-width:0.3;" x="145.8" xlink:href="#C0_6_b6e9a3c12a" y="304.727272727"/>
    </g>
    <g clip-path="url(#p57599689ab)">
     <use style="fill:#0000ff;stroke:#000000;stroke-width:0.3;" x="145.8" xlink:href="#C0_7_71348ff635" y="275.636363636"/>
    </g>
    <g clip-path="url(#p57599689ab)">
     <use style="fill:#0000ff;stroke:#000000;stroke-width:0.3;" x="173.7" xlink:href="#C0_8_ea12693092" y="304.727272727"/>
    </g>
    <g clip-path="url(#p57599689ab)">
     <use style="fill:#0000ff;stroke:#000000;stroke-width:0.3;" x="173.7" xlink:href="#C0_9_71348ff635" y="275.636363636"/>
    </g>
    <g clip-path="url(#p57599689ab)">
     <use style="fill:#0000ff;stroke:#000000;stroke-width:0.3;" x="173.7" xlink:href="#C0_a_71348ff635" y="246.545454545"/>
    </g>
    <g clip-path="url(#p57599689ab)">
     <use style="fill:#0000ff;stroke:#000000;stroke-width:0.3;" x="201.6" xlink:href="#C0_b_feda8d285d" y="304.727272727"/>
    </g>
    <g clip-path="url(#p57599689ab)">
     <use style="fill:#0000ff;stroke:#000000;stroke-width:0.3;" x="201.6" xlink:href="#C0_c_05c5bf0d76" y="275.636363636"/>
    </g>
    <g clip-path="url(#p57599689ab)">
     <use style="fill:#0000ff;stroke:#000000;stroke-width:0.3;" x="201.6" xlink:href="#C0_d_71348ff635" y="246.545454545"/>
    </g>
    <g clip-path="url(#p57599689ab)">
     <use style="fill:#0000ff;stroke:#000000;stroke-width:0.3;" x="229.5" xlink:href="#C0_e_71348ff635" y="304.727272727"/>
    </g>
    <g clip-path="url(#p57599689ab)">
     <use style="fill:#0000ff;stroke:#000000;stroke-width:0.3;" x="229.5" xlink:href="#C0_f_43e184535d" y="275.636363636"/>
    </g>
    <g clip-path="url(#p57599689ab)">
     <use style="fill:#0000ff;stroke:#000000;stroke-width:0.3;" x="229.5" xlink:href="#C0_10_af07e0942b" y="246.545454545"/>
    </g>
    <g clip-path="url(#p57599689ab)">
     <use style="fill:#0000ff;stroke:#000000;stroke-width:0.3;" x="257.4" xlink:href="#C0_11_71348ff635" y="304.727272727"/>
    </g>
    <g clip-path="url(#p57599689ab)">
     <use style="fill:#0000ff;stroke:#000000;stroke-width:0.3;" x="313.2" xlink:href="#C0_12_af07e0942b" y="304.727272727"/>
    </g>
    <g clip-path="url(#p57599689ab)">
     <use style="fill:#0000ff;stroke:#000000;stroke-width:0.3;" x="313.2" xlink:href="#C0_13_af07e0942b" y="275.636363636"/>
    </g>
    <g clip-path="url(#p57599689ab)">
     <use style="fill:#0000ff;stroke:#000000;stroke-width:0.3;" x="313.2" xlink:href="#C0_14_919e3f95db" y="217.454545455"/>
    </g>
    <g clip-path="url(#p57599689ab)">
     <use style="fill:#0000ff;stroke:#000000;stroke-width:0.3;" x="369.0" xlink:href="#C0_15_af07e0942b" y="275.636363636"/>
    </g>
    <g clip-path="url(#p57599689ab)">
     <use style="fill:#0000ff;stroke:#000000;stroke-width:0.3;" x="592.2" xlink:href="#C0_16_af07e0942b" y="304.727272727"/>
    </g>
   </g>
   <g id="patch_3">
    <path d="
M90 72
L648 72" style="fill:none;stroke:#262626;stroke-width:1.25;"/>
   </g>
   <g id="patch_4">
    <path d="
M648 333.818
L648 72" style="fill:none;stroke:#262626;stroke-width:1.25;"/>
   </g>
   <g id="patch_5">
    <path d="
M90 333.818
L648 333.818" style="fill:none;stroke:#262626;stroke-width:1.25;"/>
   </g>
   <g id="patch_6">
    <path d="
M90 333.818
L90 72" style="fill:none;stroke:#262626;stroke-width:1.25;"/>
   </g>
  </g>
  <g id="axes_2">
   <g id="patch_7">
    <path d="
M90 648
L648 648
L648 386.182
L90 386.182
z
" style="fill:#ffffff;"/>
   </g>
   <g id="matplotlib.axis_3">
    <g id="xtick_6">
     <g id="line2d_31">
      <g>
       <use style="fill:#262626;stroke:#262626;" x="90.0" xlink:href="#m44d4eda7dc" y="648.0"/>
      </g>
     </g>
     <g id="line2d_32">
      <g>
       <use style="fill:#262626;stroke:#262626;" x="90.0" xlink:href="#m6214b81e1c" y="386.181818182"/>
      </g>
     </g>
     <g id="text_18">
      <!-- 0 -->
      <g style="fill:#262626;" transform="translate(87.48046875 668.5984375)scale(0.1 -0.1)">
       <use xlink:href="#BitstreamVeraSans-Roman-30"/>
      </g>
     </g>
    </g>
    <g id="xtick_7">
     <g id="line2d_33">
      <g>
       <use style="fill:#262626;stroke:#262626;" x="229.5" xlink:href="#m44d4eda7dc" y="648.0"/>
      </g>
     </g>
     <g id="line2d_34">
      <g>
       <use style="fill:#262626;stroke:#262626;" x="229.5" xlink:href="#m6214b81e1c" y="386.181818182"/>
      </g>
     </g>
     <g id="text_19">
      <!-- 5 -->
      <g style="fill:#262626;" transform="translate(227.14140625 668.5984375)scale(0.1 -0.1)">
       <use xlink:href="#BitstreamVeraSans-Roman-35"/>
      </g>
     </g>
    </g>
    <g id="xtick_8">
     <g id="line2d_35">
      <g>
       <use style="fill:#262626;stroke:#262626;" x="369.0" xlink:href="#m44d4eda7dc" y="648.0"/>
      </g>
     </g>
     <g id="line2d_36">
      <g>
       <use style="fill:#262626;stroke:#262626;" x="369.0" xlink:href="#m6214b81e1c" y="386.181818182"/>
      </g>
     </g>
     <g id="text_20">
      <!-- 10 -->
      <g style="fill:#262626;" transform="translate(363.51875 668.5984375)scale(0.1 -0.1)">
       <use xlink:href="#BitstreamVeraSans-Roman-31"/>
       <use x="63.623046875" xlink:href="#BitstreamVeraSans-Roman-30"/>
      </g>
     </g>
    </g>
    <g id="xtick_9">
     <g id="line2d_37">
      <g>
       <use style="fill:#262626;stroke:#262626;" x="508.5" xlink:href="#m44d4eda7dc" y="648.0"/>
      </g>
     </g>
     <g id="line2d_38">
      <g>
       <use style="fill:#262626;stroke:#262626;" x="508.5" xlink:href="#m6214b81e1c" y="386.181818182"/>
      </g>
     </g>
     <g id="text_21">
      <!-- 15 -->
      <g style="fill:#262626;" transform="translate(503.1234375 668.5984375)scale(0.1 -0.1)">
       <use xlink:href="#BitstreamVeraSans-Roman-31"/>
       <use x="63.623046875" xlink:href="#BitstreamVeraSans-Roman-35"/>
      </g>
     </g>
    </g>
    <g id="xtick_10">
     <g id="line2d_39">
      <g>
       <use style="fill:#262626;stroke:#262626;" x="648.0" xlink:href="#m44d4eda7dc" y="648.0"/>
      </g>
     </g>
     <g id="line2d_40">
      <g>
       <use style="fill:#262626;stroke:#262626;" x="648.0" xlink:href="#m6214b81e1c" y="386.181818182"/>
      </g>
     </g>
     <g id="text_22">
      <!-- 20 -->
      <g style="fill:#262626;" transform="translate(642.3359375 668.5984375)scale(0.1 -0.1)">
       <use xlink:href="#BitstreamVeraSans-Roman-32"/>
       <use x="63.623046875" xlink:href="#BitstreamVeraSans-Roman-30"/>
      </g>
     </g>
    </g>
    <g id="text_23">
     <!-- # of Regulators for Reaction -->
     <g style="fill:#262626;" transform="translate(291.6321875 684.03640625)scale(0.11 -0.11)">
      <use xlink:href="#BitstreamVeraSans-Roman-23"/>
      <use x="83.7890625" xlink:href="#BitstreamVeraSans-Roman-20"/>
      <use x="115.576171875" xlink:href="#BitstreamVeraSans-Roman-6f"/>
      <use x="176.7578125" xlink:href="#BitstreamVeraSans-Roman-66"/>
      <use x="211.962890625" xlink:href="#BitstreamVeraSans-Roman-20"/>
      <use x="243.75" xlink:href="#BitstreamVeraSans-Roman-52"/>
      <use x="308.732421875" xlink:href="#BitstreamVeraSans-Roman-65"/>
      <use x="370.255859375" xlink:href="#BitstreamVeraSans-Roman-67"/>
      <use x="433.732421875" xlink:href="#BitstreamVeraSans-Roman-75"/>
      <use x="497.111328125" xlink:href="#BitstreamVeraSans-Roman-6c"/>
      <use x="524.89453125" xlink:href="#BitstreamVeraSans-Roman-61"/>
      <use x="586.173828125" xlink:href="#BitstreamVeraSans-Roman-74"/>
      <use x="625.3828125" xlink:href="#BitstreamVeraSans-Roman-6f"/>
      <use x="686.564453125" xlink:href="#BitstreamVeraSans-Roman-72"/>
      <use x="727.677734375" xlink:href="#BitstreamVeraSans-Roman-73"/>
      <use x="779.77734375" xlink:href="#BitstreamVeraSans-Roman-20"/>
      <use x="811.564453125" xlink:href="#BitstreamVeraSans-Roman-66"/>
      <use x="846.76953125" xlink:href="#BitstreamVeraSans-Roman-6f"/>
      <use x="907.951171875" xlink:href="#BitstreamVeraSans-Roman-72"/>
      <use x="949.064453125" xlink:href="#BitstreamVeraSans-Roman-20"/>
      <use x="980.8515625" xlink:href="#BitstreamVeraSans-Roman-52"/>
      <use x="1045.83398438" xlink:href="#BitstreamVeraSans-Roman-65"/>
      <use x="1107.35742188" xlink:href="#BitstreamVeraSans-Roman-61"/>
      <use x="1168.63671875" xlink:href="#BitstreamVeraSans-Roman-63"/>
      <use x="1223.6171875" xlink:href="#BitstreamVeraSans-Roman-74"/>
      <use x="1262.82617188" xlink:href="#BitstreamVeraSans-Roman-69"/>
      <use x="1290.609375" xlink:href="#BitstreamVeraSans-Roman-6f"/>
      <use x="1351.79101562" xlink:href="#BitstreamVeraSans-Roman-6e"/>
     </g>
    </g>
   </g>
   <g id="matplotlib.axis_4">
    <g id="ytick_11">
     <g id="line2d_41">
      <g>
       <use style="fill:#262626;stroke:#262626;" x="90.0" xlink:href="#m0dfa6ce036" y="648.0"/>
      </g>
     </g>
     <g id="line2d_42">
      <g>
       <use style="fill:#262626;stroke:#262626;" x="648.0" xlink:href="#m0afc27f78c" y="648.0"/>
      </g>
     </g>
     <g id="text_24">
      <!-- 5 -->
      <defs>
       <path d="
M10.5938 35.5
L73.1875 35.5
L73.1875 27.2031
L10.5938 27.2031
z
" id="BitstreamVeraSans-Roman-2212"/>
      </defs>
      <g style="fill:#262626;" transform="translate(64.190625 650.759375)scale(0.1 -0.1)">
       <use xlink:href="#BitstreamVeraSans-Roman-2212"/>
       <use x="83.7890625" xlink:href="#BitstreamVeraSans-Roman-35"/>
      </g>
     </g>
    </g>
    <g id="ytick_12">
     <g id="line2d_43">
      <g>
       <use style="fill:#262626;stroke:#262626;" x="90.0" xlink:href="#m0dfa6ce036" y="618.909090909"/>
      </g>
     </g>
     <g id="line2d_44">
      <g>
       <use style="fill:#262626;stroke:#262626;" x="648.0" xlink:href="#m0afc27f78c" y="618.909090909"/>
      </g>
     </g>
     <g id="text_25">
      <!-- 0 -->
      <g style="fill:#262626;" transform="translate(71.9609375 621.668465909)scale(0.1 -0.1)">
       <use xlink:href="#BitstreamVeraSans-Roman-30"/>
      </g>
     </g>
    </g>
    <g id="ytick_13">
     <g id="line2d_45">
      <g>
       <use style="fill:#262626;stroke:#262626;" x="90.0" xlink:href="#m0dfa6ce036" y="589.818181818"/>
      </g>
     </g>
     <g id="line2d_46">
      <g>
       <use style="fill:#262626;stroke:#262626;" x="648.0" xlink:href="#m0afc27f78c" y="589.818181818"/>
      </g>
     </g>
     <g id="text_26">
      <!-- 5 -->
      <g style="fill:#262626;" transform="translate(72.2828125 592.577556818)scale(0.1 -0.1)">
       <use xlink:href="#BitstreamVeraSans-Roman-35"/>
      </g>
     </g>
    </g>
    <g id="ytick_14">
     <g id="line2d_47">
      <g>
       <use style="fill:#262626;stroke:#262626;" x="90.0" xlink:href="#m0dfa6ce036" y="560.727272727"/>
      </g>
     </g>
     <g id="line2d_48">
      <g>
       <use style="fill:#262626;stroke:#262626;" x="648.0" xlink:href="#m0afc27f78c" y="560.727272727"/>
      </g>
     </g>
     <g id="text_27">
      <!-- 10 -->
      <g style="fill:#262626;" transform="translate(66.0375 563.486647727)scale(0.1 -0.1)">
       <use xlink:href="#BitstreamVeraSans-Roman-31"/>
       <use x="63.623046875" xlink:href="#BitstreamVeraSans-Roman-30"/>
      </g>
     </g>
    </g>
    <g id="ytick_15">
     <g id="line2d_49">
      <g>
       <use style="fill:#262626;stroke:#262626;" x="90.0" xlink:href="#m0dfa6ce036" y="531.636363636"/>
      </g>
     </g>
     <g id="line2d_50">
      <g>
       <use style="fill:#262626;stroke:#262626;" x="648.0" xlink:href="#m0afc27f78c" y="531.636363636"/>
      </g>
     </g>
     <g id="text_28">
      <!-- 15 -->
      <g style="fill:#262626;" transform="translate(66.246875 534.395738636)scale(0.1 -0.1)">
       <use xlink:href="#BitstreamVeraSans-Roman-31"/>
       <use x="63.623046875" xlink:href="#BitstreamVeraSans-Roman-35"/>
      </g>
     </g>
    </g>
    <g id="ytick_16">
     <g id="line2d_51">
      <g>
       <use style="fill:#262626;stroke:#262626;" x="90.0" xlink:href="#m0dfa6ce036" y="502.545454545"/>
      </g>
     </g>
     <g id="line2d_52">
      <g>
       <use style="fill:#262626;stroke:#262626;" x="648.0" xlink:href="#m0afc27f78c" y="502.545454545"/>
      </g>
     </g>
     <g id="text_29">
      <!-- 20 -->
      <g style="fill:#262626;" transform="translate(65.671875 505.304829545)scale(0.1 -0.1)">
       <use xlink:href="#BitstreamVeraSans-Roman-32"/>
       <use x="63.623046875" xlink:href="#BitstreamVeraSans-Roman-30"/>
      </g>
     </g>
    </g>
    <g id="ytick_17">
     <g id="line2d_53">
      <g>
       <use style="fill:#262626;stroke:#262626;" x="90.0" xlink:href="#m0dfa6ce036" y="473.454545455"/>
      </g>
     </g>
     <g id="line2d_54">
      <g>
       <use style="fill:#262626;stroke:#262626;" x="648.0" xlink:href="#m0afc27f78c" y="473.454545455"/>
      </g>
     </g>
     <g id="text_30">
      <!-- 25 -->
      <g style="fill:#262626;" transform="translate(65.88125 476.213920455)scale(0.1 -0.1)">
       <use xlink:href="#BitstreamVeraSans-Roman-32"/>
       <use x="63.623046875" xlink:href="#BitstreamVeraSans-Roman-35"/>
      </g>
     </g>
    </g>
    <g id="ytick_18">
     <g id="line2d_55">
      <g>
       <use style="fill:#262626;stroke:#262626;" x="90.0" xlink:href="#m0dfa6ce036" y="444.363636364"/>
      </g>
     </g>
     <g id="line2d_56">
      <g>
       <use style="fill:#262626;stroke:#262626;" x="648.0" xlink:href="#m0afc27f78c" y="444.363636364"/>
      </g>
     </g>
     <g id="text_31">
      <!-- 30 -->
      <g style="fill:#262626;" transform="translate(65.7015625 447.123011364)scale(0.1 -0.1)">
       <use xlink:href="#BitstreamVeraSans-Roman-33"/>
       <use x="63.623046875" xlink:href="#BitstreamVeraSans-Roman-30"/>
      </g>
     </g>
    </g>
    <g id="ytick_19">
     <g id="line2d_57">
      <g>
       <use style="fill:#262626;stroke:#262626;" x="90.0" xlink:href="#m0dfa6ce036" y="415.272727273"/>
      </g>
     </g>
     <g id="line2d_58">
      <g>
       <use style="fill:#262626;stroke:#262626;" x="648.0" xlink:href="#m0afc27f78c" y="415.272727273"/>
      </g>
     </g>
     <g id="text_32">
      <!-- 35 -->
      <g style="fill:#262626;" transform="translate(65.9109375 418.032102273)scale(0.1 -0.1)">
       <use xlink:href="#BitstreamVeraSans-Roman-33"/>
       <use x="63.623046875" xlink:href="#BitstreamVeraSans-Roman-35"/>
      </g>
     </g>
    </g>
    <g id="ytick_20">
     <g id="line2d_59">
      <g>
       <use style="fill:#262626;stroke:#262626;" x="90.0" xlink:href="#m0dfa6ce036" y="386.181818182"/>
      </g>
     </g>
     <g id="line2d_60">
      <g>
       <use style="fill:#262626;stroke:#262626;" x="648.0" xlink:href="#m0afc27f78c" y="386.181818182"/>
      </g>
     </g>
     <g id="text_33">
      <!-- 40 -->
      <g style="fill:#262626;" transform="translate(65.428125 388.941193182)scale(0.1 -0.1)">
       <use xlink:href="#BitstreamVeraSans-Roman-34"/>
       <use x="63.623046875" xlink:href="#BitstreamVeraSans-Roman-30"/>
      </g>
     </g>
    </g>
    <g id="text_34">
     <!-- # of TFs Regulating Reaction -->
     <defs>
      <path d="
M9.8125 72.9062
L51.7031 72.9062
L51.7031 64.5938
L19.6719 64.5938
L19.6719 43.1094
L48.5781 43.1094
L48.5781 34.8125
L19.6719 34.8125
L19.6719 0
L9.8125 0
z
" id="BitstreamVeraSans-Roman-46"/>
      <path d="
M-0.296875 72.9062
L61.375 72.9062
L61.375 64.5938
L35.5 64.5938
L35.5 0
L25.5938 0
L25.5938 64.5938
L-0.296875 64.5938
z
" id="BitstreamVeraSans-Roman-54"/>
     </defs>
     <g style="fill:#262626;" transform="translate(56.90296875 596.297784091)rotate(-90.0)scale(0.11 -0.11)">
      <use xlink:href="#BitstreamVeraSans-Roman-23"/>
      <use x="83.7890625" xlink:href="#BitstreamVeraSans-Roman-20"/>
      <use x="115.576171875" xlink:href="#BitstreamVeraSans-Roman-6f"/>
      <use x="176.7578125" xlink:href="#BitstreamVeraSans-Roman-66"/>
      <use x="211.962890625" xlink:href="#BitstreamVeraSans-Roman-20"/>
      <use x="243.75" xlink:href="#BitstreamVeraSans-Roman-54"/>
      <use x="304.833984375" xlink:href="#BitstreamVeraSans-Roman-46"/>
      <use x="362.353515625" xlink:href="#BitstreamVeraSans-Roman-73"/>
      <use x="414.453125" xlink:href="#BitstreamVeraSans-Roman-20"/>
      <use x="446.240234375" xlink:href="#BitstreamVeraSans-Roman-52"/>
      <use x="511.22265625" xlink:href="#BitstreamVeraSans-Roman-65"/>
      <use x="572.74609375" xlink:href="#BitstreamVeraSans-Roman-67"/>
      <use x="636.22265625" xlink:href="#BitstreamVeraSans-Roman-75"/>
      <use x="699.6015625" xlink:href="#BitstreamVeraSans-Roman-6c"/>
      <use x="727.384765625" xlink:href="#BitstreamVeraSans-Roman-61"/>
      <use x="788.6640625" xlink:href="#BitstreamVeraSans-Roman-74"/>
      <use x="827.873046875" xlink:href="#BitstreamVeraSans-Roman-69"/>
      <use x="855.65625" xlink:href="#BitstreamVeraSans-Roman-6e"/>
      <use x="919.03515625" xlink:href="#BitstreamVeraSans-Roman-67"/>
      <use x="982.51171875" xlink:href="#BitstreamVeraSans-Roman-20"/>
      <use x="1014.29882812" xlink:href="#BitstreamVeraSans-Roman-52"/>
      <use x="1079.28125" xlink:href="#BitstreamVeraSans-Roman-65"/>
      <use x="1140.8046875" xlink:href="#BitstreamVeraSans-Roman-61"/>
      <use x="1202.08398438" xlink:href="#BitstreamVeraSans-Roman-63"/>
      <use x="1257.06445312" xlink:href="#BitstreamVeraSans-Roman-74"/>
      <use x="1296.2734375" xlink:href="#BitstreamVeraSans-Roman-69"/>
      <use x="1324.05664062" xlink:href="#BitstreamVeraSans-Roman-6f"/>
      <use x="1385.23828125" xlink:href="#BitstreamVeraSans-Roman-6e"/>
     </g>
    </g>
   </g>
   <g id="PathCollection_2">
    <defs>
     <path d="
M0 6.61438
C1.75415 6.61438 3.4367 5.91745 4.67707 4.67707
C5.91745 3.4367 6.61438 1.75415 6.61438 0
C6.61438 -1.75415 5.91745 -3.4367 4.67707 -4.67707
C3.4367 -5.91745 1.75415 -6.61438 0 -6.61438
C-1.75415 -6.61438 -3.4367 -5.91745 -4.67707 -4.67707
C-5.91745 -3.4367 -6.61438 -1.75415 -6.61438 0
C-6.61438 1.75415 -5.91745 3.4367 -4.67707 4.67707
C-3.4367 5.91745 -1.75415 6.61438 0 6.61438
z
" id="C1_0_e3a3b1670f"/>
     <path d="
M0 5.59017
C1.48253 5.59017 2.90454 5.00115 3.95285 3.95285
C5.00115 2.90454 5.59017 1.48253 5.59017 0
C5.59017 -1.48253 5.00115 -2.90454 3.95285 -3.95285
C2.90454 -5.00115 1.48253 -5.59017 0 -5.59017
C-1.48253 -5.59017 -2.90454 -5.00115 -3.95285 -3.95285
C-5.00115 -2.90454 -5.59017 -1.48253 -5.59017 0
C-5.59017 1.48253 -5.00115 2.90454 -3.95285 3.95285
C-2.90454 5.00115 -1.48253 5.59017 0 5.59017
z
" id="C1_1_d25c5efc61"/>
     <path d="
M0 5.70088
C1.51189 5.70088 2.96206 5.1002 4.03113 4.03113
C5.1002 2.96206 5.70088 1.51189 5.70088 0
C5.70088 -1.51189 5.1002 -2.96206 4.03113 -4.03113
C2.96206 -5.1002 1.51189 -5.70088 0 -5.70088
C-1.51189 -5.70088 -2.96206 -5.1002 -4.03113 -4.03113
C-5.1002 -2.96206 -5.70088 -1.51189 -5.70088 0
C-5.70088 1.51189 -5.1002 2.96206 -4.03113 4.03113
C-2.96206 5.1002 -1.51189 5.70088 0 5.70088
z
" id="C1_2_32752a9442"/>
     <path d="
M0 1.93649
C0.513564 1.93649 1.00616 1.73245 1.36931 1.36931
C1.73245 1.00616 1.93649 0.513564 1.93649 0
C1.93649 -0.513564 1.73245 -1.00616 1.36931 -1.36931
C1.00616 -1.73245 0.513564 -1.93649 0 -1.93649
C-0.513564 -1.93649 -1.00616 -1.73245 -1.36931 -1.36931
C-1.73245 -1.00616 -1.93649 -0.513564 -1.93649 0
C-1.93649 0.513564 -1.73245 1.00616 -1.36931 1.36931
C-1.00616 1.73245 -0.513564 1.93649 0 1.93649
z
" id="C1_3_43e184535d"/>
     <path d="
M0 1.93649
C0.513564 1.93649 1.00616 1.73245 1.36931 1.36931
C1.73245 1.00616 1.93649 0.513564 1.93649 0
C1.93649 -0.513564 1.73245 -1.00616 1.36931 -1.36931
C1.00616 -1.73245 0.513564 -1.93649 0 -1.93649
C-0.513564 -1.93649 -1.00616 -1.73245 -1.36931 -1.36931
C-1.73245 -1.00616 -1.93649 -0.513564 -1.93649 0
C-1.93649 0.513564 -1.73245 1.00616 -1.36931 1.36931
C-1.00616 1.73245 -0.513564 1.93649 0 1.93649
z
" id="C1_4_43e184535d"/>
     <path d="
M0 2.23607
C0.593012 2.23607 1.16182 2.00046 1.58114 1.58114
C2.00046 1.16182 2.23607 0.593012 2.23607 0
C2.23607 -0.593012 2.00046 -1.16182 1.58114 -1.58114
C1.16182 -2.00046 0.593012 -2.23607 0 -2.23607
C-0.593012 -2.23607 -1.16182 -2.00046 -1.58114 -1.58114
C-2.00046 -1.16182 -2.23607 -0.593012 -2.23607 0
C-2.23607 0.593012 -2.00046 1.16182 -1.58114 1.58114
C-1.16182 2.00046 -0.593012 2.23607 0 2.23607
z
" id="C1_5_919e3f95db"/>
     <path d="
M0 2.23607
C0.593012 2.23607 1.16182 2.00046 1.58114 1.58114
C2.00046 1.16182 2.23607 0.593012 2.23607 0
C2.23607 -0.593012 2.00046 -1.16182 1.58114 -1.58114
C1.16182 -2.00046 0.593012 -2.23607 0 -2.23607
C-0.593012 -2.23607 -1.16182 -2.00046 -1.58114 -1.58114
C-2.00046 -1.16182 -2.23607 -0.593012 -2.23607 0
C-2.23607 0.593012 -2.00046 1.16182 -1.58114 1.58114
C-1.16182 2.00046 -0.593012 2.23607 0 2.23607
z
" id="C1_6_919e3f95db"/>
     <path d="
M0 1.11803
C0.296506 1.11803 0.580908 1.00023 0.790569 0.790569
C1.00023 0.580908 1.11803 0.296506 1.11803 0
C1.11803 -0.296506 1.00023 -0.580908 0.790569 -0.790569
C0.580908 -1.00023 0.296506 -1.11803 0 -1.11803
C-0.296506 -1.11803 -0.580908 -1.00023 -0.790569 -0.790569
C-1.00023 -0.580908 -1.11803 -0.296506 -1.11803 0
C-1.11803 0.296506 -1.00023 0.580908 -0.790569 0.790569
C-0.580908 1.00023 -0.296506 1.11803 0 1.11803
z
" id="C1_7_af07e0942b"/>
     <path d="
M0 1.11803
C0.296506 1.11803 0.580908 1.00023 0.790569 0.790569
C1.00023 0.580908 1.11803 0.296506 1.11803 0
C1.11803 -0.296506 1.00023 -0.580908 0.790569 -0.790569
C0.580908 -1.00023 0.296506 -1.11803 0 -1.11803
C-0.296506 -1.11803 -0.580908 -1.00023 -0.790569 -0.790569
C-1.00023 -0.580908 -1.11803 -0.296506 -1.11803 0
C-1.11803 0.296506 -1.00023 0.580908 -0.790569 0.790569
C-0.580908 1.00023 -0.296506 1.11803 0 1.11803
z
" id="C1_8_af07e0942b"/>
     <path d="
M0 1.11803
C0.296506 1.11803 0.580908 1.00023 0.790569 0.790569
C1.00023 0.580908 1.11803 0.296506 1.11803 0
C1.11803 -0.296506 1.00023 -0.580908 0.790569 -0.790569
C0.580908 -1.00023 0.296506 -1.11803 0 -1.11803
C-0.296506 -1.11803 -0.580908 -1.00023 -0.790569 -0.790569
C-1.00023 -0.580908 -1.11803 -0.296506 -1.11803 0
C-1.11803 0.296506 -1.00023 0.580908 -0.790569 0.790569
C-0.580908 1.00023 -0.296506 1.11803 0 1.11803
z
" id="C1_9_af07e0942b"/>
     <path d="
M0 1.11803
C0.296506 1.11803 0.580908 1.00023 0.790569 0.790569
C1.00023 0.580908 1.11803 0.296506 1.11803 0
C1.11803 -0.296506 1.00023 -0.580908 0.790569 -0.790569
C0.580908 -1.00023 0.296506 -1.11803 0 -1.11803
C-0.296506 -1.11803 -0.580908 -1.00023 -0.790569 -0.790569
C-1.00023 -0.580908 -1.11803 -0.296506 -1.11803 0
C-1.11803 0.296506 -1.00023 0.580908 -0.790569 0.790569
C-0.580908 1.00023 -0.296506 1.11803 0 1.11803
z
" id="C1_a_af07e0942b"/>
     <path d="
M0 1.11803
C0.296506 1.11803 0.580908 1.00023 0.790569 0.790569
C1.00023 0.580908 1.11803 0.296506 1.11803 0
C1.11803 -0.296506 1.00023 -0.580908 0.790569 -0.790569
C0.580908 -1.00023 0.296506 -1.11803 0 -1.11803
C-0.296506 -1.11803 -0.580908 -1.00023 -0.790569 -0.790569
C-1.00023 -0.580908 -1.11803 -0.296506 -1.11803 0
C-1.11803 0.296506 -1.00023 0.580908 -0.790569 0.790569
C-0.580908 1.00023 -0.296506 1.11803 0 1.11803
z
" id="C1_b_af07e0942b"/>
     <path d="
M0 1.11803
C0.296506 1.11803 0.580908 1.00023 0.790569 0.790569
C1.00023 0.580908 1.11803 0.296506 1.11803 0
C1.11803 -0.296506 1.00023 -0.580908 0.790569 -0.790569
C0.580908 -1.00023 0.296506 -1.11803 0 -1.11803
C-0.296506 -1.11803 -0.580908 -1.00023 -0.790569 -0.790569
C-1.00023 -0.580908 -1.11803 -0.296506 -1.11803 0
C-1.11803 0.296506 -1.00023 0.580908 -0.790569 0.790569
C-0.580908 1.00023 -0.296506 1.11803 0 1.11803
z
" id="C1_c_af07e0942b"/>
     <path d="
M0 1.11803
C0.296506 1.11803 0.580908 1.00023 0.790569 0.790569
C1.00023 0.580908 1.11803 0.296506 1.11803 0
C1.11803 -0.296506 1.00023 -0.580908 0.790569 -0.790569
C0.580908 -1.00023 0.296506 -1.11803 0 -1.11803
C-0.296506 -1.11803 -0.580908 -1.00023 -0.790569 -0.790569
C-1.00023 -0.580908 -1.11803 -0.296506 -1.11803 0
C-1.11803 0.296506 -1.00023 0.580908 -0.790569 0.790569
C-0.580908 1.00023 -0.296506 1.11803 0 1.11803
z
" id="C1_d_af07e0942b"/>
     <path d="
M0 4.74342
C1.25797 4.74342 2.46458 4.24362 3.3541 3.3541
C4.24362 2.46458 4.74342 1.25797 4.74342 0
C4.74342 -1.25797 4.24362 -2.46458 3.3541 -3.3541
C2.46458 -4.24362 1.25797 -4.74342 0 -4.74342
C-1.25797 -4.74342 -2.46458 -4.24362 -3.3541 -3.3541
C-4.24362 -2.46458 -4.74342 -1.25797 -4.74342 0
C-4.74342 1.25797 -4.24362 2.46458 -3.3541 3.3541
C-2.46458 4.24362 -1.25797 4.74342 0 4.74342
z
" id="C1_e_72e6d5a2bf"/>
     <path d="
M0 2.73861
C0.726289 2.73861 1.42293 2.45006 1.93649 1.93649
C2.45006 1.42293 2.73861 0.726289 2.73861 0
C2.73861 -0.726289 2.45006 -1.42293 1.93649 -1.93649
C1.42293 -2.45006 0.726289 -2.73861 0 -2.73861
C-0.726289 -2.73861 -1.42293 -2.45006 -1.93649 -1.93649
C-2.45006 -1.42293 -2.73861 -0.726289 -2.73861 0
C-2.73861 0.726289 -2.45006 1.42293 -1.93649 1.93649
C-1.42293 2.45006 -0.726289 2.73861 0 2.73861
z
" id="C1_f_976255c095"/>
     <path d="
M0 1.58114
C0.419323 1.58114 0.821528 1.41454 1.11803 1.11803
C1.41454 0.821528 1.58114 0.419323 1.58114 0
C1.58114 -0.419323 1.41454 -0.821528 1.11803 -1.11803
C0.821528 -1.41454 0.419323 -1.58114 0 -1.58114
C-0.419323 -1.58114 -0.821528 -1.41454 -1.11803 -1.11803
C-1.41454 -0.821528 -1.58114 -0.419323 -1.58114 0
C-1.58114 0.419323 -1.41454 0.821528 -1.11803 1.11803
C-0.821528 1.41454 -0.419323 1.58114 0 1.58114
z
" id="C1_10_71348ff635"/>
     <path d="
M0 1.58114
C0.419323 1.58114 0.821528 1.41454 1.11803 1.11803
C1.41454 0.821528 1.58114 0.419323 1.58114 0
C1.58114 -0.419323 1.41454 -0.821528 1.11803 -1.11803
C0.821528 -1.41454 0.419323 -1.58114 0 -1.58114
C-0.419323 -1.58114 -0.821528 -1.41454 -1.11803 -1.11803
C-1.41454 -0.821528 -1.58114 -0.419323 -1.58114 0
C-1.58114 0.419323 -1.41454 0.821528 -1.11803 1.11803
C-0.821528 1.41454 -0.419323 1.58114 0 1.58114
z
" id="C1_11_71348ff635"/>
     <path d="
M0 1.11803
C0.296506 1.11803 0.580908 1.00023 0.790569 0.790569
C1.00023 0.580908 1.11803 0.296506 1.11803 0
C1.11803 -0.296506 1.00023 -0.580908 0.790569 -0.790569
C0.580908 -1.00023 0.296506 -1.11803 0 -1.11803
C-0.296506 -1.11803 -0.580908 -1.00023 -0.790569 -0.790569
C-1.00023 -0.580908 -1.11803 -0.296506 -1.11803 0
C-1.11803 0.296506 -1.00023 0.580908 -0.790569 0.790569
C-0.580908 1.00023 -0.296506 1.11803 0 1.11803
z
" id="C1_12_af07e0942b"/>
     <path d="
M0 1.11803
C0.296506 1.11803 0.580908 1.00023 0.790569 0.790569
C1.00023 0.580908 1.11803 0.296506 1.11803 0
C1.11803 -0.296506 1.00023 -0.580908 0.790569 -0.790569
C0.580908 -1.00023 0.296506 -1.11803 0 -1.11803
C-0.296506 -1.11803 -0.580908 -1.00023 -0.790569 -0.790569
C-1.00023 -0.580908 -1.11803 -0.296506 -1.11803 0
C-1.11803 0.296506 -1.00023 0.580908 -0.790569 0.790569
C-0.580908 1.00023 -0.296506 1.11803 0 1.11803
z
" id="C1_13_af07e0942b"/>
     <path d="
M0 1.58114
C0.419323 1.58114 0.821528 1.41454 1.11803 1.11803
C1.41454 0.821528 1.58114 0.419323 1.58114 0
C1.58114 -0.419323 1.41454 -0.821528 1.11803 -1.11803
C0.821528 -1.41454 0.419323 -1.58114 0 -1.58114
C-0.419323 -1.58114 -0.821528 -1.41454 -1.11803 -1.11803
C-1.41454 -0.821528 -1.58114 -0.419323 -1.58114 0
C-1.58114 0.419323 -1.41454 0.821528 -1.11803 1.11803
C-0.821528 1.41454 -0.419323 1.58114 0 1.58114
z
" id="C1_14_71348ff635"/>
     <path d="
M0 3.87298
C1.02713 3.87298 2.01232 3.4649 2.73861 2.73861
C3.4649 2.01232 3.87298 1.02713 3.87298 0
C3.87298 -1.02713 3.4649 -2.01232 2.73861 -2.73861
C2.01232 -3.4649 1.02713 -3.87298 0 -3.87298
C-1.02713 -3.87298 -2.01232 -3.4649 -2.73861 -2.73861
C-3.4649 -2.01232 -3.87298 -1.02713 -3.87298 0
C-3.87298 1.02713 -3.4649 2.01232 -2.73861 2.73861
C-2.01232 3.4649 -1.02713 3.87298 0 3.87298
z
" id="C1_15_5009dfc2f8"/>
     <path d="
M0 3.7081
C0.983399 3.7081 1.92665 3.31739 2.62202 2.62202
C3.31739 1.92665 3.7081 0.983399 3.7081 0
C3.7081 -0.983399 3.31739 -1.92665 2.62202 -2.62202
C1.92665 -3.31739 0.983399 -3.7081 0 -3.7081
C-0.983399 -3.7081 -1.92665 -3.31739 -2.62202 -2.62202
C-3.31739 -1.92665 -3.7081 -0.983399 -3.7081 0
C-3.7081 0.983399 -3.31739 1.92665 -2.62202 2.62202
C-1.92665 3.31739 -0.983399 3.7081 0 3.7081
z
" id="C1_16_feda8d285d"/>
     <path d="
M0 1.11803
C0.296506 1.11803 0.580908 1.00023 0.790569 0.790569
C1.00023 0.580908 1.11803 0.296506 1.11803 0
C1.11803 -0.296506 1.00023 -0.580908 0.790569 -0.790569
C0.580908 -1.00023 0.296506 -1.11803 0 -1.11803
C-0.296506 -1.11803 -0.580908 -1.00023 -0.790569 -0.790569
C-1.00023 -0.580908 -1.11803 -0.296506 -1.11803 0
C-1.11803 0.296506 -1.00023 0.580908 -0.790569 0.790569
C-0.580908 1.00023 -0.296506 1.11803 0 1.11803
z
" id="C1_17_af07e0942b"/>
     <path d="
M0 1.11803
C0.296506 1.11803 0.580908 1.00023 0.790569 0.790569
C1.00023 0.580908 1.11803 0.296506 1.11803 0
C1.11803 -0.296506 1.00023 -0.580908 0.790569 -0.790569
C0.580908 -1.00023 0.296506 -1.11803 0 -1.11803
C-0.296506 -1.11803 -0.580908 -1.00023 -0.790569 -0.790569
C-1.00023 -0.580908 -1.11803 -0.296506 -1.11803 0
C-1.11803 0.296506 -1.00023 0.580908 -0.790569 0.790569
C-0.580908 1.00023 -0.296506 1.11803 0 1.11803
z
" id="C1_18_af07e0942b"/>
     <path d="
M0 1.11803
C0.296506 1.11803 0.580908 1.00023 0.790569 0.790569
C1.00023 0.580908 1.11803 0.296506 1.11803 0
C1.11803 -0.296506 1.00023 -0.580908 0.790569 -0.790569
C0.580908 -1.00023 0.296506 -1.11803 0 -1.11803
C-0.296506 -1.11803 -0.580908 -1.00023 -0.790569 -0.790569
C-1.00023 -0.580908 -1.11803 -0.296506 -1.11803 0
C-1.11803 0.296506 -1.00023 0.580908 -0.790569 0.790569
C-0.580908 1.00023 -0.296506 1.11803 0 1.11803
z
" id="C1_19_af07e0942b"/>
     <path d="
M0 1.11803
C0.296506 1.11803 0.580908 1.00023 0.790569 0.790569
C1.00023 0.580908 1.11803 0.296506 1.11803 0
C1.11803 -0.296506 1.00023 -0.580908 0.790569 -0.790569
C0.580908 -1.00023 0.296506 -1.11803 0 -1.11803
C-0.296506 -1.11803 -0.580908 -1.00023 -0.790569 -0.790569
C-1.00023 -0.580908 -1.11803 -0.296506 -1.11803 0
C-1.11803 0.296506 -1.00023 0.580908 -0.790569 0.790569
C-0.580908 1.00023 -0.296506 1.11803 0 1.11803
z
" id="C1_1a_af07e0942b"/>
     <path d="
M0 5
C1.32602 5 2.5979 4.47317 3.53553 3.53553
C4.47317 2.5979 5 1.32602 5 0
C5 -1.32602 4.47317 -2.5979 3.53553 -3.53553
C2.5979 -4.47317 1.32602 -5 0 -5
C-1.32602 -5 -2.5979 -4.47317 -3.53553 -3.53553
C-4.47317 -2.5979 -5 -1.32602 -5 0
C-5 1.32602 -4.47317 2.5979 -3.53553 3.53553
C-2.5979 4.47317 -1.32602 5 0 5
z
" id="C1_1b_95d0887793"/>
     <path d="
M0 3.3541
C0.889518 3.3541 1.74272 3.00069 2.37171 2.37171
C3.00069 1.74272 3.3541 0.889518 3.3541 0
C3.3541 -0.889518 3.00069 -1.74272 2.37171 -2.37171
C1.74272 -3.00069 0.889518 -3.3541 0 -3.3541
C-0.889518 -3.3541 -1.74272 -3.00069 -2.37171 -2.37171
C-3.00069 -1.74272 -3.3541 -0.889518 -3.3541 0
C-3.3541 0.889518 -3.00069 1.74272 -2.37171 2.37171
C-1.74272 3.00069 -0.889518 3.3541 0 3.3541
z
" id="C1_1c_bfe955e8a6"/>
     <path d="
M0 1.58114
C0.419323 1.58114 0.821528 1.41454 1.11803 1.11803
C1.41454 0.821528 1.58114 0.419323 1.58114 0
C1.58114 -0.419323 1.41454 -0.821528 1.11803 -1.11803
C0.821528 -1.41454 0.419323 -1.58114 0 -1.58114
C-0.419323 -1.58114 -0.821528 -1.41454 -1.11803 -1.11803
C-1.41454 -0.821528 -1.58114 -0.419323 -1.58114 0
C-1.58114 0.419323 -1.41454 0.821528 -1.11803 1.11803
C-0.821528 1.41454 -0.419323 1.58114 0 1.58114
z
" id="C1_1d_71348ff635"/>
     <path d="
M0 1.11803
C0.296506 1.11803 0.580908 1.00023 0.790569 0.790569
C1.00023 0.580908 1.11803 0.296506 1.11803 0
C1.11803 -0.296506 1.00023 -0.580908 0.790569 -0.790569
C0.580908 -1.00023 0.296506 -1.11803 0 -1.11803
C-0.296506 -1.11803 -0.580908 -1.00023 -0.790569 -0.790569
C-1.00023 -0.580908 -1.11803 -0.296506 -1.11803 0
C-1.11803 0.296506 -1.00023 0.580908 -0.790569 0.790569
C-0.580908 1.00023 -0.296506 1.11803 0 1.11803
z
" id="C1_1e_af07e0942b"/>
     <path d="
M0 1.58114
C0.419323 1.58114 0.821528 1.41454 1.11803 1.11803
C1.41454 0.821528 1.58114 0.419323 1.58114 0
C1.58114 -0.419323 1.41454 -0.821528 1.11803 -1.11803
C0.821528 -1.41454 0.419323 -1.58114 0 -1.58114
C-0.419323 -1.58114 -0.821528 -1.41454 -1.11803 -1.11803
C-1.41454 -0.821528 -1.58114 -0.419323 -1.58114 0
C-1.58114 0.419323 -1.41454 0.821528 -1.11803 1.11803
C-0.821528 1.41454 -0.419323 1.58114 0 1.58114
z
" id="C1_1f_71348ff635"/>
     <path d="
M0 1.11803
C0.296506 1.11803 0.580908 1.00023 0.790569 0.790569
C1.00023 0.580908 1.11803 0.296506 1.11803 0
C1.11803 -0.296506 1.00023 -0.580908 0.790569 -0.790569
C0.580908 -1.00023 0.296506 -1.11803 0 -1.11803
C-0.296506 -1.11803 -0.580908 -1.00023 -0.790569 -0.790569
C-1.00023 -0.580908 -1.11803 -0.296506 -1.11803 0
C-1.11803 0.296506 -1.00023 0.580908 -0.790569 0.790569
C-0.580908 1.00023 -0.296506 1.11803 0 1.11803
z
" id="C1_20_af07e0942b"/>
     <path d="
M0 1.11803
C0.296506 1.11803 0.580908 1.00023 0.790569 0.790569
C1.00023 0.580908 1.11803 0.296506 1.11803 0
C1.11803 -0.296506 1.00023 -0.580908 0.790569 -0.790569
C0.580908 -1.00023 0.296506 -1.11803 0 -1.11803
C-0.296506 -1.11803 -0.580908 -1.00023 -0.790569 -0.790569
C-1.00023 -0.580908 -1.11803 -0.296506 -1.11803 0
C-1.11803 0.296506 -1.00023 0.580908 -0.790569 0.790569
C-0.580908 1.00023 -0.296506 1.11803 0 1.11803
z
" id="C1_21_af07e0942b"/>
     <path d="
M0 1.58114
C0.419323 1.58114 0.821528 1.41454 1.11803 1.11803
C1.41454 0.821528 1.58114 0.419323 1.58114 0
C1.58114 -0.419323 1.41454 -0.821528 1.11803 -1.11803
C0.821528 -1.41454 0.419323 -1.58114 0 -1.58114
C-0.419323 -1.58114 -0.821528 -1.41454 -1.11803 -1.11803
C-1.41454 -0.821528 -1.58114 -0.419323 -1.58114 0
C-1.58114 0.419323 -1.41454 0.821528 -1.11803 1.11803
C-0.821528 1.41454 -0.419323 1.58114 0 1.58114
z
" id="C1_22_71348ff635"/>
     <path d="
M0 1.58114
C0.419323 1.58114 0.821528 1.41454 1.11803 1.11803
C1.41454 0.821528 1.58114 0.419323 1.58114 0
C1.58114 -0.419323 1.41454 -0.821528 1.11803 -1.11803
C0.821528 -1.41454 0.419323 -1.58114 0 -1.58114
C-0.419323 -1.58114 -0.821528 -1.41454 -1.11803 -1.11803
C-1.41454 -0.821528 -1.58114 -0.419323 -1.58114 0
C-1.58114 0.419323 -1.41454 0.821528 -1.11803 1.11803
C-0.821528 1.41454 -0.419323 1.58114 0 1.58114
z
" id="C1_23_71348ff635"/>
     <path d="
M0 1.11803
C0.296506 1.11803 0.580908 1.00023 0.790569 0.790569
C1.00023 0.580908 1.11803 0.296506 1.11803 0
C1.11803 -0.296506 1.00023 -0.580908 0.790569 -0.790569
C0.580908 -1.00023 0.296506 -1.11803 0 -1.11803
C-0.296506 -1.11803 -0.580908 -1.00023 -0.790569 -0.790569
C-1.00023 -0.580908 -1.11803 -0.296506 -1.11803 0
C-1.11803 0.296506 -1.00023 0.580908 -0.790569 0.790569
C-0.580908 1.00023 -0.296506 1.11803 0 1.11803
z
" id="C1_24_af07e0942b"/>
     <path d="
M0 1.11803
C0.296506 1.11803 0.580908 1.00023 0.790569 0.790569
C1.00023 0.580908 1.11803 0.296506 1.11803 0
C1.11803 -0.296506 1.00023 -0.580908 0.790569 -0.790569
C0.580908 -1.00023 0.296506 -1.11803 0 -1.11803
C-0.296506 -1.11803 -0.580908 -1.00023 -0.790569 -0.790569
C-1.00023 -0.580908 -1.11803 -0.296506 -1.11803 0
C-1.11803 0.296506 -1.00023 0.580908 -0.790569 0.790569
C-0.580908 1.00023 -0.296506 1.11803 0 1.11803
z
" id="C1_25_af07e0942b"/>
     <path d="
M0 2.23607
C0.593012 2.23607 1.16182 2.00046 1.58114 1.58114
C2.00046 1.16182 2.23607 0.593012 2.23607 0
C2.23607 -0.593012 2.00046 -1.16182 1.58114 -1.58114
C1.16182 -2.00046 0.593012 -2.23607 0 -2.23607
C-0.593012 -2.23607 -1.16182 -2.00046 -1.58114 -1.58114
C-2.00046 -1.16182 -2.23607 -0.593012 -2.23607 0
C-2.23607 0.593012 -2.00046 1.16182 -1.58114 1.58114
C-1.16182 2.00046 -0.593012 2.23607 0 2.23607
z
" id="C1_26_919e3f95db"/>
     <path d="
M0 1.11803
C0.296506 1.11803 0.580908 1.00023 0.790569 0.790569
C1.00023 0.580908 1.11803 0.296506 1.11803 0
C1.11803 -0.296506 1.00023 -0.580908 0.790569 -0.790569
C0.580908 -1.00023 0.296506 -1.11803 0 -1.11803
C-0.296506 -1.11803 -0.580908 -1.00023 -0.790569 -0.790569
C-1.00023 -0.580908 -1.11803 -0.296506 -1.11803 0
C-1.11803 0.296506 -1.00023 0.580908 -0.790569 0.790569
C-0.580908 1.00023 -0.296506 1.11803 0 1.11803
z
" id="C1_27_af07e0942b"/>
     <path d="
M0 1.11803
C0.296506 1.11803 0.580908 1.00023 0.790569 0.790569
C1.00023 0.580908 1.11803 0.296506 1.11803 0
C1.11803 -0.296506 1.00023 -0.580908 0.790569 -0.790569
C0.580908 -1.00023 0.296506 -1.11803 0 -1.11803
C-0.296506 -1.11803 -0.580908 -1.00023 -0.790569 -0.790569
C-1.00023 -0.580908 -1.11803 -0.296506 -1.11803 0
C-1.11803 0.296506 -1.00023 0.580908 -0.790569 0.790569
C-0.580908 1.00023 -0.296506 1.11803 0 1.11803
z
" id="C1_28_af07e0942b"/>
    </defs>
    <g clip-path="url(#p19ed800552)">
     <use style="fill:#0000ff;stroke:#000000;stroke-width:0.3;" x="117.9" xlink:href="#C1_0_e3a3b1670f" y="618.909090909"/>
    </g>
    <g clip-path="url(#p19ed800552)">
     <use style="fill:#0000ff;stroke:#000000;stroke-width:0.3;" x="117.9" xlink:href="#C1_1_d25c5efc61" y="613.090909091"/>
    </g>
    <g clip-path="url(#p19ed800552)">
     <use style="fill:#0000ff;stroke:#000000;stroke-width:0.3;" x="117.9" xlink:href="#C1_2_32752a9442" y="607.272727273"/>
    </g>
    <g clip-path="url(#p19ed800552)">
     <use style="fill:#0000ff;stroke:#000000;stroke-width:0.3;" x="117.9" xlink:href="#C1_3_43e184535d" y="601.454545455"/>
    </g>
    <g clip-path="url(#p19ed800552)">
     <use style="fill:#0000ff;stroke:#000000;stroke-width:0.3;" x="117.9" xlink:href="#C1_4_43e184535d" y="595.636363636"/>
    </g>
    <g clip-path="url(#p19ed800552)">
     <use style="fill:#0000ff;stroke:#000000;stroke-width:0.3;" x="117.9" xlink:href="#C1_5_919e3f95db" y="589.818181818"/>
    </g>
    <g clip-path="url(#p19ed800552)">
     <use style="fill:#0000ff;stroke:#000000;stroke-width:0.3;" x="117.9" xlink:href="#C1_6_919e3f95db" y="584.0"/>
    </g>
    <g clip-path="url(#p19ed800552)">
     <use style="fill:#0000ff;stroke:#000000;stroke-width:0.3;" x="117.9" xlink:href="#C1_7_af07e0942b" y="578.181818182"/>
    </g>
    <g clip-path="url(#p19ed800552)">
     <use style="fill:#0000ff;stroke:#000000;stroke-width:0.3;" x="117.9" xlink:href="#C1_8_af07e0942b" y="572.363636364"/>
    </g>
    <g clip-path="url(#p19ed800552)">
     <use style="fill:#0000ff;stroke:#000000;stroke-width:0.3;" x="117.9" xlink:href="#C1_9_af07e0942b" y="554.909090909"/>
    </g>
    <g clip-path="url(#p19ed800552)">
     <use style="fill:#0000ff;stroke:#000000;stroke-width:0.3;" x="117.9" xlink:href="#C1_a_af07e0942b" y="508.363636364"/>
    </g>
    <g clip-path="url(#p19ed800552)">
     <use style="fill:#0000ff;stroke:#000000;stroke-width:0.3;" x="117.9" xlink:href="#C1_b_af07e0942b" y="502.545454545"/>
    </g>
    <g clip-path="url(#p19ed800552)">
     <use style="fill:#0000ff;stroke:#000000;stroke-width:0.3;" x="117.9" xlink:href="#C1_c_af07e0942b" y="496.727272727"/>
    </g>
    <g clip-path="url(#p19ed800552)">
     <use style="fill:#0000ff;stroke:#000000;stroke-width:0.3;" x="117.9" xlink:href="#C1_d_af07e0942b" y="415.272727273"/>
    </g>
    <g clip-path="url(#p19ed800552)">
     <use style="fill:#0000ff;stroke:#000000;stroke-width:0.3;" x="145.8" xlink:href="#C1_e_72e6d5a2bf" y="618.909090909"/>
    </g>
    <g clip-path="url(#p19ed800552)">
     <use style="fill:#0000ff;stroke:#000000;stroke-width:0.3;" x="145.8" xlink:href="#C1_f_976255c095" y="613.090909091"/>
    </g>
    <g clip-path="url(#p19ed800552)">
     <use style="fill:#0000ff;stroke:#000000;stroke-width:0.3;" x="145.8" xlink:href="#C1_10_71348ff635" y="607.272727273"/>
    </g>
    <g clip-path="url(#p19ed800552)">
     <use style="fill:#0000ff;stroke:#000000;stroke-width:0.3;" x="145.8" xlink:href="#C1_11_71348ff635" y="601.454545455"/>
    </g>
    <g clip-path="url(#p19ed800552)">
     <use style="fill:#0000ff;stroke:#000000;stroke-width:0.3;" x="145.8" xlink:href="#C1_12_af07e0942b" y="595.636363636"/>
    </g>
    <g clip-path="url(#p19ed800552)">
     <use style="fill:#0000ff;stroke:#000000;stroke-width:0.3;" x="145.8" xlink:href="#C1_13_af07e0942b" y="584.0"/>
    </g>
    <g clip-path="url(#p19ed800552)">
     <use style="fill:#0000ff;stroke:#000000;stroke-width:0.3;" x="145.8" xlink:href="#C1_14_71348ff635" y="572.363636364"/>
    </g>
    <g clip-path="url(#p19ed800552)">
     <use style="fill:#0000ff;stroke:#000000;stroke-width:0.3;" x="173.7" xlink:href="#C1_15_5009dfc2f8" y="618.909090909"/>
    </g>
    <g clip-path="url(#p19ed800552)">
     <use style="fill:#0000ff;stroke:#000000;stroke-width:0.3;" x="173.7" xlink:href="#C1_16_feda8d285d" y="613.090909091"/>
    </g>
    <g clip-path="url(#p19ed800552)">
     <use style="fill:#0000ff;stroke:#000000;stroke-width:0.3;" x="173.7" xlink:href="#C1_17_af07e0942b" y="607.272727273"/>
    </g>
    <g clip-path="url(#p19ed800552)">
     <use style="fill:#0000ff;stroke:#000000;stroke-width:0.3;" x="173.7" xlink:href="#C1_18_af07e0942b" y="601.454545455"/>
    </g>
    <g clip-path="url(#p19ed800552)">
     <use style="fill:#0000ff;stroke:#000000;stroke-width:0.3;" x="173.7" xlink:href="#C1_19_af07e0942b" y="595.636363636"/>
    </g>
    <g clip-path="url(#p19ed800552)">
     <use style="fill:#0000ff;stroke:#000000;stroke-width:0.3;" x="173.7" xlink:href="#C1_1a_af07e0942b" y="589.818181818"/>
    </g>
    <g clip-path="url(#p19ed800552)">
     <use style="fill:#0000ff;stroke:#000000;stroke-width:0.3;" x="201.6" xlink:href="#C1_1b_95d0887793" y="618.909090909"/>
    </g>
    <g clip-path="url(#p19ed800552)">
     <use style="fill:#0000ff;stroke:#000000;stroke-width:0.3;" x="201.6" xlink:href="#C1_1c_bfe955e8a6" y="613.090909091"/>
    </g>
    <g clip-path="url(#p19ed800552)">
     <use style="fill:#0000ff;stroke:#000000;stroke-width:0.3;" x="201.6" xlink:href="#C1_1d_71348ff635" y="601.454545455"/>
    </g>
    <g clip-path="url(#p19ed800552)">
     <use style="fill:#0000ff;stroke:#000000;stroke-width:0.3;" x="201.6" xlink:href="#C1_1e_af07e0942b" y="595.636363636"/>
    </g>
    <g clip-path="url(#p19ed800552)">
     <use style="fill:#0000ff;stroke:#000000;stroke-width:0.3;" x="229.5" xlink:href="#C1_1f_71348ff635" y="618.909090909"/>
    </g>
    <g clip-path="url(#p19ed800552)">
     <use style="fill:#0000ff;stroke:#000000;stroke-width:0.3;" x="229.5" xlink:href="#C1_20_af07e0942b" y="613.090909091"/>
    </g>
    <g clip-path="url(#p19ed800552)">
     <use style="fill:#0000ff;stroke:#000000;stroke-width:0.3;" x="229.5" xlink:href="#C1_21_af07e0942b" y="607.272727273"/>
    </g>
    <g clip-path="url(#p19ed800552)">
     <use style="fill:#0000ff;stroke:#000000;stroke-width:0.3;" x="229.5" xlink:href="#C1_22_71348ff635" y="595.636363636"/>
    </g>
    <g clip-path="url(#p19ed800552)">
     <use style="fill:#0000ff;stroke:#000000;stroke-width:0.3;" x="257.4" xlink:href="#C1_23_71348ff635" y="595.636363636"/>
    </g>
    <g clip-path="url(#p19ed800552)">
     <use style="fill:#0000ff;stroke:#000000;stroke-width:0.3;" x="313.2" xlink:href="#C1_24_af07e0942b" y="618.909090909"/>
    </g>
    <g clip-path="url(#p19ed800552)">
     <use style="fill:#0000ff;stroke:#000000;stroke-width:0.3;" x="313.2" xlink:href="#C1_25_af07e0942b" y="549.090909091"/>
    </g>
    <g clip-path="url(#p19ed800552)">
     <use style="fill:#0000ff;stroke:#000000;stroke-width:0.3;" x="313.2" xlink:href="#C1_26_919e3f95db" y="525.818181818"/>
    </g>
    <g clip-path="url(#p19ed800552)">
     <use style="fill:#0000ff;stroke:#000000;stroke-width:0.3;" x="369.0" xlink:href="#C1_27_af07e0942b" y="618.909090909"/>
    </g>
    <g clip-path="url(#p19ed800552)">
     <use style="fill:#0000ff;stroke:#000000;stroke-width:0.3;" x="592.2" xlink:href="#C1_28_af07e0942b" y="607.272727273"/>
    </g>
   </g>
   <g id="patch_8">
    <path d="
M90 386.182
L648 386.182" style="fill:none;stroke:#262626;stroke-width:1.25;"/>
   </g>
   <g id="patch_9">
    <path d="
M648 648
L648 386.182" style="fill:none;stroke:#262626;stroke-width:1.25;"/>
   </g>
   <g id="patch_10">
    <path d="
M90 648
L648 648" style="fill:none;stroke:#262626;stroke-width:1.25;"/>
   </g>
   <g id="patch_11">
    <path d="
M90 648
L90 386.182" style="fill:none;stroke:#262626;stroke-width:1.25;"/>
   </g>
  </g>
 </g>
 <defs>
  <clipPath id="p19ed800552">
   <rect height="261.818181818" width="558.0" x="90.0" y="386.181818182"/>
  </clipPath>
  <clipPath id="p57599689ab">
   <rect height="261.818181818" width="558.0" x="90.0" y="72.0"/>
  </clipPath>
 </defs>
</svg>
