<?xml version="1.0" encoding="utf-8" standalone="no"?>
<!DOCTYPE svg PUBLIC "-//W3C//DTD SVG 1.1//EN"
  "http://www.w3.org/Graphics/SVG/1.1/DTD/svg11.dtd">
<!-- Created with matplotlib (http://matplotlib.org/) -->
<svg height="216pt" version="1.1" viewBox="0 0 540 216" width="540pt" xmlns="http://www.w3.org/2000/svg" xmlns:xlink="http://www.w3.org/1999/xlink">
 <defs>
  <style type="text/css">
*{stroke-linecap:butt;stroke-linejoin:round;stroke-miterlimit:100000;}
  </style>
 </defs>
 <g id="figure_1">
  <g id="patch_1">
   <path d="M 0 216 
L 540 216 
L 540 0 
L 0 0 
z
" style="fill:#ffffff;"/>
  </g>
  <g id="axes_1">
   <g id="patch_2">
    <path d="M 40.2055 172.532 
L 189.138756 172.532 
L 189.138756 24.368 
L 40.2055 24.368 
z
" style="fill:#ffffff;"/>
   </g>
   <g id="matplotlib.axis_1">
    <g id="xtick_1">
     <g id="line2d_1"/>
     <g id="line2d_2"/>
     <g id="text_1">
      <!-- 0.01 -->
      <defs>
       <path d="M 4.15625 35.296875 
Q 4.15625 48 6.765625 55.734375 
Q 9.375 63.484375 14.515625 67.671875 
Q 19.671875 71.875 27.484375 71.875 
Q 33.25 71.875 37.59375 69.546875 
Q 41.9375 67.234375 44.765625 62.859375 
Q 47.609375 58.5 49.21875 52.21875 
Q 50.828125 45.953125 50.828125 35.296875 
Q 50.828125 22.703125 48.234375 14.96875 
Q 45.65625 7.234375 40.5 3 
Q 35.359375 -1.21875 27.484375 -1.21875 
Q 17.140625 -1.21875 11.234375 6.203125 
Q 4.15625 15.140625 4.15625 35.296875 
M 13.1875 35.296875 
Q 13.1875 17.671875 17.3125 11.828125 
Q 21.4375 6 27.484375 6 
Q 33.546875 6 37.671875 11.859375 
Q 41.796875 17.71875 41.796875 35.296875 
Q 41.796875 52.984375 37.671875 58.78125 
Q 33.546875 64.59375 27.390625 64.59375 
Q 21.34375 64.59375 17.71875 59.46875 
Q 13.1875 52.9375 13.1875 35.296875 
" id="ArialMT-30"/>
       <path d="M 37.25 0 
L 28.46875 0 
L 28.46875 56 
Q 25.296875 52.984375 20.140625 49.953125 
Q 14.984375 46.921875 10.890625 45.40625 
L 10.890625 53.90625 
Q 18.265625 57.375 23.78125 62.296875 
Q 29.296875 67.234375 31.59375 71.875 
L 37.25 71.875 
z
" id="ArialMT-31"/>
       <path d="M 9.078125 0 
L 9.078125 10.015625 
L 19.09375 10.015625 
L 19.09375 0 
z
" id="ArialMT-2e"/>
      </defs>
      <g style="fill:#262626;" transform="translate(35.967154908 183.85825)scale(0.08 -0.08)">
       <use xlink:href="#ArialMT-30"/>
       <use x="55.615234375" xlink:href="#ArialMT-2e"/>
       <use x="83.3984375" xlink:href="#ArialMT-30"/>
       <use x="139.013671875" xlink:href="#ArialMT-31"/>
      </g>
     </g>
    </g>
    <g id="xtick_2">
     <g id="line2d_3"/>
     <g id="line2d_4"/>
     <g id="text_2">
      <!-- 0.1 -->
      <g style="fill:#262626;" transform="translate(73.6518289885 183.85825)scale(0.08 -0.08)">
       <use xlink:href="#ArialMT-30"/>
       <use x="55.615234375" xlink:href="#ArialMT-2e"/>
       <use x="83.3984375" xlink:href="#ArialMT-31"/>
      </g>
     </g>
    </g>
    <g id="xtick_3">
     <g id="line2d_5"/>
     <g id="line2d_6"/>
     <g id="text_3">
      <!-- 1 -->
      <g style="fill:#262626;" transform="translate(112.447753069 183.85825)scale(0.08 -0.08)">
       <use xlink:href="#ArialMT-31"/>
      </g>
     </g>
    </g>
    <g id="xtick_4">
     <g id="line2d_7"/>
     <g id="line2d_8"/>
     <g id="text_4">
      <!-- 10 -->
      <g style="fill:#262626;" transform="translate(145.683677149 183.85825)scale(0.08 -0.08)">
       <use xlink:href="#ArialMT-31"/>
       <use x="55.615234375" xlink:href="#ArialMT-30"/>
      </g>
     </g>
    </g>
    <g id="xtick_5">
     <g id="line2d_9"/>
     <g id="line2d_10"/>
     <g id="text_5">
      <!-- 100 -->
      <g style="fill:#262626;" transform="translate(178.91960123 183.85825)scale(0.08 -0.08)">
       <use xlink:href="#ArialMT-31"/>
       <use x="55.615234375" xlink:href="#ArialMT-30"/>
       <use x="111.23046875" xlink:href="#ArialMT-30"/>
      </g>
     </g>
    </g>
    <g id="text_6">
     <!-- $[S]$ (in mM) -->
     <defs>
      <path d="M 2.203125 -25 
L 2.203125 -21 
L 11.921875 -21 
L 11.921875 71 
L 2.203125 71 
L 2.203125 75 
L 15.921875 75 
L 15.921875 -25 
z
" id="Cmr10-5d"/>
      <path d="M 12.359375 -21.046875 
L 6.0625 -21.046875 
Q 20.65625 2.390625 20.65625 25.875 
Q 20.65625 35.0625 18.5625 44.09375 
Q 16.890625 51.421875 13.921875 58.15625 
Q 12.015625 62.546875 6.0625 72.796875 
L 12.359375 72.796875 
Q 21.53125 60.546875 25.921875 48.1875 
Q 29.6875 37.546875 29.6875 25.921875 
Q 29.6875 12.75 24.625 0.4375 
Q 19.578125 -11.859375 12.359375 -21.046875 
" id="ArialMT-29"/>
      <path d="M 11.8125 -25 
L 11.8125 75 
L 25.484375 75 
L 25.484375 71 
L 15.828125 71 
L 15.828125 -21 
L 25.484375 -21 
L 25.484375 -25 
z
" id="Cmr10-5b"/>
      <path d="M 6.640625 61.46875 
L 6.640625 71.578125 
L 15.4375 71.578125 
L 15.4375 61.46875 
z
M 6.640625 0 
L 6.640625 51.859375 
L 15.4375 51.859375 
L 15.4375 0 
z
" id="ArialMT-69"/>
      <path d="M 6.109375 -2.203125 
Q 5.8125 -2.203125 5.5625 -1.859375 
Q 5.328125 -1.515625 5.328125 -1.21875 
L 11.078125 22.125 
Q 11.28125 22.703125 11.921875 22.703125 
L 13.09375 22.703125 
Q 13.484375 22.703125 13.703125 22.40625 
Q 13.921875 22.125 13.921875 21.6875 
Q 13.09375 18.265625 13.09375 15.578125 
Q 13.09375 8.34375 18.0625 4.828125 
Q 23.046875 1.3125 30.609375 1.3125 
Q 33.890625 1.3125 37.0625 2.921875 
Q 40.234375 4.546875 42.59375 7.125 
Q 44.96875 9.71875 46.375 12.90625 
Q 47.796875 16.109375 47.796875 19.390625 
Q 47.796875 22.90625 45.9375 25.65625 
Q 44.09375 28.421875 40.828125 29.203125 
L 28.609375 32.421875 
Q 23.6875 33.734375 20.75 37.71875 
Q 17.828125 41.703125 17.828125 46.6875 
Q 17.828125 52.6875 21.390625 58.25 
Q 24.953125 63.8125 30.6875 67.15625 
Q 36.421875 70.515625 42.390625 70.515625 
Q 46.96875 70.515625 50.796875 68.828125 
Q 54.640625 67.140625 56.6875 63.484375 
L 62.40625 70.21875 
Q 62.984375 70.515625 63.09375 70.515625 
L 63.71875 70.515625 
Q 64.109375 70.515625 64.34375 70.171875 
Q 64.59375 69.828125 64.59375 69.484375 
L 58.796875 46.296875 
Q 58.640625 45.609375 58.015625 45.609375 
L 56.78125 45.609375 
Q 55.90625 45.609375 55.90625 46.6875 
Q 56.390625 49.859375 56.390625 52.203125 
Q 56.390625 56.84375 54.796875 60.28125 
Q 53.21875 63.71875 50.015625 65.5 
Q 46.828125 67.28125 42.09375 67.28125 
Q 38.09375 67.28125 34.125 64.984375 
Q 30.171875 62.703125 27.734375 58.890625 
Q 25.296875 55.078125 25.296875 50.984375 
Q 25.296875 47.75 27.171875 45.265625 
Q 29.046875 42.78125 32.171875 41.890625 
L 44.390625 38.71875 
Q 47.703125 37.84375 50.171875 35.625 
Q 52.640625 33.40625 53.90625 30.34375 
Q 55.171875 27.296875 55.171875 23.6875 
Q 55.171875 18.953125 53.171875 14.328125 
Q 51.171875 9.71875 47.578125 5.90625 
Q 44 2.09375 39.453125 -0.046875 
Q 34.90625 -2.203125 30.171875 -2.203125 
Q 18.265625 -2.203125 13.09375 4.78125 
L 7.515625 -1.90625 
Q 6.9375 -2.203125 6.78125 -2.203125 
z
" id="Cmmi10-53"/>
      <path d="M 6.59375 0 
L 6.59375 51.859375 
L 14.453125 51.859375 
L 14.453125 44.578125 
Q 16.890625 48.390625 20.9375 50.703125 
Q 25 53.03125 30.171875 53.03125 
Q 35.9375 53.03125 39.625 50.640625 
Q 43.3125 48.25 44.828125 43.953125 
Q 50.984375 53.03125 60.84375 53.03125 
Q 68.5625 53.03125 72.703125 48.75 
Q 76.859375 44.484375 76.859375 35.59375 
L 76.859375 0 
L 68.109375 0 
L 68.109375 32.671875 
Q 68.109375 37.9375 67.25 40.25 
Q 66.40625 42.578125 64.15625 43.984375 
Q 61.921875 45.40625 58.890625 45.40625 
Q 53.421875 45.40625 49.796875 41.765625 
Q 46.1875 38.140625 46.1875 30.125 
L 46.1875 0 
L 37.40625 0 
L 37.40625 33.6875 
Q 37.40625 39.546875 35.25 42.46875 
Q 33.109375 45.40625 28.21875 45.40625 
Q 24.515625 45.40625 21.359375 43.453125 
Q 18.21875 41.5 16.796875 37.734375 
Q 15.375 33.984375 15.375 26.90625 
L 15.375 0 
z
" id="ArialMT-6d"/>
      <path d="M 6.59375 0 
L 6.59375 51.859375 
L 14.5 51.859375 
L 14.5 44.484375 
Q 20.21875 53.03125 31 53.03125 
Q 35.6875 53.03125 39.625 51.34375 
Q 43.5625 49.65625 45.515625 46.921875 
Q 47.46875 44.1875 48.25 40.4375 
Q 48.734375 37.984375 48.734375 31.890625 
L 48.734375 0 
L 39.9375 0 
L 39.9375 31.546875 
Q 39.9375 36.921875 38.90625 39.578125 
Q 37.890625 42.234375 35.28125 43.8125 
Q 32.671875 45.40625 29.15625 45.40625 
Q 23.53125 45.40625 19.453125 41.84375 
Q 15.375 38.28125 15.375 28.328125 
L 15.375 0 
z
" id="ArialMT-6e"/>
      <path d="M 23.390625 -21.046875 
Q 16.109375 -11.859375 11.078125 0.4375 
Q 6.0625 12.75 6.0625 25.921875 
Q 6.0625 37.546875 9.8125 48.1875 
Q 14.203125 60.546875 23.390625 72.796875 
L 29.6875 72.796875 
Q 23.78125 62.640625 21.875 58.296875 
Q 18.890625 51.5625 17.1875 44.234375 
Q 15.09375 35.109375 15.09375 25.875 
Q 15.09375 2.390625 29.6875 -21.046875 
z
" id="ArialMT-28"/>
      <path d="M 7.421875 0 
L 7.421875 71.578125 
L 21.6875 71.578125 
L 38.625 20.90625 
Q 40.96875 13.8125 42.046875 10.296875 
Q 43.265625 14.203125 45.84375 21.78125 
L 62.984375 71.578125 
L 75.734375 71.578125 
L 75.734375 0 
L 66.609375 0 
L 66.609375 59.90625 
L 45.796875 0 
L 37.25 0 
L 16.546875 60.9375 
L 16.546875 0 
z
" id="ArialMT-4d"/>
      <path id="ArialMT-20"/>
     </defs>
     <g style="fill:#262626;" transform="translate(93.3761280689 197.04825)scale(0.088 -0.088)">
      <use xlink:href="#Cmr10-5b"/>
      <use transform="translate(27.685546875 0.0)" xlink:href="#Cmmi10-53"/>
      <use transform="translate(88.96484375 0.0)" xlink:href="#Cmr10-5d"/>
      <use transform="translate(116.650390625 0.0)" xlink:href="#ArialMT-20"/>
      <use transform="translate(144.43359375 0.0)" xlink:href="#ArialMT-28"/>
      <use transform="translate(177.734375 0.0)" xlink:href="#ArialMT-69"/>
      <use transform="translate(199.951171875 0.0)" xlink:href="#ArialMT-6e"/>
      <use transform="translate(255.56640625 0.0)" xlink:href="#ArialMT-20"/>
      <use transform="translate(283.349609375 0.0)" xlink:href="#ArialMT-6d"/>
      <use transform="translate(366.650390625 0.0)" xlink:href="#ArialMT-4d"/>
      <use transform="translate(449.951171875 0.0)" xlink:href="#ArialMT-29"/>
     </g>
    </g>
   </g>
   <g id="matplotlib.axis_2">
    <g id="ytick_1">
     <g id="line2d_11"/>
     <g id="line2d_12"/>
     <g id="text_7">
      <!-- 0.0 -->
      <g style="fill:#262626;" transform="translate(23.4855 174.600125)scale(0.08 -0.08)">
       <use xlink:href="#ArialMT-30"/>
       <use x="55.615234375" xlink:href="#ArialMT-2e"/>
       <use x="83.3984375" xlink:href="#ArialMT-30"/>
      </g>
     </g>
    </g>
    <g id="ytick_2">
     <g id="line2d_13"/>
     <g id="line2d_14"/>
     <g id="text_8">
      <!-- 0.2 -->
      <defs>
       <path d="M 50.34375 8.453125 
L 50.34375 0 
L 3.03125 0 
Q 2.9375 3.171875 4.046875 6.109375 
Q 5.859375 10.9375 9.828125 15.625 
Q 13.8125 20.3125 21.34375 26.46875 
Q 33.015625 36.03125 37.109375 41.625 
Q 41.21875 47.21875 41.21875 52.203125 
Q 41.21875 57.421875 37.46875 61 
Q 33.734375 64.59375 27.734375 64.59375 
Q 21.390625 64.59375 17.578125 60.78125 
Q 13.765625 56.984375 13.71875 50.25 
L 4.6875 51.171875 
Q 5.609375 61.28125 11.65625 66.578125 
Q 17.71875 71.875 27.9375 71.875 
Q 38.234375 71.875 44.234375 66.15625 
Q 50.25 60.453125 50.25 52 
Q 50.25 47.703125 48.484375 43.546875 
Q 46.734375 39.40625 42.65625 34.8125 
Q 38.578125 30.21875 29.109375 22.21875 
Q 21.1875 15.578125 18.9375 13.203125 
Q 16.703125 10.84375 15.234375 8.453125 
z
" id="ArialMT-32"/>
      </defs>
      <g style="fill:#262626;" transform="translate(23.4855 144.967325)scale(0.08 -0.08)">
       <use xlink:href="#ArialMT-30"/>
       <use x="55.615234375" xlink:href="#ArialMT-2e"/>
       <use x="83.3984375" xlink:href="#ArialMT-32"/>
      </g>
     </g>
    </g>
    <g id="ytick_3">
     <g id="line2d_15"/>
     <g id="line2d_16"/>
     <g id="text_9">
      <!-- 0.4 -->
      <defs>
       <path d="M 32.328125 0 
L 32.328125 17.140625 
L 1.265625 17.140625 
L 1.265625 25.203125 
L 33.9375 71.578125 
L 41.109375 71.578125 
L 41.109375 25.203125 
L 50.78125 25.203125 
L 50.78125 17.140625 
L 41.109375 17.140625 
L 41.109375 0 
z
M 32.328125 25.203125 
L 32.328125 57.46875 
L 9.90625 25.203125 
z
" id="ArialMT-34"/>
      </defs>
      <g style="fill:#262626;" transform="translate(23.4855 115.334525)scale(0.08 -0.08)">
       <use xlink:href="#ArialMT-30"/>
       <use x="55.615234375" xlink:href="#ArialMT-2e"/>
       <use x="83.3984375" xlink:href="#ArialMT-34"/>
      </g>
     </g>
    </g>
    <g id="ytick_4">
     <g id="line2d_17"/>
     <g id="line2d_18"/>
     <g id="text_10">
      <!-- 0.6 -->
      <defs>
       <path d="M 49.75 54.046875 
L 41.015625 53.375 
Q 39.84375 58.546875 37.703125 60.890625 
Q 34.125 64.65625 28.90625 64.65625 
Q 24.703125 64.65625 21.53125 62.3125 
Q 17.390625 59.28125 14.984375 53.46875 
Q 12.59375 47.65625 12.5 36.921875 
Q 15.671875 41.75 20.265625 44.09375 
Q 24.859375 46.4375 29.890625 46.4375 
Q 38.671875 46.4375 44.84375 39.96875 
Q 51.03125 33.5 51.03125 23.25 
Q 51.03125 16.5 48.125 10.71875 
Q 45.21875 4.9375 40.140625 1.859375 
Q 35.0625 -1.21875 28.609375 -1.21875 
Q 17.625 -1.21875 10.6875 6.859375 
Q 3.765625 14.9375 3.765625 33.5 
Q 3.765625 54.25 11.421875 63.671875 
Q 18.109375 71.875 29.4375 71.875 
Q 37.890625 71.875 43.28125 67.140625 
Q 48.6875 62.40625 49.75 54.046875 
M 13.875 23.1875 
Q 13.875 18.65625 15.796875 14.5 
Q 17.71875 10.359375 21.1875 8.171875 
Q 24.65625 6 28.46875 6 
Q 34.03125 6 38.03125 10.484375 
Q 42.046875 14.984375 42.046875 22.703125 
Q 42.046875 30.125 38.078125 34.390625 
Q 34.125 38.671875 28.125 38.671875 
Q 22.171875 38.671875 18.015625 34.390625 
Q 13.875 30.125 13.875 23.1875 
" id="ArialMT-36"/>
      </defs>
      <g style="fill:#262626;" transform="translate(23.4855 85.701725)scale(0.08 -0.08)">
       <use xlink:href="#ArialMT-30"/>
       <use x="55.615234375" xlink:href="#ArialMT-2e"/>
       <use x="83.3984375" xlink:href="#ArialMT-36"/>
      </g>
     </g>
    </g>
    <g id="ytick_5">
     <g id="line2d_19"/>
     <g id="line2d_20"/>
     <g id="text_11">
      <!-- 0.8 -->
      <defs>
       <path d="M 17.671875 38.8125 
Q 12.203125 40.828125 9.5625 44.53125 
Q 6.9375 48.25 6.9375 53.421875 
Q 6.9375 61.234375 12.546875 66.546875 
Q 18.171875 71.875 27.484375 71.875 
Q 36.859375 71.875 42.578125 66.421875 
Q 48.296875 60.984375 48.296875 53.171875 
Q 48.296875 48.1875 45.671875 44.5 
Q 43.0625 40.828125 37.75 38.8125 
Q 44.34375 36.671875 47.78125 31.875 
Q 51.21875 27.09375 51.21875 20.453125 
Q 51.21875 11.28125 44.71875 5.03125 
Q 38.234375 -1.21875 27.640625 -1.21875 
Q 17.046875 -1.21875 10.546875 5.046875 
Q 4.046875 11.328125 4.046875 20.703125 
Q 4.046875 27.6875 7.59375 32.390625 
Q 11.140625 37.109375 17.671875 38.8125 
M 15.921875 53.71875 
Q 15.921875 48.640625 19.1875 45.40625 
Q 22.46875 42.1875 27.6875 42.1875 
Q 32.765625 42.1875 36.015625 45.375 
Q 39.265625 48.578125 39.265625 53.21875 
Q 39.265625 58.0625 35.90625 61.359375 
Q 32.5625 64.65625 27.59375 64.65625 
Q 22.5625 64.65625 19.234375 61.421875 
Q 15.921875 58.203125 15.921875 53.71875 
M 13.09375 20.65625 
Q 13.09375 16.890625 14.875 13.375 
Q 16.65625 9.859375 20.171875 7.921875 
Q 23.6875 6 27.734375 6 
Q 34.03125 6 38.125 10.046875 
Q 42.234375 14.109375 42.234375 20.359375 
Q 42.234375 26.703125 38.015625 30.859375 
Q 33.796875 35.015625 27.4375 35.015625 
Q 21.234375 35.015625 17.15625 30.90625 
Q 13.09375 26.8125 13.09375 20.65625 
" id="ArialMT-38"/>
      </defs>
      <g style="fill:#262626;" transform="translate(23.4855 56.068925)scale(0.08 -0.08)">
       <use xlink:href="#ArialMT-30"/>
       <use x="55.615234375" xlink:href="#ArialMT-2e"/>
       <use x="83.3984375" xlink:href="#ArialMT-38"/>
      </g>
     </g>
    </g>
    <g id="ytick_6">
     <g id="line2d_21"/>
     <g id="line2d_22"/>
     <g id="text_12">
      <!-- 1.0 -->
      <g style="fill:#262626;" transform="translate(23.4855 26.436125)scale(0.08 -0.08)">
       <use xlink:href="#ArialMT-31"/>
       <use x="55.615234375" xlink:href="#ArialMT-2e"/>
       <use x="83.3984375" xlink:href="#ArialMT-30"/>
      </g>
     </g>
    </g>
    <g id="text_13">
     <!-- Cumulative distribution -->
     <defs>
      <path d="M 14.703125 0 
L 6.546875 0 
L 6.546875 71.578125 
L 15.328125 71.578125 
L 15.328125 46.046875 
Q 20.90625 53.03125 29.546875 53.03125 
Q 34.328125 53.03125 38.59375 51.09375 
Q 42.875 49.171875 45.625 45.671875 
Q 48.390625 42.1875 49.953125 37.25 
Q 51.515625 32.328125 51.515625 26.703125 
Q 51.515625 13.375 44.921875 6.09375 
Q 38.328125 -1.171875 29.109375 -1.171875 
Q 19.921875 -1.171875 14.703125 6.5 
z
M 14.59375 26.3125 
Q 14.59375 17 17.140625 12.84375 
Q 21.296875 6.0625 28.375 6.0625 
Q 34.125 6.0625 38.328125 11.0625 
Q 42.53125 16.0625 42.53125 25.984375 
Q 42.53125 36.140625 38.5 40.96875 
Q 34.46875 45.796875 28.765625 45.796875 
Q 23 45.796875 18.796875 40.796875 
Q 14.59375 35.796875 14.59375 26.3125 
" id="ArialMT-62"/>
      <path d="M 40.4375 6.390625 
Q 35.546875 2.25 31.03125 0.53125 
Q 26.515625 -1.171875 21.34375 -1.171875 
Q 12.796875 -1.171875 8.203125 3 
Q 3.609375 7.171875 3.609375 13.671875 
Q 3.609375 17.484375 5.34375 20.625 
Q 7.078125 23.78125 9.890625 25.6875 
Q 12.703125 27.59375 16.21875 28.5625 
Q 18.796875 29.25 24.03125 29.890625 
Q 34.671875 31.15625 39.703125 32.90625 
Q 39.75 34.71875 39.75 35.203125 
Q 39.75 40.578125 37.25 42.78125 
Q 33.890625 45.75 27.25 45.75 
Q 21.046875 45.75 18.09375 43.578125 
Q 15.140625 41.40625 13.71875 35.890625 
L 5.125 37.0625 
Q 6.296875 42.578125 8.984375 45.96875 
Q 11.671875 49.359375 16.75 51.1875 
Q 21.828125 53.03125 28.515625 53.03125 
Q 35.15625 53.03125 39.296875 51.46875 
Q 43.453125 49.90625 45.40625 47.53125 
Q 47.359375 45.171875 48.140625 41.546875 
Q 48.578125 39.3125 48.578125 33.453125 
L 48.578125 21.734375 
Q 48.578125 9.46875 49.140625 6.21875 
Q 49.703125 2.984375 51.375 0 
L 42.1875 0 
Q 40.828125 2.734375 40.4375 6.390625 
M 39.703125 26.03125 
Q 34.90625 24.078125 25.34375 22.703125 
Q 19.921875 21.921875 17.671875 20.9375 
Q 15.4375 19.96875 14.203125 18.09375 
Q 12.984375 16.21875 12.984375 13.921875 
Q 12.984375 10.40625 15.640625 8.0625 
Q 18.3125 5.71875 23.4375 5.71875 
Q 28.515625 5.71875 32.46875 7.9375 
Q 36.421875 10.15625 38.28125 14.015625 
Q 39.703125 17 39.703125 22.796875 
z
" id="ArialMT-61"/>
      <path d="M 42.09375 16.703125 
L 51.171875 15.578125 
Q 49.03125 7.625 43.21875 3.21875 
Q 37.40625 -1.171875 28.375 -1.171875 
Q 17 -1.171875 10.328125 5.828125 
Q 3.65625 12.84375 3.65625 25.484375 
Q 3.65625 38.578125 10.390625 45.796875 
Q 17.140625 53.03125 27.875 53.03125 
Q 38.28125 53.03125 44.875 45.953125 
Q 51.46875 38.875 51.46875 26.03125 
Q 51.46875 25.25 51.421875 23.6875 
L 12.75 23.6875 
Q 13.234375 15.140625 17.578125 10.59375 
Q 21.921875 6.0625 28.421875 6.0625 
Q 33.25 6.0625 36.671875 8.59375 
Q 40.09375 11.140625 42.09375 16.703125 
M 13.234375 30.90625 
L 42.1875 30.90625 
Q 41.609375 37.453125 38.875 40.71875 
Q 34.671875 45.796875 27.984375 45.796875 
Q 21.921875 45.796875 17.796875 41.75 
Q 13.671875 37.703125 13.234375 30.90625 
" id="ArialMT-65"/>
      <path d="M 40.234375 0 
L 40.234375 6.546875 
Q 35.296875 -1.171875 25.734375 -1.171875 
Q 19.53125 -1.171875 14.328125 2.25 
Q 9.125 5.671875 6.265625 11.796875 
Q 3.421875 17.921875 3.421875 25.875 
Q 3.421875 33.640625 6 39.96875 
Q 8.59375 46.296875 13.765625 49.65625 
Q 18.953125 53.03125 25.34375 53.03125 
Q 30.03125 53.03125 33.6875 51.046875 
Q 37.359375 49.078125 39.65625 45.90625 
L 39.65625 71.578125 
L 48.390625 71.578125 
L 48.390625 0 
z
M 12.453125 25.875 
Q 12.453125 15.921875 16.640625 10.984375 
Q 20.84375 6.0625 26.5625 6.0625 
Q 32.328125 6.0625 36.34375 10.765625 
Q 40.375 15.484375 40.375 25.140625 
Q 40.375 35.796875 36.265625 40.765625 
Q 32.171875 45.75 26.171875 45.75 
Q 20.3125 45.75 16.375 40.96875 
Q 12.453125 36.1875 12.453125 25.875 
" id="ArialMT-64"/>
      <path d="M 25.78125 7.859375 
L 27.046875 0.09375 
Q 23.34375 -0.6875 20.40625 -0.6875 
Q 15.625 -0.6875 12.984375 0.828125 
Q 10.359375 2.34375 9.28125 4.8125 
Q 8.203125 7.28125 8.203125 15.1875 
L 8.203125 45.015625 
L 1.765625 45.015625 
L 1.765625 51.859375 
L 8.203125 51.859375 
L 8.203125 64.703125 
L 16.9375 69.96875 
L 16.9375 51.859375 
L 25.78125 51.859375 
L 25.78125 45.015625 
L 16.9375 45.015625 
L 16.9375 14.703125 
Q 16.9375 10.9375 17.40625 9.859375 
Q 17.875 8.796875 18.921875 8.15625 
Q 19.96875 7.515625 21.921875 7.515625 
Q 23.390625 7.515625 25.78125 7.859375 
" id="ArialMT-74"/>
      <path d="M 40.578125 0 
L 40.578125 7.625 
Q 34.515625 -1.171875 24.125 -1.171875 
Q 19.53125 -1.171875 15.546875 0.578125 
Q 11.578125 2.34375 9.640625 5 
Q 7.71875 7.671875 6.9375 11.53125 
Q 6.390625 14.109375 6.390625 19.734375 
L 6.390625 51.859375 
L 15.1875 51.859375 
L 15.1875 23.09375 
Q 15.1875 16.21875 15.71875 13.8125 
Q 16.546875 10.359375 19.234375 8.375 
Q 21.921875 6.390625 25.875 6.390625 
Q 29.828125 6.390625 33.296875 8.421875 
Q 36.765625 10.453125 38.203125 13.9375 
Q 39.65625 17.4375 39.65625 24.078125 
L 39.65625 51.859375 
L 48.4375 51.859375 
L 48.4375 0 
z
" id="ArialMT-75"/>
      <path d="M 58.796875 25.09375 
L 68.265625 22.703125 
Q 65.28125 11.03125 57.546875 4.90625 
Q 49.8125 -1.21875 38.625 -1.21875 
Q 27.046875 -1.21875 19.796875 3.484375 
Q 12.546875 8.203125 8.765625 17.140625 
Q 4.984375 26.078125 4.984375 36.328125 
Q 4.984375 47.515625 9.25 55.828125 
Q 13.53125 64.15625 21.40625 68.46875 
Q 29.296875 72.796875 38.765625 72.796875 
Q 49.515625 72.796875 56.828125 67.328125 
Q 64.15625 61.859375 67.046875 51.953125 
L 57.71875 49.75 
Q 55.21875 57.5625 50.484375 61.125 
Q 45.75 64.703125 38.578125 64.703125 
Q 30.328125 64.703125 24.78125 60.734375 
Q 19.234375 56.78125 16.984375 50.109375 
Q 14.75 43.453125 14.75 36.375 
Q 14.75 27.25 17.40625 20.4375 
Q 20.0625 13.625 25.671875 10.25 
Q 31.296875 6.890625 37.84375 6.890625 
Q 45.796875 6.890625 51.3125 11.46875 
Q 56.84375 16.0625 58.796875 25.09375 
" id="ArialMT-43"/>
      <path d="M 6.5 0 
L 6.5 51.859375 
L 14.40625 51.859375 
L 14.40625 44 
Q 17.4375 49.515625 20 51.265625 
Q 22.5625 53.03125 25.640625 53.03125 
Q 30.078125 53.03125 34.671875 50.203125 
L 31.640625 42.046875 
Q 28.421875 43.953125 25.203125 43.953125 
Q 22.3125 43.953125 20.015625 42.21875 
Q 17.71875 40.484375 16.75 37.40625 
Q 15.28125 32.71875 15.28125 27.15625 
L 15.28125 0 
z
" id="ArialMT-72"/>
      <path d="M 3.078125 15.484375 
L 11.765625 16.84375 
Q 12.5 11.625 15.84375 8.84375 
Q 19.1875 6.0625 25.203125 6.0625 
Q 31.25 6.0625 34.171875 8.515625 
Q 37.109375 10.984375 37.109375 14.3125 
Q 37.109375 17.28125 34.515625 19 
Q 32.71875 20.171875 25.53125 21.96875 
Q 15.875 24.421875 12.140625 26.203125 
Q 8.40625 27.984375 6.46875 31.125 
Q 4.546875 34.28125 4.546875 38.09375 
Q 4.546875 41.546875 6.125 44.5 
Q 7.71875 47.46875 10.453125 49.421875 
Q 12.5 50.921875 16.03125 51.96875 
Q 19.578125 53.03125 23.640625 53.03125 
Q 29.734375 53.03125 34.34375 51.265625 
Q 38.96875 49.515625 41.15625 46.5 
Q 43.359375 43.5 44.1875 38.484375 
L 35.59375 37.3125 
Q 35.015625 41.3125 32.203125 43.546875 
Q 29.390625 45.796875 24.265625 45.796875 
Q 18.21875 45.796875 15.625 43.796875 
Q 13.03125 41.796875 13.03125 39.109375 
Q 13.03125 37.40625 14.109375 36.03125 
Q 15.1875 34.625 17.484375 33.6875 
Q 18.796875 33.203125 25.25 31.453125 
Q 34.578125 28.953125 38.25 27.359375 
Q 41.9375 25.78125 44.03125 22.75 
Q 46.140625 19.734375 46.140625 15.234375 
Q 46.140625 10.84375 43.578125 6.953125 
Q 41.015625 3.078125 36.171875 0.953125 
Q 31.34375 -1.171875 25.25 -1.171875 
Q 15.140625 -1.171875 9.84375 3.03125 
Q 4.546875 7.234375 3.078125 15.484375 
" id="ArialMT-73"/>
      <path d="M 6.390625 0 
L 6.390625 71.578125 
L 15.1875 71.578125 
L 15.1875 0 
z
" id="ArialMT-6c"/>
      <path d="M 3.328125 25.921875 
Q 3.328125 40.328125 11.328125 47.265625 
Q 18.015625 53.03125 27.640625 53.03125 
Q 38.328125 53.03125 45.109375 46.015625 
Q 51.90625 39.015625 51.90625 26.65625 
Q 51.90625 16.65625 48.90625 10.90625 
Q 45.90625 5.171875 40.15625 2 
Q 34.421875 -1.171875 27.640625 -1.171875 
Q 16.75 -1.171875 10.03125 5.8125 
Q 3.328125 12.796875 3.328125 25.921875 
M 12.359375 25.921875 
Q 12.359375 15.96875 16.703125 11.015625 
Q 21.046875 6.0625 27.640625 6.0625 
Q 34.1875 6.0625 38.53125 11.03125 
Q 42.875 16.015625 42.875 26.21875 
Q 42.875 35.84375 38.5 40.796875 
Q 34.125 45.75 27.640625 45.75 
Q 21.046875 45.75 16.703125 40.8125 
Q 12.359375 35.890625 12.359375 25.921875 
" id="ArialMT-6f"/>
      <path d="M 21 0 
L 1.265625 51.859375 
L 10.546875 51.859375 
L 21.6875 20.796875 
Q 23.484375 15.765625 25 10.359375 
Q 26.171875 14.453125 28.265625 20.21875 
L 39.796875 51.859375 
L 48.828125 51.859375 
L 29.203125 0 
z
" id="ArialMT-76"/>
     </defs>
     <g style="fill:#262626;" transform="translate(16.7365 142.9566875)rotate(-90.0)scale(0.088 -0.088)">
      <use xlink:href="#ArialMT-43"/>
      <use x="72.216796875" xlink:href="#ArialMT-75"/>
      <use x="127.83203125" xlink:href="#ArialMT-6d"/>
      <use x="211.1328125" xlink:href="#ArialMT-75"/>
      <use x="266.748046875" xlink:href="#ArialMT-6c"/>
      <use x="288.96484375" xlink:href="#ArialMT-61"/>
      <use x="344.580078125" xlink:href="#ArialMT-74"/>
      <use x="372.36328125" xlink:href="#ArialMT-69"/>
      <use x="394.580078125" xlink:href="#ArialMT-76"/>
      <use x="444.580078125" xlink:href="#ArialMT-65"/>
      <use x="500.1953125" xlink:href="#ArialMT-20"/>
      <use x="527.978515625" xlink:href="#ArialMT-64"/>
      <use x="583.59375" xlink:href="#ArialMT-69"/>
      <use x="605.810546875" xlink:href="#ArialMT-73"/>
      <use x="655.810546875" xlink:href="#ArialMT-74"/>
      <use x="683.59375" xlink:href="#ArialMT-72"/>
      <use x="716.89453125" xlink:href="#ArialMT-69"/>
      <use x="739.111328125" xlink:href="#ArialMT-62"/>
      <use x="794.7265625" xlink:href="#ArialMT-75"/>
      <use x="850.341796875" xlink:href="#ArialMT-74"/>
      <use x="878.125" xlink:href="#ArialMT-69"/>
      <use x="900.341796875" xlink:href="#ArialMT-6f"/>
      <use x="955.95703125" xlink:href="#ArialMT-6e"/>
     </g>
    </g>
   </g>
   <g id="line2d_23">
    <path clip-path="url(#pe1a2883329)" d="M 12.060749 172.531209 
L 22.540965 172.426225 
L 28.529659 172.096943 
L 34.518354 171.557384 
L 37.512701 171.141395 
L 40.507048 170.493956 
L 43.501396 169.498376 
L 46.495743 168.079892 
L 49.49009 166.259852 
L 53.981611 163.087998 
L 61.467479 157.519347 
L 64.461826 154.988354 
L 67.456174 152.152965 
L 76.439216 143.29172 
L 80.930736 138.884107 
L 83.925084 135.60171 
L 86.919431 131.945211 
L 92.908125 124.019706 
L 98.89682 115.989237 
L 101.891167 111.489927 
L 104.885515 106.298473 
L 107.879862 100.439971 
L 112.371383 90.974125 
L 119.857251 75.089938 
L 124.348772 66.158644 
L 127.343119 60.682371 
L 130.337466 55.603748 
L 133.331814 50.893839 
L 136.326161 46.541781 
L 139.320508 42.555834 
L 142.314855 38.965423 
L 145.309203 35.845328 
L 146.806376 34.49774 
L 148.30355 33.310382 
L 149.800724 32.290757 
L 151.297897 31.437947 
L 152.795071 30.742051 
L 155.789418 29.746438 
L 158.783765 29.123871 
L 163.275286 28.515517 
L 170.761154 27.561756 
L 175.252675 26.818391 
L 185.732891 24.930365 
L 190.224412 24.54034 
L 194.715932 24.401932 
L 202.201801 24.368679 
L 202.201801 24.368679 
" style="fill:none;stroke:#fedf08;stroke-linecap:round;stroke-width:2.0;"/>
   </g>
   <g id="patch_3">
    <path d="M 40.2055 24.368 
L 189.138756 24.368 
" style="fill:none;stroke:#262626;stroke-linecap:square;stroke-linejoin:miter;stroke-width:1.25;"/>
   </g>
   <g id="patch_4">
    <path d="M 189.138756 172.532 
L 189.138756 24.368 
" style="fill:none;stroke:#262626;stroke-linecap:square;stroke-linejoin:miter;stroke-width:1.25;"/>
   </g>
   <g id="patch_5">
    <path d="M 40.2055 172.532 
L 189.138756 172.532 
" style="fill:none;stroke:#262626;stroke-linecap:square;stroke-linejoin:miter;stroke-width:1.25;"/>
   </g>
   <g id="patch_6">
    <path d="M 40.2055 172.532 
L 40.2055 24.368 
" style="fill:none;stroke:#262626;stroke-linecap:square;stroke-linejoin:miter;stroke-width:1.25;"/>
   </g>
   <g id="text_14">
    <!-- Measured metabolite conc. -->
    <defs>
     <path d="M 40.4375 19 
L 49.078125 17.875 
Q 47.65625 8.9375 41.8125 3.875 
Q 35.984375 -1.171875 27.484375 -1.171875 
Q 16.84375 -1.171875 10.375 5.78125 
Q 3.90625 12.75 3.90625 25.734375 
Q 3.90625 34.125 6.6875 40.421875 
Q 9.46875 46.734375 15.15625 49.875 
Q 20.84375 53.03125 27.546875 53.03125 
Q 35.984375 53.03125 41.359375 48.75 
Q 46.734375 44.484375 48.25 36.625 
L 39.703125 35.296875 
Q 38.484375 40.53125 35.375 43.15625 
Q 32.28125 45.796875 27.875 45.796875 
Q 21.234375 45.796875 17.078125 41.03125 
Q 12.9375 36.28125 12.9375 25.984375 
Q 12.9375 15.53125 16.9375 10.796875 
Q 20.953125 6.0625 27.390625 6.0625 
Q 32.5625 6.0625 36.03125 9.234375 
Q 39.5 12.40625 40.4375 19 
" id="ArialMT-63"/>
    </defs>
    <g style="fill:#262626;" transform="translate(57.0458780689 19.368)scale(0.096 -0.096)">
     <use xlink:href="#ArialMT-4d"/>
     <use x="83.30078125" xlink:href="#ArialMT-65"/>
     <use x="138.916015625" xlink:href="#ArialMT-61"/>
     <use x="194.53125" xlink:href="#ArialMT-73"/>
     <use x="244.53125" xlink:href="#ArialMT-75"/>
     <use x="300.146484375" xlink:href="#ArialMT-72"/>
     <use x="333.447265625" xlink:href="#ArialMT-65"/>
     <use x="389.0625" xlink:href="#ArialMT-64"/>
     <use x="444.677734375" xlink:href="#ArialMT-20"/>
     <use x="472.4609375" xlink:href="#ArialMT-6d"/>
     <use x="555.76171875" xlink:href="#ArialMT-65"/>
     <use x="611.376953125" xlink:href="#ArialMT-74"/>
     <use x="639.16015625" xlink:href="#ArialMT-61"/>
     <use x="694.775390625" xlink:href="#ArialMT-62"/>
     <use x="750.390625" xlink:href="#ArialMT-6f"/>
     <use x="806.005859375" xlink:href="#ArialMT-6c"/>
     <use x="828.22265625" xlink:href="#ArialMT-69"/>
     <use x="850.439453125" xlink:href="#ArialMT-74"/>
     <use x="878.22265625" xlink:href="#ArialMT-65"/>
     <use x="933.837890625" xlink:href="#ArialMT-20"/>
     <use x="961.62109375" xlink:href="#ArialMT-63"/>
     <use x="1011.62109375" xlink:href="#ArialMT-6f"/>
     <use x="1067.23632812" xlink:href="#ArialMT-6e"/>
     <use x="1122.8515625" xlink:href="#ArialMT-63"/>
     <use x="1172.8515625" xlink:href="#ArialMT-2e"/>
    </g>
   </g>
  </g>
  <g id="axes_2">
   <g id="patch_7">
    <path d="M 208.299246 172.532 
L 357.232502 172.532 
L 357.232502 24.368 
L 208.299246 24.368 
z
" style="fill:#ffffff;"/>
   </g>
   <g id="matplotlib.axis_3">
    <g id="xtick_6">
     <g id="line2d_24"/>
     <g id="line2d_25"/>
     <g id="text_15">
      <!-- 0.01 -->
      <g style="fill:#262626;" transform="translate(203.617646803 183.85825)scale(0.08 -0.08)">
       <use xlink:href="#ArialMT-30"/>
       <use x="55.615234375" xlink:href="#ArialMT-2e"/>
       <use x="83.3984375" xlink:href="#ArialMT-30"/>
       <use x="139.013671875" xlink:href="#ArialMT-31"/>
      </g>
     </g>
    </g>
    <g id="xtick_7">
     <g id="line2d_26"/>
     <g id="line2d_27"/>
     <g id="text_16">
      <!-- 0.1 -->
      <g style="fill:#262626;" transform="translate(236.869783498 183.85825)scale(0.08 -0.08)">
       <use xlink:href="#ArialMT-30"/>
       <use x="55.615234375" xlink:href="#ArialMT-2e"/>
       <use x="83.3984375" xlink:href="#ArialMT-31"/>
      </g>
     </g>
    </g>
    <g id="xtick_8">
     <g id="line2d_28"/>
     <g id="line2d_29"/>
     <g id="text_17">
      <!-- 1 -->
      <g style="fill:#262626;" transform="translate(271.233170194 183.85825)scale(0.08 -0.08)">
       <use xlink:href="#ArialMT-31"/>
      </g>
     </g>
    </g>
    <g id="xtick_9">
     <g id="line2d_30"/>
     <g id="line2d_31"/>
     <g id="text_18">
      <!-- 10 -->
      <g style="fill:#262626;" transform="translate(300.036556889 183.85825)scale(0.08 -0.08)">
       <use xlink:href="#ArialMT-31"/>
       <use x="55.615234375" xlink:href="#ArialMT-30"/>
      </g>
     </g>
    </g>
    <g id="xtick_10">
     <g id="line2d_32"/>
     <g id="line2d_33"/>
     <g id="text_19">
      <!-- 100 -->
      <g style="fill:#262626;" transform="translate(328.839943585 183.85825)scale(0.08 -0.08)">
       <use xlink:href="#ArialMT-31"/>
       <use x="55.615234375" xlink:href="#ArialMT-30"/>
       <use x="111.23046875" xlink:href="#ArialMT-30"/>
      </g>
     </g>
    </g>
    <g id="text_20">
     <!-- $K_S$ (in mM) -->
     <defs>
      <path d="M 4.6875 0 
Q 3.71875 0 3.71875 1.3125 
Q 3.765625 1.5625 3.90625 2.171875 
Q 4.046875 2.78125 4.3125 3.140625 
Q 4.59375 3.515625 4.984375 3.515625 
Q 11.078125 3.515625 13.484375 4.203125 
Q 14.796875 4.640625 15.375 6.890625 
L 29.109375 61.8125 
Q 29.296875 62.796875 29.296875 63.1875 
Q 29.296875 64.265625 28.078125 64.40625 
Q 26.21875 64.796875 20.90625 64.796875 
Q 19.921875 64.796875 19.921875 66.109375 
Q 20.265625 67.390625 20.453125 67.84375 
Q 20.65625 68.3125 21.578125 68.3125 
L 48.484375 68.3125 
Q 49.515625 68.3125 49.515625 67 
Q 49.46875 66.75 49.3125 66.15625 
Q 49.171875 65.578125 48.921875 65.1875 
Q 48.6875 64.796875 48.1875 64.796875 
Q 42.09375 64.796875 39.703125 64.109375 
Q 38.375 63.625 37.796875 61.375 
L 29.6875 29 
L 68.890625 59.28125 
Q 69 59.46875 70.140625 60.609375 
Q 71.296875 61.765625 71.296875 62.890625 
Q 71.296875 64.796875 67.921875 64.796875 
Q 66.890625 64.796875 66.890625 66.109375 
Q 67.09375 66.890625 67.203125 67.328125 
Q 67.328125 67.78125 67.640625 68.046875 
Q 67.96875 68.3125 68.609375 68.3125 
L 87.984375 68.3125 
Q 88.53125 68.3125 88.765625 67.921875 
Q 89.015625 67.53125 89.015625 67 
Q 88.96875 66.75 88.796875 66.109375 
Q 88.625 65.484375 88.359375 65.140625 
Q 88.09375 64.796875 87.59375 64.796875 
Q 80.28125 64.796875 71.578125 58.015625 
Q 71.53125 57.953125 71.4375 57.921875 
Q 71.34375 57.90625 71.234375 57.875 
Q 71.140625 57.859375 71.09375 57.8125 
L 50.484375 41.796875 
L 65.484375 6.6875 
Q 66.84375 4.5 68.40625 4 
Q 69.96875 3.515625 73.1875 3.515625 
Q 74.21875 3.515625 74.21875 2.203125 
Q 73.921875 1.03125 73.625 0.515625 
Q 73.34375 0 72.515625 0 
L 49.3125 0 
Q 48.390625 0 48.390625 1.3125 
Q 48.53125 2.34375 48.71875 2.921875 
Q 48.921875 3.515625 49.703125 3.515625 
Q 52.25 3.515625 54.03125 4.03125 
Q 55.8125 4.546875 55.8125 6.390625 
Q 55.8125 7.078125 55.71875 7.421875 
L 43.3125 36.28125 
L 28.71875 25 
L 24.125 6.5 
Q 23.875 5.28125 23.875 5.078125 
Q 23.875 4.046875 25.09375 3.90625 
Q 27 3.515625 32.328125 3.515625 
Q 33.296875 3.515625 33.296875 2.203125 
Q 32.953125 0.78125 32.75 0.390625 
Q 32.5625 0 31.59375 0 
z
" id="Cmmi10-4b"/>
     </defs>
     <g style="fill:#262626;" transform="translate(260.721873702 196.87225)scale(0.088 -0.088)">
      <use transform="translate(0.0 0.203125)" xlink:href="#Cmmi10-4b"/>
      <use transform="translate(84.912109375 -16.803125)scale(0.7)" xlink:href="#Cmmi10-53"/>
      <use transform="translate(134.184960937 0.203125)" xlink:href="#ArialMT-20"/>
      <use transform="translate(161.968164062 0.203125)" xlink:href="#ArialMT-28"/>
      <use transform="translate(195.268945312 0.203125)" xlink:href="#ArialMT-69"/>
      <use transform="translate(217.485742187 0.203125)" xlink:href="#ArialMT-6e"/>
      <use transform="translate(273.100976563 0.203125)" xlink:href="#ArialMT-20"/>
      <use transform="translate(300.884179688 0.203125)" xlink:href="#ArialMT-6d"/>
      <use transform="translate(384.184960938 0.203125)" xlink:href="#ArialMT-4d"/>
      <use transform="translate(467.485742188 0.203125)" xlink:href="#ArialMT-29"/>
     </g>
    </g>
   </g>
   <g id="matplotlib.axis_4">
    <g id="ytick_7">
     <g id="line2d_34"/>
     <g id="line2d_35"/>
    </g>
    <g id="ytick_8">
     <g id="line2d_36"/>
     <g id="line2d_37"/>
    </g>
    <g id="ytick_9">
     <g id="line2d_38"/>
     <g id="line2d_39"/>
    </g>
    <g id="ytick_10">
     <g id="line2d_40"/>
     <g id="line2d_41"/>
    </g>
    <g id="ytick_11">
     <g id="line2d_42"/>
     <g id="line2d_43"/>
    </g>
    <g id="ytick_12">
     <g id="line2d_44"/>
     <g id="line2d_45"/>
    </g>
   </g>
   <g id="line2d_46">
    <path clip-path="url(#pe0e59b9c2b)" d="M 202.24579 172.530935 
L 210.68997 172.424464 
L 214.067642 172.207077 
L 225.889494 171.108728 
L 234.333674 170.623885 
L 239.400181 170.071834 
L 242.777853 169.494572 
L 249.533197 168.040705 
L 252.910869 167.039244 
L 254.599705 166.330335 
L 256.288541 165.447171 
L 257.977377 164.396846 
L 261.355049 161.918123 
L 264.732721 159.109409 
L 268.110393 155.904442 
L 269.799229 154.076944 
L 271.488065 152.07272 
L 274.865737 147.529331 
L 278.243409 142.30273 
L 281.621081 136.42412 
L 284.998753 129.811425 
L 288.376425 122.227536 
L 291.754097 113.709053 
L 296.820604 100.697364 
L 298.50944 96.752742 
L 301.887112 89.676098 
L 313.708964 66.770031 
L 317.086636 61.165693 
L 320.464308 56.088493 
L 323.84198 51.292487 
L 327.219652 46.953185 
L 328.908488 45.051876 
L 330.597324 43.340678 
L 333.974996 40.355043 
L 344.108012 32.200555 
L 347.485684 29.780935 
L 349.174519 28.763073 
L 350.863355 27.903364 
L 352.552191 27.212402 
L 354.241027 26.689621 
L 355.929863 26.320579 
L 359.307535 25.91999 
L 371.129387 25.231356 
L 377.884731 25.107864 
L 398.150763 24.983603 
L 413.350286 24.376417 
L 416.727958 24.36899 
L 416.727958 24.36899 
" style="fill:none;stroke:#3eaf76;stroke-linecap:round;stroke-width:2.0;"/>
   </g>
   <g id="line2d_47">
    <path clip-path="url(#pe0e59b9c2b)" d="M 191.190627 172.528078 
L 196.103854 172.456676 
L 199.379338 172.220017 
L 202.654823 171.672626 
L 210.843534 169.874873 
L 215.756761 169.099898 
L 219.032246 168.226994 
L 220.669988 167.60043 
L 222.30773 166.816171 
L 223.945473 165.840785 
L 225.583215 164.645511 
L 227.220957 163.234829 
L 232.134184 158.599825 
L 233.771926 157.363681 
L 235.409669 156.429868 
L 237.047411 155.782428 
L 240.322896 154.990365 
L 241.960638 154.595488 
L 243.59838 154.02985 
L 245.236122 153.192391 
L 246.873865 152.033263 
L 248.511607 150.573691 
L 255.062576 143.979976 
L 256.700318 142.655214 
L 259.975803 140.404518 
L 263.251288 138.077027 
L 264.88903 136.61192 
L 266.526772 134.799861 
L 268.164514 132.543808 
L 269.802257 129.772264 
L 271.439999 126.456524 
L 273.077741 122.625222 
L 276.353226 113.831747 
L 281.266453 100.219879 
L 284.541937 92.231617 
L 287.817422 85.118467 
L 291.092906 78.815222 
L 292.730649 76.070872 
L 294.368391 73.616039 
L 297.643875 69.335541 
L 304.194845 61.483288 
L 307.470329 57.799343 
L 309.108071 56.13182 
L 310.745814 54.641401 
L 312.383556 53.374251 
L 314.021298 52.364469 
L 315.659041 51.620857 
L 317.296783 51.120842 
L 318.934525 50.816476 
L 322.21001 50.563675 
L 328.760979 50.282689 
L 330.398721 50.071116 
L 332.036463 49.741842 
L 333.674206 49.277366 
L 336.94969 47.971323 
L 343.500659 44.732262 
L 350.051628 41.471248 
L 353.327113 39.645398 
L 356.602598 37.567513 
L 363.153567 33.090392 
L 366.429051 31.276339 
L 369.704536 29.911566 
L 372.98002 28.811598 
L 376.255505 27.909289 
L 389.357443 24.912157 
L 392.632928 24.529684 
L 397.546155 24.379758 
L 399.183897 24.371922 
L 399.183897 24.371922 
" style="fill:none;stroke:#fe86a4;stroke-linecap:round;stroke-width:2.0;"/>
   </g>
   <g id="patch_8">
    <path d="M 208.299246 24.368 
L 357.232502 24.368 
" style="fill:none;stroke:#262626;stroke-linecap:square;stroke-linejoin:miter;stroke-width:1.25;"/>
   </g>
   <g id="patch_9">
    <path d="M 357.232502 172.532 
L 357.232502 24.368 
" style="fill:none;stroke:#262626;stroke-linecap:square;stroke-linejoin:miter;stroke-width:1.25;"/>
   </g>
   <g id="patch_10">
    <path d="M 208.299246 172.532 
L 357.232502 172.532 
" style="fill:none;stroke:#262626;stroke-linecap:square;stroke-linejoin:miter;stroke-width:1.25;"/>
   </g>
   <g id="patch_11">
    <path d="M 208.299246 172.532 
L 208.299246 24.368 
" style="fill:none;stroke:#262626;stroke-linecap:square;stroke-linejoin:miter;stroke-width:1.25;"/>
   </g>
   <g id="text_21">
    <!-- $p_{ranksum}$ &lt; 0.003 -->
    <defs>
     <path d="M 17.390625 -1.125 
Q 11.078125 -1.125 7.4375 3.640625 
Q 3.8125 8.40625 3.8125 14.890625 
Q 3.8125 21.296875 7.125 28.171875 
Q 10.453125 35.0625 16.09375 39.625 
Q 21.734375 44.1875 28.21875 44.1875 
Q 31.203125 44.1875 33.546875 42.578125 
Q 35.890625 40.96875 37.203125 38.1875 
Q 38.328125 42.1875 41.609375 42.1875 
Q 42.875 42.1875 43.71875 41.421875 
Q 44.578125 40.671875 44.578125 39.40625 
Q 44.578125 39.109375 44.546875 38.953125 
Q 44.53125 38.8125 44.484375 38.625 
L 37.5 10.6875 
Q 36.8125 7.71875 36.8125 5.8125 
Q 36.8125 1.515625 39.703125 1.515625 
Q 42.828125 1.515625 44.453125 5.484375 
Q 46.09375 9.46875 47.21875 14.703125 
Q 47.40625 15.28125 48 15.28125 
L 49.21875 15.28125 
Q 49.609375 15.28125 49.84375 14.9375 
Q 50.09375 14.59375 50.09375 14.3125 
Q 48.34375 7.328125 46.265625 3.09375 
Q 44.1875 -1.125 39.5 -1.125 
Q 36.140625 -1.125 33.546875 0.84375 
Q 30.953125 2.828125 30.328125 6.109375 
Q 23.875 -1.125 17.390625 -1.125 
M 17.484375 1.515625 
Q 21.09375 1.515625 24.484375 4.21875 
Q 27.875 6.9375 30.328125 10.59375 
Q 30.421875 10.6875 30.421875 10.890625 
L 35.796875 32.625 
L 35.890625 32.90625 
Q 35.296875 36.46875 33.3125 39.03125 
Q 31.34375 41.609375 27.984375 41.609375 
Q 24.609375 41.609375 21.703125 38.84375 
Q 18.796875 36.078125 16.796875 32.328125 
Q 14.84375 28.328125 13.0625 21.34375 
Q 11.28125 14.359375 11.28125 10.5 
Q 11.28125 7.03125 12.765625 4.265625 
Q 14.265625 1.515625 17.484375 1.515625 
" id="Cmmi10-61"/>
     <path d="M 5.328125 1.8125 
Q 5.328125 2.390625 5.421875 2.6875 
L 19.921875 60.5 
Q 20.3125 62.203125 20.40625 63.1875 
Q 20.40625 64.796875 13.921875 64.796875 
Q 12.890625 64.796875 12.890625 66.109375 
Q 12.9375 66.359375 13.109375 66.984375 
Q 13.28125 67.625 13.546875 67.96875 
Q 13.8125 68.3125 14.3125 68.3125 
L 27.78125 69.390625 
L 28.078125 69.390625 
Q 28.078125 69.28125 28.421875 69.109375 
Q 28.765625 68.953125 28.8125 68.890625 
Q 29 68.40625 29 68.109375 
L 18.5 26.3125 
Q 22.125 27.828125 27.609375 33.515625 
Q 33.109375 39.203125 36.203125 41.6875 
Q 39.3125 44.1875 44 44.1875 
Q 46.78125 44.1875 48.734375 42.28125 
Q 50.6875 40.375 50.6875 37.59375 
Q 50.6875 35.84375 49.953125 34.34375 
Q 49.21875 32.859375 47.890625 31.921875 
Q 46.578125 31 44.828125 31 
Q 43.21875 31 42.109375 32 
Q 41.015625 33.015625 41.015625 34.625 
Q 41.015625 37.015625 42.703125 38.640625 
Q 44.390625 40.28125 46.78125 40.28125 
Q 45.796875 41.609375 43.796875 41.609375 
Q 40.828125 41.609375 38.0625 39.890625 
Q 35.296875 38.1875 32.09375 34.984375 
Q 28.90625 31.78125 26.265625 29.125 
Q 23.640625 26.46875 21.390625 25.09375 
Q 27.296875 24.421875 31.640625 22 
Q 35.984375 19.578125 35.984375 14.59375 
Q 35.984375 13.578125 35.59375 12.015625 
Q 34.71875 8.25 34.71875 6 
Q 34.71875 1.515625 37.796875 1.515625 
Q 41.40625 1.515625 43.28125 5.46875 
Q 45.171875 9.421875 46.390625 14.703125 
Q 46.578125 15.28125 47.21875 15.28125 
L 48.390625 15.28125 
Q 48.78125 15.28125 49.046875 15.03125 
Q 49.3125 14.796875 49.3125 14.40625 
Q 49.3125 14.3125 49.21875 14.109375 
Q 45.453125 -1.125 37.59375 -1.125 
Q 34.765625 -1.125 32.59375 0.1875 
Q 30.421875 1.515625 29.25 3.78125 
Q 28.078125 6.0625 28.078125 8.890625 
Q 28.078125 10.5 28.515625 12.203125 
Q 28.8125 13.375 28.8125 14.40625 
Q 28.8125 18.265625 25.390625 20.265625 
Q 21.96875 22.265625 17.578125 22.703125 
L 12.5 2.296875 
Q 12.109375 0.78125 10.984375 -0.171875 
Q 9.859375 -1.125 8.40625 -1.125 
Q 7.125 -1.125 6.21875 -0.265625 
Q 5.328125 0.59375 5.328125 1.8125 
" id="Cmmi10-6b"/>
     <path d="M 7.71875 1.703125 
Q 7.71875 2.296875 7.8125 2.59375 
L 15.28125 32.421875 
Q 16.015625 35.203125 16.015625 37.3125 
Q 16.015625 41.609375 13.09375 41.609375 
Q 9.96875 41.609375 8.453125 37.859375 
Q 6.9375 34.125 5.515625 28.421875 
Q 5.515625 28.125 5.21875 27.953125 
Q 4.9375 27.78125 4.6875 27.78125 
L 3.515625 27.78125 
Q 3.171875 27.78125 2.921875 28.140625 
Q 2.6875 28.515625 2.6875 28.8125 
Q 3.765625 33.15625 4.765625 36.171875 
Q 5.765625 39.203125 7.890625 41.6875 
Q 10.015625 44.1875 13.1875 44.1875 
Q 16.9375 44.1875 19.8125 41.8125 
Q 22.703125 39.453125 22.703125 35.796875 
Q 25.6875 39.703125 29.6875 41.9375 
Q 33.6875 44.1875 38.1875 44.1875 
Q 41.75 44.1875 44.328125 42.96875 
Q 46.921875 41.75 48.359375 39.28125 
Q 49.8125 36.8125 49.8125 33.40625 
Q 49.8125 29.296875 47.96875 23.484375 
Q 46.140625 17.671875 43.40625 10.5 
Q 42 7.234375 42 4.5 
Q 42 1.515625 44.28125 1.515625 
Q 48.1875 1.515625 50.796875 5.703125 
Q 53.421875 9.90625 54.5 14.703125 
Q 54.6875 15.28125 55.328125 15.28125 
L 56.5 15.28125 
Q 56.890625 15.28125 57.15625 15.03125 
Q 57.421875 14.796875 57.421875 14.40625 
Q 57.421875 14.3125 57.328125 14.109375 
Q 55.953125 8.453125 52.5625 3.65625 
Q 49.171875 -1.125 44.09375 -1.125 
Q 40.578125 -1.125 38.078125 1.296875 
Q 35.59375 3.71875 35.59375 7.171875 
Q 35.59375 9.03125 36.375 11.078125 
Q 37.640625 14.359375 39.28125 18.890625 
Q 40.921875 23.4375 41.96875 27.578125 
Q 43.015625 31.734375 43.015625 34.90625 
Q 43.015625 37.703125 41.859375 39.65625 
Q 40.71875 41.609375 37.984375 41.609375 
Q 34.328125 41.609375 31.25 39.984375 
Q 28.171875 38.375 25.875 35.71875 
Q 23.578125 33.0625 21.6875 29.390625 
L 14.890625 2.203125 
Q 14.546875 0.828125 13.34375 -0.140625 
Q 12.15625 -1.125 10.6875 -1.125 
Q 9.46875 -1.125 8.59375 -0.34375 
Q 7.71875 0.4375 7.71875 1.703125 
" id="Cmmi10-6e"/>
     <path d="M 7.71875 1.703125 
Q 7.71875 2.296875 7.8125 2.59375 
L 15.28125 32.421875 
Q 16.015625 35.203125 16.015625 37.3125 
Q 16.015625 41.609375 13.09375 41.609375 
Q 9.96875 41.609375 8.453125 37.859375 
Q 6.9375 34.125 5.515625 28.421875 
Q 5.515625 28.125 5.21875 27.953125 
Q 4.9375 27.78125 4.6875 27.78125 
L 3.515625 27.78125 
Q 3.171875 27.78125 2.921875 28.140625 
Q 2.6875 28.515625 2.6875 28.8125 
Q 3.765625 33.15625 4.765625 36.171875 
Q 5.765625 39.203125 7.890625 41.6875 
Q 10.015625 44.1875 13.1875 44.1875 
Q 16.9375 44.1875 19.8125 41.8125 
Q 22.703125 39.453125 22.703125 35.796875 
Q 25.6875 39.703125 29.6875 41.9375 
Q 33.6875 44.1875 38.1875 44.1875 
Q 42.921875 44.1875 46.359375 41.765625 
Q 49.8125 39.359375 49.8125 34.90625 
Q 52.875 39.265625 57 41.71875 
Q 61.140625 44.1875 66.015625 44.1875 
Q 71.1875 44.1875 74.328125 41.375 
Q 77.484375 38.578125 77.484375 33.40625 
Q 77.484375 29.296875 75.65625 23.484375 
Q 73.828125 17.671875 71.09375 10.5 
Q 69.671875 7.03125 69.671875 4.5 
Q 69.671875 1.515625 72.015625 1.515625 
Q 75.921875 1.515625 78.515625 5.703125 
Q 81.109375 9.90625 82.171875 14.703125 
Q 82.46875 15.28125 83.015625 15.28125 
L 84.1875 15.28125 
Q 84.578125 15.28125 84.84375 15.015625 
Q 85.109375 14.75 85.109375 14.40625 
Q 85.109375 14.3125 85.015625 14.109375 
Q 83.640625 8.453125 80.25 3.65625 
Q 76.859375 -1.125 71.78125 -1.125 
Q 68.265625 -1.125 65.765625 1.296875 
Q 63.28125 3.71875 63.28125 7.171875 
Q 63.28125 8.9375 64.109375 11.078125 
Q 66.9375 18.609375 68.8125 24.515625 
Q 70.703125 30.421875 70.703125 34.90625 
Q 70.703125 37.703125 69.578125 39.65625 
Q 68.453125 41.609375 65.828125 41.609375 
Q 60.359375 41.609375 56.34375 38.25 
Q 52.34375 34.90625 49.421875 29.390625 
Q 49.21875 28.421875 49.125 27.875 
L 42.671875 2.203125 
Q 42.328125 0.828125 41.125 -0.140625 
Q 39.9375 -1.125 38.484375 -1.125 
Q 37.3125 -1.125 36.40625 -0.34375 
Q 35.5 0.4375 35.5 1.703125 
Q 35.5 2.296875 35.59375 2.59375 
L 42 28.078125 
Q 43.015625 32.171875 43.015625 34.90625 
Q 43.015625 37.703125 41.859375 39.65625 
Q 40.71875 41.609375 37.984375 41.609375 
Q 34.328125 41.609375 31.25 39.984375 
Q 28.171875 38.375 25.875 35.71875 
Q 23.578125 33.0625 21.6875 29.390625 
L 14.890625 2.203125 
Q 14.546875 0.828125 13.34375 -0.140625 
Q 12.15625 -1.125 10.6875 -1.125 
Q 9.46875 -1.125 8.59375 -0.34375 
Q 7.71875 0.4375 7.71875 1.703125 
" id="Cmmi10-6d"/>
     <path d="M 5.46875 31.296875 
L 5.46875 39.5 
L 52.875 59.515625 
L 52.875 50.78125 
L 15.28125 35.359375 
L 52.875 19.78125 
L 52.875 11.03125 
z
" id="ArialMT-3c"/>
     <path d="M 7.71875 1.703125 
Q 7.71875 2.296875 7.8125 2.59375 
L 15.28125 32.421875 
Q 16.015625 35.203125 16.015625 37.3125 
Q 16.015625 41.609375 13.09375 41.609375 
Q 9.96875 41.609375 8.453125 37.859375 
Q 6.9375 34.125 5.515625 28.421875 
Q 5.515625 28.125 5.21875 27.953125 
Q 4.9375 27.78125 4.6875 27.78125 
L 3.515625 27.78125 
Q 3.171875 27.78125 2.921875 28.140625 
Q 2.6875 28.515625 2.6875 28.8125 
Q 3.765625 33.15625 4.765625 36.171875 
Q 5.765625 39.203125 7.890625 41.6875 
Q 10.015625 44.1875 13.1875 44.1875 
Q 16.65625 44.1875 19.265625 42.1875 
Q 21.875 40.1875 22.515625 36.921875 
Q 25.046875 40.234375 28.296875 42.203125 
Q 31.546875 44.1875 35.40625 44.1875 
Q 38.578125 44.1875 40.984375 42.328125 
Q 43.40625 40.484375 43.40625 37.3125 
Q 43.40625 34.765625 41.8125 32.875 
Q 40.234375 31 37.59375 31 
Q 35.984375 31 34.890625 32 
Q 33.796875 33.015625 33.796875 34.625 
Q 33.796875 36.8125 35.40625 38.546875 
Q 37.015625 40.28125 39.109375 40.28125 
Q 37.5 41.609375 35.203125 41.609375 
Q 30.90625 41.609375 27.734375 38.546875 
Q 24.5625 35.5 22.015625 30.8125 
L 14.890625 2.203125 
Q 14.546875 0.828125 13.34375 -0.140625 
Q 12.15625 -1.125 10.6875 -1.125 
Q 9.46875 -1.125 8.59375 -0.34375 
Q 7.71875 0.4375 7.71875 1.703125 
" id="Cmmi10-72"/>
     <path d="M 8.6875 6.109375 
Q 11.375 1.515625 19.484375 1.515625 
Q 23 1.515625 26.171875 2.703125 
Q 29.34375 3.90625 31.421875 6.296875 
Q 33.5 8.6875 33.5 12.109375 
Q 33.5 14.703125 31.640625 16.359375 
Q 29.78125 18.015625 27.09375 18.609375 
L 21.6875 19.671875 
Q 17.96875 20.609375 15.578125 23.140625 
Q 13.1875 25.6875 13.1875 29.296875 
Q 13.1875 33.734375 15.59375 37.15625 
Q 18.015625 40.578125 21.96875 42.375 
Q 25.921875 44.1875 30.171875 44.1875 
Q 34.71875 44.1875 38.296875 42.015625 
Q 41.890625 39.84375 41.890625 35.59375 
Q 41.890625 33.296875 40.59375 31.53125 
Q 39.3125 29.78125 37.015625 29.78125 
Q 35.6875 29.78125 34.734375 30.640625 
Q 33.796875 31.5 33.796875 32.8125 
Q 33.796875 33.984375 34.453125 35.078125 
Q 35.109375 36.1875 36.203125 36.84375 
Q 37.3125 37.5 38.484375 37.5 
Q 37.59375 39.65625 35.171875 40.625 
Q 32.765625 41.609375 29.984375 41.609375 
Q 27.4375 41.609375 24.890625 40.578125 
Q 22.359375 39.546875 20.8125 37.5625 
Q 19.28125 35.59375 19.28125 32.90625 
Q 19.28125 31.109375 20.546875 29.734375 
Q 21.828125 28.375 23.6875 27.78125 
L 29.5 26.609375 
Q 32.28125 26.03125 34.59375 24.53125 
Q 36.921875 23.046875 38.25 20.765625 
Q 39.59375 18.5 39.59375 15.578125 
Q 39.59375 11.859375 37.515625 8.25 
Q 35.453125 4.640625 32.421875 2.484375 
Q 27.09375 -1.125 19.390625 -1.125 
Q 14.0625 -1.125 9.609375 1.3125 
Q 5.171875 3.765625 5.171875 8.59375 
Q 5.171875 11.328125 6.75 13.34375 
Q 8.34375 15.375 11.078125 15.375 
Q 12.703125 15.375 13.796875 14.390625 
Q 14.890625 13.421875 14.890625 11.8125 
Q 14.890625 9.515625 13.171875 7.8125 
Q 11.46875 6.109375 9.1875 6.109375 
z
" id="Cmmi10-73"/>
     <path d="M -2.484375 -19.390625 
Q -3.421875 -19.390625 -3.421875 -18.109375 
Q -3.078125 -15.921875 -2.09375 -15.921875 
Q 1.03125 -15.921875 2.265625 -15.359375 
Q 3.515625 -14.796875 4.203125 -12.5 
L 15.484375 32.515625 
Q 16.21875 34.375 16.21875 37.3125 
Q 16.21875 41.609375 13.28125 41.609375 
Q 10.15625 41.609375 8.640625 37.859375 
Q 7.125 34.125 5.71875 28.421875 
Q 5.71875 27.78125 4.890625 27.78125 
L 3.71875 27.78125 
Q 3.46875 27.78125 3.171875 28.140625 
Q 2.875 28.515625 2.875 28.8125 
Q 3.953125 33.15625 4.953125 36.171875 
Q 5.953125 39.203125 8.078125 41.6875 
Q 10.203125 44.1875 13.375 44.1875 
Q 16.796875 44.1875 19.375 42.25 
Q 21.96875 40.328125 22.703125 37.015625 
Q 25.4375 40.1875 28.75 42.1875 
Q 32.078125 44.1875 35.59375 44.1875 
Q 39.796875 44.1875 42.890625 41.9375 
Q 46 39.703125 47.5625 36.0625 
Q 49.125 32.421875 49.125 28.21875 
Q 49.125 21.78125 45.828125 14.890625 
Q 42.53125 8.015625 36.890625 3.4375 
Q 31.25 -1.125 24.8125 -1.125 
Q 21.875 -1.125 19.5 0.53125 
Q 17.140625 2.203125 15.828125 4.890625 
L 11.28125 -12.890625 
Q 11.03125 -14.359375 10.984375 -14.59375 
Q 10.984375 -15.921875 17.578125 -15.921875 
Q 18.609375 -15.921875 18.609375 -17.1875 
Q 18.265625 -18.5 18.046875 -18.9375 
Q 17.828125 -19.390625 16.890625 -19.390625 
z
M 24.90625 1.515625 
Q 28.375 1.515625 31.34375 4.375 
Q 34.328125 7.234375 36.1875 10.796875 
Q 37.546875 13.484375 38.734375 17.359375 
Q 39.9375 21.234375 40.8125 25.625 
Q 41.703125 30.03125 41.703125 32.625 
Q 41.703125 34.90625 41.09375 36.90625 
Q 40.484375 38.921875 39.09375 40.265625 
Q 37.703125 41.609375 35.40625 41.609375 
Q 31.734375 41.609375 28.484375 38.984375 
Q 25.25 36.375 22.609375 32.515625 
L 22.609375 32.171875 
L 17.09375 10.109375 
Q 17.78125 6.546875 19.734375 4.03125 
Q 21.6875 1.515625 24.90625 1.515625 
" id="Cmmi10-70"/>
     <path d="M 10.59375 10.890625 
Q 10.59375 14.15625 11.46875 17.59375 
Q 12.359375 21.046875 13.9375 25.265625 
Q 15.53125 29.5 16.703125 32.625 
Q 18.015625 36.28125 18.015625 38.625 
Q 18.015625 41.609375 15.828125 41.609375 
Q 11.859375 41.609375 9.296875 37.53125 
Q 6.734375 33.453125 5.515625 28.421875 
Q 5.328125 27.78125 4.6875 27.78125 
L 3.515625 27.78125 
Q 2.6875 27.78125 2.6875 28.71875 
L 2.6875 29 
Q 4.296875 34.96875 7.609375 39.578125 
Q 10.9375 44.1875 16.015625 44.1875 
Q 19.578125 44.1875 22.046875 41.84375 
Q 24.515625 39.5 24.515625 35.890625 
Q 24.515625 34.03125 23.6875 31.984375 
Q 23.25 30.765625 21.6875 26.65625 
Q 20.125 22.5625 19.28125 19.875 
Q 18.453125 17.1875 17.921875 14.59375 
Q 17.390625 12.015625 17.390625 9.421875 
Q 17.390625 6.109375 18.796875 3.8125 
Q 20.21875 1.515625 23.390625 1.515625 
Q 29.78125 1.515625 34.625 9.421875 
Q 34.71875 9.8125 34.78125 10.171875 
Q 34.859375 10.546875 34.90625 10.890625 
L 42.09375 39.890625 
Q 42.4375 41.21875 43.65625 42.15625 
Q 44.875 43.109375 46.296875 43.109375 
Q 47.515625 43.109375 48.40625 42.328125 
Q 49.3125 41.546875 49.3125 40.28125 
Q 49.3125 39.703125 49.21875 39.5 
L 42 10.6875 
Q 41.3125 7.71875 41.3125 5.8125 
Q 41.3125 1.515625 44.1875 1.515625 
Q 47.40625 1.515625 49 5.484375 
Q 50.59375 9.46875 51.703125 14.703125 
Q 51.90625 15.28125 52.484375 15.28125 
L 53.71875 15.28125 
Q 54.109375 15.28125 54.34375 14.9375 
Q 54.59375 14.59375 54.59375 14.3125 
Q 53.515625 10.015625 52.515625 6.9375 
Q 51.515625 3.859375 49.359375 1.359375 
Q 47.21875 -1.125 44 -1.125 
Q 40.828125 -1.125 38.3125 0.609375 
Q 35.796875 2.34375 34.90625 5.328125 
Q 32.625 2.390625 29.59375 0.625 
Q 26.5625 -1.125 23.1875 -1.125 
Q 17.4375 -1.125 14.015625 2.015625 
Q 10.59375 5.171875 10.59375 10.890625 
" id="Cmmi10-75"/>
     <path d="M 4.203125 18.890625 
L 12.984375 20.0625 
Q 14.5 12.59375 18.140625 9.296875 
Q 21.78125 6 27 6 
Q 33.203125 6 37.46875 10.296875 
Q 41.75 14.59375 41.75 20.953125 
Q 41.75 27 37.796875 30.921875 
Q 33.84375 34.859375 27.734375 34.859375 
Q 25.25 34.859375 21.53125 33.890625 
L 22.515625 41.609375 
Q 23.390625 41.5 23.921875 41.5 
Q 29.546875 41.5 34.03125 44.421875 
Q 38.53125 47.359375 38.53125 53.46875 
Q 38.53125 58.296875 35.25 61.46875 
Q 31.984375 64.65625 26.8125 64.65625 
Q 21.6875 64.65625 18.265625 61.421875 
Q 14.84375 58.203125 13.875 51.765625 
L 5.078125 53.328125 
Q 6.6875 62.15625 12.390625 67.015625 
Q 18.109375 71.875 26.609375 71.875 
Q 32.46875 71.875 37.390625 69.359375 
Q 42.328125 66.84375 44.9375 62.5 
Q 47.5625 58.15625 47.5625 53.265625 
Q 47.5625 48.640625 45.0625 44.828125 
Q 42.578125 41.015625 37.703125 38.765625 
Q 44.046875 37.3125 47.5625 32.6875 
Q 51.078125 28.078125 51.078125 21.140625 
Q 51.078125 11.765625 44.234375 5.25 
Q 37.40625 -1.265625 26.953125 -1.265625 
Q 17.53125 -1.265625 11.296875 4.34375 
Q 5.078125 9.96875 4.203125 18.890625 
" id="ArialMT-33"/>
    </defs>
    <g style="fill:#262626;" transform="translate(215.74590844 60.9128)scale(0.096 -0.096)">
     <use transform="translate(0.0 0.125)" xlink:href="#Cmmi10-70"/>
     <use transform="translate(50.29296875 -16.88125)scale(0.7)" xlink:href="#Cmmi10-72"/>
     <use transform="translate(81.875 -16.88125)scale(0.7)" xlink:href="#Cmmi10-61"/>
     <use transform="translate(118.823242188 -16.88125)scale(0.7)" xlink:href="#Cmmi10-6e"/>
     <use transform="translate(160.830078125 -16.88125)scale(0.7)" xlink:href="#Cmmi10-6b"/>
     <use transform="translate(197.231445312 -16.88125)scale(0.7)" xlink:href="#Cmmi10-73"/>
     <use transform="translate(229.975585938 -16.88125)scale(0.7)" xlink:href="#Cmmi10-75"/>
     <use transform="translate(270.0 -16.88125)scale(0.7)" xlink:href="#Cmmi10-6d"/>
     <use transform="translate(337.832421875 0.125)" xlink:href="#ArialMT-20"/>
     <use transform="translate(365.615625 0.125)" xlink:href="#ArialMT-3c"/>
     <use transform="translate(424.0140625 0.125)" xlink:href="#ArialMT-20"/>
     <use transform="translate(451.797265625 0.125)" xlink:href="#ArialMT-30"/>
     <use transform="translate(507.4125 0.125)" xlink:href="#ArialMT-2e"/>
     <use transform="translate(535.195703125 0.125)" xlink:href="#ArialMT-30"/>
     <use transform="translate(590.8109375 0.125)" xlink:href="#ArialMT-30"/>
     <use transform="translate(646.426171875 0.125)" xlink:href="#ArialMT-33"/>
    </g>
   </g>
   <g id="text_22">
    <!-- Measured $K_{\rm S}$ values -->
    <defs>
     <path d="M 5.609375 -1.421875 
L 5.609375 21.921875 
Q 5.609375 22.703125 6.5 22.703125 
L 7.71875 22.703125 
Q 8.015625 22.703125 8.25 22.453125 
Q 8.5 22.21875 8.5 21.921875 
Q 8.5 12.109375 14.578125 6.703125 
Q 20.65625 1.3125 30.515625 1.3125 
Q 33.984375 1.3125 36.90625 3.3125 
Q 39.84375 5.328125 41.46875 8.5625 
Q 43.109375 11.8125 43.109375 15.28125 
Q 43.109375 18.3125 41.890625 21.171875 
Q 40.671875 24.03125 38.375 26.125 
Q 36.078125 28.21875 33.203125 28.90625 
L 20.21875 32.078125 
Q 13.765625 33.796875 9.6875 39.09375 
Q 5.609375 44.390625 5.609375 50.984375 
Q 5.609375 56.15625 8.25 60.6875 
Q 10.890625 65.234375 15.359375 67.875 
Q 19.828125 70.515625 25 70.515625 
Q 35.015625 70.515625 40.921875 63.71875 
L 45.015625 70.21875 
Q 45.3125 70.515625 45.703125 70.515625 
L 46.390625 70.515625 
Q 46.6875 70.515625 46.953125 70.28125 
Q 47.21875 70.0625 47.21875 69.671875 
L 47.21875 46.484375 
Q 47.21875 45.609375 46.390625 45.609375 
L 45.21875 45.609375 
Q 44.28125 45.609375 44.28125 46.484375 
Q 44.28125 49.03125 43.421875 52.046875 
Q 42.578125 55.078125 41.0625 57.859375 
Q 39.546875 60.640625 37.796875 62.40625 
Q 32.953125 67.28125 25 67.28125 
Q 21.578125 67.28125 18.703125 65.546875 
Q 15.828125 63.8125 14.109375 60.828125 
Q 12.40625 57.859375 12.40625 54.59375 
Q 12.40625 50.296875 15.0625 46.796875 
Q 17.71875 43.3125 22.015625 42.1875 
L 35.015625 39.015625 
Q 38.234375 38.234375 41.09375 36.203125 
Q 43.953125 34.1875 45.84375 31.5 
Q 47.75 28.8125 48.828125 25.515625 
Q 49.90625 22.21875 49.90625 18.703125 
Q 49.90625 13.28125 47.40625 8.46875 
Q 44.921875 3.65625 40.40625 0.71875 
Q 35.890625 -2.203125 30.515625 -2.203125 
Q 27.203125 -2.203125 23.734375 -1.46875 
Q 20.265625 -0.734375 17.328125 0.78125 
Q 14.40625 2.296875 12.015625 4.6875 
L 7.8125 -1.90625 
Q 7.515625 -2.203125 7.078125 -2.203125 
L 6.5 -2.203125 
Q 5.609375 -2.203125 5.609375 -1.421875 
" id="Cmr10-53"/>
    </defs>
    <g style="fill:#262626;" transform="translate(238.605873702 19.368)scale(0.096 -0.096)">
     <use transform="translate(0.0 0.421875)" xlink:href="#ArialMT-4d"/>
     <use transform="translate(83.30078125 0.421875)" xlink:href="#ArialMT-65"/>
     <use transform="translate(138.916015625 0.421875)" xlink:href="#ArialMT-61"/>
     <use transform="translate(194.53125 0.421875)" xlink:href="#ArialMT-73"/>
     <use transform="translate(244.53125 0.421875)" xlink:href="#ArialMT-75"/>
     <use transform="translate(300.146484375 0.421875)" xlink:href="#ArialMT-72"/>
     <use transform="translate(333.447265625 0.421875)" xlink:href="#ArialMT-65"/>
     <use transform="translate(389.0625 0.421875)" xlink:href="#ArialMT-64"/>
     <use transform="translate(444.677734375 0.421875)" xlink:href="#ArialMT-20"/>
     <use transform="translate(472.4609375 0.421875)" xlink:href="#Cmmi10-4b"/>
     <use transform="translate(557.373046875 -16.584375)scale(0.7)" xlink:href="#Cmr10-53"/>
     <use transform="translate(602.612695313 0.421875)" xlink:href="#ArialMT-20"/>
     <use transform="translate(630.395898438 0.421875)" xlink:href="#ArialMT-76"/>
     <use transform="translate(680.395898438 0.421875)" xlink:href="#ArialMT-61"/>
     <use transform="translate(736.011132813 0.421875)" xlink:href="#ArialMT-6c"/>
     <use transform="translate(758.227929688 0.421875)" xlink:href="#ArialMT-75"/>
     <use transform="translate(813.843164063 0.421875)" xlink:href="#ArialMT-65"/>
     <use transform="translate(869.458398438 0.421875)" xlink:href="#ArialMT-73"/>
    </g>
   </g>
   <g id="legend_1">
    <g id="line2d_48">
     <path d="M 215.499246 34.59175 
L 231.499246 34.59175 
" style="fill:none;stroke:#3eaf76;stroke-linecap:round;stroke-width:2.0;"/>
    </g>
    <g id="line2d_49"/>
    <g id="text_23">
     <!-- substrates (N = 202) -->
     <defs>
      <path d="M 52.828125 42.09375 
L 5.5625 42.09375 
L 5.5625 50.296875 
L 52.828125 50.296875 
z
M 52.828125 20.359375 
L 5.5625 20.359375 
L 5.5625 28.5625 
L 52.828125 28.5625 
z
" id="ArialMT-3d"/>
      <path d="M 7.625 0 
L 7.625 71.578125 
L 17.328125 71.578125 
L 54.9375 15.375 
L 54.9375 71.578125 
L 64.015625 71.578125 
L 64.015625 0 
L 54.296875 0 
L 16.703125 56.25 
L 16.703125 0 
z
" id="ArialMT-4e"/>
     </defs>
     <g style="fill:#262626;" transform="translate(237.899245634 37.39175)scale(0.08 -0.08)">
      <use xlink:href="#ArialMT-73"/>
      <use x="50.0" xlink:href="#ArialMT-75"/>
      <use x="105.615234375" xlink:href="#ArialMT-62"/>
      <use x="161.23046875" xlink:href="#ArialMT-73"/>
      <use x="211.23046875" xlink:href="#ArialMT-74"/>
      <use x="239.013671875" xlink:href="#ArialMT-72"/>
      <use x="272.314453125" xlink:href="#ArialMT-61"/>
      <use x="327.9296875" xlink:href="#ArialMT-74"/>
      <use x="355.712890625" xlink:href="#ArialMT-65"/>
      <use x="411.328125" xlink:href="#ArialMT-73"/>
      <use x="461.328125" xlink:href="#ArialMT-20"/>
      <use x="489.111328125" xlink:href="#ArialMT-28"/>
      <use x="522.412109375" xlink:href="#ArialMT-4e"/>
      <use x="594.62890625" xlink:href="#ArialMT-20"/>
      <use x="622.412109375" xlink:href="#ArialMT-3d"/>
      <use x="680.810546875" xlink:href="#ArialMT-20"/>
      <use x="708.59375" xlink:href="#ArialMT-32"/>
      <use x="764.208984375" xlink:href="#ArialMT-30"/>
      <use x="819.82421875" xlink:href="#ArialMT-32"/>
      <use x="875.439453125" xlink:href="#ArialMT-29"/>
     </g>
    </g>
    <g id="line2d_50">
     <path d="M 215.499246 46.09925 
L 231.499246 46.09925 
" style="fill:none;stroke:#fe86a4;stroke-linecap:round;stroke-width:2.0;"/>
    </g>
    <g id="line2d_51"/>
    <g id="text_24">
     <!-- inhibitors (N = 51) -->
     <defs>
      <path d="M 6.59375 0 
L 6.59375 71.578125 
L 15.375 71.578125 
L 15.375 45.90625 
Q 21.53125 53.03125 30.90625 53.03125 
Q 36.671875 53.03125 40.921875 50.75 
Q 45.171875 48.484375 47 44.484375 
Q 48.828125 40.484375 48.828125 32.859375 
L 48.828125 0 
L 40.046875 0 
L 40.046875 32.859375 
Q 40.046875 39.453125 37.1875 42.453125 
Q 34.328125 45.453125 29.109375 45.453125 
Q 25.203125 45.453125 21.75 43.421875 
Q 18.3125 41.40625 16.84375 37.9375 
Q 15.375 34.46875 15.375 28.375 
L 15.375 0 
z
" id="ArialMT-68"/>
      <path d="M 4.15625 18.75 
L 13.375 19.53125 
Q 14.40625 12.796875 18.140625 9.390625 
Q 21.875 6 27.15625 6 
Q 33.5 6 37.890625 10.78125 
Q 42.28125 15.578125 42.28125 23.484375 
Q 42.28125 31 38.0625 35.34375 
Q 33.84375 39.703125 27 39.703125 
Q 22.75 39.703125 19.328125 37.765625 
Q 15.921875 35.84375 13.96875 32.765625 
L 5.71875 33.84375 
L 12.640625 70.609375 
L 48.25 70.609375 
L 48.25 62.203125 
L 19.671875 62.203125 
L 15.828125 42.96875 
Q 22.265625 47.46875 29.34375 47.46875 
Q 38.71875 47.46875 45.15625 40.96875 
Q 51.609375 34.46875 51.609375 24.265625 
Q 51.609375 14.546875 45.953125 7.46875 
Q 39.0625 -1.21875 27.15625 -1.21875 
Q 17.390625 -1.21875 11.203125 4.25 
Q 5.03125 9.71875 4.15625 18.75 
" id="ArialMT-35"/>
     </defs>
     <g style="fill:#262626;" transform="translate(237.899245634 48.89925)scale(0.08 -0.08)">
      <use xlink:href="#ArialMT-69"/>
      <use x="22.216796875" xlink:href="#ArialMT-6e"/>
      <use x="77.83203125" xlink:href="#ArialMT-68"/>
      <use x="133.447265625" xlink:href="#ArialMT-69"/>
      <use x="155.6640625" xlink:href="#ArialMT-62"/>
      <use x="211.279296875" xlink:href="#ArialMT-69"/>
      <use x="233.49609375" xlink:href="#ArialMT-74"/>
      <use x="261.279296875" xlink:href="#ArialMT-6f"/>
      <use x="316.89453125" xlink:href="#ArialMT-72"/>
      <use x="350.1953125" xlink:href="#ArialMT-73"/>
      <use x="400.1953125" xlink:href="#ArialMT-20"/>
      <use x="427.978515625" xlink:href="#ArialMT-28"/>
      <use x="461.279296875" xlink:href="#ArialMT-4e"/>
      <use x="533.49609375" xlink:href="#ArialMT-20"/>
      <use x="561.279296875" xlink:href="#ArialMT-3d"/>
      <use x="619.677734375" xlink:href="#ArialMT-20"/>
      <use x="647.4609375" xlink:href="#ArialMT-35"/>
      <use x="703.076171875" xlink:href="#ArialMT-31"/>
      <use x="758.69140625" xlink:href="#ArialMT-29"/>
     </g>
    </g>
   </g>
  </g>
  <g id="axes_3">
   <g id="patch_12">
    <path d="M 376.392991 172.532 
L 525.326247 172.532 
L 525.326247 24.368 
L 376.392991 24.368 
z
" style="fill:#ffffff;"/>
   </g>
   <g id="matplotlib.axis_5">
    <g id="xtick_11">
     <g id="line2d_52"/>
     <g id="line2d_53"/>
     <g id="text_25">
      <!-- 0.0 -->
      <g style="fill:#262626;" transform="translate(372.293121229 183.85825)scale(0.08 -0.08)">
       <use xlink:href="#ArialMT-30"/>
       <use x="55.615234375" xlink:href="#ArialMT-2e"/>
       <use x="83.3984375" xlink:href="#ArialMT-30"/>
      </g>
     </g>
    </g>
    <g id="xtick_12">
     <g id="line2d_54"/>
     <g id="line2d_55"/>
     <g id="text_26">
      <!-- 0.2 -->
      <g style="fill:#262626;" transform="translate(401.495720472 183.85825)scale(0.08 -0.08)">
       <use xlink:href="#ArialMT-30"/>
       <use x="55.615234375" xlink:href="#ArialMT-2e"/>
       <use x="83.3984375" xlink:href="#ArialMT-32"/>
      </g>
     </g>
    </g>
    <g id="xtick_13">
     <g id="line2d_56"/>
     <g id="line2d_57"/>
     <g id="text_27">
      <!-- 0.4 -->
      <g style="fill:#262626;" transform="translate(430.698319715 183.85825)scale(0.08 -0.08)">
       <use xlink:href="#ArialMT-30"/>
       <use x="55.615234375" xlink:href="#ArialMT-2e"/>
       <use x="83.3984375" xlink:href="#ArialMT-34"/>
      </g>
     </g>
    </g>
    <g id="xtick_14">
     <g id="line2d_58"/>
     <g id="line2d_59"/>
     <g id="text_28">
      <!-- 0.6 -->
      <g style="fill:#262626;" transform="translate(459.900918957 183.85825)scale(0.08 -0.08)">
       <use xlink:href="#ArialMT-30"/>
       <use x="55.615234375" xlink:href="#ArialMT-2e"/>
       <use x="83.3984375" xlink:href="#ArialMT-36"/>
      </g>
     </g>
    </g>
    <g id="xtick_15">
     <g id="line2d_60"/>
     <g id="line2d_61"/>
     <g id="text_29">
      <!-- 0.8 -->
      <g style="fill:#262626;" transform="translate(489.1035182 183.85825)scale(0.08 -0.08)">
       <use xlink:href="#ArialMT-30"/>
       <use x="55.615234375" xlink:href="#ArialMT-2e"/>
       <use x="83.3984375" xlink:href="#ArialMT-38"/>
      </g>
     </g>
    </g>
    <g id="xtick_16">
     <g id="line2d_62"/>
     <g id="line2d_63"/>
     <g id="text_30">
      <!-- 1.0 -->
      <g style="fill:#262626;" transform="translate(518.306117443 183.85825)scale(0.08 -0.08)">
       <use xlink:href="#ArialMT-31"/>
       <use x="55.615234375" xlink:href="#ArialMT-2e"/>
       <use x="83.3984375" xlink:href="#ArialMT-30"/>
      </g>
     </g>
    </g>
    <g id="text_31">
     <!-- $[S]/\left([S] + K_S\right)$ -->
     <defs>
      <path d="M 31 -24.8125 
Q 25.4375 -20.40625 21.40625 -14.71875 
Q 17.390625 -9.03125 14.8125 -2.578125 
Q 12.25 3.859375 10.984375 10.890625 
Q 9.71875 17.921875 9.71875 25 
Q 9.71875 32.171875 10.984375 39.203125 
Q 12.25 46.234375 14.859375 52.734375 
Q 17.484375 59.234375 21.53125 64.890625 
Q 25.59375 70.5625 31 74.8125 
Q 31 75 31.5 75 
L 32.421875 75 
Q 32.71875 75 32.953125 74.734375 
Q 33.203125 74.46875 33.203125 74.125 
Q 33.203125 73.6875 33.015625 73.484375 
Q 28.125 68.703125 24.875 63.234375 
Q 21.625 57.765625 19.640625 51.578125 
Q 17.671875 45.40625 16.796875 38.78125 
Q 15.921875 32.171875 15.921875 25 
Q 15.921875 -6.78125 32.90625 -23.296875 
Q 33.203125 -23.578125 33.203125 -24.125 
Q 33.203125 -24.359375 32.9375 -24.671875 
Q 32.671875 -25 32.421875 -25 
L 31.5 -25 
Q 31 -25 31 -24.8125 
" id="Cmr10-28"/>
      <path d="M 6.5 -25 
Q 5.609375 -25 5.609375 -24.125 
Q 5.609375 -23.6875 5.8125 -23.484375 
Q 22.90625 -6.78125 22.90625 25 
Q 22.90625 56.78125 6 73.296875 
Q 5.609375 73.53125 5.609375 74.125 
Q 5.609375 74.46875 5.875 74.734375 
Q 6.15625 75 6.5 75 
L 7.421875 75 
Q 7.71875 75 7.90625 74.8125 
Q 15.09375 69.140625 19.875 61.03125 
Q 24.65625 52.9375 26.875 43.75 
Q 29.109375 34.578125 29.109375 25 
Q 29.109375 17.921875 27.90625 11.0625 
Q 26.703125 4.203125 24.09375 -2.453125 
Q 21.484375 -9.125 17.484375 -14.765625 
Q 13.484375 -20.40625 7.90625 -24.8125 
Q 7.71875 -25 7.421875 -25 
z
" id="Cmr10-29"/>
      <path d="M 5.609375 -23 
Q 5.609375 -22.703125 5.71875 -22.609375 
L 40.484375 73.78125 
Q 40.671875 74.359375 41.15625 74.671875 
Q 41.65625 75 42.28125 75 
Q 43.171875 75 43.71875 74.453125 
Q 44.28125 73.921875 44.28125 73 
L 44.28125 72.609375 
L 9.515625 -23.78125 
Q 8.9375 -25 7.625 -25 
Q 6.78125 -25 6.1875 -24.40625 
Q 5.609375 -23.828125 5.609375 -23 
" id="Cmmi10-3d"/>
      <path d="M 7.515625 23 
Q 6.6875 23 6.140625 23.625 
Q 5.609375 24.265625 5.609375 25 
Q 5.609375 25.734375 6.140625 26.359375 
Q 6.6875 27 7.515625 27 
L 36.921875 27 
L 36.921875 56.5 
Q 36.921875 57.28125 37.5 57.78125 
Q 38.09375 58.296875 38.921875 58.296875 
Q 39.65625 58.296875 40.28125 57.78125 
Q 40.921875 57.28125 40.921875 56.5 
L 40.921875 27 
L 70.3125 27 
Q 71.046875 27 71.578125 26.359375 
Q 72.125 25.734375 72.125 25 
Q 72.125 24.265625 71.578125 23.625 
Q 71.046875 23 70.3125 23 
L 40.921875 23 
L 40.921875 -6.5 
Q 40.921875 -7.28125 40.28125 -7.78125 
Q 39.65625 -8.296875 38.921875 -8.296875 
Q 38.09375 -8.296875 37.5 -7.78125 
Q 36.921875 -7.28125 36.921875 -6.5 
L 36.921875 23 
z
" id="Cmr10-2b"/>
     </defs>
     <g style="fill:#262626;" transform="translate(424.107619336 197.04825)scale(0.088 -0.088)">
      <use xlink:href="#Cmr10-5b"/>
      <use transform="translate(27.685546875 0.0)" xlink:href="#Cmmi10-53"/>
      <use transform="translate(88.96484375 0.0)" xlink:href="#Cmr10-5d"/>
      <use transform="translate(116.650390625 0.0)" xlink:href="#Cmmi10-3d"/>
      <use transform="translate(166.650390625 0.0)" xlink:href="#Cmr10-28"/>
      <use transform="translate(205.46875 0.0)" xlink:href="#Cmr10-5b"/>
      <use transform="translate(233.154296875 0.0)" xlink:href="#Cmmi10-53"/>
      <use transform="translate(294.43359375 0.0)" xlink:href="#Cmr10-5d"/>
      <use transform="translate(339.677734375 0.0)" xlink:href="#Cmr10-2b"/>
      <use transform="translate(434.921875 0.0)" xlink:href="#Cmmi10-4b"/>
      <use transform="translate(519.833984375 -17.00625)scale(0.7)" xlink:href="#Cmmi10-53"/>
      <use transform="translate(569.106835938 0.0)" xlink:href="#Cmr10-29"/>
     </g>
    </g>
   </g>
   <g id="matplotlib.axis_6">
    <g id="ytick_13">
     <g id="line2d_64"/>
     <g id="line2d_65"/>
    </g>
    <g id="ytick_14">
     <g id="line2d_66"/>
     <g id="line2d_67"/>
    </g>
    <g id="ytick_15">
     <g id="line2d_68"/>
     <g id="line2d_69"/>
    </g>
    <g id="ytick_16">
     <g id="line2d_70"/>
     <g id="line2d_71"/>
    </g>
    <g id="ytick_17">
     <g id="line2d_72"/>
     <g id="line2d_73"/>
    </g>
    <g id="ytick_18">
     <g id="line2d_74"/>
     <g id="line2d_75"/>
    </g>
   </g>
   <g id="line2d_76">
    <path clip-path="url(#p4e51056f36)" d="M 374.963591 172.531862 
L 378.584418 172.476911 
L 380.998302 172.141605 
L 383.412187 171.436216 
L 387.033014 169.887801 
L 390.65384 168.362772 
L 394.274667 167.155607 
L 399.102436 165.942651 
L 402.723263 164.693609 
L 409.964916 162.420787 
L 412.378801 161.875072 
L 414.792685 161.469707 
L 417.20657 160.767965 
L 420.827396 159.596772 
L 425.655165 158.373094 
L 429.275992 157.466382 
L 434.103761 155.661348 
L 436.517646 154.854895 
L 442.552357 152.395675 
L 452.207895 147.812671 
L 455.828721 146.304404 
L 458.242606 145.200634 
L 469.105086 141.183028 
L 471.51897 140.436726 
L 473.932855 139.362713 
L 487.20922 131.768006 
L 488.416162 130.781699 
L 492.036989 127.449319 
L 494.450873 125.557473 
L 496.864758 123.298857 
L 500.485584 119.57641 
L 502.899469 116.669918 
L 505.313353 113.279391 
L 506.520295 111.258447 
L 508.93418 106.574417 
L 511.348064 101.312864 
L 512.555007 98.317584 
L 513.761949 94.876444 
L 514.968891 90.891333 
L 516.175833 86.196877 
L 517.382776 80.535157 
L 518.589718 73.742596 
L 519.79666 65.771653 
L 521.003602 56.451538 
L 523.417487 35.556769 
L 524.624429 28.417042 
L 525.831371 25.29097 
L 527.038314 24.491528 
L 528.245256 24.377266 
L 528.245256 24.377266 
" style="fill:none;stroke:#3eaf76;stroke-linecap:round;stroke-width:2.0;"/>
   </g>
   <g id="line2d_77">
    <path clip-path="url(#p4e51056f36)" d="M 374.323907 172.529609 
L 375.53586 172.501158 
L 376.747813 172.309729 
L 377.959766 171.596538 
L 379.171718 170.065291 
L 381.595624 165.746603 
L 384.019529 160.712986 
L 385.231482 158.193892 
L 386.443435 156.209759 
L 387.655388 154.660972 
L 388.86734 153.330261 
L 391.291246 151.191644 
L 394.927104 148.14812 
L 397.35101 146.134952 
L 400.986868 142.917201 
L 405.834679 139.670738 
L 408.258584 137.865087 
L 410.68249 136.551095 
L 413.106395 135.310974 
L 414.318348 134.83249 
L 416.742254 134.315192 
L 419.166159 133.90675 
L 420.378112 133.465972 
L 421.590065 132.81998 
L 424.01397 131.206212 
L 425.225923 130.554969 
L 427.649828 129.501011 
L 433.709592 126.34929 
L 440.981308 121.249927 
L 444.617167 117.937552 
L 445.829119 117.182493 
L 449.464978 115.429034 
L 450.67693 114.68927 
L 451.888883 113.791471 
L 455.524741 110.618449 
L 456.736694 109.716665 
L 457.948647 108.612621 
L 461.584505 104.474059 
L 462.796458 103.638635 
L 467.644269 101.130125 
L 470.068174 100.088679 
L 471.280127 99.348388 
L 472.49208 98.229397 
L 476.127938 93.66749 
L 477.339891 92.574538 
L 479.763796 90.743894 
L 483.399654 88.172459 
L 485.82356 86.012609 
L 488.247465 83.281142 
L 489.459418 82.166076 
L 490.671371 81.445762 
L 494.307229 80.109666 
L 496.731135 78.358991 
L 500.366993 75.424954 
L 501.578946 74.307199 
L 502.790898 73.010447 
L 506.426757 68.354054 
L 508.850662 64.993221 
L 513.698473 57.386054 
L 514.910426 55.415427 
L 516.122379 53.663576 
L 519.758237 49.139778 
L 520.97019 46.170763 
L 522.182142 40.677388 
L 523.394095 33.61885 
L 524.606048 27.952408 
L 525.818001 25.238527 
L 527.029953 24.492024 
L 528.241906 24.377882 
L 528.241906 24.377882 
" style="fill:none;stroke:#fe86a4;stroke-linecap:round;stroke-width:2.0;"/>
   </g>
   <g id="line2d_78">
    <path clip-path="url(#p4e51056f36)" d="M 407.05572 172.532 
L 407.05572 138.992388 
" style="fill:none;stroke:#000000;stroke-dasharray:6.000000,6.000000;stroke-dashoffset:0.0;stroke-width:1.4;"/>
   </g>
   <g id="line2d_79">
    <path clip-path="url(#p4e51056f36)" d="M 494.663518 172.532 
L 494.663518 80.390209 
" style="fill:none;stroke:#000000;stroke-dasharray:6.000000,6.000000;stroke-dashoffset:0.0;stroke-width:1.4;"/>
   </g>
   <g id="line2d_80">
    <path clip-path="url(#p4e51056f36)" d="M 523.866117 163.294843 
L 407.05572 163.294843 
" style="fill:none;stroke:#3eaf76;stroke-dasharray:6.000000,6.000000;stroke-dashoffset:0.0;stroke-width:1.4;"/>
   </g>
   <g id="line2d_81">
    <path clip-path="url(#p4e51056f36)" d="M 523.866117 125.422499 
L 494.663518 125.422499 
" style="fill:none;stroke:#3eaf76;stroke-dasharray:6.000000,6.000000;stroke-dashoffset:0.0;stroke-width:1.4;"/>
   </g>
   <g id="line2d_82">
    <path clip-path="url(#p4e51056f36)" d="M 377.853121 138.992388 
L 407.05572 138.992388 
" style="fill:none;stroke:#fe86a4;stroke-dasharray:6.000000,6.000000;stroke-dashoffset:0.0;stroke-width:1.4;"/>
   </g>
   <g id="line2d_83">
    <path clip-path="url(#p4e51056f36)" d="M 377.853121 80.390209 
L 494.663518 80.390209 
" style="fill:none;stroke:#fe86a4;stroke-dasharray:6.000000,6.000000;stroke-dashoffset:0.0;stroke-width:1.4;"/>
   </g>
   <g id="patch_13">
    <path d="M 376.392991 24.368 
L 525.326247 24.368 
" style="fill:none;stroke:#262626;stroke-linecap:square;stroke-linejoin:miter;stroke-width:1.25;"/>
   </g>
   <g id="patch_14">
    <path d="M 525.326247 172.532 
L 525.326247 24.368 
" style="fill:none;stroke:#262626;stroke-linecap:square;stroke-linejoin:miter;stroke-width:1.25;"/>
   </g>
   <g id="patch_15">
    <path d="M 376.392991 172.532 
L 525.326247 172.532 
" style="fill:none;stroke:#262626;stroke-linecap:square;stroke-linejoin:miter;stroke-width:1.25;"/>
   </g>
   <g id="patch_16">
    <path d="M 376.392991 172.532 
L 376.392991 24.368 
" style="fill:none;stroke:#262626;stroke-linecap:square;stroke-linejoin:miter;stroke-width:1.25;"/>
   </g>
   <g id="patch_17">
    <path d="M 383.653771 138.992388 
Q 383.653771 115.691369 383.653771 92.39035 
L 379.153771 92.39035 
Q 382.153771 86.390279 385.153771 80.390209 
Q 388.153771 86.390279 391.153771 92.39035 
L 386.653771 92.39035 
Q 386.653771 115.691369 386.653771 138.992388 
L 383.653771 138.992388 
z
" style="fill:#fe86a4;stroke:#000000;stroke-linecap:round;stroke-width:0.24;"/>
   </g>
   <g id="patch_18">
    <path d="M 500.464168 163.294843 
Q 500.464168 150.357129 500.464168 137.419414 
L 495.964168 137.419414 
Q 498.964168 131.420957 501.964168 125.422499 
Q 504.964168 131.420957 507.964168 137.419414 
L 503.464168 137.419414 
Q 503.464168 150.357129 503.464168 163.294843 
L 500.464168 163.294843 
z
" style="fill:#3eaf76;stroke:#000000;stroke-linecap:round;stroke-width:0.24;"/>
   </g>
   <g id="text_32">
    <!-- 26% -->
    <defs>
     <path d="M 5.8125 54.390625 
Q 5.8125 62.0625 9.671875 67.421875 
Q 13.53125 72.796875 20.84375 72.796875 
Q 27.59375 72.796875 32 67.984375 
Q 36.421875 63.1875 36.421875 53.859375 
Q 36.421875 44.78125 31.953125 39.875 
Q 27.484375 34.96875 20.953125 34.96875 
Q 14.453125 34.96875 10.125 39.796875 
Q 5.8125 44.625 5.8125 54.390625 
M 21.09375 66.75 
Q 17.828125 66.75 15.65625 63.90625 
Q 13.484375 61.078125 13.484375 53.515625 
Q 13.484375 46.625 15.671875 43.8125 
Q 17.875 41.015625 21.09375 41.015625 
Q 24.421875 41.015625 26.59375 43.84375 
Q 28.765625 46.6875 28.765625 54.203125 
Q 28.765625 61.140625 26.5625 63.9375 
Q 24.359375 66.75 21.09375 66.75 
M 21.140625 -2.640625 
L 60.296875 72.796875 
L 67.4375 72.796875 
L 28.421875 -2.640625 
z
M 52.09375 16.796875 
Q 52.09375 24.515625 55.953125 29.859375 
Q 59.8125 35.203125 67.1875 35.203125 
Q 73.921875 35.203125 78.34375 30.390625 
Q 82.765625 25.59375 82.765625 16.265625 
Q 82.765625 7.171875 78.296875 2.265625 
Q 73.828125 -2.640625 67.234375 -2.640625 
Q 60.75 -2.640625 56.421875 2.21875 
Q 52.09375 7.078125 52.09375 16.796875 
M 67.4375 29.15625 
Q 64.109375 29.15625 61.9375 26.3125 
Q 59.765625 23.484375 59.765625 15.921875 
Q 59.765625 9.078125 61.953125 6.25 
Q 64.15625 3.421875 67.390625 3.421875 
Q 70.75 3.421875 72.921875 6.25 
Q 75.09375 9.078125 75.09375 16.609375 
Q 75.09375 23.53125 72.890625 26.34375 
Q 70.703125 29.15625 67.4375 29.15625 
" id="ArialMT-25"/>
    </defs>
    <g style="fill:#3eaf76;" transform="translate(510.432921791 149.7707)scale(0.096 -0.096)">
     <use xlink:href="#ArialMT-32"/>
     <use x="55.615234375" xlink:href="#ArialMT-36"/>
     <use x="111.23046875" xlink:href="#ArialMT-25"/>
    </g>
   </g>
   <g id="text_33">
    <!-- 40% -->
    <g style="fill:#fe86a4;" transform="translate(391.286316881 120.1379)scale(0.096 -0.096)">
     <use xlink:href="#ArialMT-34"/>
     <use x="55.615234375" xlink:href="#ArialMT-30"/>
     <use x="111.23046875" xlink:href="#ArialMT-25"/>
    </g>
   </g>
   <g id="text_34">
    <!-- $p_{ranksum}$ &lt; 10$^{-27}$ -->
    <defs>
     <path d="M 4.984375 0 
L 4.984375 2.6875 
Q 4.984375 2.9375 5.171875 3.21875 
L 20.703125 20.40625 
Q 24.21875 24.21875 26.40625 26.796875 
Q 28.609375 29.390625 30.75 32.765625 
Q 32.90625 36.140625 34.15625 39.625 
Q 35.40625 43.109375 35.40625 47.015625 
Q 35.40625 51.125 33.890625 54.859375 
Q 32.375 58.59375 29.375 60.84375 
Q 26.375 63.09375 22.125 63.09375 
Q 17.78125 63.09375 14.3125 60.46875 
Q 10.84375 57.859375 9.421875 53.71875 
Q 9.8125 53.8125 10.5 53.8125 
Q 12.75 53.8125 14.328125 52.296875 
Q 15.921875 50.78125 15.921875 48.390625 
Q 15.921875 46.09375 14.328125 44.5 
Q 12.75 42.921875 10.5 42.921875 
Q 8.15625 42.921875 6.5625 44.546875 
Q 4.984375 46.1875 4.984375 48.390625 
Q 4.984375 52.15625 6.390625 55.4375 
Q 7.8125 58.734375 10.46875 61.296875 
Q 13.140625 63.875 16.484375 65.234375 
Q 19.828125 66.609375 23.578125 66.609375 
Q 29.296875 66.609375 34.21875 64.1875 
Q 39.15625 61.765625 42.03125 57.34375 
Q 44.921875 52.9375 44.921875 47.015625 
Q 44.921875 42.671875 43.015625 38.765625 
Q 41.109375 34.859375 38.125 31.65625 
Q 35.15625 28.46875 30.515625 24.40625 
Q 25.875 20.359375 24.421875 19 
L 13.09375 8.109375 
L 22.703125 8.109375 
Q 29.78125 8.109375 34.546875 8.21875 
Q 39.3125 8.34375 39.59375 8.59375 
Q 40.765625 9.859375 42 17.828125 
L 44.921875 17.828125 
L 42.09375 0 
z
" id="Cmr10-32"/>
     <path d="M 10.203125 23 
Q 9.375 23 8.828125 23.625 
Q 8.296875 24.265625 8.296875 25 
Q 8.296875 25.734375 8.828125 26.359375 
Q 9.375 27 10.203125 27 
L 67.578125 27 
Q 68.359375 27 68.875 26.359375 
Q 69.390625 25.734375 69.390625 25 
Q 69.390625 24.265625 68.875 23.625 
Q 68.359375 23 67.578125 23 
z
" id="Cmsy10-a1"/>
     <path d="M 17.390625 2.59375 
Q 17.390625 8.15625 18.359375 13.46875 
Q 19.34375 18.796875 21.21875 24 
Q 23.09375 29.203125 25.75 34.203125 
Q 28.421875 39.203125 31.59375 43.609375 
L 40.71875 56.296875 
L 29.296875 56.296875 
Q 11.53125 56.296875 10.984375 55.8125 
Q 9.671875 54.203125 8.5 46.578125 
L 5.609375 46.578125 
L 8.890625 67.578125 
L 11.8125 67.578125 
L 11.8125 67.28125 
Q 11.8125 65.484375 17.921875 64.9375 
Q 24.03125 64.40625 29.890625 64.40625 
L 48.484375 64.40625 
L 48.484375 61.8125 
Q 48.484375 61.71875 48.453125 61.671875 
Q 48.4375 61.625 48.390625 61.53125 
L 34.625 42.1875 
Q 29.546875 34.671875 28.265625 25.484375 
Q 27 16.3125 27 2.59375 
Q 27 0.640625 25.578125 -0.78125 
Q 24.171875 -2.203125 22.21875 -2.203125 
Q 20.21875 -2.203125 18.796875 -0.78125 
Q 17.390625 0.640625 17.390625 2.59375 
" id="Cmr10-37"/>
    </defs>
    <g style="fill:#262626;" transform="translate(383.839654074 62.2568)scale(0.096 -0.096)">
     <use transform="translate(0.0 0.43125)" xlink:href="#Cmmi10-70"/>
     <use transform="translate(50.29296875 -16.575)scale(0.7)" xlink:href="#Cmmi10-72"/>
     <use transform="translate(81.875 -16.575)scale(0.7)" xlink:href="#Cmmi10-61"/>
     <use transform="translate(118.823242188 -16.575)scale(0.7)" xlink:href="#Cmmi10-6e"/>
     <use transform="translate(160.830078125 -16.575)scale(0.7)" xlink:href="#Cmmi10-6b"/>
     <use transform="translate(197.231445312 -16.575)scale(0.7)" xlink:href="#Cmmi10-73"/>
     <use transform="translate(229.975585938 -16.575)scale(0.7)" xlink:href="#Cmmi10-75"/>
     <use transform="translate(270.0 -16.575)scale(0.7)" xlink:href="#Cmmi10-6d"/>
     <use transform="translate(337.832421875 0.43125)" xlink:href="#ArialMT-20"/>
     <use transform="translate(365.615625 0.43125)" xlink:href="#ArialMT-3c"/>
     <use transform="translate(424.0140625 0.43125)" xlink:href="#ArialMT-20"/>
     <use transform="translate(451.797265625 0.43125)" xlink:href="#ArialMT-31"/>
     <use transform="translate(507.4125 0.43125)" xlink:href="#ArialMT-30"/>
     <use transform="translate(567.491875 38.6953125)scale(0.7)" xlink:href="#Cmsy10-a1"/>
     <use transform="translate(621.871757813 38.6953125)scale(0.7)" xlink:href="#Cmr10-32"/>
     <use transform="translate(656.871757813 38.6953125)scale(0.7)" xlink:href="#Cmr10-37"/>
    </g>
   </g>
   <g id="text_35">
    <!-- Saturation levels -->
    <defs>
     <path d="M 4.5 23 
L 13.421875 23.78125 
Q 14.0625 18.40625 16.375 14.96875 
Q 18.703125 11.53125 23.578125 9.40625 
Q 28.46875 7.28125 34.578125 7.28125 
Q 39.984375 7.28125 44.140625 8.890625 
Q 48.296875 10.5 50.3125 13.296875 
Q 52.34375 16.109375 52.34375 19.4375 
Q 52.34375 22.796875 50.390625 25.3125 
Q 48.4375 27.828125 43.953125 29.546875 
Q 41.0625 30.671875 31.203125 33.03125 
Q 21.34375 35.40625 17.390625 37.5 
Q 12.25 40.1875 9.734375 44.15625 
Q 7.234375 48.140625 7.234375 53.078125 
Q 7.234375 58.5 10.296875 63.203125 
Q 13.375 67.921875 19.28125 70.359375 
Q 25.203125 72.796875 32.421875 72.796875 
Q 40.375 72.796875 46.453125 70.234375 
Q 52.546875 67.671875 55.8125 62.6875 
Q 59.078125 57.71875 59.328125 51.421875 
L 50.25 50.734375 
Q 49.515625 57.515625 45.28125 60.984375 
Q 41.0625 64.453125 32.8125 64.453125 
Q 24.21875 64.453125 20.28125 61.296875 
Q 16.359375 58.15625 16.359375 53.71875 
Q 16.359375 49.859375 19.140625 47.359375 
Q 21.875 44.875 33.421875 42.265625 
Q 44.96875 39.65625 49.265625 37.703125 
Q 55.515625 34.8125 58.484375 30.390625 
Q 61.46875 25.984375 61.46875 20.21875 
Q 61.46875 14.5 58.203125 9.4375 
Q 54.9375 4.390625 48.796875 1.578125 
Q 42.671875 -1.21875 35.015625 -1.21875 
Q 25.296875 -1.21875 18.71875 1.609375 
Q 12.15625 4.4375 8.421875 10.125 
Q 4.6875 15.828125 4.5 23 
" id="ArialMT-53"/>
    </defs>
    <g style="fill:#262626;" transform="translate(415.374869336 19.368)scale(0.096 -0.096)">
     <use xlink:href="#ArialMT-53"/>
     <use x="66.69921875" xlink:href="#ArialMT-61"/>
     <use x="122.314453125" xlink:href="#ArialMT-74"/>
     <use x="150.09765625" xlink:href="#ArialMT-75"/>
     <use x="205.712890625" xlink:href="#ArialMT-72"/>
     <use x="239.013671875" xlink:href="#ArialMT-61"/>
     <use x="294.62890625" xlink:href="#ArialMT-74"/>
     <use x="322.412109375" xlink:href="#ArialMT-69"/>
     <use x="344.62890625" xlink:href="#ArialMT-6f"/>
     <use x="400.244140625" xlink:href="#ArialMT-6e"/>
     <use x="455.859375" xlink:href="#ArialMT-20"/>
     <use x="483.642578125" xlink:href="#ArialMT-6c"/>
     <use x="505.859375" xlink:href="#ArialMT-65"/>
     <use x="561.474609375" xlink:href="#ArialMT-76"/>
     <use x="611.474609375" xlink:href="#ArialMT-65"/>
     <use x="667.08984375" xlink:href="#ArialMT-6c"/>
     <use x="689.306640625" xlink:href="#ArialMT-73"/>
    </g>
   </g>
   <g id="legend_2">
    <g id="line2d_84">
     <path d="M 383.592991 34.59175 
L 399.592991 34.59175 
" style="fill:none;stroke:#3eaf76;stroke-linecap:round;stroke-width:2.0;"/>
    </g>
    <g id="line2d_85"/>
    <g id="text_36">
     <!-- substrates (N = 1604) -->
     <g style="fill:#262626;" transform="translate(405.992991267 37.39175)scale(0.08 -0.08)">
      <use xlink:href="#ArialMT-73"/>
      <use x="50.0" xlink:href="#ArialMT-75"/>
      <use x="105.615234375" xlink:href="#ArialMT-62"/>
      <use x="161.23046875" xlink:href="#ArialMT-73"/>
      <use x="211.23046875" xlink:href="#ArialMT-74"/>
      <use x="239.013671875" xlink:href="#ArialMT-72"/>
      <use x="272.314453125" xlink:href="#ArialMT-61"/>
      <use x="327.9296875" xlink:href="#ArialMT-74"/>
      <use x="355.712890625" xlink:href="#ArialMT-65"/>
      <use x="411.328125" xlink:href="#ArialMT-73"/>
      <use x="461.328125" xlink:href="#ArialMT-20"/>
      <use x="489.111328125" xlink:href="#ArialMT-28"/>
      <use x="522.412109375" xlink:href="#ArialMT-4e"/>
      <use x="594.62890625" xlink:href="#ArialMT-20"/>
      <use x="622.412109375" xlink:href="#ArialMT-3d"/>
      <use x="680.810546875" xlink:href="#ArialMT-20"/>
      <use x="708.59375" xlink:href="#ArialMT-31"/>
      <use x="764.208984375" xlink:href="#ArialMT-36"/>
      <use x="819.82421875" xlink:href="#ArialMT-30"/>
      <use x="875.439453125" xlink:href="#ArialMT-34"/>
      <use x="931.0546875" xlink:href="#ArialMT-29"/>
     </g>
    </g>
    <g id="line2d_86">
     <path d="M 383.592991 46.09925 
L 399.592991 46.09925 
" style="fill:none;stroke:#fe86a4;stroke-linecap:round;stroke-width:2.0;"/>
    </g>
    <g id="line2d_87"/>
    <g id="text_37">
     <!-- inhibitors(N = 402) -->
     <g style="fill:#262626;" transform="translate(405.992991267 48.89925)scale(0.08 -0.08)">
      <use xlink:href="#ArialMT-69"/>
      <use x="22.216796875" xlink:href="#ArialMT-6e"/>
      <use x="77.83203125" xlink:href="#ArialMT-68"/>
      <use x="133.447265625" xlink:href="#ArialMT-69"/>
      <use x="155.6640625" xlink:href="#ArialMT-62"/>
      <use x="211.279296875" xlink:href="#ArialMT-69"/>
      <use x="233.49609375" xlink:href="#ArialMT-74"/>
      <use x="261.279296875" xlink:href="#ArialMT-6f"/>
      <use x="316.89453125" xlink:href="#ArialMT-72"/>
      <use x="350.1953125" xlink:href="#ArialMT-73"/>
      <use x="400.1953125" xlink:href="#ArialMT-28"/>
      <use x="433.49609375" xlink:href="#ArialMT-4e"/>
      <use x="505.712890625" xlink:href="#ArialMT-20"/>
      <use x="533.49609375" xlink:href="#ArialMT-3d"/>
      <use x="591.89453125" xlink:href="#ArialMT-20"/>
      <use x="619.677734375" xlink:href="#ArialMT-34"/>
      <use x="675.29296875" xlink:href="#ArialMT-30"/>
      <use x="730.908203125" xlink:href="#ArialMT-32"/>
      <use x="786.5234375" xlink:href="#ArialMT-29"/>
     </g>
    </g>
   </g>
  </g>
 </g>
 <defs>
  <clipPath id="pe0e59b9c2b">
   <rect height="148.164" width="148.933256138" x="208.299245634" y="24.368"/>
  </clipPath>
  <clipPath id="p4e51056f36">
   <rect height="148.164" width="148.933256138" x="376.392991267" y="24.368"/>
  </clipPath>
  <clipPath id="pe1a2883329">
   <rect height="148.164" width="148.933256138" x="40.2055" y="24.368"/>
  </clipPath>
 </defs>
</svg>
