<?xml version="1.0" encoding="utf-8" standalone="no"?>
<!DOCTYPE svg PUBLIC "-//W3C//DTD SVG 1.1//EN"
  "http://www.w3.org/Graphics/SVG/1.1/DTD/svg11.dtd">
<!-- Created with matplotlib (http://matplotlib.org/) -->
<svg height="216pt" version="1.1" viewBox="0 0 720 216" width="720pt" xmlns="http://www.w3.org/2000/svg" xmlns:xlink="http://www.w3.org/1999/xlink">
 <defs>
  <style type="text/css">
*{stroke-linecap:butt;stroke-linejoin:round;}
  </style>
 </defs>
 <g id="figure_1">
  <g id="patch_1">
   <path d="M 0 216 
L 720 216 
L 720 0 
L 0 0 
z
" style="fill:#ffffff;"/>
  </g>
  <g id="axes_1">
   <g id="patch_2">
    <path d="M 90 189 
L 648 189 
L 648 25.92 
L 90 25.92 
z
" style="fill:#ffffff;"/>
   </g>
   <g id="matplotlib.axis_1">
    <g id="xtick_1">
     <g id="line2d_1"/>
     <g id="text_1">
      <!-- ${10^{-2}}$ -->
      <defs>
       <path d="M 12.40625 8.296875 
L 28.515625 8.296875 
L 28.515625 63.921875 
L 10.984375 60.40625 
L 10.984375 69.390625 
L 28.421875 72.90625 
L 38.28125 72.90625 
L 38.28125 8.296875 
L 54.390625 8.296875 
L 54.390625 0 
L 12.40625 0 
z
" id="DejaVuSans-31"/>
       <path d="M 31.78125 66.40625 
Q 24.171875 66.40625 20.328125 58.90625 
Q 16.5 51.421875 16.5 36.375 
Q 16.5 21.390625 20.328125 13.890625 
Q 24.171875 6.390625 31.78125 6.390625 
Q 39.453125 6.390625 43.28125 13.890625 
Q 47.125 21.390625 47.125 36.375 
Q 47.125 51.421875 43.28125 58.90625 
Q 39.453125 66.40625 31.78125 66.40625 
M 31.78125 74.21875 
Q 44.046875 74.21875 50.515625 64.515625 
Q 56.984375 54.828125 56.984375 36.375 
Q 56.984375 17.96875 50.515625 8.265625 
Q 44.046875 -1.421875 31.78125 -1.421875 
Q 19.53125 -1.421875 13.0625 8.265625 
Q 6.59375 17.96875 6.59375 36.375 
Q 6.59375 54.828125 13.0625 64.515625 
Q 19.53125 74.21875 31.78125 74.21875 
" id="DejaVuSans-30"/>
       <path d="M 10.59375 35.5 
L 73.1875 35.5 
L 73.1875 27.203125 
L 10.59375 27.203125 
z
" id="DejaVuSans-2212"/>
       <path d="M 19.1875 8.296875 
L 53.609375 8.296875 
L 53.609375 0 
L 7.328125 0 
L 7.328125 8.296875 
Q 12.9375 14.109375 22.625 23.890625 
Q 32.328125 33.6875 34.8125 36.53125 
Q 39.546875 41.84375 41.421875 45.53125 
Q 43.3125 49.21875 43.3125 52.78125 
Q 43.3125 58.59375 39.234375 62.25 
Q 35.15625 65.921875 28.609375 65.921875 
Q 23.96875 65.921875 18.8125 64.3125 
Q 13.671875 62.703125 7.8125 59.421875 
L 7.8125 69.390625 
Q 13.765625 71.78125 18.9375 73 
Q 24.125 74.21875 28.421875 74.21875 
Q 39.75 74.21875 46.484375 68.546875 
Q 53.21875 62.890625 53.21875 53.421875 
Q 53.21875 48.921875 51.53125 44.890625 
Q 49.859375 40.875 45.40625 35.40625 
Q 44.1875 33.984375 37.640625 27.21875 
Q 31.109375 20.453125 19.1875 8.296875 
" id="DejaVuSans-32"/>
      </defs>
      <g style="fill:#262626;" transform="translate(80.6 200.3975)scale(0.08 -0.08)">
       <use transform="translate(0 0.765625)" xlink:href="#DejaVuSans-31"/>
       <use transform="translate(63.623047 0.765625)" xlink:href="#DejaVuSans-30"/>
       <use transform="translate(128.203125 39.046875)scale(0.7)" xlink:href="#DejaVuSans-2212"/>
       <use transform="translate(186.855469 39.046875)scale(0.7)" xlink:href="#DejaVuSans-32"/>
      </g>
     </g>
    </g>
    <g id="xtick_2">
     <g id="line2d_2"/>
     <g id="text_2">
      <!-- ${10^{-1}}$ -->
      <g style="fill:#262626;" transform="translate(219.917506 200.3975)scale(0.08 -0.08)">
       <use transform="translate(0 0.684375)" xlink:href="#DejaVuSans-31"/>
       <use transform="translate(63.623047 0.684375)" xlink:href="#DejaVuSans-30"/>
       <use transform="translate(128.203125 38.965625)scale(0.7)" xlink:href="#DejaVuSans-2212"/>
       <use transform="translate(186.855469 38.965625)scale(0.7)" xlink:href="#DejaVuSans-31"/>
      </g>
     </g>
    </g>
    <g id="xtick_3">
     <g id="line2d_3"/>
     <g id="text_3">
      <!-- ${10^{0}}$ -->
      <g style="fill:#262626;" transform="translate(361.595013 200.3975)scale(0.08 -0.08)">
       <use transform="translate(0 0.765625)" xlink:href="#DejaVuSans-31"/>
       <use transform="translate(63.623047 0.765625)" xlink:href="#DejaVuSans-30"/>
       <use transform="translate(128.203125 39.046875)scale(0.7)" xlink:href="#DejaVuSans-30"/>
      </g>
     </g>
    </g>
    <g id="xtick_4">
     <g id="line2d_4"/>
     <g id="text_4">
      <!-- ${10^{1}}$ -->
      <g style="fill:#262626;" transform="translate(500.912519 200.3975)scale(0.08 -0.08)">
       <use transform="translate(0 0.684375)" xlink:href="#DejaVuSans-31"/>
       <use transform="translate(63.623047 0.684375)" xlink:href="#DejaVuSans-30"/>
       <use transform="translate(128.203125 38.965625)scale(0.7)" xlink:href="#DejaVuSans-31"/>
      </g>
     </g>
    </g>
    <g id="xtick_5">
     <g id="line2d_5"/>
     <g id="text_5">
      <!-- ${10^{2}}$ -->
      <g style="fill:#262626;" transform="translate(640.230025 200.3975)scale(0.08 -0.08)">
       <use transform="translate(0 0.765625)" xlink:href="#DejaVuSans-31"/>
       <use transform="translate(63.623047 0.765625)" xlink:href="#DejaVuSans-30"/>
       <use transform="translate(128.203125 39.046875)scale(0.7)" xlink:href="#DejaVuSans-32"/>
      </g>
     </g>
    </g>
    <g id="xtick_6">
     <g id="line2d_6"/>
    </g>
    <g id="xtick_7">
     <g id="line2d_7"/>
    </g>
    <g id="xtick_8">
     <g id="line2d_8"/>
    </g>
    <g id="xtick_9">
     <g id="line2d_9"/>
    </g>
    <g id="xtick_10">
     <g id="line2d_10"/>
    </g>
    <g id="xtick_11">
     <g id="line2d_11"/>
    </g>
    <g id="xtick_12">
     <g id="line2d_12"/>
    </g>
    <g id="xtick_13">
     <g id="line2d_13"/>
    </g>
    <g id="xtick_14">
     <g id="line2d_14"/>
    </g>
    <g id="xtick_15">
     <g id="line2d_15"/>
    </g>
    <g id="xtick_16">
     <g id="line2d_16"/>
    </g>
    <g id="xtick_17">
     <g id="line2d_17"/>
    </g>
    <g id="xtick_18">
     <g id="line2d_18"/>
    </g>
    <g id="xtick_19">
     <g id="line2d_19"/>
    </g>
    <g id="xtick_20">
     <g id="line2d_20"/>
    </g>
    <g id="xtick_21">
     <g id="line2d_21"/>
    </g>
    <g id="xtick_22">
     <g id="line2d_22"/>
    </g>
    <g id="xtick_23">
     <g id="line2d_23"/>
    </g>
    <g id="xtick_24">
     <g id="line2d_24"/>
    </g>
    <g id="xtick_25">
     <g id="line2d_25"/>
    </g>
    <g id="xtick_26">
     <g id="line2d_26"/>
    </g>
    <g id="xtick_27">
     <g id="line2d_27"/>
    </g>
    <g id="xtick_28">
     <g id="line2d_28"/>
    </g>
    <g id="xtick_29">
     <g id="line2d_29"/>
    </g>
    <g id="xtick_30">
     <g id="line2d_30"/>
    </g>
    <g id="xtick_31">
     <g id="line2d_31"/>
    </g>
    <g id="xtick_32">
     <g id="line2d_32"/>
    </g>
    <g id="xtick_33">
     <g id="line2d_33"/>
    </g>
    <g id="xtick_34">
     <g id="line2d_34"/>
    </g>
    <g id="xtick_35">
     <g id="line2d_35"/>
    </g>
    <g id="xtick_36">
     <g id="line2d_36"/>
    </g>
    <g id="xtick_37">
     <g id="line2d_37"/>
    </g>
    <g id="text_6">
     <!-- logRI -->
     <defs>
      <path d="M 6.734375 0 
L 6.734375 72.46875 
L 15.53125 72.46875 
L 15.53125 0 
z
" id="LiberationSans-6c"/>
      <path d="M 51.421875 26.46875 
Q 51.421875 12.59375 45.3125 5.796875 
Q 39.203125 -0.984375 27.59375 -0.984375 
Q 22.078125 -0.984375 17.71875 0.671875 
Q 13.375 2.34375 10.375 5.765625 
Q 7.375 9.1875 5.78125 14.328125 
Q 4.203125 19.484375 4.203125 26.46875 
Q 4.203125 53.8125 27.875 53.8125 
Q 34.03125 53.8125 38.5 52.09375 
Q 42.96875 50.390625 45.828125 46.96875 
Q 48.6875 43.5625 50.046875 38.421875 
Q 51.421875 33.296875 51.421875 26.46875 
M 42.1875 26.46875 
Q 42.1875 32.625 41.234375 36.625 
Q 40.28125 40.625 38.453125 43.015625 
Q 36.625 45.40625 33.984375 46.359375 
Q 31.34375 47.3125 28.03125 47.3125 
Q 24.65625 47.3125 21.9375 46.3125 
Q 19.234375 45.3125 17.328125 42.890625 
Q 15.4375 40.484375 14.421875 36.46875 
Q 13.421875 32.46875 13.421875 26.46875 
Q 13.421875 20.3125 14.5 16.28125 
Q 15.578125 12.25 17.453125 9.859375 
Q 19.34375 7.46875 21.90625 6.484375 
Q 24.46875 5.515625 27.484375 5.515625 
Q 30.859375 5.515625 33.59375 6.46875 
Q 36.328125 7.421875 38.234375 9.8125 
Q 40.140625 12.203125 41.15625 16.25 
Q 42.1875 20.3125 42.1875 26.46875 
" id="LiberationSans-6f"/>
      <path d="M 26.765625 -20.75 
Q 22.21875 -20.75 18.703125 -19.8125 
Q 15.1875 -18.890625 12.6875 -17.15625 
Q 10.203125 -15.4375 8.640625 -13.03125 
Q 7.078125 -10.640625 6.390625 -7.71875 
L 15.234375 -6.453125 
Q 16.109375 -10.109375 19.109375 -12.078125 
Q 22.125 -14.0625 27 -14.0625 
Q 29.984375 -14.0625 32.421875 -13.234375 
Q 34.859375 -12.40625 36.5625 -10.5625 
Q 38.28125 -8.734375 39.203125 -5.796875 
Q 40.140625 -2.875 40.140625 1.3125 
L 40.140625 9.8125 
L 40.046875 9.8125 
Q 39.0625 7.8125 37.625 5.984375 
Q 36.1875 4.15625 34.109375 2.734375 
Q 32.03125 1.3125 29.296875 0.453125 
Q 26.5625 -0.390625 23.046875 -0.390625 
Q 18.015625 -0.390625 14.421875 1.296875 
Q 10.84375 2.984375 8.5625 6.34375 
Q 6.296875 9.71875 5.25 14.71875 
Q 4.203125 19.734375 4.203125 26.3125 
Q 4.203125 32.671875 5.25 37.75 
Q 6.296875 42.828125 8.65625 46.359375 
Q 11.03125 49.90625 14.8125 51.78125 
Q 18.609375 53.65625 24.03125 53.65625 
Q 29.640625 53.65625 33.765625 51.09375 
Q 37.890625 48.53125 40.140625 43.796875 
L 40.234375 43.796875 
Q 40.234375 45.015625 40.296875 46.53125 
Q 40.375 48.046875 40.453125 49.390625 
Q 40.53125 50.734375 40.625 51.703125 
Q 40.71875 52.6875 40.828125 52.828125 
L 49.171875 52.828125 
Q 49.125 52.390625 49.078125 51.34375 
Q 49.03125 50.296875 48.96875 48.828125 
Q 48.921875 47.359375 48.890625 45.578125 
Q 48.875 43.796875 48.875 41.890625 
L 48.875 1.515625 
Q 48.875 -9.578125 43.421875 -15.15625 
Q 37.984375 -20.75 26.765625 -20.75 
M 40.140625 26.421875 
Q 40.140625 31.9375 38.9375 35.859375 
Q 37.75 39.796875 35.796875 42.28125 
Q 33.84375 44.78125 31.328125 45.953125 
Q 28.8125 47.125 26.171875 47.125 
Q 22.796875 47.125 20.375 45.953125 
Q 17.96875 44.78125 16.375 42.265625 
Q 14.796875 39.75 14.03125 35.8125 
Q 13.28125 31.890625 13.28125 26.421875 
Q 13.28125 20.703125 14.03125 16.8125 
Q 14.796875 12.9375 16.359375 10.546875 
Q 17.921875 8.15625 20.3125 7.125 
Q 22.703125 6.109375 26.03125 6.109375 
Q 28.65625 6.109375 31.171875 7.21875 
Q 33.6875 8.34375 35.6875 10.78125 
Q 37.703125 13.234375 38.921875 17.09375 
Q 40.140625 20.953125 40.140625 26.421875 
" id="LiberationSans-67"/>
      <path d="M 56.84375 0 
L 38.96875 28.5625 
L 17.53125 28.5625 
L 17.53125 0 
L 8.203125 0 
L 8.203125 68.796875 
L 40.578125 68.796875 
Q 46.4375 68.796875 50.953125 67.453125 
Q 55.46875 66.109375 58.546875 63.5625 
Q 61.625 61.03125 63.234375 57.375 
Q 64.84375 53.71875 64.84375 49.125 
Q 64.84375 45.84375 63.890625 42.671875 
Q 62.9375 39.5 60.890625 36.859375 
Q 58.84375 34.234375 55.65625 32.328125 
Q 52.484375 30.421875 48.046875 29.640625 
L 67.578125 0 
z
M 55.46875 49.03125 
Q 55.46875 52.15625 54.390625 54.4375 
Q 53.328125 56.734375 51.265625 58.265625 
Q 49.21875 59.8125 46.28125 60.5625 
Q 43.359375 61.328125 39.65625 61.328125 
L 17.53125 61.328125 
L 17.53125 35.9375 
L 40.046875 35.9375 
Q 44.046875 35.9375 46.96875 36.9375 
Q 49.90625 37.9375 51.78125 39.6875 
Q 53.65625 41.453125 54.5625 43.84375 
Q 55.46875 46.234375 55.46875 49.03125 
" id="LiberationSans-52"/>
      <path d="M 9.234375 0 
L 9.234375 68.796875 
L 18.5625 68.796875 
L 18.5625 0 
z
" id="LiberationSans-49"/>
     </defs>
     <g style="fill:#262626;" transform="translate(358.72875 212.43475)scale(0.088 -0.088)">
      <use xlink:href="#LiberationSans-6c"/>
      <use x="22.216797" xlink:href="#LiberationSans-6f"/>
      <use x="77.832031" xlink:href="#LiberationSans-67"/>
      <use x="133.447266" xlink:href="#LiberationSans-52"/>
      <use x="205.664062" xlink:href="#LiberationSans-49"/>
     </g>
    </g>
   </g>
   <g id="matplotlib.axis_2">
    <g id="ytick_1">
     <g id="line2d_38"/>
     <g id="text_7">
      <!-- ${10^{-1}}$ -->
      <g style="fill:#262626;" transform="translate(65.6 180.77599)scale(0.08 -0.08)">
       <use transform="translate(0 0.684375)" xlink:href="#DejaVuSans-31"/>
       <use transform="translate(63.623047 0.684375)" xlink:href="#DejaVuSans-30"/>
       <use transform="translate(128.203125 38.965625)scale(0.7)" xlink:href="#DejaVuSans-2212"/>
       <use transform="translate(186.855469 38.965625)scale(0.7)" xlink:href="#DejaVuSans-31"/>
      </g>
     </g>
    </g>
    <g id="ytick_2">
     <g id="line2d_39"/>
     <g id="text_8">
      <!-- ${10^{0}}$ -->
      <g style="fill:#262626;" transform="translate(70.32 83.159409)scale(0.08 -0.08)">
       <use transform="translate(0 0.765625)" xlink:href="#DejaVuSans-31"/>
       <use transform="translate(63.623047 0.765625)" xlink:href="#DejaVuSans-30"/>
       <use transform="translate(128.203125 39.046875)scale(0.7)" xlink:href="#DejaVuSans-30"/>
      </g>
     </g>
    </g>
    <g id="ytick_3">
     <g id="line2d_40"/>
    </g>
    <g id="ytick_4">
     <g id="line2d_41"/>
    </g>
    <g id="ytick_5">
     <g id="line2d_42"/>
    </g>
    <g id="ytick_6">
     <g id="line2d_43"/>
    </g>
    <g id="ytick_7">
     <g id="line2d_44"/>
    </g>
    <g id="ytick_8">
     <g id="line2d_45"/>
    </g>
    <g id="ytick_9">
     <g id="line2d_46"/>
    </g>
    <g id="ytick_10">
     <g id="line2d_47"/>
    </g>
    <g id="ytick_11">
     <g id="line2d_48"/>
    </g>
    <g id="ytick_12">
     <g id="line2d_49"/>
    </g>
    <g id="ytick_13">
     <g id="line2d_50"/>
    </g>
    <g id="ytick_14">
     <g id="line2d_51"/>
    </g>
    <g id="text_9">
     <!-- # Literature Refs/ # Regulators -->
     <defs>
      <path d="M 43.75 43.21875 
L 39.9375 25.203125 
L 52.640625 25.203125 
L 52.640625 19.921875 
L 38.8125 19.921875 
L 34.515625 0 
L 29.15625 0 
L 33.34375 19.921875 
L 15.625 19.921875 
L 11.53125 0 
L 6.15625 0 
L 10.25 19.921875 
L 0.4375 19.921875 
L 0.4375 25.203125 
L 11.421875 25.203125 
L 15.234375 43.21875 
L 2.9375 43.21875 
L 2.9375 48.484375 
L 16.3125 48.484375 
L 20.65625 68.40625 
L 26.03125 68.40625 
L 21.734375 48.484375 
L 39.453125 48.484375 
L 43.75 68.40625 
L 49.125 68.40625 
L 44.828125 48.484375 
L 55.125 48.484375 
L 55.125 43.21875 
z
M 20.75 43.21875 
L 16.84375 25.203125 
L 34.515625 25.203125 
L 38.328125 43.21875 
z
" id="LiberationSans-23"/>
      <path id="LiberationSans-20"/>
      <path d="M 8.203125 0 
L 8.203125 68.796875 
L 17.53125 68.796875 
L 17.53125 7.625 
L 52.296875 7.625 
L 52.296875 0 
z
" id="LiberationSans-4c"/>
      <path d="M 6.6875 64.0625 
L 6.6875 72.46875 
L 15.484375 72.46875 
L 15.484375 64.0625 
z
M 6.6875 0 
L 6.6875 52.828125 
L 15.484375 52.828125 
L 15.484375 0 
z
" id="LiberationSans-69"/>
      <path d="M 27.046875 0.390625 
Q 25.046875 -0.140625 22.96875 -0.453125 
Q 20.90625 -0.78125 18.171875 -0.78125 
Q 7.625 -0.78125 7.625 11.1875 
L 7.625 46.4375 
L 1.515625 46.4375 
L 1.515625 52.828125 
L 7.953125 52.828125 
L 10.546875 64.65625 
L 16.40625 64.65625 
L 16.40625 52.828125 
L 26.171875 52.828125 
L 26.171875 46.4375 
L 16.40625 46.4375 
L 16.40625 13.09375 
Q 16.40625 9.28125 17.640625 7.734375 
Q 18.890625 6.203125 21.96875 6.203125 
Q 23.25 6.203125 24.4375 6.390625 
Q 25.640625 6.59375 27.046875 6.890625 
z
" id="LiberationSans-74"/>
      <path d="M 13.484375 24.5625 
Q 13.484375 20.40625 14.328125 16.90625 
Q 15.1875 13.421875 16.96875 10.90625 
Q 18.75 8.40625 21.53125 7 
Q 24.3125 5.609375 28.21875 5.609375 
Q 33.9375 5.609375 37.375 7.90625 
Q 40.828125 10.203125 42.046875 13.71875 
L 49.75 11.53125 
Q 48.921875 9.328125 47.4375 7.109375 
Q 45.953125 4.890625 43.453125 3.09375 
Q 40.96875 1.3125 37.234375 0.15625 
Q 33.5 -0.984375 28.21875 -0.984375 
Q 16.5 -0.984375 10.375 6 
Q 4.25 12.984375 4.25 26.765625 
Q 4.25 34.1875 6.09375 39.328125 
Q 7.953125 44.484375 11.171875 47.703125 
Q 14.40625 50.921875 18.703125 52.359375 
Q 23 53.8125 27.875 53.8125 
Q 34.515625 53.8125 38.984375 51.65625 
Q 43.453125 49.515625 46.15625 45.71875 
Q 48.875 41.9375 50.015625 36.8125 
Q 51.171875 31.6875 51.171875 25.734375 
L 51.171875 24.5625 
z
M 42.09375 31.296875 
Q 41.359375 39.65625 37.84375 43.484375 
Q 34.328125 47.3125 27.734375 47.3125 
Q 25.53125 47.3125 23.109375 46.609375 
Q 20.703125 45.90625 18.65625 44.09375 
Q 16.609375 42.28125 15.1875 39.171875 
Q 13.765625 36.078125 13.578125 31.296875 
z
" id="LiberationSans-65"/>
      <path d="M 6.9375 0 
L 6.9375 40.53125 
Q 6.9375 42.1875 6.90625 43.921875 
Q 6.890625 45.65625 6.828125 47.265625 
Q 6.78125 48.875 6.734375 50.28125 
Q 6.6875 51.703125 6.640625 52.828125 
L 14.9375 52.828125 
Q 14.984375 51.703125 15.0625 50.265625 
Q 15.140625 48.828125 15.203125 47.3125 
Q 15.28125 45.796875 15.296875 44.40625 
Q 15.328125 43.015625 15.328125 42.046875 
L 15.53125 42.046875 
Q 16.453125 45.0625 17.5 47.28125 
Q 18.5625 49.515625 19.96875 50.953125 
Q 21.390625 52.390625 23.34375 53.09375 
Q 25.296875 53.8125 28.078125 53.8125 
Q 29.15625 53.8125 30.125 53.640625 
Q 31.109375 53.46875 31.640625 53.328125 
L 31.640625 45.265625 
Q 30.765625 45.515625 29.59375 45.625 
Q 28.421875 45.75 26.953125 45.75 
Q 23.921875 45.75 21.796875 44.375 
Q 19.671875 43.015625 18.328125 40.59375 
Q 17 38.1875 16.359375 34.84375 
Q 15.71875 31.5 15.71875 27.546875 
L 15.71875 0 
z
" id="LiberationSans-72"/>
      <path d="M 20.21875 -0.984375 
Q 12.25 -0.984375 8.25 3.21875 
Q 4.25 7.421875 4.25 14.75 
Q 4.25 19.96875 6.21875 23.3125 
Q 8.203125 26.65625 11.390625 28.5625 
Q 14.59375 30.46875 18.6875 31.203125 
Q 22.796875 31.9375 27.046875 32.03125 
L 38.921875 32.234375 
L 38.921875 35.109375 
Q 38.921875 38.375 38.234375 40.671875 
Q 37.546875 42.96875 36.125 44.375 
Q 34.71875 45.796875 32.59375 46.453125 
Q 30.46875 47.125 27.59375 47.125 
Q 25.046875 47.125 23 46.75 
Q 20.953125 46.390625 19.4375 45.4375 
Q 17.921875 44.484375 16.984375 42.84375 
Q 16.0625 41.21875 15.765625 38.71875 
L 6.59375 39.546875 
Q 7.078125 42.671875 8.4375 45.28125 
Q 9.8125 47.90625 12.328125 49.796875 
Q 14.84375 51.703125 18.625 52.75 
Q 22.40625 53.8125 27.78125 53.8125 
Q 37.75 53.8125 42.765625 49.234375 
Q 47.796875 44.671875 47.796875 36.03125 
L 47.796875 13.28125 
Q 47.796875 9.375 48.828125 7.390625 
Q 49.859375 5.421875 52.734375 5.421875 
Q 53.46875 5.421875 54.203125 5.515625 
Q 54.9375 5.609375 55.609375 5.765625 
L 55.609375 0.296875 
Q 53.953125 -0.09375 52.3125 -0.28125 
Q 50.6875 -0.484375 48.828125 -0.484375 
Q 46.34375 -0.484375 44.5625 0.171875 
Q 42.78125 0.828125 41.65625 2.171875 
Q 40.53125 3.515625 39.9375 5.484375 
Q 39.359375 7.46875 39.203125 10.109375 
L 38.921875 10.109375 
Q 37.5 7.5625 35.8125 5.515625 
Q 34.125 3.46875 31.875 2.03125 
Q 29.640625 0.59375 26.78125 -0.1875 
Q 23.921875 -0.984375 20.21875 -0.984375 
M 22.21875 5.609375 
Q 26.421875 5.609375 29.5625 7.140625 
Q 32.71875 8.6875 34.78125 11.078125 
Q 36.859375 13.484375 37.890625 16.3125 
Q 38.921875 19.140625 38.921875 21.734375 
L 38.921875 26.078125 
L 29.296875 25.875 
Q 26.078125 25.828125 23.171875 25.40625 
Q 20.265625 25 18.0625 23.78125 
Q 15.875 22.5625 14.578125 20.359375 
Q 13.28125 18.171875 13.28125 14.59375 
Q 13.28125 10.296875 15.59375 7.953125 
Q 17.921875 5.609375 22.21875 5.609375 
" id="LiberationSans-61"/>
      <path d="M 15.328125 52.828125 
L 15.328125 19.34375 
Q 15.328125 15.484375 15.890625 12.890625 
Q 16.453125 10.296875 17.71875 8.703125 
Q 19 7.125 21.0625 6.46875 
Q 23.140625 5.8125 26.21875 5.8125 
Q 29.34375 5.8125 31.859375 6.90625 
Q 34.375 8.015625 36.15625 10.078125 
Q 37.9375 12.15625 38.90625 15.203125 
Q 39.890625 18.265625 39.890625 22.21875 
L 39.890625 52.828125 
L 48.6875 52.828125 
L 48.6875 11.28125 
Q 48.6875 9.625 48.703125 7.78125 
Q 48.734375 5.953125 48.78125 4.3125 
Q 48.828125 2.6875 48.875 1.515625 
Q 48.921875 0.34375 48.96875 0 
L 40.671875 0 
Q 40.625 0.25 40.578125 1.3125 
Q 40.53125 2.390625 40.453125 3.78125 
Q 40.375 5.171875 40.328125 6.609375 
Q 40.28125 8.0625 40.28125 9.03125 
L 40.140625 9.03125 
Q 38.875 6.734375 37.359375 4.875 
Q 35.84375 3.03125 33.84375 1.734375 
Q 31.84375 0.4375 29.25 -0.265625 
Q 26.65625 -0.984375 23.25 -0.984375 
Q 18.84375 -0.984375 15.671875 0.09375 
Q 12.5 1.171875 10.453125 3.421875 
Q 8.40625 5.671875 7.453125 9.1875 
Q 6.5 12.703125 6.5 17.625 
L 6.5 52.828125 
z
" id="LiberationSans-75"/>
      <path d="M 17.625 46.4375 
L 17.625 0 
L 8.84375 0 
L 8.84375 46.4375 
L 1.421875 46.4375 
L 1.421875 52.828125 
L 8.84375 52.828125 
L 8.84375 58.796875 
Q 8.84375 61.671875 9.375 64.140625 
Q 9.90625 66.609375 11.34375 68.4375 
Q 12.796875 70.265625 15.28125 71.3125 
Q 17.78125 72.359375 21.734375 72.359375 
Q 23.296875 72.359375 24.96875 72.21875 
Q 26.65625 72.078125 27.9375 71.78125 
L 27.9375 65.09375 
Q 27.09375 65.234375 26 65.359375 
Q 24.90625 65.484375 24.03125 65.484375 
Q 22.078125 65.484375 20.828125 64.9375 
Q 19.578125 64.40625 18.875 63.40625 
Q 18.171875 62.40625 17.890625 60.9375 
Q 17.625 59.46875 17.625 57.5625 
L 17.625 52.828125 
L 27.9375 52.828125 
L 27.9375 46.4375 
z
" id="LiberationSans-66"/>
      <path d="M 46.390625 14.59375 
Q 46.390625 10.890625 44.9375 7.984375 
Q 43.5 5.078125 40.765625 3.09375 
Q 38.03125 1.125 34.046875 0.0625 
Q 30.078125 -0.984375 24.953125 -0.984375 
Q 20.359375 -0.984375 16.671875 -0.265625 
Q 12.984375 0.4375 10.203125 2 
Q 7.421875 3.5625 5.53125 6.125 
Q 3.65625 8.6875 2.78125 12.40625 
L 10.546875 13.921875 
Q 11.671875 9.671875 15.1875 7.6875 
Q 18.703125 5.71875 24.953125 5.71875 
Q 27.78125 5.71875 30.140625 6.109375 
Q 32.515625 6.5 34.21875 7.453125 
Q 35.9375 8.40625 36.890625 9.984375 
Q 37.84375 11.578125 37.84375 13.921875 
Q 37.84375 16.3125 36.71875 17.84375 
Q 35.59375 19.390625 33.59375 20.40625 
Q 31.59375 21.4375 28.734375 22.1875 
Q 25.875 22.953125 22.46875 23.875 
Q 19.28125 24.703125 16.15625 25.734375 
Q 13.03125 26.765625 10.515625 28.4375 
Q 8.015625 30.125 6.453125 32.609375 
Q 4.890625 35.109375 4.890625 38.875 
Q 4.890625 46.09375 10.03125 49.875 
Q 15.1875 53.65625 25.046875 53.65625 
Q 33.796875 53.65625 38.9375 50.578125 
Q 44.09375 47.515625 45.453125 40.71875 
L 37.546875 39.75 
Q 37.109375 41.796875 35.9375 43.1875 
Q 34.765625 44.578125 33.109375 45.4375 
Q 31.453125 46.296875 29.375 46.65625 
Q 27.296875 47.015625 25.046875 47.015625 
Q 19.09375 47.015625 16.25 45.203125 
Q 13.421875 43.40625 13.421875 39.75 
Q 13.421875 37.59375 14.46875 36.203125 
Q 15.53125 34.8125 17.40625 33.859375 
Q 19.28125 32.90625 21.921875 32.203125 
Q 24.5625 31.5 27.734375 30.71875 
Q 29.828125 30.171875 32.03125 29.5625 
Q 34.234375 28.953125 36.296875 28.09375 
Q 38.375 27.25 40.203125 26.09375 
Q 42.046875 24.953125 43.40625 23.34375 
Q 44.78125 21.734375 45.578125 19.578125 
Q 46.390625 17.4375 46.390625 14.59375 
" id="LiberationSans-73"/>
      <path d="M 0 -0.984375 
L 20.0625 72.46875 
L 27.78125 72.46875 
L 7.90625 -0.984375 
z
" id="LiberationSans-2f"/>
     </defs>
     <g style="fill:#262626;" transform="translate(59.774 167.375625)rotate(-90)scale(0.088 -0.088)">
      <use xlink:href="#LiberationSans-23"/>
      <use x="55.615234" xlink:href="#LiberationSans-20"/>
      <use x="83.398438" xlink:href="#LiberationSans-4c"/>
      <use x="139.013672" xlink:href="#LiberationSans-69"/>
      <use x="161.230469" xlink:href="#LiberationSans-74"/>
      <use x="189.013672" xlink:href="#LiberationSans-65"/>
      <use x="244.628906" xlink:href="#LiberationSans-72"/>
      <use x="277.929688" xlink:href="#LiberationSans-61"/>
      <use x="333.544922" xlink:href="#LiberationSans-74"/>
      <use x="361.328125" xlink:href="#LiberationSans-75"/>
      <use x="416.943359" xlink:href="#LiberationSans-72"/>
      <use x="450.244141" xlink:href="#LiberationSans-65"/>
      <use x="505.859375" xlink:href="#LiberationSans-20"/>
      <use x="533.642578" xlink:href="#LiberationSans-52"/>
      <use x="605.859375" xlink:href="#LiberationSans-65"/>
      <use x="661.474609" xlink:href="#LiberationSans-66"/>
      <use x="689.257812" xlink:href="#LiberationSans-73"/>
      <use x="739.257812" xlink:href="#LiberationSans-2f"/>
      <use x="767.041016" xlink:href="#LiberationSans-20"/>
      <use x="794.824219" xlink:href="#LiberationSans-23"/>
      <use x="850.439453" xlink:href="#LiberationSans-20"/>
      <use x="878.222656" xlink:href="#LiberationSans-52"/>
      <use x="950.439453" xlink:href="#LiberationSans-65"/>
      <use x="1006.054688" xlink:href="#LiberationSans-67"/>
      <use x="1061.669922" xlink:href="#LiberationSans-75"/>
      <use x="1117.285156" xlink:href="#LiberationSans-6c"/>
      <use x="1139.501953" xlink:href="#LiberationSans-61"/>
      <use x="1195.117188" xlink:href="#LiberationSans-74"/>
      <use x="1222.900391" xlink:href="#LiberationSans-6f"/>
      <use x="1278.515625" xlink:href="#LiberationSans-72"/>
      <use x="1311.816406" xlink:href="#LiberationSans-73"/>
     </g>
    </g>
   </g>
   <g id="line2d_52">
    <defs>
     <path d="M 0 2.8 
C 0.742569 2.8 1.454824 2.504974 1.979899 1.979899 
C 2.504974 1.454824 2.8 0.742569 2.8 0 
C 2.8 -0.742569 2.504974 -1.454824 1.979899 -1.979899 
C 1.454824 -2.504974 0.742569 -2.8 0 -2.8 
C -0.742569 -2.8 -1.454824 -2.504974 -1.979899 -1.979899 
C -2.504974 -1.454824 -2.8 -0.742569 -2.8 0 
C -2.8 0.742569 -2.504974 1.454824 -1.979899 1.979899 
C -1.454824 2.504974 -0.742569 2.8 0 2.8 
z
" id="mc6626a329d"/>
    </defs>
    <g clip-path="url(#pa566c7b7b8)">
     <use style="fill:#4c72b0;" x="496.53271" xlink:href="#mc6626a329d" y="80.260659"/>
     <use style="fill:#4c72b0;" x="372.160563" xlink:href="#mc6626a329d" y="70.800635"/>
     <use style="fill:#4c72b0;" x="459.098726" xlink:href="#mc6626a329d" y="156.221123"/>
     <use style="fill:#4c72b0;" x="384.972957" xlink:href="#mc6626a329d" y="126.835605"/>
     <use style="fill:#4c72b0;" x="510.673624" xlink:href="#mc6626a329d" y="181.917852"/>
     <use style="fill:#4c72b0;" x="469.080948" xlink:href="#mc6626a329d" y="80.260659"/>
     <use style="fill:#4c72b0;" x="310.091511" xlink:href="#mc6626a329d" y="109.646178"/>
     <use style="fill:#4c72b0;" x="355.885374" xlink:href="#mc6626a329d" y="80.260659"/>
     <use style="fill:#4c72b0;" x="424.316559" xlink:href="#mc6626a329d" y="80.260659"/>
     <use style="fill:#4c72b0;" x="479.418147" xlink:href="#mc6626a329d" y="80.260659"/>
     <use style="fill:#4c72b0;" x="478.045207" xlink:href="#mc6626a329d" y="100.186154"/>
     <use style="fill:#4c72b0;" x="452.361058" xlink:href="#mc6626a329d" y="58.604543"/>
     <use style="fill:#4c72b0;" x="423.832518" xlink:href="#mc6626a329d" y="131.302294"/>
     <use style="fill:#4c72b0;" x="439.388226" xlink:href="#mc6626a329d" y="109.646178"/>
     <use style="fill:#4c72b0;" x="289.41403" xlink:href="#mc6626a329d" y="68.064567"/>
     <use style="fill:#4c72b0;" x="509.505541" xlink:href="#mc6626a329d" y="105.957388"/>
     <use style="fill:#4c72b0;" x="435.307703" xlink:href="#mc6626a329d" y="92.456752"/>
     <use style="fill:#4c72b0;" x="442.857024" xlink:href="#mc6626a329d" y="162.75624"/>
     <use style="fill:#4c72b0;" x="440.873082" xlink:href="#mc6626a329d" y="152.532333"/>
     <use style="fill:#4c72b0;" x="362.260193" xlink:href="#mc6626a329d" y="80.260659"/>
     <use style="fill:#4c72b0;" x="481.981087" xlink:href="#mc6626a329d" y="80.260659"/>
     <use style="fill:#4c72b0;" x="550.283276" xlink:href="#mc6626a329d" y="87.990062"/>
     <use style="fill:#4c72b0;" x="441.056152" xlink:href="#mc6626a329d" y="148.491721"/>
     <use style="fill:#4c72b0;" x="498.756611" xlink:href="#mc6626a329d" y="70.800635"/>
     <use style="fill:#4c72b0;" x="500.149189" xlink:href="#mc6626a329d" y="80.260659"/>
     <use style="fill:#4c72b0;" x="441.963288" xlink:href="#mc6626a329d" y="80.260659"/>
     <use style="fill:#4c72b0;" x="532.927197" xlink:href="#mc6626a329d" y="92.456752"/>
     <use style="fill:#4c72b0;" x="503.886065" xlink:href="#mc6626a329d" y="68.064567"/>
     <use style="fill:#4c72b0;" x="431.576772" xlink:href="#mc6626a329d" y="119.106202"/>
     <use style="fill:#4c72b0;" x="514.321287" xlink:href="#mc6626a329d" y="50.875141"/>
     <use style="fill:#4c72b0;" x="534.741689" xlink:href="#mc6626a329d" y="63.071233"/>
     <use style="fill:#4c72b0;" x="532.444764" xlink:href="#mc6626a329d" y="97.450086"/>
     <use style="fill:#4c72b0;" x="409.965667" xlink:href="#mc6626a329d" y="80.260659"/>
     <use style="fill:#4c72b0;" x="496.605739" xlink:href="#mc6626a329d" y="119.106202"/>
     <use style="fill:#4c72b0;" x="274.208295" xlink:href="#mc6626a329d" y="101.916776"/>
     <use style="fill:#4c72b0;" x="474.784899" xlink:href="#mc6626a329d" y="109.646178"/>
     <use style="fill:#4c72b0;" x="505.984709" xlink:href="#mc6626a329d" y="144.025031"/>
     <use style="fill:#4c72b0;" x="457.028804" xlink:href="#mc6626a329d" y="80.260659"/>
     <use style="fill:#4c72b0;" x="450.199941" xlink:href="#mc6626a329d" y="94.525179"/>
     <use style="fill:#4c72b0;" x="528.050849" xlink:href="#mc6626a329d" y="92.456752"/>
     <use style="fill:#4c72b0;" x="518.426667" xlink:href="#mc6626a329d" y="101.916776"/>
     <use style="fill:#4c72b0;" x="494.978372" xlink:href="#mc6626a329d" y="156.221123"/>
     <use style="fill:#4c72b0;" x="486.025231" xlink:href="#mc6626a329d" y="109.646178"/>
     <use style="fill:#4c72b0;" x="602.023635" xlink:href="#mc6626a329d" y="80.260659"/>
     <use style="fill:#4c72b0;" x="423.344573" xlink:href="#mc6626a329d" y="57.410257"/>
     <use style="fill:#4c72b0;" x="498.11934" xlink:href="#mc6626a329d" y="80.260659"/>
     <use style="fill:#4c72b0;" x="540.519012" xlink:href="#mc6626a329d" y="80.260659"/>
     <use style="fill:#4c72b0;" x="570.701554" xlink:href="#mc6626a329d" y="80.260659"/>
     <use style="fill:#4c72b0;" x="438.058396" xlink:href="#mc6626a329d" y="80.260659"/>
     <use style="fill:#4c72b0;" x="616.039054" xlink:href="#mc6626a329d" y="80.260659"/>
     <use style="fill:#4c72b0;" x="442.67933" xlink:href="#mc6626a329d" y="121.84227"/>
     <use style="fill:#4c72b0;" x="408.103833" xlink:href="#mc6626a329d" y="109.646178"/>
     <use style="fill:#4c72b0;" x="500.149189" xlink:href="#mc6626a329d" y="97.450086"/>
     <use style="fill:#4c72b0;" x="359.5095" xlink:href="#mc6626a329d" y="92.456752"/>
     <use style="fill:#4c72b0;" x="459.504346" xlink:href="#mc6626a329d" y="80.260659"/>
     <use style="fill:#4c72b0;" x="527.920497" xlink:href="#mc6626a329d" y="77.118901"/>
     <use style="fill:#4c72b0;" x="529.720348" xlink:href="#mc6626a329d" y="63.071233"/>
     <use style="fill:#4c72b0;" x="621.428571" xlink:href="#mc6626a329d" y="80.260659"/>
     <use style="fill:#4c72b0;" x="463.037523" xlink:href="#mc6626a329d" y="126.835605"/>
     <use style="fill:#4c72b0;" x="414.94951" xlink:href="#mc6626a329d" y="97.450086"/>
     <use style="fill:#4c72b0;" x="387.23932" xlink:href="#mc6626a329d" y="80.260659"/>
     <use style="fill:#4c72b0;" x="509.62337" xlink:href="#mc6626a329d" y="80.260659"/>
     <use style="fill:#4c72b0;" x="591.099566" xlink:href="#mc6626a329d" y="109.646178"/>
     <use style="fill:#4c72b0;" x="414.667435" xlink:href="#mc6626a329d" y="121.84227"/>
     <use style="fill:#4c72b0;" x="523.31268" xlink:href="#mc6626a329d" y="133.370721"/>
     <use style="fill:#4c72b0;" x="537.328084" xlink:href="#mc6626a329d" y="126.835605"/>
     <use style="fill:#4c72b0;" x="444.260097" xlink:href="#mc6626a329d" y="116.181295"/>
     <use style="fill:#4c72b0;" x="358.085791" xlink:href="#mc6626a329d" y="80.260659"/>
     <use style="fill:#4c72b0;" x="329.069307" xlink:href="#mc6626a329d" y="126.835605"/>
     <use style="fill:#4c72b0;" x="434.498262" xlink:href="#mc6626a329d" y="105.179488"/>
     <use style="fill:#4c72b0;" x="336.710686" xlink:href="#mc6626a329d" y="80.260659"/>
     <use style="fill:#4c72b0;" x="534.430008" xlink:href="#mc6626a329d" y="80.260659"/>
     <use style="fill:#4c72b0;" x="452.814279" xlink:href="#mc6626a329d" y="109.646178"/>
     <use style="fill:#4c72b0;" x="471.005492" xlink:href="#mc6626a329d" y="126.835605"/>
     <use style="fill:#4c72b0;" x="541.395654" xlink:href="#mc6626a329d" y="109.646178"/>
     <use style="fill:#4c72b0;" x="379.666346" xlink:href="#mc6626a329d" y="113.686791"/>
     <use style="fill:#4c72b0;" x="487.485318" xlink:href="#mc6626a329d" y="75.79397"/>
     <use style="fill:#4c72b0;" x="416.614885" xlink:href="#mc6626a329d" y="80.260659"/>
     <use style="fill:#4c72b0;" x="348.758932" xlink:href="#mc6626a329d" y="80.260659"/>
     <use style="fill:#4c72b0;" x="420.073245" xlink:href="#mc6626a329d" y="80.260659"/>
     <use style="fill:#4c72b0;" x="442.67933" xlink:href="#mc6626a329d" y="80.260659"/>
     <use style="fill:#4c72b0;" x="513.609136" xlink:href="#mc6626a329d" y="109.646178"/>
     <use style="fill:#4c72b0;" x="388.559478" xlink:href="#mc6626a329d" y="152.532333"/>
     <use style="fill:#4c72b0;" x="462.782766" xlink:href="#mc6626a329d" y="109.646178"/>
     <use style="fill:#4c72b0;" x="173.877497" xlink:href="#mc6626a329d" y="139.031697"/>
     <use style="fill:#4c72b0;" x="437.479398" xlink:href="#mc6626a329d" y="80.260659"/>
     <use style="fill:#4c72b0;" x="464.04596" xlink:href="#mc6626a329d" y="133.370721"/>
     <use style="fill:#4c72b0;" x="449.568031" xlink:href="#mc6626a329d" y="109.646178"/>
     <use style="fill:#4c72b0;" x="376.029769" xlink:href="#mc6626a329d" y="126.835605"/>
     <use style="fill:#4c72b0;" x="539.736917" xlink:href="#mc6626a329d" y="126.835605"/>
     <use style="fill:#4c72b0;" x="321.651275" xlink:href="#mc6626a329d" y="109.646178"/>
     <use style="fill:#4c72b0;" x="522.841457" xlink:href="#mc6626a329d" y="135.342907"/>
     <use style="fill:#4c72b0;" x="438.058396" xlink:href="#mc6626a329d" y="109.646178"/>
     <use style="fill:#4c72b0;" x="524.428865" xlink:href="#mc6626a329d" y="148.491721"/>
     <use style="fill:#4c72b0;" x="430.498226" xlink:href="#mc6626a329d" y="94.525179"/>
     <use style="fill:#4c72b0;" x="386.342936" xlink:href="#mc6626a329d" y="92.456752"/>
     <use style="fill:#4c72b0;" x="387.682581" xlink:href="#mc6626a329d" y="173.41055"/>
     <use style="fill:#4c72b0;" x="539.736917" xlink:href="#mc6626a329d" y="139.031697"/>
     <use style="fill:#4c72b0;" x="389.851445" xlink:href="#mc6626a329d" y="92.456752"/>
     <use style="fill:#4c72b0;" x="472.436974" xlink:href="#mc6626a329d" y="63.071233"/>
     <use style="fill:#4c72b0;" x="456.606184" xlink:href="#mc6626a329d" y="80.260659"/>
     <use style="fill:#4c72b0;" x="516.775964" xlink:href="#mc6626a329d" y="139.031697"/>
     <use style="fill:#4c72b0;" x="284.757516" xlink:href="#mc6626a329d" y="50.875141"/>
     <use style="fill:#4c72b0;" x="479.80476" xlink:href="#mc6626a329d" y="171.810573"/>
     <use style="fill:#4c72b0;" x="458.962912" xlink:href="#mc6626a329d" y="119.106202"/>
     <use style="fill:#4c72b0;" x="441.42064" xlink:href="#mc6626a329d" y="109.646178"/>
     <use style="fill:#4c72b0;" x="552.001942" xlink:href="#mc6626a329d" y="119.106202"/>
     <use style="fill:#4c72b0;" x="369.833167" xlink:href="#mc6626a329d" y="126.835605"/>
     <use style="fill:#4c72b0;" x="457.726675" xlink:href="#mc6626a329d" y="156.221123"/>
     <use style="fill:#4c72b0;" x="574.52462" xlink:href="#mc6626a329d" y="103.111062"/>
     <use style="fill:#4c72b0;" x="552.147842" xlink:href="#mc6626a329d" y="68.064567"/>
     <use style="fill:#4c72b0;" x="277.02298" xlink:href="#mc6626a329d" y="126.835605"/>
     <use style="fill:#4c72b0;" x="535.743702" xlink:href="#mc6626a329d" y="148.491721"/>
     <use style="fill:#4c72b0;" x="397.449478" xlink:href="#mc6626a329d" y="80.260659"/>
     <use style="fill:#4c72b0;" x="505.671374" xlink:href="#mc6626a329d" y="126.835605"/>
     <use style="fill:#4c72b0;" x="426.911705" xlink:href="#mc6626a329d" y="109.646178"/>
     <use style="fill:#4c72b0;" x="405.856711" xlink:href="#mc6626a329d" y="139.031697"/>
     <use style="fill:#4c72b0;" x="454.885551" xlink:href="#mc6626a329d" y="116.181295"/>
     <use style="fill:#4c72b0;" x="481.23295" xlink:href="#mc6626a329d" y="113.039536"/>
     <use style="fill:#4c72b0;" x="460.572892" xlink:href="#mc6626a329d" y="68.064567"/>
     <use style="fill:#4c72b0;" x="404.198941" xlink:href="#mc6626a329d" y="109.646178"/>
     <use style="fill:#4c72b0;" x="412.655213" xlink:href="#mc6626a329d" y="120.768939"/>
     <use style="fill:#4c72b0;" x="360.208986" xlink:href="#mc6626a329d" y="33.685714"/>
     <use style="fill:#4c72b0;" x="451.751432" xlink:href="#mc6626a329d" y="99.422271"/>
     <use style="fill:#4c72b0;" x="447.79546" xlink:href="#mc6626a329d" y="97.450086"/>
     <use style="fill:#4c72b0;" x="490.303861" xlink:href="#mc6626a329d" y="126.835605"/>
     <use style="fill:#4c72b0;" x="523.218729" xlink:href="#mc6626a329d" y="109.646178"/>
     <use style="fill:#4c72b0;" x="488.160414" xlink:href="#mc6626a329d" y="80.260659"/>
     <use style="fill:#4c72b0;" x="490.787902" xlink:href="#mc6626a329d" y="103.111062"/>
     <use style="fill:#4c72b0;" x="509.03192" xlink:href="#mc6626a329d" y="119.106202"/>
     <use style="fill:#4c72b0;" x="458.553634" xlink:href="#mc6626a329d" y="148.491721"/>
     <use style="fill:#4c72b0;" x="513.993643" xlink:href="#mc6626a329d" y="126.835605"/>
     <use style="fill:#4c72b0;" x="487.400399" xlink:href="#mc6626a329d" y="97.450086"/>
     <use style="fill:#4c72b0;" x="332.46299" xlink:href="#mc6626a329d" y="80.260659"/>
     <use style="fill:#4c72b0;" x="289.41403" xlink:href="#mc6626a329d" y="80.260659"/>
     <use style="fill:#4c72b0;" x="419.814123" xlink:href="#mc6626a329d" y="109.646178"/>
     <use style="fill:#4c72b0;" x="297.772792" xlink:href="#mc6626a329d" y="80.260659"/>
     <use style="fill:#4c72b0;" x="537.847123" xlink:href="#mc6626a329d" y="126.835605"/>
     <use style="fill:#4c72b0;" x="340.679638" xlink:href="#mc6626a329d" y="165.681147"/>
     <use style="fill:#4c72b0;" x="354.372674" xlink:href="#mc6626a329d" y="80.260659"/>
     <use style="fill:#4c72b0;" x="411.474594" xlink:href="#mc6626a329d" y="119.106202"/>
     <use style="fill:#4c72b0;" x="549.007524" xlink:href="#mc6626a329d" y="92.456752"/>
     <use style="fill:#4c72b0;" x="508.434631" xlink:href="#mc6626a329d" y="80.260659"/>
     <use style="fill:#4c72b0;" x="495.0533" xlink:href="#mc6626a329d" y="126.835605"/>
     <use style="fill:#4c72b0;" x="393.167608" xlink:href="#mc6626a329d" y="139.031697"/>
     <use style="fill:#4c72b0;" x="487.485318" xlink:href="#mc6626a329d" y="80.260659"/>
     <use style="fill:#4c72b0;" x="318.961729" xlink:href="#mc6626a329d" y="109.646178"/>
     <use style="fill:#4c72b0;" x="473.728941" xlink:href="#mc6626a329d" y="109.646178"/>
     <use style="fill:#4c72b0;" x="547.263569" xlink:href="#mc6626a329d" y="109.646178"/>
     <use style="fill:#4c72b0;" x="600.299439" xlink:href="#mc6626a329d" y="97.450086"/>
     <use style="fill:#4c72b0;" x="493.91951" xlink:href="#mc6626a329d" y="177.87724"/>
     <use style="fill:#4c72b0;" x="492.764068" xlink:href="#mc6626a329d" y="139.031697"/>
     <use style="fill:#4c72b0;" x="537.402506" xlink:href="#mc6626a329d" y="173.41055"/>
     <use style="fill:#4c72b0;" x="316.147043" xlink:href="#mc6626a329d" y="73.725543"/>
     <use style="fill:#4c72b0;" x="384.509316" xlink:href="#mc6626a329d" y="189"/>
     <use style="fill:#4c72b0;" x="516.984782" xlink:href="#mc6626a329d" y="80.260659"/>
     <use style="fill:#4c72b0;" x="486.371964" xlink:href="#mc6626a329d" y="109.646178"/>
     <use style="fill:#4c72b0;" x="416.888045" xlink:href="#mc6626a329d" y="162.75624"/>
     <use style="fill:#4c72b0;" x="504.401551" xlink:href="#mc6626a329d" y="139.031697"/>
     <use style="fill:#4c72b0;" x="477.447131" xlink:href="#mc6626a329d" y="137.22741"/>
     <use style="fill:#4c72b0;" x="501.037474" xlink:href="#mc6626a329d" y="80.260659"/>
     <use style="fill:#4c72b0;" x="557.419736" xlink:href="#mc6626a329d" y="41.415117"/>
     <use style="fill:#4c72b0;" x="445.800615" xlink:href="#mc6626a329d" y="75.267325"/>
     <use style="fill:#4c72b0;" x="381.650289" xlink:href="#mc6626a329d" y="126.835605"/>
     <use style="fill:#4c72b0;" x="481.514586" xlink:href="#mc6626a329d" y="80.260659"/>
     <use style="fill:#4c72b0;" x="369.833167" xlink:href="#mc6626a329d" y="109.646178"/>
     <use style="fill:#4c72b0;" x="520.576177" xlink:href="#mc6626a329d" y="80.260659"/>
     <use style="fill:#4c72b0;" x="408.103833" xlink:href="#mc6626a329d" y="119.106202"/>
     <use style="fill:#4c72b0;" x="498.827006" xlink:href="#mc6626a329d" y="92.456752"/>
     <use style="fill:#4c72b0;" x="563.778525" xlink:href="#mc6626a329d" y="109.646178"/>
     <use style="fill:#4c72b0;" x="491.98133" xlink:href="#mc6626a329d" y="131.302294"/>
     <use style="fill:#4c72b0;" x="509.446541" xlink:href="#mc6626a329d" y="109.646178"/>
     <use style="fill:#4c72b0;" x="368.026919" xlink:href="#mc6626a329d" y="119.106202"/>
     <use style="fill:#4c72b0;" x="517.348487" xlink:href="#mc6626a329d" y="144.025031"/>
     <use style="fill:#4c72b0;" x="420.073245" xlink:href="#mc6626a329d" y="80.260659"/>
     <use style="fill:#4c72b0;" x="504.337355" xlink:href="#mc6626a329d" y="80.260659"/>
     <use style="fill:#4c72b0;" x="347.054458" xlink:href="#mc6626a329d" y="92.456752"/>
     <use style="fill:#4c72b0;" x="425.980843" xlink:href="#mc6626a329d" y="92.456752"/>
     <use style="fill:#4c72b0;" x="445.120778" xlink:href="#mc6626a329d" y="126.835605"/>
     <use style="fill:#4c72b0;" x="430.280191" xlink:href="#mc6626a329d" y="139.031697"/>
     <use style="fill:#4c72b0;" x="397.072499" xlink:href="#mc6626a329d" y="97.450086"/>
     <use style="fill:#4c72b0;" x="468.503057" xlink:href="#mc6626a329d" y="116.181295"/>
     <use style="fill:#4c72b0;" x="279.712526" xlink:href="#mc6626a329d" y="109.646178"/>
     <use style="fill:#4c72b0;" x="600.009437" xlink:href="#mc6626a329d" y="109.646178"/>
     <use style="fill:#4c72b0;" x="468.965811" xlink:href="#mc6626a329d" y="97.450086"/>
     <use style="fill:#4c72b0;" x="271.256255" xlink:href="#mc6626a329d" y="80.260659"/>
     <use style="fill:#4c72b0;" x="432.636428" xlink:href="#mc6626a329d" y="101.916776"/>
     <use style="fill:#4c72b0;" x="501.37568" xlink:href="#mc6626a329d" y="73.725543"/>
     <use style="fill:#4c72b0;" x="355.885374" xlink:href="#mc6626a329d" y="119.106202"/>
     <use style="fill:#4c72b0;" x="427.37182" xlink:href="#mc6626a329d" y="80.260659"/>
     <use style="fill:#4c72b0;" x="215.816245" xlink:href="#mc6626a329d" y="80.260659"/>
     <use style="fill:#4c72b0;" x="388.122618" xlink:href="#mc6626a329d" y="80.260659"/>
     <use style="fill:#4c72b0;" x="453.413342" xlink:href="#mc6626a329d" y="80.260659"/>
     <use style="fill:#4c72b0;" x="413.525801" xlink:href="#mc6626a329d" y="126.835605"/>
     <use style="fill:#4c72b0;" x="277.02298" xlink:href="#mc6626a329d" y="119.106202"/>
     <use style="fill:#4c72b0;" x="518.324807" xlink:href="#mc6626a329d" y="115.307154"/>
     <use style="fill:#4c72b0;" x="422.107212" xlink:href="#mc6626a329d" y="97.450086"/>
     <use style="fill:#4c72b0;" x="249.6757" xlink:href="#mc6626a329d" y="89.720684"/>
     <use style="fill:#4c72b0;" x="545.662819" xlink:href="#mc6626a329d" y="97.450086"/>
     <use style="fill:#4c72b0;" x="173.877497" xlink:href="#mc6626a329d" y="181.917852"/>
     <use style="fill:#4c72b0;" x="352.821183" xlink:href="#mc6626a329d" y="92.456752"/>
     <use style="fill:#4c72b0;" x="501.37568" xlink:href="#mc6626a329d" y="80.260659"/>
     <use style="fill:#4c72b0;" x="371.008055" xlink:href="#mc6626a329d" y="109.646178"/>
     <use style="fill:#4c72b0;" x="306.820183" xlink:href="#mc6626a329d" y="156.221123"/>
     <use style="fill:#4c72b0;" x="369.237056" xlink:href="#mc6626a329d" y="139.031697"/>
     <use style="fill:#4c72b0;" x="417.159977" xlink:href="#mc6626a329d" y="80.260659"/>
     <use style="fill:#4c72b0;" x="402.494467" xlink:href="#mc6626a329d" y="80.260659"/>
     <use style="fill:#4c72b0;" x="492.452187" xlink:href="#mc6626a329d" y="109.646178"/>
     <use style="fill:#4c72b0;" x="503.496548" xlink:href="#mc6626a329d" y="80.260659"/>
     <use style="fill:#4c72b0;" x="433.263427" xlink:href="#mc6626a329d" y="162.75624"/>
     <use style="fill:#4c72b0;" x="443.386997" xlink:href="#mc6626a329d" y="109.646178"/>
     <use style="fill:#4c72b0;" x="90" xlink:href="#mc6626a329d" y="50.875141"/>
     <use style="fill:#4c72b0;" x="424.796758" xlink:href="#mc6626a329d" y="109.646178"/>
     <use style="fill:#4c72b0;" x="287.130558" xlink:href="#mc6626a329d" y="80.260659"/>
     <use style="fill:#4c72b0;" x="441.602064" xlink:href="#mc6626a329d" y="94.525179"/>
     <use style="fill:#4c72b0;" x="451.4443" xlink:href="#mc6626a329d" y="80.260659"/>
     <use style="fill:#4c72b0;" x="446.806258" xlink:href="#mc6626a329d" y="87.990062"/>
     <use style="fill:#4c72b0;" x="517.915644" xlink:href="#mc6626a329d" y="139.031697"/>
     <use style="fill:#4c72b0;" x="379.160027" xlink:href="#mc6626a329d" y="92.456752"/>
     <use style="fill:#4c72b0;" x="408.418145" xlink:href="#mc6626a329d" y="80.260659"/>
     <use style="fill:#4c72b0;" x="523.733666" xlink:href="#mc6626a329d" y="109.646178"/>
     <use style="fill:#4c72b0;" x="432.636428" xlink:href="#mc6626a329d" y="109.646178"/>
     <use style="fill:#4c72b0;" x="335.676391" xlink:href="#mc6626a329d" y="89.720684"/>
     <use style="fill:#4c72b0;" x="451.135602" xlink:href="#mc6626a329d" y="139.031697"/>
     <use style="fill:#4c72b0;" x="481.044461" xlink:href="#mc6626a329d" y="50.875141"/>
     <use style="fill:#4c72b0;" x="436.894806" xlink:href="#mc6626a329d" y="80.260659"/>
     <use style="fill:#4c72b0;" x="345.300572" xlink:href="#mc6626a329d" y="80.260659"/>
     <use style="fill:#4c72b0;" x="393.167608" xlink:href="#mc6626a329d" y="80.260659"/>
    </g>
   </g>
   <g id="patch_3">
    <path d="M 90 189 
L 90 25.92 
" style="fill:none;stroke:#262626;stroke-linecap:square;stroke-linejoin:miter;stroke-width:1.25;"/>
   </g>
   <g id="patch_4">
    <path d="M 648 189 
L 648 25.92 
" style="fill:none;stroke:#262626;stroke-linecap:square;stroke-linejoin:miter;stroke-width:1.25;"/>
   </g>
   <g id="patch_5">
    <path d="M 90 189 
L 648 189 
" style="fill:none;stroke:#262626;stroke-linecap:square;stroke-linejoin:miter;stroke-width:1.25;"/>
   </g>
   <g id="patch_6">
    <path d="M 90 25.92 
L 648 25.92 
" style="fill:none;stroke:#262626;stroke-linecap:square;stroke-linejoin:miter;stroke-width:1.25;"/>
   </g>
  </g>
 </g>
 <defs>
  <clipPath id="pa566c7b7b8">
   <rect height="163.08" width="558" x="90" y="25.92"/>
  </clipPath>
 </defs>
</svg>
