<?xml version="1.0" encoding="utf-8" standalone="no"?>
<!DOCTYPE svg PUBLIC "-//W3C//DTD SVG 1.1//EN"
  "http://www.w3.org/Graphics/SVG/1.1/DTD/svg11.dtd">
<!-- Created with matplotlib (http://matplotlib.org/) -->
<svg height="216pt" version="1.1" viewBox="0 0 720 216" width="720pt" xmlns="http://www.w3.org/2000/svg" xmlns:xlink="http://www.w3.org/1999/xlink">
 <defs>
  <style type="text/css">
*{stroke-linecap:butt;stroke-linejoin:round;stroke-miterlimit:100000;}
  </style>
 </defs>
 <g id="figure_1">
  <g id="patch_1">
   <path d="M 0 216 
L 720 216 
L 720 0 
L 0 0 
z
" style="fill:#ffffff;"/>
  </g>
  <g id="axes_1">
   <g id="patch_2">
    <path d="M 90 194.4 
L 648 194.4 
L 648 21.6 
L 90 21.6 
z
" style="fill:#ffffff;"/>
   </g>
   <g id="matplotlib.axis_1">
    <g id="xtick_1">
     <g id="line2d_1"/>
     <g id="line2d_2"/>
     <g id="text_1">
      <!-- $\mathdefault{10^{-2}}$ -->
      <defs>
       <path d="M 4.15625 35.296875 
Q 4.15625 48 6.765625 55.734375 
Q 9.375 63.484375 14.515625 67.671875 
Q 19.671875 71.875 27.484375 71.875 
Q 33.25 71.875 37.59375 69.546875 
Q 41.9375 67.234375 44.765625 62.859375 
Q 47.609375 58.5 49.21875 52.21875 
Q 50.828125 45.953125 50.828125 35.296875 
Q 50.828125 22.703125 48.234375 14.96875 
Q 45.65625 7.234375 40.5 3 
Q 35.359375 -1.21875 27.484375 -1.21875 
Q 17.140625 -1.21875 11.234375 6.203125 
Q 4.15625 15.140625 4.15625 35.296875 
M 13.1875 35.296875 
Q 13.1875 17.671875 17.3125 11.828125 
Q 21.4375 6 27.484375 6 
Q 33.546875 6 37.671875 11.859375 
Q 41.796875 17.71875 41.796875 35.296875 
Q 41.796875 52.984375 37.671875 58.78125 
Q 33.546875 64.59375 27.390625 64.59375 
Q 21.34375 64.59375 17.71875 59.46875 
Q 13.1875 52.9375 13.1875 35.296875 
" id="ArialMT-30"/>
       <path d="M 37.25 0 
L 28.46875 0 
L 28.46875 56 
Q 25.296875 52.984375 20.140625 49.953125 
Q 14.984375 46.921875 10.890625 45.40625 
L 10.890625 53.90625 
Q 18.265625 57.375 23.78125 62.296875 
Q 29.296875 67.234375 31.59375 71.875 
L 37.25 71.875 
z
" id="ArialMT-31"/>
       <path d="M 50.34375 8.453125 
L 50.34375 0 
L 3.03125 0 
Q 2.9375 3.171875 4.046875 6.109375 
Q 5.859375 10.9375 9.828125 15.625 
Q 13.8125 20.3125 21.34375 26.46875 
Q 33.015625 36.03125 37.109375 41.625 
Q 41.21875 47.21875 41.21875 52.203125 
Q 41.21875 57.421875 37.46875 61 
Q 33.734375 64.59375 27.734375 64.59375 
Q 21.390625 64.59375 17.578125 60.78125 
Q 13.765625 56.984375 13.71875 50.25 
L 4.6875 51.171875 
Q 5.609375 61.28125 11.65625 66.578125 
Q 17.71875 71.875 27.9375 71.875 
Q 38.234375 71.875 44.234375 66.15625 
Q 50.25 60.453125 50.25 52 
Q 50.25 47.703125 48.484375 43.546875 
Q 46.734375 39.40625 42.65625 34.8125 
Q 38.578125 30.21875 29.109375 22.21875 
Q 21.1875 15.578125 18.9375 13.203125 
Q 16.703125 10.84375 15.234375 8.453125 
z
" id="ArialMT-32"/>
       <path d="M 3.171875 21.484375 
L 3.171875 30.328125 
L 30.171875 30.328125 
L 30.171875 21.484375 
z
" id="ArialMT-2d"/>
      </defs>
      <g style="fill:#262626;" transform="translate(82.52 206.25)scale(0.08 -0.08)">
       <use transform="translate(0.0 0.884375)" xlink:href="#ArialMT-31"/>
       <use transform="translate(55.615234375 0.884375)" xlink:href="#ArialMT-30"/>
       <use transform="translate(116.4575 45.6875)scale(0.7)" xlink:href="#ArialMT-2d"/>
       <use transform="translate(139.768046875 45.6875)scale(0.7)" xlink:href="#ArialMT-32"/>
      </g>
     </g>
    </g>
    <g id="xtick_2">
     <g id="line2d_3"/>
     <g id="line2d_4"/>
     <g id="text_2">
      <!-- $\mathdefault{10^{-1}}$ -->
      <g style="fill:#262626;" transform="translate(222.02 206.25)scale(0.08 -0.08)">
       <use transform="translate(0.0 0.884375)" xlink:href="#ArialMT-31"/>
       <use transform="translate(55.615234375 0.884375)" xlink:href="#ArialMT-30"/>
       <use transform="translate(116.4575 45.6875)scale(0.7)" xlink:href="#ArialMT-2d"/>
       <use transform="translate(139.768046875 45.6875)scale(0.7)" xlink:href="#ArialMT-31"/>
      </g>
     </g>
    </g>
    <g id="xtick_3">
     <g id="line2d_5"/>
     <g id="line2d_6"/>
     <g id="text_3">
      <!-- $\mathdefault{10^{0}}$ -->
      <g style="fill:#262626;" transform="translate(362.48 206.25)scale(0.08 -0.08)">
       <use transform="translate(0.0 0.884375)" xlink:href="#ArialMT-31"/>
       <use transform="translate(55.615234375 0.884375)" xlink:href="#ArialMT-30"/>
       <use transform="translate(116.4575 45.6875)scale(0.7)" xlink:href="#ArialMT-30"/>
      </g>
     </g>
    </g>
    <g id="xtick_4">
     <g id="line2d_7"/>
     <g id="line2d_8"/>
     <g id="text_4">
      <!-- $\mathdefault{10^{1}}$ -->
      <g style="fill:#262626;" transform="translate(501.98 206.25)scale(0.08 -0.08)">
       <use transform="translate(0.0 0.884375)" xlink:href="#ArialMT-31"/>
       <use transform="translate(55.615234375 0.884375)" xlink:href="#ArialMT-30"/>
       <use transform="translate(116.4575 45.6875)scale(0.7)" xlink:href="#ArialMT-31"/>
      </g>
     </g>
    </g>
    <g id="xtick_5">
     <g id="line2d_9"/>
     <g id="line2d_10"/>
     <g id="text_5">
      <!-- $\mathdefault{10^{2}}$ -->
      <g style="fill:#262626;" transform="translate(641.48 206.25)scale(0.08 -0.08)">
       <use transform="translate(0.0 0.884375)" xlink:href="#ArialMT-31"/>
       <use transform="translate(55.615234375 0.884375)" xlink:href="#ArialMT-30"/>
       <use transform="translate(116.4575 45.6875)scale(0.7)" xlink:href="#ArialMT-32"/>
      </g>
     </g>
    </g>
    <g id="xtick_6">
     <g id="line2d_11"/>
     <g id="line2d_12"/>
    </g>
    <g id="xtick_7">
     <g id="line2d_13"/>
     <g id="line2d_14"/>
    </g>
    <g id="xtick_8">
     <g id="line2d_15"/>
     <g id="line2d_16"/>
    </g>
    <g id="xtick_9">
     <g id="line2d_17"/>
     <g id="line2d_18"/>
    </g>
    <g id="xtick_10">
     <g id="line2d_19"/>
     <g id="line2d_20"/>
    </g>
    <g id="xtick_11">
     <g id="line2d_21"/>
     <g id="line2d_22"/>
    </g>
    <g id="xtick_12">
     <g id="line2d_23"/>
     <g id="line2d_24"/>
    </g>
    <g id="xtick_13">
     <g id="line2d_25"/>
     <g id="line2d_26"/>
    </g>
    <g id="xtick_14">
     <g id="line2d_27"/>
     <g id="line2d_28"/>
    </g>
    <g id="xtick_15">
     <g id="line2d_29"/>
     <g id="line2d_30"/>
    </g>
    <g id="xtick_16">
     <g id="line2d_31"/>
     <g id="line2d_32"/>
    </g>
    <g id="xtick_17">
     <g id="line2d_33"/>
     <g id="line2d_34"/>
    </g>
    <g id="xtick_18">
     <g id="line2d_35"/>
     <g id="line2d_36"/>
    </g>
    <g id="xtick_19">
     <g id="line2d_37"/>
     <g id="line2d_38"/>
    </g>
    <g id="xtick_20">
     <g id="line2d_39"/>
     <g id="line2d_40"/>
    </g>
    <g id="xtick_21">
     <g id="line2d_41"/>
     <g id="line2d_42"/>
    </g>
    <g id="xtick_22">
     <g id="line2d_43"/>
     <g id="line2d_44"/>
    </g>
    <g id="xtick_23">
     <g id="line2d_45"/>
     <g id="line2d_46"/>
    </g>
    <g id="xtick_24">
     <g id="line2d_47"/>
     <g id="line2d_48"/>
    </g>
    <g id="xtick_25">
     <g id="line2d_49"/>
     <g id="line2d_50"/>
    </g>
    <g id="xtick_26">
     <g id="line2d_51"/>
     <g id="line2d_52"/>
    </g>
    <g id="xtick_27">
     <g id="line2d_53"/>
     <g id="line2d_54"/>
    </g>
    <g id="xtick_28">
     <g id="line2d_55"/>
     <g id="line2d_56"/>
    </g>
    <g id="xtick_29">
     <g id="line2d_57"/>
     <g id="line2d_58"/>
    </g>
    <g id="xtick_30">
     <g id="line2d_59"/>
     <g id="line2d_60"/>
    </g>
    <g id="xtick_31">
     <g id="line2d_61"/>
     <g id="line2d_62"/>
    </g>
    <g id="xtick_32">
     <g id="line2d_63"/>
     <g id="line2d_64"/>
    </g>
    <g id="xtick_33">
     <g id="line2d_65"/>
     <g id="line2d_66"/>
    </g>
    <g id="xtick_34">
     <g id="line2d_67"/>
     <g id="line2d_68"/>
    </g>
    <g id="xtick_35">
     <g id="line2d_69"/>
     <g id="line2d_70"/>
    </g>
    <g id="xtick_36">
     <g id="line2d_71"/>
     <g id="line2d_72"/>
    </g>
    <g id="xtick_37">
     <g id="line2d_73"/>
     <g id="line2d_74"/>
    </g>
    <g id="text_6">
     <!-- logRI -->
     <defs>
      <path d="M 6.390625 0 
L 6.390625 71.578125 
L 15.1875 71.578125 
L 15.1875 0 
z
" id="ArialMT-6c"/>
      <path d="M 7.859375 0 
L 7.859375 71.578125 
L 39.59375 71.578125 
Q 49.171875 71.578125 54.140625 69.640625 
Q 59.125 67.71875 62.109375 62.828125 
Q 65.09375 57.953125 65.09375 52.046875 
Q 65.09375 44.4375 60.15625 39.203125 
Q 55.21875 33.984375 44.921875 32.5625 
Q 48.6875 30.765625 50.640625 29 
Q 54.78125 25.203125 58.5 19.484375 
L 70.953125 0 
L 59.03125 0 
L 49.5625 14.890625 
Q 45.40625 21.34375 42.71875 24.75 
Q 40.046875 28.171875 37.921875 29.53125 
Q 35.796875 30.90625 33.59375 31.453125 
Q 31.984375 31.78125 28.328125 31.78125 
L 17.328125 31.78125 
L 17.328125 0 
z
M 17.328125 39.984375 
L 37.703125 39.984375 
Q 44.1875 39.984375 47.84375 41.328125 
Q 51.515625 42.671875 53.421875 45.625 
Q 55.328125 48.578125 55.328125 52.046875 
Q 55.328125 57.125 51.640625 60.390625 
Q 47.953125 63.671875 39.984375 63.671875 
L 17.328125 63.671875 
z
" id="ArialMT-52"/>
      <path d="M 4.984375 -4.296875 
L 13.53125 -5.5625 
Q 14.0625 -9.515625 16.5 -11.328125 
Q 19.78125 -13.765625 25.4375 -13.765625 
Q 31.546875 -13.765625 34.859375 -11.328125 
Q 38.1875 -8.890625 39.359375 -4.5 
Q 40.046875 -1.8125 39.984375 6.78125 
Q 34.234375 0 25.640625 0 
Q 14.9375 0 9.078125 7.71875 
Q 3.21875 15.4375 3.21875 26.21875 
Q 3.21875 33.640625 5.90625 39.90625 
Q 8.59375 46.1875 13.6875 49.609375 
Q 18.796875 53.03125 25.6875 53.03125 
Q 34.859375 53.03125 40.828125 45.609375 
L 40.828125 51.859375 
L 48.921875 51.859375 
L 48.921875 7.03125 
Q 48.921875 -5.078125 46.453125 -10.125 
Q 44 -15.1875 38.640625 -18.109375 
Q 33.296875 -21.046875 25.484375 -21.046875 
Q 16.21875 -21.046875 10.5 -16.875 
Q 4.78125 -12.703125 4.984375 -4.296875 
M 12.25 26.859375 
Q 12.25 16.65625 16.296875 11.96875 
Q 20.359375 7.28125 26.46875 7.28125 
Q 32.515625 7.28125 36.609375 11.9375 
Q 40.71875 16.609375 40.71875 26.5625 
Q 40.71875 36.078125 36.5 40.90625 
Q 32.28125 45.75 26.3125 45.75 
Q 20.453125 45.75 16.34375 40.984375 
Q 12.25 36.234375 12.25 26.859375 
" id="ArialMT-67"/>
      <path d="M 3.328125 25.921875 
Q 3.328125 40.328125 11.328125 47.265625 
Q 18.015625 53.03125 27.640625 53.03125 
Q 38.328125 53.03125 45.109375 46.015625 
Q 51.90625 39.015625 51.90625 26.65625 
Q 51.90625 16.65625 48.90625 10.90625 
Q 45.90625 5.171875 40.15625 2 
Q 34.421875 -1.171875 27.640625 -1.171875 
Q 16.75 -1.171875 10.03125 5.8125 
Q 3.328125 12.796875 3.328125 25.921875 
M 12.359375 25.921875 
Q 12.359375 15.96875 16.703125 11.015625 
Q 21.046875 6.0625 27.640625 6.0625 
Q 34.1875 6.0625 38.53125 11.03125 
Q 42.875 16.015625 42.875 26.21875 
Q 42.875 35.84375 38.5 40.796875 
Q 34.125 45.75 27.640625 45.75 
Q 21.046875 45.75 16.703125 40.8125 
Q 12.359375 35.890625 12.359375 25.921875 
" id="ArialMT-6f"/>
      <path d="M 9.328125 0 
L 9.328125 71.578125 
L 18.796875 71.578125 
L 18.796875 0 
z
" id="ArialMT-49"/>
     </defs>
     <g style="fill:#262626;" transform="translate(358.72875 219.138875)scale(0.088 -0.088)">
      <use xlink:href="#ArialMT-6c"/>
      <use x="22.216796875" xlink:href="#ArialMT-6f"/>
      <use x="77.83203125" xlink:href="#ArialMT-67"/>
      <use x="133.447265625" xlink:href="#ArialMT-52"/>
      <use x="205.6640625" xlink:href="#ArialMT-49"/>
     </g>
    </g>
   </g>
   <g id="matplotlib.axis_2">
    <g id="ytick_1">
     <g id="line2d_75"/>
     <g id="line2d_76"/>
     <g id="text_7">
      <!-- $\mathdefault{10^{-2}}$ -->
      <g style="fill:#262626;" transform="translate(69.44 196.73)scale(0.08 -0.08)">
       <use transform="translate(0.0 0.884375)" xlink:href="#ArialMT-31"/>
       <use transform="translate(55.615234375 0.884375)" xlink:href="#ArialMT-30"/>
       <use transform="translate(116.4575 45.6875)scale(0.7)" xlink:href="#ArialMT-2d"/>
       <use transform="translate(139.768046875 45.6875)scale(0.7)" xlink:href="#ArialMT-32"/>
      </g>
     </g>
    </g>
    <g id="ytick_2">
     <g id="line2d_77"/>
     <g id="line2d_78"/>
     <g id="text_8">
      <!-- $\mathdefault{10^{-1}}$ -->
      <g style="fill:#262626;" transform="translate(69.44 139.13)scale(0.08 -0.08)">
       <use transform="translate(0.0 0.884375)" xlink:href="#ArialMT-31"/>
       <use transform="translate(55.615234375 0.884375)" xlink:href="#ArialMT-30"/>
       <use transform="translate(116.4575 45.6875)scale(0.7)" xlink:href="#ArialMT-2d"/>
       <use transform="translate(139.768046875 45.6875)scale(0.7)" xlink:href="#ArialMT-31"/>
      </g>
     </g>
    </g>
    <g id="ytick_3">
     <g id="line2d_79"/>
     <g id="line2d_80"/>
     <g id="text_9">
      <!-- $\mathdefault{10^{0}}$ -->
      <g style="fill:#262626;" transform="translate(71.36 81.53)scale(0.08 -0.08)">
       <use transform="translate(0.0 0.884375)" xlink:href="#ArialMT-31"/>
       <use transform="translate(55.615234375 0.884375)" xlink:href="#ArialMT-30"/>
       <use transform="translate(116.4575 45.6875)scale(0.7)" xlink:href="#ArialMT-30"/>
      </g>
     </g>
    </g>
    <g id="ytick_4">
     <g id="line2d_81"/>
     <g id="line2d_82"/>
     <g id="text_10">
      <!-- $\mathdefault{10^{1}}$ -->
      <g style="fill:#262626;" transform="translate(71.36 23.93)scale(0.08 -0.08)">
       <use transform="translate(0.0 0.884375)" xlink:href="#ArialMT-31"/>
       <use transform="translate(55.615234375 0.884375)" xlink:href="#ArialMT-30"/>
       <use transform="translate(116.4575 45.6875)scale(0.7)" xlink:href="#ArialMT-31"/>
      </g>
     </g>
    </g>
    <g id="ytick_5">
     <g id="line2d_83"/>
     <g id="line2d_84"/>
    </g>
    <g id="ytick_6">
     <g id="line2d_85"/>
     <g id="line2d_86"/>
    </g>
    <g id="ytick_7">
     <g id="line2d_87"/>
     <g id="line2d_88"/>
    </g>
    <g id="ytick_8">
     <g id="line2d_89"/>
     <g id="line2d_90"/>
    </g>
    <g id="ytick_9">
     <g id="line2d_91"/>
     <g id="line2d_92"/>
    </g>
    <g id="ytick_10">
     <g id="line2d_93"/>
     <g id="line2d_94"/>
    </g>
    <g id="ytick_11">
     <g id="line2d_95"/>
     <g id="line2d_96"/>
    </g>
    <g id="ytick_12">
     <g id="line2d_97"/>
     <g id="line2d_98"/>
    </g>
    <g id="ytick_13">
     <g id="line2d_99"/>
     <g id="line2d_100"/>
    </g>
    <g id="ytick_14">
     <g id="line2d_101"/>
     <g id="line2d_102"/>
    </g>
    <g id="ytick_15">
     <g id="line2d_103"/>
     <g id="line2d_104"/>
    </g>
    <g id="ytick_16">
     <g id="line2d_105"/>
     <g id="line2d_106"/>
    </g>
    <g id="ytick_17">
     <g id="line2d_107"/>
     <g id="line2d_108"/>
    </g>
    <g id="ytick_18">
     <g id="line2d_109"/>
     <g id="line2d_110"/>
    </g>
    <g id="ytick_19">
     <g id="line2d_111"/>
     <g id="line2d_112"/>
    </g>
    <g id="ytick_20">
     <g id="line2d_113"/>
     <g id="line2d_114"/>
    </g>
    <g id="ytick_21">
     <g id="line2d_115"/>
     <g id="line2d_116"/>
    </g>
    <g id="ytick_22">
     <g id="line2d_117"/>
     <g id="line2d_118"/>
    </g>
    <g id="ytick_23">
     <g id="line2d_119"/>
     <g id="line2d_120"/>
    </g>
    <g id="ytick_24">
     <g id="line2d_121"/>
     <g id="line2d_122"/>
    </g>
    <g id="ytick_25">
     <g id="line2d_123"/>
     <g id="line2d_124"/>
    </g>
    <g id="ytick_26">
     <g id="line2d_125"/>
     <g id="line2d_126"/>
    </g>
    <g id="ytick_27">
     <g id="line2d_127"/>
     <g id="line2d_128"/>
    </g>
    <g id="ytick_28">
     <g id="line2d_129"/>
     <g id="line2d_130"/>
    </g>
    <g id="text_11">
     <!-- # Literature Refs/ # Regulators -->
     <defs>
      <path d="M 40.4375 6.390625 
Q 35.546875 2.25 31.03125 0.53125 
Q 26.515625 -1.171875 21.34375 -1.171875 
Q 12.796875 -1.171875 8.203125 3 
Q 3.609375 7.171875 3.609375 13.671875 
Q 3.609375 17.484375 5.34375 20.625 
Q 7.078125 23.78125 9.890625 25.6875 
Q 12.703125 27.59375 16.21875 28.5625 
Q 18.796875 29.25 24.03125 29.890625 
Q 34.671875 31.15625 39.703125 32.90625 
Q 39.75 34.71875 39.75 35.203125 
Q 39.75 40.578125 37.25 42.78125 
Q 33.890625 45.75 27.25 45.75 
Q 21.046875 45.75 18.09375 43.578125 
Q 15.140625 41.40625 13.71875 35.890625 
L 5.125 37.0625 
Q 6.296875 42.578125 8.984375 45.96875 
Q 11.671875 49.359375 16.75 51.1875 
Q 21.828125 53.03125 28.515625 53.03125 
Q 35.15625 53.03125 39.296875 51.46875 
Q 43.453125 49.90625 45.40625 47.53125 
Q 47.359375 45.171875 48.140625 41.546875 
Q 48.578125 39.3125 48.578125 33.453125 
L 48.578125 21.734375 
Q 48.578125 9.46875 49.140625 6.21875 
Q 49.703125 2.984375 51.375 0 
L 42.1875 0 
Q 40.828125 2.734375 40.4375 6.390625 
M 39.703125 26.03125 
Q 34.90625 24.078125 25.34375 22.703125 
Q 19.921875 21.921875 17.671875 20.9375 
Q 15.4375 19.96875 14.203125 18.09375 
Q 12.984375 16.21875 12.984375 13.921875 
Q 12.984375 10.40625 15.640625 8.0625 
Q 18.3125 5.71875 23.4375 5.71875 
Q 28.515625 5.71875 32.46875 7.9375 
Q 36.421875 10.15625 38.28125 14.015625 
Q 39.703125 17 39.703125 22.796875 
z
" id="ArialMT-61"/>
      <path d="M 8.6875 0 
L 8.6875 45.015625 
L 0.921875 45.015625 
L 0.921875 51.859375 
L 8.6875 51.859375 
L 8.6875 57.375 
Q 8.6875 62.59375 9.625 65.140625 
Q 10.890625 68.5625 14.078125 70.671875 
Q 17.28125 72.796875 23.046875 72.796875 
Q 26.765625 72.796875 31.25 71.921875 
L 29.9375 64.265625 
Q 27.203125 64.75 24.75 64.75 
Q 20.75 64.75 19.09375 63.03125 
Q 17.4375 61.328125 17.4375 56.640625 
L 17.4375 51.859375 
L 27.546875 51.859375 
L 27.546875 45.015625 
L 17.4375 45.015625 
L 17.4375 0 
z
" id="ArialMT-66"/>
      <path d="M 42.09375 16.703125 
L 51.171875 15.578125 
Q 49.03125 7.625 43.21875 3.21875 
Q 37.40625 -1.171875 28.375 -1.171875 
Q 17 -1.171875 10.328125 5.828125 
Q 3.65625 12.84375 3.65625 25.484375 
Q 3.65625 38.578125 10.390625 45.796875 
Q 17.140625 53.03125 27.875 53.03125 
Q 38.28125 53.03125 44.875 45.953125 
Q 51.46875 38.875 51.46875 26.03125 
Q 51.46875 25.25 51.421875 23.6875 
L 12.75 23.6875 
Q 13.234375 15.140625 17.578125 10.59375 
Q 21.921875 6.0625 28.421875 6.0625 
Q 33.25 6.0625 36.671875 8.59375 
Q 40.09375 11.140625 42.09375 16.703125 
M 13.234375 30.90625 
L 42.1875 30.90625 
Q 41.609375 37.453125 38.875 40.71875 
Q 34.671875 45.796875 27.984375 45.796875 
Q 21.921875 45.796875 17.796875 41.75 
Q 13.671875 37.703125 13.234375 30.90625 
" id="ArialMT-65"/>
      <path d="M 25.78125 7.859375 
L 27.046875 0.09375 
Q 23.34375 -0.6875 20.40625 -0.6875 
Q 15.625 -0.6875 12.984375 0.828125 
Q 10.359375 2.34375 9.28125 4.8125 
Q 8.203125 7.28125 8.203125 15.1875 
L 8.203125 45.015625 
L 1.765625 45.015625 
L 1.765625 51.859375 
L 8.203125 51.859375 
L 8.203125 64.703125 
L 16.9375 69.96875 
L 16.9375 51.859375 
L 25.78125 51.859375 
L 25.78125 45.015625 
L 16.9375 45.015625 
L 16.9375 14.703125 
Q 16.9375 10.9375 17.40625 9.859375 
Q 17.875 8.796875 18.921875 8.15625 
Q 19.96875 7.515625 21.921875 7.515625 
Q 23.390625 7.515625 25.78125 7.859375 
" id="ArialMT-74"/>
      <path d="M 40.578125 0 
L 40.578125 7.625 
Q 34.515625 -1.171875 24.125 -1.171875 
Q 19.53125 -1.171875 15.546875 0.578125 
Q 11.578125 2.34375 9.640625 5 
Q 7.71875 7.671875 6.9375 11.53125 
Q 6.390625 14.109375 6.390625 19.734375 
L 6.390625 51.859375 
L 15.1875 51.859375 
L 15.1875 23.09375 
Q 15.1875 16.21875 15.71875 13.8125 
Q 16.546875 10.359375 19.234375 8.375 
Q 21.921875 6.390625 25.875 6.390625 
Q 29.828125 6.390625 33.296875 8.421875 
Q 36.765625 10.453125 38.203125 13.9375 
Q 39.65625 17.4375 39.65625 24.078125 
L 39.65625 51.859375 
L 48.4375 51.859375 
L 48.4375 0 
z
" id="ArialMT-75"/>
      <path d="M 6.640625 61.46875 
L 6.640625 71.578125 
L 15.4375 71.578125 
L 15.4375 61.46875 
z
M 6.640625 0 
L 6.640625 51.859375 
L 15.4375 51.859375 
L 15.4375 0 
z
" id="ArialMT-69"/>
      <path d="M 6.5 0 
L 6.5 51.859375 
L 14.40625 51.859375 
L 14.40625 44 
Q 17.4375 49.515625 20 51.265625 
Q 22.5625 53.03125 25.640625 53.03125 
Q 30.078125 53.03125 34.671875 50.203125 
L 31.640625 42.046875 
Q 28.421875 43.953125 25.203125 43.953125 
Q 22.3125 43.953125 20.015625 42.21875 
Q 17.71875 40.484375 16.75 37.40625 
Q 15.28125 32.71875 15.28125 27.15625 
L 15.28125 0 
z
" id="ArialMT-72"/>
      <path d="M 3.078125 15.484375 
L 11.765625 16.84375 
Q 12.5 11.625 15.84375 8.84375 
Q 19.1875 6.0625 25.203125 6.0625 
Q 31.25 6.0625 34.171875 8.515625 
Q 37.109375 10.984375 37.109375 14.3125 
Q 37.109375 17.28125 34.515625 19 
Q 32.71875 20.171875 25.53125 21.96875 
Q 15.875 24.421875 12.140625 26.203125 
Q 8.40625 27.984375 6.46875 31.125 
Q 4.546875 34.28125 4.546875 38.09375 
Q 4.546875 41.546875 6.125 44.5 
Q 7.71875 47.46875 10.453125 49.421875 
Q 12.5 50.921875 16.03125 51.96875 
Q 19.578125 53.03125 23.640625 53.03125 
Q 29.734375 53.03125 34.34375 51.265625 
Q 38.96875 49.515625 41.15625 46.5 
Q 43.359375 43.5 44.1875 38.484375 
L 35.59375 37.3125 
Q 35.015625 41.3125 32.203125 43.546875 
Q 29.390625 45.796875 24.265625 45.796875 
Q 18.21875 45.796875 15.625 43.796875 
Q 13.03125 41.796875 13.03125 39.109375 
Q 13.03125 37.40625 14.109375 36.03125 
Q 15.1875 34.625 17.484375 33.6875 
Q 18.796875 33.203125 25.25 31.453125 
Q 34.578125 28.953125 38.25 27.359375 
Q 41.9375 25.78125 44.03125 22.75 
Q 46.140625 19.734375 46.140625 15.234375 
Q 46.140625 10.84375 43.578125 6.953125 
Q 41.015625 3.078125 36.171875 0.953125 
Q 31.34375 -1.171875 25.25 -1.171875 
Q 15.140625 -1.171875 9.84375 3.03125 
Q 4.546875 7.234375 3.078125 15.484375 
" id="ArialMT-73"/>
      <path d="M 0 -1.21875 
L 20.75 72.796875 
L 27.78125 72.796875 
L 7.078125 -1.21875 
z
" id="ArialMT-2f"/>
      <path d="M 7.328125 0 
L 7.328125 71.578125 
L 16.796875 71.578125 
L 16.796875 8.453125 
L 52.046875 8.453125 
L 52.046875 0 
z
" id="ArialMT-4c"/>
      <path d="M 5.03125 -1.21875 
L 9.28125 19.578125 
L 1.03125 19.578125 
L 1.03125 26.859375 
L 10.75 26.859375 
L 14.359375 44.578125 
L 1.03125 44.578125 
L 1.03125 51.859375 
L 15.828125 51.859375 
L 20.0625 72.796875 
L 27.390625 72.796875 
L 23.140625 51.859375 
L 38.53125 51.859375 
L 42.78125 72.796875 
L 50.140625 72.796875 
L 45.90625 51.859375 
L 54.34375 51.859375 
L 54.34375 44.578125 
L 44.4375 44.578125 
L 40.765625 26.859375 
L 54.34375 26.859375 
L 54.34375 19.578125 
L 39.3125 19.578125 
L 35.0625 -1.21875 
L 27.734375 -1.21875 
L 31.9375 19.578125 
L 16.609375 19.578125 
L 12.359375 -1.21875 
z
M 18.0625 26.859375 
L 33.40625 26.859375 
L 37.0625 44.578125 
L 21.6875 44.578125 
z
" id="ArialMT-23"/>
      <path id="ArialMT-20"/>
     </defs>
     <g style="fill:#262626;" transform="translate(62.587875 167.915625)rotate(-90.0)scale(0.088 -0.088)">
      <use xlink:href="#ArialMT-23"/>
      <use x="55.615234375" xlink:href="#ArialMT-20"/>
      <use x="83.3984375" xlink:href="#ArialMT-4c"/>
      <use x="139.013671875" xlink:href="#ArialMT-69"/>
      <use x="161.23046875" xlink:href="#ArialMT-74"/>
      <use x="189.013671875" xlink:href="#ArialMT-65"/>
      <use x="244.62890625" xlink:href="#ArialMT-72"/>
      <use x="277.9296875" xlink:href="#ArialMT-61"/>
      <use x="333.544921875" xlink:href="#ArialMT-74"/>
      <use x="361.328125" xlink:href="#ArialMT-75"/>
      <use x="416.943359375" xlink:href="#ArialMT-72"/>
      <use x="450.244140625" xlink:href="#ArialMT-65"/>
      <use x="505.859375" xlink:href="#ArialMT-20"/>
      <use x="533.642578125" xlink:href="#ArialMT-52"/>
      <use x="605.859375" xlink:href="#ArialMT-65"/>
      <use x="661.474609375" xlink:href="#ArialMT-66"/>
      <use x="689.2578125" xlink:href="#ArialMT-73"/>
      <use x="739.2578125" xlink:href="#ArialMT-2f"/>
      <use x="767.041015625" xlink:href="#ArialMT-20"/>
      <use x="794.82421875" xlink:href="#ArialMT-23"/>
      <use x="850.439453125" xlink:href="#ArialMT-20"/>
      <use x="878.22265625" xlink:href="#ArialMT-52"/>
      <use x="950.439453125" xlink:href="#ArialMT-65"/>
      <use x="1006.0546875" xlink:href="#ArialMT-67"/>
      <use x="1061.66992188" xlink:href="#ArialMT-75"/>
      <use x="1117.28515625" xlink:href="#ArialMT-6c"/>
      <use x="1139.50195312" xlink:href="#ArialMT-61"/>
      <use x="1195.1171875" xlink:href="#ArialMT-74"/>
      <use x="1222.90039062" xlink:href="#ArialMT-6f"/>
      <use x="1278.515625" xlink:href="#ArialMT-72"/>
      <use x="1311.81640625" xlink:href="#ArialMT-73"/>
     </g>
    </g>
   </g>
   <g id="line2d_131">
    <defs>
     <path d="M 0 2.8 
C 0.742569 2.8 1.454824 2.504974 1.979899 1.979899 
C 2.504974 1.454824 2.8 0.742569 2.8 0 
C 2.8 -0.742569 2.504974 -1.454824 1.979899 -1.979899 
C 1.454824 -2.504974 0.742569 -2.8 0 -2.8 
C -0.742569 -2.8 -1.454824 -2.504974 -1.979899 -1.979899 
C -2.504974 -1.454824 -2.8 -0.742569 -2.8 0 
C -2.8 0.742569 -2.504974 1.454824 -1.979899 1.979899 
C -1.454824 2.504974 -0.742569 2.8 0 2.8 
z
" id="m2116b803eb"/>
    </defs>
    <g clip-path="url(#p695f604f72)">
     <use style="fill:#4c72b0;" x="496.918716601" xlink:href="#m2116b803eb" y="79.2"/>
     <use style="fill:#4c72b0;" x="372.530168204" xlink:href="#m2116b803eb" y="73.6179832507"/>
     <use style="fill:#4c72b0;" x="459.58221279" xlink:href="#m2116b803eb" y="124.021512022"/>
     <use style="fill:#4c72b0;" x="383.955790766" xlink:href="#m2116b803eb" y="106.682184272"/>
     <use style="fill:#4c72b0;" x="513.609730903" xlink:href="#m2116b803eb" y="139.184218665"/>
     <use style="fill:#4c72b0;" x="469.462222825" xlink:href="#m2116b803eb" y="79.2"/>
     <use style="fill:#4c72b0;" x="329.382466437" xlink:href="#m2116b803eb" y="96.5393277502"/>
     <use style="fill:#4c72b0;" x="363.286274229" xlink:href="#m2116b803eb" y="79.2"/>
     <use style="fill:#4c72b0;" x="430.066203513" xlink:href="#m2116b803eb" y="79.2"/>
     <use style="fill:#4c72b0;" x="479.928250261" xlink:href="#m2116b803eb" y="79.2"/>
     <use style="fill:#4c72b0;" x="480.315370301" xlink:href="#m2116b803eb" y="90.957311001"/>
     <use style="fill:#4c72b0;" x="449.560106077" xlink:href="#m2116b803eb" y="66.4215120221"/>
     <use style="fill:#4c72b0;" x="424.26980892" xlink:href="#m2116b803eb" y="109.317815728"/>
     <use style="fill:#4c72b0;" x="440.407728857" xlink:href="#m2116b803eb" y="96.5393277502"/>
     <use style="fill:#4c72b0;" x="287.388782042" xlink:href="#m2116b803eb" y="72.0035287714"/>
     <use style="fill:#4c72b0;" x="508.013378266" xlink:href="#m2116b803eb" y="94.362706643"/>
     <use style="fill:#4c72b0;" x="440.593855209" xlink:href="#m2116b803eb" y="86.3964712286"/>
     <use style="fill:#4c72b0;" x="447.439854592" xlink:href="#m2116b803eb" y="127.877647105"/>
     <use style="fill:#4c72b0;" x="444.201115782" xlink:href="#m2116b803eb" y="121.844890915"/>
     <use style="fill:#4c72b0;" x="345.634993323" xlink:href="#m2116b803eb" y="79.2"/>
     <use style="fill:#4c72b0;" x="483.601137212" xlink:href="#m2116b803eb" y="79.2"/>
     <use style="fill:#4c72b0;" x="550.856102706" xlink:href="#m2116b803eb" y="83.7608397723"/>
     <use style="fill:#4c72b0;" x="439.468421976" xlink:href="#m2116b803eb" y="119.46067225"/>
     <use style="fill:#4c72b0;" x="499.292046354" xlink:href="#m2116b803eb" y="73.6179832507"/>
     <use style="fill:#4c72b0;" x="501.914545805" xlink:href="#m2116b803eb" y="79.2"/>
     <use style="fill:#4c72b0;" x="444.897492187" xlink:href="#m2116b803eb" y="79.2"/>
     <use style="fill:#4c72b0;" x="533.507392775" xlink:href="#m2116b803eb" y="86.3964712286"/>
     <use style="fill:#4c72b0;" x="504.363389234" xlink:href="#m2116b803eb" y="72.0035287714"/>
     <use style="fill:#4c72b0;" x="432.237908437" xlink:href="#m2116b803eb" y="102.1213445"/>
     <use style="fill:#4c72b0;" x="515.958033387" xlink:href="#m2116b803eb" y="61.8606722498"/>
     <use style="fill:#4c72b0;" x="536.059091735" xlink:href="#m2116b803eb" y="69.0571434784"/>
     <use style="fill:#4c72b0;" x="535.012172777" xlink:href="#m2116b803eb" y="89.3428565216"/>
     <use style="fill:#4c72b0;" x="410.07803855" xlink:href="#m2116b803eb" y="79.2"/>
     <use style="fill:#4c72b0;" x="494.601214448" xlink:href="#m2116b803eb" y="102.1213445"/>
     <use style="fill:#4c72b0;" x="308.764140507" xlink:href="#m2116b803eb" y="91.9784879779"/>
     <use style="fill:#4c72b0;" x="477.552099429" xlink:href="#m2116b803eb" y="96.5393277502"/>
     <use style="fill:#4c72b0;" x="504.751335577" xlink:href="#m2116b803eb" y="116.825040793"/>
     <use style="fill:#4c72b0;" x="457.929817267" xlink:href="#m2116b803eb" y="79.2"/>
     <use style="fill:#4c72b0;" x="449.560106077" xlink:href="#m2116b803eb" y="87.6169748551"/>
     <use style="fill:#4c72b0;" x="528.62465694" xlink:href="#m2116b803eb" y="86.3964712286"/>
     <use style="fill:#4c72b0;" x="520.497516934" xlink:href="#m2116b803eb" y="91.9784879779"/>
     <use style="fill:#4c72b0;" x="498.582622789" xlink:href="#m2116b803eb" y="124.021512022"/>
     <use style="fill:#4c72b0;" x="487.23638595" xlink:href="#m2116b803eb" y="96.5393277502"/>
     <use style="fill:#4c72b0;" x="602.694341376" xlink:href="#m2116b803eb" y="79.2"/>
     <use style="fill:#4c72b0;" x="430.066203513" xlink:href="#m2116b803eb" y="65.7168073325"/>
     <use style="fill:#4c72b0;" x="498.653940137" xlink:href="#m2116b803eb" y="79.2"/>
     <use style="fill:#4c72b0;" x="541.426624023" xlink:href="#m2116b803eb" y="79.2"/>
     <use style="fill:#4c72b0;" x="571.395624587" xlink:href="#m2116b803eb" y="79.2"/>
     <use style="fill:#4c72b0;" x="439.468421976" xlink:href="#m2116b803eb" y="79.2"/>
     <use style="fill:#4c72b0;" x="616.463604322" xlink:href="#m2116b803eb" y="79.2"/>
     <use style="fill:#4c72b0;" x="446.097216148" xlink:href="#m2116b803eb" y="103.735798979"/>
     <use style="fill:#4c72b0;" x="415.656298286" xlink:href="#m2116b803eb" y="96.5393277502"/>
     <use style="fill:#4c72b0;" x="498.51122139" xlink:href="#m2116b803eb" y="89.3428565216"/>
     <use style="fill:#4c72b0;" x="327.006315605" xlink:href="#m2116b803eb" y="86.3964712286"/>
     <use style="fill:#4c72b0;" x="462.499296504" xlink:href="#m2116b803eb" y="79.2"/>
     <use style="fill:#4c72b0;" x="528.450564635" xlink:href="#m2116b803eb" y="77.3461622378"/>
     <use style="fill:#4c72b0;" x="530.29634356" xlink:href="#m2116b803eb" y="69.0571434784"/>
     <use style="fill:#4c72b0;" x="622.347159568" xlink:href="#m2116b803eb" y="79.2"/>
     <use style="fill:#4c72b0;" x="461.322869632" xlink:href="#m2116b803eb" y="106.682184272"/>
     <use style="fill:#4c72b0;" x="418.931911157" xlink:href="#m2116b803eb" y="89.3428565216"/>
     <use style="fill:#4c72b0;" x="387.628677718" xlink:href="#m2116b803eb" y="79.2"/>
     <use style="fill:#4c72b0;" x="510.992546795" xlink:href="#m2116b803eb" y="79.2"/>
     <use style="fill:#4c72b0;" x="591.801935053" xlink:href="#m2116b803eb" y="96.5393277502"/>
     <use style="fill:#4c72b0;" x="415.092721382" xlink:href="#m2116b803eb" y="103.735798979"/>
     <use style="fill:#4c72b0;" x="522.980619073" xlink:href="#m2116b803eb" y="110.538319355"/>
     <use style="fill:#4c72b0;" x="539.713885785" xlink:href="#m2116b803eb" y="106.682184272"/>
     <use style="fill:#4c72b0;" x="442.06263212" xlink:href="#m2116b803eb" y="100.395462833"/>
     <use style="fill:#4c72b0;" x="358.436960406" xlink:href="#m2116b803eb" y="79.2"/>
     <use style="fill:#4c72b0;" x="329.382466437" xlink:href="#m2116b803eb" y="106.682184272"/>
     <use style="fill:#4c72b0;" x="439.845894102" xlink:href="#m2116b803eb" y="93.903696294"/>
     <use style="fill:#4c72b0;" x="346.519448158" xlink:href="#m2116b803eb" y="79.2"/>
     <use style="fill:#4c72b0;" x="536.974737581" xlink:href="#m2116b803eb" y="79.2"/>
     <use style="fill:#4c72b0;" x="450.98567962" xlink:href="#m2116b803eb" y="96.5393277502"/>
     <use style="fill:#4c72b0;" x="468.9988624" xlink:href="#m2116b803eb" y="106.682184272"/>
     <use style="fill:#4c72b0;" x="541.98694321" xlink:href="#m2116b803eb" y="96.5393277502"/>
     <use style="fill:#4c72b0;" x="375.322555541" xlink:href="#m2116b803eb" y="98.9235464154"/>
     <use style="fill:#4c72b0;" x="488.597883252" xlink:href="#m2116b803eb" y="76.5643685437"/>
     <use style="fill:#4c72b0;" x="417.042722179" xlink:href="#m2116b803eb" y="79.2"/>
     <use style="fill:#4c72b0;" x="349.097883252" xlink:href="#m2116b803eb" y="79.2"/>
     <use style="fill:#4c72b0;" x="406.597055718" xlink:href="#m2116b803eb" y="79.2"/>
     <use style="fill:#4c72b0;" x="446.097216148" xlink:href="#m2116b803eb" y="79.2"/>
     <use style="fill:#4c72b0;" x="515.689605477" xlink:href="#m2116b803eb" y="96.5393277502"/>
     <use style="fill:#4c72b0;" x="388.950564635" xlink:href="#m2116b803eb" y="121.844890915"/>
     <use style="fill:#4c72b0;" x="465.405868151" xlink:href="#m2116b803eb" y="96.5393277502"/>
     <use style="fill:#4c72b0;" x="187.506315605" xlink:href="#m2116b803eb" y="113.8786555"/>
     <use style="fill:#4c72b0;" x="438.897767079" xlink:href="#m2116b803eb" y="79.2"/>
     <use style="fill:#4c72b0;" x="462.628611559" xlink:href="#m2116b803eb" y="110.538319355"/>
     <use style="fill:#4c72b0;" x="447.935770705" xlink:href="#m2116b803eb" y="96.5393277502"/>
     <use style="fill:#4c72b0;" x="383.955790766" xlink:href="#m2116b803eb" y="106.682184272"/>
     <use style="fill:#4c72b0;" x="540.32603326" xlink:href="#m2116b803eb" y="106.682184272"/>
     <use style="fill:#4c72b0;" x="323.257651182" xlink:href="#m2116b803eb" y="96.5393277502"/>
     <use style="fill:#4c72b0;" x="525.274148979" xlink:href="#m2116b803eb" y="111.702034393"/>
     <use style="fill:#4c72b0;" x="442.06263212" xlink:href="#m2116b803eb" y="96.5393277502"/>
     <use style="fill:#4c72b0;" x="527.395372559" xlink:href="#m2116b803eb" y="119.46067225"/>
     <use style="fill:#4c72b0;" x="432.663061622" xlink:href="#m2116b803eb" y="87.6169748551"/>
     <use style="fill:#4c72b0;" x="386.731119372" xlink:href="#m2116b803eb" y="86.3964712286"/>
     <use style="fill:#4c72b0;" x="386.731119372" xlink:href="#m2116b803eb" y="134.164368544"/>
     <use style="fill:#4c72b0;" x="540.32603326" xlink:href="#m2116b803eb" y="113.8786555"/>
     <use style="fill:#4c72b0;" x="389.384860977" xlink:href="#m2116b803eb" y="86.3964712286"/>
     <use style="fill:#4c72b0;" x="472.610155817" xlink:href="#m2116b803eb" y="69.0571434784"/>
     <use style="fill:#4c72b0;" x="459.036406574" xlink:href="#m2116b803eb" y="79.2"/>
     <use style="fill:#4c72b0;" x="518.783709873" xlink:href="#m2116b803eb" y="113.8786555"/>
     <use style="fill:#4c72b0;" x="285.01263121" xlink:href="#m2116b803eb" y="61.8606722498"/>
     <use style="fill:#4c72b0;" x="479.538640685" xlink:href="#m2116b803eb" y="133.220280571"/>
     <use style="fill:#4c72b0;" x="456.802639075" xlink:href="#m2116b803eb" y="102.1213445"/>
     <use style="fill:#4c72b0;" x="445.927274717" xlink:href="#m2116b803eb" y="96.5393277502"/>
     <use style="fill:#4c72b0;" x="552.607123796" xlink:href="#m2116b803eb" y="102.1213445"/>
     <use style="fill:#4c72b0;" x="369.0" xlink:href="#m2116b803eb" y="106.682184272"/>
     <use style="fill:#4c72b0;" x="461.45471752" xlink:href="#m2116b803eb" y="124.021512022"/>
     <use style="fill:#4c72b0;" x="575.721201238" xlink:href="#m2116b803eb" y="92.6831926675"/>
     <use style="fill:#4c72b0;" x="554.422620905" xlink:href="#m2116b803eb" y="72.0035287714"/>
     <use style="fill:#4c72b0;" x="277.267963975" xlink:href="#m2116b803eb" y="106.682184272"/>
     <use style="fill:#4c72b0;" x="536.861035801" xlink:href="#m2116b803eb" y="119.46067225"/>
     <use style="fill:#4c72b0;" x="407.566421682" xlink:href="#m2116b803eb" y="79.2"/>
     <use style="fill:#4c72b0;" x="507.33782653" xlink:href="#m2116b803eb" y="106.682184272"/>
     <use style="fill:#4c72b0;" x="432.874524594" xlink:href="#m2116b803eb" y="96.5393277502"/>
     <use style="fill:#4c72b0;" x="406.270456112" xlink:href="#m2116b803eb" y="113.8786555"/>
     <use style="fill:#4c72b0;" x="452.98736879" xlink:href="#m2116b803eb" y="100.395462833"/>
     <use style="fill:#4c72b0;" x="483.78361952" xlink:href="#m2116b803eb" y="98.5416250708"/>
     <use style="fill:#4c72b0;" x="462.109686928" xlink:href="#m2116b803eb" y="72.0035287714"/>
     <use style="fill:#4c72b0;" x="403.933590322" xlink:href="#m2116b803eb" y="96.5393277502"/>
     <use style="fill:#4c72b0;" x="414.5238526" xlink:href="#m2116b803eb" y="103.102464843"/>
     <use style="fill:#4c72b0;" x="361.939905927" xlink:href="#m2116b803eb" y="51.7178157281"/>
     <use style="fill:#4c72b0;" x="449.238704367" xlink:href="#m2116b803eb" y="90.5065715603"/>
     <use style="fill:#4c72b0;" x="445.756855251" xlink:href="#m2116b803eb" y="89.3428565216"/>
     <use style="fill:#4c72b0;" x="491.151771212" xlink:href="#m2116b803eb" y="106.682184272"/>
     <use style="fill:#4c72b0;" x="523.69198631" xlink:href="#m2116b803eb" y="96.5393277502"/>
     <use style="fill:#4c72b0;" x="486.717831456" xlink:href="#m2116b803eb" y="79.2"/>
     <use style="fill:#4c72b0;" x="491.31289918" xlink:href="#m2116b803eb" y="92.6831926675"/>
     <use style="fill:#4c72b0;" x="511.915750644" xlink:href="#m2116b803eb" y="102.1213445"/>
     <use style="fill:#4c72b0;" x="456.374481249" xlink:href="#m2116b803eb" y="119.46067225"/>
     <use style="fill:#4c72b0;" x="512.712172557" xlink:href="#m2116b803eb" y="106.682184272"/>
     <use style="fill:#4c72b0;" x="489.516474086" xlink:href="#m2116b803eb" y="89.3428565216"/>
     <use style="fill:#4c72b0;" x="333.872229767" xlink:href="#m2116b803eb" y="79.2"/>
     <use style="fill:#4c72b0;" x="289.6752451" xlink:href="#m2116b803eb" y="79.2"/>
     <use style="fill:#4c72b0;" x="415.092721382" xlink:href="#m2116b803eb" y="96.5393277502"/>
     <use style="fill:#4c72b0;" x="298.04495629" xlink:href="#m2116b803eb" y="79.2"/>
     <use style="fill:#4c72b0;" x="539.16857085" xlink:href="#m2116b803eb" y="106.682184272"/>
     <use style="fill:#4c72b0;" x="338.052099429" xlink:href="#m2116b803eb" y="129.603528771"/>
     <use style="fill:#4c72b0;" x="353.165456162" xlink:href="#m2116b803eb" y="79.2"/>
     <use style="fill:#4c72b0;" x="411.596516038" xlink:href="#m2116b803eb" y="102.1213445"/>
     <use style="fill:#4c72b0;" x="549.547277401" xlink:href="#m2116b803eb" y="86.3964712286"/>
     <use style="fill:#4c72b0;" x="508.86241831" xlink:href="#m2116b803eb" y="79.2"/>
     <use style="fill:#4c72b0;" x="495.583884828" xlink:href="#m2116b803eb" y="106.682184272"/>
     <use style="fill:#4c72b0;" x="389.384860977" xlink:href="#m2116b803eb" y="113.8786555"/>
     <use style="fill:#4c72b0;" x="486.369646128" xlink:href="#m2116b803eb" y="79.2"/>
     <use style="fill:#4c72b0;" x="320.623145672" xlink:href="#m2116b803eb" y="96.5393277502"/>
     <use style="fill:#4c72b0;" x="472.828871146" xlink:href="#m2116b803eb" y="96.5393277502"/>
     <use style="fill:#4c72b0;" x="547.194506466" xlink:href="#m2116b803eb" y="96.5393277502"/>
     <use style="fill:#4c72b0;" x="601.125691918" xlink:href="#m2116b803eb" y="89.3428565216"/>
     <use style="fill:#4c72b0;" x="494.142241948" xlink:href="#m2116b803eb" y="136.8"/>
     <use style="fill:#4c72b0;" x="493.135710116" xlink:href="#m2116b803eb" y="113.8786555"/>
     <use style="fill:#4c72b0;" x="539.786224994" xlink:href="#m2116b803eb" y="134.164368544"/>
     <use style="fill:#4c72b0;" x="314.983348012" xlink:href="#m2116b803eb" y="75.3438649173"/>
     <use style="fill:#4c72b0;" x="388.513132553" xlink:href="#m2116b803eb" y="143.363137093"/>
     <use style="fill:#4c72b0;" x="516.331845557" xlink:href="#m2116b803eb" y="79.2"/>
     <use style="fill:#4c72b0;" x="484.418013591" xlink:href="#m2116b803eb" y="96.5393277502"/>
     <use style="fill:#4c72b0;" x="407.245019972" xlink:href="#m2116b803eb" y="127.877647105"/>
     <use style="fill:#4c72b0;" x="502.586216545" xlink:href="#m2116b803eb" y="113.8786555"/>
     <use style="fill:#4c72b0;" x="480.41176504" xlink:href="#m2116b803eb" y="112.814011333"/>
     <use style="fill:#4c72b0;" x="503.776771717" xlink:href="#m2116b803eb" y="79.2"/>
     <use style="fill:#4c72b0;" x="558.298905439" xlink:href="#m2116b803eb" y="56.2786555005"/>
     <use style="fill:#4c72b0;" x="448.915588507" xlink:href="#m2116b803eb" y="76.253614707"/>
     <use style="fill:#4c72b0;" x="385.359345744" xlink:href="#m2116b803eb" y="106.682184272"/>
     <use style="fill:#4c72b0;" x="480.218821946" xlink:href="#m2116b803eb" y="79.2"/>
     <use style="fill:#4c72b0;" x="369.602831643" xlink:href="#m2116b803eb" y="96.5393277502"/>
     <use style="fill:#4c72b0;" x="521.33657667" xlink:href="#m2116b803eb" y="79.2"/>
     <use style="fill:#4c72b0;" x="414.237402514" xlink:href="#m2116b803eb" y="102.1213445"/>
     <use style="fill:#4c72b0;" x="500.132532624" xlink:href="#m2116b803eb" y="86.3964712286"/>
     <use style="fill:#4c72b0;" x="564.591464405" xlink:href="#m2116b803eb" y="96.5393277502"/>
     <use style="fill:#4c72b0;" x="494.218979235" xlink:href="#m2116b803eb" y="109.317815728"/>
     <use style="fill:#4c72b0;" x="509.936843951" xlink:href="#m2116b803eb" y="96.5393277502"/>
     <use style="fill:#4c72b0;" x="369.0" xlink:href="#m2116b803eb" y="102.1213445"/>
     <use style="fill:#4c72b0;" x="517.908276567" xlink:href="#m2116b803eb" y="116.825040793"/>
     <use style="fill:#4c72b0;" x="420.505612109" xlink:href="#m2116b803eb" y="79.2"/>
     <use style="fill:#4c72b0;" x="506.152922549" xlink:href="#m2116b803eb" y="79.2"/>
     <use style="fill:#4c72b0;" x="357.711393886" xlink:href="#m2116b803eb" y="86.3964712286"/>
     <use style="fill:#4c72b0;" x="425.712355171" xlink:href="#m2116b803eb" y="86.3964712286"/>
     <use style="fill:#4c72b0;" x="445.242701555" xlink:href="#m2116b803eb" y="106.682184272"/>
     <use style="fill:#4c72b0;" x="426.420948982" xlink:href="#m2116b803eb" y="113.8786555"/>
     <use style="fill:#4c72b0;" x="397.094898843" xlink:href="#m2116b803eb" y="89.3428565216"/>
     <use style="fill:#4c72b0;" x="466.627362758" xlink:href="#m2116b803eb" y="100.395462833"/>
     <use style="fill:#4c72b0;" x="305.397492187" xlink:href="#m2116b803eb" y="96.5393277502"/>
     <use style="fill:#4c72b0;" x="600.915193273" xlink:href="#m2116b803eb" y="96.5393277502"/>
     <use style="fill:#4c72b0;" x="472.059887909" xlink:href="#m2116b803eb" y="89.3428565216"/>
     <use style="fill:#4c72b0;" x="271.493684395" xlink:href="#m2116b803eb" y="79.2"/>
     <use style="fill:#4c72b0;" x="433.085252042" xlink:href="#m2116b803eb" y="91.9784879779"/>
     <use style="fill:#4c72b0;" x="502.251311987" xlink:href="#m2116b803eb" y="75.3438649173"/>
     <use style="fill:#4c72b0;" x="356.977032408" xlink:href="#m2116b803eb" y="102.1213445"/>
     <use style="fill:#4c72b0;" x="423.288668769" xlink:href="#m2116b803eb" y="79.2"/>
     <use style="fill:#4c72b0;" x="229.5" xlink:href="#m2116b803eb" y="79.2"/>
     <use style="fill:#4c72b0;" x="389.384860977" xlink:href="#m2116b803eb" y="79.2"/>
     <use style="fill:#4c72b0;" x="459.446221532" xlink:href="#m2116b803eb" y="79.2"/>
     <use style="fill:#4c72b0;" x="415.936132872" xlink:href="#m2116b803eb" y="106.682184272"/>
     <use style="fill:#4c72b0;" x="265.110514462" xlink:href="#m2116b803eb" y="102.1213445"/>
     <use style="fill:#4c72b0;" x="517.282617855" xlink:href="#m2116b803eb" y="99.8796638962"/>
     <use style="fill:#4c72b0;" x="417.588528395" xlink:href="#m2116b803eb" y="89.3428565216"/>
     <use style="fill:#4c72b0;" x="249.884860977" xlink:href="#m2116b803eb" y="84.7820167493"/>
     <use style="fill:#4c72b0;" x="546.259697642" xlink:href="#m2116b803eb" y="89.3428565216"/>
     <use style="fill:#4c72b0;" x="215.981053185" xlink:href="#m2116b803eb" y="139.184218665"/>
     <use style="fill:#4c72b0;" x="353.947197075" xlink:href="#m2116b803eb" y="86.3964712286"/>
     <use style="fill:#4c72b0;" x="502.049476997" xlink:href="#m2116b803eb" y="79.2"/>
     <use style="fill:#4c72b0;" x="385.820063403" xlink:href="#m2116b803eb" y="96.5393277502"/>
     <use style="fill:#4c72b0;" x="308.764140507" xlink:href="#m2116b803eb" y="124.021512022"/>
     <use style="fill:#4c72b0;" x="365.892442938" xlink:href="#m2116b803eb" y="113.8786555"/>
     <use style="fill:#4c72b0;" x="417.588528395" xlink:href="#m2116b803eb" y="79.2"/>
     <use style="fill:#4c72b0;" x="395.551271895" xlink:href="#m2116b803eb" y="79.2"/>
     <use style="fill:#4c72b0;" x="492.979364015" xlink:href="#m2116b803eb" y="96.5393277502"/>
     <use style="fill:#4c72b0;" x="504.298489303" xlink:href="#m2116b803eb" y="79.2"/>
     <use style="fill:#4c72b0;" x="434.94952468" xlink:href="#m2116b803eb" y="127.877647105"/>
     <use style="fill:#4c72b0;" x="450.039034107" xlink:href="#m2116b803eb" y="96.5393277502"/>
     <use style="fill:#4c72b0;" x="90.0" xlink:href="#m2116b803eb" y="61.8606722498"/>
     <use style="fill:#4c72b0;" x="424.51263121" xlink:href="#m2116b803eb" y="96.5393277502"/>
     <use style="fill:#4c72b0;" x="289.6752451" xlink:href="#m2116b803eb" y="79.2"/>
     <use style="fill:#4c72b0;" x="444.724147061" xlink:href="#m2116b803eb" y="87.6169748551"/>
     <use style="fill:#4c72b0;" x="453.440053937" xlink:href="#m2116b803eb" y="79.2"/>
     <use style="fill:#4c72b0;" x="449.720169791" xlink:href="#m2116b803eb" y="83.7608397723"/>
     <use style="fill:#4c72b0;" x="517.700440754" xlink:href="#m2116b803eb" y="113.8786555"/>
     <use style="fill:#4c72b0;" x="379.538801114" xlink:href="#m2116b803eb" y="86.3964712286"/>
     <use style="fill:#4c72b0;" x="408.835244607" xlink:href="#m2116b803eb" y="79.2"/>
     <use style="fill:#4c72b0;" x="526.681560705" xlink:href="#m2116b803eb" y="96.5393277502"/>
     <use style="fill:#4c72b0;" x="440.407728857" xlink:href="#m2116b803eb" y="96.5393277502"/>
     <use style="fill:#4c72b0;" x="335.998205102" xlink:href="#m2116b803eb" y="84.7820167493"/>
     <use style="fill:#4c72b0;" x="453.889381684" xlink:href="#m2116b803eb" y="113.8786555"/>
     <use style="fill:#4c72b0;" x="482.680388788" xlink:href="#m2116b803eb" y="61.8606722498"/>
     <use style="fill:#4c72b0;" x="444.375961733" xlink:href="#m2116b803eb" y="79.2"/>
     <use style="fill:#4c72b0;" x="345.634993323" xlink:href="#m2116b803eb" y="79.2"/>
     <use style="fill:#4c72b0;" x="393.159484444" xlink:href="#m2116b803eb" y="79.2"/>
    </g>
   </g>
   <g id="patch_3">
    <path d="M 90 21.6 
L 648 21.6 
" style="fill:none;stroke:#262626;stroke-linecap:square;stroke-linejoin:miter;stroke-width:1.25;"/>
   </g>
   <g id="patch_4">
    <path d="M 648 194.4 
L 648 21.6 
" style="fill:none;stroke:#262626;stroke-linecap:square;stroke-linejoin:miter;stroke-width:1.25;"/>
   </g>
   <g id="patch_5">
    <path d="M 90 194.4 
L 648 194.4 
" style="fill:none;stroke:#262626;stroke-linecap:square;stroke-linejoin:miter;stroke-width:1.25;"/>
   </g>
   <g id="patch_6">
    <path d="M 90 194.4 
L 90 21.6 
" style="fill:none;stroke:#262626;stroke-linecap:square;stroke-linejoin:miter;stroke-width:1.25;"/>
   </g>
  </g>
 </g>
 <defs>
  <clipPath id="p695f604f72">
   <rect height="172.8" width="558.0" x="90.0" y="21.6"/>
  </clipPath>
 </defs>
</svg>
