<?xml version="1.0" encoding="utf-8" standalone="no"?>
<!DOCTYPE svg PUBLIC "-//W3C//DTD SVG 1.1//EN"
  "http://www.w3.org/Graphics/SVG/1.1/DTD/svg11.dtd">
<!-- Created with matplotlib (http://matplotlib.org/) -->
<svg height="216pt" version="1.1" viewBox="0 0 720 216" width="720pt" xmlns="http://www.w3.org/2000/svg" xmlns:xlink="http://www.w3.org/1999/xlink">
 <defs>
  <style type="text/css">
*{stroke-linecap:butt;stroke-linejoin:round;}
  </style>
 </defs>
 <g id="figure_1">
  <g id="patch_1">
   <path d="M 0 216 
L 720 216 
L 720 0 
L 0 0 
z
" style="fill:#ffffff;"/>
  </g>
  <g id="axes_1">
   <g id="patch_2">
    <path d="M 39.678 180.192 
L 185.4555 180.192 
L 185.4555 22.288 
L 39.678 22.288 
z
" style="fill:#ffffff;"/>
   </g>
   <g id="matplotlib.axis_1">
    <g id="xtick_1">
     <g id="line2d_1"/>
     <g id="text_1">
      <!-- 0 -->
      <defs>
       <path d="M 51.703125 34.421875 
Q 51.703125 24.515625 49.828125 17.75 
Q 47.953125 10.984375 44.703125 6.8125 
Q 41.453125 2.640625 37.0625 0.828125 
Q 32.671875 -0.984375 27.6875 -0.984375 
Q 22.65625 -0.984375 18.3125 0.828125 
Q 13.96875 2.640625 10.765625 6.78125 
Q 7.5625 10.9375 5.734375 17.703125 
Q 3.90625 24.46875 3.90625 34.421875 
Q 3.90625 44.828125 5.734375 51.640625 
Q 7.5625 58.453125 10.78125 62.5 
Q 14.015625 66.546875 18.40625 68.1875 
Q 22.796875 69.828125 27.984375 69.828125 
Q 32.90625 69.828125 37.21875 68.1875 
Q 41.546875 66.546875 44.765625 62.5 
Q 48 58.453125 49.84375 51.640625 
Q 51.703125 44.828125 51.703125 34.421875 
M 42.78125 34.421875 
Q 42.78125 42.625 41.796875 48.0625 
Q 40.828125 53.515625 38.921875 56.765625 
Q 37.015625 60.015625 34.25 61.359375 
Q 31.5 62.703125 27.984375 62.703125 
Q 24.265625 62.703125 21.4375 61.328125 
Q 18.609375 59.96875 16.671875 56.71875 
Q 14.75 53.46875 13.765625 48.015625 
Q 12.796875 42.578125 12.796875 34.421875 
Q 12.796875 26.515625 13.796875 21.09375 
Q 14.796875 15.671875 16.71875 12.375 
Q 18.65625 9.078125 21.4375 7.640625 
Q 24.21875 6.203125 27.78125 6.203125 
Q 31.25 6.203125 34.03125 7.640625 
Q 36.8125 9.078125 38.734375 12.375 
Q 40.671875 15.671875 41.71875 21.09375 
Q 42.78125 26.515625 42.78125 34.421875 
" id="LiberationSans-30"/>
      </defs>
      <g style="fill:#262626;" transform="translate(37.453625 191.5895)scale(0.08 -0.08)">
       <use xlink:href="#LiberationSans-30"/>
      </g>
     </g>
    </g>
    <g id="xtick_2">
     <g id="line2d_2"/>
     <g id="text_2">
      <!-- 5 -->
      <defs>
       <path d="M 51.421875 22.40625 
Q 51.421875 17.234375 49.859375 12.9375 
Q 48.296875 8.640625 45.21875 5.53125 
Q 42.140625 2.4375 37.578125 0.71875 
Q 33.015625 -0.984375 27 -0.984375 
Q 21.578125 -0.984375 17.546875 0.28125 
Q 13.53125 1.5625 10.734375 3.78125 
Q 7.953125 6 6.3125 8.984375 
Q 4.6875 11.96875 4 15.375 
L 12.890625 16.40625 
Q 13.421875 14.453125 14.390625 12.625 
Q 15.375 10.796875 17.0625 9.34375 
Q 18.75 7.90625 21.21875 7.046875 
Q 23.6875 6.203125 27.203125 6.203125 
Q 30.609375 6.203125 33.390625 7.25 
Q 36.1875 8.296875 38.15625 10.34375 
Q 40.140625 12.40625 41.203125 15.375 
Q 42.28125 18.359375 42.28125 22.21875 
Q 42.28125 25.390625 41.25 28.046875 
Q 40.234375 30.71875 38.328125 32.640625 
Q 36.421875 34.578125 33.65625 35.640625 
Q 30.90625 36.71875 27.390625 36.71875 
Q 25.203125 36.71875 23.34375 36.328125 
Q 21.484375 35.9375 19.890625 35.25 
Q 18.3125 34.578125 17.015625 33.671875 
Q 15.71875 32.765625 14.59375 31.78125 
L 6 31.78125 
L 8.296875 68.796875 
L 47.40625 68.796875 
L 47.40625 61.328125 
L 16.3125 61.328125 
L 14.984375 39.5 
Q 17.328125 41.3125 20.84375 42.59375 
Q 24.359375 43.890625 29.203125 43.890625 
Q 34.328125 43.890625 38.421875 42.328125 
Q 42.53125 40.765625 45.40625 37.90625 
Q 48.296875 35.0625 49.859375 31.109375 
Q 51.421875 27.15625 51.421875 22.40625 
" id="LiberationSans-35"/>
      </defs>
      <g style="fill:#262626;" transform="translate(66.609125 191.5895)scale(0.08 -0.08)">
       <use xlink:href="#LiberationSans-35"/>
      </g>
     </g>
    </g>
    <g id="xtick_3">
     <g id="line2d_3"/>
     <g id="text_3">
      <!-- 10 -->
      <defs>
       <path d="M 7.625 0 
L 7.625 7.46875 
L 25.140625 7.46875 
L 25.140625 60.40625 
L 9.625 49.3125 
L 9.625 57.625 
L 25.875 68.796875 
L 33.984375 68.796875 
L 33.984375 7.46875 
L 50.734375 7.46875 
L 50.734375 0 
z
" id="LiberationSans-31"/>
      </defs>
      <g style="fill:#262626;" transform="translate(93.54025 191.5895)scale(0.08 -0.08)">
       <use xlink:href="#LiberationSans-31"/>
       <use x="55.615234" xlink:href="#LiberationSans-30"/>
      </g>
     </g>
    </g>
    <g id="xtick_4">
     <g id="line2d_4"/>
     <g id="text_4">
      <!-- 15 -->
      <g style="fill:#262626;" transform="translate(122.69575 191.5895)scale(0.08 -0.08)">
       <use xlink:href="#LiberationSans-31"/>
       <use x="55.615234" xlink:href="#LiberationSans-35"/>
      </g>
     </g>
    </g>
    <g id="xtick_5">
     <g id="line2d_5"/>
     <g id="text_5">
      <!-- 20 -->
      <defs>
       <path d="M 5.03125 0 
L 5.03125 6.203125 
Q 7.515625 11.921875 11.109375 16.28125 
Q 14.703125 20.65625 18.65625 24.1875 
Q 22.609375 27.734375 26.484375 30.765625 
Q 30.375 33.796875 33.5 36.8125 
Q 36.625 39.84375 38.546875 43.15625 
Q 40.484375 46.484375 40.484375 50.6875 
Q 40.484375 53.609375 39.59375 55.828125 
Q 38.71875 58.0625 37.0625 59.5625 
Q 35.40625 61.078125 33.078125 61.828125 
Q 30.765625 62.59375 27.9375 62.59375 
Q 25.296875 62.59375 22.96875 61.859375 
Q 20.65625 61.140625 18.84375 59.671875 
Q 17.046875 58.203125 15.890625 56.03125 
Q 14.75 53.859375 14.40625 50.984375 
L 5.421875 51.8125 
Q 5.859375 55.515625 7.46875 58.78125 
Q 9.078125 62.0625 11.90625 64.53125 
Q 14.75 67 18.71875 68.40625 
Q 22.703125 69.828125 27.9375 69.828125 
Q 33.0625 69.828125 37.0625 68.609375 
Q 41.0625 67.390625 43.8125 64.984375 
Q 46.578125 62.59375 48.046875 59.078125 
Q 49.515625 55.5625 49.515625 50.984375 
Q 49.515625 47.515625 48.265625 44.390625 
Q 47.015625 41.265625 44.9375 38.421875 
Q 42.875 35.59375 40.140625 32.953125 
Q 37.40625 30.328125 34.421875 27.8125 
Q 31.453125 25.296875 28.421875 22.828125 
Q 25.390625 20.359375 22.71875 17.859375 
Q 20.0625 15.375 17.96875 12.8125 
Q 15.875 10.25 14.703125 7.46875 
L 50.59375 7.46875 
L 50.59375 0 
z
" id="LiberationSans-32"/>
      </defs>
      <g style="fill:#262626;" transform="translate(151.85125 191.5895)scale(0.08 -0.08)">
       <use xlink:href="#LiberationSans-32"/>
       <use x="55.615234" xlink:href="#LiberationSans-30"/>
      </g>
     </g>
    </g>
    <g id="xtick_6">
     <g id="line2d_6"/>
     <g id="text_6">
      <!-- 25 -->
      <g style="fill:#262626;" transform="translate(181.00675 191.5895)scale(0.08 -0.08)">
       <use xlink:href="#LiberationSans-32"/>
       <use x="55.615234" xlink:href="#LiberationSans-35"/>
      </g>
     </g>
    </g>
    <g id="text_7">
     <!-- Regulation -->
     <defs>
      <path d="M 56.84375 0 
L 38.96875 28.5625 
L 17.53125 28.5625 
L 17.53125 0 
L 8.203125 0 
L 8.203125 68.796875 
L 40.578125 68.796875 
Q 46.4375 68.796875 50.953125 67.453125 
Q 55.46875 66.109375 58.546875 63.5625 
Q 61.625 61.03125 63.234375 57.375 
Q 64.84375 53.71875 64.84375 49.125 
Q 64.84375 45.84375 63.890625 42.671875 
Q 62.9375 39.5 60.890625 36.859375 
Q 58.84375 34.234375 55.65625 32.328125 
Q 52.484375 30.421875 48.046875 29.640625 
L 67.578125 0 
z
M 55.46875 49.03125 
Q 55.46875 52.15625 54.390625 54.4375 
Q 53.328125 56.734375 51.265625 58.265625 
Q 49.21875 59.8125 46.28125 60.5625 
Q 43.359375 61.328125 39.65625 61.328125 
L 17.53125 61.328125 
L 17.53125 35.9375 
L 40.046875 35.9375 
Q 44.046875 35.9375 46.96875 36.9375 
Q 49.90625 37.9375 51.78125 39.6875 
Q 53.65625 41.453125 54.5625 43.84375 
Q 55.46875 46.234375 55.46875 49.03125 
" id="LiberationSans-52"/>
      <path d="M 13.484375 24.5625 
Q 13.484375 20.40625 14.328125 16.90625 
Q 15.1875 13.421875 16.96875 10.90625 
Q 18.75 8.40625 21.53125 7 
Q 24.3125 5.609375 28.21875 5.609375 
Q 33.9375 5.609375 37.375 7.90625 
Q 40.828125 10.203125 42.046875 13.71875 
L 49.75 11.53125 
Q 48.921875 9.328125 47.4375 7.109375 
Q 45.953125 4.890625 43.453125 3.09375 
Q 40.96875 1.3125 37.234375 0.15625 
Q 33.5 -0.984375 28.21875 -0.984375 
Q 16.5 -0.984375 10.375 6 
Q 4.25 12.984375 4.25 26.765625 
Q 4.25 34.1875 6.09375 39.328125 
Q 7.953125 44.484375 11.171875 47.703125 
Q 14.40625 50.921875 18.703125 52.359375 
Q 23 53.8125 27.875 53.8125 
Q 34.515625 53.8125 38.984375 51.65625 
Q 43.453125 49.515625 46.15625 45.71875 
Q 48.875 41.9375 50.015625 36.8125 
Q 51.171875 31.6875 51.171875 25.734375 
L 51.171875 24.5625 
z
M 42.09375 31.296875 
Q 41.359375 39.65625 37.84375 43.484375 
Q 34.328125 47.3125 27.734375 47.3125 
Q 25.53125 47.3125 23.109375 46.609375 
Q 20.703125 45.90625 18.65625 44.09375 
Q 16.609375 42.28125 15.1875 39.171875 
Q 13.765625 36.078125 13.578125 31.296875 
z
" id="LiberationSans-65"/>
      <path d="M 26.765625 -20.75 
Q 22.21875 -20.75 18.703125 -19.8125 
Q 15.1875 -18.890625 12.6875 -17.15625 
Q 10.203125 -15.4375 8.640625 -13.03125 
Q 7.078125 -10.640625 6.390625 -7.71875 
L 15.234375 -6.453125 
Q 16.109375 -10.109375 19.109375 -12.078125 
Q 22.125 -14.0625 27 -14.0625 
Q 29.984375 -14.0625 32.421875 -13.234375 
Q 34.859375 -12.40625 36.5625 -10.5625 
Q 38.28125 -8.734375 39.203125 -5.796875 
Q 40.140625 -2.875 40.140625 1.3125 
L 40.140625 9.8125 
L 40.046875 9.8125 
Q 39.0625 7.8125 37.625 5.984375 
Q 36.1875 4.15625 34.109375 2.734375 
Q 32.03125 1.3125 29.296875 0.453125 
Q 26.5625 -0.390625 23.046875 -0.390625 
Q 18.015625 -0.390625 14.421875 1.296875 
Q 10.84375 2.984375 8.5625 6.34375 
Q 6.296875 9.71875 5.25 14.71875 
Q 4.203125 19.734375 4.203125 26.3125 
Q 4.203125 32.671875 5.25 37.75 
Q 6.296875 42.828125 8.65625 46.359375 
Q 11.03125 49.90625 14.8125 51.78125 
Q 18.609375 53.65625 24.03125 53.65625 
Q 29.640625 53.65625 33.765625 51.09375 
Q 37.890625 48.53125 40.140625 43.796875 
L 40.234375 43.796875 
Q 40.234375 45.015625 40.296875 46.53125 
Q 40.375 48.046875 40.453125 49.390625 
Q 40.53125 50.734375 40.625 51.703125 
Q 40.71875 52.6875 40.828125 52.828125 
L 49.171875 52.828125 
Q 49.125 52.390625 49.078125 51.34375 
Q 49.03125 50.296875 48.96875 48.828125 
Q 48.921875 47.359375 48.890625 45.578125 
Q 48.875 43.796875 48.875 41.890625 
L 48.875 1.515625 
Q 48.875 -9.578125 43.421875 -15.15625 
Q 37.984375 -20.75 26.765625 -20.75 
M 40.140625 26.421875 
Q 40.140625 31.9375 38.9375 35.859375 
Q 37.75 39.796875 35.796875 42.28125 
Q 33.84375 44.78125 31.328125 45.953125 
Q 28.8125 47.125 26.171875 47.125 
Q 22.796875 47.125 20.375 45.953125 
Q 17.96875 44.78125 16.375 42.265625 
Q 14.796875 39.75 14.03125 35.8125 
Q 13.28125 31.890625 13.28125 26.421875 
Q 13.28125 20.703125 14.03125 16.8125 
Q 14.796875 12.9375 16.359375 10.546875 
Q 17.921875 8.15625 20.3125 7.125 
Q 22.703125 6.109375 26.03125 6.109375 
Q 28.65625 6.109375 31.171875 7.21875 
Q 33.6875 8.34375 35.6875 10.78125 
Q 37.703125 13.234375 38.921875 17.09375 
Q 40.140625 20.953125 40.140625 26.421875 
" id="LiberationSans-67"/>
      <path d="M 15.328125 52.828125 
L 15.328125 19.34375 
Q 15.328125 15.484375 15.890625 12.890625 
Q 16.453125 10.296875 17.71875 8.703125 
Q 19 7.125 21.0625 6.46875 
Q 23.140625 5.8125 26.21875 5.8125 
Q 29.34375 5.8125 31.859375 6.90625 
Q 34.375 8.015625 36.15625 10.078125 
Q 37.9375 12.15625 38.90625 15.203125 
Q 39.890625 18.265625 39.890625 22.21875 
L 39.890625 52.828125 
L 48.6875 52.828125 
L 48.6875 11.28125 
Q 48.6875 9.625 48.703125 7.78125 
Q 48.734375 5.953125 48.78125 4.3125 
Q 48.828125 2.6875 48.875 1.515625 
Q 48.921875 0.34375 48.96875 0 
L 40.671875 0 
Q 40.625 0.25 40.578125 1.3125 
Q 40.53125 2.390625 40.453125 3.78125 
Q 40.375 5.171875 40.328125 6.609375 
Q 40.28125 8.0625 40.28125 9.03125 
L 40.140625 9.03125 
Q 38.875 6.734375 37.359375 4.875 
Q 35.84375 3.03125 33.84375 1.734375 
Q 31.84375 0.4375 29.25 -0.265625 
Q 26.65625 -0.984375 23.25 -0.984375 
Q 18.84375 -0.984375 15.671875 0.09375 
Q 12.5 1.171875 10.453125 3.421875 
Q 8.40625 5.671875 7.453125 9.1875 
Q 6.5 12.703125 6.5 17.625 
L 6.5 52.828125 
z
" id="LiberationSans-75"/>
      <path d="M 6.734375 0 
L 6.734375 72.46875 
L 15.53125 72.46875 
L 15.53125 0 
z
" id="LiberationSans-6c"/>
      <path d="M 20.21875 -0.984375 
Q 12.25 -0.984375 8.25 3.21875 
Q 4.25 7.421875 4.25 14.75 
Q 4.25 19.96875 6.21875 23.3125 
Q 8.203125 26.65625 11.390625 28.5625 
Q 14.59375 30.46875 18.6875 31.203125 
Q 22.796875 31.9375 27.046875 32.03125 
L 38.921875 32.234375 
L 38.921875 35.109375 
Q 38.921875 38.375 38.234375 40.671875 
Q 37.546875 42.96875 36.125 44.375 
Q 34.71875 45.796875 32.59375 46.453125 
Q 30.46875 47.125 27.59375 47.125 
Q 25.046875 47.125 23 46.75 
Q 20.953125 46.390625 19.4375 45.4375 
Q 17.921875 44.484375 16.984375 42.84375 
Q 16.0625 41.21875 15.765625 38.71875 
L 6.59375 39.546875 
Q 7.078125 42.671875 8.4375 45.28125 
Q 9.8125 47.90625 12.328125 49.796875 
Q 14.84375 51.703125 18.625 52.75 
Q 22.40625 53.8125 27.78125 53.8125 
Q 37.75 53.8125 42.765625 49.234375 
Q 47.796875 44.671875 47.796875 36.03125 
L 47.796875 13.28125 
Q 47.796875 9.375 48.828125 7.390625 
Q 49.859375 5.421875 52.734375 5.421875 
Q 53.46875 5.421875 54.203125 5.515625 
Q 54.9375 5.609375 55.609375 5.765625 
L 55.609375 0.296875 
Q 53.953125 -0.09375 52.3125 -0.28125 
Q 50.6875 -0.484375 48.828125 -0.484375 
Q 46.34375 -0.484375 44.5625 0.171875 
Q 42.78125 0.828125 41.65625 2.171875 
Q 40.53125 3.515625 39.9375 5.484375 
Q 39.359375 7.46875 39.203125 10.109375 
L 38.921875 10.109375 
Q 37.5 7.5625 35.8125 5.515625 
Q 34.125 3.46875 31.875 2.03125 
Q 29.640625 0.59375 26.78125 -0.1875 
Q 23.921875 -0.984375 20.21875 -0.984375 
M 22.21875 5.609375 
Q 26.421875 5.609375 29.5625 7.140625 
Q 32.71875 8.6875 34.78125 11.078125 
Q 36.859375 13.484375 37.890625 16.3125 
Q 38.921875 19.140625 38.921875 21.734375 
L 38.921875 26.078125 
L 29.296875 25.875 
Q 26.078125 25.828125 23.171875 25.40625 
Q 20.265625 25 18.0625 23.78125 
Q 15.875 22.5625 14.578125 20.359375 
Q 13.28125 18.171875 13.28125 14.59375 
Q 13.28125 10.296875 15.59375 7.953125 
Q 17.921875 5.609375 22.21875 5.609375 
" id="LiberationSans-61"/>
      <path d="M 27.046875 0.390625 
Q 25.046875 -0.140625 22.96875 -0.453125 
Q 20.90625 -0.78125 18.171875 -0.78125 
Q 7.625 -0.78125 7.625 11.1875 
L 7.625 46.4375 
L 1.515625 46.4375 
L 1.515625 52.828125 
L 7.953125 52.828125 
L 10.546875 64.65625 
L 16.40625 64.65625 
L 16.40625 52.828125 
L 26.171875 52.828125 
L 26.171875 46.4375 
L 16.40625 46.4375 
L 16.40625 13.09375 
Q 16.40625 9.28125 17.640625 7.734375 
Q 18.890625 6.203125 21.96875 6.203125 
Q 23.25 6.203125 24.4375 6.390625 
Q 25.640625 6.59375 27.046875 6.890625 
z
" id="LiberationSans-74"/>
      <path d="M 6.6875 64.0625 
L 6.6875 72.46875 
L 15.484375 72.46875 
L 15.484375 64.0625 
z
M 6.6875 0 
L 6.6875 52.828125 
L 15.484375 52.828125 
L 15.484375 0 
z
" id="LiberationSans-69"/>
      <path d="M 51.421875 26.46875 
Q 51.421875 12.59375 45.3125 5.796875 
Q 39.203125 -0.984375 27.59375 -0.984375 
Q 22.078125 -0.984375 17.71875 0.671875 
Q 13.375 2.34375 10.375 5.765625 
Q 7.375 9.1875 5.78125 14.328125 
Q 4.203125 19.484375 4.203125 26.46875 
Q 4.203125 53.8125 27.875 53.8125 
Q 34.03125 53.8125 38.5 52.09375 
Q 42.96875 50.390625 45.828125 46.96875 
Q 48.6875 43.5625 50.046875 38.421875 
Q 51.421875 33.296875 51.421875 26.46875 
M 42.1875 26.46875 
Q 42.1875 32.625 41.234375 36.625 
Q 40.28125 40.625 38.453125 43.015625 
Q 36.625 45.40625 33.984375 46.359375 
Q 31.34375 47.3125 28.03125 47.3125 
Q 24.65625 47.3125 21.9375 46.3125 
Q 19.234375 45.3125 17.328125 42.890625 
Q 15.4375 40.484375 14.421875 36.46875 
Q 13.421875 32.46875 13.421875 26.46875 
Q 13.421875 20.3125 14.5 16.28125 
Q 15.578125 12.25 17.453125 9.859375 
Q 19.34375 7.46875 21.90625 6.484375 
Q 24.46875 5.515625 27.484375 5.515625 
Q 30.859375 5.515625 33.59375 6.46875 
Q 36.328125 7.421875 38.234375 9.8125 
Q 40.140625 12.203125 41.15625 16.25 
Q 42.1875 20.3125 42.1875 26.46875 
" id="LiberationSans-6f"/>
      <path d="M 40.28125 0 
L 40.28125 33.5 
Q 40.28125 37.359375 39.71875 39.9375 
Q 39.15625 42.53125 37.890625 44.109375 
Q 36.625 45.703125 34.546875 46.359375 
Q 32.46875 47.015625 29.390625 47.015625 
Q 26.265625 47.015625 23.75 45.921875 
Q 21.234375 44.828125 19.453125 42.75 
Q 17.671875 40.671875 16.6875 37.625 
Q 15.71875 34.578125 15.71875 30.609375 
L 15.71875 0 
L 6.9375 0 
L 6.9375 41.546875 
Q 6.9375 43.21875 6.90625 45.046875 
Q 6.890625 46.875 6.828125 48.5 
Q 6.78125 50.140625 6.734375 51.3125 
Q 6.6875 52.484375 6.640625 52.828125 
L 14.9375 52.828125 
Q 14.984375 52.59375 15.03125 51.515625 
Q 15.09375 50.4375 15.15625 49.046875 
Q 15.234375 47.65625 15.28125 46.21875 
Q 15.328125 44.78125 15.328125 43.796875 
L 15.484375 43.796875 
Q 16.75 46.09375 18.265625 47.953125 
Q 19.78125 49.8125 21.78125 51.09375 
Q 23.78125 52.390625 26.359375 53.09375 
Q 28.953125 53.8125 32.375 53.8125 
Q 36.765625 53.8125 39.9375 52.734375 
Q 43.109375 51.65625 45.15625 49.40625 
Q 47.21875 47.171875 48.171875 43.625 
Q 49.125 40.09375 49.125 35.203125 
L 49.125 0 
z
" id="LiberationSans-6e"/>
     </defs>
     <g style="fill:#262626;" transform="translate(91.530625 203.62675)scale(0.088 -0.088)">
      <use xlink:href="#LiberationSans-52"/>
      <use x="72.216797" xlink:href="#LiberationSans-65"/>
      <use x="127.832031" xlink:href="#LiberationSans-67"/>
      <use x="183.447266" xlink:href="#LiberationSans-75"/>
      <use x="239.0625" xlink:href="#LiberationSans-6c"/>
      <use x="261.279297" xlink:href="#LiberationSans-61"/>
      <use x="316.894531" xlink:href="#LiberationSans-74"/>
      <use x="344.677734" xlink:href="#LiberationSans-69"/>
      <use x="366.894531" xlink:href="#LiberationSans-6f"/>
      <use x="422.509766" xlink:href="#LiberationSans-6e"/>
     </g>
    </g>
   </g>
   <g id="matplotlib.axis_2">
    <g id="ytick_1">
     <g id="line2d_7"/>
     <g id="text_8">
      <!-- 0.0 -->
      <defs>
       <path d="M 9.125 0 
L 9.125 10.6875 
L 18.65625 10.6875 
L 18.65625 0 
z
" id="LiberationSans-2e"/>
      </defs>
      <g style="fill:#262626;" transform="translate(22.958 183.09075)scale(0.08 -0.08)">
       <use xlink:href="#LiberationSans-30"/>
       <use x="55.615234" xlink:href="#LiberationSans-2e"/>
       <use x="83.398438" xlink:href="#LiberationSans-30"/>
      </g>
     </g>
    </g>
    <g id="ytick_2">
     <g id="line2d_8"/>
     <g id="text_9">
      <!-- 0.2 -->
      <g style="fill:#262626;" transform="translate(22.958 151.50995)scale(0.08 -0.08)">
       <use xlink:href="#LiberationSans-30"/>
       <use x="55.615234" xlink:href="#LiberationSans-2e"/>
       <use x="83.398438" xlink:href="#LiberationSans-32"/>
      </g>
     </g>
    </g>
    <g id="ytick_3">
     <g id="line2d_9"/>
     <g id="text_10">
      <!-- 0.4 -->
      <defs>
       <path d="M 43.015625 15.578125 
L 43.015625 0 
L 34.71875 0 
L 34.71875 15.578125 
L 2.296875 15.578125 
L 2.296875 22.40625 
L 33.796875 68.796875 
L 43.015625 68.796875 
L 43.015625 22.515625 
L 52.6875 22.515625 
L 52.6875 15.578125 
z
M 34.71875 58.890625 
Q 34.625 58.640625 34.234375 57.9375 
Q 33.84375 57.234375 33.34375 56.34375 
Q 32.859375 55.46875 32.34375 54.5625 
Q 31.84375 53.65625 31.453125 53.078125 
L 13.8125 27.09375 
Q 13.578125 26.703125 13.109375 26.0625 
Q 12.640625 25.4375 12.15625 24.78125 
Q 11.671875 24.125 11.171875 23.484375 
Q 10.6875 22.859375 10.40625 22.515625 
L 34.71875 22.515625 
z
" id="LiberationSans-34"/>
      </defs>
      <g style="fill:#262626;" transform="translate(22.958 119.92915)scale(0.08 -0.08)">
       <use xlink:href="#LiberationSans-30"/>
       <use x="55.615234" xlink:href="#LiberationSans-2e"/>
       <use x="83.398438" xlink:href="#LiberationSans-34"/>
      </g>
     </g>
    </g>
    <g id="ytick_4">
     <g id="line2d_10"/>
     <g id="text_11">
      <!-- 0.6 -->
      <defs>
       <path d="M 51.21875 22.515625 
Q 51.21875 17.328125 49.78125 13 
Q 48.34375 8.6875 45.53125 5.578125 
Q 42.71875 2.484375 38.5625 0.75 
Q 34.421875 -0.984375 29 -0.984375 
Q 23 -0.984375 18.5 1.3125 
Q 14.015625 3.609375 11.03125 7.921875 
Q 8.0625 12.25 6.5625 18.53125 
Q 5.078125 24.8125 5.078125 32.8125 
Q 5.078125 42 6.765625 48.921875 
Q 8.453125 55.859375 11.625 60.5 
Q 14.796875 65.140625 19.359375 67.484375 
Q 23.921875 69.828125 29.6875 69.828125 
Q 33.203125 69.828125 36.28125 69.09375 
Q 39.359375 68.359375 41.875 66.71875 
Q 44.390625 65.09375 46.28125 62.40625 
Q 48.1875 59.71875 49.3125 55.8125 
L 40.921875 54.296875 
Q 39.546875 58.734375 36.546875 60.71875 
Q 33.546875 62.703125 29.59375 62.703125 
Q 25.984375 62.703125 23.046875 60.984375 
Q 20.125 59.28125 18.0625 55.875 
Q 16.015625 52.484375 14.90625 47.359375 
Q 13.8125 42.234375 13.8125 35.40625 
Q 16.21875 39.84375 20.5625 42.15625 
Q 24.90625 44.484375 30.515625 44.484375 
Q 35.203125 44.484375 39.015625 42.96875 
Q 42.828125 41.453125 45.53125 38.59375 
Q 48.25 35.75 49.734375 31.671875 
Q 51.21875 27.59375 51.21875 22.515625 
M 42.28125 22.125 
Q 42.28125 25.6875 41.40625 28.5625 
Q 40.53125 31.453125 38.765625 33.46875 
Q 37.015625 35.5 34.421875 36.59375 
Q 31.84375 37.703125 28.421875 37.703125 
Q 26.03125 37.703125 23.578125 36.984375 
Q 21.140625 36.28125 19.15625 34.6875 
Q 17.1875 33.109375 15.9375 30.515625 
Q 14.703125 27.9375 14.703125 24.21875 
Q 14.703125 20.40625 15.671875 17.109375 
Q 16.65625 13.8125 18.484375 11.375 
Q 20.3125 8.9375 22.890625 7.515625 
Q 25.484375 6.109375 28.71875 6.109375 
Q 31.890625 6.109375 34.40625 7.203125 
Q 36.921875 8.296875 38.671875 10.375 
Q 40.4375 12.453125 41.359375 15.421875 
Q 42.28125 18.40625 42.28125 22.125 
" id="LiberationSans-36"/>
      </defs>
      <g style="fill:#262626;" transform="translate(22.958 88.34835)scale(0.08 -0.08)">
       <use xlink:href="#LiberationSans-30"/>
       <use x="55.615234" xlink:href="#LiberationSans-2e"/>
       <use x="83.398438" xlink:href="#LiberationSans-36"/>
      </g>
     </g>
    </g>
    <g id="ytick_5">
     <g id="line2d_11"/>
     <g id="text_12">
      <!-- 0.8 -->
      <defs>
       <path d="M 51.265625 19.1875 
Q 51.265625 14.796875 49.875 11.109375 
Q 48.484375 7.421875 45.625 4.734375 
Q 42.78125 2.046875 38.328125 0.53125 
Q 33.890625 -0.984375 27.828125 -0.984375 
Q 21.78125 -0.984375 17.359375 0.53125 
Q 12.9375 2.046875 10.03125 4.703125 
Q 7.125 7.375 5.734375 11.0625 
Q 4.34375 14.75 4.34375 19.09375 
Q 4.34375 22.859375 5.484375 25.78125 
Q 6.640625 28.71875 8.5625 30.828125 
Q 10.5 32.953125 12.96875 34.25 
Q 15.4375 35.546875 18.0625 35.984375 
L 18.0625 36.1875 
Q 15.1875 36.859375 12.90625 38.375 
Q 10.640625 39.890625 9.09375 42.015625 
Q 7.5625 44.140625 6.75 46.71875 
Q 5.953125 49.3125 5.953125 52.203125 
Q 5.953125 55.8125 7.34375 59 
Q 8.734375 62.203125 11.46875 64.625 
Q 14.203125 67.046875 18.25 68.4375 
Q 22.3125 69.828125 27.640625 69.828125 
Q 33.25 69.828125 37.375 68.40625 
Q 41.5 67 44.203125 64.578125 
Q 46.921875 62.15625 48.234375 58.9375 
Q 49.5625 55.71875 49.5625 52.09375 
Q 49.5625 49.265625 48.75 46.671875 
Q 47.953125 44.09375 46.40625 41.96875 
Q 44.875 39.84375 42.59375 38.34375 
Q 40.328125 36.859375 37.359375 36.28125 
L 37.359375 36.078125 
Q 40.328125 35.59375 42.859375 34.296875 
Q 45.40625 33.015625 47.265625 30.890625 
Q 49.125 28.765625 50.1875 25.828125 
Q 51.265625 22.90625 51.265625 19.1875 
M 40.4375 51.609375 
Q 40.4375 54.203125 39.765625 56.34375 
Q 39.109375 58.5 37.59375 60.03125 
Q 36.078125 61.578125 33.640625 62.421875 
Q 31.203125 63.28125 27.640625 63.28125 
Q 24.171875 63.28125 21.78125 62.421875 
Q 19.390625 61.578125 17.84375 60.03125 
Q 16.3125 58.5 15.625 56.34375 
Q 14.9375 54.203125 14.9375 51.609375 
Q 14.9375 49.5625 15.46875 47.40625 
Q 16.015625 45.265625 17.421875 43.5 
Q 18.84375 41.75 21.328125 40.625 
Q 23.828125 39.5 27.734375 39.5 
Q 31.890625 39.5 34.40625 40.625 
Q 36.921875 41.75 38.25 43.5 
Q 39.59375 45.265625 40.015625 47.40625 
Q 40.4375 49.5625 40.4375 51.609375 
M 42.140625 20.015625 
Q 42.140625 22.515625 41.453125 24.828125 
Q 40.765625 27.15625 39.109375 28.9375 
Q 37.453125 30.71875 34.640625 31.8125 
Q 31.84375 32.90625 27.640625 32.90625 
Q 23.78125 32.90625 21.0625 31.8125 
Q 18.359375 30.71875 16.671875 28.90625 
Q 14.984375 27.09375 14.203125 24.71875 
Q 13.421875 22.359375 13.421875 19.828125 
Q 13.421875 16.65625 14.203125 14.03125 
Q 14.984375 11.421875 16.6875 9.546875 
Q 18.40625 7.671875 21.1875 6.640625 
Q 23.96875 5.609375 27.9375 5.609375 
Q 31.9375 5.609375 34.671875 6.640625 
Q 37.40625 7.671875 39.0625 9.546875 
Q 40.71875 11.421875 41.421875 14.078125 
Q 42.140625 16.75 42.140625 20.015625 
" id="LiberationSans-38"/>
      </defs>
      <g style="fill:#262626;" transform="translate(22.958 56.76755)scale(0.08 -0.08)">
       <use xlink:href="#LiberationSans-30"/>
       <use x="55.615234" xlink:href="#LiberationSans-2e"/>
       <use x="83.398438" xlink:href="#LiberationSans-38"/>
      </g>
     </g>
    </g>
    <g id="ytick_6">
     <g id="line2d_12"/>
     <g id="text_13">
      <!-- 1.0 -->
      <g style="fill:#262626;" transform="translate(22.958 25.18675)scale(0.08 -0.08)">
       <use xlink:href="#LiberationSans-31"/>
       <use x="55.615234" xlink:href="#LiberationSans-2e"/>
       <use x="83.398438" xlink:href="#LiberationSans-30"/>
      </g>
     </g>
    </g>
    <g id="text_14">
     <!-- Cumulative distribution -->
     <defs>
      <path d="M 38.671875 62.203125 
Q 32.8125 62.203125 28.296875 60.25 
Q 23.78125 58.296875 20.71875 54.6875 
Q 17.671875 51.078125 16.109375 46 
Q 14.546875 40.921875 14.546875 34.71875 
Q 14.546875 28.515625 16.234375 23.359375 
Q 17.921875 18.21875 21.0625 14.5 
Q 24.21875 10.796875 28.78125 8.734375 
Q 33.34375 6.6875 39.0625 6.6875 
Q 43.0625 6.6875 46.359375 7.734375 
Q 49.65625 8.796875 52.3125 10.6875 
Q 54.984375 12.59375 57.078125 15.203125 
Q 59.1875 17.828125 60.796875 21 
L 68.40625 17.1875 
Q 66.546875 13.328125 63.8125 10 
Q 61.078125 6.6875 57.390625 4.25 
Q 53.71875 1.8125 49.046875 0.40625 
Q 44.390625 -0.984375 38.625 -0.984375 
Q 30.28125 -0.984375 24 1.671875 
Q 17.71875 4.34375 13.5 9.109375 
Q 9.28125 13.875 7.171875 20.40625 
Q 5.078125 26.953125 5.078125 34.71875 
Q 5.078125 42.78125 7.296875 49.265625 
Q 9.515625 55.765625 13.78125 60.328125 
Q 18.0625 64.890625 24.3125 67.359375 
Q 30.5625 69.828125 38.578125 69.828125 
Q 49.5625 69.828125 56.9375 65.53125 
Q 64.3125 61.234375 67.78125 52.78125 
L 58.9375 49.859375 
Q 57.953125 52.296875 56.296875 54.515625 
Q 54.640625 56.734375 52.140625 58.4375 
Q 49.65625 60.15625 46.3125 61.171875 
Q 42.96875 62.203125 38.671875 62.203125 
" id="LiberationSans-43"/>
      <path d="M 37.5 0 
L 37.5 33.5 
Q 37.5 37.359375 37.015625 39.9375 
Q 36.53125 42.53125 35.375 44.109375 
Q 34.234375 45.703125 32.375 46.359375 
Q 30.515625 47.015625 27.828125 47.015625 
Q 25.046875 47.015625 22.796875 45.921875 
Q 20.5625 44.828125 18.96875 42.75 
Q 17.390625 40.671875 16.53125 37.625 
Q 15.671875 34.578125 15.671875 30.609375 
L 15.671875 0 
L 6.9375 0 
L 6.9375 41.546875 
Q 6.9375 43.21875 6.90625 45.046875 
Q 6.890625 46.875 6.828125 48.5 
Q 6.78125 50.140625 6.734375 51.3125 
Q 6.6875 52.484375 6.640625 52.828125 
L 14.9375 52.828125 
Q 14.984375 52.59375 15.03125 51.515625 
Q 15.09375 50.4375 15.15625 49.046875 
Q 15.234375 47.65625 15.28125 46.21875 
Q 15.328125 44.78125 15.328125 43.796875 
L 15.484375 43.796875 
Q 16.65625 46.09375 18.015625 47.953125 
Q 19.390625 49.8125 21.21875 51.09375 
Q 23.046875 52.390625 25.40625 53.09375 
Q 27.78125 53.8125 30.90625 53.8125 
Q 36.921875 53.8125 40.40625 51.421875 
Q 43.890625 49.03125 45.265625 43.796875 
L 45.40625 43.796875 
Q 46.578125 46.09375 48.046875 47.953125 
Q 49.515625 49.8125 51.46875 51.09375 
Q 53.421875 52.390625 55.859375 53.09375 
Q 58.296875 53.8125 61.421875 53.8125 
Q 65.4375 53.8125 68.328125 52.734375 
Q 71.234375 51.65625 73.09375 49.40625 
Q 74.953125 47.171875 75.828125 43.625 
Q 76.703125 40.09375 76.703125 35.203125 
L 76.703125 0 
L 68.015625 0 
L 68.015625 33.5 
Q 68.015625 37.359375 67.53125 39.9375 
Q 67.046875 42.53125 65.890625 44.109375 
Q 64.75 45.703125 62.890625 46.359375 
Q 61.03125 47.015625 58.34375 47.015625 
Q 55.5625 47.015625 53.3125 45.96875 
Q 51.078125 44.921875 49.484375 42.875 
Q 47.90625 40.828125 47.046875 37.75 
Q 46.1875 34.671875 46.1875 30.609375 
L 46.1875 0 
z
" id="LiberationSans-6d"/>
      <path d="M 29.9375 0 
L 19.53125 0 
L 0.34375 52.828125 
L 9.71875 52.828125 
L 21.34375 18.453125 
Q 21.6875 17.390625 22.140625 15.84375 
Q 22.609375 14.3125 23.09375 12.640625 
Q 23.578125 10.984375 24 9.4375 
Q 24.421875 7.90625 24.703125 6.890625 
Q 25 7.90625 25.453125 9.4375 
Q 25.921875 10.984375 26.40625 12.59375 
Q 26.90625 14.203125 27.421875 15.734375 
Q 27.9375 17.28125 28.328125 18.359375 
L 40.328125 52.828125 
L 49.65625 52.828125 
z
" id="LiberationSans-76"/>
      <path id="LiberationSans-20"/>
      <path d="M 40.09375 8.5 
Q 37.640625 3.421875 33.609375 1.21875 
Q 29.59375 -0.984375 23.640625 -0.984375 
Q 13.625 -0.984375 8.90625 5.75 
Q 4.203125 12.5 4.203125 26.171875 
Q 4.203125 53.8125 23.640625 53.8125 
Q 29.640625 53.8125 33.640625 51.609375 
Q 37.640625 49.421875 40.09375 44.625 
L 40.1875 44.625 
Q 40.1875 45.125 40.15625 46.171875 
Q 40.140625 47.21875 40.109375 48.359375 
Q 40.09375 49.515625 40.09375 50.53125 
Q 40.09375 51.5625 40.09375 52 
L 40.09375 72.46875 
L 48.875 72.46875 
L 48.875 10.890625 
Q 48.875 8.984375 48.890625 7.21875 
Q 48.921875 5.46875 48.96875 4 
Q 49.03125 2.546875 49.078125 1.484375 
Q 49.125 0.4375 49.171875 0 
L 40.765625 0 
Q 40.671875 0.484375 40.59375 1.390625 
Q 40.53125 2.296875 40.453125 3.46875 
Q 40.375 4.640625 40.328125 5.9375 
Q 40.28125 7.234375 40.28125 8.5 
z
M 13.421875 26.46875 
Q 13.421875 21 14.109375 17.09375 
Q 14.796875 13.1875 16.3125 10.671875 
Q 17.828125 8.15625 20.171875 6.984375 
Q 22.515625 5.8125 25.875 5.8125 
Q 29.34375 5.8125 32 6.9375 
Q 34.671875 8.0625 36.453125 10.578125 
Q 38.234375 13.09375 39.15625 17.140625 
Q 40.09375 21.1875 40.09375 27.046875 
Q 40.09375 32.671875 39.15625 36.546875 
Q 38.234375 40.4375 36.421875 42.828125 
Q 34.625 45.21875 32 46.265625 
Q 29.390625 47.3125 25.984375 47.3125 
Q 22.75 47.3125 20.40625 46.1875 
Q 18.0625 45.0625 16.5 42.578125 
Q 14.9375 40.09375 14.171875 36.109375 
Q 13.421875 32.125 13.421875 26.46875 
" id="LiberationSans-64"/>
      <path d="M 46.390625 14.59375 
Q 46.390625 10.890625 44.9375 7.984375 
Q 43.5 5.078125 40.765625 3.09375 
Q 38.03125 1.125 34.046875 0.0625 
Q 30.078125 -0.984375 24.953125 -0.984375 
Q 20.359375 -0.984375 16.671875 -0.265625 
Q 12.984375 0.4375 10.203125 2 
Q 7.421875 3.5625 5.53125 6.125 
Q 3.65625 8.6875 2.78125 12.40625 
L 10.546875 13.921875 
Q 11.671875 9.671875 15.1875 7.6875 
Q 18.703125 5.71875 24.953125 5.71875 
Q 27.78125 5.71875 30.140625 6.109375 
Q 32.515625 6.5 34.21875 7.453125 
Q 35.9375 8.40625 36.890625 9.984375 
Q 37.84375 11.578125 37.84375 13.921875 
Q 37.84375 16.3125 36.71875 17.84375 
Q 35.59375 19.390625 33.59375 20.40625 
Q 31.59375 21.4375 28.734375 22.1875 
Q 25.875 22.953125 22.46875 23.875 
Q 19.28125 24.703125 16.15625 25.734375 
Q 13.03125 26.765625 10.515625 28.4375 
Q 8.015625 30.125 6.453125 32.609375 
Q 4.890625 35.109375 4.890625 38.875 
Q 4.890625 46.09375 10.03125 49.875 
Q 15.1875 53.65625 25.046875 53.65625 
Q 33.796875 53.65625 38.9375 50.578125 
Q 44.09375 47.515625 45.453125 40.71875 
L 37.546875 39.75 
Q 37.109375 41.796875 35.9375 43.1875 
Q 34.765625 44.578125 33.109375 45.4375 
Q 31.453125 46.296875 29.375 46.65625 
Q 27.296875 47.015625 25.046875 47.015625 
Q 19.09375 47.015625 16.25 45.203125 
Q 13.421875 43.40625 13.421875 39.75 
Q 13.421875 37.59375 14.46875 36.203125 
Q 15.53125 34.8125 17.40625 33.859375 
Q 19.28125 32.90625 21.921875 32.203125 
Q 24.5625 31.5 27.734375 30.71875 
Q 29.828125 30.171875 32.03125 29.5625 
Q 34.234375 28.953125 36.296875 28.09375 
Q 38.375 27.25 40.203125 26.09375 
Q 42.046875 24.953125 43.40625 23.34375 
Q 44.78125 21.734375 45.578125 19.578125 
Q 46.390625 17.4375 46.390625 14.59375 
" id="LiberationSans-73"/>
      <path d="M 6.9375 0 
L 6.9375 40.53125 
Q 6.9375 42.1875 6.90625 43.921875 
Q 6.890625 45.65625 6.828125 47.265625 
Q 6.78125 48.875 6.734375 50.28125 
Q 6.6875 51.703125 6.640625 52.828125 
L 14.9375 52.828125 
Q 14.984375 51.703125 15.0625 50.265625 
Q 15.140625 48.828125 15.203125 47.3125 
Q 15.28125 45.796875 15.296875 44.40625 
Q 15.328125 43.015625 15.328125 42.046875 
L 15.53125 42.046875 
Q 16.453125 45.0625 17.5 47.28125 
Q 18.5625 49.515625 19.96875 50.953125 
Q 21.390625 52.390625 23.34375 53.09375 
Q 25.296875 53.8125 28.078125 53.8125 
Q 29.15625 53.8125 30.125 53.640625 
Q 31.109375 53.46875 31.640625 53.328125 
L 31.640625 45.265625 
Q 30.765625 45.515625 29.59375 45.625 
Q 28.421875 45.75 26.953125 45.75 
Q 23.921875 45.75 21.796875 44.375 
Q 19.671875 43.015625 18.328125 40.59375 
Q 17 38.1875 16.359375 34.84375 
Q 15.71875 31.5 15.71875 27.546875 
L 15.71875 0 
z
" id="LiberationSans-72"/>
      <path d="M 51.421875 26.65625 
Q 51.421875 -0.984375 31.984375 -0.984375 
Q 25.984375 -0.984375 22 1.1875 
Q 18.015625 3.375 15.53125 8.203125 
L 15.4375 8.203125 
Q 15.4375 6.9375 15.359375 5.5625 
Q 15.28125 4.203125 15.203125 3.03125 
Q 15.140625 1.859375 15.0625 1.03125 
Q 14.984375 0.203125 14.9375 0 
L 6.453125 0 
Q 6.5 0.4375 6.546875 1.484375 
Q 6.59375 2.546875 6.640625 4 
Q 6.6875 5.46875 6.703125 7.21875 
Q 6.734375 8.984375 6.734375 10.890625 
L 6.734375 72.46875 
L 15.53125 72.46875 
L 15.53125 51.8125 
Q 15.53125 50.34375 15.5 49 
Q 15.484375 47.65625 15.4375 46.625 
Q 15.375 45.40625 15.328125 44.34375 
L 15.53125 44.34375 
Q 17.96875 49.421875 22 51.609375 
Q 26.03125 53.8125 31.984375 53.8125 
Q 42 53.8125 46.703125 47.0625 
Q 51.421875 40.328125 51.421875 26.65625 
M 42.1875 26.375 
Q 42.1875 31.84375 41.5 35.75 
Q 40.828125 39.65625 39.3125 42.15625 
Q 37.796875 44.671875 35.453125 45.84375 
Q 33.109375 47.015625 29.734375 47.015625 
Q 26.265625 47.015625 23.609375 45.890625 
Q 20.953125 44.78125 19.171875 42.28125 
Q 17.390625 39.796875 16.453125 35.734375 
Q 15.53125 31.6875 15.53125 25.828125 
Q 15.53125 20.171875 16.453125 16.3125 
Q 17.390625 12.453125 19.171875 10.03125 
Q 20.953125 7.625 23.578125 6.5625 
Q 26.21875 5.515625 29.640625 5.515625 
Q 32.859375 5.515625 35.203125 6.640625 
Q 37.546875 7.765625 39.109375 10.25 
Q 40.671875 12.75 41.421875 16.71875 
Q 42.1875 20.703125 42.1875 26.375 
" id="LiberationSans-62"/>
     </defs>
     <g style="fill:#262626;" transform="translate(17.132 145.746688)rotate(-90)scale(0.088 -0.088)">
      <use xlink:href="#LiberationSans-43"/>
      <use x="72.216797" xlink:href="#LiberationSans-75"/>
      <use x="127.832031" xlink:href="#LiberationSans-6d"/>
      <use x="211.132812" xlink:href="#LiberationSans-75"/>
      <use x="266.748047" xlink:href="#LiberationSans-6c"/>
      <use x="288.964844" xlink:href="#LiberationSans-61"/>
      <use x="344.580078" xlink:href="#LiberationSans-74"/>
      <use x="372.363281" xlink:href="#LiberationSans-69"/>
      <use x="394.580078" xlink:href="#LiberationSans-76"/>
      <use x="444.580078" xlink:href="#LiberationSans-65"/>
      <use x="500.195312" xlink:href="#LiberationSans-20"/>
      <use x="527.978516" xlink:href="#LiberationSans-64"/>
      <use x="583.59375" xlink:href="#LiberationSans-69"/>
      <use x="605.810547" xlink:href="#LiberationSans-73"/>
      <use x="655.810547" xlink:href="#LiberationSans-74"/>
      <use x="683.59375" xlink:href="#LiberationSans-72"/>
      <use x="716.894531" xlink:href="#LiberationSans-69"/>
      <use x="739.111328" xlink:href="#LiberationSans-62"/>
      <use x="794.726562" xlink:href="#LiberationSans-75"/>
      <use x="850.341797" xlink:href="#LiberationSans-74"/>
      <use x="878.125" xlink:href="#LiberationSans-69"/>
      <use x="900.341797" xlink:href="#LiberationSans-6f"/>
      <use x="955.957031" xlink:href="#LiberationSans-6e"/>
     </g>
    </g>
   </g>
   <g id="line2d_13">
    <path clip-path="url(#p4d2cf9fbcd)" d="M 37.170627 180.189648 
L 44.62663 158.488626 
L 52.082632 140.343517 
L 59.538635 123.817978 
L 66.994637 106.7384 
L 74.45064 95.533033 
L 81.906643 86.42539 
L 89.362645 71.030243 
L 96.818648 60.632275 
L 104.27465 55.567653 
L 111.730653 45.906294 
L 119.186655 42.328659 
L 126.642658 39.77677 
L 134.098661 36.638757 
L 141.554663 34.436894 
L 156.466668 31.828148 
L 163.922671 31.496653 
L 178.834676 30.344628 
L 186.290679 30.161721 
L 193.746681 29.534562 
L 201.202684 28.235804 
L 208.658687 27.883708 
L 253.394702 27.880433 
L 260.850705 27.634639 
L 268.306707 27.550398 
L 283.218712 26.235618 
L 290.674715 26.235599 
L 298.130718 25.313807 
L 305.58672 25.247991 
L 313.042723 24.919733 
L 357.778738 24.919733 
L 365.234741 24.464714 
L 372.690744 24.2618 
L 387.602749 24.253436 
L 395.058751 23.932833 
L 417.426759 23.932463 
L 424.882762 23.274918 
L 432.338764 23.2749 
L 439.794767 22.946005 
L 506.89879 22.900983 
L 514.354793 22.616967 
L 721 22.616967 
L 721 22.616967 
" style="fill:none;stroke:#4c72b0;stroke-linecap:round;stroke-width:2;"/>
   </g>
   <g id="line2d_14">
    <path clip-path="url(#p4d2cf9fbcd)" d="M 37.112316 180.190145 
L 40.14862 177.399601 
L 46.221229 151.414015 
L 49.257533 141.526782 
L 52.293837 133.475277 
L 58.366446 113.446766 
L 61.40275 102.965654 
L 64.439054 95.719232 
L 67.475359 90.379451 
L 70.511663 87.533779 
L 73.547967 83.889399 
L 79.620576 77.810978 
L 85.693184 70.283163 
L 88.729489 67.349231 
L 91.765793 63.851962 
L 94.802097 60.631892 
L 97.838402 58.219766 
L 100.874706 54.147204 
L 106.947314 50.807822 
L 109.983619 47.959055 
L 113.019923 46.908743 
L 116.056227 44.231218 
L 119.092531 43.633598 
L 122.128836 42.501885 
L 125.16514 41.875818 
L 128.201444 40.518977 
L 131.237749 38.951912 
L 134.274053 37.758423 
L 140.346661 33.558312 
L 143.382966 32.975303 
L 146.41927 32.966809 
L 152.491878 31.837551 
L 158.564487 30.610547 
L 161.600791 29.561339 
L 164.637096 29.411492 
L 170.709704 29.342269 
L 176.782313 28.26015 
L 185.891226 28.055149 
L 188.92753 27.631714 
L 195.000138 27.622795 
L 198.036443 27.099666 
L 201.072747 27.036877 
L 207.145355 26.44357 
L 213.217964 26.427309 
L 216.254268 25.886029 
L 228.399485 25.849744 
L 267.871441 25.846763 
L 270.907745 25.365839 
L 276.980354 25.25612 
L 304.307092 25.25416 
L 310.379701 24.070603 
L 313.416005 24.066388 
L 316.452309 23.595136 
L 319.488614 23.475253 
L 386.287308 23.442056 
L 389.323612 22.89941 
L 410.577742 22.881624 
L 416.65035 22.8816 
L 419.686655 22.692448 
L 422.722959 22.288801 
L 422.722959 22.288801 
" style="fill:none;stroke:#55a868;stroke-linecap:round;stroke-width:2;"/>
   </g>
   <g id="patch_3">
    <path d="M 39.678 180.192 
L 39.678 22.288 
" style="fill:none;stroke:#262626;stroke-linecap:square;stroke-linejoin:miter;stroke-width:1.25;"/>
   </g>
   <g id="patch_4">
    <path d="M 185.4555 180.192 
L 185.4555 22.288 
" style="fill:none;stroke:#262626;stroke-linecap:square;stroke-linejoin:miter;stroke-width:1.25;"/>
   </g>
   <g id="patch_5">
    <path d="M 39.678 180.192 
L 185.4555 180.192 
" style="fill:none;stroke:#262626;stroke-linecap:square;stroke-linejoin:miter;stroke-width:1.25;"/>
   </g>
   <g id="patch_6">
    <path d="M 39.678 22.288 
L 185.4555 22.288 
" style="fill:none;stroke:#262626;stroke-linecap:square;stroke-linejoin:miter;stroke-width:1.25;"/>
   </g>
   <g id="text_15">
    <!-- $p_{ranksum}$ &lt; 0.08 -->
    <defs>
     <path d="M 49.609375 33.6875 
Q 49.609375 40.875 46.484375 44.671875 
Q 43.359375 48.484375 37.5 48.484375 
Q 33.5 48.484375 29.859375 46.4375 
Q 26.21875 44.390625 23.390625 40.484375 
Q 20.609375 36.625 18.9375 31.15625 
Q 17.28125 25.6875 17.28125 20.3125 
Q 17.28125 13.484375 20.40625 9.796875 
Q 23.53125 6.109375 29.296875 6.109375 
Q 33.546875 6.109375 37.1875 8.109375 
Q 40.828125 10.109375 43.40625 13.921875 
Q 46.1875 17.921875 47.890625 23.34375 
Q 49.609375 28.765625 49.609375 33.6875 
M 21.78125 46.390625 
Q 25.390625 51.125 30.296875 53.5625 
Q 35.203125 56 41.21875 56 
Q 49.609375 56 54.25 50.5 
Q 58.890625 45.015625 58.890625 35.109375 
Q 58.890625 27 56 19.65625 
Q 53.125 12.3125 47.703125 6.5 
Q 44.09375 2.640625 39.546875 0.609375 
Q 35.015625 -1.421875 29.984375 -1.421875 
Q 24.171875 -1.421875 20.21875 1 
Q 16.265625 3.421875 14.3125 8.203125 
L 8.6875 -20.796875 
L -0.296875 -20.796875 
L 14.40625 54.6875 
L 23.390625 54.6875 
z
" id="DejaVuSans-Oblique-70"/>
     <path d="M 44.578125 46.390625 
Q 43.21875 47.125 41.453125 47.515625 
Q 39.703125 47.90625 37.703125 47.90625 
Q 30.515625 47.90625 25.140625 42.453125 
Q 19.78125 37.015625 18.015625 27.875 
L 12.5 0 
L 3.515625 0 
L 14.203125 54.6875 
L 23.1875 54.6875 
L 21.484375 46.1875 
Q 25.046875 50.921875 30 53.453125 
Q 34.96875 56 40.578125 56 
Q 42.046875 56 43.453125 55.828125 
Q 44.875 55.671875 46.296875 55.28125 
z
" id="DejaVuSans-Oblique-72"/>
     <path d="M 53.71875 31.203125 
L 47.609375 0 
L 38.625 0 
L 40.28125 8.296875 
Q 36.328125 3.421875 31.265625 1 
Q 26.21875 -1.421875 20.015625 -1.421875 
Q 13.03125 -1.421875 8.5625 2.84375 
Q 4.109375 7.125 4.109375 13.8125 
Q 4.109375 23.390625 11.75 28.953125 
Q 19.390625 34.515625 32.8125 34.515625 
L 45.3125 34.515625 
L 45.796875 36.921875 
Q 45.90625 37.3125 45.953125 37.765625 
Q 46 38.234375 46 39.203125 
Q 46 43.5625 42.453125 45.96875 
Q 38.921875 48.390625 32.515625 48.390625 
Q 28.125 48.390625 23.5 47.265625 
Q 18.890625 46.140625 14.015625 43.890625 
L 15.578125 52.203125 
Q 20.65625 54.109375 25.515625 55.046875 
Q 30.375 56 34.90625 56 
Q 44.578125 56 49.625 51.796875 
Q 54.6875 47.609375 54.6875 39.59375 
Q 54.6875 37.984375 54.4375 35.8125 
Q 54.203125 33.640625 53.71875 31.203125 
M 44 27.484375 
L 35.015625 27.484375 
Q 23.96875 27.484375 18.671875 24.53125 
Q 13.375 21.578125 13.375 15.375 
Q 13.375 11.078125 16.078125 8.640625 
Q 18.796875 6.203125 23.578125 6.203125 
Q 30.90625 6.203125 36.375 11.453125 
Q 41.84375 16.703125 43.609375 25.484375 
z
" id="DejaVuSans-Oblique-61"/>
     <path d="M 55.71875 33.015625 
L 49.3125 0 
L 40.28125 0 
L 46.6875 32.671875 
Q 47.125 34.96875 47.359375 36.71875 
Q 47.609375 38.484375 47.609375 39.5 
Q 47.609375 43.609375 45.015625 45.890625 
Q 42.4375 48.1875 37.796875 48.1875 
Q 30.5625 48.1875 25.34375 43.375 
Q 20.125 38.578125 18.5 30.328125 
L 12.5 0 
L 3.515625 0 
L 14.109375 54.6875 
L 23.09375 54.6875 
L 21.296875 46.09375 
Q 25.046875 50.828125 30.3125 53.40625 
Q 35.59375 56 41.40625 56 
Q 48.640625 56 52.609375 52.09375 
Q 56.59375 48.1875 56.59375 41.109375 
Q 56.59375 39.359375 56.375 37.359375 
Q 56.15625 35.359375 55.71875 33.015625 
" id="DejaVuSans-Oblique-6e"/>
     <path d="M 18.3125 75.984375 
L 27.296875 75.984375 
L 18.703125 31.6875 
L 49.515625 54.6875 
L 61.1875 54.6875 
L 26.8125 28.515625 
L 51.90625 0 
L 41.015625 0 
L 17.671875 26.703125 
L 12.5 0 
L 3.515625 0 
z
" id="DejaVuSans-Oblique-6b"/>
     <path d="M 50 53.078125 
L 48.296875 44.578125 
Q 44.734375 46.53125 40.765625 47.5 
Q 36.8125 48.484375 32.625 48.484375 
Q 25.53125 48.484375 21.453125 46.0625 
Q 17.390625 43.65625 17.390625 39.5 
Q 17.390625 34.671875 26.859375 32.078125 
Q 27.59375 31.890625 27.9375 31.78125 
L 30.8125 30.90625 
Q 39.796875 28.421875 42.796875 25.6875 
Q 45.796875 22.953125 45.796875 18.21875 
Q 45.796875 9.515625 38.890625 4.046875 
Q 31.984375 -1.421875 20.796875 -1.421875 
Q 16.453125 -1.421875 11.671875 -0.578125 
Q 6.890625 0.25 1.125 2 
L 2.875 11.28125 
Q 7.8125 8.734375 12.59375 7.421875 
Q 17.390625 6.109375 21.78125 6.109375 
Q 28.375 6.109375 32.5 8.9375 
Q 36.625 11.765625 36.625 16.109375 
Q 36.625 20.796875 25.78125 23.6875 
L 24.859375 23.921875 
L 21.78125 24.703125 
Q 14.9375 26.515625 11.765625 29.46875 
Q 8.59375 32.421875 8.59375 37.015625 
Q 8.59375 45.75 15.15625 50.875 
Q 21.734375 56 33.015625 56 
Q 37.453125 56 41.671875 55.265625 
Q 45.90625 54.546875 50 53.078125 
" id="DejaVuSans-Oblique-73"/>
     <path d="M 6.6875 21.6875 
L 13.09375 54.6875 
L 22.125 54.6875 
L 15.71875 22.015625 
Q 15.234375 19.625 15.015625 17.921875 
Q 14.796875 16.21875 14.796875 15.09375 
Q 14.796875 10.9375 17.328125 8.65625 
Q 19.875 6.390625 24.515625 6.390625 
Q 31.734375 6.390625 37 11.265625 
Q 42.28125 16.15625 43.890625 24.421875 
L 49.90625 54.6875 
L 58.890625 54.6875 
L 48.296875 0 
L 39.3125 0 
L 41.109375 8.59375 
Q 37.3125 3.8125 32.0625 1.1875 
Q 26.8125 -1.421875 20.90625 -1.421875 
Q 13.71875 -1.421875 9.71875 2.515625 
Q 5.71875 6.453125 5.71875 13.484375 
Q 5.71875 14.9375 5.953125 17.140625 
Q 6.203125 19.34375 6.6875 21.6875 
" id="DejaVuSans-Oblique-75"/>
     <path d="M 89.796875 33.015625 
L 83.40625 0 
L 74.421875 0 
L 80.71875 32.71875 
Q 81.109375 34.8125 81.296875 36.328125 
Q 81.5 37.84375 81.5 38.921875 
Q 81.5 43.3125 79.046875 45.75 
Q 76.609375 48.1875 72.21875 48.1875 
Q 65.671875 48.1875 60.546875 43.28125 
Q 55.421875 38.375 53.90625 30.515625 
L 47.90625 0 
L 38.921875 0 
L 45.3125 32.71875 
Q 45.703125 34.515625 45.890625 36.046875 
Q 46.09375 37.59375 46.09375 38.8125 
Q 46.09375 43.265625 43.65625 45.71875 
Q 41.21875 48.1875 36.921875 48.1875 
Q 30.28125 48.1875 25.140625 43.28125 
Q 20.015625 38.375 18.5 30.515625 
L 12.5 0 
L 3.515625 0 
L 14.203125 54.6875 
L 23.1875 54.6875 
L 21.484375 46.1875 
Q 25.140625 50.984375 30.046875 53.484375 
Q 34.96875 56 40.578125 56 
Q 46.53125 56 50.359375 52.875 
Q 54.203125 49.75 54.984375 44.1875 
Q 59.078125 49.953125 64.46875 52.96875 
Q 69.875 56 75.875 56 
Q 82.90625 56 86.734375 51.953125 
Q 90.578125 47.90625 90.578125 40.484375 
Q 90.578125 38.875 90.375 36.9375 
Q 90.1875 35.015625 89.796875 33.015625 
" id="DejaVuSans-Oblique-6d"/>
     <path d="M 4.9375 27.875 
L 4.9375 37.890625 
L 53.515625 58.296875 
L 53.515625 50.78125 
L 11.625 32.90625 
L 53.515625 14.984375 
L 53.515625 7.515625 
z
" id="LiberationSans-3c"/>
    </defs>
    <g style="fill:#262626;" transform="translate(79.87875 18.288)scale(0.096 -0.096)">
     <use transform="translate(0 0.171875)" xlink:href="#DejaVuSans-Oblique-70"/>
     <use transform="translate(63.476562 -16.234375)scale(0.7)" xlink:href="#DejaVuSans-Oblique-72"/>
     <use transform="translate(92.255859 -16.234375)scale(0.7)" xlink:href="#DejaVuSans-Oblique-61"/>
     <use transform="translate(135.151367 -16.234375)scale(0.7)" xlink:href="#DejaVuSans-Oblique-6e"/>
     <use transform="translate(179.516602 -16.234375)scale(0.7)" xlink:href="#DejaVuSans-Oblique-6b"/>
     <use transform="translate(220.053711 -16.234375)scale(0.7)" xlink:href="#DejaVuSans-Oblique-73"/>
     <use transform="translate(256.523438 -16.234375)scale(0.7)" xlink:href="#DejaVuSans-Oblique-75"/>
     <use transform="translate(300.888672 -16.234375)scale(0.7)" xlink:href="#DejaVuSans-Oblique-6d"/>
     <use transform="translate(371.811523 0.171875)" xlink:href="#LiberationSans-20"/>
     <use transform="translate(399.594727 0.171875)" xlink:href="#LiberationSans-3c"/>
     <use transform="translate(457.993164 0.171875)" xlink:href="#LiberationSans-20"/>
     <use transform="translate(485.776367 0.171875)" xlink:href="#LiberationSans-30"/>
     <use transform="translate(541.391602 0.171875)" xlink:href="#LiberationSans-2e"/>
     <use transform="translate(569.174805 0.171875)" xlink:href="#LiberationSans-30"/>
     <use transform="translate(624.790039 0.171875)" xlink:href="#LiberationSans-38"/>
    </g>
   </g>
   <g id="legend_1">
    <g id="line2d_15">
     <path d="M 73.3655 157.0745 
L 89.3655 157.0745 
" style="fill:none;stroke:#4c72b0;stroke-linecap:round;stroke-width:2;"/>
    </g>
    <g id="line2d_16"/>
    <g id="text_16">
     <!-- not regulated (N = 480) -->
     <defs>
      <path d="M 6.203125 25.984375 
Q 6.203125 32.765625 7.21875 38.96875 
Q 8.25 45.171875 10.4375 50.875 
Q 12.640625 56.59375 16.0625 61.953125 
Q 19.484375 67.328125 24.21875 72.46875 
L 32.71875 72.46875 
Q 28.125 67.328125 24.78125 61.9375 
Q 21.4375 56.546875 19.28125 50.796875 
Q 17.140625 45.0625 16.09375 38.859375 
Q 15.046875 32.671875 15.046875 25.875 
Q 15.046875 19.09375 16.09375 12.890625 
Q 17.140625 6.6875 19.28125 0.921875 
Q 21.4375 -4.828125 24.78125 -10.203125 
Q 28.125 -15.578125 32.71875 -20.703125 
L 24.21875 -20.703125 
Q 19.484375 -15.578125 16.0625 -10.203125 
Q 12.640625 -4.828125 10.4375 0.875 
Q 8.25 6.59375 7.21875 12.765625 
Q 6.203125 18.953125 6.203125 25.78125 
z
" id="LiberationSans-28"/>
      <path d="M 52.828125 0 
L 16.015625 58.59375 
Q 16.109375 56.203125 16.265625 53.859375 
Q 16.359375 51.859375 16.421875 49.625 
Q 16.5 47.40625 16.5 45.703125 
L 16.5 0 
L 8.203125 0 
L 8.203125 68.796875 
L 19.046875 68.796875 
L 56.25 9.8125 
Q 56.109375 12.203125 55.953125 14.59375 
Q 55.859375 16.65625 55.765625 19.0625 
Q 55.671875 21.484375 55.671875 23.6875 
L 55.671875 68.796875 
L 64.0625 68.796875 
L 64.0625 0 
z
" id="LiberationSans-4e"/>
      <path d="M 4.890625 41.796875 
L 4.890625 49.03125 
L 53.46875 49.03125 
L 53.46875 41.796875 
z
M 4.890625 16.796875 
L 4.890625 24.03125 
L 53.46875 24.03125 
L 53.46875 16.796875 
z
" id="LiberationSans-3d"/>
      <path d="M 27.09375 25.78125 
Q 27.09375 18.953125 26.0625 12.765625 
Q 25.046875 6.59375 22.84375 0.875 
Q 20.65625 -4.828125 17.234375 -10.203125 
Q 13.8125 -15.578125 9.078125 -20.703125 
L 0.59375 -20.703125 
Q 5.171875 -15.578125 8.515625 -10.203125 
Q 11.859375 -4.828125 14 0.921875 
Q 16.15625 6.6875 17.203125 12.890625 
Q 18.265625 19.09375 18.265625 25.875 
Q 18.265625 32.671875 17.203125 38.859375 
Q 16.15625 45.0625 14 50.796875 
Q 11.859375 56.546875 8.515625 61.9375 
Q 5.171875 67.328125 0.59375 72.46875 
L 9.078125 72.46875 
Q 13.8125 67.328125 17.234375 61.953125 
Q 20.65625 56.59375 22.84375 50.875 
Q 25.046875 45.171875 26.0625 38.96875 
Q 27.09375 32.765625 27.09375 25.984375 
z
" id="LiberationSans-29"/>
     </defs>
     <g style="fill:#262626;" transform="translate(95.7655 159.8745)scale(0.08 -0.08)">
      <use xlink:href="#LiberationSans-6e"/>
      <use x="55.615234" xlink:href="#LiberationSans-6f"/>
      <use x="111.230469" xlink:href="#LiberationSans-74"/>
      <use x="139.013672" xlink:href="#LiberationSans-20"/>
      <use x="166.796875" xlink:href="#LiberationSans-72"/>
      <use x="200.097656" xlink:href="#LiberationSans-65"/>
      <use x="255.712891" xlink:href="#LiberationSans-67"/>
      <use x="311.328125" xlink:href="#LiberationSans-75"/>
      <use x="366.943359" xlink:href="#LiberationSans-6c"/>
      <use x="389.160156" xlink:href="#LiberationSans-61"/>
      <use x="444.775391" xlink:href="#LiberationSans-74"/>
      <use x="472.558594" xlink:href="#LiberationSans-65"/>
      <use x="528.173828" xlink:href="#LiberationSans-64"/>
      <use x="583.789062" xlink:href="#LiberationSans-20"/>
      <use x="611.572266" xlink:href="#LiberationSans-28"/>
      <use x="644.873047" xlink:href="#LiberationSans-4e"/>
      <use x="717.089844" xlink:href="#LiberationSans-20"/>
      <use x="744.873047" xlink:href="#LiberationSans-3d"/>
      <use x="803.271484" xlink:href="#LiberationSans-20"/>
      <use x="831.054688" xlink:href="#LiberationSans-34"/>
      <use x="886.669922" xlink:href="#LiberationSans-38"/>
      <use x="942.285156" xlink:href="#LiberationSans-30"/>
      <use x="997.900391" xlink:href="#LiberationSans-29"/>
     </g>
    </g>
    <g id="line2d_17">
     <path d="M 73.3655 168.532 
L 89.3655 168.532 
" style="fill:none;stroke:#55a868;stroke-linecap:round;stroke-width:2;"/>
    </g>
    <g id="line2d_18"/>
    <g id="text_17">
     <!-- regulated (N = 266) -->
     <g style="fill:#262626;" transform="translate(95.7655 171.332)scale(0.08 -0.08)">
      <use xlink:href="#LiberationSans-72"/>
      <use x="33.300781" xlink:href="#LiberationSans-65"/>
      <use x="88.916016" xlink:href="#LiberationSans-67"/>
      <use x="144.53125" xlink:href="#LiberationSans-75"/>
      <use x="200.146484" xlink:href="#LiberationSans-6c"/>
      <use x="222.363281" xlink:href="#LiberationSans-61"/>
      <use x="277.978516" xlink:href="#LiberationSans-74"/>
      <use x="305.761719" xlink:href="#LiberationSans-65"/>
      <use x="361.376953" xlink:href="#LiberationSans-64"/>
      <use x="416.992188" xlink:href="#LiberationSans-20"/>
      <use x="444.775391" xlink:href="#LiberationSans-28"/>
      <use x="478.076172" xlink:href="#LiberationSans-4e"/>
      <use x="550.292969" xlink:href="#LiberationSans-20"/>
      <use x="578.076172" xlink:href="#LiberationSans-3d"/>
      <use x="636.474609" xlink:href="#LiberationSans-20"/>
      <use x="664.257812" xlink:href="#LiberationSans-32"/>
      <use x="719.873047" xlink:href="#LiberationSans-36"/>
      <use x="775.488281" xlink:href="#LiberationSans-36"/>
      <use x="831.103516" xlink:href="#LiberationSans-29"/>
     </g>
    </g>
   </g>
  </g>
  <g id="axes_2">
   <g id="patch_7">
    <path d="M 212.9185 180.192 
L 358.696 180.192 
L 358.696 22.288 
L 212.9185 22.288 
z
" style="fill:#ffffff;"/>
   </g>
   <g id="matplotlib.axis_3">
    <g id="xtick_7">
     <g id="line2d_19"/>
     <g id="text_18">
      <!-- 0 -->
      <g style="fill:#262626;" transform="translate(210.694125 191.5895)scale(0.08 -0.08)">
       <use xlink:href="#LiberationSans-30"/>
      </g>
     </g>
    </g>
    <g id="xtick_8">
     <g id="line2d_20"/>
     <g id="text_19">
      <!-- 5 -->
      <g style="fill:#262626;" transform="translate(239.849625 191.5895)scale(0.08 -0.08)">
       <use xlink:href="#LiberationSans-35"/>
      </g>
     </g>
    </g>
    <g id="xtick_9">
     <g id="line2d_21"/>
     <g id="text_20">
      <!-- 10 -->
      <g style="fill:#262626;" transform="translate(266.78075 191.5895)scale(0.08 -0.08)">
       <use xlink:href="#LiberationSans-31"/>
       <use x="55.615234" xlink:href="#LiberationSans-30"/>
      </g>
     </g>
    </g>
    <g id="xtick_10">
     <g id="line2d_22"/>
     <g id="text_21">
      <!-- 15 -->
      <g style="fill:#262626;" transform="translate(295.93625 191.5895)scale(0.08 -0.08)">
       <use xlink:href="#LiberationSans-31"/>
       <use x="55.615234" xlink:href="#LiberationSans-35"/>
      </g>
     </g>
    </g>
    <g id="xtick_11">
     <g id="line2d_23"/>
     <g id="text_22">
      <!-- 20 -->
      <g style="fill:#262626;" transform="translate(325.09175 191.5895)scale(0.08 -0.08)">
       <use xlink:href="#LiberationSans-32"/>
       <use x="55.615234" xlink:href="#LiberationSans-30"/>
      </g>
     </g>
    </g>
    <g id="xtick_12">
     <g id="line2d_24"/>
     <g id="text_23">
      <!-- 25 -->
      <g style="fill:#262626;" transform="translate(354.24725 191.5895)scale(0.08 -0.08)">
       <use xlink:href="#LiberationSans-32"/>
       <use x="55.615234" xlink:href="#LiberationSans-35"/>
      </g>
     </g>
    </g>
    <g id="text_24">
     <!-- Activation -->
     <defs>
      <path d="M 56.984375 0 
L 49.125 20.125 
L 17.78125 20.125 
L 9.859375 0 
L 0.203125 0 
L 28.265625 68.796875 
L 38.875 68.796875 
L 66.5 0 
z
M 37.5 50.09375 
Q 36.71875 52.046875 36 54.046875 
Q 35.296875 56.0625 34.765625 57.6875 
Q 34.234375 59.328125 33.859375 60.421875 
Q 33.5 61.53125 33.453125 61.765625 
Q 33.34375 61.53125 33 60.40625 
Q 32.671875 59.28125 32.109375 57.609375 
Q 31.546875 55.953125 30.828125 53.953125 
Q 30.125 51.953125 29.390625 50 
L 20.609375 27.390625 
L 46.34375 27.390625 
z
" id="LiberationSans-41"/>
      <path d="M 13.421875 26.65625 
Q 13.421875 22.125 14.078125 18.3125 
Q 14.75 14.5 16.3125 11.734375 
Q 17.875 8.984375 20.4375 7.46875 
Q 23 5.953125 26.765625 5.953125 
Q 31.453125 5.953125 34.59375 8.484375 
Q 37.75 11.03125 38.484375 16.3125 
L 47.359375 15.71875 
Q 46.921875 12.453125 45.453125 9.421875 
Q 44 6.390625 41.484375 4.09375 
Q 38.96875 1.8125 35.34375 0.40625 
Q 31.734375 -0.984375 27 -0.984375 
Q 20.796875 -0.984375 16.453125 1.109375 
Q 12.109375 3.21875 9.390625 6.90625 
Q 6.6875 10.59375 5.46875 15.59375 
Q 4.25 20.609375 4.25 26.46875 
Q 4.25 31.78125 5.125 35.859375 
Q 6 39.9375 7.59375 42.984375 
Q 9.1875 46.046875 11.328125 48.125 
Q 13.484375 50.203125 15.984375 51.4375 
Q 18.5 52.6875 21.28125 53.25 
Q 24.078125 53.8125 26.90625 53.8125 
Q 31.34375 53.8125 34.8125 52.59375 
Q 38.28125 51.375 40.796875 49.25 
Q 43.3125 47.125 44.875 44.234375 
Q 46.4375 41.359375 47.078125 38.03125 
L 38.03125 37.359375 
Q 37.359375 41.75 34.5625 44.328125 
Q 31.78125 46.921875 26.65625 46.921875 
Q 22.90625 46.921875 20.390625 45.671875 
Q 17.875 44.4375 16.3125 41.921875 
Q 14.75 39.40625 14.078125 35.59375 
Q 13.421875 31.78125 13.421875 26.65625 
" id="LiberationSans-63"/>
     </defs>
     <g style="fill:#262626;" transform="translate(266.731875 203.62675)scale(0.088 -0.088)">
      <use xlink:href="#LiberationSans-41"/>
      <use x="66.699219" xlink:href="#LiberationSans-63"/>
      <use x="116.699219" xlink:href="#LiberationSans-74"/>
      <use x="144.482422" xlink:href="#LiberationSans-69"/>
      <use x="166.699219" xlink:href="#LiberationSans-76"/>
      <use x="216.699219" xlink:href="#LiberationSans-61"/>
      <use x="272.314453" xlink:href="#LiberationSans-74"/>
      <use x="300.097656" xlink:href="#LiberationSans-69"/>
      <use x="322.314453" xlink:href="#LiberationSans-6f"/>
      <use x="377.929688" xlink:href="#LiberationSans-6e"/>
     </g>
    </g>
   </g>
   <g id="matplotlib.axis_4">
    <g id="ytick_7">
     <g id="line2d_25"/>
    </g>
    <g id="ytick_8">
     <g id="line2d_26"/>
    </g>
    <g id="ytick_9">
     <g id="line2d_27"/>
    </g>
    <g id="ytick_10">
     <g id="line2d_28"/>
    </g>
    <g id="ytick_11">
     <g id="line2d_29"/>
    </g>
    <g id="ytick_12">
     <g id="line2d_30"/>
    </g>
    <g id="text_25">
     <!-- Cumulative distribution -->
     <g style="fill:#262626;" transform="translate(207.0925 145.746688)rotate(-90)scale(0.088 -0.088)">
      <use xlink:href="#LiberationSans-43"/>
      <use x="72.216797" xlink:href="#LiberationSans-75"/>
      <use x="127.832031" xlink:href="#LiberationSans-6d"/>
      <use x="211.132812" xlink:href="#LiberationSans-75"/>
      <use x="266.748047" xlink:href="#LiberationSans-6c"/>
      <use x="288.964844" xlink:href="#LiberationSans-61"/>
      <use x="344.580078" xlink:href="#LiberationSans-74"/>
      <use x="372.363281" xlink:href="#LiberationSans-69"/>
      <use x="394.580078" xlink:href="#LiberationSans-76"/>
      <use x="444.580078" xlink:href="#LiberationSans-65"/>
      <use x="500.195312" xlink:href="#LiberationSans-20"/>
      <use x="527.978516" xlink:href="#LiberationSans-64"/>
      <use x="583.59375" xlink:href="#LiberationSans-69"/>
      <use x="605.810547" xlink:href="#LiberationSans-73"/>
      <use x="655.810547" xlink:href="#LiberationSans-74"/>
      <use x="683.59375" xlink:href="#LiberationSans-72"/>
      <use x="716.894531" xlink:href="#LiberationSans-69"/>
      <use x="739.111328" xlink:href="#LiberationSans-62"/>
      <use x="794.726562" xlink:href="#LiberationSans-75"/>
      <use x="850.341797" xlink:href="#LiberationSans-74"/>
      <use x="878.125" xlink:href="#LiberationSans-69"/>
      <use x="900.341797" xlink:href="#LiberationSans-6f"/>
      <use x="955.957031" xlink:href="#LiberationSans-6e"/>
     </g>
    </g>
   </g>
   <g id="line2d_31">
    <path clip-path="url(#pbbd430f442)" d="M 210.411127 180.189947 
L 217.86713 159.10426 
L 225.323132 138.964826 
L 232.779135 120.506812 
L 240.235137 104.095026 
L 247.69114 93.179426 
L 255.147143 83.543394 
L 262.603145 70.151952 
L 270.059148 60.057455 
L 277.51515 55.083193 
L 284.971153 46.966645 
L 292.427155 43.371072 
L 299.883158 41.172609 
L 314.795163 34.467607 
L 322.251166 33.26238 
L 329.707168 31.929814 
L 337.163171 31.260827 
L 344.619174 30.732525 
L 352.075176 29.926275 
L 359.531179 29.68092 
L 366.987181 29.086393 
L 374.443184 27.886175 
L 381.899187 27.384092 
L 426.635202 27.381677 
L 434.091205 27.200446 
L 441.547207 27.133745 
L 449.00321 26.411451 
L 456.459212 25.926354 
L 463.915215 25.926341 
L 471.371218 25.246678 
L 478.82722 25.172727 
L 486.283223 24.713561 
L 531.019238 24.713561 
L 538.475241 24.378062 
L 545.931244 24.228449 
L 553.387246 24.228449 
L 560.843249 24.109324 
L 568.299251 23.743336 
L 590.667259 23.74279 
L 598.123262 23.015681 
L 605.579264 23.015668 
L 613.035267 22.773165 
L 680.13929 22.739969 
L 687.595293 22.530556 
L 721 22.530556 
L 721 22.530556 
" style="fill:none;stroke:#4c72b0;stroke-linecap:round;stroke-width:2;"/>
   </g>
   <g id="line2d_32">
    <path clip-path="url(#pbbd430f442)" d="M 210.352816 180.188527 
L 212.567257 178.95396 
L 214.781697 168.022613 
L 216.996138 156.163317 
L 221.425019 138.90388 
L 223.639459 135.168891 
L 225.8539 131.740047 
L 228.068341 127.947271 
L 230.282781 121.1614 
L 232.497222 107.25042 
L 234.711662 94.175251 
L 239.140543 82.093315 
L 241.354984 80.447556 
L 243.569425 79.411664 
L 245.783865 77.815093 
L 247.998306 77.143476 
L 250.212746 77.138816 
L 252.427187 77.012024 
L 254.641627 74.732687 
L 256.856068 71.320675 
L 259.070509 67.326483 
L 261.284949 65.581349 
L 263.49939 64.316693 
L 267.928271 60.914047 
L 270.142712 59.078085 
L 274.571593 50.614313 
L 276.786033 49.832498 
L 279.000474 48.78447 
L 281.214914 46.028387 
L 283.429355 43.830737 
L 285.643796 42.463404 
L 287.858236 40.81145 
L 290.072677 38.989965 
L 292.287117 38.847312 
L 294.501558 36.684545 
L 296.715998 35.590336 
L 298.930439 35.557653 
L 301.14488 33.743968 
L 303.35932 32.273598 
L 307.788201 32.233722 
L 310.002642 31.174049 
L 312.217082 30.601576 
L 325.503726 30.592653 
L 327.718166 29.866843 
L 329.932607 28.950899 
L 332.147048 28.870475 
L 334.361488 27.637029 
L 336.575929 27.275217 
L 385.293621 27.273509 
L 387.508062 26.885626 
L 389.722503 25.671262 
L 394.151384 25.612295 
L 478.300126 25.611557 
L 480.514566 25.256356 
L 482.729007 24.018232 
L 487.157888 23.917683 
L 489.372328 22.819565 
L 491.586769 22.290244 
L 491.586769 22.290244 
" style="fill:none;stroke:#55a868;stroke-linecap:round;stroke-width:2;"/>
   </g>
   <g id="patch_8">
    <path d="M 212.9185 180.192 
L 212.9185 22.288 
" style="fill:none;stroke:#262626;stroke-linecap:square;stroke-linejoin:miter;stroke-width:1.25;"/>
   </g>
   <g id="patch_9">
    <path d="M 358.696 180.192 
L 358.696 22.288 
" style="fill:none;stroke:#262626;stroke-linecap:square;stroke-linejoin:miter;stroke-width:1.25;"/>
   </g>
   <g id="patch_10">
    <path d="M 212.9185 180.192 
L 358.696 180.192 
" style="fill:none;stroke:#262626;stroke-linecap:square;stroke-linejoin:miter;stroke-width:1.25;"/>
   </g>
   <g id="patch_11">
    <path d="M 212.9185 22.288 
L 358.696 22.288 
" style="fill:none;stroke:#262626;stroke-linecap:square;stroke-linejoin:miter;stroke-width:1.25;"/>
   </g>
   <g id="text_26">
    <!-- $p_{ranksum}$ &lt; 0.09 -->
    <defs>
     <path d="M 50.875 35.796875 
Q 50.875 26.609375 49.140625 19.703125 
Q 47.40625 12.796875 44.1875 8.203125 
Q 40.96875 3.609375 36.34375 1.3125 
Q 31.734375 -0.984375 25.984375 -0.984375 
Q 22.015625 -0.984375 18.84375 -0.171875 
Q 15.671875 0.640625 13.171875 2.34375 
Q 10.6875 4.046875 8.921875 6.78125 
Q 7.171875 9.515625 6.109375 13.375 
L 14.5 14.703125 
Q 15.875 10.25 18.78125 8.171875 
Q 21.6875 6.109375 26.125 6.109375 
Q 29.6875 6.109375 32.640625 7.78125 
Q 35.59375 9.46875 37.671875 12.84375 
Q 39.75 16.21875 40.921875 21.296875 
Q 42.09375 26.375 42.1875 33.203125 
Q 41.15625 30.90625 39.375 29.09375 
Q 37.59375 27.296875 35.328125 26.046875 
Q 33.0625 24.8125 30.421875 24.140625 
Q 27.78125 23.484375 25.09375 23.484375 
Q 20.40625 23.484375 16.625 25.171875 
Q 12.84375 26.859375 10.203125 29.875 
Q 7.5625 32.90625 6.125 37.171875 
Q 4.6875 41.453125 4.6875 46.6875 
Q 4.6875 52 6.21875 56.296875 
Q 7.765625 60.59375 10.6875 63.59375 
Q 13.625 66.609375 17.890625 68.21875 
Q 22.171875 69.828125 27.59375 69.828125 
Q 39.0625 69.828125 44.96875 61.328125 
Q 50.875 52.828125 50.875 35.796875 
M 41.3125 44.28125 
Q 41.3125 48.09375 40.40625 51.453125 
Q 39.5 54.828125 37.71875 57.3125 
Q 35.9375 59.8125 33.328125 61.25 
Q 30.71875 62.703125 27.296875 62.703125 
Q 24.125 62.703125 21.578125 61.578125 
Q 19.046875 60.453125 17.28125 58.375 
Q 15.53125 56.296875 14.578125 53.3125 
Q 13.625 50.34375 13.625 46.6875 
Q 13.625 43.21875 14.46875 40.234375 
Q 15.328125 37.25 17.03125 35.078125 
Q 18.75 32.90625 21.28125 31.65625 
Q 23.828125 30.421875 27.203125 30.421875 
Q 29.640625 30.421875 32.15625 31.25 
Q 34.671875 32.078125 36.6875 33.78125 
Q 38.71875 35.5 40.015625 38.109375 
Q 41.3125 40.71875 41.3125 44.28125 
" id="LiberationSans-39"/>
    </defs>
    <g style="fill:#262626;" transform="translate(253.11925 18.288)scale(0.096 -0.096)">
     <use transform="translate(0 0.171875)" xlink:href="#DejaVuSans-Oblique-70"/>
     <use transform="translate(63.476562 -16.234375)scale(0.7)" xlink:href="#DejaVuSans-Oblique-72"/>
     <use transform="translate(92.255859 -16.234375)scale(0.7)" xlink:href="#DejaVuSans-Oblique-61"/>
     <use transform="translate(135.151367 -16.234375)scale(0.7)" xlink:href="#DejaVuSans-Oblique-6e"/>
     <use transform="translate(179.516602 -16.234375)scale(0.7)" xlink:href="#DejaVuSans-Oblique-6b"/>
     <use transform="translate(220.053711 -16.234375)scale(0.7)" xlink:href="#DejaVuSans-Oblique-73"/>
     <use transform="translate(256.523438 -16.234375)scale(0.7)" xlink:href="#DejaVuSans-Oblique-75"/>
     <use transform="translate(300.888672 -16.234375)scale(0.7)" xlink:href="#DejaVuSans-Oblique-6d"/>
     <use transform="translate(371.811523 0.171875)" xlink:href="#LiberationSans-20"/>
     <use transform="translate(399.594727 0.171875)" xlink:href="#LiberationSans-3c"/>
     <use transform="translate(457.993164 0.171875)" xlink:href="#LiberationSans-20"/>
     <use transform="translate(485.776367 0.171875)" xlink:href="#LiberationSans-30"/>
     <use transform="translate(541.391602 0.171875)" xlink:href="#LiberationSans-2e"/>
     <use transform="translate(569.174805 0.171875)" xlink:href="#LiberationSans-30"/>
     <use transform="translate(624.790039 0.171875)" xlink:href="#LiberationSans-39"/>
    </g>
   </g>
   <g id="legend_2">
    <g id="line2d_33">
     <path d="M 247.94475 157.0745 
L 263.94475 157.0745 
" style="fill:none;stroke:#4c72b0;stroke-linecap:round;stroke-width:2;"/>
    </g>
    <g id="line2d_34"/>
    <g id="text_27">
     <!-- not activated (N = 651) -->
     <g style="fill:#262626;" transform="translate(270.34475 159.8745)scale(0.08 -0.08)">
      <use xlink:href="#LiberationSans-6e"/>
      <use x="55.615234" xlink:href="#LiberationSans-6f"/>
      <use x="111.230469" xlink:href="#LiberationSans-74"/>
      <use x="139.013672" xlink:href="#LiberationSans-20"/>
      <use x="166.796875" xlink:href="#LiberationSans-61"/>
      <use x="222.412109" xlink:href="#LiberationSans-63"/>
      <use x="272.412109" xlink:href="#LiberationSans-74"/>
      <use x="300.195312" xlink:href="#LiberationSans-69"/>
      <use x="322.412109" xlink:href="#LiberationSans-76"/>
      <use x="372.412109" xlink:href="#LiberationSans-61"/>
      <use x="428.027344" xlink:href="#LiberationSans-74"/>
      <use x="455.810547" xlink:href="#LiberationSans-65"/>
      <use x="511.425781" xlink:href="#LiberationSans-64"/>
      <use x="567.041016" xlink:href="#LiberationSans-20"/>
      <use x="594.824219" xlink:href="#LiberationSans-28"/>
      <use x="628.125" xlink:href="#LiberationSans-4e"/>
      <use x="700.341797" xlink:href="#LiberationSans-20"/>
      <use x="728.125" xlink:href="#LiberationSans-3d"/>
      <use x="786.523438" xlink:href="#LiberationSans-20"/>
      <use x="814.306641" xlink:href="#LiberationSans-36"/>
      <use x="869.921875" xlink:href="#LiberationSans-35"/>
      <use x="925.537109" xlink:href="#LiberationSans-31"/>
      <use x="981.152344" xlink:href="#LiberationSans-29"/>
     </g>
    </g>
    <g id="line2d_35">
     <path d="M 247.94475 168.532 
L 263.94475 168.532 
" style="fill:none;stroke:#55a868;stroke-linecap:round;stroke-width:2;"/>
    </g>
    <g id="line2d_36"/>
    <g id="text_28">
     <!-- activated (N = 95) -->
     <g style="fill:#262626;" transform="translate(270.34475 171.332)scale(0.08 -0.08)">
      <use xlink:href="#LiberationSans-61"/>
      <use x="55.615234" xlink:href="#LiberationSans-63"/>
      <use x="105.615234" xlink:href="#LiberationSans-74"/>
      <use x="133.398438" xlink:href="#LiberationSans-69"/>
      <use x="155.615234" xlink:href="#LiberationSans-76"/>
      <use x="205.615234" xlink:href="#LiberationSans-61"/>
      <use x="261.230469" xlink:href="#LiberationSans-74"/>
      <use x="289.013672" xlink:href="#LiberationSans-65"/>
      <use x="344.628906" xlink:href="#LiberationSans-64"/>
      <use x="400.244141" xlink:href="#LiberationSans-20"/>
      <use x="428.027344" xlink:href="#LiberationSans-28"/>
      <use x="461.328125" xlink:href="#LiberationSans-4e"/>
      <use x="533.544922" xlink:href="#LiberationSans-20"/>
      <use x="561.328125" xlink:href="#LiberationSans-3d"/>
      <use x="619.726562" xlink:href="#LiberationSans-20"/>
      <use x="647.509766" xlink:href="#LiberationSans-39"/>
      <use x="703.125" xlink:href="#LiberationSans-35"/>
      <use x="758.740234" xlink:href="#LiberationSans-29"/>
     </g>
    </g>
   </g>
  </g>
  <g id="axes_3">
   <g id="patch_12">
    <path d="M 386.159 180.192 
L 531.9365 180.192 
L 531.9365 22.288 
L 386.159 22.288 
z
" style="fill:#ffffff;"/>
   </g>
   <g id="matplotlib.axis_5">
    <g id="xtick_13">
     <g id="line2d_37"/>
     <g id="text_29">
      <!-- 0 -->
      <g style="fill:#262626;" transform="translate(383.934625 191.5895)scale(0.08 -0.08)">
       <use xlink:href="#LiberationSans-30"/>
      </g>
     </g>
    </g>
    <g id="xtick_14">
     <g id="line2d_38"/>
     <g id="text_30">
      <!-- 5 -->
      <g style="fill:#262626;" transform="translate(413.090125 191.5895)scale(0.08 -0.08)">
       <use xlink:href="#LiberationSans-35"/>
      </g>
     </g>
    </g>
    <g id="xtick_15">
     <g id="line2d_39"/>
     <g id="text_31">
      <!-- 10 -->
      <g style="fill:#262626;" transform="translate(440.02125 191.5895)scale(0.08 -0.08)">
       <use xlink:href="#LiberationSans-31"/>
       <use x="55.615234" xlink:href="#LiberationSans-30"/>
      </g>
     </g>
    </g>
    <g id="xtick_16">
     <g id="line2d_40"/>
     <g id="text_32">
      <!-- 15 -->
      <g style="fill:#262626;" transform="translate(469.17675 191.5895)scale(0.08 -0.08)">
       <use xlink:href="#LiberationSans-31"/>
       <use x="55.615234" xlink:href="#LiberationSans-35"/>
      </g>
     </g>
    </g>
    <g id="xtick_17">
     <g id="line2d_41"/>
     <g id="text_33">
      <!-- 20 -->
      <g style="fill:#262626;" transform="translate(498.33225 191.5895)scale(0.08 -0.08)">
       <use xlink:href="#LiberationSans-32"/>
       <use x="55.615234" xlink:href="#LiberationSans-30"/>
      </g>
     </g>
    </g>
    <g id="xtick_18">
     <g id="line2d_42"/>
     <g id="text_34">
      <!-- 25 -->
      <g style="fill:#262626;" transform="translate(527.48775 191.5895)scale(0.08 -0.08)">
       <use xlink:href="#LiberationSans-32"/>
       <use x="55.615234" xlink:href="#LiberationSans-35"/>
      </g>
     </g>
    </g>
    <g id="text_35">
     <!-- Inhibition -->
     <defs>
      <path d="M 9.234375 0 
L 9.234375 68.796875 
L 18.5625 68.796875 
L 18.5625 0 
z
" id="LiberationSans-49"/>
      <path d="M 15.484375 43.796875 
Q 16.9375 46.484375 18.640625 48.359375 
Q 20.359375 50.25 22.40625 51.46875 
Q 24.46875 52.6875 26.90625 53.25 
Q 29.34375 53.8125 32.375 53.8125 
Q 37.453125 53.8125 40.703125 52.4375 
Q 43.953125 51.078125 45.828125 48.609375 
Q 47.703125 46.140625 48.40625 42.71875 
Q 49.125 39.3125 49.125 35.203125 
L 49.125 0 
L 40.28125 0 
L 40.28125 33.5 
Q 40.28125 36.859375 39.859375 39.390625 
Q 39.453125 41.9375 38.28125 43.625 
Q 37.109375 45.3125 34.953125 46.15625 
Q 32.8125 47.015625 29.390625 47.015625 
Q 26.265625 47.015625 23.75 45.890625 
Q 21.234375 44.78125 19.453125 42.71875 
Q 17.671875 40.671875 16.6875 37.734375 
Q 15.71875 34.8125 15.71875 31.15625 
L 15.71875 0 
L 6.9375 0 
L 6.9375 72.46875 
L 15.71875 72.46875 
L 15.71875 53.609375 
Q 15.71875 52 15.671875 50.390625 
Q 15.625 48.78125 15.546875 47.40625 
Q 15.484375 46.046875 15.421875 45.09375 
Q 15.375 44.140625 15.328125 43.796875 
z
" id="LiberationSans-68"/>
     </defs>
     <g style="fill:#262626;" transform="translate(441.436063 203.62675)scale(0.088 -0.088)">
      <use xlink:href="#LiberationSans-49"/>
      <use x="27.783203" xlink:href="#LiberationSans-6e"/>
      <use x="83.398438" xlink:href="#LiberationSans-68"/>
      <use x="139.013672" xlink:href="#LiberationSans-69"/>
      <use x="161.230469" xlink:href="#LiberationSans-62"/>
      <use x="216.845703" xlink:href="#LiberationSans-69"/>
      <use x="239.0625" xlink:href="#LiberationSans-74"/>
      <use x="266.845703" xlink:href="#LiberationSans-69"/>
      <use x="289.0625" xlink:href="#LiberationSans-6f"/>
      <use x="344.677734" xlink:href="#LiberationSans-6e"/>
     </g>
    </g>
   </g>
   <g id="matplotlib.axis_6">
    <g id="ytick_13">
     <g id="line2d_43"/>
    </g>
    <g id="ytick_14">
     <g id="line2d_44"/>
    </g>
    <g id="ytick_15">
     <g id="line2d_45"/>
    </g>
    <g id="ytick_16">
     <g id="line2d_46"/>
    </g>
    <g id="ytick_17">
     <g id="line2d_47"/>
    </g>
    <g id="ytick_18">
     <g id="line2d_48"/>
    </g>
    <g id="text_36">
     <!-- Cumulative distribution -->
     <g style="fill:#262626;" transform="translate(380.333 145.746688)rotate(-90)scale(0.088 -0.088)">
      <use xlink:href="#LiberationSans-43"/>
      <use x="72.216797" xlink:href="#LiberationSans-75"/>
      <use x="127.832031" xlink:href="#LiberationSans-6d"/>
      <use x="211.132812" xlink:href="#LiberationSans-75"/>
      <use x="266.748047" xlink:href="#LiberationSans-6c"/>
      <use x="288.964844" xlink:href="#LiberationSans-61"/>
      <use x="344.580078" xlink:href="#LiberationSans-74"/>
      <use x="372.363281" xlink:href="#LiberationSans-69"/>
      <use x="394.580078" xlink:href="#LiberationSans-76"/>
      <use x="444.580078" xlink:href="#LiberationSans-65"/>
      <use x="500.195312" xlink:href="#LiberationSans-20"/>
      <use x="527.978516" xlink:href="#LiberationSans-64"/>
      <use x="583.59375" xlink:href="#LiberationSans-69"/>
      <use x="605.810547" xlink:href="#LiberationSans-73"/>
      <use x="655.810547" xlink:href="#LiberationSans-74"/>
      <use x="683.59375" xlink:href="#LiberationSans-72"/>
      <use x="716.894531" xlink:href="#LiberationSans-69"/>
      <use x="739.111328" xlink:href="#LiberationSans-62"/>
      <use x="794.726562" xlink:href="#LiberationSans-75"/>
      <use x="850.341797" xlink:href="#LiberationSans-74"/>
      <use x="878.125" xlink:href="#LiberationSans-69"/>
      <use x="900.341797" xlink:href="#LiberationSans-6f"/>
      <use x="955.957031" xlink:href="#LiberationSans-6e"/>
     </g>
    </g>
   </g>
   <g id="line2d_49">
    <path clip-path="url(#p913ab72206)" d="M 383.593316 180.189734 
L 391.049778 157.883488 
L 398.506239 139.638279 
L 405.962701 122.797763 
L 413.419163 105.561949 
L 420.875625 94.671376 
L 428.332086 85.4668 
L 435.788548 70.516543 
L 443.24501 60.314156 
L 450.701472 55.048466 
L 458.157933 45.458313 
L 465.614395 41.812399 
L 473.070857 39.34356 
L 480.527319 36.288131 
L 487.98378 34.119337 
L 502.896704 31.576609 
L 510.353165 31.254232 
L 525.266089 30.139597 
L 532.722551 29.956291 
L 540.179012 29.344856 
L 547.635474 28.081702 
L 555.091936 27.736648 
L 599.830706 27.732966 
L 607.287168 27.498953 
L 614.74363 27.411791 
L 629.656553 26.131526 
L 637.113015 26.131505 
L 644.569477 25.239578 
L 652.025938 25.170036 
L 659.4824 24.850337 
L 704.22117 24.850337 
L 711.677632 24.417107 
L 721 24.209753 
L 721 24.209753 
" style="fill:none;stroke:#4c72b0;stroke-linecap:round;stroke-width:2;"/>
   </g>
   <g id="line2d_50">
    <path clip-path="url(#p913ab72206)" d="M 383.768249 180.189841 
L 386.803176 177.497941 
L 389.838103 165.283544 
L 392.87303 152.252801 
L 395.907956 142.3131 
L 398.942883 134.236093 
L 401.97781 123.752996 
L 408.047664 104.64901 
L 411.082591 97.266221 
L 414.117518 91.818247 
L 417.152444 88.828746 
L 420.187371 85.040245 
L 423.222298 81.787675 
L 426.257225 78.815333 
L 429.292152 75.168529 
L 432.327079 71.336511 
L 435.362005 68.266431 
L 438.396932 64.552192 
L 441.431859 61.138444 
L 444.466786 58.765705 
L 447.501713 55.051067 
L 453.571567 51.524428 
L 456.606493 48.633098 
L 459.64142 48.076948 
L 462.676347 45.263717 
L 465.711274 44.718577 
L 468.746201 43.496397 
L 471.781128 42.874268 
L 480.885908 38.455255 
L 486.955762 34.081878 
L 489.990689 33.523671 
L 493.025616 33.51251 
L 499.095469 32.312604 
L 505.165323 31.025466 
L 508.20025 29.903109 
L 511.235177 29.777519 
L 517.30503 29.687487 
L 523.374884 28.558382 
L 529.444738 28.529237 
L 532.479665 28.324602 
L 535.514592 27.905916 
L 541.584445 27.894068 
L 544.619372 27.334577 
L 547.654299 27.280824 
L 553.724153 26.657025 
L 559.794006 26.635301 
L 562.828933 26.063477 
L 574.968641 26.032759 
L 614.42269 26.028817 
L 617.457616 25.511344 
L 623.52747 25.408632 
L 650.841812 25.406154 
L 656.911666 24.161899 
L 659.946592 24.157297 
L 662.981519 23.652838 
L 666.016446 23.536257 
L 721 23.536253 
L 721 23.536253 
" style="fill:none;stroke:#55a868;stroke-linecap:round;stroke-width:2;"/>
   </g>
   <g id="patch_13">
    <path d="M 386.159 180.192 
L 386.159 22.288 
" style="fill:none;stroke:#262626;stroke-linecap:square;stroke-linejoin:miter;stroke-width:1.25;"/>
   </g>
   <g id="patch_14">
    <path d="M 531.9365 180.192 
L 531.9365 22.288 
" style="fill:none;stroke:#262626;stroke-linecap:square;stroke-linejoin:miter;stroke-width:1.25;"/>
   </g>
   <g id="patch_15">
    <path d="M 386.159 180.192 
L 531.9365 180.192 
" style="fill:none;stroke:#262626;stroke-linecap:square;stroke-linejoin:miter;stroke-width:1.25;"/>
   </g>
   <g id="patch_16">
    <path d="M 386.159 22.288 
L 531.9365 22.288 
" style="fill:none;stroke:#262626;stroke-linecap:square;stroke-linejoin:miter;stroke-width:1.25;"/>
   </g>
   <g id="text_37">
    <!-- $p_{ranksum}$ &lt; 0.2 -->
    <g style="fill:#262626;" transform="translate(429.04775 18.288)scale(0.096 -0.096)">
     <use transform="translate(0 0.171875)" xlink:href="#DejaVuSans-Oblique-70"/>
     <use transform="translate(63.476562 -16.234375)scale(0.7)" xlink:href="#DejaVuSans-Oblique-72"/>
     <use transform="translate(92.255859 -16.234375)scale(0.7)" xlink:href="#DejaVuSans-Oblique-61"/>
     <use transform="translate(135.151367 -16.234375)scale(0.7)" xlink:href="#DejaVuSans-Oblique-6e"/>
     <use transform="translate(179.516602 -16.234375)scale(0.7)" xlink:href="#DejaVuSans-Oblique-6b"/>
     <use transform="translate(220.053711 -16.234375)scale(0.7)" xlink:href="#DejaVuSans-Oblique-73"/>
     <use transform="translate(256.523438 -16.234375)scale(0.7)" xlink:href="#DejaVuSans-Oblique-75"/>
     <use transform="translate(300.888672 -16.234375)scale(0.7)" xlink:href="#DejaVuSans-Oblique-6d"/>
     <use transform="translate(371.811523 0.171875)" xlink:href="#LiberationSans-20"/>
     <use transform="translate(399.594727 0.171875)" xlink:href="#LiberationSans-3c"/>
     <use transform="translate(457.993164 0.171875)" xlink:href="#LiberationSans-20"/>
     <use transform="translate(485.776367 0.171875)" xlink:href="#LiberationSans-30"/>
     <use transform="translate(541.391602 0.171875)" xlink:href="#LiberationSans-2e"/>
     <use transform="translate(569.174805 0.171875)" xlink:href="#LiberationSans-32"/>
    </g>
   </g>
   <g id="legend_3">
    <g id="line2d_51">
     <path d="M 423.404 157.0745 
L 439.404 157.0745 
" style="fill:none;stroke:#4c72b0;stroke-linecap:round;stroke-width:2;"/>
    </g>
    <g id="line2d_52"/>
    <g id="text_38">
     <!-- not inhibited (N = 493) -->
     <defs>
      <path d="M 51.21875 19 
Q 51.21875 14.265625 49.671875 10.546875 
Q 48.140625 6.84375 45.1875 4.265625 
Q 42.234375 1.703125 37.859375 0.359375 
Q 33.5 -0.984375 27.875 -0.984375 
Q 21.484375 -0.984375 17.109375 0.609375 
Q 12.75 2.203125 9.90625 4.8125 
Q 7.078125 7.421875 5.65625 10.765625 
Q 4.25 14.109375 3.8125 17.671875 
L 12.890625 18.5 
Q 13.28125 15.765625 14.328125 13.515625 
Q 15.375 11.28125 17.1875 9.671875 
Q 19 8.0625 21.625 7.171875 
Q 24.265625 6.296875 27.875 6.296875 
Q 34.515625 6.296875 38.296875 9.5625 
Q 42.09375 12.84375 42.09375 19.28125 
Q 42.09375 23.09375 40.40625 25.40625 
Q 38.71875 27.734375 36.203125 29.03125 
Q 33.6875 30.328125 30.734375 30.765625 
Q 27.78125 31.203125 25.296875 31.203125 
L 20.3125 31.203125 
L 20.3125 38.8125 
L 25.09375 38.8125 
Q 27.59375 38.8125 30.265625 39.328125 
Q 32.953125 39.84375 35.171875 41.1875 
Q 37.40625 42.53125 38.84375 44.828125 
Q 40.28125 47.125 40.28125 50.6875 
Q 40.28125 56.203125 37.03125 59.390625 
Q 33.796875 62.59375 27.390625 62.59375 
Q 21.578125 62.59375 17.984375 59.609375 
Q 14.40625 56.640625 13.8125 51.21875 
L 4.984375 51.90625 
Q 5.515625 56.453125 7.46875 59.8125 
Q 9.421875 63.1875 12.421875 65.40625 
Q 15.4375 67.625 19.28125 68.71875 
Q 23.140625 69.828125 27.484375 69.828125 
Q 33.25 69.828125 37.390625 68.375 
Q 41.546875 66.9375 44.1875 64.46875 
Q 46.828125 62.015625 48.0625 58.6875 
Q 49.3125 55.375 49.3125 51.609375 
Q 49.3125 48.578125 48.484375 45.9375 
Q 47.65625 43.3125 45.890625 41.203125 
Q 44.140625 39.109375 41.421875 37.59375 
Q 38.71875 36.078125 34.90625 35.296875 
L 34.90625 35.109375 
Q 39.0625 34.671875 42.140625 33.21875 
Q 45.21875 31.78125 47.21875 29.625 
Q 49.21875 27.484375 50.21875 24.75 
Q 51.21875 22.015625 51.21875 19 
" id="LiberationSans-33"/>
     </defs>
     <g style="fill:#262626;" transform="translate(445.804 159.8745)scale(0.08 -0.08)">
      <use xlink:href="#LiberationSans-6e"/>
      <use x="55.615234" xlink:href="#LiberationSans-6f"/>
      <use x="111.230469" xlink:href="#LiberationSans-74"/>
      <use x="139.013672" xlink:href="#LiberationSans-20"/>
      <use x="166.796875" xlink:href="#LiberationSans-69"/>
      <use x="189.013672" xlink:href="#LiberationSans-6e"/>
      <use x="244.628906" xlink:href="#LiberationSans-68"/>
      <use x="300.244141" xlink:href="#LiberationSans-69"/>
      <use x="322.460938" xlink:href="#LiberationSans-62"/>
      <use x="378.076172" xlink:href="#LiberationSans-69"/>
      <use x="400.292969" xlink:href="#LiberationSans-74"/>
      <use x="428.076172" xlink:href="#LiberationSans-65"/>
      <use x="483.691406" xlink:href="#LiberationSans-64"/>
      <use x="539.306641" xlink:href="#LiberationSans-20"/>
      <use x="567.089844" xlink:href="#LiberationSans-28"/>
      <use x="600.390625" xlink:href="#LiberationSans-4e"/>
      <use x="672.607422" xlink:href="#LiberationSans-20"/>
      <use x="700.390625" xlink:href="#LiberationSans-3d"/>
      <use x="758.789062" xlink:href="#LiberationSans-20"/>
      <use x="786.572266" xlink:href="#LiberationSans-34"/>
      <use x="842.1875" xlink:href="#LiberationSans-39"/>
      <use x="897.802734" xlink:href="#LiberationSans-33"/>
      <use x="953.417969" xlink:href="#LiberationSans-29"/>
     </g>
    </g>
    <g id="line2d_53">
     <path d="M 423.404 168.532 
L 439.404 168.532 
" style="fill:none;stroke:#55a868;stroke-linecap:round;stroke-width:2;"/>
    </g>
    <g id="line2d_54"/>
    <g id="text_39">
     <!-- inhibited (N = 253) -->
     <g style="fill:#262626;" transform="translate(445.804 171.332)scale(0.08 -0.08)">
      <use xlink:href="#LiberationSans-69"/>
      <use x="22.216797" xlink:href="#LiberationSans-6e"/>
      <use x="77.832031" xlink:href="#LiberationSans-68"/>
      <use x="133.447266" xlink:href="#LiberationSans-69"/>
      <use x="155.664062" xlink:href="#LiberationSans-62"/>
      <use x="211.279297" xlink:href="#LiberationSans-69"/>
      <use x="233.496094" xlink:href="#LiberationSans-74"/>
      <use x="261.279297" xlink:href="#LiberationSans-65"/>
      <use x="316.894531" xlink:href="#LiberationSans-64"/>
      <use x="372.509766" xlink:href="#LiberationSans-20"/>
      <use x="400.292969" xlink:href="#LiberationSans-28"/>
      <use x="433.59375" xlink:href="#LiberationSans-4e"/>
      <use x="505.810547" xlink:href="#LiberationSans-20"/>
      <use x="533.59375" xlink:href="#LiberationSans-3d"/>
      <use x="591.992188" xlink:href="#LiberationSans-20"/>
      <use x="619.775391" xlink:href="#LiberationSans-32"/>
      <use x="675.390625" xlink:href="#LiberationSans-35"/>
      <use x="731.005859" xlink:href="#LiberationSans-33"/>
      <use x="786.621094" xlink:href="#LiberationSans-29"/>
     </g>
    </g>
   </g>
  </g>
  <g id="axes_4">
   <g id="patch_17">
    <path d="M 559.3995 180.192 
L 705.177 180.192 
L 705.177 22.288 
L 559.3995 22.288 
z
" style="fill:#ffffff;"/>
   </g>
   <g id="matplotlib.axis_7">
    <g id="xtick_19">
     <g id="line2d_55"/>
     <g id="text_40">
      <!-- 0 -->
      <g style="fill:#262626;" transform="translate(557.175125 191.5895)scale(0.08 -0.08)">
       <use xlink:href="#LiberationSans-30"/>
      </g>
     </g>
    </g>
    <g id="xtick_20">
     <g id="line2d_56"/>
     <g id="text_41">
      <!-- 5 -->
      <g style="fill:#262626;" transform="translate(586.330625 191.5895)scale(0.08 -0.08)">
       <use xlink:href="#LiberationSans-35"/>
      </g>
     </g>
    </g>
    <g id="xtick_21">
     <g id="line2d_57"/>
     <g id="text_42">
      <!-- 10 -->
      <g style="fill:#262626;" transform="translate(613.26175 191.5895)scale(0.08 -0.08)">
       <use xlink:href="#LiberationSans-31"/>
       <use x="55.615234" xlink:href="#LiberationSans-30"/>
      </g>
     </g>
    </g>
    <g id="xtick_22">
     <g id="line2d_58"/>
     <g id="text_43">
      <!-- 15 -->
      <g style="fill:#262626;" transform="translate(642.41725 191.5895)scale(0.08 -0.08)">
       <use xlink:href="#LiberationSans-31"/>
       <use x="55.615234" xlink:href="#LiberationSans-35"/>
      </g>
     </g>
    </g>
    <g id="xtick_23">
     <g id="line2d_59"/>
     <g id="text_44">
      <!-- 20 -->
      <g style="fill:#262626;" transform="translate(671.57275 191.5895)scale(0.08 -0.08)">
       <use xlink:href="#LiberationSans-32"/>
       <use x="55.615234" xlink:href="#LiberationSans-30"/>
      </g>
     </g>
    </g>
    <g id="xtick_24">
     <g id="line2d_60"/>
     <g id="text_45">
      <!-- 25 -->
      <g style="fill:#262626;" transform="translate(700.72825 191.5895)scale(0.08 -0.08)">
       <use xlink:href="#LiberationSans-32"/>
       <use x="55.615234" xlink:href="#LiberationSans-35"/>
      </g>
     </g>
    </g>
    <g id="text_46">
     <!-- KI_Value -->
     <defs>
      <path d="M 54 0 
L 26.515625 33.203125 
L 17.53125 26.375 
L 17.53125 0 
L 8.203125 0 
L 8.203125 68.796875 
L 17.53125 68.796875 
L 17.53125 34.328125 
L 50.6875 68.796875 
L 61.671875 68.796875 
L 32.375 38.921875 
L 65.578125 0 
z
" id="LiberationSans-4b"/>
      <path d="M -1.515625 -19.875 
L -1.515625 -13.53125 
L 56.734375 -13.53125 
L 56.734375 -19.875 
z
" id="LiberationSans-5f"/>
      <path d="M 38.1875 0 
L 28.515625 0 
L 0.4375 68.796875 
L 10.25 68.796875 
L 29.296875 20.359375 
Q 30.03125 18.171875 30.765625 15.984375 
Q 31.5 13.8125 32.078125 12.109375 
Q 32.765625 10.109375 33.40625 8.203125 
Q 33.984375 10.015625 34.671875 12.015625 
Q 35.25 13.71875 35.953125 15.859375 
Q 36.671875 18.015625 37.5 20.359375 
L 56.453125 68.796875 
L 66.265625 68.796875 
z
" id="LiberationSans-56"/>
     </defs>
     <g style="fill:#262626;" transform="translate(614.435938 203.62675)scale(0.088 -0.088)">
      <use xlink:href="#LiberationSans-4b"/>
      <use x="66.699219" xlink:href="#LiberationSans-49"/>
      <use x="94.482422" xlink:href="#LiberationSans-5f"/>
      <use x="150.097656" xlink:href="#LiberationSans-56"/>
      <use x="216.6875" xlink:href="#LiberationSans-61"/>
      <use x="272.302734" xlink:href="#LiberationSans-6c"/>
      <use x="294.519531" xlink:href="#LiberationSans-75"/>
      <use x="350.134766" xlink:href="#LiberationSans-65"/>
     </g>
    </g>
   </g>
   <g id="matplotlib.axis_8">
    <g id="ytick_19">
     <g id="line2d_61"/>
    </g>
    <g id="ytick_20">
     <g id="line2d_62"/>
    </g>
    <g id="ytick_21">
     <g id="line2d_63"/>
    </g>
    <g id="ytick_22">
     <g id="line2d_64"/>
    </g>
    <g id="ytick_23">
     <g id="line2d_65"/>
    </g>
    <g id="ytick_24">
     <g id="line2d_66"/>
    </g>
    <g id="text_47">
     <!-- Cumulative distribution -->
     <g style="fill:#262626;" transform="translate(553.5735 145.746688)rotate(-90)scale(0.088 -0.088)">
      <use xlink:href="#LiberationSans-43"/>
      <use x="72.216797" xlink:href="#LiberationSans-75"/>
      <use x="127.832031" xlink:href="#LiberationSans-6d"/>
      <use x="211.132812" xlink:href="#LiberationSans-75"/>
      <use x="266.748047" xlink:href="#LiberationSans-6c"/>
      <use x="288.964844" xlink:href="#LiberationSans-61"/>
      <use x="344.580078" xlink:href="#LiberationSans-74"/>
      <use x="372.363281" xlink:href="#LiberationSans-69"/>
      <use x="394.580078" xlink:href="#LiberationSans-76"/>
      <use x="444.580078" xlink:href="#LiberationSans-65"/>
      <use x="500.195312" xlink:href="#LiberationSans-20"/>
      <use x="527.978516" xlink:href="#LiberationSans-64"/>
      <use x="583.59375" xlink:href="#LiberationSans-69"/>
      <use x="605.810547" xlink:href="#LiberationSans-73"/>
      <use x="655.810547" xlink:href="#LiberationSans-74"/>
      <use x="683.59375" xlink:href="#LiberationSans-72"/>
      <use x="716.894531" xlink:href="#LiberationSans-69"/>
      <use x="739.111328" xlink:href="#LiberationSans-62"/>
      <use x="794.726562" xlink:href="#LiberationSans-75"/>
      <use x="850.341797" xlink:href="#LiberationSans-74"/>
      <use x="878.125" xlink:href="#LiberationSans-69"/>
      <use x="900.341797" xlink:href="#LiberationSans-6f"/>
      <use x="955.957031" xlink:href="#LiberationSans-6e"/>
     </g>
    </g>
   </g>
   <g id="line2d_67">
    <path clip-path="url(#p8daa198235)" d="M 556.833816 180.189948 
L 564.290278 157.623535 
L 579.203201 119.369487 
L 586.659663 102.0377 
L 594.116125 91.930003 
L 601.572586 83.25009 
L 609.029048 70.283874 
L 616.48551 60.791894 
L 623.941972 54.756407 
L 631.398433 46.847308 
L 638.854895 43.032523 
L 646.311357 40.665821 
L 661.22428 33.773774 
L 676.137204 31.563769 
L 683.593665 30.916501 
L 691.050127 30.489448 
L 698.506589 29.871573 
L 705.963051 29.63701 
L 713.419512 29.059554 
L 721 27.902313 
L 721 27.902313 
" style="fill:none;stroke:#4c72b0;stroke-linecap:round;stroke-width:2;"/>
   </g>
   <g id="line2d_68">
    <path clip-path="url(#p8daa198235)" d="M 558.000036 180.18887 
L 559.411438 179.988924 
L 560.822839 178.397055 
L 562.234241 175.397702 
L 563.645643 170.262317 
L 566.468446 156.681392 
L 567.879848 147.27844 
L 569.291249 142.030676 
L 570.702651 137.499652 
L 572.114053 134.08526 
L 573.525455 131.16468 
L 574.936856 126.381179 
L 576.348258 120.460079 
L 577.75966 117.738035 
L 579.171061 112.599183 
L 581.993865 100.505457 
L 583.405266 95.927946 
L 584.816668 94.092246 
L 586.22807 93.163371 
L 589.050873 91.032689 
L 590.462275 90.238776 
L 593.285078 85.147648 
L 594.69648 83.898569 
L 596.107881 82.181664 
L 597.519283 80.096327 
L 598.930685 79.451762 
L 600.342087 77.840537 
L 601.753488 73.789742 
L 604.576292 69.529109 
L 605.987693 67.507542 
L 607.399095 65.219191 
L 610.221898 61.354552 
L 611.6333 58.76202 
L 615.867505 52.231351 
L 617.278907 52.03996 
L 621.513112 52.028887 
L 622.924514 51.696035 
L 624.335915 50.390344 
L 625.747317 49.410923 
L 627.158719 46.988097 
L 628.57012 44.239384 
L 629.981522 43.020863 
L 632.804325 42.679161 
L 634.215727 41.496104 
L 635.627129 40.663868 
L 638.449932 40.574538 
L 639.861334 40.071366 
L 641.272735 38.745778 
L 642.684137 38.322047 
L 648.329744 38.268959 
L 649.741146 37.611498 
L 651.152547 36.328857 
L 652.563949 36.026379 
L 669.500769 35.934449 
L 670.912171 35.033224 
L 672.323572 33.877275 
L 673.734974 33.165408 
L 675.146376 31.843391 
L 676.557778 31.454297 
L 677.969179 31.436728 
L 679.380581 31.190003 
L 680.791983 29.95259 
L 682.203384 29.205325 
L 686.437589 29.153391 
L 689.260393 29.140366 
L 690.671794 28.742485 
L 692.083196 27.421094 
L 693.494598 26.888813 
L 700.551606 26.864928 
L 721 26.857638 
L 721 26.857638 
" style="fill:none;stroke:#55a868;stroke-linecap:round;stroke-width:2;"/>
   </g>
   <g id="patch_18">
    <path d="M 559.3995 180.192 
L 559.3995 22.288 
" style="fill:none;stroke:#262626;stroke-linecap:square;stroke-linejoin:miter;stroke-width:1.25;"/>
   </g>
   <g id="patch_19">
    <path d="M 705.177 180.192 
L 705.177 22.288 
" style="fill:none;stroke:#262626;stroke-linecap:square;stroke-linejoin:miter;stroke-width:1.25;"/>
   </g>
   <g id="patch_20">
    <path d="M 559.3995 180.192 
L 705.177 180.192 
" style="fill:none;stroke:#262626;stroke-linecap:square;stroke-linejoin:miter;stroke-width:1.25;"/>
   </g>
   <g id="patch_21">
    <path d="M 559.3995 22.288 
L 705.177 22.288 
" style="fill:none;stroke:#262626;stroke-linecap:square;stroke-linejoin:miter;stroke-width:1.25;"/>
   </g>
   <g id="text_48">
    <!-- $p_{ranksum}$ &lt; 0.6 -->
    <g style="fill:#262626;" transform="translate(602.28825 18.288)scale(0.096 -0.096)">
     <use transform="translate(0 0.171875)" xlink:href="#DejaVuSans-Oblique-70"/>
     <use transform="translate(63.476562 -16.234375)scale(0.7)" xlink:href="#DejaVuSans-Oblique-72"/>
     <use transform="translate(92.255859 -16.234375)scale(0.7)" xlink:href="#DejaVuSans-Oblique-61"/>
     <use transform="translate(135.151367 -16.234375)scale(0.7)" xlink:href="#DejaVuSans-Oblique-6e"/>
     <use transform="translate(179.516602 -16.234375)scale(0.7)" xlink:href="#DejaVuSans-Oblique-6b"/>
     <use transform="translate(220.053711 -16.234375)scale(0.7)" xlink:href="#DejaVuSans-Oblique-73"/>
     <use transform="translate(256.523438 -16.234375)scale(0.7)" xlink:href="#DejaVuSans-Oblique-75"/>
     <use transform="translate(300.888672 -16.234375)scale(0.7)" xlink:href="#DejaVuSans-Oblique-6d"/>
     <use transform="translate(371.811523 0.171875)" xlink:href="#LiberationSans-20"/>
     <use transform="translate(399.594727 0.171875)" xlink:href="#LiberationSans-3c"/>
     <use transform="translate(457.993164 0.171875)" xlink:href="#LiberationSans-20"/>
     <use transform="translate(485.776367 0.171875)" xlink:href="#LiberationSans-30"/>
     <use transform="translate(541.391602 0.171875)" xlink:href="#LiberationSans-2e"/>
     <use transform="translate(569.174805 0.171875)" xlink:href="#LiberationSans-36"/>
    </g>
   </g>
   <g id="legend_4">
    <g id="line2d_69">
     <path d="M 621.497 156.992 
L 637.497 156.992 
" style="fill:none;stroke:#4c72b0;stroke-linecap:round;stroke-width:2;"/>
    </g>
    <g id="line2d_70"/>
    <g id="text_49">
     <!-- no $K_I$ (N = 677) -->
     <defs>
      <path d="M 16.890625 72.90625 
L 26.8125 72.90625 
L 20.796875 42.1875 
L 59.078125 72.90625 
L 72.21875 72.90625 
L 28.90625 38.09375 
L 60.59375 0 
L 48.578125 0 
L 19.484375 35.5 
L 12.59375 0 
L 2.6875 0 
z
" id="DejaVuSans-Oblique-4b"/>
      <path d="M 16.890625 72.90625 
L 26.8125 72.90625 
L 12.59375 0 
L 2.6875 0 
z
" id="DejaVuSans-Oblique-49"/>
      <path d="M 50.59375 61.671875 
Q 45.40625 53.765625 41.0625 46.453125 
Q 36.71875 39.15625 33.59375 31.75 
Q 30.46875 24.359375 28.734375 16.578125 
Q 27 8.796875 27 0 
L 17.828125 0 
Q 17.828125 8.25 19.78125 16.1875 
Q 21.734375 24.125 25.046875 31.765625 
Q 28.375 39.40625 32.765625 46.78125 
Q 37.15625 54.15625 42.09375 61.328125 
L 5.125 61.328125 
L 5.125 68.796875 
L 50.59375 68.796875 
z
" id="LiberationSans-37"/>
     </defs>
     <g style="fill:#262626;" transform="translate(643.897 159.792)scale(0.08 -0.08)">
      <use transform="translate(0 0.09375)" xlink:href="#LiberationSans-6e"/>
      <use transform="translate(55.615234 0.09375)" xlink:href="#LiberationSans-6f"/>
      <use transform="translate(111.230469 0.09375)" xlink:href="#LiberationSans-20"/>
      <use transform="translate(139.013672 0.09375)" xlink:href="#DejaVuSans-Oblique-4b"/>
      <use transform="translate(204.589844 -16.3125)scale(0.7)" xlink:href="#DejaVuSans-Oblique-49"/>
      <use transform="translate(227.96875 0.09375)" xlink:href="#LiberationSans-20"/>
      <use transform="translate(255.751953 0.09375)" xlink:href="#LiberationSans-28"/>
      <use transform="translate(289.052734 0.09375)" xlink:href="#LiberationSans-4e"/>
      <use transform="translate(361.269531 0.09375)" xlink:href="#LiberationSans-20"/>
      <use transform="translate(389.052734 0.09375)" xlink:href="#LiberationSans-3d"/>
      <use transform="translate(447.451172 0.09375)" xlink:href="#LiberationSans-20"/>
      <use transform="translate(475.234375 0.09375)" xlink:href="#LiberationSans-36"/>
      <use transform="translate(530.849609 0.09375)" xlink:href="#LiberationSans-37"/>
      <use transform="translate(586.464844 0.09375)" xlink:href="#LiberationSans-37"/>
      <use transform="translate(642.080078 0.09375)" xlink:href="#LiberationSans-29"/>
     </g>
    </g>
    <g id="line2d_71">
     <path d="M 621.497 168.512 
L 637.497 168.512 
" style="fill:none;stroke:#55a868;stroke-linecap:round;stroke-width:2;"/>
    </g>
    <g id="line2d_72"/>
    <g id="text_50">
     <!-- has $K_I$ (N = 69) -->
     <g style="fill:#262626;" transform="translate(643.897 171.312)scale(0.08 -0.08)">
      <use transform="translate(0 0.09375)" xlink:href="#LiberationSans-68"/>
      <use transform="translate(55.615234 0.09375)" xlink:href="#LiberationSans-61"/>
      <use transform="translate(111.230469 0.09375)" xlink:href="#LiberationSans-73"/>
      <use transform="translate(161.230469 0.09375)" xlink:href="#LiberationSans-20"/>
      <use transform="translate(189.013672 0.09375)" xlink:href="#DejaVuSans-Oblique-4b"/>
      <use transform="translate(254.589844 -16.3125)scale(0.7)" xlink:href="#DejaVuSans-Oblique-49"/>
      <use transform="translate(277.96875 0.09375)" xlink:href="#LiberationSans-20"/>
      <use transform="translate(305.751953 0.09375)" xlink:href="#LiberationSans-28"/>
      <use transform="translate(339.052734 0.09375)" xlink:href="#LiberationSans-4e"/>
      <use transform="translate(411.269531 0.09375)" xlink:href="#LiberationSans-20"/>
      <use transform="translate(439.052734 0.09375)" xlink:href="#LiberationSans-3d"/>
      <use transform="translate(497.451172 0.09375)" xlink:href="#LiberationSans-20"/>
      <use transform="translate(525.234375 0.09375)" xlink:href="#LiberationSans-36"/>
      <use transform="translate(580.849609 0.09375)" xlink:href="#LiberationSans-39"/>
      <use transform="translate(636.464844 0.09375)" xlink:href="#LiberationSans-29"/>
     </g>
    </g>
   </g>
  </g>
 </g>
 <defs>
  <clipPath id="p4d2cf9fbcd">
   <rect height="157.904" width="145.7775" x="39.678" y="22.288"/>
  </clipPath>
  <clipPath id="pbbd430f442">
   <rect height="157.904" width="145.7775" x="212.9185" y="22.288"/>
  </clipPath>
  <clipPath id="p913ab72206">
   <rect height="157.904" width="145.7775" x="386.159" y="22.288"/>
  </clipPath>
  <clipPath id="p8daa198235">
   <rect height="157.904" width="145.7775" x="559.3995" y="22.288"/>
  </clipPath>
 </defs>
</svg>
