<?xml version="1.0" encoding="utf-8" standalone="no"?>
<!DOCTYPE svg PUBLIC "-//W3C//DTD SVG 1.1//EN"
  "http://www.w3.org/Graphics/SVG/1.1/DTD/svg11.dtd">
<!-- Created with matplotlib (http://matplotlib.org/) -->
<svg height="216pt" version="1.1" viewBox="0 0 720 216" width="720pt" xmlns="http://www.w3.org/2000/svg" xmlns:xlink="http://www.w3.org/1999/xlink">
 <defs>
  <style type="text/css">
*{stroke-linecap:butt;stroke-linejoin:round;stroke-miterlimit:100000;}
  </style>
 </defs>
 <g id="figure_1">
  <g id="patch_1">
   <path d="M 0 216 
L 720 216 
L 720 0 
L 0 0 
z
" style="fill:#ffffff;"/>
  </g>
  <g id="axes_1">
   <g id="patch_2">
    <path d="M 40.2055 178.832 
L 185.573625 178.832 
L 185.573625 24.368 
L 40.2055 24.368 
z
" style="fill:#ffffff;"/>
   </g>
   <g id="matplotlib.axis_1">
    <g id="xtick_1">
     <g id="line2d_1"/>
     <g id="line2d_2"/>
     <g id="text_1">
      <!-- 0 -->
      <defs>
       <path d="M 4.15625 35.296875 
Q 4.15625 48 6.765625 55.734375 
Q 9.375 63.484375 14.515625 67.671875 
Q 19.671875 71.875 27.484375 71.875 
Q 33.25 71.875 37.59375 69.546875 
Q 41.9375 67.234375 44.765625 62.859375 
Q 47.609375 58.5 49.21875 52.21875 
Q 50.828125 45.953125 50.828125 35.296875 
Q 50.828125 22.703125 48.234375 14.96875 
Q 45.65625 7.234375 40.5 3 
Q 35.359375 -1.21875 27.484375 -1.21875 
Q 17.140625 -1.21875 11.234375 6.203125 
Q 4.15625 15.140625 4.15625 35.296875 
M 13.1875 35.296875 
Q 13.1875 17.671875 17.3125 11.828125 
Q 21.4375 6 27.484375 6 
Q 33.546875 6 37.671875 11.859375 
Q 41.796875 17.71875 41.796875 35.296875 
Q 41.796875 52.984375 37.671875 58.78125 
Q 33.546875 64.59375 27.390625 64.59375 
Q 21.34375 64.59375 17.71875 59.46875 
Q 13.1875 52.9375 13.1875 35.296875 
" id="ArialMT-30"/>
      </defs>
      <g style="fill:#262626;" transform="translate(37.981125 190.15825)scale(0.08 -0.08)">
       <use xlink:href="#ArialMT-30"/>
      </g>
     </g>
    </g>
    <g id="xtick_2">
     <g id="line2d_3"/>
     <g id="line2d_4"/>
     <g id="text_2">
      <!-- 5 -->
      <defs>
       <path d="M 4.15625 18.75 
L 13.375 19.53125 
Q 14.40625 12.796875 18.140625 9.390625 
Q 21.875 6 27.15625 6 
Q 33.5 6 37.890625 10.78125 
Q 42.28125 15.578125 42.28125 23.484375 
Q 42.28125 31 38.0625 35.34375 
Q 33.84375 39.703125 27 39.703125 
Q 22.75 39.703125 19.328125 37.765625 
Q 15.921875 35.84375 13.96875 32.765625 
L 5.71875 33.84375 
L 12.640625 70.609375 
L 48.25 70.609375 
L 48.25 62.203125 
L 19.671875 62.203125 
L 15.828125 42.96875 
Q 22.265625 47.46875 29.34375 47.46875 
Q 38.71875 47.46875 45.15625 40.96875 
Q 51.609375 34.46875 51.609375 24.265625 
Q 51.609375 14.546875 45.953125 7.46875 
Q 39.0625 -1.21875 27.15625 -1.21875 
Q 17.390625 -1.21875 11.203125 4.25 
Q 5.03125 9.71875 4.15625 18.75 
" id="ArialMT-35"/>
      </defs>
      <g style="fill:#262626;" transform="translate(67.05475 190.15825)scale(0.08 -0.08)">
       <use xlink:href="#ArialMT-35"/>
      </g>
     </g>
    </g>
    <g id="xtick_3">
     <g id="line2d_5"/>
     <g id="line2d_6"/>
     <g id="text_3">
      <!-- 10 -->
      <defs>
       <path d="M 37.25 0 
L 28.46875 0 
L 28.46875 56 
Q 25.296875 52.984375 20.140625 49.953125 
Q 14.984375 46.921875 10.890625 45.40625 
L 10.890625 53.90625 
Q 18.265625 57.375 23.78125 62.296875 
Q 29.296875 67.234375 31.59375 71.875 
L 37.25 71.875 
z
" id="ArialMT-31"/>
      </defs>
      <g style="fill:#262626;" transform="translate(93.904 190.15825)scale(0.08 -0.08)">
       <use xlink:href="#ArialMT-31"/>
       <use x="55.615234375" xlink:href="#ArialMT-30"/>
      </g>
     </g>
    </g>
    <g id="xtick_4">
     <g id="line2d_7"/>
     <g id="line2d_8"/>
     <g id="text_4">
      <!-- 15 -->
      <g style="fill:#262626;" transform="translate(122.977625 190.15825)scale(0.08 -0.08)">
       <use xlink:href="#ArialMT-31"/>
       <use x="55.615234375" xlink:href="#ArialMT-35"/>
      </g>
     </g>
    </g>
    <g id="xtick_5">
     <g id="line2d_9"/>
     <g id="line2d_10"/>
     <g id="text_5">
      <!-- 20 -->
      <defs>
       <path d="M 50.34375 8.453125 
L 50.34375 0 
L 3.03125 0 
Q 2.9375 3.171875 4.046875 6.109375 
Q 5.859375 10.9375 9.828125 15.625 
Q 13.8125 20.3125 21.34375 26.46875 
Q 33.015625 36.03125 37.109375 41.625 
Q 41.21875 47.21875 41.21875 52.203125 
Q 41.21875 57.421875 37.46875 61 
Q 33.734375 64.59375 27.734375 64.59375 
Q 21.390625 64.59375 17.578125 60.78125 
Q 13.765625 56.984375 13.71875 50.25 
L 4.6875 51.171875 
Q 5.609375 61.28125 11.65625 66.578125 
Q 17.71875 71.875 27.9375 71.875 
Q 38.234375 71.875 44.234375 66.15625 
Q 50.25 60.453125 50.25 52 
Q 50.25 47.703125 48.484375 43.546875 
Q 46.734375 39.40625 42.65625 34.8125 
Q 38.578125 30.21875 29.109375 22.21875 
Q 21.1875 15.578125 18.9375 13.203125 
Q 16.703125 10.84375 15.234375 8.453125 
z
" id="ArialMT-32"/>
      </defs>
      <g style="fill:#262626;" transform="translate(152.05125 190.15825)scale(0.08 -0.08)">
       <use xlink:href="#ArialMT-32"/>
       <use x="55.615234375" xlink:href="#ArialMT-30"/>
      </g>
     </g>
    </g>
    <g id="xtick_6">
     <g id="line2d_11"/>
     <g id="line2d_12"/>
     <g id="text_6">
      <!-- 25 -->
      <g style="fill:#262626;" transform="translate(181.124875 190.15825)scale(0.08 -0.08)">
       <use xlink:href="#ArialMT-32"/>
       <use x="55.615234375" xlink:href="#ArialMT-35"/>
      </g>
     </g>
    </g>
    <g id="text_7">
     <!-- Regulation -->
     <defs>
      <path d="M 40.4375 6.390625 
Q 35.546875 2.25 31.03125 0.53125 
Q 26.515625 -1.171875 21.34375 -1.171875 
Q 12.796875 -1.171875 8.203125 3 
Q 3.609375 7.171875 3.609375 13.671875 
Q 3.609375 17.484375 5.34375 20.625 
Q 7.078125 23.78125 9.890625 25.6875 
Q 12.703125 27.59375 16.21875 28.5625 
Q 18.796875 29.25 24.03125 29.890625 
Q 34.671875 31.15625 39.703125 32.90625 
Q 39.75 34.71875 39.75 35.203125 
Q 39.75 40.578125 37.25 42.78125 
Q 33.890625 45.75 27.25 45.75 
Q 21.046875 45.75 18.09375 43.578125 
Q 15.140625 41.40625 13.71875 35.890625 
L 5.125 37.0625 
Q 6.296875 42.578125 8.984375 45.96875 
Q 11.671875 49.359375 16.75 51.1875 
Q 21.828125 53.03125 28.515625 53.03125 
Q 35.15625 53.03125 39.296875 51.46875 
Q 43.453125 49.90625 45.40625 47.53125 
Q 47.359375 45.171875 48.140625 41.546875 
Q 48.578125 39.3125 48.578125 33.453125 
L 48.578125 21.734375 
Q 48.578125 9.46875 49.140625 6.21875 
Q 49.703125 2.984375 51.375 0 
L 42.1875 0 
Q 40.828125 2.734375 40.4375 6.390625 
M 39.703125 26.03125 
Q 34.90625 24.078125 25.34375 22.703125 
Q 19.921875 21.921875 17.671875 20.9375 
Q 15.4375 19.96875 14.203125 18.09375 
Q 12.984375 16.21875 12.984375 13.921875 
Q 12.984375 10.40625 15.640625 8.0625 
Q 18.3125 5.71875 23.4375 5.71875 
Q 28.515625 5.71875 32.46875 7.9375 
Q 36.421875 10.15625 38.28125 14.015625 
Q 39.703125 17 39.703125 22.796875 
z
" id="ArialMT-61"/>
      <path d="M 4.984375 -4.296875 
L 13.53125 -5.5625 
Q 14.0625 -9.515625 16.5 -11.328125 
Q 19.78125 -13.765625 25.4375 -13.765625 
Q 31.546875 -13.765625 34.859375 -11.328125 
Q 38.1875 -8.890625 39.359375 -4.5 
Q 40.046875 -1.8125 39.984375 6.78125 
Q 34.234375 0 25.640625 0 
Q 14.9375 0 9.078125 7.71875 
Q 3.21875 15.4375 3.21875 26.21875 
Q 3.21875 33.640625 5.90625 39.90625 
Q 8.59375 46.1875 13.6875 49.609375 
Q 18.796875 53.03125 25.6875 53.03125 
Q 34.859375 53.03125 40.828125 45.609375 
L 40.828125 51.859375 
L 48.921875 51.859375 
L 48.921875 7.03125 
Q 48.921875 -5.078125 46.453125 -10.125 
Q 44 -15.1875 38.640625 -18.109375 
Q 33.296875 -21.046875 25.484375 -21.046875 
Q 16.21875 -21.046875 10.5 -16.875 
Q 4.78125 -12.703125 4.984375 -4.296875 
M 12.25 26.859375 
Q 12.25 16.65625 16.296875 11.96875 
Q 20.359375 7.28125 26.46875 7.28125 
Q 32.515625 7.28125 36.609375 11.9375 
Q 40.71875 16.609375 40.71875 26.5625 
Q 40.71875 36.078125 36.5 40.90625 
Q 32.28125 45.75 26.3125 45.75 
Q 20.453125 45.75 16.34375 40.984375 
Q 12.25 36.234375 12.25 26.859375 
" id="ArialMT-67"/>
      <path d="M 42.09375 16.703125 
L 51.171875 15.578125 
Q 49.03125 7.625 43.21875 3.21875 
Q 37.40625 -1.171875 28.375 -1.171875 
Q 17 -1.171875 10.328125 5.828125 
Q 3.65625 12.84375 3.65625 25.484375 
Q 3.65625 38.578125 10.390625 45.796875 
Q 17.140625 53.03125 27.875 53.03125 
Q 38.28125 53.03125 44.875 45.953125 
Q 51.46875 38.875 51.46875 26.03125 
Q 51.46875 25.25 51.421875 23.6875 
L 12.75 23.6875 
Q 13.234375 15.140625 17.578125 10.59375 
Q 21.921875 6.0625 28.421875 6.0625 
Q 33.25 6.0625 36.671875 8.59375 
Q 40.09375 11.140625 42.09375 16.703125 
M 13.234375 30.90625 
L 42.1875 30.90625 
Q 41.609375 37.453125 38.875 40.71875 
Q 34.671875 45.796875 27.984375 45.796875 
Q 21.921875 45.796875 17.796875 41.75 
Q 13.671875 37.703125 13.234375 30.90625 
" id="ArialMT-65"/>
      <path d="M 7.859375 0 
L 7.859375 71.578125 
L 39.59375 71.578125 
Q 49.171875 71.578125 54.140625 69.640625 
Q 59.125 67.71875 62.109375 62.828125 
Q 65.09375 57.953125 65.09375 52.046875 
Q 65.09375 44.4375 60.15625 39.203125 
Q 55.21875 33.984375 44.921875 32.5625 
Q 48.6875 30.765625 50.640625 29 
Q 54.78125 25.203125 58.5 19.484375 
L 70.953125 0 
L 59.03125 0 
L 49.5625 14.890625 
Q 45.40625 21.34375 42.71875 24.75 
Q 40.046875 28.171875 37.921875 29.53125 
Q 35.796875 30.90625 33.59375 31.453125 
Q 31.984375 31.78125 28.328125 31.78125 
L 17.328125 31.78125 
L 17.328125 0 
z
M 17.328125 39.984375 
L 37.703125 39.984375 
Q 44.1875 39.984375 47.84375 41.328125 
Q 51.515625 42.671875 53.421875 45.625 
Q 55.328125 48.578125 55.328125 52.046875 
Q 55.328125 57.125 51.640625 60.390625 
Q 47.953125 63.671875 39.984375 63.671875 
L 17.328125 63.671875 
z
" id="ArialMT-52"/>
      <path d="M 40.578125 0 
L 40.578125 7.625 
Q 34.515625 -1.171875 24.125 -1.171875 
Q 19.53125 -1.171875 15.546875 0.578125 
Q 11.578125 2.34375 9.640625 5 
Q 7.71875 7.671875 6.9375 11.53125 
Q 6.390625 14.109375 6.390625 19.734375 
L 6.390625 51.859375 
L 15.1875 51.859375 
L 15.1875 23.09375 
Q 15.1875 16.21875 15.71875 13.8125 
Q 16.546875 10.359375 19.234375 8.375 
Q 21.921875 6.390625 25.875 6.390625 
Q 29.828125 6.390625 33.296875 8.421875 
Q 36.765625 10.453125 38.203125 13.9375 
Q 39.65625 17.4375 39.65625 24.078125 
L 39.65625 51.859375 
L 48.4375 51.859375 
L 48.4375 0 
z
" id="ArialMT-75"/>
      <path d="M 6.640625 61.46875 
L 6.640625 71.578125 
L 15.4375 71.578125 
L 15.4375 61.46875 
z
M 6.640625 0 
L 6.640625 51.859375 
L 15.4375 51.859375 
L 15.4375 0 
z
" id="ArialMT-69"/>
      <path d="M 6.390625 0 
L 6.390625 71.578125 
L 15.1875 71.578125 
L 15.1875 0 
z
" id="ArialMT-6c"/>
      <path d="M 25.78125 7.859375 
L 27.046875 0.09375 
Q 23.34375 -0.6875 20.40625 -0.6875 
Q 15.625 -0.6875 12.984375 0.828125 
Q 10.359375 2.34375 9.28125 4.8125 
Q 8.203125 7.28125 8.203125 15.1875 
L 8.203125 45.015625 
L 1.765625 45.015625 
L 1.765625 51.859375 
L 8.203125 51.859375 
L 8.203125 64.703125 
L 16.9375 69.96875 
L 16.9375 51.859375 
L 25.78125 51.859375 
L 25.78125 45.015625 
L 16.9375 45.015625 
L 16.9375 14.703125 
Q 16.9375 10.9375 17.40625 9.859375 
Q 17.875 8.796875 18.921875 8.15625 
Q 19.96875 7.515625 21.921875 7.515625 
Q 23.390625 7.515625 25.78125 7.859375 
" id="ArialMT-74"/>
      <path d="M 3.328125 25.921875 
Q 3.328125 40.328125 11.328125 47.265625 
Q 18.015625 53.03125 27.640625 53.03125 
Q 38.328125 53.03125 45.109375 46.015625 
Q 51.90625 39.015625 51.90625 26.65625 
Q 51.90625 16.65625 48.90625 10.90625 
Q 45.90625 5.171875 40.15625 2 
Q 34.421875 -1.171875 27.640625 -1.171875 
Q 16.75 -1.171875 10.03125 5.8125 
Q 3.328125 12.796875 3.328125 25.921875 
M 12.359375 25.921875 
Q 12.359375 15.96875 16.703125 11.015625 
Q 21.046875 6.0625 27.640625 6.0625 
Q 34.1875 6.0625 38.53125 11.03125 
Q 42.875 16.015625 42.875 26.21875 
Q 42.875 35.84375 38.5 40.796875 
Q 34.125 45.75 27.640625 45.75 
Q 21.046875 45.75 16.703125 40.8125 
Q 12.359375 35.890625 12.359375 25.921875 
" id="ArialMT-6f"/>
      <path d="M 6.59375 0 
L 6.59375 51.859375 
L 14.5 51.859375 
L 14.5 44.484375 
Q 20.21875 53.03125 31 53.03125 
Q 35.6875 53.03125 39.625 51.34375 
Q 43.5625 49.65625 45.515625 46.921875 
Q 47.46875 44.1875 48.25 40.4375 
Q 48.734375 37.984375 48.734375 31.890625 
L 48.734375 0 
L 39.9375 0 
L 39.9375 31.546875 
Q 39.9375 36.921875 38.90625 39.578125 
Q 37.890625 42.234375 35.28125 43.8125 
Q 32.671875 45.40625 29.15625 45.40625 
Q 23.53125 45.40625 19.453125 41.84375 
Q 15.375 38.28125 15.375 28.328125 
L 15.375 0 
z
" id="ArialMT-6e"/>
     </defs>
     <g style="fill:#262626;" transform="translate(91.8534375 203.047125)scale(0.088 -0.088)">
      <use xlink:href="#ArialMT-52"/>
      <use x="72.216796875" xlink:href="#ArialMT-65"/>
      <use x="127.83203125" xlink:href="#ArialMT-67"/>
      <use x="183.447265625" xlink:href="#ArialMT-75"/>
      <use x="239.0625" xlink:href="#ArialMT-6c"/>
      <use x="261.279296875" xlink:href="#ArialMT-61"/>
      <use x="316.89453125" xlink:href="#ArialMT-74"/>
      <use x="344.677734375" xlink:href="#ArialMT-69"/>
      <use x="366.89453125" xlink:href="#ArialMT-6f"/>
      <use x="422.509765625" xlink:href="#ArialMT-6e"/>
     </g>
    </g>
   </g>
   <g id="matplotlib.axis_2">
    <g id="ytick_1">
     <g id="line2d_13"/>
     <g id="line2d_14"/>
     <g id="text_8">
      <!-- 0.0 -->
      <defs>
       <path d="M 9.078125 0 
L 9.078125 10.015625 
L 19.09375 10.015625 
L 19.09375 0 
z
" id="ArialMT-2e"/>
      </defs>
      <g style="fill:#262626;" transform="translate(23.4855 180.900125)scale(0.08 -0.08)">
       <use xlink:href="#ArialMT-30"/>
       <use x="55.615234375" xlink:href="#ArialMT-2e"/>
       <use x="83.3984375" xlink:href="#ArialMT-30"/>
      </g>
     </g>
    </g>
    <g id="ytick_2">
     <g id="line2d_15"/>
     <g id="line2d_16"/>
     <g id="text_9">
      <!-- 0.2 -->
      <g style="fill:#262626;" transform="translate(23.4855 150.007325)scale(0.08 -0.08)">
       <use xlink:href="#ArialMT-30"/>
       <use x="55.615234375" xlink:href="#ArialMT-2e"/>
       <use x="83.3984375" xlink:href="#ArialMT-32"/>
      </g>
     </g>
    </g>
    <g id="ytick_3">
     <g id="line2d_17"/>
     <g id="line2d_18"/>
     <g id="text_10">
      <!-- 0.4 -->
      <defs>
       <path d="M 32.328125 0 
L 32.328125 17.140625 
L 1.265625 17.140625 
L 1.265625 25.203125 
L 33.9375 71.578125 
L 41.109375 71.578125 
L 41.109375 25.203125 
L 50.78125 25.203125 
L 50.78125 17.140625 
L 41.109375 17.140625 
L 41.109375 0 
z
M 32.328125 25.203125 
L 32.328125 57.46875 
L 9.90625 25.203125 
z
" id="ArialMT-34"/>
      </defs>
      <g style="fill:#262626;" transform="translate(23.4855 119.114525)scale(0.08 -0.08)">
       <use xlink:href="#ArialMT-30"/>
       <use x="55.615234375" xlink:href="#ArialMT-2e"/>
       <use x="83.3984375" xlink:href="#ArialMT-34"/>
      </g>
     </g>
    </g>
    <g id="ytick_4">
     <g id="line2d_19"/>
     <g id="line2d_20"/>
     <g id="text_11">
      <!-- 0.6 -->
      <defs>
       <path d="M 49.75 54.046875 
L 41.015625 53.375 
Q 39.84375 58.546875 37.703125 60.890625 
Q 34.125 64.65625 28.90625 64.65625 
Q 24.703125 64.65625 21.53125 62.3125 
Q 17.390625 59.28125 14.984375 53.46875 
Q 12.59375 47.65625 12.5 36.921875 
Q 15.671875 41.75 20.265625 44.09375 
Q 24.859375 46.4375 29.890625 46.4375 
Q 38.671875 46.4375 44.84375 39.96875 
Q 51.03125 33.5 51.03125 23.25 
Q 51.03125 16.5 48.125 10.71875 
Q 45.21875 4.9375 40.140625 1.859375 
Q 35.0625 -1.21875 28.609375 -1.21875 
Q 17.625 -1.21875 10.6875 6.859375 
Q 3.765625 14.9375 3.765625 33.5 
Q 3.765625 54.25 11.421875 63.671875 
Q 18.109375 71.875 29.4375 71.875 
Q 37.890625 71.875 43.28125 67.140625 
Q 48.6875 62.40625 49.75 54.046875 
M 13.875 23.1875 
Q 13.875 18.65625 15.796875 14.5 
Q 17.71875 10.359375 21.1875 8.171875 
Q 24.65625 6 28.46875 6 
Q 34.03125 6 38.03125 10.484375 
Q 42.046875 14.984375 42.046875 22.703125 
Q 42.046875 30.125 38.078125 34.390625 
Q 34.125 38.671875 28.125 38.671875 
Q 22.171875 38.671875 18.015625 34.390625 
Q 13.875 30.125 13.875 23.1875 
" id="ArialMT-36"/>
      </defs>
      <g style="fill:#262626;" transform="translate(23.4855 88.221725)scale(0.08 -0.08)">
       <use xlink:href="#ArialMT-30"/>
       <use x="55.615234375" xlink:href="#ArialMT-2e"/>
       <use x="83.3984375" xlink:href="#ArialMT-36"/>
      </g>
     </g>
    </g>
    <g id="ytick_5">
     <g id="line2d_21"/>
     <g id="line2d_22"/>
     <g id="text_12">
      <!-- 0.8 -->
      <defs>
       <path d="M 17.671875 38.8125 
Q 12.203125 40.828125 9.5625 44.53125 
Q 6.9375 48.25 6.9375 53.421875 
Q 6.9375 61.234375 12.546875 66.546875 
Q 18.171875 71.875 27.484375 71.875 
Q 36.859375 71.875 42.578125 66.421875 
Q 48.296875 60.984375 48.296875 53.171875 
Q 48.296875 48.1875 45.671875 44.5 
Q 43.0625 40.828125 37.75 38.8125 
Q 44.34375 36.671875 47.78125 31.875 
Q 51.21875 27.09375 51.21875 20.453125 
Q 51.21875 11.28125 44.71875 5.03125 
Q 38.234375 -1.21875 27.640625 -1.21875 
Q 17.046875 -1.21875 10.546875 5.046875 
Q 4.046875 11.328125 4.046875 20.703125 
Q 4.046875 27.6875 7.59375 32.390625 
Q 11.140625 37.109375 17.671875 38.8125 
M 15.921875 53.71875 
Q 15.921875 48.640625 19.1875 45.40625 
Q 22.46875 42.1875 27.6875 42.1875 
Q 32.765625 42.1875 36.015625 45.375 
Q 39.265625 48.578125 39.265625 53.21875 
Q 39.265625 58.0625 35.90625 61.359375 
Q 32.5625 64.65625 27.59375 64.65625 
Q 22.5625 64.65625 19.234375 61.421875 
Q 15.921875 58.203125 15.921875 53.71875 
M 13.09375 20.65625 
Q 13.09375 16.890625 14.875 13.375 
Q 16.65625 9.859375 20.171875 7.921875 
Q 23.6875 6 27.734375 6 
Q 34.03125 6 38.125 10.046875 
Q 42.234375 14.109375 42.234375 20.359375 
Q 42.234375 26.703125 38.015625 30.859375 
Q 33.796875 35.015625 27.4375 35.015625 
Q 21.234375 35.015625 17.15625 30.90625 
Q 13.09375 26.8125 13.09375 20.65625 
" id="ArialMT-38"/>
      </defs>
      <g style="fill:#262626;" transform="translate(23.4855 57.328925)scale(0.08 -0.08)">
       <use xlink:href="#ArialMT-30"/>
       <use x="55.615234375" xlink:href="#ArialMT-2e"/>
       <use x="83.3984375" xlink:href="#ArialMT-38"/>
      </g>
     </g>
    </g>
    <g id="ytick_6">
     <g id="line2d_23"/>
     <g id="line2d_24"/>
     <g id="text_13">
      <!-- 1.0 -->
      <g style="fill:#262626;" transform="translate(23.4855 26.436125)scale(0.08 -0.08)">
       <use xlink:href="#ArialMT-31"/>
       <use x="55.615234375" xlink:href="#ArialMT-2e"/>
       <use x="83.3984375" xlink:href="#ArialMT-30"/>
      </g>
     </g>
    </g>
    <g id="text_14">
     <!-- Cumulative distribution -->
     <defs>
      <path d="M 14.703125 0 
L 6.546875 0 
L 6.546875 71.578125 
L 15.328125 71.578125 
L 15.328125 46.046875 
Q 20.90625 53.03125 29.546875 53.03125 
Q 34.328125 53.03125 38.59375 51.09375 
Q 42.875 49.171875 45.625 45.671875 
Q 48.390625 42.1875 49.953125 37.25 
Q 51.515625 32.328125 51.515625 26.703125 
Q 51.515625 13.375 44.921875 6.09375 
Q 38.328125 -1.171875 29.109375 -1.171875 
Q 19.921875 -1.171875 14.703125 6.5 
z
M 14.59375 26.3125 
Q 14.59375 17 17.140625 12.84375 
Q 21.296875 6.0625 28.375 6.0625 
Q 34.125 6.0625 38.328125 11.0625 
Q 42.53125 16.0625 42.53125 25.984375 
Q 42.53125 36.140625 38.5 40.96875 
Q 34.46875 45.796875 28.765625 45.796875 
Q 23 45.796875 18.796875 40.796875 
Q 14.59375 35.796875 14.59375 26.3125 
" id="ArialMT-62"/>
      <path d="M 40.234375 0 
L 40.234375 6.546875 
Q 35.296875 -1.171875 25.734375 -1.171875 
Q 19.53125 -1.171875 14.328125 2.25 
Q 9.125 5.671875 6.265625 11.796875 
Q 3.421875 17.921875 3.421875 25.875 
Q 3.421875 33.640625 6 39.96875 
Q 8.59375 46.296875 13.765625 49.65625 
Q 18.953125 53.03125 25.34375 53.03125 
Q 30.03125 53.03125 33.6875 51.046875 
Q 37.359375 49.078125 39.65625 45.90625 
L 39.65625 71.578125 
L 48.390625 71.578125 
L 48.390625 0 
z
M 12.453125 25.875 
Q 12.453125 15.921875 16.640625 10.984375 
Q 20.84375 6.0625 26.5625 6.0625 
Q 32.328125 6.0625 36.34375 10.765625 
Q 40.375 15.484375 40.375 25.140625 
Q 40.375 35.796875 36.265625 40.765625 
Q 32.171875 45.75 26.171875 45.75 
Q 20.3125 45.75 16.375 40.96875 
Q 12.453125 36.1875 12.453125 25.875 
" id="ArialMT-64"/>
      <path d="M 58.796875 25.09375 
L 68.265625 22.703125 
Q 65.28125 11.03125 57.546875 4.90625 
Q 49.8125 -1.21875 38.625 -1.21875 
Q 27.046875 -1.21875 19.796875 3.484375 
Q 12.546875 8.203125 8.765625 17.140625 
Q 4.984375 26.078125 4.984375 36.328125 
Q 4.984375 47.515625 9.25 55.828125 
Q 13.53125 64.15625 21.40625 68.46875 
Q 29.296875 72.796875 38.765625 72.796875 
Q 49.515625 72.796875 56.828125 67.328125 
Q 64.15625 61.859375 67.046875 51.953125 
L 57.71875 49.75 
Q 55.21875 57.5625 50.484375 61.125 
Q 45.75 64.703125 38.578125 64.703125 
Q 30.328125 64.703125 24.78125 60.734375 
Q 19.234375 56.78125 16.984375 50.109375 
Q 14.75 43.453125 14.75 36.375 
Q 14.75 27.25 17.40625 20.4375 
Q 20.0625 13.625 25.671875 10.25 
Q 31.296875 6.890625 37.84375 6.890625 
Q 45.796875 6.890625 51.3125 11.46875 
Q 56.84375 16.0625 58.796875 25.09375 
" id="ArialMT-43"/>
      <path d="M 6.5 0 
L 6.5 51.859375 
L 14.40625 51.859375 
L 14.40625 44 
Q 17.4375 49.515625 20 51.265625 
Q 22.5625 53.03125 25.640625 53.03125 
Q 30.078125 53.03125 34.671875 50.203125 
L 31.640625 42.046875 
Q 28.421875 43.953125 25.203125 43.953125 
Q 22.3125 43.953125 20.015625 42.21875 
Q 17.71875 40.484375 16.75 37.40625 
Q 15.28125 32.71875 15.28125 27.15625 
L 15.28125 0 
z
" id="ArialMT-72"/>
      <path d="M 3.078125 15.484375 
L 11.765625 16.84375 
Q 12.5 11.625 15.84375 8.84375 
Q 19.1875 6.0625 25.203125 6.0625 
Q 31.25 6.0625 34.171875 8.515625 
Q 37.109375 10.984375 37.109375 14.3125 
Q 37.109375 17.28125 34.515625 19 
Q 32.71875 20.171875 25.53125 21.96875 
Q 15.875 24.421875 12.140625 26.203125 
Q 8.40625 27.984375 6.46875 31.125 
Q 4.546875 34.28125 4.546875 38.09375 
Q 4.546875 41.546875 6.125 44.5 
Q 7.71875 47.46875 10.453125 49.421875 
Q 12.5 50.921875 16.03125 51.96875 
Q 19.578125 53.03125 23.640625 53.03125 
Q 29.734375 53.03125 34.34375 51.265625 
Q 38.96875 49.515625 41.15625 46.5 
Q 43.359375 43.5 44.1875 38.484375 
L 35.59375 37.3125 
Q 35.015625 41.3125 32.203125 43.546875 
Q 29.390625 45.796875 24.265625 45.796875 
Q 18.21875 45.796875 15.625 43.796875 
Q 13.03125 41.796875 13.03125 39.109375 
Q 13.03125 37.40625 14.109375 36.03125 
Q 15.1875 34.625 17.484375 33.6875 
Q 18.796875 33.203125 25.25 31.453125 
Q 34.578125 28.953125 38.25 27.359375 
Q 41.9375 25.78125 44.03125 22.75 
Q 46.140625 19.734375 46.140625 15.234375 
Q 46.140625 10.84375 43.578125 6.953125 
Q 41.015625 3.078125 36.171875 0.953125 
Q 31.34375 -1.171875 25.25 -1.171875 
Q 15.140625 -1.171875 9.84375 3.03125 
Q 4.546875 7.234375 3.078125 15.484375 
" id="ArialMT-73"/>
      <path d="M 6.59375 0 
L 6.59375 51.859375 
L 14.453125 51.859375 
L 14.453125 44.578125 
Q 16.890625 48.390625 20.9375 50.703125 
Q 25 53.03125 30.171875 53.03125 
Q 35.9375 53.03125 39.625 50.640625 
Q 43.3125 48.25 44.828125 43.953125 
Q 50.984375 53.03125 60.84375 53.03125 
Q 68.5625 53.03125 72.703125 48.75 
Q 76.859375 44.484375 76.859375 35.59375 
L 76.859375 0 
L 68.109375 0 
L 68.109375 32.671875 
Q 68.109375 37.9375 67.25 40.25 
Q 66.40625 42.578125 64.15625 43.984375 
Q 61.921875 45.40625 58.890625 45.40625 
Q 53.421875 45.40625 49.796875 41.765625 
Q 46.1875 38.140625 46.1875 30.125 
L 46.1875 0 
L 37.40625 0 
L 37.40625 33.6875 
Q 37.40625 39.546875 35.25 42.46875 
Q 33.109375 45.40625 28.21875 45.40625 
Q 24.515625 45.40625 21.359375 43.453125 
Q 18.21875 41.5 16.796875 37.734375 
Q 15.375 33.984375 15.375 26.90625 
L 15.375 0 
z
" id="ArialMT-6d"/>
      <path d="M 21 0 
L 1.265625 51.859375 
L 10.546875 51.859375 
L 21.6875 20.796875 
Q 23.484375 15.765625 25 10.359375 
Q 26.171875 14.453125 28.265625 20.21875 
L 39.796875 51.859375 
L 48.828125 51.859375 
L 29.203125 0 
z
" id="ArialMT-76"/>
      <path id="ArialMT-20"/>
     </defs>
     <g style="fill:#262626;" transform="translate(16.7365 146.1066875)rotate(-90.0)scale(0.088 -0.088)">
      <use xlink:href="#ArialMT-43"/>
      <use x="72.216796875" xlink:href="#ArialMT-75"/>
      <use x="127.83203125" xlink:href="#ArialMT-6d"/>
      <use x="211.1328125" xlink:href="#ArialMT-75"/>
      <use x="266.748046875" xlink:href="#ArialMT-6c"/>
      <use x="288.96484375" xlink:href="#ArialMT-61"/>
      <use x="344.580078125" xlink:href="#ArialMT-74"/>
      <use x="372.36328125" xlink:href="#ArialMT-69"/>
      <use x="394.580078125" xlink:href="#ArialMT-76"/>
      <use x="444.580078125" xlink:href="#ArialMT-65"/>
      <use x="500.1953125" xlink:href="#ArialMT-20"/>
      <use x="527.978515625" xlink:href="#ArialMT-64"/>
      <use x="583.59375" xlink:href="#ArialMT-69"/>
      <use x="605.810546875" xlink:href="#ArialMT-73"/>
      <use x="655.810546875" xlink:href="#ArialMT-74"/>
      <use x="683.59375" xlink:href="#ArialMT-72"/>
      <use x="716.89453125" xlink:href="#ArialMT-69"/>
      <use x="739.111328125" xlink:href="#ArialMT-62"/>
      <use x="794.7265625" xlink:href="#ArialMT-75"/>
      <use x="850.341796875" xlink:href="#ArialMT-74"/>
      <use x="878.125" xlink:href="#ArialMT-69"/>
      <use x="900.341796875" xlink:href="#ArialMT-6f"/>
      <use x="955.95703125" xlink:href="#ArialMT-6e"/>
     </g>
    </g>
   </g>
   <g id="line2d_25">
    <path clip-path="url(#pe49baa29aa)" d="M 37.647021 178.829722 
L 45.091243 157.722195 
L 52.535464 139.689384 
L 59.979686 123.19531 
L 67.423907 107.090239 
L 74.868129 96.076295 
L 82.31235 86.933723 
L 89.756572 72.100289 
L 97.200793 62.623783 
L 104.645015 57.564596 
L 112.089237 48.278596 
L 119.533458 44.56207 
L 126.97768 42.196207 
L 134.421901 39.01646 
L 141.866123 36.265357 
L 156.754566 33.700802 
L 171.643009 33.040282 
L 179.087231 32.378217 
L 193.975674 31.725701 
L 201.419895 30.184065 
L 208.864117 29.84778 
L 260.973668 29.833558 
L 268.417889 29.43646 
L 283.306332 28.229605 
L 290.750554 28.229468 
L 298.194775 27.300301 
L 305.638997 27.264118 
L 313.083219 26.9424 
L 357.748548 26.9424 
L 365.19277 26.403596 
L 380.081213 26.2988 
L 387.525434 26.202437 
L 394.969656 25.977 
L 417.30232 25.976992 
L 424.746542 25.333405 
L 432.190764 25.33333 
L 439.634985 25.0116 
L 506.632979 24.952437 
L 514.077201 24.6898 
L 721 24.6898 
L 721 24.6898 
" style="fill:none;stroke:#4c72b0;stroke-linecap:round;stroke-width:2.0;"/>
   </g>
   <g id="line2d_26">
    <path clip-path="url(#pe49baa29aa)" d="M 37.647021 178.830557 
L 40.685787 176.290379 
L 43.724553 163.18187 
L 46.763319 150.993404 
L 49.802086 140.814048 
L 52.840852 132.544316 
L 55.879618 124.927819 
L 58.918384 116.07492 
L 61.95715 103.283169 
L 64.995916 96.197746 
L 68.034682 90.801065 
L 71.073448 87.536435 
L 74.112215 84.985378 
L 77.150981 81.932962 
L 80.189747 78.209402 
L 83.228513 74.868908 
L 86.267279 71.137062 
L 89.306045 68.369054 
L 92.344811 65.288905 
L 95.383577 61.774253 
L 98.422344 58.81296 
L 101.46111 56.504437 
L 104.499876 54.472986 
L 107.538642 51.641953 
L 110.577408 49.760116 
L 113.616174 48.543285 
L 116.65494 46.826933 
L 119.693706 45.565143 
L 122.732473 44.048551 
L 125.771239 43.528844 
L 128.810005 42.570915 
L 131.848771 41.43898 
L 134.887537 39.934986 
L 140.965069 35.328815 
L 144.003835 34.82095 
L 147.042602 34.801439 
L 150.081368 34.045465 
L 153.120134 33.638995 
L 162.236432 31.930579 
L 165.275198 31.411647 
L 171.352731 31.280532 
L 174.391497 30.764114 
L 177.430263 30.755214 
L 180.469029 30.401048 
L 186.546561 29.992574 
L 189.585327 29.595011 
L 192.624094 29.594099 
L 198.701626 29.013696 
L 201.740392 29.012901 
L 204.779158 28.628799 
L 207.817924 28.43287 
L 213.895456 28.432204 
L 216.934223 28.04755 
L 219.972989 27.852178 
L 268.593247 27.832044 
L 271.632013 27.29918 
L 286.825843 27.271459 
L 305.05844 27.269985 
L 311.135973 26.110661 
L 314.174739 26.070545 
L 317.213505 25.542793 
L 344.5624 25.529383 
L 384.06636 25.512396 
L 387.105126 24.981024 
L 399.26019 24.948692 
L 417.492787 24.948671 
L 420.531553 24.76624 
L 423.570319 24.368784 
L 423.570319 24.368784 
" style="fill:none;stroke:#55a868;stroke-linecap:round;stroke-width:2.0;"/>
   </g>
   <g id="patch_3">
    <path d="M 40.2055 24.368 
L 185.573625 24.368 
" style="fill:none;stroke:#262626;stroke-linecap:square;stroke-linejoin:miter;stroke-width:1.25;"/>
   </g>
   <g id="patch_4">
    <path d="M 185.573625 178.832 
L 185.573625 24.368 
" style="fill:none;stroke:#262626;stroke-linecap:square;stroke-linejoin:miter;stroke-width:1.25;"/>
   </g>
   <g id="patch_5">
    <path d="M 40.2055 178.832 
L 185.573625 178.832 
" style="fill:none;stroke:#262626;stroke-linecap:square;stroke-linejoin:miter;stroke-width:1.25;"/>
   </g>
   <g id="patch_6">
    <path d="M 40.2055 178.832 
L 40.2055 24.368 
" style="fill:none;stroke:#262626;stroke-linecap:square;stroke-linejoin:miter;stroke-width:1.25;"/>
   </g>
   <g id="text_15">
    <!-- $p_{ranksum}$ &lt; 0.09 -->
    <defs>
     <path d="M 17.390625 -1.125 
Q 11.078125 -1.125 7.4375 3.640625 
Q 3.8125 8.40625 3.8125 14.890625 
Q 3.8125 21.296875 7.125 28.171875 
Q 10.453125 35.0625 16.09375 39.625 
Q 21.734375 44.1875 28.21875 44.1875 
Q 31.203125 44.1875 33.546875 42.578125 
Q 35.890625 40.96875 37.203125 38.1875 
Q 38.328125 42.1875 41.609375 42.1875 
Q 42.875 42.1875 43.71875 41.421875 
Q 44.578125 40.671875 44.578125 39.40625 
Q 44.578125 39.109375 44.546875 38.953125 
Q 44.53125 38.8125 44.484375 38.625 
L 37.5 10.6875 
Q 36.8125 7.71875 36.8125 5.8125 
Q 36.8125 1.515625 39.703125 1.515625 
Q 42.828125 1.515625 44.453125 5.484375 
Q 46.09375 9.46875 47.21875 14.703125 
Q 47.40625 15.28125 48 15.28125 
L 49.21875 15.28125 
Q 49.609375 15.28125 49.84375 14.9375 
Q 50.09375 14.59375 50.09375 14.3125 
Q 48.34375 7.328125 46.265625 3.09375 
Q 44.1875 -1.125 39.5 -1.125 
Q 36.140625 -1.125 33.546875 0.84375 
Q 30.953125 2.828125 30.328125 6.109375 
Q 23.875 -1.125 17.390625 -1.125 
M 17.484375 1.515625 
Q 21.09375 1.515625 24.484375 4.21875 
Q 27.875 6.9375 30.328125 10.59375 
Q 30.421875 10.6875 30.421875 10.890625 
L 35.796875 32.625 
L 35.890625 32.90625 
Q 35.296875 36.46875 33.3125 39.03125 
Q 31.34375 41.609375 27.984375 41.609375 
Q 24.609375 41.609375 21.703125 38.84375 
Q 18.796875 36.078125 16.796875 32.328125 
Q 14.84375 28.328125 13.0625 21.34375 
Q 11.28125 14.359375 11.28125 10.5 
Q 11.28125 7.03125 12.765625 4.265625 
Q 14.265625 1.515625 17.484375 1.515625 
" id="Cmmi10-61"/>
     <path d="M 5.328125 1.8125 
Q 5.328125 2.390625 5.421875 2.6875 
L 19.921875 60.5 
Q 20.3125 62.203125 20.40625 63.1875 
Q 20.40625 64.796875 13.921875 64.796875 
Q 12.890625 64.796875 12.890625 66.109375 
Q 12.9375 66.359375 13.109375 66.984375 
Q 13.28125 67.625 13.546875 67.96875 
Q 13.8125 68.3125 14.3125 68.3125 
L 27.78125 69.390625 
L 28.078125 69.390625 
Q 28.078125 69.28125 28.421875 69.109375 
Q 28.765625 68.953125 28.8125 68.890625 
Q 29 68.40625 29 68.109375 
L 18.5 26.3125 
Q 22.125 27.828125 27.609375 33.515625 
Q 33.109375 39.203125 36.203125 41.6875 
Q 39.3125 44.1875 44 44.1875 
Q 46.78125 44.1875 48.734375 42.28125 
Q 50.6875 40.375 50.6875 37.59375 
Q 50.6875 35.84375 49.953125 34.34375 
Q 49.21875 32.859375 47.890625 31.921875 
Q 46.578125 31 44.828125 31 
Q 43.21875 31 42.109375 32 
Q 41.015625 33.015625 41.015625 34.625 
Q 41.015625 37.015625 42.703125 38.640625 
Q 44.390625 40.28125 46.78125 40.28125 
Q 45.796875 41.609375 43.796875 41.609375 
Q 40.828125 41.609375 38.0625 39.890625 
Q 35.296875 38.1875 32.09375 34.984375 
Q 28.90625 31.78125 26.265625 29.125 
Q 23.640625 26.46875 21.390625 25.09375 
Q 27.296875 24.421875 31.640625 22 
Q 35.984375 19.578125 35.984375 14.59375 
Q 35.984375 13.578125 35.59375 12.015625 
Q 34.71875 8.25 34.71875 6 
Q 34.71875 1.515625 37.796875 1.515625 
Q 41.40625 1.515625 43.28125 5.46875 
Q 45.171875 9.421875 46.390625 14.703125 
Q 46.578125 15.28125 47.21875 15.28125 
L 48.390625 15.28125 
Q 48.78125 15.28125 49.046875 15.03125 
Q 49.3125 14.796875 49.3125 14.40625 
Q 49.3125 14.3125 49.21875 14.109375 
Q 45.453125 -1.125 37.59375 -1.125 
Q 34.765625 -1.125 32.59375 0.1875 
Q 30.421875 1.515625 29.25 3.78125 
Q 28.078125 6.0625 28.078125 8.890625 
Q 28.078125 10.5 28.515625 12.203125 
Q 28.8125 13.375 28.8125 14.40625 
Q 28.8125 18.265625 25.390625 20.265625 
Q 21.96875 22.265625 17.578125 22.703125 
L 12.5 2.296875 
Q 12.109375 0.78125 10.984375 -0.171875 
Q 9.859375 -1.125 8.40625 -1.125 
Q 7.125 -1.125 6.21875 -0.265625 
Q 5.328125 0.59375 5.328125 1.8125 
" id="Cmmi10-6b"/>
     <path d="M 7.71875 1.703125 
Q 7.71875 2.296875 7.8125 2.59375 
L 15.28125 32.421875 
Q 16.015625 35.203125 16.015625 37.3125 
Q 16.015625 41.609375 13.09375 41.609375 
Q 9.96875 41.609375 8.453125 37.859375 
Q 6.9375 34.125 5.515625 28.421875 
Q 5.515625 28.125 5.21875 27.953125 
Q 4.9375 27.78125 4.6875 27.78125 
L 3.515625 27.78125 
Q 3.171875 27.78125 2.921875 28.140625 
Q 2.6875 28.515625 2.6875 28.8125 
Q 3.765625 33.15625 4.765625 36.171875 
Q 5.765625 39.203125 7.890625 41.6875 
Q 10.015625 44.1875 13.1875 44.1875 
Q 16.9375 44.1875 19.8125 41.8125 
Q 22.703125 39.453125 22.703125 35.796875 
Q 25.6875 39.703125 29.6875 41.9375 
Q 33.6875 44.1875 38.1875 44.1875 
Q 41.75 44.1875 44.328125 42.96875 
Q 46.921875 41.75 48.359375 39.28125 
Q 49.8125 36.8125 49.8125 33.40625 
Q 49.8125 29.296875 47.96875 23.484375 
Q 46.140625 17.671875 43.40625 10.5 
Q 42 7.234375 42 4.5 
Q 42 1.515625 44.28125 1.515625 
Q 48.1875 1.515625 50.796875 5.703125 
Q 53.421875 9.90625 54.5 14.703125 
Q 54.6875 15.28125 55.328125 15.28125 
L 56.5 15.28125 
Q 56.890625 15.28125 57.15625 15.03125 
Q 57.421875 14.796875 57.421875 14.40625 
Q 57.421875 14.3125 57.328125 14.109375 
Q 55.953125 8.453125 52.5625 3.65625 
Q 49.171875 -1.125 44.09375 -1.125 
Q 40.578125 -1.125 38.078125 1.296875 
Q 35.59375 3.71875 35.59375 7.171875 
Q 35.59375 9.03125 36.375 11.078125 
Q 37.640625 14.359375 39.28125 18.890625 
Q 40.921875 23.4375 41.96875 27.578125 
Q 43.015625 31.734375 43.015625 34.90625 
Q 43.015625 37.703125 41.859375 39.65625 
Q 40.71875 41.609375 37.984375 41.609375 
Q 34.328125 41.609375 31.25 39.984375 
Q 28.171875 38.375 25.875 35.71875 
Q 23.578125 33.0625 21.6875 29.390625 
L 14.890625 2.203125 
Q 14.546875 0.828125 13.34375 -0.140625 
Q 12.15625 -1.125 10.6875 -1.125 
Q 9.46875 -1.125 8.59375 -0.34375 
Q 7.71875 0.4375 7.71875 1.703125 
" id="Cmmi10-6e"/>
     <path d="M 7.71875 1.703125 
Q 7.71875 2.296875 7.8125 2.59375 
L 15.28125 32.421875 
Q 16.015625 35.203125 16.015625 37.3125 
Q 16.015625 41.609375 13.09375 41.609375 
Q 9.96875 41.609375 8.453125 37.859375 
Q 6.9375 34.125 5.515625 28.421875 
Q 5.515625 28.125 5.21875 27.953125 
Q 4.9375 27.78125 4.6875 27.78125 
L 3.515625 27.78125 
Q 3.171875 27.78125 2.921875 28.140625 
Q 2.6875 28.515625 2.6875 28.8125 
Q 3.765625 33.15625 4.765625 36.171875 
Q 5.765625 39.203125 7.890625 41.6875 
Q 10.015625 44.1875 13.1875 44.1875 
Q 16.9375 44.1875 19.8125 41.8125 
Q 22.703125 39.453125 22.703125 35.796875 
Q 25.6875 39.703125 29.6875 41.9375 
Q 33.6875 44.1875 38.1875 44.1875 
Q 42.921875 44.1875 46.359375 41.765625 
Q 49.8125 39.359375 49.8125 34.90625 
Q 52.875 39.265625 57 41.71875 
Q 61.140625 44.1875 66.015625 44.1875 
Q 71.1875 44.1875 74.328125 41.375 
Q 77.484375 38.578125 77.484375 33.40625 
Q 77.484375 29.296875 75.65625 23.484375 
Q 73.828125 17.671875 71.09375 10.5 
Q 69.671875 7.03125 69.671875 4.5 
Q 69.671875 1.515625 72.015625 1.515625 
Q 75.921875 1.515625 78.515625 5.703125 
Q 81.109375 9.90625 82.171875 14.703125 
Q 82.46875 15.28125 83.015625 15.28125 
L 84.1875 15.28125 
Q 84.578125 15.28125 84.84375 15.015625 
Q 85.109375 14.75 85.109375 14.40625 
Q 85.109375 14.3125 85.015625 14.109375 
Q 83.640625 8.453125 80.25 3.65625 
Q 76.859375 -1.125 71.78125 -1.125 
Q 68.265625 -1.125 65.765625 1.296875 
Q 63.28125 3.71875 63.28125 7.171875 
Q 63.28125 8.9375 64.109375 11.078125 
Q 66.9375 18.609375 68.8125 24.515625 
Q 70.703125 30.421875 70.703125 34.90625 
Q 70.703125 37.703125 69.578125 39.65625 
Q 68.453125 41.609375 65.828125 41.609375 
Q 60.359375 41.609375 56.34375 38.25 
Q 52.34375 34.90625 49.421875 29.390625 
Q 49.21875 28.421875 49.125 27.875 
L 42.671875 2.203125 
Q 42.328125 0.828125 41.125 -0.140625 
Q 39.9375 -1.125 38.484375 -1.125 
Q 37.3125 -1.125 36.40625 -0.34375 
Q 35.5 0.4375 35.5 1.703125 
Q 35.5 2.296875 35.59375 2.59375 
L 42 28.078125 
Q 43.015625 32.171875 43.015625 34.90625 
Q 43.015625 37.703125 41.859375 39.65625 
Q 40.71875 41.609375 37.984375 41.609375 
Q 34.328125 41.609375 31.25 39.984375 
Q 28.171875 38.375 25.875 35.71875 
Q 23.578125 33.0625 21.6875 29.390625 
L 14.890625 2.203125 
Q 14.546875 0.828125 13.34375 -0.140625 
Q 12.15625 -1.125 10.6875 -1.125 
Q 9.46875 -1.125 8.59375 -0.34375 
Q 7.71875 0.4375 7.71875 1.703125 
" id="Cmmi10-6d"/>
     <path d="M 5.46875 16.546875 
L 13.921875 17.328125 
Q 14.984375 11.375 18.015625 8.6875 
Q 21.046875 6 25.78125 6 
Q 29.828125 6 32.875 7.859375 
Q 35.9375 9.71875 37.890625 12.8125 
Q 39.84375 15.921875 41.15625 21.1875 
Q 42.484375 26.46875 42.484375 31.9375 
Q 42.484375 32.515625 42.4375 33.6875 
Q 39.796875 29.5 35.234375 26.875 
Q 30.671875 24.265625 25.34375 24.265625 
Q 16.453125 24.265625 10.296875 30.703125 
Q 4.15625 37.15625 4.15625 47.703125 
Q 4.15625 58.59375 10.578125 65.234375 
Q 17 71.875 26.65625 71.875 
Q 33.640625 71.875 39.421875 68.109375 
Q 45.21875 64.359375 48.21875 57.390625 
Q 51.21875 50.4375 51.21875 37.25 
Q 51.21875 23.53125 48.234375 15.40625 
Q 45.265625 7.28125 39.375 3.03125 
Q 33.5 -1.21875 25.59375 -1.21875 
Q 17.1875 -1.21875 11.859375 3.4375 
Q 6.546875 8.109375 5.46875 16.546875 
M 41.453125 48.140625 
Q 41.453125 55.71875 37.421875 60.15625 
Q 33.40625 64.59375 27.734375 64.59375 
Q 21.875 64.59375 17.53125 59.8125 
Q 13.1875 55.03125 13.1875 47.40625 
Q 13.1875 40.578125 17.3125 36.296875 
Q 21.4375 32.03125 27.484375 32.03125 
Q 33.59375 32.03125 37.515625 36.296875 
Q 41.453125 40.578125 41.453125 48.140625 
" id="ArialMT-39"/>
     <path d="M 5.46875 31.296875 
L 5.46875 39.5 
L 52.875 59.515625 
L 52.875 50.78125 
L 15.28125 35.359375 
L 52.875 19.78125 
L 52.875 11.03125 
z
" id="ArialMT-3c"/>
     <path d="M 7.71875 1.703125 
Q 7.71875 2.296875 7.8125 2.59375 
L 15.28125 32.421875 
Q 16.015625 35.203125 16.015625 37.3125 
Q 16.015625 41.609375 13.09375 41.609375 
Q 9.96875 41.609375 8.453125 37.859375 
Q 6.9375 34.125 5.515625 28.421875 
Q 5.515625 28.125 5.21875 27.953125 
Q 4.9375 27.78125 4.6875 27.78125 
L 3.515625 27.78125 
Q 3.171875 27.78125 2.921875 28.140625 
Q 2.6875 28.515625 2.6875 28.8125 
Q 3.765625 33.15625 4.765625 36.171875 
Q 5.765625 39.203125 7.890625 41.6875 
Q 10.015625 44.1875 13.1875 44.1875 
Q 16.65625 44.1875 19.265625 42.1875 
Q 21.875 40.1875 22.515625 36.921875 
Q 25.046875 40.234375 28.296875 42.203125 
Q 31.546875 44.1875 35.40625 44.1875 
Q 38.578125 44.1875 40.984375 42.328125 
Q 43.40625 40.484375 43.40625 37.3125 
Q 43.40625 34.765625 41.8125 32.875 
Q 40.234375 31 37.59375 31 
Q 35.984375 31 34.890625 32 
Q 33.796875 33.015625 33.796875 34.625 
Q 33.796875 36.8125 35.40625 38.546875 
Q 37.015625 40.28125 39.109375 40.28125 
Q 37.5 41.609375 35.203125 41.609375 
Q 30.90625 41.609375 27.734375 38.546875 
Q 24.5625 35.5 22.015625 30.8125 
L 14.890625 2.203125 
Q 14.546875 0.828125 13.34375 -0.140625 
Q 12.15625 -1.125 10.6875 -1.125 
Q 9.46875 -1.125 8.59375 -0.34375 
Q 7.71875 0.4375 7.71875 1.703125 
" id="Cmmi10-72"/>
     <path d="M 8.6875 6.109375 
Q 11.375 1.515625 19.484375 1.515625 
Q 23 1.515625 26.171875 2.703125 
Q 29.34375 3.90625 31.421875 6.296875 
Q 33.5 8.6875 33.5 12.109375 
Q 33.5 14.703125 31.640625 16.359375 
Q 29.78125 18.015625 27.09375 18.609375 
L 21.6875 19.671875 
Q 17.96875 20.609375 15.578125 23.140625 
Q 13.1875 25.6875 13.1875 29.296875 
Q 13.1875 33.734375 15.59375 37.15625 
Q 18.015625 40.578125 21.96875 42.375 
Q 25.921875 44.1875 30.171875 44.1875 
Q 34.71875 44.1875 38.296875 42.015625 
Q 41.890625 39.84375 41.890625 35.59375 
Q 41.890625 33.296875 40.59375 31.53125 
Q 39.3125 29.78125 37.015625 29.78125 
Q 35.6875 29.78125 34.734375 30.640625 
Q 33.796875 31.5 33.796875 32.8125 
Q 33.796875 33.984375 34.453125 35.078125 
Q 35.109375 36.1875 36.203125 36.84375 
Q 37.3125 37.5 38.484375 37.5 
Q 37.59375 39.65625 35.171875 40.625 
Q 32.765625 41.609375 29.984375 41.609375 
Q 27.4375 41.609375 24.890625 40.578125 
Q 22.359375 39.546875 20.8125 37.5625 
Q 19.28125 35.59375 19.28125 32.90625 
Q 19.28125 31.109375 20.546875 29.734375 
Q 21.828125 28.375 23.6875 27.78125 
L 29.5 26.609375 
Q 32.28125 26.03125 34.59375 24.53125 
Q 36.921875 23.046875 38.25 20.765625 
Q 39.59375 18.5 39.59375 15.578125 
Q 39.59375 11.859375 37.515625 8.25 
Q 35.453125 4.640625 32.421875 2.484375 
Q 27.09375 -1.125 19.390625 -1.125 
Q 14.0625 -1.125 9.609375 1.3125 
Q 5.171875 3.765625 5.171875 8.59375 
Q 5.171875 11.328125 6.75 13.34375 
Q 8.34375 15.375 11.078125 15.375 
Q 12.703125 15.375 13.796875 14.390625 
Q 14.890625 13.421875 14.890625 11.8125 
Q 14.890625 9.515625 13.171875 7.8125 
Q 11.46875 6.109375 9.1875 6.109375 
z
" id="Cmmi10-73"/>
     <path d="M -2.484375 -19.390625 
Q -3.421875 -19.390625 -3.421875 -18.109375 
Q -3.078125 -15.921875 -2.09375 -15.921875 
Q 1.03125 -15.921875 2.265625 -15.359375 
Q 3.515625 -14.796875 4.203125 -12.5 
L 15.484375 32.515625 
Q 16.21875 34.375 16.21875 37.3125 
Q 16.21875 41.609375 13.28125 41.609375 
Q 10.15625 41.609375 8.640625 37.859375 
Q 7.125 34.125 5.71875 28.421875 
Q 5.71875 27.78125 4.890625 27.78125 
L 3.71875 27.78125 
Q 3.46875 27.78125 3.171875 28.140625 
Q 2.875 28.515625 2.875 28.8125 
Q 3.953125 33.15625 4.953125 36.171875 
Q 5.953125 39.203125 8.078125 41.6875 
Q 10.203125 44.1875 13.375 44.1875 
Q 16.796875 44.1875 19.375 42.25 
Q 21.96875 40.328125 22.703125 37.015625 
Q 25.4375 40.1875 28.75 42.1875 
Q 32.078125 44.1875 35.59375 44.1875 
Q 39.796875 44.1875 42.890625 41.9375 
Q 46 39.703125 47.5625 36.0625 
Q 49.125 32.421875 49.125 28.21875 
Q 49.125 21.78125 45.828125 14.890625 
Q 42.53125 8.015625 36.890625 3.4375 
Q 31.25 -1.125 24.8125 -1.125 
Q 21.875 -1.125 19.5 0.53125 
Q 17.140625 2.203125 15.828125 4.890625 
L 11.28125 -12.890625 
Q 11.03125 -14.359375 10.984375 -14.59375 
Q 10.984375 -15.921875 17.578125 -15.921875 
Q 18.609375 -15.921875 18.609375 -17.1875 
Q 18.265625 -18.5 18.046875 -18.9375 
Q 17.828125 -19.390625 16.890625 -19.390625 
z
M 24.90625 1.515625 
Q 28.375 1.515625 31.34375 4.375 
Q 34.328125 7.234375 36.1875 10.796875 
Q 37.546875 13.484375 38.734375 17.359375 
Q 39.9375 21.234375 40.8125 25.625 
Q 41.703125 30.03125 41.703125 32.625 
Q 41.703125 34.90625 41.09375 36.90625 
Q 40.484375 38.921875 39.09375 40.265625 
Q 37.703125 41.609375 35.40625 41.609375 
Q 31.734375 41.609375 28.484375 38.984375 
Q 25.25 36.375 22.609375 32.515625 
L 22.609375 32.171875 
L 17.09375 10.109375 
Q 17.78125 6.546875 19.734375 4.03125 
Q 21.6875 1.515625 24.90625 1.515625 
" id="Cmmi10-70"/>
     <path d="M 10.59375 10.890625 
Q 10.59375 14.15625 11.46875 17.59375 
Q 12.359375 21.046875 13.9375 25.265625 
Q 15.53125 29.5 16.703125 32.625 
Q 18.015625 36.28125 18.015625 38.625 
Q 18.015625 41.609375 15.828125 41.609375 
Q 11.859375 41.609375 9.296875 37.53125 
Q 6.734375 33.453125 5.515625 28.421875 
Q 5.328125 27.78125 4.6875 27.78125 
L 3.515625 27.78125 
Q 2.6875 27.78125 2.6875 28.71875 
L 2.6875 29 
Q 4.296875 34.96875 7.609375 39.578125 
Q 10.9375 44.1875 16.015625 44.1875 
Q 19.578125 44.1875 22.046875 41.84375 
Q 24.515625 39.5 24.515625 35.890625 
Q 24.515625 34.03125 23.6875 31.984375 
Q 23.25 30.765625 21.6875 26.65625 
Q 20.125 22.5625 19.28125 19.875 
Q 18.453125 17.1875 17.921875 14.59375 
Q 17.390625 12.015625 17.390625 9.421875 
Q 17.390625 6.109375 18.796875 3.8125 
Q 20.21875 1.515625 23.390625 1.515625 
Q 29.78125 1.515625 34.625 9.421875 
Q 34.71875 9.8125 34.78125 10.171875 
Q 34.859375 10.546875 34.90625 10.890625 
L 42.09375 39.890625 
Q 42.4375 41.21875 43.65625 42.15625 
Q 44.875 43.109375 46.296875 43.109375 
Q 47.515625 43.109375 48.40625 42.328125 
Q 49.3125 41.546875 49.3125 40.28125 
Q 49.3125 39.703125 49.21875 39.5 
L 42 10.6875 
Q 41.3125 7.71875 41.3125 5.8125 
Q 41.3125 1.515625 44.1875 1.515625 
Q 47.40625 1.515625 49 5.484375 
Q 50.59375 9.46875 51.703125 14.703125 
Q 51.90625 15.28125 52.484375 15.28125 
L 53.71875 15.28125 
Q 54.109375 15.28125 54.34375 14.9375 
Q 54.59375 14.59375 54.59375 14.3125 
Q 53.515625 10.015625 52.515625 6.9375 
Q 51.515625 3.859375 49.359375 1.359375 
Q 47.21875 -1.125 44 -1.125 
Q 40.828125 -1.125 38.3125 0.609375 
Q 35.796875 2.34375 34.90625 5.328125 
Q 32.625 2.390625 29.59375 0.625 
Q 26.5625 -1.125 23.1875 -1.125 
Q 17.4375 -1.125 14.015625 2.015625 
Q 10.59375 5.171875 10.59375 10.890625 
" id="Cmmi10-75"/>
    </defs>
    <g style="fill:#262626;" transform="translate(81.8335625 19.368)scale(0.096 -0.096)">
     <use transform="translate(0.0 0.125)" xlink:href="#Cmmi10-70"/>
     <use transform="translate(50.29296875 -16.88125)scale(0.7)" xlink:href="#Cmmi10-72"/>
     <use transform="translate(81.875 -16.88125)scale(0.7)" xlink:href="#Cmmi10-61"/>
     <use transform="translate(118.823242188 -16.88125)scale(0.7)" xlink:href="#Cmmi10-6e"/>
     <use transform="translate(160.830078125 -16.88125)scale(0.7)" xlink:href="#Cmmi10-6b"/>
     <use transform="translate(197.231445312 -16.88125)scale(0.7)" xlink:href="#Cmmi10-73"/>
     <use transform="translate(229.975585938 -16.88125)scale(0.7)" xlink:href="#Cmmi10-75"/>
     <use transform="translate(270.0 -16.88125)scale(0.7)" xlink:href="#Cmmi10-6d"/>
     <use transform="translate(337.832421875 0.125)" xlink:href="#ArialMT-20"/>
     <use transform="translate(365.615625 0.125)" xlink:href="#ArialMT-3c"/>
     <use transform="translate(424.0140625 0.125)" xlink:href="#ArialMT-20"/>
     <use transform="translate(451.797265625 0.125)" xlink:href="#ArialMT-30"/>
     <use transform="translate(507.4125 0.125)" xlink:href="#ArialMT-2e"/>
     <use transform="translate(535.195703125 0.125)" xlink:href="#ArialMT-30"/>
     <use transform="translate(590.8109375 0.125)" xlink:href="#ArialMT-39"/>
    </g>
   </g>
   <g id="legend_1">
    <g id="line2d_27">
     <path d="M 73.483625 155.64075 
L 89.483625 155.64075 
" style="fill:none;stroke:#4c72b0;stroke-linecap:round;stroke-width:2.0;"/>
    </g>
    <g id="line2d_28"/>
    <g id="text_16">
     <!-- not regulated (N = 480) -->
     <defs>
      <path d="M 52.828125 42.09375 
L 5.5625 42.09375 
L 5.5625 50.296875 
L 52.828125 50.296875 
z
M 52.828125 20.359375 
L 5.5625 20.359375 
L 5.5625 28.5625 
L 52.828125 28.5625 
z
" id="ArialMT-3d"/>
      <path d="M 7.625 0 
L 7.625 71.578125 
L 17.328125 71.578125 
L 54.9375 15.375 
L 54.9375 71.578125 
L 64.015625 71.578125 
L 64.015625 0 
L 54.296875 0 
L 16.703125 56.25 
L 16.703125 0 
z
" id="ArialMT-4e"/>
      <path d="M 12.359375 -21.046875 
L 6.0625 -21.046875 
Q 20.65625 2.390625 20.65625 25.875 
Q 20.65625 35.0625 18.5625 44.09375 
Q 16.890625 51.421875 13.921875 58.15625 
Q 12.015625 62.546875 6.0625 72.796875 
L 12.359375 72.796875 
Q 21.53125 60.546875 25.921875 48.1875 
Q 29.6875 37.546875 29.6875 25.921875 
Q 29.6875 12.75 24.625 0.4375 
Q 19.578125 -11.859375 12.359375 -21.046875 
" id="ArialMT-29"/>
      <path d="M 23.390625 -21.046875 
Q 16.109375 -11.859375 11.078125 0.4375 
Q 6.0625 12.75 6.0625 25.921875 
Q 6.0625 37.546875 9.8125 48.1875 
Q 14.203125 60.546875 23.390625 72.796875 
L 29.6875 72.796875 
Q 23.78125 62.640625 21.875 58.296875 
Q 18.890625 51.5625 17.1875 44.234375 
Q 15.09375 35.109375 15.09375 25.875 
Q 15.09375 2.390625 29.6875 -21.046875 
z
" id="ArialMT-28"/>
     </defs>
     <g style="fill:#262626;" transform="translate(95.883625 158.44075)scale(0.08 -0.08)">
      <use xlink:href="#ArialMT-6e"/>
      <use x="55.615234375" xlink:href="#ArialMT-6f"/>
      <use x="111.23046875" xlink:href="#ArialMT-74"/>
      <use x="139.013671875" xlink:href="#ArialMT-20"/>
      <use x="166.796875" xlink:href="#ArialMT-72"/>
      <use x="200.09765625" xlink:href="#ArialMT-65"/>
      <use x="255.712890625" xlink:href="#ArialMT-67"/>
      <use x="311.328125" xlink:href="#ArialMT-75"/>
      <use x="366.943359375" xlink:href="#ArialMT-6c"/>
      <use x="389.16015625" xlink:href="#ArialMT-61"/>
      <use x="444.775390625" xlink:href="#ArialMT-74"/>
      <use x="472.55859375" xlink:href="#ArialMT-65"/>
      <use x="528.173828125" xlink:href="#ArialMT-64"/>
      <use x="583.7890625" xlink:href="#ArialMT-20"/>
      <use x="611.572265625" xlink:href="#ArialMT-28"/>
      <use x="644.873046875" xlink:href="#ArialMT-4e"/>
      <use x="717.08984375" xlink:href="#ArialMT-20"/>
      <use x="744.873046875" xlink:href="#ArialMT-3d"/>
      <use x="803.271484375" xlink:href="#ArialMT-20"/>
      <use x="831.0546875" xlink:href="#ArialMT-34"/>
      <use x="886.669921875" xlink:href="#ArialMT-38"/>
      <use x="942.28515625" xlink:href="#ArialMT-30"/>
      <use x="997.900390625" xlink:href="#ArialMT-29"/>
     </g>
    </g>
    <g id="line2d_29">
     <path d="M 73.483625 167.14825 
L 89.483625 167.14825 
" style="fill:none;stroke:#55a868;stroke-linecap:round;stroke-width:2.0;"/>
    </g>
    <g id="line2d_30"/>
    <g id="text_17">
     <!-- regulated (N = 266) -->
     <g style="fill:#262626;" transform="translate(95.883625 169.94825)scale(0.08 -0.08)">
      <use xlink:href="#ArialMT-72"/>
      <use x="33.30078125" xlink:href="#ArialMT-65"/>
      <use x="88.916015625" xlink:href="#ArialMT-67"/>
      <use x="144.53125" xlink:href="#ArialMT-75"/>
      <use x="200.146484375" xlink:href="#ArialMT-6c"/>
      <use x="222.36328125" xlink:href="#ArialMT-61"/>
      <use x="277.978515625" xlink:href="#ArialMT-74"/>
      <use x="305.76171875" xlink:href="#ArialMT-65"/>
      <use x="361.376953125" xlink:href="#ArialMT-64"/>
      <use x="416.9921875" xlink:href="#ArialMT-20"/>
      <use x="444.775390625" xlink:href="#ArialMT-28"/>
      <use x="478.076171875" xlink:href="#ArialMT-4e"/>
      <use x="550.29296875" xlink:href="#ArialMT-20"/>
      <use x="578.076171875" xlink:href="#ArialMT-3d"/>
      <use x="636.474609375" xlink:href="#ArialMT-20"/>
      <use x="664.2578125" xlink:href="#ArialMT-32"/>
      <use x="719.873046875" xlink:href="#ArialMT-36"/>
      <use x="775.48828125" xlink:href="#ArialMT-36"/>
      <use x="831.103515625" xlink:href="#ArialMT-29"/>
     </g>
    </g>
   </g>
  </g>
  <g id="axes_2">
   <g id="patch_7">
    <path d="M 213.429125 178.832 
L 358.79725 178.832 
L 358.79725 24.368 
L 213.429125 24.368 
z
" style="fill:#ffffff;"/>
   </g>
   <g id="matplotlib.axis_3">
    <g id="xtick_7">
     <g id="line2d_31"/>
     <g id="line2d_32"/>
     <g id="text_18">
      <!-- 0 -->
      <g style="fill:#262626;" transform="translate(211.20475 190.15825)scale(0.08 -0.08)">
       <use xlink:href="#ArialMT-30"/>
      </g>
     </g>
    </g>
    <g id="xtick_8">
     <g id="line2d_33"/>
     <g id="line2d_34"/>
     <g id="text_19">
      <!-- 5 -->
      <g style="fill:#262626;" transform="translate(240.278375 190.15825)scale(0.08 -0.08)">
       <use xlink:href="#ArialMT-35"/>
      </g>
     </g>
    </g>
    <g id="xtick_9">
     <g id="line2d_35"/>
     <g id="line2d_36"/>
     <g id="text_20">
      <!-- 10 -->
      <g style="fill:#262626;" transform="translate(267.127625 190.15825)scale(0.08 -0.08)">
       <use xlink:href="#ArialMT-31"/>
       <use x="55.615234375" xlink:href="#ArialMT-30"/>
      </g>
     </g>
    </g>
    <g id="xtick_10">
     <g id="line2d_37"/>
     <g id="line2d_38"/>
     <g id="text_21">
      <!-- 15 -->
      <g style="fill:#262626;" transform="translate(296.20125 190.15825)scale(0.08 -0.08)">
       <use xlink:href="#ArialMT-31"/>
       <use x="55.615234375" xlink:href="#ArialMT-35"/>
      </g>
     </g>
    </g>
    <g id="xtick_11">
     <g id="line2d_39"/>
     <g id="line2d_40"/>
     <g id="text_22">
      <!-- 20 -->
      <g style="fill:#262626;" transform="translate(325.274875 190.15825)scale(0.08 -0.08)">
       <use xlink:href="#ArialMT-32"/>
       <use x="55.615234375" xlink:href="#ArialMT-30"/>
      </g>
     </g>
    </g>
    <g id="xtick_12">
     <g id="line2d_41"/>
     <g id="line2d_42"/>
     <g id="text_23">
      <!-- 25 -->
      <g style="fill:#262626;" transform="translate(354.3485 190.15825)scale(0.08 -0.08)">
       <use xlink:href="#ArialMT-32"/>
       <use x="55.615234375" xlink:href="#ArialMT-35"/>
      </g>
     </g>
    </g>
    <g id="text_24">
     <!-- Activation -->
     <defs>
      <path d="M -0.140625 0 
L 27.34375 71.578125 
L 37.546875 71.578125 
L 66.84375 0 
L 56.0625 0 
L 47.703125 21.6875 
L 17.78125 21.6875 
L 9.90625 0 
z
M 20.515625 29.390625 
L 44.78125 29.390625 
L 37.3125 49.21875 
Q 33.890625 58.25 32.234375 64.0625 
Q 30.859375 57.171875 28.375 50.390625 
z
" id="ArialMT-41"/>
      <path d="M 40.4375 19 
L 49.078125 17.875 
Q 47.65625 8.9375 41.8125 3.875 
Q 35.984375 -1.171875 27.484375 -1.171875 
Q 16.84375 -1.171875 10.375 5.78125 
Q 3.90625 12.75 3.90625 25.734375 
Q 3.90625 34.125 6.6875 40.421875 
Q 9.46875 46.734375 15.15625 49.875 
Q 20.84375 53.03125 27.546875 53.03125 
Q 35.984375 53.03125 41.359375 48.75 
Q 46.734375 44.484375 48.25 36.625 
L 39.703125 35.296875 
Q 38.484375 40.53125 35.375 43.15625 
Q 32.28125 45.796875 27.875 45.796875 
Q 21.234375 45.796875 17.078125 41.03125 
Q 12.9375 36.28125 12.9375 25.984375 
Q 12.9375 15.53125 16.9375 10.796875 
Q 20.953125 6.0625 27.390625 6.0625 
Q 32.5625 6.0625 36.03125 9.234375 
Q 39.5 12.40625 40.4375 19 
" id="ArialMT-63"/>
     </defs>
     <g style="fill:#262626;" transform="translate(267.0378125 203.047125)scale(0.088 -0.088)">
      <use xlink:href="#ArialMT-41"/>
      <use x="66.69921875" xlink:href="#ArialMT-63"/>
      <use x="116.69921875" xlink:href="#ArialMT-74"/>
      <use x="144.482421875" xlink:href="#ArialMT-69"/>
      <use x="166.69921875" xlink:href="#ArialMT-76"/>
      <use x="216.69921875" xlink:href="#ArialMT-61"/>
      <use x="272.314453125" xlink:href="#ArialMT-74"/>
      <use x="300.09765625" xlink:href="#ArialMT-69"/>
      <use x="322.314453125" xlink:href="#ArialMT-6f"/>
      <use x="377.9296875" xlink:href="#ArialMT-6e"/>
     </g>
    </g>
   </g>
   <g id="matplotlib.axis_4">
    <g id="ytick_7">
     <g id="line2d_43"/>
     <g id="line2d_44"/>
    </g>
    <g id="ytick_8">
     <g id="line2d_45"/>
     <g id="line2d_46"/>
    </g>
    <g id="ytick_9">
     <g id="line2d_47"/>
     <g id="line2d_48"/>
    </g>
    <g id="ytick_10">
     <g id="line2d_49"/>
     <g id="line2d_50"/>
    </g>
    <g id="ytick_11">
     <g id="line2d_51"/>
     <g id="line2d_52"/>
    </g>
    <g id="ytick_12">
     <g id="line2d_53"/>
     <g id="line2d_54"/>
    </g>
    <g id="text_25">
     <!-- Cumulative distribution -->
     <g style="fill:#262626;" transform="translate(206.680125 146.1066875)rotate(-90.0)scale(0.088 -0.088)">
      <use xlink:href="#ArialMT-43"/>
      <use x="72.216796875" xlink:href="#ArialMT-75"/>
      <use x="127.83203125" xlink:href="#ArialMT-6d"/>
      <use x="211.1328125" xlink:href="#ArialMT-75"/>
      <use x="266.748046875" xlink:href="#ArialMT-6c"/>
      <use x="288.96484375" xlink:href="#ArialMT-61"/>
      <use x="344.580078125" xlink:href="#ArialMT-74"/>
      <use x="372.36328125" xlink:href="#ArialMT-69"/>
      <use x="394.580078125" xlink:href="#ArialMT-76"/>
      <use x="444.580078125" xlink:href="#ArialMT-65"/>
      <use x="500.1953125" xlink:href="#ArialMT-20"/>
      <use x="527.978515625" xlink:href="#ArialMT-64"/>
      <use x="583.59375" xlink:href="#ArialMT-69"/>
      <use x="605.810546875" xlink:href="#ArialMT-73"/>
      <use x="655.810546875" xlink:href="#ArialMT-74"/>
      <use x="683.59375" xlink:href="#ArialMT-72"/>
      <use x="716.89453125" xlink:href="#ArialMT-69"/>
      <use x="739.111328125" xlink:href="#ArialMT-62"/>
      <use x="794.7265625" xlink:href="#ArialMT-75"/>
      <use x="850.341796875" xlink:href="#ArialMT-74"/>
      <use x="878.125" xlink:href="#ArialMT-69"/>
      <use x="900.341796875" xlink:href="#ArialMT-6f"/>
      <use x="955.95703125" xlink:href="#ArialMT-6e"/>
     </g>
    </g>
   </g>
   <g id="line2d_55">
    <path clip-path="url(#p56a56b8a13)" d="M 210.870646 178.830136 
L 218.314868 158.203165 
L 225.759089 138.391233 
L 233.203311 120.332054 
L 240.647532 104.51874 
L 248.091754 94.00211 
L 255.535975 84.1429 
L 262.980197 71.081564 
L 270.424418 62.121346 
L 277.86864 57.108739 
L 285.312862 49.14274 
L 292.757083 45.556298 
L 300.201305 43.44501 
L 307.645526 40.185664 
L 315.089748 36.292457 
L 329.978191 33.786791 
L 367.199299 31.210828 
L 374.64352 29.842631 
L 382.087742 29.357479 
L 434.197293 29.346992 
L 441.641514 29.049028 
L 449.085736 28.401616 
L 456.529957 27.927082 
L 463.974179 27.926981 
L 471.4184 27.241881 
L 478.862622 27.211396 
L 486.306844 26.740719 
L 530.972173 26.740719 
L 538.416395 26.343444 
L 553.304838 26.266175 
L 560.749059 25.96237 
L 568.193281 25.791631 
L 590.525945 25.791622 
L 597.970167 25.079821 
L 605.414389 25.079764 
L 612.85861 24.842544 
L 679.856604 24.798921 
L 687.300826 24.605272 
L 721 24.605272 
L 721 24.605272 
" style="fill:none;stroke:#4c72b0;stroke-linecap:round;stroke-width:2.0;"/>
   </g>
   <g id="line2d_56">
    <path clip-path="url(#p56a56b8a13)" d="M 210.870646 178.829222 
L 213.078868 177.67537 
L 215.28709 167.237063 
L 217.495312 156.177688 
L 219.703534 147.827644 
L 221.911756 138.110675 
L 226.3282 130.716074 
L 228.536422 128.660752 
L 230.744643 124.196177 
L 232.952865 112.547211 
L 235.161087 97.01711 
L 237.369309 88.049659 
L 239.577531 82.899071 
L 241.785753 81.017751 
L 243.993975 78.976981 
L 246.202197 78.035832 
L 250.618641 77.999004 
L 252.826863 76.972475 
L 255.035085 75.743042 
L 257.243307 72.746335 
L 259.451529 69.272239 
L 261.659751 68.114371 
L 263.867973 66.143092 
L 266.076195 64.011918 
L 268.284417 61.24124 
L 270.492638 59.285413 
L 272.70086 55.658025 
L 274.909082 53.651383 
L 277.117304 51.995076 
L 279.325526 50.843449 
L 281.533748 48.026475 
L 283.74197 45.538292 
L 285.950192 44.249487 
L 288.158414 43.860465 
L 290.366636 42.829371 
L 292.574858 40.93677 
L 294.78308 38.415093 
L 296.991302 37.38019 
L 299.199524 37.348569 
L 301.407746 35.574395 
L 303.615968 34.136058 
L 305.82419 34.123076 
L 308.032411 33.810882 
L 310.240633 32.57607 
L 314.657077 32.497684 
L 325.698187 32.48889 
L 330.114631 30.881411 
L 332.322853 30.807073 
L 334.531075 29.600498 
L 336.739297 29.246568 
L 387.528401 29.238068 
L 391.944845 27.630831 
L 416.235287 27.619874 
L 480.273723 27.529344 
L 482.481945 26.276367 
L 484.690167 25.994354 
L 486.898389 25.962179 
L 489.106611 24.887984 
L 491.314833 24.370195 
L 491.314833 24.370195 
" style="fill:none;stroke:#55a868;stroke-linecap:round;stroke-width:2.0;"/>
   </g>
   <g id="patch_8">
    <path d="M 213.429125 24.368 
L 358.79725 24.368 
" style="fill:none;stroke:#262626;stroke-linecap:square;stroke-linejoin:miter;stroke-width:1.25;"/>
   </g>
   <g id="patch_9">
    <path d="M 358.79725 178.832 
L 358.79725 24.368 
" style="fill:none;stroke:#262626;stroke-linecap:square;stroke-linejoin:miter;stroke-width:1.25;"/>
   </g>
   <g id="patch_10">
    <path d="M 213.429125 178.832 
L 358.79725 178.832 
" style="fill:none;stroke:#262626;stroke-linecap:square;stroke-linejoin:miter;stroke-width:1.25;"/>
   </g>
   <g id="patch_11">
    <path d="M 213.429125 178.832 
L 213.429125 24.368 
" style="fill:none;stroke:#262626;stroke-linecap:square;stroke-linejoin:miter;stroke-width:1.25;"/>
   </g>
   <g id="text_26">
    <!-- $p_{ranksum}$ &lt; 0.1 -->
    <g style="fill:#262626;" transform="translate(257.7451875 19.368)scale(0.096 -0.096)">
     <use transform="translate(0.0 0.125)" xlink:href="#Cmmi10-70"/>
     <use transform="translate(50.29296875 -16.88125)scale(0.7)" xlink:href="#Cmmi10-72"/>
     <use transform="translate(81.875 -16.88125)scale(0.7)" xlink:href="#Cmmi10-61"/>
     <use transform="translate(118.823242188 -16.88125)scale(0.7)" xlink:href="#Cmmi10-6e"/>
     <use transform="translate(160.830078125 -16.88125)scale(0.7)" xlink:href="#Cmmi10-6b"/>
     <use transform="translate(197.231445312 -16.88125)scale(0.7)" xlink:href="#Cmmi10-73"/>
     <use transform="translate(229.975585938 -16.88125)scale(0.7)" xlink:href="#Cmmi10-75"/>
     <use transform="translate(270.0 -16.88125)scale(0.7)" xlink:href="#Cmmi10-6d"/>
     <use transform="translate(337.832421875 0.125)" xlink:href="#ArialMT-20"/>
     <use transform="translate(365.615625 0.125)" xlink:href="#ArialMT-3c"/>
     <use transform="translate(424.0140625 0.125)" xlink:href="#ArialMT-20"/>
     <use transform="translate(451.797265625 0.125)" xlink:href="#ArialMT-30"/>
     <use transform="translate(507.4125 0.125)" xlink:href="#ArialMT-2e"/>
     <use transform="translate(535.195703125 0.125)" xlink:href="#ArialMT-31"/>
    </g>
   </g>
   <g id="legend_2">
    <g id="line2d_57">
     <path d="M 248.046 155.64075 
L 264.046 155.64075 
" style="fill:none;stroke:#4c72b0;stroke-linecap:round;stroke-width:2.0;"/>
    </g>
    <g id="line2d_58"/>
    <g id="text_27">
     <!-- not activated (N = 651) -->
     <g style="fill:#262626;" transform="translate(270.446 158.44075)scale(0.08 -0.08)">
      <use xlink:href="#ArialMT-6e"/>
      <use x="55.615234375" xlink:href="#ArialMT-6f"/>
      <use x="111.23046875" xlink:href="#ArialMT-74"/>
      <use x="139.013671875" xlink:href="#ArialMT-20"/>
      <use x="166.796875" xlink:href="#ArialMT-61"/>
      <use x="222.412109375" xlink:href="#ArialMT-63"/>
      <use x="272.412109375" xlink:href="#ArialMT-74"/>
      <use x="300.1953125" xlink:href="#ArialMT-69"/>
      <use x="322.412109375" xlink:href="#ArialMT-76"/>
      <use x="372.412109375" xlink:href="#ArialMT-61"/>
      <use x="428.02734375" xlink:href="#ArialMT-74"/>
      <use x="455.810546875" xlink:href="#ArialMT-65"/>
      <use x="511.42578125" xlink:href="#ArialMT-64"/>
      <use x="567.041015625" xlink:href="#ArialMT-20"/>
      <use x="594.82421875" xlink:href="#ArialMT-28"/>
      <use x="628.125" xlink:href="#ArialMT-4e"/>
      <use x="700.341796875" xlink:href="#ArialMT-20"/>
      <use x="728.125" xlink:href="#ArialMT-3d"/>
      <use x="786.5234375" xlink:href="#ArialMT-20"/>
      <use x="814.306640625" xlink:href="#ArialMT-36"/>
      <use x="869.921875" xlink:href="#ArialMT-35"/>
      <use x="925.537109375" xlink:href="#ArialMT-31"/>
      <use x="981.15234375" xlink:href="#ArialMT-29"/>
     </g>
    </g>
    <g id="line2d_59">
     <path d="M 248.046 167.14825 
L 264.046 167.14825 
" style="fill:none;stroke:#55a868;stroke-linecap:round;stroke-width:2.0;"/>
    </g>
    <g id="line2d_60"/>
    <g id="text_28">
     <!-- activated (N = 95) -->
     <g style="fill:#262626;" transform="translate(270.446 169.94825)scale(0.08 -0.08)">
      <use xlink:href="#ArialMT-61"/>
      <use x="55.615234375" xlink:href="#ArialMT-63"/>
      <use x="105.615234375" xlink:href="#ArialMT-74"/>
      <use x="133.3984375" xlink:href="#ArialMT-69"/>
      <use x="155.615234375" xlink:href="#ArialMT-76"/>
      <use x="205.615234375" xlink:href="#ArialMT-61"/>
      <use x="261.23046875" xlink:href="#ArialMT-74"/>
      <use x="289.013671875" xlink:href="#ArialMT-65"/>
      <use x="344.62890625" xlink:href="#ArialMT-64"/>
      <use x="400.244140625" xlink:href="#ArialMT-20"/>
      <use x="428.02734375" xlink:href="#ArialMT-28"/>
      <use x="461.328125" xlink:href="#ArialMT-4e"/>
      <use x="533.544921875" xlink:href="#ArialMT-20"/>
      <use x="561.328125" xlink:href="#ArialMT-3d"/>
      <use x="619.7265625" xlink:href="#ArialMT-20"/>
      <use x="647.509765625" xlink:href="#ArialMT-39"/>
      <use x="703.125" xlink:href="#ArialMT-35"/>
      <use x="758.740234375" xlink:href="#ArialMT-29"/>
     </g>
    </g>
   </g>
  </g>
  <g id="axes_3">
   <g id="patch_12">
    <path d="M 386.65275 178.832 
L 532.020875 178.832 
L 532.020875 24.368 
L 386.65275 24.368 
z
" style="fill:#ffffff;"/>
   </g>
   <g id="matplotlib.axis_5">
    <g id="xtick_13">
     <g id="line2d_61"/>
     <g id="line2d_62"/>
     <g id="text_29">
      <!-- 0 -->
      <g style="fill:#262626;" transform="translate(384.428375 190.15825)scale(0.08 -0.08)">
       <use xlink:href="#ArialMT-30"/>
      </g>
     </g>
    </g>
    <g id="xtick_14">
     <g id="line2d_63"/>
     <g id="line2d_64"/>
     <g id="text_30">
      <!-- 5 -->
      <g style="fill:#262626;" transform="translate(413.502 190.15825)scale(0.08 -0.08)">
       <use xlink:href="#ArialMT-35"/>
      </g>
     </g>
    </g>
    <g id="xtick_15">
     <g id="line2d_65"/>
     <g id="line2d_66"/>
     <g id="text_31">
      <!-- 10 -->
      <g style="fill:#262626;" transform="translate(440.35125 190.15825)scale(0.08 -0.08)">
       <use xlink:href="#ArialMT-31"/>
       <use x="55.615234375" xlink:href="#ArialMT-30"/>
      </g>
     </g>
    </g>
    <g id="xtick_16">
     <g id="line2d_67"/>
     <g id="line2d_68"/>
     <g id="text_32">
      <!-- 15 -->
      <g style="fill:#262626;" transform="translate(469.424875 190.15825)scale(0.08 -0.08)">
       <use xlink:href="#ArialMT-31"/>
       <use x="55.615234375" xlink:href="#ArialMT-35"/>
      </g>
     </g>
    </g>
    <g id="xtick_17">
     <g id="line2d_69"/>
     <g id="line2d_70"/>
     <g id="text_33">
      <!-- 20 -->
      <g style="fill:#262626;" transform="translate(498.4985 190.15825)scale(0.08 -0.08)">
       <use xlink:href="#ArialMT-32"/>
       <use x="55.615234375" xlink:href="#ArialMT-30"/>
      </g>
     </g>
    </g>
    <g id="xtick_18">
     <g id="line2d_71"/>
     <g id="line2d_72"/>
     <g id="text_34">
      <!-- 25 -->
      <g style="fill:#262626;" transform="translate(527.572125 190.15825)scale(0.08 -0.08)">
       <use xlink:href="#ArialMT-32"/>
       <use x="55.615234375" xlink:href="#ArialMT-35"/>
      </g>
     </g>
    </g>
    <g id="text_35">
     <!-- Inhibition -->
     <defs>
      <path d="M 9.328125 0 
L 9.328125 71.578125 
L 18.796875 71.578125 
L 18.796875 0 
z
" id="ArialMT-49"/>
      <path d="M 6.59375 0 
L 6.59375 71.578125 
L 15.375 71.578125 
L 15.375 45.90625 
Q 21.53125 53.03125 30.90625 53.03125 
Q 36.671875 53.03125 40.921875 50.75 
Q 45.171875 48.484375 47 44.484375 
Q 48.828125 40.484375 48.828125 32.859375 
L 48.828125 0 
L 40.046875 0 
L 40.046875 32.859375 
Q 40.046875 39.453125 37.1875 42.453125 
Q 34.328125 45.453125 29.109375 45.453125 
Q 25.203125 45.453125 21.75 43.421875 
Q 18.3125 41.40625 16.84375 37.9375 
Q 15.375 34.46875 15.375 28.375 
L 15.375 0 
z
" id="ArialMT-68"/>
     </defs>
     <g style="fill:#262626;" transform="translate(441.725125 203.047125)scale(0.088 -0.088)">
      <use xlink:href="#ArialMT-49"/>
      <use x="27.783203125" xlink:href="#ArialMT-6e"/>
      <use x="83.3984375" xlink:href="#ArialMT-68"/>
      <use x="139.013671875" xlink:href="#ArialMT-69"/>
      <use x="161.23046875" xlink:href="#ArialMT-62"/>
      <use x="216.845703125" xlink:href="#ArialMT-69"/>
      <use x="239.0625" xlink:href="#ArialMT-74"/>
      <use x="266.845703125" xlink:href="#ArialMT-69"/>
      <use x="289.0625" xlink:href="#ArialMT-6f"/>
      <use x="344.677734375" xlink:href="#ArialMT-6e"/>
     </g>
    </g>
   </g>
   <g id="matplotlib.axis_6">
    <g id="ytick_13">
     <g id="line2d_73"/>
     <g id="line2d_74"/>
    </g>
    <g id="ytick_14">
     <g id="line2d_75"/>
     <g id="line2d_76"/>
    </g>
    <g id="ytick_15">
     <g id="line2d_77"/>
     <g id="line2d_78"/>
    </g>
    <g id="ytick_16">
     <g id="line2d_79"/>
     <g id="line2d_80"/>
    </g>
    <g id="ytick_17">
     <g id="line2d_81"/>
     <g id="line2d_82"/>
    </g>
    <g id="ytick_18">
     <g id="line2d_83"/>
     <g id="line2d_84"/>
    </g>
    <g id="text_36">
     <!-- Cumulative distribution -->
     <g style="fill:#262626;" transform="translate(379.90375 146.1066875)rotate(-90.0)scale(0.088 -0.088)">
      <use xlink:href="#ArialMT-43"/>
      <use x="72.216796875" xlink:href="#ArialMT-75"/>
      <use x="127.83203125" xlink:href="#ArialMT-6d"/>
      <use x="211.1328125" xlink:href="#ArialMT-75"/>
      <use x="266.748046875" xlink:href="#ArialMT-6c"/>
      <use x="288.96484375" xlink:href="#ArialMT-61"/>
      <use x="344.580078125" xlink:href="#ArialMT-74"/>
      <use x="372.36328125" xlink:href="#ArialMT-69"/>
      <use x="394.580078125" xlink:href="#ArialMT-76"/>
      <use x="444.580078125" xlink:href="#ArialMT-65"/>
      <use x="500.1953125" xlink:href="#ArialMT-20"/>
      <use x="527.978515625" xlink:href="#ArialMT-64"/>
      <use x="583.59375" xlink:href="#ArialMT-69"/>
      <use x="605.810546875" xlink:href="#ArialMT-73"/>
      <use x="655.810546875" xlink:href="#ArialMT-74"/>
      <use x="683.59375" xlink:href="#ArialMT-72"/>
      <use x="716.89453125" xlink:href="#ArialMT-69"/>
      <use x="739.111328125" xlink:href="#ArialMT-62"/>
      <use x="794.7265625" xlink:href="#ArialMT-75"/>
      <use x="850.341796875" xlink:href="#ArialMT-74"/>
      <use x="878.125" xlink:href="#ArialMT-69"/>
      <use x="900.341796875" xlink:href="#ArialMT-6f"/>
      <use x="955.95703125" xlink:href="#ArialMT-6e"/>
     </g>
    </g>
   </g>
   <g id="line2d_85">
    <path clip-path="url(#pcc12a8b3f6)" d="M 384.094271 178.829335 
L 391.538493 157.025446 
L 398.982714 138.873638 
L 406.426936 122.222194 
L 413.871157 105.848865 
L 421.315379 95.12535 
L 428.7596 85.910626 
L 436.203822 71.468257 
L 443.648043 62.241639 
L 451.092265 57.002644 
L 458.536487 47.802783 
L 465.980708 44.029569 
L 473.42493 41.726092 
L 480.869151 38.630192 
L 488.313373 35.951633 
L 503.201816 33.454704 
L 518.090259 32.811601 
L 525.534481 32.166994 
L 540.422924 31.531684 
L 547.867145 30.0307 
L 555.311367 29.703283 
L 607.420918 29.689436 
L 614.865139 29.302809 
L 629.753582 28.127778 
L 637.197804 28.127645 
L 644.642025 27.222979 
L 652.086247 27.18775 
L 659.530469 26.874515 
L 704.195798 26.874515 
L 711.64002 26.349919 
L 721 26.247886 
L 721 26.247886 
" style="fill:none;stroke:#4c72b0;stroke-linecap:round;stroke-width:2.0;"/>
   </g>
   <g id="line2d_86">
    <path clip-path="url(#pcc12a8b3f6)" d="M 384.32686 178.830322 
L 387.363795 176.314516 
L 393.437664 151.27625 
L 396.474599 141.513792 
L 399.511534 133.015844 
L 402.548468 125.335316 
L 405.585403 116.352315 
L 408.622338 103.968137 
L 411.659272 97.665996 
L 414.696207 92.08081 
L 417.733142 88.712342 
L 420.770077 86.149442 
L 429.880881 75.97633 
L 432.917815 72.057207 
L 435.95475 69.164742 
L 438.991685 65.925014 
L 442.02862 62.30471 
L 445.065554 59.157008 
L 448.102489 57.052472 
L 451.139424 55.301162 
L 454.176359 52.237998 
L 457.213293 50.421766 
L 460.250228 49.68144 
L 463.287163 47.908382 
L 466.324097 46.549327 
L 469.361032 45.006904 
L 472.397967 44.507823 
L 475.434902 43.428881 
L 478.471836 42.222024 
L 481.508771 40.676413 
L 484.545706 38.0633 
L 487.58264 35.810363 
L 490.619575 35.357799 
L 493.65651 35.32735 
L 496.693445 34.487415 
L 499.730379 34.104671 
L 505.804249 32.875239 
L 511.878118 31.752826 
L 517.951988 31.615476 
L 520.988922 31.089531 
L 524.025857 31.083087 
L 527.062792 30.672806 
L 533.136661 30.244833 
L 536.173596 29.863247 
L 539.210531 29.862526 
L 545.2844 29.252332 
L 548.321335 29.251138 
L 551.35827 28.81518 
L 554.395204 28.641723 
L 560.469074 28.640629 
L 563.506008 28.205847 
L 566.542943 28.031194 
L 615.133899 28.004522 
L 618.170833 27.44396 
L 633.355507 27.420648 
L 651.577115 27.418652 
L 654.61405 26.717059 
L 657.650985 26.200061 
L 660.687919 26.151614 
L 663.724854 25.600878 
L 694.094201 25.589059 
L 721 25.589059 
L 721 25.589059 
" style="fill:none;stroke:#55a868;stroke-linecap:round;stroke-width:2.0;"/>
   </g>
   <g id="patch_13">
    <path d="M 386.65275 24.368 
L 532.020875 24.368 
" style="fill:none;stroke:#262626;stroke-linecap:square;stroke-linejoin:miter;stroke-width:1.25;"/>
   </g>
   <g id="patch_14">
    <path d="M 532.020875 178.832 
L 532.020875 24.368 
" style="fill:none;stroke:#262626;stroke-linecap:square;stroke-linejoin:miter;stroke-width:1.25;"/>
   </g>
   <g id="patch_15">
    <path d="M 386.65275 178.832 
L 532.020875 178.832 
" style="fill:none;stroke:#262626;stroke-linecap:square;stroke-linejoin:miter;stroke-width:1.25;"/>
   </g>
   <g id="patch_16">
    <path d="M 386.65275 178.832 
L 386.65275 24.368 
" style="fill:none;stroke:#262626;stroke-linecap:square;stroke-linejoin:miter;stroke-width:1.25;"/>
   </g>
   <g id="text_37">
    <!-- $p_{ranksum}$ &lt; 0.3 -->
    <defs>
     <path d="M 4.203125 18.890625 
L 12.984375 20.0625 
Q 14.5 12.59375 18.140625 9.296875 
Q 21.78125 6 27 6 
Q 33.203125 6 37.46875 10.296875 
Q 41.75 14.59375 41.75 20.953125 
Q 41.75 27 37.796875 30.921875 
Q 33.84375 34.859375 27.734375 34.859375 
Q 25.25 34.859375 21.53125 33.890625 
L 22.515625 41.609375 
Q 23.390625 41.5 23.921875 41.5 
Q 29.546875 41.5 34.03125 44.421875 
Q 38.53125 47.359375 38.53125 53.46875 
Q 38.53125 58.296875 35.25 61.46875 
Q 31.984375 64.65625 26.8125 64.65625 
Q 21.6875 64.65625 18.265625 61.421875 
Q 14.84375 58.203125 13.875 51.765625 
L 5.078125 53.328125 
Q 6.6875 62.15625 12.390625 67.015625 
Q 18.109375 71.875 26.609375 71.875 
Q 32.46875 71.875 37.390625 69.359375 
Q 42.328125 66.84375 44.9375 62.5 
Q 47.5625 58.15625 47.5625 53.265625 
Q 47.5625 48.640625 45.0625 44.828125 
Q 42.578125 41.015625 37.703125 38.765625 
Q 44.046875 37.3125 47.5625 32.6875 
Q 51.078125 28.078125 51.078125 21.140625 
Q 51.078125 11.765625 44.234375 5.25 
Q 37.40625 -1.265625 26.953125 -1.265625 
Q 17.53125 -1.265625 11.296875 4.34375 
Q 5.078125 9.96875 4.203125 18.890625 
" id="ArialMT-33"/>
    </defs>
    <g style="fill:#262626;" transform="translate(430.9688125 19.368)scale(0.096 -0.096)">
     <use transform="translate(0.0 0.125)" xlink:href="#Cmmi10-70"/>
     <use transform="translate(50.29296875 -16.88125)scale(0.7)" xlink:href="#Cmmi10-72"/>
     <use transform="translate(81.875 -16.88125)scale(0.7)" xlink:href="#Cmmi10-61"/>
     <use transform="translate(118.823242188 -16.88125)scale(0.7)" xlink:href="#Cmmi10-6e"/>
     <use transform="translate(160.830078125 -16.88125)scale(0.7)" xlink:href="#Cmmi10-6b"/>
     <use transform="translate(197.231445312 -16.88125)scale(0.7)" xlink:href="#Cmmi10-73"/>
     <use transform="translate(229.975585938 -16.88125)scale(0.7)" xlink:href="#Cmmi10-75"/>
     <use transform="translate(270.0 -16.88125)scale(0.7)" xlink:href="#Cmmi10-6d"/>
     <use transform="translate(337.832421875 0.125)" xlink:href="#ArialMT-20"/>
     <use transform="translate(365.615625 0.125)" xlink:href="#ArialMT-3c"/>
     <use transform="translate(424.0140625 0.125)" xlink:href="#ArialMT-20"/>
     <use transform="translate(451.797265625 0.125)" xlink:href="#ArialMT-30"/>
     <use transform="translate(507.4125 0.125)" xlink:href="#ArialMT-2e"/>
     <use transform="translate(535.195703125 0.125)" xlink:href="#ArialMT-33"/>
    </g>
   </g>
   <g id="legend_3">
    <g id="line2d_87">
     <path d="M 423.488375 155.64075 
L 439.488375 155.64075 
" style="fill:none;stroke:#4c72b0;stroke-linecap:round;stroke-width:2.0;"/>
    </g>
    <g id="line2d_88"/>
    <g id="text_38">
     <!-- not inhibited (N = 493) -->
     <g style="fill:#262626;" transform="translate(445.888375 158.44075)scale(0.08 -0.08)">
      <use xlink:href="#ArialMT-6e"/>
      <use x="55.615234375" xlink:href="#ArialMT-6f"/>
      <use x="111.23046875" xlink:href="#ArialMT-74"/>
      <use x="139.013671875" xlink:href="#ArialMT-20"/>
      <use x="166.796875" xlink:href="#ArialMT-69"/>
      <use x="189.013671875" xlink:href="#ArialMT-6e"/>
      <use x="244.62890625" xlink:href="#ArialMT-68"/>
      <use x="300.244140625" xlink:href="#ArialMT-69"/>
      <use x="322.4609375" xlink:href="#ArialMT-62"/>
      <use x="378.076171875" xlink:href="#ArialMT-69"/>
      <use x="400.29296875" xlink:href="#ArialMT-74"/>
      <use x="428.076171875" xlink:href="#ArialMT-65"/>
      <use x="483.69140625" xlink:href="#ArialMT-64"/>
      <use x="539.306640625" xlink:href="#ArialMT-20"/>
      <use x="567.08984375" xlink:href="#ArialMT-28"/>
      <use x="600.390625" xlink:href="#ArialMT-4e"/>
      <use x="672.607421875" xlink:href="#ArialMT-20"/>
      <use x="700.390625" xlink:href="#ArialMT-3d"/>
      <use x="758.7890625" xlink:href="#ArialMT-20"/>
      <use x="786.572265625" xlink:href="#ArialMT-34"/>
      <use x="842.1875" xlink:href="#ArialMT-39"/>
      <use x="897.802734375" xlink:href="#ArialMT-33"/>
      <use x="953.41796875" xlink:href="#ArialMT-29"/>
     </g>
    </g>
    <g id="line2d_89">
     <path d="M 423.488375 167.14825 
L 439.488375 167.14825 
" style="fill:none;stroke:#55a868;stroke-linecap:round;stroke-width:2.0;"/>
    </g>
    <g id="line2d_90"/>
    <g id="text_39">
     <!-- inhibited (N = 253) -->
     <g style="fill:#262626;" transform="translate(445.888375 169.94825)scale(0.08 -0.08)">
      <use xlink:href="#ArialMT-69"/>
      <use x="22.216796875" xlink:href="#ArialMT-6e"/>
      <use x="77.83203125" xlink:href="#ArialMT-68"/>
      <use x="133.447265625" xlink:href="#ArialMT-69"/>
      <use x="155.6640625" xlink:href="#ArialMT-62"/>
      <use x="211.279296875" xlink:href="#ArialMT-69"/>
      <use x="233.49609375" xlink:href="#ArialMT-74"/>
      <use x="261.279296875" xlink:href="#ArialMT-65"/>
      <use x="316.89453125" xlink:href="#ArialMT-64"/>
      <use x="372.509765625" xlink:href="#ArialMT-20"/>
      <use x="400.29296875" xlink:href="#ArialMT-28"/>
      <use x="433.59375" xlink:href="#ArialMT-4e"/>
      <use x="505.810546875" xlink:href="#ArialMT-20"/>
      <use x="533.59375" xlink:href="#ArialMT-3d"/>
      <use x="591.9921875" xlink:href="#ArialMT-20"/>
      <use x="619.775390625" xlink:href="#ArialMT-32"/>
      <use x="675.390625" xlink:href="#ArialMT-35"/>
      <use x="731.005859375" xlink:href="#ArialMT-33"/>
      <use x="786.62109375" xlink:href="#ArialMT-29"/>
     </g>
    </g>
   </g>
  </g>
  <g id="axes_4">
   <g id="patch_17">
    <path d="M 559.876375 178.832 
L 705.2445 178.832 
L 705.2445 24.368 
L 559.876375 24.368 
z
" style="fill:#ffffff;"/>
   </g>
   <g id="matplotlib.axis_7">
    <g id="xtick_19">
     <g id="line2d_91"/>
     <g id="line2d_92"/>
     <g id="text_40">
      <!-- 0 -->
      <g style="fill:#262626;" transform="translate(557.652 190.15825)scale(0.08 -0.08)">
       <use xlink:href="#ArialMT-30"/>
      </g>
     </g>
    </g>
    <g id="xtick_20">
     <g id="line2d_93"/>
     <g id="line2d_94"/>
     <g id="text_41">
      <!-- 5 -->
      <g style="fill:#262626;" transform="translate(586.725625 190.15825)scale(0.08 -0.08)">
       <use xlink:href="#ArialMT-35"/>
      </g>
     </g>
    </g>
    <g id="xtick_21">
     <g id="line2d_95"/>
     <g id="line2d_96"/>
     <g id="text_42">
      <!-- 10 -->
      <g style="fill:#262626;" transform="translate(613.574875 190.15825)scale(0.08 -0.08)">
       <use xlink:href="#ArialMT-31"/>
       <use x="55.615234375" xlink:href="#ArialMT-30"/>
      </g>
     </g>
    </g>
    <g id="xtick_22">
     <g id="line2d_97"/>
     <g id="line2d_98"/>
     <g id="text_43">
      <!-- 15 -->
      <g style="fill:#262626;" transform="translate(642.6485 190.15825)scale(0.08 -0.08)">
       <use xlink:href="#ArialMT-31"/>
       <use x="55.615234375" xlink:href="#ArialMT-35"/>
      </g>
     </g>
    </g>
    <g id="xtick_23">
     <g id="line2d_99"/>
     <g id="line2d_100"/>
     <g id="text_44">
      <!-- 20 -->
      <g style="fill:#262626;" transform="translate(671.722125 190.15825)scale(0.08 -0.08)">
       <use xlink:href="#ArialMT-32"/>
       <use x="55.615234375" xlink:href="#ArialMT-30"/>
      </g>
     </g>
    </g>
    <g id="xtick_24">
     <g id="line2d_101"/>
     <g id="line2d_102"/>
     <g id="text_45">
      <!-- 25 -->
      <g style="fill:#262626;" transform="translate(700.79575 190.15825)scale(0.08 -0.08)">
       <use xlink:href="#ArialMT-32"/>
       <use x="55.615234375" xlink:href="#ArialMT-35"/>
      </g>
     </g>
    </g>
    <g id="text_46">
     <!-- KI_Value -->
     <defs>
      <path d="M 28.171875 0 
L 0.4375 71.578125 
L 10.6875 71.578125 
L 29.296875 19.578125 
Q 31.546875 13.328125 33.0625 7.859375 
Q 34.71875 13.71875 36.921875 19.578125 
L 56.25 71.578125 
L 65.921875 71.578125 
L 37.890625 0 
z
" id="ArialMT-56"/>
      <path d="M 7.328125 0 
L 7.328125 71.578125 
L 16.796875 71.578125 
L 16.796875 36.078125 
L 52.34375 71.578125 
L 65.1875 71.578125 
L 35.15625 42.578125 
L 66.5 0 
L 54 0 
L 28.515625 36.234375 
L 16.796875 24.8125 
L 16.796875 0 
z
" id="ArialMT-4b"/>
      <path d="M -1.515625 -19.875 
L -1.515625 -13.53125 
L 56.734375 -13.53125 
L 56.734375 -19.875 
z
" id="ArialMT-5f"/>
     </defs>
     <g style="fill:#262626;" transform="translate(614.708125 203.047125)scale(0.088 -0.088)">
      <use xlink:href="#ArialMT-4b"/>
      <use x="66.69921875" xlink:href="#ArialMT-49"/>
      <use x="94.482421875" xlink:href="#ArialMT-5f"/>
      <use x="150.09765625" xlink:href="#ArialMT-56"/>
      <use x="216.6875" xlink:href="#ArialMT-61"/>
      <use x="272.302734375" xlink:href="#ArialMT-6c"/>
      <use x="294.51953125" xlink:href="#ArialMT-75"/>
      <use x="350.134765625" xlink:href="#ArialMT-65"/>
     </g>
    </g>
   </g>
   <g id="matplotlib.axis_8">
    <g id="ytick_19">
     <g id="line2d_103"/>
     <g id="line2d_104"/>
    </g>
    <g id="ytick_20">
     <g id="line2d_105"/>
     <g id="line2d_106"/>
    </g>
    <g id="ytick_21">
     <g id="line2d_107"/>
     <g id="line2d_108"/>
    </g>
    <g id="ytick_22">
     <g id="line2d_109"/>
     <g id="line2d_110"/>
    </g>
    <g id="ytick_23">
     <g id="line2d_111"/>
     <g id="line2d_112"/>
    </g>
    <g id="ytick_24">
     <g id="line2d_113"/>
     <g id="line2d_114"/>
    </g>
    <g id="text_47">
     <!-- Cumulative distribution -->
     <g style="fill:#262626;" transform="translate(553.127375 146.1066875)rotate(-90.0)scale(0.088 -0.088)">
      <use xlink:href="#ArialMT-43"/>
      <use x="72.216796875" xlink:href="#ArialMT-75"/>
      <use x="127.83203125" xlink:href="#ArialMT-6d"/>
      <use x="211.1328125" xlink:href="#ArialMT-75"/>
      <use x="266.748046875" xlink:href="#ArialMT-6c"/>
      <use x="288.96484375" xlink:href="#ArialMT-61"/>
      <use x="344.580078125" xlink:href="#ArialMT-74"/>
      <use x="372.36328125" xlink:href="#ArialMT-69"/>
      <use x="394.580078125" xlink:href="#ArialMT-76"/>
      <use x="444.580078125" xlink:href="#ArialMT-65"/>
      <use x="500.1953125" xlink:href="#ArialMT-20"/>
      <use x="527.978515625" xlink:href="#ArialMT-64"/>
      <use x="583.59375" xlink:href="#ArialMT-69"/>
      <use x="605.810546875" xlink:href="#ArialMT-73"/>
      <use x="655.810546875" xlink:href="#ArialMT-74"/>
      <use x="683.59375" xlink:href="#ArialMT-72"/>
      <use x="716.89453125" xlink:href="#ArialMT-69"/>
      <use x="739.111328125" xlink:href="#ArialMT-62"/>
      <use x="794.7265625" xlink:href="#ArialMT-75"/>
      <use x="850.341796875" xlink:href="#ArialMT-74"/>
      <use x="878.125" xlink:href="#ArialMT-69"/>
      <use x="900.341796875" xlink:href="#ArialMT-6f"/>
      <use x="955.95703125" xlink:href="#ArialMT-6e"/>
     </g>
    </g>
   </g>
   <g id="line2d_115">
    <path clip-path="url(#pa94394ab2e)" d="M 557.317896 178.829818 
L 564.762118 156.885373 
L 572.206339 137.797586 
L 579.650561 119.567304 
L 587.094782 102.526737 
L 594.539004 92.566145 
L 601.983225 83.728091 
L 609.427447 71.153727 
L 616.871668 62.592147 
L 624.31589 56.969119 
L 631.760112 48.988399 
L 639.204333 45.232469 
L 646.648555 42.892126 
L 654.092776 39.556246 
L 661.536998 35.606342 
L 668.981219 34.437603 
L 676.425441 33.425064 
L 683.869662 32.809971 
L 691.313884 32.570173 
L 713.646549 31.176191 
L 721 29.876649 
L 721 29.876649 
" style="fill:none;stroke:#4c72b0;stroke-linecap:round;stroke-width:2.0;"/>
   </g>
   <g id="line2d_116">
    <path clip-path="url(#pa94394ab2e)" d="M 559.411197 178.828783 
L 560.824129 178.596251 
L 562.237062 176.235953 
L 563.649994 170.156408 
L 565.062927 163.065153 
L 566.475859 158.43348 
L 567.888791 149.6747 
L 569.301724 141.716705 
L 570.714656 137.913694 
L 572.127589 134.92404 
L 573.540521 132.284993 
L 574.953453 130.050833 
L 577.779318 119.474762 
L 579.19225 116.361379 
L 580.605183 108.627123 
L 582.018115 99.494372 
L 583.431048 96.159372 
L 584.84398 95.14694 
L 587.669845 92.140128 
L 589.082777 91.317691 
L 590.49571 89.994684 
L 591.908642 88.344741 
L 594.734507 85.848529 
L 596.147439 83.823912 
L 598.973304 80.862684 
L 600.386236 78.93495 
L 601.799169 76.397081 
L 603.212101 73.378694 
L 604.625033 70.944122 
L 606.037966 69.37233 
L 607.450898 68.420196 
L 608.863831 66.160678 
L 610.276763 63.343053 
L 611.689695 61.595342 
L 613.102628 58.425088 
L 614.51556 55.96929 
L 615.928493 54.483054 
L 617.341425 53.55939 
L 620.16729 53.448459 
L 621.580222 52.943723 
L 622.993155 51.644232 
L 624.406087 51.17532 
L 625.819019 50.182266 
L 627.231952 47.843996 
L 628.644884 45.861215 
L 630.057816 44.676509 
L 631.470749 44.517765 
L 634.296614 44.505327 
L 635.709546 44.154594 
L 637.122478 42.868267 
L 638.535411 42.289623 
L 639.948343 41.842542 
L 641.361276 40.540914 
L 642.774208 40.057802 
L 649.83887 39.977332 
L 651.251802 39.185826 
L 652.664735 38.010075 
L 654.077667 37.803368 
L 668.206991 37.755984 
L 669.619923 37.064298 
L 671.032856 35.829142 
L 672.445788 35.536046 
L 673.858721 34.935307 
L 675.271653 33.658611 
L 676.684585 33.331295 
L 682.336315 33.252767 
L 683.749247 32.419435 
L 685.16218 31.273022 
L 686.575112 31.086895 
L 689.400977 31.082089 
L 690.813909 30.946851 
L 693.639774 28.946036 
L 696.465639 28.845218 
L 721 28.840215 
L 721 28.840215 
" style="fill:none;stroke:#55a868;stroke-linecap:round;stroke-width:2.0;"/>
   </g>
   <g id="patch_18">
    <path d="M 559.876375 24.368 
L 705.2445 24.368 
" style="fill:none;stroke:#262626;stroke-linecap:square;stroke-linejoin:miter;stroke-width:1.25;"/>
   </g>
   <g id="patch_19">
    <path d="M 705.2445 178.832 
L 705.2445 24.368 
" style="fill:none;stroke:#262626;stroke-linecap:square;stroke-linejoin:miter;stroke-width:1.25;"/>
   </g>
   <g id="patch_20">
    <path d="M 559.876375 178.832 
L 705.2445 178.832 
" style="fill:none;stroke:#262626;stroke-linecap:square;stroke-linejoin:miter;stroke-width:1.25;"/>
   </g>
   <g id="patch_21">
    <path d="M 559.876375 178.832 
L 559.876375 24.368 
" style="fill:none;stroke:#262626;stroke-linecap:square;stroke-linejoin:miter;stroke-width:1.25;"/>
   </g>
   <g id="text_48">
    <!-- $p_{ranksum}$ &lt; 0.6 -->
    <g style="fill:#262626;" transform="translate(604.1924375 19.368)scale(0.096 -0.096)">
     <use transform="translate(0.0 0.125)" xlink:href="#Cmmi10-70"/>
     <use transform="translate(50.29296875 -16.88125)scale(0.7)" xlink:href="#Cmmi10-72"/>
     <use transform="translate(81.875 -16.88125)scale(0.7)" xlink:href="#Cmmi10-61"/>
     <use transform="translate(118.823242188 -16.88125)scale(0.7)" xlink:href="#Cmmi10-6e"/>
     <use transform="translate(160.830078125 -16.88125)scale(0.7)" xlink:href="#Cmmi10-6b"/>
     <use transform="translate(197.231445312 -16.88125)scale(0.7)" xlink:href="#Cmmi10-73"/>
     <use transform="translate(229.975585938 -16.88125)scale(0.7)" xlink:href="#Cmmi10-75"/>
     <use transform="translate(270.0 -16.88125)scale(0.7)" xlink:href="#Cmmi10-6d"/>
     <use transform="translate(337.832421875 0.125)" xlink:href="#ArialMT-20"/>
     <use transform="translate(365.615625 0.125)" xlink:href="#ArialMT-3c"/>
     <use transform="translate(424.0140625 0.125)" xlink:href="#ArialMT-20"/>
     <use transform="translate(451.797265625 0.125)" xlink:href="#ArialMT-30"/>
     <use transform="translate(507.4125 0.125)" xlink:href="#ArialMT-2e"/>
     <use transform="translate(535.195703125 0.125)" xlink:href="#ArialMT-36"/>
    </g>
   </g>
   <g id="legend_4">
    <g id="line2d_117">
     <path d="M 618.9245 155.472 
L 634.9245 155.472 
" style="fill:none;stroke:#4c72b0;stroke-linecap:round;stroke-width:2.0;"/>
    </g>
    <g id="line2d_118"/>
    <g id="text_49">
     <!-- no $K_I$ (N = 677) -->
     <defs>
      <path d="M 4.6875 0 
Q 3.71875 0 3.71875 1.3125 
Q 3.765625 1.5625 3.90625 2.171875 
Q 4.046875 2.78125 4.3125 3.140625 
Q 4.59375 3.515625 4.984375 3.515625 
Q 11.078125 3.515625 13.484375 4.203125 
Q 14.796875 4.640625 15.375 6.890625 
L 29.109375 61.8125 
Q 29.296875 62.796875 29.296875 63.1875 
Q 29.296875 64.265625 28.078125 64.40625 
Q 26.21875 64.796875 20.90625 64.796875 
Q 19.921875 64.796875 19.921875 66.109375 
Q 20.265625 67.390625 20.453125 67.84375 
Q 20.65625 68.3125 21.578125 68.3125 
L 48.484375 68.3125 
Q 49.515625 68.3125 49.515625 67 
Q 49.46875 66.75 49.3125 66.15625 
Q 49.171875 65.578125 48.921875 65.1875 
Q 48.6875 64.796875 48.1875 64.796875 
Q 42.09375 64.796875 39.703125 64.109375 
Q 38.375 63.625 37.796875 61.375 
L 29.6875 29 
L 68.890625 59.28125 
Q 69 59.46875 70.140625 60.609375 
Q 71.296875 61.765625 71.296875 62.890625 
Q 71.296875 64.796875 67.921875 64.796875 
Q 66.890625 64.796875 66.890625 66.109375 
Q 67.09375 66.890625 67.203125 67.328125 
Q 67.328125 67.78125 67.640625 68.046875 
Q 67.96875 68.3125 68.609375 68.3125 
L 87.984375 68.3125 
Q 88.53125 68.3125 88.765625 67.921875 
Q 89.015625 67.53125 89.015625 67 
Q 88.96875 66.75 88.796875 66.109375 
Q 88.625 65.484375 88.359375 65.140625 
Q 88.09375 64.796875 87.59375 64.796875 
Q 80.28125 64.796875 71.578125 58.015625 
Q 71.53125 57.953125 71.4375 57.921875 
Q 71.34375 57.90625 71.234375 57.875 
Q 71.140625 57.859375 71.09375 57.8125 
L 50.484375 41.796875 
L 65.484375 6.6875 
Q 66.84375 4.5 68.40625 4 
Q 69.96875 3.515625 73.1875 3.515625 
Q 74.21875 3.515625 74.21875 2.203125 
Q 73.921875 1.03125 73.625 0.515625 
Q 73.34375 0 72.515625 0 
L 49.3125 0 
Q 48.390625 0 48.390625 1.3125 
Q 48.53125 2.34375 48.71875 2.921875 
Q 48.921875 3.515625 49.703125 3.515625 
Q 52.25 3.515625 54.03125 4.03125 
Q 55.8125 4.546875 55.8125 6.390625 
Q 55.8125 7.078125 55.71875 7.421875 
L 43.3125 36.28125 
L 28.71875 25 
L 24.125 6.5 
Q 23.875 5.28125 23.875 5.078125 
Q 23.875 4.046875 25.09375 3.90625 
Q 27 3.515625 32.328125 3.515625 
Q 33.296875 3.515625 33.296875 2.203125 
Q 32.953125 0.78125 32.75 0.390625 
Q 32.5625 0 31.59375 0 
z
" id="Cmmi10-4b"/>
      <path d="M 4.203125 0 
Q 3.21875 0 3.21875 1.3125 
Q 3.609375 3.515625 4.5 3.515625 
Q 10.40625 3.515625 12.5 3.90625 
Q 14.796875 4.4375 15.375 6.890625 
L 29.109375 61.8125 
Q 29.296875 62.796875 29.296875 63.09375 
Q 29.296875 63.71875 28.96875 63.984375 
Q 28.65625 64.265625 27.984375 64.40625 
Q 25.984375 64.796875 20.40625 64.796875 
Q 19.390625 64.796875 19.390625 66.109375 
Q 19.734375 67.390625 19.921875 67.84375 
Q 20.125 68.3125 21.09375 68.3125 
L 49.03125 68.3125 
Q 50 68.3125 50 67 
Q 49.953125 66.75 49.796875 66.15625 
Q 49.65625 65.578125 49.40625 65.1875 
Q 49.171875 64.796875 48.6875 64.796875 
Q 42.828125 64.796875 40.578125 64.40625 
Q 38.375 63.875 37.796875 61.375 
L 24.125 6.5 
Q 23.875 5.28125 23.875 5.171875 
Q 23.875 4.9375 23.953125 4.71875 
Q 24.03125 4.5 24.25 4.328125 
Q 24.46875 4.15625 24.6875 4.078125 
Q 24.90625 4 25.203125 3.90625 
Q 27.09375 3.515625 32.8125 3.515625 
Q 33.796875 3.515625 33.796875 2.203125 
Q 33.453125 0.78125 33.25 0.390625 
Q 33.0625 0 32.078125 0 
z
" id="Cmmi10-49"/>
      <path d="M 4.734375 62.203125 
L 4.734375 70.65625 
L 51.078125 70.65625 
L 51.078125 63.8125 
Q 44.234375 56.546875 37.515625 44.484375 
Q 30.8125 32.421875 27.15625 19.671875 
Q 24.515625 10.6875 23.78125 0 
L 14.75 0 
Q 14.890625 8.453125 18.0625 20.40625 
Q 21.234375 32.375 27.171875 43.484375 
Q 33.109375 54.59375 39.796875 62.203125 
z
" id="ArialMT-37"/>
     </defs>
     <g style="fill:#262626;" transform="translate(641.3245 158.272)scale(0.08 -0.08)">
      <use transform="translate(0.0 0.203125)" xlink:href="#ArialMT-6e"/>
      <use transform="translate(55.615234375 0.203125)" xlink:href="#ArialMT-6f"/>
      <use transform="translate(111.23046875 0.203125)" xlink:href="#ArialMT-20"/>
      <use transform="translate(139.013671875 0.203125)" xlink:href="#Cmmi10-4b"/>
      <use transform="translate(223.92578125 -16.803125)scale(0.7)" xlink:href="#Cmmi10-49"/>
      <use transform="translate(261.030664063 0.203125)" xlink:href="#ArialMT-20"/>
      <use transform="translate(288.813867188 0.203125)" xlink:href="#ArialMT-28"/>
      <use transform="translate(322.114648438 0.203125)" xlink:href="#ArialMT-4e"/>
      <use transform="translate(394.331445313 0.203125)" xlink:href="#ArialMT-20"/>
      <use transform="translate(422.114648438 0.203125)" xlink:href="#ArialMT-3d"/>
      <use transform="translate(480.513085938 0.203125)" xlink:href="#ArialMT-20"/>
      <use transform="translate(508.296289063 0.203125)" xlink:href="#ArialMT-36"/>
      <use transform="translate(563.911523438 0.203125)" xlink:href="#ArialMT-37"/>
      <use transform="translate(619.526757813 0.203125)" xlink:href="#ArialMT-37"/>
      <use transform="translate(675.141992188 0.203125)" xlink:href="#ArialMT-29"/>
     </g>
    </g>
    <g id="line2d_119">
     <path d="M 618.9245 167.072 
L 634.9245 167.072 
" style="fill:none;stroke:#55a868;stroke-linecap:round;stroke-width:2.0;"/>
    </g>
    <g id="line2d_120"/>
    <g id="text_50">
     <!-- has $K_I$ (N = 69) -->
     <g style="fill:#262626;" transform="translate(641.3245 169.872)scale(0.08 -0.08)">
      <use transform="translate(0.0 0.203125)" xlink:href="#ArialMT-68"/>
      <use transform="translate(55.615234375 0.203125)" xlink:href="#ArialMT-61"/>
      <use transform="translate(111.23046875 0.203125)" xlink:href="#ArialMT-73"/>
      <use transform="translate(161.23046875 0.203125)" xlink:href="#ArialMT-20"/>
      <use transform="translate(189.013671875 0.203125)" xlink:href="#Cmmi10-4b"/>
      <use transform="translate(273.92578125 -16.803125)scale(0.7)" xlink:href="#Cmmi10-49"/>
      <use transform="translate(311.030664063 0.203125)" xlink:href="#ArialMT-20"/>
      <use transform="translate(338.813867188 0.203125)" xlink:href="#ArialMT-28"/>
      <use transform="translate(372.114648438 0.203125)" xlink:href="#ArialMT-4e"/>
      <use transform="translate(444.331445313 0.203125)" xlink:href="#ArialMT-20"/>
      <use transform="translate(472.114648438 0.203125)" xlink:href="#ArialMT-3d"/>
      <use transform="translate(530.513085938 0.203125)" xlink:href="#ArialMT-20"/>
      <use transform="translate(558.296289063 0.203125)" xlink:href="#ArialMT-36"/>
      <use transform="translate(613.911523438 0.203125)" xlink:href="#ArialMT-39"/>
      <use transform="translate(669.526757813 0.203125)" xlink:href="#ArialMT-29"/>
     </g>
    </g>
   </g>
  </g>
 </g>
 <defs>
  <clipPath id="pa94394ab2e">
   <rect height="154.464" width="145.368125" x="559.876375" y="24.368"/>
  </clipPath>
  <clipPath id="pcc12a8b3f6">
   <rect height="154.464" width="145.368125" x="386.65275" y="24.368"/>
  </clipPath>
  <clipPath id="pe49baa29aa">
   <rect height="154.464" width="145.368125" x="40.2055" y="24.368"/>
  </clipPath>
  <clipPath id="p56a56b8a13">
   <rect height="154.464" width="145.368125" x="213.429125" y="24.368"/>
  </clipPath>
 </defs>
</svg>
