<?xml version="1.0" encoding="utf-8" standalone="no"?>
<!DOCTYPE svg PUBLIC "-//W3C//DTD SVG 1.1//EN"
  "http://www.w3.org/Graphics/SVG/1.1/DTD/svg11.dtd">
<!-- Created with matplotlib (http://matplotlib.org/) -->
<svg height="576pt" version="1.1" viewBox="0 0 576 576" width="576pt" xmlns="http://www.w3.org/2000/svg" xmlns:xlink="http://www.w3.org/1999/xlink">
 <defs>
  <style type="text/css">
*{stroke-linecap:butt;stroke-linejoin:round;stroke-miterlimit:100000;}
  </style>
 </defs>
 <g id="figure_1">
  <g id="patch_1">
   <path d="M 0 576 
L 576 576 
L 576 0 
L 0 0 
z
" style="fill:#ffffff;"/>
  </g>
  <g id="axes_1">
   <g id="patch_2">
    <path d="M 72 518.4 
L 518.4 518.4 
L 518.4 57.6 
L 72 57.6 
z
" style="fill:#ffffff;"/>
   </g>
   <g id="matplotlib.axis_1">
    <g id="xtick_1">
     <g id="line2d_1"/>
     <g id="line2d_2"/>
     <g id="text_1">
      <!-- $\mathdefault{10^{-2}}$ -->
      <defs>
       <path d="M 4.15625 35.296875 
Q 4.15625 48 6.765625 55.734375 
Q 9.375 63.484375 14.515625 67.671875 
Q 19.671875 71.875 27.484375 71.875 
Q 33.25 71.875 37.59375 69.546875 
Q 41.9375 67.234375 44.765625 62.859375 
Q 47.609375 58.5 49.21875 52.21875 
Q 50.828125 45.953125 50.828125 35.296875 
Q 50.828125 22.703125 48.234375 14.96875 
Q 45.65625 7.234375 40.5 3 
Q 35.359375 -1.21875 27.484375 -1.21875 
Q 17.140625 -1.21875 11.234375 6.203125 
Q 4.15625 15.140625 4.15625 35.296875 
M 13.1875 35.296875 
Q 13.1875 17.671875 17.3125 11.828125 
Q 21.4375 6 27.484375 6 
Q 33.546875 6 37.671875 11.859375 
Q 41.796875 17.71875 41.796875 35.296875 
Q 41.796875 52.984375 37.671875 58.78125 
Q 33.546875 64.59375 27.390625 64.59375 
Q 21.34375 64.59375 17.71875 59.46875 
Q 13.1875 52.9375 13.1875 35.296875 
" id="ArialMT-30"/>
       <path d="M 37.25 0 
L 28.46875 0 
L 28.46875 56 
Q 25.296875 52.984375 20.140625 49.953125 
Q 14.984375 46.921875 10.890625 45.40625 
L 10.890625 53.90625 
Q 18.265625 57.375 23.78125 62.296875 
Q 29.296875 67.234375 31.59375 71.875 
L 37.25 71.875 
z
" id="ArialMT-31"/>
       <path d="M 50.34375 8.453125 
L 50.34375 0 
L 3.03125 0 
Q 2.9375 3.171875 4.046875 6.109375 
Q 5.859375 10.9375 9.828125 15.625 
Q 13.8125 20.3125 21.34375 26.46875 
Q 33.015625 36.03125 37.109375 41.625 
Q 41.21875 47.21875 41.21875 52.203125 
Q 41.21875 57.421875 37.46875 61 
Q 33.734375 64.59375 27.734375 64.59375 
Q 21.390625 64.59375 17.578125 60.78125 
Q 13.765625 56.984375 13.71875 50.25 
L 4.6875 51.171875 
Q 5.609375 61.28125 11.65625 66.578125 
Q 17.71875 71.875 27.9375 71.875 
Q 38.234375 71.875 44.234375 66.15625 
Q 50.25 60.453125 50.25 52 
Q 50.25 47.703125 48.484375 43.546875 
Q 46.734375 39.40625 42.65625 34.8125 
Q 38.578125 30.21875 29.109375 22.21875 
Q 21.1875 15.578125 18.9375 13.203125 
Q 16.703125 10.84375 15.234375 8.453125 
z
" id="ArialMT-32"/>
       <path d="M 3.171875 21.484375 
L 3.171875 30.328125 
L 30.171875 30.328125 
L 30.171875 21.484375 
z
" id="ArialMT-2d"/>
      </defs>
      <g style="fill:#262626;" transform="translate(102.158186423 530.25)scale(0.08 -0.08)">
       <use transform="translate(0.0 0.884375)" xlink:href="#ArialMT-31"/>
       <use transform="translate(55.615234375 0.884375)" xlink:href="#ArialMT-30"/>
       <use transform="translate(116.4575 45.6875)scale(0.7)" xlink:href="#ArialMT-2d"/>
       <use transform="translate(139.768046875 45.6875)scale(0.7)" xlink:href="#ArialMT-32"/>
      </g>
     </g>
    </g>
    <g id="xtick_2">
     <g id="line2d_3"/>
     <g id="line2d_4"/>
     <g id="text_2">
      <!-- $\mathdefault{10^{-1}}$ -->
      <g style="fill:#262626;" transform="translate(192.031806027 530.25)scale(0.08 -0.08)">
       <use transform="translate(0.0 0.884375)" xlink:href="#ArialMT-31"/>
       <use transform="translate(55.615234375 0.884375)" xlink:href="#ArialMT-30"/>
       <use transform="translate(116.4575 45.6875)scale(0.7)" xlink:href="#ArialMT-2d"/>
       <use transform="translate(139.768046875 45.6875)scale(0.7)" xlink:href="#ArialMT-31"/>
      </g>
     </g>
    </g>
    <g id="xtick_3">
     <g id="line2d_5"/>
     <g id="line2d_6"/>
     <g id="text_3">
      <!-- $\mathdefault{10^{0}}$ -->
      <g style="fill:#262626;" transform="translate(282.865425631 530.25)scale(0.08 -0.08)">
       <use transform="translate(0.0 0.884375)" xlink:href="#ArialMT-31"/>
       <use transform="translate(55.615234375 0.884375)" xlink:href="#ArialMT-30"/>
       <use transform="translate(116.4575 45.6875)scale(0.7)" xlink:href="#ArialMT-30"/>
      </g>
     </g>
    </g>
    <g id="xtick_4">
     <g id="line2d_7"/>
     <g id="line2d_8"/>
     <g id="text_4">
      <!-- $\mathdefault{10^{1}}$ -->
      <g style="fill:#262626;" transform="translate(372.739045235 530.25)scale(0.08 -0.08)">
       <use transform="translate(0.0 0.884375)" xlink:href="#ArialMT-31"/>
       <use transform="translate(55.615234375 0.884375)" xlink:href="#ArialMT-30"/>
       <use transform="translate(116.4575 45.6875)scale(0.7)" xlink:href="#ArialMT-31"/>
      </g>
     </g>
    </g>
    <g id="xtick_5">
     <g id="line2d_9"/>
     <g id="line2d_10"/>
     <g id="text_5">
      <!-- $\mathdefault{10^{2}}$ -->
      <g style="fill:#262626;" transform="translate(462.612664839 530.25)scale(0.08 -0.08)">
       <use transform="translate(0.0 0.884375)" xlink:href="#ArialMT-31"/>
       <use transform="translate(55.615234375 0.884375)" xlink:href="#ArialMT-30"/>
       <use transform="translate(116.4575 45.6875)scale(0.7)" xlink:href="#ArialMT-32"/>
      </g>
     </g>
    </g>
    <g id="xtick_6">
     <g id="line2d_11"/>
     <g id="line2d_12"/>
    </g>
    <g id="xtick_7">
     <g id="line2d_13"/>
     <g id="line2d_14"/>
    </g>
    <g id="xtick_8">
     <g id="line2d_15"/>
     <g id="line2d_16"/>
    </g>
    <g id="xtick_9">
     <g id="line2d_17"/>
     <g id="line2d_18"/>
    </g>
    <g id="xtick_10">
     <g id="line2d_19"/>
     <g id="line2d_20"/>
    </g>
    <g id="xtick_11">
     <g id="line2d_21"/>
     <g id="line2d_22"/>
    </g>
    <g id="xtick_12">
     <g id="line2d_23"/>
     <g id="line2d_24"/>
    </g>
    <g id="xtick_13">
     <g id="line2d_25"/>
     <g id="line2d_26"/>
    </g>
    <g id="xtick_14">
     <g id="line2d_27"/>
     <g id="line2d_28"/>
    </g>
    <g id="xtick_15">
     <g id="line2d_29"/>
     <g id="line2d_30"/>
    </g>
    <g id="xtick_16">
     <g id="line2d_31"/>
     <g id="line2d_32"/>
    </g>
    <g id="xtick_17">
     <g id="line2d_33"/>
     <g id="line2d_34"/>
    </g>
    <g id="xtick_18">
     <g id="line2d_35"/>
     <g id="line2d_36"/>
    </g>
    <g id="xtick_19">
     <g id="line2d_37"/>
     <g id="line2d_38"/>
    </g>
    <g id="xtick_20">
     <g id="line2d_39"/>
     <g id="line2d_40"/>
    </g>
    <g id="xtick_21">
     <g id="line2d_41"/>
     <g id="line2d_42"/>
    </g>
    <g id="xtick_22">
     <g id="line2d_43"/>
     <g id="line2d_44"/>
    </g>
    <g id="xtick_23">
     <g id="line2d_45"/>
     <g id="line2d_46"/>
    </g>
    <g id="xtick_24">
     <g id="line2d_47"/>
     <g id="line2d_48"/>
    </g>
    <g id="xtick_25">
     <g id="line2d_49"/>
     <g id="line2d_50"/>
    </g>
    <g id="xtick_26">
     <g id="line2d_51"/>
     <g id="line2d_52"/>
    </g>
    <g id="xtick_27">
     <g id="line2d_53"/>
     <g id="line2d_54"/>
    </g>
    <g id="xtick_28">
     <g id="line2d_55"/>
     <g id="line2d_56"/>
    </g>
    <g id="xtick_29">
     <g id="line2d_57"/>
     <g id="line2d_58"/>
    </g>
    <g id="xtick_30">
     <g id="line2d_59"/>
     <g id="line2d_60"/>
    </g>
    <g id="xtick_31">
     <g id="line2d_61"/>
     <g id="line2d_62"/>
    </g>
    <g id="xtick_32">
     <g id="line2d_63"/>
     <g id="line2d_64"/>
    </g>
    <g id="xtick_33">
     <g id="line2d_65"/>
     <g id="line2d_66"/>
    </g>
    <g id="xtick_34">
     <g id="line2d_67"/>
     <g id="line2d_68"/>
    </g>
    <g id="xtick_35">
     <g id="line2d_69"/>
     <g id="line2d_70"/>
    </g>
    <g id="xtick_36">
     <g id="line2d_71"/>
     <g id="line2d_72"/>
    </g>
    <g id="xtick_37">
     <g id="line2d_73"/>
     <g id="line2d_74"/>
    </g>
    <g id="xtick_38">
     <g id="line2d_75"/>
     <g id="line2d_76"/>
    </g>
    <g id="xtick_39">
     <g id="line2d_77"/>
     <g id="line2d_78"/>
    </g>
    <g id="xtick_40">
     <g id="line2d_79"/>
     <g id="line2d_80"/>
    </g>
    <g id="xtick_41">
     <g id="line2d_81"/>
     <g id="line2d_82"/>
    </g>
    <g id="xtick_42">
     <g id="line2d_83"/>
     <g id="line2d_84"/>
    </g>
    <g id="xtick_43">
     <g id="line2d_85"/>
     <g id="line2d_86"/>
    </g>
    <g id="xtick_44">
     <g id="line2d_87"/>
     <g id="line2d_88"/>
    </g>
    <g id="xtick_45">
     <g id="line2d_89"/>
     <g id="line2d_90"/>
    </g>
    <g id="text_6">
     <!-- Mean KI -->
     <defs>
      <path d="M 9.328125 0 
L 9.328125 71.578125 
L 18.796875 71.578125 
L 18.796875 0 
z
" id="ArialMT-49"/>
      <path d="M 40.4375 6.390625 
Q 35.546875 2.25 31.03125 0.53125 
Q 26.515625 -1.171875 21.34375 -1.171875 
Q 12.796875 -1.171875 8.203125 3 
Q 3.609375 7.171875 3.609375 13.671875 
Q 3.609375 17.484375 5.34375 20.625 
Q 7.078125 23.78125 9.890625 25.6875 
Q 12.703125 27.59375 16.21875 28.5625 
Q 18.796875 29.25 24.03125 29.890625 
Q 34.671875 31.15625 39.703125 32.90625 
Q 39.75 34.71875 39.75 35.203125 
Q 39.75 40.578125 37.25 42.78125 
Q 33.890625 45.75 27.25 45.75 
Q 21.046875 45.75 18.09375 43.578125 
Q 15.140625 41.40625 13.71875 35.890625 
L 5.125 37.0625 
Q 6.296875 42.578125 8.984375 45.96875 
Q 11.671875 49.359375 16.75 51.1875 
Q 21.828125 53.03125 28.515625 53.03125 
Q 35.15625 53.03125 39.296875 51.46875 
Q 43.453125 49.90625 45.40625 47.53125 
Q 47.359375 45.171875 48.140625 41.546875 
Q 48.578125 39.3125 48.578125 33.453125 
L 48.578125 21.734375 
Q 48.578125 9.46875 49.140625 6.21875 
Q 49.703125 2.984375 51.375 0 
L 42.1875 0 
Q 40.828125 2.734375 40.4375 6.390625 
M 39.703125 26.03125 
Q 34.90625 24.078125 25.34375 22.703125 
Q 19.921875 21.921875 17.671875 20.9375 
Q 15.4375 19.96875 14.203125 18.09375 
Q 12.984375 16.21875 12.984375 13.921875 
Q 12.984375 10.40625 15.640625 8.0625 
Q 18.3125 5.71875 23.4375 5.71875 
Q 28.515625 5.71875 32.46875 7.9375 
Q 36.421875 10.15625 38.28125 14.015625 
Q 39.703125 17 39.703125 22.796875 
z
" id="ArialMT-61"/>
      <path d="M 42.09375 16.703125 
L 51.171875 15.578125 
Q 49.03125 7.625 43.21875 3.21875 
Q 37.40625 -1.171875 28.375 -1.171875 
Q 17 -1.171875 10.328125 5.828125 
Q 3.65625 12.84375 3.65625 25.484375 
Q 3.65625 38.578125 10.390625 45.796875 
Q 17.140625 53.03125 27.875 53.03125 
Q 38.28125 53.03125 44.875 45.953125 
Q 51.46875 38.875 51.46875 26.03125 
Q 51.46875 25.25 51.421875 23.6875 
L 12.75 23.6875 
Q 13.234375 15.140625 17.578125 10.59375 
Q 21.921875 6.0625 28.421875 6.0625 
Q 33.25 6.0625 36.671875 8.59375 
Q 40.09375 11.140625 42.09375 16.703125 
M 13.234375 30.90625 
L 42.1875 30.90625 
Q 41.609375 37.453125 38.875 40.71875 
Q 34.671875 45.796875 27.984375 45.796875 
Q 21.921875 45.796875 17.796875 41.75 
Q 13.671875 37.703125 13.234375 30.90625 
" id="ArialMT-65"/>
      <path d="M 6.59375 0 
L 6.59375 51.859375 
L 14.5 51.859375 
L 14.5 44.484375 
Q 20.21875 53.03125 31 53.03125 
Q 35.6875 53.03125 39.625 51.34375 
Q 43.5625 49.65625 45.515625 46.921875 
Q 47.46875 44.1875 48.25 40.4375 
Q 48.734375 37.984375 48.734375 31.890625 
L 48.734375 0 
L 39.9375 0 
L 39.9375 31.546875 
Q 39.9375 36.921875 38.90625 39.578125 
Q 37.890625 42.234375 35.28125 43.8125 
Q 32.671875 45.40625 29.15625 45.40625 
Q 23.53125 45.40625 19.453125 41.84375 
Q 15.375 38.28125 15.375 28.328125 
L 15.375 0 
z
" id="ArialMT-6e"/>
      <path d="M 7.328125 0 
L 7.328125 71.578125 
L 16.796875 71.578125 
L 16.796875 36.078125 
L 52.34375 71.578125 
L 65.1875 71.578125 
L 35.15625 42.578125 
L 66.5 0 
L 54 0 
L 28.515625 36.234375 
L 16.796875 24.8125 
L 16.796875 0 
z
" id="ArialMT-4b"/>
      <path d="M 7.421875 0 
L 7.421875 71.578125 
L 21.6875 71.578125 
L 38.625 20.90625 
Q 40.96875 13.8125 42.046875 10.296875 
Q 43.265625 14.203125 45.84375 21.78125 
L 62.984375 71.578125 
L 75.734375 71.578125 
L 75.734375 0 
L 66.609375 0 
L 66.609375 59.90625 
L 45.796875 0 
L 37.25 0 
L 16.546875 60.9375 
L 16.546875 0 
z
" id="ArialMT-4d"/>
      <path id="ArialMT-20"/>
     </defs>
     <g style="fill:#262626;" transform="translate(278.8148125 543.138875)scale(0.088 -0.088)">
      <use xlink:href="#ArialMT-4d"/>
      <use x="83.30078125" xlink:href="#ArialMT-65"/>
      <use x="138.916015625" xlink:href="#ArialMT-61"/>
      <use x="194.53125" xlink:href="#ArialMT-6e"/>
      <use x="250.146484375" xlink:href="#ArialMT-20"/>
      <use x="277.9296875" xlink:href="#ArialMT-4b"/>
      <use x="344.62890625" xlink:href="#ArialMT-49"/>
     </g>
    </g>
   </g>
   <g id="matplotlib.axis_2">
    <g id="ytick_1">
     <g id="line2d_91"/>
     <g id="line2d_92"/>
     <g id="text_7">
      <!-- $\mathdefault{10^{-2}}$ -->
      <g style="fill:#262626;" transform="translate(51.44 481.877678531)scale(0.08 -0.08)">
       <use transform="translate(0.0 0.884375)" xlink:href="#ArialMT-31"/>
       <use transform="translate(55.615234375 0.884375)" xlink:href="#ArialMT-30"/>
       <use transform="translate(116.4575 45.6875)scale(0.7)" xlink:href="#ArialMT-2d"/>
       <use transform="translate(139.768046875 45.6875)scale(0.7)" xlink:href="#ArialMT-32"/>
      </g>
     </g>
    </g>
    <g id="ytick_2">
     <g id="line2d_93"/>
     <g id="line2d_94"/>
     <g id="text_8">
      <!-- $\mathdefault{10^{-1}}$ -->
      <g style="fill:#262626;" transform="translate(51.44 389.104909907)scale(0.08 -0.08)">
       <use transform="translate(0.0 0.884375)" xlink:href="#ArialMT-31"/>
       <use transform="translate(55.615234375 0.884375)" xlink:href="#ArialMT-30"/>
       <use transform="translate(116.4575 45.6875)scale(0.7)" xlink:href="#ArialMT-2d"/>
       <use transform="translate(139.768046875 45.6875)scale(0.7)" xlink:href="#ArialMT-31"/>
      </g>
     </g>
    </g>
    <g id="ytick_3">
     <g id="line2d_95"/>
     <g id="line2d_96"/>
     <g id="text_9">
      <!-- $\mathdefault{10^{0}}$ -->
      <g style="fill:#262626;" transform="translate(53.36 296.332141284)scale(0.08 -0.08)">
       <use transform="translate(0.0 0.884375)" xlink:href="#ArialMT-31"/>
       <use transform="translate(55.615234375 0.884375)" xlink:href="#ArialMT-30"/>
       <use transform="translate(116.4575 45.6875)scale(0.7)" xlink:href="#ArialMT-30"/>
      </g>
     </g>
    </g>
    <g id="ytick_4">
     <g id="line2d_97"/>
     <g id="line2d_98"/>
     <g id="text_10">
      <!-- $\mathdefault{10^{1}}$ -->
      <g style="fill:#262626;" transform="translate(53.36 203.55937266)scale(0.08 -0.08)">
       <use transform="translate(0.0 0.884375)" xlink:href="#ArialMT-31"/>
       <use transform="translate(55.615234375 0.884375)" xlink:href="#ArialMT-30"/>
       <use transform="translate(116.4575 45.6875)scale(0.7)" xlink:href="#ArialMT-31"/>
      </g>
     </g>
    </g>
    <g id="ytick_5">
     <g id="line2d_99"/>
     <g id="line2d_100"/>
     <g id="text_11">
      <!-- $\mathdefault{10^{2}}$ -->
      <g style="fill:#262626;" transform="translate(53.36 110.786604037)scale(0.08 -0.08)">
       <use transform="translate(0.0 0.884375)" xlink:href="#ArialMT-31"/>
       <use transform="translate(55.615234375 0.884375)" xlink:href="#ArialMT-30"/>
       <use transform="translate(116.4575 45.6875)scale(0.7)" xlink:href="#ArialMT-32"/>
      </g>
     </g>
    </g>
    <g id="ytick_6">
     <g id="line2d_101"/>
     <g id="line2d_102"/>
    </g>
    <g id="ytick_7">
     <g id="line2d_103"/>
     <g id="line2d_104"/>
    </g>
    <g id="ytick_8">
     <g id="line2d_105"/>
     <g id="line2d_106"/>
    </g>
    <g id="ytick_9">
     <g id="line2d_107"/>
     <g id="line2d_108"/>
    </g>
    <g id="ytick_10">
     <g id="line2d_109"/>
     <g id="line2d_110"/>
    </g>
    <g id="ytick_11">
     <g id="line2d_111"/>
     <g id="line2d_112"/>
    </g>
    <g id="ytick_12">
     <g id="line2d_113"/>
     <g id="line2d_114"/>
    </g>
    <g id="ytick_13">
     <g id="line2d_115"/>
     <g id="line2d_116"/>
    </g>
    <g id="ytick_14">
     <g id="line2d_117"/>
     <g id="line2d_118"/>
    </g>
    <g id="ytick_15">
     <g id="line2d_119"/>
     <g id="line2d_120"/>
    </g>
    <g id="ytick_16">
     <g id="line2d_121"/>
     <g id="line2d_122"/>
    </g>
    <g id="ytick_17">
     <g id="line2d_123"/>
     <g id="line2d_124"/>
    </g>
    <g id="ytick_18">
     <g id="line2d_125"/>
     <g id="line2d_126"/>
    </g>
    <g id="ytick_19">
     <g id="line2d_127"/>
     <g id="line2d_128"/>
    </g>
    <g id="ytick_20">
     <g id="line2d_129"/>
     <g id="line2d_130"/>
    </g>
    <g id="ytick_21">
     <g id="line2d_131"/>
     <g id="line2d_132"/>
    </g>
    <g id="ytick_22">
     <g id="line2d_133"/>
     <g id="line2d_134"/>
    </g>
    <g id="ytick_23">
     <g id="line2d_135"/>
     <g id="line2d_136"/>
    </g>
    <g id="ytick_24">
     <g id="line2d_137"/>
     <g id="line2d_138"/>
    </g>
    <g id="ytick_25">
     <g id="line2d_139"/>
     <g id="line2d_140"/>
    </g>
    <g id="ytick_26">
     <g id="line2d_141"/>
     <g id="line2d_142"/>
    </g>
    <g id="ytick_27">
     <g id="line2d_143"/>
     <g id="line2d_144"/>
    </g>
    <g id="ytick_28">
     <g id="line2d_145"/>
     <g id="line2d_146"/>
    </g>
    <g id="ytick_29">
     <g id="line2d_147"/>
     <g id="line2d_148"/>
    </g>
    <g id="ytick_30">
     <g id="line2d_149"/>
     <g id="line2d_150"/>
    </g>
    <g id="ytick_31">
     <g id="line2d_151"/>
     <g id="line2d_152"/>
    </g>
    <g id="ytick_32">
     <g id="line2d_153"/>
     <g id="line2d_154"/>
    </g>
    <g id="ytick_33">
     <g id="line2d_155"/>
     <g id="line2d_156"/>
    </g>
    <g id="ytick_34">
     <g id="line2d_157"/>
     <g id="line2d_158"/>
    </g>
    <g id="ytick_35">
     <g id="line2d_159"/>
     <g id="line2d_160"/>
    </g>
    <g id="ytick_36">
     <g id="line2d_161"/>
     <g id="line2d_162"/>
    </g>
    <g id="ytick_37">
     <g id="line2d_163"/>
     <g id="line2d_164"/>
    </g>
    <g id="ytick_38">
     <g id="line2d_165"/>
     <g id="line2d_166"/>
    </g>
    <g id="ytick_39">
     <g id="line2d_167"/>
     <g id="line2d_168"/>
    </g>
    <g id="ytick_40">
     <g id="line2d_169"/>
     <g id="line2d_170"/>
    </g>
    <g id="ytick_41">
     <g id="line2d_171"/>
     <g id="line2d_172"/>
    </g>
    <g id="ytick_42">
     <g id="line2d_173"/>
     <g id="line2d_174"/>
    </g>
    <g id="ytick_43">
     <g id="line2d_175"/>
     <g id="line2d_176"/>
    </g>
    <g id="ytick_44">
     <g id="line2d_177"/>
     <g id="line2d_178"/>
    </g>
    <g id="ytick_45">
     <g id="line2d_179"/>
     <g id="line2d_180"/>
    </g>
    <g id="text_12">
     <!-- Mean KM -->
     <g style="fill:#262626;" transform="translate(44.691 306.827875)rotate(-90.0)scale(0.088 -0.088)">
      <use xlink:href="#ArialMT-4d"/>
      <use x="83.30078125" xlink:href="#ArialMT-65"/>
      <use x="138.916015625" xlink:href="#ArialMT-61"/>
      <use x="194.53125" xlink:href="#ArialMT-6e"/>
      <use x="250.146484375" xlink:href="#ArialMT-20"/>
      <use x="277.9296875" xlink:href="#ArialMT-4b"/>
      <use x="344.62890625" xlink:href="#ArialMT-4d"/>
     </g>
    </g>
   </g>
   <g id="PathCollection_1">
    <path clip-path="url(#p9509bb9664)" d="M 380.147408 255.923568 
C 381.538145 255.923568 382.872108 255.371022 383.855507 254.387623 
C 384.838907 253.404224 385.391452 252.070261 385.391452 250.679524 
C 385.391452 249.288787 384.838907 247.954824 383.855507 246.971425 
C 382.872108 245.988025 381.538145 245.43548 380.147408 245.43548 
C 378.756671 245.43548 377.422708 245.988025 376.439309 246.971425 
C 375.455909 247.954824 374.903364 249.288787 374.903364 250.679524 
C 374.903364 252.070261 375.455909 253.404224 376.439309 254.387623 
C 377.422708 255.371022 378.756671 255.923568 380.147408 255.923568 
z
" style="fill:#808080;stroke:#808080;stroke-width:0.24;"/>
    <path clip-path="url(#p9509bb9664)" d="M 431.650803 361.551948 
C 432.489449 361.551948 433.293859 361.21875 433.886871 360.625738 
C 434.479883 360.032726 434.813081 359.228316 434.813081 358.38967 
C 434.813081 357.551024 434.479883 356.746614 433.886871 356.153602 
C 433.293859 355.56059 432.489449 355.227392 431.650803 355.227392 
C 430.812157 355.227392 430.007747 355.56059 429.414735 356.153602 
C 428.821723 356.746614 428.488526 357.551024 428.488526 358.38967 
C 428.488526 359.228316 428.821723 360.032726 429.414735 360.625738 
C 430.007747 361.21875 430.812157 361.551948 431.650803 361.551948 
z
" style="fill:#808080;stroke:#808080;stroke-width:0.24;"/>
    <path clip-path="url(#p9509bb9664)" d="M 416.366098 255.656761 
C 417.204743 255.656761 418.009153 255.323563 418.602165 254.730551 
C 419.195178 254.137539 419.528375 253.333129 419.528375 252.494483 
C 419.528375 251.655837 419.195178 250.851427 418.602165 250.258415 
C 418.009153 249.665403 417.204743 249.332205 416.366098 249.332205 
C 415.527452 249.332205 414.723042 249.665403 414.13003 250.258415 
C 413.537017 250.851427 413.20382 251.655837 413.20382 252.494483 
C 413.20382 253.333129 413.537017 254.137539 414.13003 254.730551 
C 414.723042 255.323563 415.527452 255.656761 416.366098 255.656761 
z
" style="fill:#808080;stroke:#808080;stroke-width:0.24;"/>
    <path clip-path="url(#p9509bb9664)" d="M 346.789697 366.694558 
C 347.382709 366.694558 347.951513 366.458952 348.370836 366.039629 
C 348.790159 365.620306 349.025765 365.051502 349.025765 364.45849 
C 349.025765 363.865478 348.790159 363.296674 348.370836 362.877351 
C 347.951513 362.458028 347.382709 362.222422 346.789697 362.222422 
C 346.196685 362.222422 345.627881 362.458028 345.208558 362.877351 
C 344.789235 363.296674 344.553629 363.865478 344.553629 364.45849 
C 344.553629 365.051502 344.789235 365.620306 345.208558 366.039629 
C 345.627881 366.458952 346.196685 366.694558 346.789697 366.694558 
z
" style="fill:#808080;stroke:#808080;stroke-width:0.24;"/>
    <path clip-path="url(#p9509bb9664)" d="M 339.376157 252.347953 
C 340.313791 252.347953 341.213149 251.975427 341.876157 251.312419 
C 342.539165 250.649412 342.911691 249.750054 342.911691 248.812419 
C 342.911691 247.874785 342.539165 246.975427 341.876157 246.312419 
C 341.213149 245.649412 340.313791 245.276885 339.376157 245.276885 
C 338.438522 245.276885 337.539165 245.649412 336.876157 246.312419 
C 336.213149 246.975427 335.840623 247.874785 335.840623 248.812419 
C 335.840623 249.750054 336.213149 250.649412 336.876157 251.312419 
C 337.539165 251.975427 338.438522 252.347953 339.376157 252.347953 
z
" style="fill:#808080;stroke:#808080;stroke-width:0.24;"/>
    <path clip-path="url(#p9509bb9664)" d="M 106.665485 386.991219 
C 107.258498 386.991219 107.827301 386.755613 108.246624 386.33629 
C 108.665947 385.916967 108.901553 385.348163 108.901553 384.755151 
C 108.901553 384.162139 108.665947 383.593335 108.246624 383.174012 
C 107.827301 382.754689 107.258498 382.519083 106.665485 382.519083 
C 106.072473 382.519083 105.503669 382.754689 105.084347 383.174012 
C 104.665024 383.593335 104.429417 384.162139 104.429417 384.755151 
C 104.429417 385.348163 104.665024 385.916967 105.084347 386.33629 
C 105.503669 386.755613 106.072473 386.991219 106.665485 386.991219 
z
" style="fill:#808080;stroke:#808080;stroke-width:0.24;"/>
    <path clip-path="url(#p9509bb9664)" d="M 254.346183 209.846125 
C 255.072472 209.846125 255.769111 209.557567 256.282675 209.044004 
C 256.796238 208.53044 257.084796 207.833801 257.084796 207.107512 
C 257.084796 206.381223 256.796238 205.684584 256.282675 205.17102 
C 255.769111 204.657457 255.072472 204.368899 254.346183 204.368899 
C 253.619894 204.368899 252.923255 204.657457 252.409691 205.17102 
C 251.896128 205.684584 251.60757 206.381223 251.60757 207.107512 
C 251.60757 207.833801 251.896128 208.53044 252.409691 209.044004 
C 252.923255 209.557567 253.619894 209.846125 254.346183 209.846125 
z
" style="fill:#808080;stroke:#808080;stroke-width:0.24;"/>
    <path clip-path="url(#p9509bb9664)" d="M 378.331252 300.837539 
C 379.169898 300.837539 379.974308 300.504341 380.56732 299.911329 
C 381.160333 299.318317 381.49353 298.513907 381.49353 297.675261 
C 381.49353 296.836615 381.160333 296.032205 380.56732 295.439193 
C 379.974308 294.846181 379.169898 294.512983 378.331252 294.512983 
C 377.492607 294.512983 376.688197 294.846181 376.095184 295.439193 
C 375.502172 296.032205 375.168975 296.836615 375.168975 297.675261 
C 375.168975 298.513907 375.502172 299.318317 376.095184 299.911329 
C 376.688197 300.504341 377.492607 300.837539 378.331252 300.837539 
z
" style="fill:#808080;stroke:#808080;stroke-width:0.24;"/>
    <path clip-path="url(#p9509bb9664)" d="M 335.98615 353.814396 
C 336.579162 353.814396 337.147966 353.578789 337.567289 353.159466 
C 337.986612 352.740143 338.222218 352.17134 338.222218 351.578328 
C 338.222218 350.985315 337.986612 350.416512 337.567289 349.997189 
C 337.147966 349.577866 336.579162 349.34226 335.98615 349.34226 
C 335.393138 349.34226 334.824334 349.577866 334.405011 349.997189 
C 333.985688 350.416512 333.750082 350.985315 333.750082 351.578328 
C 333.750082 352.17134 333.985688 352.740143 334.405011 353.159466 
C 334.824334 353.578789 335.393138 353.814396 335.98615 353.814396 
z
" style="fill:#808080;stroke:#808080;stroke-width:0.24;"/>
    <path clip-path="url(#p9509bb9664)" d="M 268.414375 280.976874 
C 269.140663 280.976874 269.837303 280.688317 270.350866 280.174753 
C 270.86443 279.66119 271.152987 278.96455 271.152987 278.238262 
C 271.152987 277.511973 270.86443 276.815333 270.350866 276.30177 
C 269.837303 275.788206 269.140663 275.499649 268.414375 275.499649 
C 267.688086 275.499649 266.991447 275.788206 266.477883 276.30177 
C 265.964319 276.815333 265.675762 277.511973 265.675762 278.238262 
C 265.675762 278.96455 265.964319 279.66119 266.477883 280.174753 
C 266.991447 280.688317 267.688086 280.976874 268.414375 280.976874 
z
" style="fill:#808080;stroke:#808080;stroke-width:0.24;"/>
    <path clip-path="url(#p9509bb9664)" d="M 292.509622 130.008409 
C 293.235911 130.008409 293.93255 129.719852 294.446114 129.206288 
C 294.959677 128.692725 295.248235 127.996085 295.248235 127.269797 
C 295.248235 126.543508 294.959677 125.846869 294.446114 125.333305 
C 293.93255 124.819741 293.235911 124.531184 292.509622 124.531184 
C 291.783333 124.531184 291.086694 124.819741 290.57313 125.333305 
C 290.059567 125.846869 289.771009 126.543508 289.771009 127.269797 
C 289.771009 127.996085 290.059567 128.692725 290.57313 129.206288 
C 291.086694 129.719852 291.783333 130.008409 292.509622 130.008409 
z
" style="fill:#808080;stroke:#808080;stroke-width:0.24;"/>
    <path clip-path="url(#p9509bb9664)" d="M 383.769474 152.904155 
C 384.60812 152.904155 385.41253 152.570957 386.005542 151.977945 
C 386.598554 151.384933 386.931752 150.580523 386.931752 149.741877 
C 386.931752 148.903231 386.598554 148.098821 386.005542 147.505809 
C 385.41253 146.912797 384.60812 146.5796 383.769474 146.5796 
C 382.930828 146.5796 382.126418 146.912797 381.533406 147.505809 
C 380.940394 148.098821 380.607196 148.903231 380.607196 149.741877 
C 380.607196 150.580523 380.940394 151.384933 381.533406 151.977945 
C 382.126418 152.570957 382.930828 152.904155 383.769474 152.904155 
z
" style="fill:#808080;stroke:#808080;stroke-width:0.24;"/>
    <path clip-path="url(#p9509bb9664)" d="M 120.326474 300.544663 
C 120.919486 300.544663 121.48829 300.309057 121.907613 299.889734 
C 122.326936 299.470411 122.562542 298.901607 122.562542 298.308595 
C 122.562542 297.715583 122.326936 297.146779 121.907613 296.727456 
C 121.48829 296.308133 120.919486 296.072527 120.326474 296.072527 
C 119.733462 296.072527 119.164658 296.308133 118.745335 296.727456 
C 118.326013 297.146779 118.090406 297.715583 118.090406 298.308595 
C 118.090406 298.901607 118.326013 299.470411 118.745335 299.889734 
C 119.164658 300.309057 119.733462 300.544663 120.326474 300.544663 
z
" style="fill:#808080;stroke:#808080;stroke-width:0.24;"/>
    <path clip-path="url(#p9509bb9664)" d="M 237.031498 239.388554 
C 237.62451 239.388554 238.193314 239.152948 238.612637 238.733625 
C 239.03196 238.314302 239.267566 237.745498 239.267566 237.152486 
C 239.267566 236.559474 239.03196 235.99067 238.612637 235.571347 
C 238.193314 235.152025 237.62451 234.916418 237.031498 234.916418 
C 236.438486 234.916418 235.869682 235.152025 235.450359 235.571347 
C 235.031036 235.99067 234.79543 236.559474 234.79543 237.152486 
C 234.79543 237.745498 235.031036 238.314302 235.450359 238.733625 
C 235.869682 239.152948 236.438486 239.388554 237.031498 239.388554 
z
" style="fill:#808080;stroke:#808080;stroke-width:0.24;"/>
    <path clip-path="url(#p9509bb9664)" d="M 376.21608 230.913172 
C 376.809092 230.913172 377.377896 230.677566 377.797219 230.258243 
C 378.216542 229.83892 378.452148 229.270116 378.452148 228.677104 
C 378.452148 228.084092 378.216542 227.515288 377.797219 227.095965 
C 377.377896 226.676642 376.809092 226.441036 376.21608 226.441036 
C 375.623068 226.441036 375.054264 226.676642 374.634941 227.095965 
C 374.215618 227.515288 373.980012 228.084092 373.980012 228.677104 
C 373.980012 229.270116 374.215618 229.83892 374.634941 230.258243 
C 375.054264 230.677566 375.623068 230.913172 376.21608 230.913172 
z
" style="fill:#808080;stroke:#808080;stroke-width:0.24;"/>
    <path clip-path="url(#p9509bb9664)" d="M 234.75272 337.325478 
C 235.690355 337.325478 236.589713 336.952952 237.25272 336.289944 
C 237.915728 335.626936 238.288254 334.727579 238.288254 333.789944 
C 238.288254 332.852309 237.915728 331.952952 237.25272 331.289944 
C 236.589713 330.626936 235.690355 330.25441 234.75272 330.25441 
C 233.815086 330.25441 232.915728 330.626936 232.25272 331.289944 
C 231.589713 331.952952 231.217186 332.852309 231.217186 333.789944 
C 231.217186 334.727579 231.589713 335.626936 232.25272 336.289944 
C 232.915728 336.952952 233.815086 337.325478 234.75272 337.325478 
z
" style="fill:#808080;stroke:#808080;stroke-width:0.24;"/>
    <path clip-path="url(#p9509bb9664)" d="M 385.553602 210.19672 
C 386.146614 210.19672 386.715418 209.961114 387.134741 209.541791 
C 387.554064 209.122468 387.78967 208.553665 387.78967 207.960652 
C 387.78967 207.36764 387.554064 206.798836 387.134741 206.379514 
C 386.715418 205.960191 386.146614 205.724584 385.553602 205.724584 
C 384.96059 205.724584 384.391786 205.960191 383.972463 206.379514 
C 383.55314 206.798836 383.317534 207.36764 383.317534 207.960652 
C 383.317534 208.553665 383.55314 209.122468 383.972463 209.541791 
C 384.391786 209.961114 384.96059 210.19672 385.553602 210.19672 
z
" style="fill:#808080;stroke:#808080;stroke-width:0.24;"/>
    <path clip-path="url(#p9509bb9664)" d="M 260.688602 172.965704 
C 261.281614 172.965704 261.850418 172.730098 262.269741 172.310775 
C 262.689064 171.891452 262.92467 171.322648 262.92467 170.729636 
C 262.92467 170.136624 262.689064 169.56782 262.269741 169.148497 
C 261.850418 168.729174 261.281614 168.493568 260.688602 168.493568 
C 260.09559 168.493568 259.526786 168.729174 259.107463 169.148497 
C 258.68814 169.56782 258.452534 170.136624 258.452534 170.729636 
C 258.452534 171.322648 258.68814 171.891452 259.107463 172.310775 
C 259.526786 172.730098 260.09559 172.965704 260.688602 172.965704 
z
" style="fill:#808080;stroke:#808080;stroke-width:0.24;"/>
    <path clip-path="url(#p9509bb9664)" d="M 365.225767 296.507713 
C 365.818779 296.507713 366.387583 296.272107 366.806906 295.852784 
C 367.226229 295.433461 367.461835 294.864657 367.461835 294.271645 
C 367.461835 293.678633 367.226229 293.109829 366.806906 292.690506 
C 366.387583 292.271184 365.818779 292.035577 365.225767 292.035577 
C 364.632755 292.035577 364.063951 292.271184 363.644628 292.690506 
C 363.225305 293.109829 362.989699 293.678633 362.989699 294.271645 
C 362.989699 294.864657 363.225305 295.433461 363.644628 295.852784 
C 364.063951 296.272107 364.632755 296.507713 365.225767 296.507713 
z
" style="fill:#808080;stroke:#808080;stroke-width:0.24;"/>
    <path clip-path="url(#p9509bb9664)" d="M 323.88811 279.768791 
C 325.565402 279.768791 327.174222 279.102396 328.360246 277.916372 
C 329.54627 276.730347 330.212665 275.121528 330.212665 273.444236 
C 330.212665 271.766944 329.54627 270.158124 328.360246 268.9721 
C 327.174222 267.786076 325.565402 267.119681 323.88811 267.119681 
C 322.210818 267.119681 320.601998 267.786076 319.415974 268.9721 
C 318.22995 270.158124 317.563555 271.766944 317.563555 273.444236 
C 317.563555 275.121528 318.22995 276.730347 319.415974 277.916372 
C 320.601998 279.102396 322.210818 279.768791 323.88811 279.768791 
z
" style="fill:#808080;stroke:#808080;stroke-width:0.24;"/>
    <path clip-path="url(#p9509bb9664)" d="M 379.063398 233.860733 
C 379.65641 233.860733 380.225214 233.625127 380.644536 233.205804 
C 381.063859 232.786481 381.299466 232.217677 381.299466 231.624665 
C 381.299466 231.031653 381.063859 230.462849 380.644536 230.043526 
C 380.225214 229.624203 379.65641 229.388597 379.063398 229.388597 
C 378.470385 229.388597 377.901582 229.624203 377.482259 230.043526 
C 377.062936 230.462849 376.82733 231.031653 376.82733 231.624665 
C 376.82733 232.217677 377.062936 232.786481 377.482259 233.205804 
C 377.901582 233.625127 378.470385 233.860733 379.063398 233.860733 
z
" style="fill:#808080;stroke:#808080;stroke-width:0.24;"/>
    <path clip-path="url(#p9509bb9664)" d="M 201.79534 344.461207 
C 202.521629 344.461207 203.218268 344.17265 203.731832 343.659086 
C 204.245395 343.145522 204.533953 342.448883 204.533953 341.722594 
C 204.533953 340.996306 204.245395 340.299666 203.731832 339.786103 
C 203.218268 339.272539 202.521629 338.983982 201.79534 338.983982 
C 201.069052 338.983982 200.372412 339.272539 199.858849 339.786103 
C 199.345285 340.299666 199.056727 340.996306 199.056727 341.722594 
C 199.056727 342.448883 199.345285 343.145522 199.858849 343.659086 
C 200.372412 344.17265 201.069052 344.461207 201.79534 344.461207 
z
" style="fill:#808080;stroke:#808080;stroke-width:0.24;"/>
    <path clip-path="url(#p9509bb9664)" d="M 163.399545 271.586131 
C 164.508969 271.586131 165.573104 271.145352 166.357585 270.360871 
C 167.142066 269.576389 167.582845 268.512255 167.582845 267.402831 
C 167.582845 266.293407 167.142066 265.229272 166.357585 264.444791 
C 165.573104 263.66031 164.508969 263.219531 163.399545 263.219531 
C 162.290121 263.219531 161.225987 263.66031 160.441505 264.444791 
C 159.657024 265.229272 159.216245 266.293407 159.216245 267.402831 
C 159.216245 268.512255 159.657024 269.576389 160.441505 270.360871 
C 161.225987 271.145352 162.290121 271.586131 163.399545 271.586131 
z
" style="fill:#808080;stroke:#808080;stroke-width:0.24;"/>
    <path clip-path="url(#p9509bb9664)" d="M 491.345345 118.810971 
C 491.938357 118.810971 492.507161 118.575365 492.926484 118.156042 
C 493.345806 117.736719 493.581413 117.167915 493.581413 116.574903 
C 493.581413 115.981891 493.345806 115.413087 492.926484 114.993764 
C 492.507161 114.574442 491.938357 114.338835 491.345345 114.338835 
C 490.752333 114.338835 490.183529 114.574442 489.764206 114.993764 
C 489.344883 115.413087 489.109277 115.981891 489.109277 116.574903 
C 489.109277 117.167915 489.344883 117.736719 489.764206 118.156042 
C 490.183529 118.575365 490.752333 118.810971 491.345345 118.810971 
z
" style="fill:#808080;stroke:#808080;stroke-width:0.24;"/>
    <path clip-path="url(#p9509bb9664)" d="M 253.130146 372.674504 
C 253.723159 372.674504 254.291962 372.438898 254.711285 372.019575 
C 255.130608 371.600252 255.366214 371.031448 255.366214 370.438436 
C 255.366214 369.845424 255.130608 369.27662 254.711285 368.857297 
C 254.291962 368.437975 253.723159 368.202368 253.130146 368.202368 
C 252.537134 368.202368 251.968331 368.437975 251.549008 368.857297 
C 251.129685 369.27662 250.894078 369.845424 250.894078 370.438436 
C 250.894078 371.031448 251.129685 371.600252 251.549008 372.019575 
C 251.968331 372.438898 252.537134 372.674504 253.130146 372.674504 
z
" style="fill:#808080;stroke:#808080;stroke-width:0.24;"/>
    <path clip-path="url(#p9509bb9664)" d="M 457.764942 147.974151 
C 458.491231 147.974151 459.18787 147.685594 459.701434 147.17203 
C 460.214997 146.658466 460.503555 145.961827 460.503555 145.235538 
C 460.503555 144.50925 460.214997 143.81261 459.701434 143.299047 
C 459.18787 142.785483 458.491231 142.496925 457.764942 142.496925 
C 457.038653 142.496925 456.342014 142.785483 455.82845 143.299047 
C 455.314887 143.81261 455.026329 144.50925 455.026329 145.235538 
C 455.026329 145.961827 455.314887 146.658466 455.82845 147.17203 
C 456.342014 147.685594 457.038653 147.974151 457.764942 147.974151 
z
" style="fill:#808080;stroke:#808080;stroke-width:0.24;"/>
    <path clip-path="url(#p9509bb9664)" d="M 270.070754 303.340753 
C 271.582644 303.340753 273.032815 302.740072 274.101883 301.671004 
C 275.170951 300.601937 275.771631 299.151766 275.771631 297.639876 
C 275.771631 296.127985 275.170951 294.677815 274.101883 293.608747 
C 273.032815 292.539679 271.582644 291.938998 270.070754 291.938998 
C 268.558864 291.938998 267.108693 292.539679 266.039625 293.608747 
C 264.970557 294.677815 264.369877 296.127985 264.369877 297.639876 
C 264.369877 299.151766 264.970557 300.601937 266.039625 301.671004 
C 267.108693 302.740072 268.558864 303.340753 270.070754 303.340753 
z
" style="fill:#808080;stroke:#808080;stroke-width:0.24;"/>
    <path clip-path="url(#p9509bb9664)" d="M 278.156729 245.259198 
C 278.995375 245.259198 279.799785 244.926 280.392797 244.332988 
C 280.985809 243.739976 281.319007 242.935566 281.319007 242.09692 
C 281.319007 241.258274 280.985809 240.453864 280.392797 239.860852 
C 279.799785 239.26784 278.995375 238.934642 278.156729 238.934642 
C 277.318083 238.934642 276.513673 239.26784 275.920661 239.860852 
C 275.327649 240.453864 274.994451 241.258274 274.994451 242.09692 
C 274.994451 242.935566 275.327649 243.739976 275.920661 244.332988 
C 276.513673 244.926 277.318083 245.259198 278.156729 245.259198 
z
" style="fill:#808080;stroke:#808080;stroke-width:0.24;"/>
    <path clip-path="url(#p9509bb9664)" d="M 298.095079 347.495724 
C 298.688091 347.495724 299.256895 347.260118 299.676218 346.840795 
C 300.095541 346.421472 300.331147 345.852668 300.331147 345.259656 
C 300.331147 344.666644 300.095541 344.09784 299.676218 343.678517 
C 299.256895 343.259194 298.688091 343.023588 298.095079 343.023588 
C 297.502067 343.023588 296.933263 343.259194 296.51394 343.678517 
C 296.094618 344.09784 295.859011 344.666644 295.859011 345.259656 
C 295.859011 345.852668 296.094618 346.421472 296.51394 346.840795 
C 296.933263 347.260118 297.502067 347.495724 298.095079 347.495724 
z
" style="fill:#808080;stroke:#808080;stroke-width:0.24;"/>
    <path clip-path="url(#p9509bb9664)" d="M 190.038493 291.427043 
C 190.631505 291.427043 191.200309 291.191436 191.619632 290.772114 
C 192.038954 290.352791 192.274561 289.783987 192.274561 289.190975 
C 192.274561 288.597963 192.038954 288.029159 191.619632 287.609836 
C 191.200309 287.190513 190.631505 286.954907 190.038493 286.954907 
C 189.445481 286.954907 188.876677 287.190513 188.457354 287.609836 
C 188.038031 288.029159 187.802425 288.597963 187.802425 289.190975 
C 187.802425 289.783987 188.038031 290.352791 188.457354 290.772114 
C 188.876677 291.191436 189.445481 291.427043 190.038493 291.427043 
z
" style="fill:#808080;stroke:#808080;stroke-width:0.24;"/>
    <path clip-path="url(#p9509bb9664)" d="M 480.947295 172.161407 
C 481.540307 172.161407 482.10911 171.925801 482.528433 171.506478 
C 482.947756 171.087155 483.183362 170.518352 483.183362 169.925339 
C 483.183362 169.332327 482.947756 168.763523 482.528433 168.344201 
C 482.10911 167.924878 481.540307 167.689271 480.947295 167.689271 
C 480.354282 167.689271 479.785479 167.924878 479.366156 168.344201 
C 478.946833 168.763523 478.711227 169.332327 478.711227 169.925339 
C 478.711227 170.518352 478.946833 171.087155 479.366156 171.506478 
C 479.785479 171.925801 480.354282 172.161407 480.947295 172.161407 
z
" style="fill:#808080;stroke:#808080;stroke-width:0.24;"/>
    <path clip-path="url(#p9509bb9664)" d="M 423.628785 144.57434 
C 424.355073 144.57434 425.051713 144.285782 425.565276 143.772218 
C 426.07884 143.258655 426.367397 142.562015 426.367397 141.835727 
C 426.367397 141.109438 426.07884 140.412799 425.565276 139.899235 
C 425.051713 139.385672 424.355073 139.097114 423.628785 139.097114 
C 422.902496 139.097114 422.205856 139.385672 421.692293 139.899235 
C 421.178729 140.412799 420.890172 141.109438 420.890172 141.835727 
C 420.890172 142.562015 421.178729 143.258655 421.692293 143.772218 
C 422.205856 144.285782 422.902496 144.57434 423.628785 144.57434 
z
" style="fill:#808080;stroke:#808080;stroke-width:0.24;"/>
    <path clip-path="url(#p9509bb9664)" d="M 222.480082 320.270577 
C 223.073095 320.270577 223.641898 320.034971 224.061221 319.615648 
C 224.480544 319.196325 224.71615 318.627521 224.71615 318.034509 
C 224.71615 317.441497 224.480544 316.872693 224.061221 316.45337 
C 223.641898 316.034047 223.073095 315.798441 222.480082 315.798441 
C 221.88707 315.798441 221.318267 316.034047 220.898944 316.45337 
C 220.479621 316.872693 220.244014 317.441497 220.244014 318.034509 
C 220.244014 318.627521 220.479621 319.196325 220.898944 319.615648 
C 221.318267 320.034971 221.88707 320.270577 222.480082 320.270577 
z
" style="fill:#808080;stroke:#808080;stroke-width:0.24;"/>
    <path clip-path="url(#p9509bb9664)" d="M 293.156194 232.171889 
C 294.093828 232.171889 294.993186 231.799363 295.656194 231.136355 
C 296.319201 230.473347 296.691728 229.57399 296.691728 228.636355 
C 296.691728 227.69872 296.319201 226.799363 295.656194 226.136355 
C 294.993186 225.473347 294.093828 225.100821 293.156194 225.100821 
C 292.218559 225.100821 291.319201 225.473347 290.656194 226.136355 
C 289.993186 226.799363 289.62066 227.69872 289.62066 228.636355 
C 289.62066 229.57399 289.993186 230.473347 290.656194 231.136355 
C 291.319201 231.799363 292.218559 232.171889 293.156194 232.171889 
z
" style="fill:#808080;stroke:#808080;stroke-width:0.24;"/>
    <path clip-path="url(#p9509bb9664)" d="M 99.054655 244.740988 
C 99.893301 244.740988 100.697711 244.407791 101.290723 243.814778 
C 101.883735 243.221766 102.216933 242.417356 102.216933 241.57871 
C 102.216933 240.740065 101.883735 239.935655 101.290723 239.342642 
C 100.697711 238.74963 99.893301 238.416433 99.054655 238.416433 
C 98.216009 238.416433 97.4116 238.74963 96.818587 239.342642 
C 96.225575 239.935655 95.892378 240.740065 95.892378 241.57871 
C 95.892378 242.417356 96.225575 243.221766 96.818587 243.814778 
C 97.4116 244.407791 98.216009 244.740988 99.054655 244.740988 
z
" style="fill:#808080;stroke:#808080;stroke-width:0.24;"/>
    <path clip-path="url(#p9509bb9664)" d="M 275.223321 291.171605 
C 275.816333 291.171605 276.385137 290.935999 276.80446 290.516676 
C 277.223782 290.097353 277.459389 289.528549 277.459389 288.935537 
C 277.459389 288.342525 277.223782 287.773721 276.80446 287.354398 
C 276.385137 286.935075 275.816333 286.699469 275.223321 286.699469 
C 274.630309 286.699469 274.061505 286.935075 273.642182 287.354398 
C 273.222859 287.773721 272.987253 288.342525 272.987253 288.935537 
C 272.987253 289.528549 273.222859 290.097353 273.642182 290.516676 
C 274.061505 290.935999 274.630309 291.171605 275.223321 291.171605 
z
" style="fill:#808080;stroke:#808080;stroke-width:0.24;"/>
    <path clip-path="url(#p9509bb9664)" d="M 334.785083 233.187263 
C 335.378095 233.187263 335.946899 232.951656 336.366221 232.532333 
C 336.785544 232.113011 337.021151 231.544207 337.021151 230.951195 
C 337.021151 230.358183 336.785544 229.789379 336.366221 229.370056 
C 335.946899 228.950733 335.378095 228.715127 334.785083 228.715127 
C 334.19207 228.715127 333.623267 228.950733 333.203944 229.370056 
C 332.784621 229.789379 332.549015 230.358183 332.549015 230.951195 
C 332.549015 231.544207 332.784621 232.113011 333.203944 232.532333 
C 333.623267 232.951656 334.19207 233.187263 334.785083 233.187263 
z
" style="fill:#808080;stroke:#808080;stroke-width:0.24;"/>
    <path clip-path="url(#p9509bb9664)" d="M 252.23053 343.262233 
C 252.956819 343.262233 253.653458 342.973675 254.167022 342.460112 
C 254.680586 341.946548 254.969143 341.249909 254.969143 340.52362 
C 254.969143 339.797332 254.680586 339.100692 254.167022 338.587129 
C 253.653458 338.073565 252.956819 337.785007 252.23053 337.785007 
C 251.504242 337.785007 250.807602 338.073565 250.294039 338.587129 
C 249.780475 339.100692 249.491918 339.797332 249.491918 340.52362 
C 249.491918 341.249909 249.780475 341.946548 250.294039 342.460112 
C 250.807602 342.973675 251.504242 343.262233 252.23053 343.262233 
z
" style="fill:#808080;stroke:#808080;stroke-width:0.24;"/>
    <path clip-path="url(#p9509bb9664)" d="M 269.861208 321.820105 
C 270.888335 321.820105 271.873532 321.412023 272.599821 320.685734 
C 273.326109 319.959446 273.734191 318.974249 273.734191 317.947121 
C 273.734191 316.919994 273.326109 315.934797 272.599821 315.208509 
C 271.873532 314.48222 270.888335 314.074138 269.861208 314.074138 
C 268.834081 314.074138 267.848884 314.48222 267.122595 315.208509 
C 266.396307 315.934797 265.988225 316.919994 265.988225 317.947121 
C 265.988225 318.974249 266.396307 319.959446 267.122595 320.685734 
C 267.848884 321.412023 268.834081 321.820105 269.861208 321.820105 
z
" style="fill:#808080;stroke:#808080;stroke-width:0.24;"/>
    <path clip-path="url(#p9509bb9664)" d="M 219.375926 426.097203 
C 219.968938 426.097203 220.537741 425.861597 220.957064 425.442274 
C 221.376387 425.022951 221.611994 424.454147 221.611994 423.861135 
C 221.611994 423.268123 221.376387 422.699319 220.957064 422.279996 
C 220.537741 421.860673 219.968938 421.625067 219.375926 421.625067 
C 218.782913 421.625067 218.21411 421.860673 217.794787 422.279996 
C 217.375464 422.699319 217.139858 423.268123 217.139858 423.861135 
C 217.139858 424.454147 217.375464 425.022951 217.794787 425.442274 
C 218.21411 425.861597 218.782913 426.097203 219.375926 426.097203 
z
" style="fill:#808080;stroke:#808080;stroke-width:0.24;"/>
    <path clip-path="url(#p9509bb9664)" d="M 228.842207 302.983625 
C 229.869334 302.983625 230.854531 302.575543 231.58082 301.849254 
C 232.307109 301.122966 232.715191 300.137769 232.715191 299.110642 
C 232.715191 298.083514 232.307109 297.098317 231.58082 296.372029 
C 230.854531 295.64574 229.869334 295.237658 228.842207 295.237658 
C 227.81508 295.237658 226.829883 295.64574 226.103594 296.372029 
C 225.377306 297.098317 224.969224 298.083514 224.969224 299.110642 
C 224.969224 300.137769 225.377306 301.122966 226.103594 301.849254 
C 226.829883 302.575543 227.81508 302.983625 228.842207 302.983625 
z
" style="fill:#808080;stroke:#808080;stroke-width:0.24;"/>
    <path clip-path="url(#p9509bb9664)" d="M 291.289785 258.739625 
C 291.882797 258.739625 292.451601 258.504019 292.870923 258.084696 
C 293.290246 257.665373 293.525853 257.09657 293.525853 256.503557 
C 293.525853 255.910545 293.290246 255.341742 292.870923 254.922419 
C 292.451601 254.503096 291.882797 254.267489 291.289785 254.267489 
C 290.696772 254.267489 290.127969 254.503096 289.708646 254.922419 
C 289.289323 255.341742 289.053717 255.910545 289.053717 256.503557 
C 289.053717 257.09657 289.289323 257.665373 289.708646 258.084696 
C 290.127969 258.504019 290.696772 258.739625 291.289785 258.739625 
z
" style="fill:#808080;stroke:#808080;stroke-width:0.24;"/>
    <path clip-path="url(#p9509bb9664)" d="M 176.680902 337.254042 
C 177.519548 337.254042 178.323958 336.920845 178.91697 336.327833 
C 179.509982 335.73482 179.84318 334.93041 179.84318 334.091765 
C 179.84318 333.253119 179.509982 332.448709 178.91697 331.855697 
C 178.323958 331.262684 177.519548 330.929487 176.680902 330.929487 
C 175.842256 330.929487 175.037846 331.262684 174.444834 331.855697 
C 173.851822 332.448709 173.518624 333.253119 173.518624 334.091765 
C 173.518624 334.93041 173.851822 335.73482 174.444834 336.327833 
C 175.037846 336.920845 175.842256 337.254042 176.680902 337.254042 
z
" style="fill:#808080;stroke:#808080;stroke-width:0.24;"/>
    <path clip-path="url(#p9509bb9664)" d="M 338.053504 298.984419 
C 338.89215 298.984419 339.69656 298.651222 340.289572 298.058209 
C 340.882584 297.465197 341.215782 296.660787 341.215782 295.822142 
C 341.215782 294.983496 340.882584 294.179086 340.289572 293.586074 
C 339.69656 292.993061 338.89215 292.659864 338.053504 292.659864 
C 337.214858 292.659864 336.410448 292.993061 335.817436 293.586074 
C 335.224424 294.179086 334.891227 294.983496 334.891227 295.822142 
C 334.891227 296.660787 335.224424 297.465197 335.817436 298.058209 
C 336.410448 298.651222 337.214858 298.984419 338.053504 298.984419 
z
" style="fill:#808080;stroke:#808080;stroke-width:0.24;"/>
   </g>
   <g id="PathCollection_2">
    <defs>
     <path d="M 0 5.244044 
C 1.390737 5.244044 2.7247 4.691499 3.708099 3.708099 
C 4.691499 2.7247 5.244044 1.390737 5.244044 0 
C 5.244044 -1.390737 4.691499 -2.7247 3.708099 -3.708099 
C 2.7247 -4.691499 1.390737 -5.244044 0 -5.244044 
C -1.390737 -5.244044 -2.7247 -4.691499 -3.708099 -3.708099 
C -4.691499 -2.7247 -5.244044 -1.390737 -5.244044 0 
C -5.244044 1.390737 -4.691499 2.7247 -3.708099 3.708099 
C -2.7247 4.691499 -1.390737 5.244044 0 5.244044 
z
" id="m30294d6499" style="stroke:#ff0000;stroke-width:0.24;"/>
    </defs>
    <g clip-path="url(#p9509bb9664)">
     <use style="fill:#ff0000;stroke:#ff0000;stroke-width:0.24;" x="380.147408135" xlink:href="#m30294d6499" y="250.679523829"/>
    </g>
   </g>
   <g id="PathCollection_3">
    <defs>
     <path d="M 0 3.162278 
C 0.838646 3.162278 1.643056 2.82908 2.236068 2.236068 
C 2.82908 1.643056 3.162278 0.838646 3.162278 0 
C 3.162278 -0.838646 2.82908 -1.643056 2.236068 -2.236068 
C 1.643056 -2.82908 0.838646 -3.162278 0 -3.162278 
C -0.838646 -3.162278 -1.643056 -2.82908 -2.236068 -2.236068 
C -2.82908 -1.643056 -3.162278 -0.838646 -3.162278 0 
C -3.162278 0.838646 -2.82908 1.643056 -2.236068 2.236068 
C -1.643056 2.82908 -0.838646 3.162278 0 3.162278 
z
" id="m9fabc88e02" style="stroke:#ff0000;stroke-width:0.24;"/>
    </defs>
    <g clip-path="url(#p9509bb9664)">
     <use style="fill:#ff0000;stroke:#ff0000;stroke-width:0.24;" x="431.650803309" xlink:href="#m9fabc88e02" y="358.389669963"/>
    </g>
   </g>
   <g id="PathCollection_4">
    <g clip-path="url(#p9509bb9664)">
     <use style="fill:#ff0000;stroke:#ff0000;stroke-width:0.24;" x="416.366097514" xlink:href="#m9fabc88e02" y="252.494482898"/>
    </g>
   </g>
   <g id="PathCollection_5">
    <defs>
     <path d="M 0 2.236068 
C 0.593012 2.236068 1.161816 2.000462 1.581139 1.581139 
C 2.000462 1.161816 2.236068 0.593012 2.236068 0 
C 2.236068 -0.593012 2.000462 -1.161816 1.581139 -1.581139 
C 1.161816 -2.000462 0.593012 -2.236068 0 -2.236068 
C -0.593012 -2.236068 -1.161816 -2.000462 -1.581139 -1.581139 
C -2.000462 -1.161816 -2.236068 -0.593012 -2.236068 0 
C -2.236068 0.593012 -2.000462 1.161816 -1.581139 1.581139 
C -1.161816 2.000462 -0.593012 2.236068 0 2.236068 
z
" id="m7899200437" style="stroke:#ff0000;stroke-width:0.24;"/>
    </defs>
    <g clip-path="url(#p9509bb9664)">
     <use style="fill:#ff0000;stroke:#ff0000;stroke-width:0.24;" x="346.789697118" xlink:href="#m7899200437" y="364.458490154"/>
    </g>
   </g>
   <g id="PathCollection_6">
    <defs>
     <path d="M 0 3.535534 
C 0.937635 3.535534 1.836992 3.163008 2.5 2.5 
C 3.163008 1.836992 3.535534 0.937635 3.535534 0 
C 3.535534 -0.937635 3.163008 -1.836992 2.5 -2.5 
C 1.836992 -3.163008 0.937635 -3.535534 0 -3.535534 
C -0.937635 -3.535534 -1.836992 -3.163008 -2.5 -2.5 
C -3.163008 -1.836992 -3.535534 -0.937635 -3.535534 0 
C -3.535534 0.937635 -3.163008 1.836992 -2.5 2.5 
C -1.836992 3.163008 -0.937635 3.535534 0 3.535534 
z
" id="m756e7cdd16" style="stroke:#ff0000;stroke-width:0.24;"/>
    </defs>
    <g clip-path="url(#p9509bb9664)">
     <use style="fill:#ff0000;stroke:#ff0000;stroke-width:0.24;" x="339.376156884" xlink:href="#m756e7cdd16" y="248.812419322"/>
    </g>
   </g>
   <g id="line2d_181">
    <path clip-path="url(#p9509bb9664)" d="M 72 518.4 
L 518.4 57.6 
" style="fill:none;stroke:#4c4c4c;stroke-dasharray:6.000000,6.000000;stroke-dashoffset:0.0;stroke-width:1.4;"/>
   </g>
   <g id="patch_3">
    <path d="M 72 57.6 
L 518.4 57.6 
" style="fill:none;stroke:#262626;stroke-linecap:square;stroke-linejoin:miter;stroke-width:1.25;"/>
   </g>
   <g id="patch_4">
    <path d="M 518.4 518.4 
L 518.4 57.6 
" style="fill:none;stroke:#262626;stroke-linecap:square;stroke-linejoin:miter;stroke-width:1.25;"/>
   </g>
   <g id="patch_5">
    <path d="M 72 518.4 
L 518.4 518.4 
" style="fill:none;stroke:#262626;stroke-linecap:square;stroke-linejoin:miter;stroke-width:1.25;"/>
   </g>
   <g id="patch_6">
    <path d="M 72 518.4 
L 72 57.6 
" style="fill:none;stroke:#262626;stroke-linecap:square;stroke-linejoin:miter;stroke-width:1.25;"/>
   </g>
   <g id="text_13">
    <!-- atp -->
    <defs>
     <path d="M 25.78125 7.859375 
L 27.046875 0.09375 
Q 23.34375 -0.6875 20.40625 -0.6875 
Q 15.625 -0.6875 12.984375 0.828125 
Q 10.359375 2.34375 9.28125 4.8125 
Q 8.203125 7.28125 8.203125 15.1875 
L 8.203125 45.015625 
L 1.765625 45.015625 
L 1.765625 51.859375 
L 8.203125 51.859375 
L 8.203125 64.703125 
L 16.9375 69.96875 
L 16.9375 51.859375 
L 25.78125 51.859375 
L 25.78125 45.015625 
L 16.9375 45.015625 
L 16.9375 14.703125 
Q 16.9375 10.9375 17.40625 9.859375 
Q 17.875 8.796875 18.921875 8.15625 
Q 19.96875 7.515625 21.921875 7.515625 
Q 23.390625 7.515625 25.78125 7.859375 
" id="ArialMT-74"/>
     <path d="M 6.59375 -19.875 
L 6.59375 51.859375 
L 14.59375 51.859375 
L 14.59375 45.125 
Q 17.4375 49.078125 21 51.046875 
Q 24.5625 53.03125 29.640625 53.03125 
Q 36.28125 53.03125 41.359375 49.609375 
Q 46.4375 46.1875 49.015625 39.953125 
Q 51.609375 33.734375 51.609375 26.3125 
Q 51.609375 18.359375 48.75 11.984375 
Q 45.90625 5.609375 40.453125 2.21875 
Q 35.015625 -1.171875 29 -1.171875 
Q 24.609375 -1.171875 21.109375 0.6875 
Q 17.625 2.546875 15.375 5.375 
L 15.375 -19.875 
z
M 14.546875 25.640625 
Q 14.546875 15.625 18.59375 10.84375 
Q 22.65625 6.0625 28.421875 6.0625 
Q 34.28125 6.0625 38.453125 11.015625 
Q 42.625 15.96875 42.625 26.375 
Q 42.625 36.28125 38.546875 41.203125 
Q 34.46875 46.140625 28.8125 46.140625 
Q 23.1875 46.140625 18.859375 40.890625 
Q 14.546875 35.640625 14.546875 25.640625 
" id="ArialMT-70"/>
    </defs>
    <g style="fill:#262626;" transform="translate(387.263713322 250.679523829)scale(0.096 -0.096)">
     <use xlink:href="#ArialMT-61"/>
     <use x="55.615234375" xlink:href="#ArialMT-74"/>
     <use x="83.3984375" xlink:href="#ArialMT-70"/>
    </g>
   </g>
   <g id="text_14">
    <!-- succ -->
    <defs>
     <path d="M 40.4375 19 
L 49.078125 17.875 
Q 47.65625 8.9375 41.8125 3.875 
Q 35.984375 -1.171875 27.484375 -1.171875 
Q 16.84375 -1.171875 10.375 5.78125 
Q 3.90625 12.75 3.90625 25.734375 
Q 3.90625 34.125 6.6875 40.421875 
Q 9.46875 46.734375 15.15625 49.875 
Q 20.84375 53.03125 27.546875 53.03125 
Q 35.984375 53.03125 41.359375 48.75 
Q 46.734375 44.484375 48.25 36.625 
L 39.703125 35.296875 
Q 38.484375 40.53125 35.375 43.15625 
Q 32.28125 45.796875 27.875 45.796875 
Q 21.234375 45.796875 17.078125 41.03125 
Q 12.9375 36.28125 12.9375 25.984375 
Q 12.9375 15.53125 16.9375 10.796875 
Q 20.953125 6.0625 27.390625 6.0625 
Q 32.5625 6.0625 36.03125 9.234375 
Q 39.5 12.40625 40.4375 19 
" id="ArialMT-63"/>
     <path d="M 40.578125 0 
L 40.578125 7.625 
Q 34.515625 -1.171875 24.125 -1.171875 
Q 19.53125 -1.171875 15.546875 0.578125 
Q 11.578125 2.34375 9.640625 5 
Q 7.71875 7.671875 6.9375 11.53125 
Q 6.390625 14.109375 6.390625 19.734375 
L 6.390625 51.859375 
L 15.1875 51.859375 
L 15.1875 23.09375 
Q 15.1875 16.21875 15.71875 13.8125 
Q 16.546875 10.359375 19.234375 8.375 
Q 21.921875 6.390625 25.875 6.390625 
Q 29.828125 6.390625 33.296875 8.421875 
Q 36.765625 10.453125 38.203125 13.9375 
Q 39.65625 17.4375 39.65625 24.078125 
L 39.65625 51.859375 
L 48.4375 51.859375 
L 48.4375 0 
z
" id="ArialMT-75"/>
     <path d="M 3.078125 15.484375 
L 11.765625 16.84375 
Q 12.5 11.625 15.84375 8.84375 
Q 19.1875 6.0625 25.203125 6.0625 
Q 31.25 6.0625 34.171875 8.515625 
Q 37.109375 10.984375 37.109375 14.3125 
Q 37.109375 17.28125 34.515625 19 
Q 32.71875 20.171875 25.53125 21.96875 
Q 15.875 24.421875 12.140625 26.203125 
Q 8.40625 27.984375 6.46875 31.125 
Q 4.546875 34.28125 4.546875 38.09375 
Q 4.546875 41.546875 6.125 44.5 
Q 7.71875 47.46875 10.453125 49.421875 
Q 12.5 50.921875 16.03125 51.96875 
Q 19.578125 53.03125 23.640625 53.03125 
Q 29.734375 53.03125 34.34375 51.265625 
Q 38.96875 49.515625 41.15625 46.5 
Q 43.359375 43.5 44.1875 38.484375 
L 35.59375 37.3125 
Q 35.015625 41.3125 32.203125 43.546875 
Q 29.390625 45.796875 24.265625 45.796875 
Q 18.21875 45.796875 15.625 43.796875 
Q 13.03125 41.796875 13.03125 39.109375 
Q 13.03125 37.40625 14.109375 36.03125 
Q 15.1875 34.625 17.484375 33.6875 
Q 18.796875 33.203125 25.25 31.453125 
Q 34.578125 28.953125 38.25 27.359375 
Q 41.9375 25.78125 44.03125 22.75 
Q 46.140625 19.734375 46.140625 15.234375 
Q 46.140625 10.84375 43.578125 6.953125 
Q 41.015625 3.078125 36.171875 0.953125 
Q 31.34375 -1.171875 25.25 -1.171875 
Q 15.140625 -1.171875 9.84375 3.03125 
Q 4.546875 7.234375 3.078125 15.484375 
" id="ArialMT-73"/>
    </defs>
    <g style="fill:#262626;" transform="translate(438.767108496 358.389669963)scale(0.096 -0.096)">
     <use xlink:href="#ArialMT-73"/>
     <use x="50.0" xlink:href="#ArialMT-75"/>
     <use x="105.615234375" xlink:href="#ArialMT-63"/>
     <use x="155.615234375" xlink:href="#ArialMT-63"/>
    </g>
   </g>
   <g id="text_15">
    <!-- met__l -->
    <defs>
     <path d="M 6.390625 0 
L 6.390625 71.578125 
L 15.1875 71.578125 
L 15.1875 0 
z
" id="ArialMT-6c"/>
     <path d="M -1.515625 -19.875 
L -1.515625 -13.53125 
L 56.734375 -13.53125 
L 56.734375 -19.875 
z
" id="ArialMT-5f"/>
     <path d="M 6.59375 0 
L 6.59375 51.859375 
L 14.453125 51.859375 
L 14.453125 44.578125 
Q 16.890625 48.390625 20.9375 50.703125 
Q 25 53.03125 30.171875 53.03125 
Q 35.9375 53.03125 39.625 50.640625 
Q 43.3125 48.25 44.828125 43.953125 
Q 50.984375 53.03125 60.84375 53.03125 
Q 68.5625 53.03125 72.703125 48.75 
Q 76.859375 44.484375 76.859375 35.59375 
L 76.859375 0 
L 68.109375 0 
L 68.109375 32.671875 
Q 68.109375 37.9375 67.25 40.25 
Q 66.40625 42.578125 64.15625 43.984375 
Q 61.921875 45.40625 58.890625 45.40625 
Q 53.421875 45.40625 49.796875 41.765625 
Q 46.1875 38.140625 46.1875 30.125 
L 46.1875 0 
L 37.40625 0 
L 37.40625 33.6875 
Q 37.40625 39.546875 35.25 42.46875 
Q 33.109375 45.40625 28.21875 45.40625 
Q 24.515625 45.40625 21.359375 43.453125 
Q 18.21875 41.5 16.796875 37.734375 
Q 15.375 33.984375 15.375 26.90625 
L 15.375 0 
z
" id="ArialMT-6d"/>
    </defs>
    <g style="fill:#262626;" transform="translate(423.482402701 252.494482898)scale(0.096 -0.096)">
     <use xlink:href="#ArialMT-6d"/>
     <use x="83.30078125" xlink:href="#ArialMT-65"/>
     <use x="138.916015625" xlink:href="#ArialMT-74"/>
     <use x="166.69921875" xlink:href="#ArialMT-5f"/>
     <use x="222.314453125" xlink:href="#ArialMT-5f"/>
     <use x="277.9296875" xlink:href="#ArialMT-6c"/>
    </g>
   </g>
   <g id="text_16">
    <!-- dgmp -->
    <defs>
     <path d="M 4.984375 -4.296875 
L 13.53125 -5.5625 
Q 14.0625 -9.515625 16.5 -11.328125 
Q 19.78125 -13.765625 25.4375 -13.765625 
Q 31.546875 -13.765625 34.859375 -11.328125 
Q 38.1875 -8.890625 39.359375 -4.5 
Q 40.046875 -1.8125 39.984375 6.78125 
Q 34.234375 0 25.640625 0 
Q 14.9375 0 9.078125 7.71875 
Q 3.21875 15.4375 3.21875 26.21875 
Q 3.21875 33.640625 5.90625 39.90625 
Q 8.59375 46.1875 13.6875 49.609375 
Q 18.796875 53.03125 25.6875 53.03125 
Q 34.859375 53.03125 40.828125 45.609375 
L 40.828125 51.859375 
L 48.921875 51.859375 
L 48.921875 7.03125 
Q 48.921875 -5.078125 46.453125 -10.125 
Q 44 -15.1875 38.640625 -18.109375 
Q 33.296875 -21.046875 25.484375 -21.046875 
Q 16.21875 -21.046875 10.5 -16.875 
Q 4.78125 -12.703125 4.984375 -4.296875 
M 12.25 26.859375 
Q 12.25 16.65625 16.296875 11.96875 
Q 20.359375 7.28125 26.46875 7.28125 
Q 32.515625 7.28125 36.609375 11.9375 
Q 40.71875 16.609375 40.71875 26.5625 
Q 40.71875 36.078125 36.5 40.90625 
Q 32.28125 45.75 26.3125 45.75 
Q 20.453125 45.75 16.34375 40.984375 
Q 12.25 36.234375 12.25 26.859375 
" id="ArialMT-67"/>
     <path d="M 40.234375 0 
L 40.234375 6.546875 
Q 35.296875 -1.171875 25.734375 -1.171875 
Q 19.53125 -1.171875 14.328125 2.25 
Q 9.125 5.671875 6.265625 11.796875 
Q 3.421875 17.921875 3.421875 25.875 
Q 3.421875 33.640625 6 39.96875 
Q 8.59375 46.296875 13.765625 49.65625 
Q 18.953125 53.03125 25.34375 53.03125 
Q 30.03125 53.03125 33.6875 51.046875 
Q 37.359375 49.078125 39.65625 45.90625 
L 39.65625 71.578125 
L 48.390625 71.578125 
L 48.390625 0 
z
M 12.453125 25.875 
Q 12.453125 15.921875 16.640625 10.984375 
Q 20.84375 6.0625 26.5625 6.0625 
Q 32.328125 6.0625 36.34375 10.765625 
Q 40.375 15.484375 40.375 25.140625 
Q 40.375 35.796875 36.265625 40.765625 
Q 32.171875 45.75 26.171875 45.75 
Q 20.3125 45.75 16.375 40.96875 
Q 12.453125 36.1875 12.453125 25.875 
" id="ArialMT-64"/>
    </defs>
    <g style="fill:#262626;" transform="translate(353.906002305 364.458490154)scale(0.096 -0.096)">
     <use xlink:href="#ArialMT-64"/>
     <use x="55.615234375" xlink:href="#ArialMT-67"/>
     <use x="111.23046875" xlink:href="#ArialMT-6d"/>
     <use x="194.53125" xlink:href="#ArialMT-70"/>
    </g>
   </g>
   <g id="text_17">
    <!-- pi -->
    <defs>
     <path d="M 6.640625 61.46875 
L 6.640625 71.578125 
L 15.4375 71.578125 
L 15.4375 61.46875 
z
M 6.640625 0 
L 6.640625 51.859375 
L 15.4375 51.859375 
L 15.4375 0 
z
" id="ArialMT-69"/>
    </defs>
    <g style="fill:#262626;" transform="translate(346.492462071 248.812419322)scale(0.096 -0.096)">
     <use xlink:href="#ArialMT-70"/>
     <use x="55.615234375" xlink:href="#ArialMT-69"/>
    </g>
   </g>
  </g>
 </g>
 <defs>
  <clipPath id="p9509bb9664">
   <rect height="460.8" width="446.4" x="72.0" y="57.6"/>
  </clipPath>
 </defs>
</svg>
