<?xml version="1.0" encoding="utf-8" standalone="no"?>
<!DOCTYPE svg PUBLIC "-//W3C//DTD SVG 1.1//EN"
  "http://www.w3.org/Graphics/SVG/1.1/DTD/svg11.dtd">
<!-- Created with matplotlib (http://matplotlib.org/) -->
<svg height="216pt" version="1.1" viewBox="0 0 540 216" width="540pt" xmlns="http://www.w3.org/2000/svg" xmlns:xlink="http://www.w3.org/1999/xlink">
 <defs>
  <style type="text/css">
*{stroke-linecap:butt;stroke-linejoin:round;stroke-miterlimit:100000;}
  </style>
 </defs>
 <g id="figure_1">
  <g id="patch_1">
   <path d="M 0 216 
L 540 216 
L 540 0 
L 0 0 
z
" style="fill:#ffffff;"/>
  </g>
  <g id="axes_1">
   <g id="patch_2">
    <path d="M 39.720344 173.22575 
L 189.86011 173.22575 
L 189.86011 24.368 
L 39.720344 24.368 
z
" style="fill:#ffffff;"/>
   </g>
   <g id="matplotlib.axis_1">
    <g id="xtick_1">
     <g id="line2d_1"/>
     <g id="line2d_2"/>
     <g id="text_1">
      <!-- 0.01 -->
      <defs>
       <path d="M 4.15625 35.296875 
Q 4.15625 48 6.765625 55.734375 
Q 9.375 63.484375 14.515625 67.671875 
Q 19.671875 71.875 27.484375 71.875 
Q 33.25 71.875 37.59375 69.546875 
Q 41.9375 67.234375 44.765625 62.859375 
Q 47.609375 58.5 49.21875 52.21875 
Q 50.828125 45.953125 50.828125 35.296875 
Q 50.828125 22.703125 48.234375 14.96875 
Q 45.65625 7.234375 40.5 3 
Q 35.359375 -1.21875 27.484375 -1.21875 
Q 17.140625 -1.21875 11.234375 6.203125 
Q 4.15625 15.140625 4.15625 35.296875 
M 13.1875 35.296875 
Q 13.1875 17.671875 17.3125 11.828125 
Q 21.4375 6 27.484375 6 
Q 33.546875 6 37.671875 11.859375 
Q 41.796875 17.71875 41.796875 35.296875 
Q 41.796875 52.984375 37.671875 58.78125 
Q 33.546875 64.59375 27.390625 64.59375 
Q 21.34375 64.59375 17.71875 59.46875 
Q 13.1875 52.9375 13.1875 35.296875 
" id="ArialMT-30"/>
       <path d="M 37.25 0 
L 28.46875 0 
L 28.46875 56 
Q 25.296875 52.984375 20.140625 49.953125 
Q 14.984375 46.921875 10.890625 45.40625 
L 10.890625 53.90625 
Q 18.265625 57.375 23.78125 62.296875 
Q 29.296875 67.234375 31.59375 71.875 
L 37.25 71.875 
z
" id="ArialMT-31"/>
       <path d="M 9.078125 0 
L 9.078125 10.015625 
L 19.09375 10.015625 
L 19.09375 0 
z
" id="ArialMT-2e"/>
      </defs>
      <g style="fill:#262626;" transform="translate(35.5107250825 184.551999714)scale(0.08 -0.08)">
       <use xlink:href="#ArialMT-30"/>
       <use x="55.615234375" xlink:href="#ArialMT-2e"/>
       <use x="83.3984375" xlink:href="#ArialMT-30"/>
       <use x="139.013671875" xlink:href="#ArialMT-31"/>
      </g>
     </g>
    </g>
    <g id="xtick_2">
     <g id="line2d_3"/>
     <g id="line2d_4"/>
     <g id="text_2">
      <!-- 0.1 -->
      <g style="fill:#262626;" transform="translate(73.4826634078 184.551999714)scale(0.08 -0.08)">
       <use xlink:href="#ArialMT-30"/>
       <use x="55.615234375" xlink:href="#ArialMT-2e"/>
       <use x="83.3984375" xlink:href="#ArialMT-31"/>
      </g>
     </g>
    </g>
    <g id="xtick_3">
     <g id="line2d_5"/>
     <g id="line2d_6"/>
     <g id="text_3">
      <!-- 1 -->
      <g style="fill:#262626;" transform="translate(112.565851733 184.551999714)scale(0.08 -0.08)">
       <use xlink:href="#ArialMT-31"/>
      </g>
     </g>
    </g>
    <g id="xtick_4">
     <g id="line2d_7"/>
     <g id="line2d_8"/>
     <g id="text_4">
      <!-- 10 -->
      <g style="fill:#262626;" transform="translate(146.089040058 184.551999714)scale(0.08 -0.08)">
       <use xlink:href="#ArialMT-31"/>
       <use x="55.615234375" xlink:href="#ArialMT-30"/>
      </g>
     </g>
    </g>
    <g id="xtick_5">
     <g id="line2d_9"/>
     <g id="line2d_10"/>
     <g id="text_5">
      <!-- 100 -->
      <g style="fill:#262626;" transform="translate(179.612228384 184.551999714)scale(0.08 -0.08)">
       <use xlink:href="#ArialMT-31"/>
       <use x="55.615234375" xlink:href="#ArialMT-30"/>
       <use x="111.23046875" xlink:href="#ArialMT-30"/>
      </g>
     </g>
    </g>
    <g id="text_6">
     <!-- $[S]$ (in mM) -->
     <defs>
      <path d="M 2.203125 -25 
L 2.203125 -21 
L 11.921875 -21 
L 11.921875 71 
L 2.203125 71 
L 2.203125 75 
L 15.921875 75 
L 15.921875 -25 
z
" id="Cmr10-5d"/>
      <path d="M 12.359375 -21.046875 
L 6.0625 -21.046875 
Q 20.65625 2.390625 20.65625 25.875 
Q 20.65625 35.0625 18.5625 44.09375 
Q 16.890625 51.421875 13.921875 58.15625 
Q 12.015625 62.546875 6.0625 72.796875 
L 12.359375 72.796875 
Q 21.53125 60.546875 25.921875 48.1875 
Q 29.6875 37.546875 29.6875 25.921875 
Q 29.6875 12.75 24.625 0.4375 
Q 19.578125 -11.859375 12.359375 -21.046875 
" id="ArialMT-29"/>
      <path d="M 11.8125 -25 
L 11.8125 75 
L 25.484375 75 
L 25.484375 71 
L 15.828125 71 
L 15.828125 -21 
L 25.484375 -21 
L 25.484375 -25 
z
" id="Cmr10-5b"/>
      <path d="M 6.640625 61.46875 
L 6.640625 71.578125 
L 15.4375 71.578125 
L 15.4375 61.46875 
z
M 6.640625 0 
L 6.640625 51.859375 
L 15.4375 51.859375 
L 15.4375 0 
z
" id="ArialMT-69"/>
      <path d="M 6.109375 -2.203125 
Q 5.8125 -2.203125 5.5625 -1.859375 
Q 5.328125 -1.515625 5.328125 -1.21875 
L 11.078125 22.125 
Q 11.28125 22.703125 11.921875 22.703125 
L 13.09375 22.703125 
Q 13.484375 22.703125 13.703125 22.40625 
Q 13.921875 22.125 13.921875 21.6875 
Q 13.09375 18.265625 13.09375 15.578125 
Q 13.09375 8.34375 18.0625 4.828125 
Q 23.046875 1.3125 30.609375 1.3125 
Q 33.890625 1.3125 37.0625 2.921875 
Q 40.234375 4.546875 42.59375 7.125 
Q 44.96875 9.71875 46.375 12.90625 
Q 47.796875 16.109375 47.796875 19.390625 
Q 47.796875 22.90625 45.9375 25.65625 
Q 44.09375 28.421875 40.828125 29.203125 
L 28.609375 32.421875 
Q 23.6875 33.734375 20.75 37.71875 
Q 17.828125 41.703125 17.828125 46.6875 
Q 17.828125 52.6875 21.390625 58.25 
Q 24.953125 63.8125 30.6875 67.15625 
Q 36.421875 70.515625 42.390625 70.515625 
Q 46.96875 70.515625 50.796875 68.828125 
Q 54.640625 67.140625 56.6875 63.484375 
L 62.40625 70.21875 
Q 62.984375 70.515625 63.09375 70.515625 
L 63.71875 70.515625 
Q 64.109375 70.515625 64.34375 70.171875 
Q 64.59375 69.828125 64.59375 69.484375 
L 58.796875 46.296875 
Q 58.640625 45.609375 58.015625 45.609375 
L 56.78125 45.609375 
Q 55.90625 45.609375 55.90625 46.6875 
Q 56.390625 49.859375 56.390625 52.203125 
Q 56.390625 56.84375 54.796875 60.28125 
Q 53.21875 63.71875 50.015625 65.5 
Q 46.828125 67.28125 42.09375 67.28125 
Q 38.09375 67.28125 34.125 64.984375 
Q 30.171875 62.703125 27.734375 58.890625 
Q 25.296875 55.078125 25.296875 50.984375 
Q 25.296875 47.75 27.171875 45.265625 
Q 29.046875 42.78125 32.171875 41.890625 
L 44.390625 38.71875 
Q 47.703125 37.84375 50.171875 35.625 
Q 52.640625 33.40625 53.90625 30.34375 
Q 55.171875 27.296875 55.171875 23.6875 
Q 55.171875 18.953125 53.171875 14.328125 
Q 51.171875 9.71875 47.578125 5.90625 
Q 44 2.09375 39.453125 -0.046875 
Q 34.90625 -2.203125 30.171875 -2.203125 
Q 18.265625 -2.203125 13.09375 4.78125 
L 7.515625 -1.90625 
Q 6.9375 -2.203125 6.78125 -2.203125 
z
" id="Cmmi10-53"/>
      <path d="M 6.59375 0 
L 6.59375 51.859375 
L 14.453125 51.859375 
L 14.453125 44.578125 
Q 16.890625 48.390625 20.9375 50.703125 
Q 25 53.03125 30.171875 53.03125 
Q 35.9375 53.03125 39.625 50.640625 
Q 43.3125 48.25 44.828125 43.953125 
Q 50.984375 53.03125 60.84375 53.03125 
Q 68.5625 53.03125 72.703125 48.75 
Q 76.859375 44.484375 76.859375 35.59375 
L 76.859375 0 
L 68.109375 0 
L 68.109375 32.671875 
Q 68.109375 37.9375 67.25 40.25 
Q 66.40625 42.578125 64.15625 43.984375 
Q 61.921875 45.40625 58.890625 45.40625 
Q 53.421875 45.40625 49.796875 41.765625 
Q 46.1875 38.140625 46.1875 30.125 
L 46.1875 0 
L 37.40625 0 
L 37.40625 33.6875 
Q 37.40625 39.546875 35.25 42.46875 
Q 33.109375 45.40625 28.21875 45.40625 
Q 24.515625 45.40625 21.359375 43.453125 
Q 18.21875 41.5 16.796875 37.734375 
Q 15.375 33.984375 15.375 26.90625 
L 15.375 0 
z
" id="ArialMT-6d"/>
      <path d="M 6.59375 0 
L 6.59375 51.859375 
L 14.5 51.859375 
L 14.5 44.484375 
Q 20.21875 53.03125 31 53.03125 
Q 35.6875 53.03125 39.625 51.34375 
Q 43.5625 49.65625 45.515625 46.921875 
Q 47.46875 44.1875 48.25 40.4375 
Q 48.734375 37.984375 48.734375 31.890625 
L 48.734375 0 
L 39.9375 0 
L 39.9375 31.546875 
Q 39.9375 36.921875 38.90625 39.578125 
Q 37.890625 42.234375 35.28125 43.8125 
Q 32.671875 45.40625 29.15625 45.40625 
Q 23.53125 45.40625 19.453125 41.84375 
Q 15.375 38.28125 15.375 28.328125 
L 15.375 0 
z
" id="ArialMT-6e"/>
      <path d="M 23.390625 -21.046875 
Q 16.109375 -11.859375 11.078125 0.4375 
Q 6.0625 12.75 6.0625 25.921875 
Q 6.0625 37.546875 9.8125 48.1875 
Q 14.203125 60.546875 23.390625 72.796875 
L 29.6875 72.796875 
Q 23.78125 62.640625 21.875 58.296875 
Q 18.890625 51.5625 17.1875 44.234375 
Q 15.09375 35.109375 15.09375 25.875 
Q 15.09375 2.390625 29.6875 -21.046875 
z
" id="ArialMT-28"/>
      <path d="M 7.421875 0 
L 7.421875 71.578125 
L 21.6875 71.578125 
L 38.625 20.90625 
Q 40.96875 13.8125 42.046875 10.296875 
Q 43.265625 14.203125 45.84375 21.78125 
L 62.984375 71.578125 
L 75.734375 71.578125 
L 75.734375 0 
L 66.609375 0 
L 66.609375 59.90625 
L 45.796875 0 
L 37.25 0 
L 16.546875 60.9375 
L 16.546875 0 
z
" id="ArialMT-4d"/>
      <path id="ArialMT-20"/>
     </defs>
     <g style="fill:#262626;" transform="translate(93.4942267332 197.741999714)scale(0.088 -0.088)">
      <use xlink:href="#Cmr10-5b"/>
      <use transform="translate(27.685546875 0.0)" xlink:href="#Cmmi10-53"/>
      <use transform="translate(88.96484375 0.0)" xlink:href="#Cmr10-5d"/>
      <use transform="translate(116.650390625 0.0)" xlink:href="#ArialMT-20"/>
      <use transform="translate(144.43359375 0.0)" xlink:href="#ArialMT-28"/>
      <use transform="translate(177.734375 0.0)" xlink:href="#ArialMT-69"/>
      <use transform="translate(199.951171875 0.0)" xlink:href="#ArialMT-6e"/>
      <use transform="translate(255.56640625 0.0)" xlink:href="#ArialMT-20"/>
      <use transform="translate(283.349609375 0.0)" xlink:href="#ArialMT-6d"/>
      <use transform="translate(366.650390625 0.0)" xlink:href="#ArialMT-4d"/>
      <use transform="translate(449.951171875 0.0)" xlink:href="#ArialMT-29"/>
     </g>
    </g>
   </g>
   <g id="matplotlib.axis_2">
    <g id="ytick_1">
     <g id="line2d_11"/>
     <g id="line2d_12"/>
     <g id="text_7">
      <!-- 0.0 -->
      <g style="fill:#262626;" transform="translate(23.00034375 175.293874714)scale(0.08 -0.08)">
       <use xlink:href="#ArialMT-30"/>
       <use x="55.615234375" xlink:href="#ArialMT-2e"/>
       <use x="83.3984375" xlink:href="#ArialMT-30"/>
      </g>
     </g>
    </g>
    <g id="ytick_2">
     <g id="line2d_13"/>
     <g id="line2d_14"/>
     <g id="text_8">
      <!-- 0.2 -->
      <defs>
       <path d="M 50.34375 8.453125 
L 50.34375 0 
L 3.03125 0 
Q 2.9375 3.171875 4.046875 6.109375 
Q 5.859375 10.9375 9.828125 15.625 
Q 13.8125 20.3125 21.34375 26.46875 
Q 33.015625 36.03125 37.109375 41.625 
Q 41.21875 47.21875 41.21875 52.203125 
Q 41.21875 57.421875 37.46875 61 
Q 33.734375 64.59375 27.734375 64.59375 
Q 21.390625 64.59375 17.578125 60.78125 
Q 13.765625 56.984375 13.71875 50.25 
L 4.6875 51.171875 
Q 5.609375 61.28125 11.65625 66.578125 
Q 17.71875 71.875 27.9375 71.875 
Q 38.234375 71.875 44.234375 66.15625 
Q 50.25 60.453125 50.25 52 
Q 50.25 47.703125 48.484375 43.546875 
Q 46.734375 39.40625 42.65625 34.8125 
Q 38.578125 30.21875 29.109375 22.21875 
Q 21.1875 15.578125 18.9375 13.203125 
Q 16.703125 10.84375 15.234375 8.453125 
z
" id="ArialMT-32"/>
      </defs>
      <g style="fill:#262626;" transform="translate(23.00034375 145.522324771)scale(0.08 -0.08)">
       <use xlink:href="#ArialMT-30"/>
       <use x="55.615234375" xlink:href="#ArialMT-2e"/>
       <use x="83.3984375" xlink:href="#ArialMT-32"/>
      </g>
     </g>
    </g>
    <g id="ytick_3">
     <g id="line2d_15"/>
     <g id="line2d_16"/>
     <g id="text_9">
      <!-- 0.4 -->
      <defs>
       <path d="M 32.328125 0 
L 32.328125 17.140625 
L 1.265625 17.140625 
L 1.265625 25.203125 
L 33.9375 71.578125 
L 41.109375 71.578125 
L 41.109375 25.203125 
L 50.78125 25.203125 
L 50.78125 17.140625 
L 41.109375 17.140625 
L 41.109375 0 
z
M 32.328125 25.203125 
L 32.328125 57.46875 
L 9.90625 25.203125 
z
" id="ArialMT-34"/>
      </defs>
      <g style="fill:#262626;" transform="translate(23.00034375 115.750774828)scale(0.08 -0.08)">
       <use xlink:href="#ArialMT-30"/>
       <use x="55.615234375" xlink:href="#ArialMT-2e"/>
       <use x="83.3984375" xlink:href="#ArialMT-34"/>
      </g>
     </g>
    </g>
    <g id="ytick_4">
     <g id="line2d_17"/>
     <g id="line2d_18"/>
     <g id="text_10">
      <!-- 0.6 -->
      <defs>
       <path d="M 49.75 54.046875 
L 41.015625 53.375 
Q 39.84375 58.546875 37.703125 60.890625 
Q 34.125 64.65625 28.90625 64.65625 
Q 24.703125 64.65625 21.53125 62.3125 
Q 17.390625 59.28125 14.984375 53.46875 
Q 12.59375 47.65625 12.5 36.921875 
Q 15.671875 41.75 20.265625 44.09375 
Q 24.859375 46.4375 29.890625 46.4375 
Q 38.671875 46.4375 44.84375 39.96875 
Q 51.03125 33.5 51.03125 23.25 
Q 51.03125 16.5 48.125 10.71875 
Q 45.21875 4.9375 40.140625 1.859375 
Q 35.0625 -1.21875 28.609375 -1.21875 
Q 17.625 -1.21875 10.6875 6.859375 
Q 3.765625 14.9375 3.765625 33.5 
Q 3.765625 54.25 11.421875 63.671875 
Q 18.109375 71.875 29.4375 71.875 
Q 37.890625 71.875 43.28125 67.140625 
Q 48.6875 62.40625 49.75 54.046875 
M 13.875 23.1875 
Q 13.875 18.65625 15.796875 14.5 
Q 17.71875 10.359375 21.1875 8.171875 
Q 24.65625 6 28.46875 6 
Q 34.03125 6 38.03125 10.484375 
Q 42.046875 14.984375 42.046875 22.703125 
Q 42.046875 30.125 38.078125 34.390625 
Q 34.125 38.671875 28.125 38.671875 
Q 22.171875 38.671875 18.015625 34.390625 
Q 13.875 30.125 13.875 23.1875 
" id="ArialMT-36"/>
      </defs>
      <g style="fill:#262626;" transform="translate(23.00034375 85.9792248856)scale(0.08 -0.08)">
       <use xlink:href="#ArialMT-30"/>
       <use x="55.615234375" xlink:href="#ArialMT-2e"/>
       <use x="83.3984375" xlink:href="#ArialMT-36"/>
      </g>
     </g>
    </g>
    <g id="ytick_5">
     <g id="line2d_19"/>
     <g id="line2d_20"/>
     <g id="text_11">
      <!-- 0.8 -->
      <defs>
       <path d="M 17.671875 38.8125 
Q 12.203125 40.828125 9.5625 44.53125 
Q 6.9375 48.25 6.9375 53.421875 
Q 6.9375 61.234375 12.546875 66.546875 
Q 18.171875 71.875 27.484375 71.875 
Q 36.859375 71.875 42.578125 66.421875 
Q 48.296875 60.984375 48.296875 53.171875 
Q 48.296875 48.1875 45.671875 44.5 
Q 43.0625 40.828125 37.75 38.8125 
Q 44.34375 36.671875 47.78125 31.875 
Q 51.21875 27.09375 51.21875 20.453125 
Q 51.21875 11.28125 44.71875 5.03125 
Q 38.234375 -1.21875 27.640625 -1.21875 
Q 17.046875 -1.21875 10.546875 5.046875 
Q 4.046875 11.328125 4.046875 20.703125 
Q 4.046875 27.6875 7.59375 32.390625 
Q 11.140625 37.109375 17.671875 38.8125 
M 15.921875 53.71875 
Q 15.921875 48.640625 19.1875 45.40625 
Q 22.46875 42.1875 27.6875 42.1875 
Q 32.765625 42.1875 36.015625 45.375 
Q 39.265625 48.578125 39.265625 53.21875 
Q 39.265625 58.0625 35.90625 61.359375 
Q 32.5625 64.65625 27.59375 64.65625 
Q 22.5625 64.65625 19.234375 61.421875 
Q 15.921875 58.203125 15.921875 53.71875 
M 13.09375 20.65625 
Q 13.09375 16.890625 14.875 13.375 
Q 16.65625 9.859375 20.171875 7.921875 
Q 23.6875 6 27.734375 6 
Q 34.03125 6 38.125 10.046875 
Q 42.234375 14.109375 42.234375 20.359375 
Q 42.234375 26.703125 38.015625 30.859375 
Q 33.796875 35.015625 27.4375 35.015625 
Q 21.234375 35.015625 17.15625 30.90625 
Q 13.09375 26.8125 13.09375 20.65625 
" id="ArialMT-38"/>
      </defs>
      <g style="fill:#262626;" transform="translate(23.00034375 56.2076749428)scale(0.08 -0.08)">
       <use xlink:href="#ArialMT-30"/>
       <use x="55.615234375" xlink:href="#ArialMT-2e"/>
       <use x="83.3984375" xlink:href="#ArialMT-38"/>
      </g>
     </g>
    </g>
    <g id="ytick_6">
     <g id="line2d_21"/>
     <g id="line2d_22"/>
     <g id="text_12">
      <!-- 1.0 -->
      <g style="fill:#262626;" transform="translate(23.00034375 26.436125)scale(0.08 -0.08)">
       <use xlink:href="#ArialMT-31"/>
       <use x="55.615234375" xlink:href="#ArialMT-2e"/>
       <use x="83.3984375" xlink:href="#ArialMT-30"/>
      </g>
     </g>
    </g>
    <g id="text_13">
     <!-- Cumulative distribution -->
     <defs>
      <path d="M 14.703125 0 
L 6.546875 0 
L 6.546875 71.578125 
L 15.328125 71.578125 
L 15.328125 46.046875 
Q 20.90625 53.03125 29.546875 53.03125 
Q 34.328125 53.03125 38.59375 51.09375 
Q 42.875 49.171875 45.625 45.671875 
Q 48.390625 42.1875 49.953125 37.25 
Q 51.515625 32.328125 51.515625 26.703125 
Q 51.515625 13.375 44.921875 6.09375 
Q 38.328125 -1.171875 29.109375 -1.171875 
Q 19.921875 -1.171875 14.703125 6.5 
z
M 14.59375 26.3125 
Q 14.59375 17 17.140625 12.84375 
Q 21.296875 6.0625 28.375 6.0625 
Q 34.125 6.0625 38.328125 11.0625 
Q 42.53125 16.0625 42.53125 25.984375 
Q 42.53125 36.140625 38.5 40.96875 
Q 34.46875 45.796875 28.765625 45.796875 
Q 23 45.796875 18.796875 40.796875 
Q 14.59375 35.796875 14.59375 26.3125 
" id="ArialMT-62"/>
      <path d="M 40.4375 6.390625 
Q 35.546875 2.25 31.03125 0.53125 
Q 26.515625 -1.171875 21.34375 -1.171875 
Q 12.796875 -1.171875 8.203125 3 
Q 3.609375 7.171875 3.609375 13.671875 
Q 3.609375 17.484375 5.34375 20.625 
Q 7.078125 23.78125 9.890625 25.6875 
Q 12.703125 27.59375 16.21875 28.5625 
Q 18.796875 29.25 24.03125 29.890625 
Q 34.671875 31.15625 39.703125 32.90625 
Q 39.75 34.71875 39.75 35.203125 
Q 39.75 40.578125 37.25 42.78125 
Q 33.890625 45.75 27.25 45.75 
Q 21.046875 45.75 18.09375 43.578125 
Q 15.140625 41.40625 13.71875 35.890625 
L 5.125 37.0625 
Q 6.296875 42.578125 8.984375 45.96875 
Q 11.671875 49.359375 16.75 51.1875 
Q 21.828125 53.03125 28.515625 53.03125 
Q 35.15625 53.03125 39.296875 51.46875 
Q 43.453125 49.90625 45.40625 47.53125 
Q 47.359375 45.171875 48.140625 41.546875 
Q 48.578125 39.3125 48.578125 33.453125 
L 48.578125 21.734375 
Q 48.578125 9.46875 49.140625 6.21875 
Q 49.703125 2.984375 51.375 0 
L 42.1875 0 
Q 40.828125 2.734375 40.4375 6.390625 
M 39.703125 26.03125 
Q 34.90625 24.078125 25.34375 22.703125 
Q 19.921875 21.921875 17.671875 20.9375 
Q 15.4375 19.96875 14.203125 18.09375 
Q 12.984375 16.21875 12.984375 13.921875 
Q 12.984375 10.40625 15.640625 8.0625 
Q 18.3125 5.71875 23.4375 5.71875 
Q 28.515625 5.71875 32.46875 7.9375 
Q 36.421875 10.15625 38.28125 14.015625 
Q 39.703125 17 39.703125 22.796875 
z
" id="ArialMT-61"/>
      <path d="M 42.09375 16.703125 
L 51.171875 15.578125 
Q 49.03125 7.625 43.21875 3.21875 
Q 37.40625 -1.171875 28.375 -1.171875 
Q 17 -1.171875 10.328125 5.828125 
Q 3.65625 12.84375 3.65625 25.484375 
Q 3.65625 38.578125 10.390625 45.796875 
Q 17.140625 53.03125 27.875 53.03125 
Q 38.28125 53.03125 44.875 45.953125 
Q 51.46875 38.875 51.46875 26.03125 
Q 51.46875 25.25 51.421875 23.6875 
L 12.75 23.6875 
Q 13.234375 15.140625 17.578125 10.59375 
Q 21.921875 6.0625 28.421875 6.0625 
Q 33.25 6.0625 36.671875 8.59375 
Q 40.09375 11.140625 42.09375 16.703125 
M 13.234375 30.90625 
L 42.1875 30.90625 
Q 41.609375 37.453125 38.875 40.71875 
Q 34.671875 45.796875 27.984375 45.796875 
Q 21.921875 45.796875 17.796875 41.75 
Q 13.671875 37.703125 13.234375 30.90625 
" id="ArialMT-65"/>
      <path d="M 40.234375 0 
L 40.234375 6.546875 
Q 35.296875 -1.171875 25.734375 -1.171875 
Q 19.53125 -1.171875 14.328125 2.25 
Q 9.125 5.671875 6.265625 11.796875 
Q 3.421875 17.921875 3.421875 25.875 
Q 3.421875 33.640625 6 39.96875 
Q 8.59375 46.296875 13.765625 49.65625 
Q 18.953125 53.03125 25.34375 53.03125 
Q 30.03125 53.03125 33.6875 51.046875 
Q 37.359375 49.078125 39.65625 45.90625 
L 39.65625 71.578125 
L 48.390625 71.578125 
L 48.390625 0 
z
M 12.453125 25.875 
Q 12.453125 15.921875 16.640625 10.984375 
Q 20.84375 6.0625 26.5625 6.0625 
Q 32.328125 6.0625 36.34375 10.765625 
Q 40.375 15.484375 40.375 25.140625 
Q 40.375 35.796875 36.265625 40.765625 
Q 32.171875 45.75 26.171875 45.75 
Q 20.3125 45.75 16.375 40.96875 
Q 12.453125 36.1875 12.453125 25.875 
" id="ArialMT-64"/>
      <path d="M 25.78125 7.859375 
L 27.046875 0.09375 
Q 23.34375 -0.6875 20.40625 -0.6875 
Q 15.625 -0.6875 12.984375 0.828125 
Q 10.359375 2.34375 9.28125 4.8125 
Q 8.203125 7.28125 8.203125 15.1875 
L 8.203125 45.015625 
L 1.765625 45.015625 
L 1.765625 51.859375 
L 8.203125 51.859375 
L 8.203125 64.703125 
L 16.9375 69.96875 
L 16.9375 51.859375 
L 25.78125 51.859375 
L 25.78125 45.015625 
L 16.9375 45.015625 
L 16.9375 14.703125 
Q 16.9375 10.9375 17.40625 9.859375 
Q 17.875 8.796875 18.921875 8.15625 
Q 19.96875 7.515625 21.921875 7.515625 
Q 23.390625 7.515625 25.78125 7.859375 
" id="ArialMT-74"/>
      <path d="M 40.578125 0 
L 40.578125 7.625 
Q 34.515625 -1.171875 24.125 -1.171875 
Q 19.53125 -1.171875 15.546875 0.578125 
Q 11.578125 2.34375 9.640625 5 
Q 7.71875 7.671875 6.9375 11.53125 
Q 6.390625 14.109375 6.390625 19.734375 
L 6.390625 51.859375 
L 15.1875 51.859375 
L 15.1875 23.09375 
Q 15.1875 16.21875 15.71875 13.8125 
Q 16.546875 10.359375 19.234375 8.375 
Q 21.921875 6.390625 25.875 6.390625 
Q 29.828125 6.390625 33.296875 8.421875 
Q 36.765625 10.453125 38.203125 13.9375 
Q 39.65625 17.4375 39.65625 24.078125 
L 39.65625 51.859375 
L 48.4375 51.859375 
L 48.4375 0 
z
" id="ArialMT-75"/>
      <path d="M 58.796875 25.09375 
L 68.265625 22.703125 
Q 65.28125 11.03125 57.546875 4.90625 
Q 49.8125 -1.21875 38.625 -1.21875 
Q 27.046875 -1.21875 19.796875 3.484375 
Q 12.546875 8.203125 8.765625 17.140625 
Q 4.984375 26.078125 4.984375 36.328125 
Q 4.984375 47.515625 9.25 55.828125 
Q 13.53125 64.15625 21.40625 68.46875 
Q 29.296875 72.796875 38.765625 72.796875 
Q 49.515625 72.796875 56.828125 67.328125 
Q 64.15625 61.859375 67.046875 51.953125 
L 57.71875 49.75 
Q 55.21875 57.5625 50.484375 61.125 
Q 45.75 64.703125 38.578125 64.703125 
Q 30.328125 64.703125 24.78125 60.734375 
Q 19.234375 56.78125 16.984375 50.109375 
Q 14.75 43.453125 14.75 36.375 
Q 14.75 27.25 17.40625 20.4375 
Q 20.0625 13.625 25.671875 10.25 
Q 31.296875 6.890625 37.84375 6.890625 
Q 45.796875 6.890625 51.3125 11.46875 
Q 56.84375 16.0625 58.796875 25.09375 
" id="ArialMT-43"/>
      <path d="M 6.5 0 
L 6.5 51.859375 
L 14.40625 51.859375 
L 14.40625 44 
Q 17.4375 49.515625 20 51.265625 
Q 22.5625 53.03125 25.640625 53.03125 
Q 30.078125 53.03125 34.671875 50.203125 
L 31.640625 42.046875 
Q 28.421875 43.953125 25.203125 43.953125 
Q 22.3125 43.953125 20.015625 42.21875 
Q 17.71875 40.484375 16.75 37.40625 
Q 15.28125 32.71875 15.28125 27.15625 
L 15.28125 0 
z
" id="ArialMT-72"/>
      <path d="M 3.078125 15.484375 
L 11.765625 16.84375 
Q 12.5 11.625 15.84375 8.84375 
Q 19.1875 6.0625 25.203125 6.0625 
Q 31.25 6.0625 34.171875 8.515625 
Q 37.109375 10.984375 37.109375 14.3125 
Q 37.109375 17.28125 34.515625 19 
Q 32.71875 20.171875 25.53125 21.96875 
Q 15.875 24.421875 12.140625 26.203125 
Q 8.40625 27.984375 6.46875 31.125 
Q 4.546875 34.28125 4.546875 38.09375 
Q 4.546875 41.546875 6.125 44.5 
Q 7.71875 47.46875 10.453125 49.421875 
Q 12.5 50.921875 16.03125 51.96875 
Q 19.578125 53.03125 23.640625 53.03125 
Q 29.734375 53.03125 34.34375 51.265625 
Q 38.96875 49.515625 41.15625 46.5 
Q 43.359375 43.5 44.1875 38.484375 
L 35.59375 37.3125 
Q 35.015625 41.3125 32.203125 43.546875 
Q 29.390625 45.796875 24.265625 45.796875 
Q 18.21875 45.796875 15.625 43.796875 
Q 13.03125 41.796875 13.03125 39.109375 
Q 13.03125 37.40625 14.109375 36.03125 
Q 15.1875 34.625 17.484375 33.6875 
Q 18.796875 33.203125 25.25 31.453125 
Q 34.578125 28.953125 38.25 27.359375 
Q 41.9375 25.78125 44.03125 22.75 
Q 46.140625 19.734375 46.140625 15.234375 
Q 46.140625 10.84375 43.578125 6.953125 
Q 41.015625 3.078125 36.171875 0.953125 
Q 31.34375 -1.171875 25.25 -1.171875 
Q 15.140625 -1.171875 9.84375 3.03125 
Q 4.546875 7.234375 3.078125 15.484375 
" id="ArialMT-73"/>
      <path d="M 6.390625 0 
L 6.390625 71.578125 
L 15.1875 71.578125 
L 15.1875 0 
z
" id="ArialMT-6c"/>
      <path d="M 3.328125 25.921875 
Q 3.328125 40.328125 11.328125 47.265625 
Q 18.015625 53.03125 27.640625 53.03125 
Q 38.328125 53.03125 45.109375 46.015625 
Q 51.90625 39.015625 51.90625 26.65625 
Q 51.90625 16.65625 48.90625 10.90625 
Q 45.90625 5.171875 40.15625 2 
Q 34.421875 -1.171875 27.640625 -1.171875 
Q 16.75 -1.171875 10.03125 5.8125 
Q 3.328125 12.796875 3.328125 25.921875 
M 12.359375 25.921875 
Q 12.359375 15.96875 16.703125 11.015625 
Q 21.046875 6.0625 27.640625 6.0625 
Q 34.1875 6.0625 38.53125 11.03125 
Q 42.875 16.015625 42.875 26.21875 
Q 42.875 35.84375 38.5 40.796875 
Q 34.125 45.75 27.640625 45.75 
Q 21.046875 45.75 16.703125 40.8125 
Q 12.359375 35.890625 12.359375 25.921875 
" id="ArialMT-6f"/>
      <path d="M 21 0 
L 1.265625 51.859375 
L 10.546875 51.859375 
L 21.6875 20.796875 
Q 23.484375 15.765625 25 10.359375 
Q 26.171875 14.453125 28.265625 20.21875 
L 39.796875 51.859375 
L 48.828125 51.859375 
L 29.203125 0 
z
" id="ArialMT-76"/>
     </defs>
     <g style="fill:#262626;" transform="translate(16.25134375 143.303562357)rotate(-90.0)scale(0.088 -0.088)">
      <use xlink:href="#ArialMT-43"/>
      <use x="72.216796875" xlink:href="#ArialMT-75"/>
      <use x="127.83203125" xlink:href="#ArialMT-6d"/>
      <use x="211.1328125" xlink:href="#ArialMT-75"/>
      <use x="266.748046875" xlink:href="#ArialMT-6c"/>
      <use x="288.96484375" xlink:href="#ArialMT-61"/>
      <use x="344.580078125" xlink:href="#ArialMT-74"/>
      <use x="372.36328125" xlink:href="#ArialMT-69"/>
      <use x="394.580078125" xlink:href="#ArialMT-76"/>
      <use x="444.580078125" xlink:href="#ArialMT-65"/>
      <use x="500.1953125" xlink:href="#ArialMT-20"/>
      <use x="527.978515625" xlink:href="#ArialMT-64"/>
      <use x="583.59375" xlink:href="#ArialMT-69"/>
      <use x="605.810546875" xlink:href="#ArialMT-73"/>
      <use x="655.810546875" xlink:href="#ArialMT-74"/>
      <use x="683.59375" xlink:href="#ArialMT-72"/>
      <use x="716.89453125" xlink:href="#ArialMT-69"/>
      <use x="739.111328125" xlink:href="#ArialMT-62"/>
      <use x="794.7265625" xlink:href="#ArialMT-75"/>
      <use x="850.341796875" xlink:href="#ArialMT-74"/>
      <use x="878.125" xlink:href="#ArialMT-69"/>
      <use x="900.341796875" xlink:href="#ArialMT-6f"/>
      <use x="955.95703125" xlink:href="#ArialMT-6e"/>
     </g>
    </g>
   </g>
   <g id="line2d_23">
    <path clip-path="url(#pc9994a1b89)" d="M 11.347592 173.224955 
L 21.912708 173.11948 
L 27.949917 172.788656 
L 33.987126 172.24657 
L 37.00573 171.828634 
L 40.024335 171.178163 
L 43.042939 170.177921 
L 46.061544 168.752796 
L 49.080148 166.924233 
L 53.608055 163.737528 
L 61.154566 158.142803 
L 64.173171 155.599959 
L 67.191775 152.751293 
L 76.247589 143.848557 
L 80.775496 139.420307 
L 83.7941 136.12254 
L 86.812705 132.448921 
L 92.849914 124.486307 
L 98.887123 116.418236 
L 101.905727 111.897859 
L 104.924332 106.682097 
L 107.942936 100.796164 
L 112.470843 91.285995 
L 120.017354 75.327434 
L 124.545261 66.35432 
L 127.563866 60.852406 
L 130.58247 55.750003 
L 133.601075 51.018042 
L 136.619679 46.645605 
L 139.638284 42.640995 
L 142.656888 39.033773 
L 145.675493 35.899068 
L 147.184795 34.545171 
L 148.694097 33.352253 
L 150.203399 32.327854 
L 151.712702 31.471051 
L 153.222004 30.771896 
L 156.240608 29.771621 
L 159.259213 29.14614 
L 163.78712 28.534937 
L 171.333631 27.57671 
L 175.861538 26.829865 
L 186.426653 24.932999 
L 190.95456 24.541147 
L 195.482467 24.402091 
L 203.028978 24.368682 
L 203.028978 24.368682 
" style="fill:none;stroke:#fedf08;stroke-linecap:round;stroke-width:2.0;"/>
   </g>
   <g id="patch_3">
    <path d="M 39.720344 24.368 
L 189.86011 24.368 
" style="fill:none;stroke:#262626;stroke-linecap:square;stroke-linejoin:miter;stroke-width:1.25;"/>
   </g>
   <g id="patch_4">
    <path d="M 189.86011 173.22575 
L 189.86011 24.368 
" style="fill:none;stroke:#262626;stroke-linecap:square;stroke-linejoin:miter;stroke-width:1.25;"/>
   </g>
   <g id="patch_5">
    <path d="M 39.720344 173.22575 
L 189.86011 173.22575 
" style="fill:none;stroke:#262626;stroke-linecap:square;stroke-linejoin:miter;stroke-width:1.25;"/>
   </g>
   <g id="patch_6">
    <path d="M 39.720344 173.22575 
L 39.720344 24.368 
" style="fill:none;stroke:#262626;stroke-linecap:square;stroke-linejoin:miter;stroke-width:1.25;"/>
   </g>
   <g id="text_14">
    <!-- Measured metabolite conc. -->
    <defs>
     <path d="M 40.4375 19 
L 49.078125 17.875 
Q 47.65625 8.9375 41.8125 3.875 
Q 35.984375 -1.171875 27.484375 -1.171875 
Q 16.84375 -1.171875 10.375 5.78125 
Q 3.90625 12.75 3.90625 25.734375 
Q 3.90625 34.125 6.6875 40.421875 
Q 9.46875 46.734375 15.15625 49.875 
Q 20.84375 53.03125 27.546875 53.03125 
Q 35.984375 53.03125 41.359375 48.75 
Q 46.734375 44.484375 48.25 36.625 
L 39.703125 35.296875 
Q 38.484375 40.53125 35.375 43.15625 
Q 32.28125 45.796875 27.875 45.796875 
Q 21.234375 45.796875 17.078125 41.03125 
Q 12.9375 36.28125 12.9375 25.984375 
Q 12.9375 15.53125 16.9375 10.796875 
Q 20.953125 6.0625 27.390625 6.0625 
Q 32.5625 6.0625 36.03125 9.234375 
Q 39.5 12.40625 40.4375 19 
" id="ArialMT-63"/>
    </defs>
    <g style="fill:#262626;" transform="translate(57.1639767332 19.368)scale(0.096 -0.096)">
     <use xlink:href="#ArialMT-4d"/>
     <use x="83.30078125" xlink:href="#ArialMT-65"/>
     <use x="138.916015625" xlink:href="#ArialMT-61"/>
     <use x="194.53125" xlink:href="#ArialMT-73"/>
     <use x="244.53125" xlink:href="#ArialMT-75"/>
     <use x="300.146484375" xlink:href="#ArialMT-72"/>
     <use x="333.447265625" xlink:href="#ArialMT-65"/>
     <use x="389.0625" xlink:href="#ArialMT-64"/>
     <use x="444.677734375" xlink:href="#ArialMT-20"/>
     <use x="472.4609375" xlink:href="#ArialMT-6d"/>
     <use x="555.76171875" xlink:href="#ArialMT-65"/>
     <use x="611.376953125" xlink:href="#ArialMT-74"/>
     <use x="639.16015625" xlink:href="#ArialMT-61"/>
     <use x="694.775390625" xlink:href="#ArialMT-62"/>
     <use x="750.390625" xlink:href="#ArialMT-6f"/>
     <use x="806.005859375" xlink:href="#ArialMT-6c"/>
     <use x="828.22265625" xlink:href="#ArialMT-69"/>
     <use x="850.439453125" xlink:href="#ArialMT-74"/>
     <use x="878.22265625" xlink:href="#ArialMT-65"/>
     <use x="933.837890625" xlink:href="#ArialMT-20"/>
     <use x="961.62109375" xlink:href="#ArialMT-63"/>
     <use x="1011.62109375" xlink:href="#ArialMT-6f"/>
     <use x="1067.23632812" xlink:href="#ArialMT-6e"/>
     <use x="1122.8515625" xlink:href="#ArialMT-63"/>
     <use x="1172.8515625" xlink:href="#ArialMT-2e"/>
    </g>
   </g>
  </g>
  <g id="axes_2">
   <g id="patch_7">
    <path d="M 207.705756 173.22575 
L 357.845522 173.22575 
L 357.845522 24.368 
L 207.705756 24.368 
z
" style="fill:#ffffff;"/>
   </g>
   <g id="matplotlib.axis_3">
    <g id="xtick_6">
     <g id="line2d_24"/>
     <g id="line2d_25"/>
     <g id="text_15">
      <!-- 0.01 -->
      <g style="fill:#262626;" transform="translate(203.049293111 184.551999714)scale(0.08 -0.08)">
       <use xlink:href="#ArialMT-30"/>
       <use x="55.615234375" xlink:href="#ArialMT-2e"/>
       <use x="83.3984375" xlink:href="#ArialMT-30"/>
       <use x="139.013671875" xlink:href="#ArialMT-31"/>
      </g>
     </g>
    </g>
    <g id="xtick_7">
     <g id="line2d_26"/>
     <g id="line2d_27"/>
     <g id="text_16">
      <!-- 0.1 -->
      <g style="fill:#262626;" transform="translate(236.552786021 184.551999714)scale(0.08 -0.08)">
       <use xlink:href="#ArialMT-30"/>
       <use x="55.615234375" xlink:href="#ArialMT-2e"/>
       <use x="83.3984375" xlink:href="#ArialMT-31"/>
      </g>
     </g>
    </g>
    <g id="xtick_8">
     <g id="line2d_28"/>
     <g id="line2d_29"/>
     <g id="text_17">
      <!-- 1 -->
      <g style="fill:#262626;" transform="translate(271.167528931 184.551999714)scale(0.08 -0.08)">
       <use xlink:href="#ArialMT-31"/>
      </g>
     </g>
    </g>
    <g id="xtick_9">
     <g id="line2d_30"/>
     <g id="line2d_31"/>
     <g id="text_18">
      <!-- 10 -->
      <g style="fill:#262626;" transform="translate(300.22227184 184.551999714)scale(0.08 -0.08)">
       <use xlink:href="#ArialMT-31"/>
       <use x="55.615234375" xlink:href="#ArialMT-30"/>
      </g>
     </g>
    </g>
    <g id="xtick_10">
     <g id="line2d_32"/>
     <g id="line2d_33"/>
     <g id="text_19">
      <!-- 100 -->
      <g style="fill:#262626;" transform="translate(329.27701475 184.551999714)scale(0.08 -0.08)">
       <use xlink:href="#ArialMT-31"/>
       <use x="55.615234375" xlink:href="#ArialMT-30"/>
       <use x="111.23046875" xlink:href="#ArialMT-30"/>
      </g>
     </g>
    </g>
    <g id="text_20">
     <!-- $K_S$ (in mM) -->
     <defs>
      <path d="M 4.6875 0 
Q 3.71875 0 3.71875 1.3125 
Q 3.765625 1.5625 3.90625 2.171875 
Q 4.046875 2.78125 4.3125 3.140625 
Q 4.59375 3.515625 4.984375 3.515625 
Q 11.078125 3.515625 13.484375 4.203125 
Q 14.796875 4.640625 15.375 6.890625 
L 29.109375 61.8125 
Q 29.296875 62.796875 29.296875 63.1875 
Q 29.296875 64.265625 28.078125 64.40625 
Q 26.21875 64.796875 20.90625 64.796875 
Q 19.921875 64.796875 19.921875 66.109375 
Q 20.265625 67.390625 20.453125 67.84375 
Q 20.65625 68.3125 21.578125 68.3125 
L 48.484375 68.3125 
Q 49.515625 68.3125 49.515625 67 
Q 49.46875 66.75 49.3125 66.15625 
Q 49.171875 65.578125 48.921875 65.1875 
Q 48.6875 64.796875 48.1875 64.796875 
Q 42.09375 64.796875 39.703125 64.109375 
Q 38.375 63.625 37.796875 61.375 
L 29.6875 29 
L 68.890625 59.28125 
Q 69 59.46875 70.140625 60.609375 
Q 71.296875 61.765625 71.296875 62.890625 
Q 71.296875 64.796875 67.921875 64.796875 
Q 66.890625 64.796875 66.890625 66.109375 
Q 67.09375 66.890625 67.203125 67.328125 
Q 67.328125 67.78125 67.640625 68.046875 
Q 67.96875 68.3125 68.609375 68.3125 
L 87.984375 68.3125 
Q 88.53125 68.3125 88.765625 67.921875 
Q 89.015625 67.53125 89.015625 67 
Q 88.96875 66.75 88.796875 66.109375 
Q 88.625 65.484375 88.359375 65.140625 
Q 88.09375 64.796875 87.59375 64.796875 
Q 80.28125 64.796875 71.578125 58.015625 
Q 71.53125 57.953125 71.4375 57.921875 
Q 71.34375 57.90625 71.234375 57.875 
Q 71.140625 57.859375 71.09375 57.8125 
L 50.484375 41.796875 
L 65.484375 6.6875 
Q 66.84375 4.5 68.40625 4 
Q 69.96875 3.515625 73.1875 3.515625 
Q 74.21875 3.515625 74.21875 2.203125 
Q 73.921875 1.03125 73.625 0.515625 
Q 73.34375 0 72.515625 0 
L 49.3125 0 
Q 48.390625 0 48.390625 1.3125 
Q 48.53125 2.34375 48.71875 2.921875 
Q 48.921875 3.515625 49.703125 3.515625 
Q 52.25 3.515625 54.03125 4.03125 
Q 55.8125 4.546875 55.8125 6.390625 
Q 55.8125 7.078125 55.71875 7.421875 
L 43.3125 36.28125 
L 28.71875 25 
L 24.125 6.5 
Q 23.875 5.28125 23.875 5.078125 
Q 23.875 4.046875 25.09375 3.90625 
Q 27 3.515625 32.328125 3.515625 
Q 33.296875 3.515625 33.296875 2.203125 
Q 32.953125 0.78125 32.75 0.390625 
Q 32.5625 0 31.59375 0 
z
" id="Cmmi10-4b"/>
     </defs>
     <g style="fill:#262626;" transform="translate(260.731639304 197.565999714)scale(0.088 -0.088)">
      <use transform="translate(0.0 0.203125)" xlink:href="#Cmmi10-4b"/>
      <use transform="translate(84.912109375 -16.803125)scale(0.7)" xlink:href="#Cmmi10-53"/>
      <use transform="translate(134.184960937 0.203125)" xlink:href="#ArialMT-20"/>
      <use transform="translate(161.968164062 0.203125)" xlink:href="#ArialMT-28"/>
      <use transform="translate(195.268945312 0.203125)" xlink:href="#ArialMT-69"/>
      <use transform="translate(217.485742187 0.203125)" xlink:href="#ArialMT-6e"/>
      <use transform="translate(273.100976563 0.203125)" xlink:href="#ArialMT-20"/>
      <use transform="translate(300.884179688 0.203125)" xlink:href="#ArialMT-6d"/>
      <use transform="translate(384.184960938 0.203125)" xlink:href="#ArialMT-4d"/>
      <use transform="translate(467.485742188 0.203125)" xlink:href="#ArialMT-29"/>
     </g>
    </g>
   </g>
   <g id="matplotlib.axis_4">
    <g id="ytick_7">
     <g id="line2d_34"/>
     <g id="line2d_35"/>
    </g>
    <g id="ytick_8">
     <g id="line2d_36"/>
     <g id="line2d_37"/>
    </g>
    <g id="ytick_9">
     <g id="line2d_38"/>
     <g id="line2d_39"/>
    </g>
    <g id="ytick_10">
     <g id="line2d_40"/>
     <g id="line2d_41"/>
    </g>
    <g id="ytick_11">
     <g id="line2d_42"/>
     <g id="line2d_43"/>
    </g>
    <g id="ytick_12">
     <g id="line2d_44"/>
     <g id="line2d_45"/>
    </g>
   </g>
   <g id="line2d_46">
    <path clip-path="url(#p17125b3ca8)" d="M 201.603262 173.224826 
L 210.115848 173.132485 
L 215.2234 172.799515 
L 223.735986 172.068631 
L 235.653607 171.438203 
L 240.761158 170.861693 
L 245.86871 169.980934 
L 250.976262 168.923466 
L 252.678779 168.417195 
L 254.381296 167.758594 
L 256.083814 166.922406 
L 257.786331 165.910478 
L 261.191365 163.477179 
L 264.5964 160.723669 
L 268.001434 157.697135 
L 271.406469 154.207914 
L 273.108986 152.22049 
L 274.811503 150.034784 
L 276.514021 147.624678 
L 278.216538 144.975646 
L 281.621572 139.008997 
L 285.026607 132.318639 
L 288.431641 124.882427 
L 291.836676 116.573388 
L 296.944228 103.529216 
L 300.349262 95.552867 
L 310.564366 73.327389 
L 313.9694 66.525265 
L 317.374435 60.523625 
L 320.779469 55.206114 
L 324.184504 50.387551 
L 327.589538 46.133382 
L 329.292055 44.274592 
L 332.69709 41.060382 
L 337.804641 36.866156 
L 344.61471 31.4331 
L 348.019745 29.150524 
L 349.722262 28.223035 
L 351.424779 27.453345 
L 353.127297 26.842544 
L 354.829814 26.384231 
L 358.234848 25.85019 
L 363.3424 25.539184 
L 375.260021 25.035451 
L 388.880159 25.003659 
L 399.095262 24.901906 
L 414.417918 24.3753 
L 417.822952 24.368859 
L 417.822952 24.368859 
" style="fill:none;stroke:#3eaf76;stroke-linecap:round;stroke-width:2.0;"/>
   </g>
   <g id="line2d_47">
    <path clip-path="url(#p17125b3ca8)" d="M 159.094254 173.221592 
L 164.496721 173.117108 
L 166.297543 172.975105 
L 168.098365 172.712498 
L 169.899187 172.288024 
L 171.700009 171.687325 
L 175.301653 170.123492 
L 178.903298 168.609398 
L 182.504942 167.459431 
L 187.907408 166.02485 
L 191.509053 165.342677 
L 195.110697 164.985824 
L 198.712341 164.672675 
L 202.313985 164.079837 
L 209.517274 162.549107 
L 214.91974 161.755294 
L 216.720563 161.375761 
L 218.521385 160.867885 
L 220.322207 160.202816 
L 222.123029 159.340143 
L 223.923851 158.220959 
L 225.724673 156.791592 
L 227.525495 155.052322 
L 232.927962 149.271361 
L 234.728784 147.74162 
L 236.529606 146.53839 
L 241.932072 143.728324 
L 243.732895 142.526772 
L 245.533717 140.988488 
L 247.334539 139.088436 
L 254.537827 130.36946 
L 256.33865 128.668429 
L 259.940294 125.854475 
L 261.741116 124.473908 
L 263.541938 122.941279 
L 265.34276 121.163285 
L 267.143582 119.062158 
L 268.944404 116.564531 
L 270.745227 113.614452 
L 272.546049 110.20963 
L 276.147693 102.446146 
L 279.749337 94.558112 
L 288.753448 75.998507 
L 292.355092 68.178316 
L 294.155914 64.662747 
L 295.956737 61.587171 
L 297.757559 58.940423 
L 299.558381 56.616485 
L 303.160025 52.41516 
L 306.761669 48.401638 
L 308.562492 46.538734 
L 310.363314 44.883825 
L 312.164136 43.516848 
L 313.964958 42.48129 
L 315.76578 41.769616 
L 317.566602 41.327363 
L 321.168246 40.916144 
L 324.769891 40.602426 
L 328.371535 39.988815 
L 335.574824 38.162097 
L 346.379756 35.499503 
L 349.981401 34.65924 
L 351.782223 34.097842 
L 355.383867 32.63711 
L 360.786333 30.198873 
L 364.387978 28.770269 
L 367.989622 27.538512 
L 373.392088 25.915458 
L 376.993733 25.050083 
L 380.595377 24.566105 
L 384.197021 24.403319 
L 387.798666 24.371722 
L 387.798666 24.371722 
" style="fill:none;stroke:#fe86a4;stroke-linecap:round;stroke-width:2.0;"/>
   </g>
   <g id="patch_8">
    <path d="M 207.705756 24.368 
L 357.845522 24.368 
" style="fill:none;stroke:#262626;stroke-linecap:square;stroke-linejoin:miter;stroke-width:1.25;"/>
   </g>
   <g id="patch_9">
    <path d="M 357.845522 173.22575 
L 357.845522 24.368 
" style="fill:none;stroke:#262626;stroke-linecap:square;stroke-linejoin:miter;stroke-width:1.25;"/>
   </g>
   <g id="patch_10">
    <path d="M 207.705756 173.22575 
L 357.845522 173.22575 
" style="fill:none;stroke:#262626;stroke-linecap:square;stroke-linejoin:miter;stroke-width:1.25;"/>
   </g>
   <g id="patch_11">
    <path d="M 207.705756 173.22575 
L 207.705756 24.368 
" style="fill:none;stroke:#262626;stroke-linecap:square;stroke-linejoin:miter;stroke-width:1.25;"/>
   </g>
   <g id="text_21">
    <!-- $p_{ranksum}$ &lt; 1e-42 -->
    <defs>
     <path d="M 17.390625 -1.125 
Q 11.078125 -1.125 7.4375 3.640625 
Q 3.8125 8.40625 3.8125 14.890625 
Q 3.8125 21.296875 7.125 28.171875 
Q 10.453125 35.0625 16.09375 39.625 
Q 21.734375 44.1875 28.21875 44.1875 
Q 31.203125 44.1875 33.546875 42.578125 
Q 35.890625 40.96875 37.203125 38.1875 
Q 38.328125 42.1875 41.609375 42.1875 
Q 42.875 42.1875 43.71875 41.421875 
Q 44.578125 40.671875 44.578125 39.40625 
Q 44.578125 39.109375 44.546875 38.953125 
Q 44.53125 38.8125 44.484375 38.625 
L 37.5 10.6875 
Q 36.8125 7.71875 36.8125 5.8125 
Q 36.8125 1.515625 39.703125 1.515625 
Q 42.828125 1.515625 44.453125 5.484375 
Q 46.09375 9.46875 47.21875 14.703125 
Q 47.40625 15.28125 48 15.28125 
L 49.21875 15.28125 
Q 49.609375 15.28125 49.84375 14.9375 
Q 50.09375 14.59375 50.09375 14.3125 
Q 48.34375 7.328125 46.265625 3.09375 
Q 44.1875 -1.125 39.5 -1.125 
Q 36.140625 -1.125 33.546875 0.84375 
Q 30.953125 2.828125 30.328125 6.109375 
Q 23.875 -1.125 17.390625 -1.125 
M 17.484375 1.515625 
Q 21.09375 1.515625 24.484375 4.21875 
Q 27.875 6.9375 30.328125 10.59375 
Q 30.421875 10.6875 30.421875 10.890625 
L 35.796875 32.625 
L 35.890625 32.90625 
Q 35.296875 36.46875 33.3125 39.03125 
Q 31.34375 41.609375 27.984375 41.609375 
Q 24.609375 41.609375 21.703125 38.84375 
Q 18.796875 36.078125 16.796875 32.328125 
Q 14.84375 28.328125 13.0625 21.34375 
Q 11.28125 14.359375 11.28125 10.5 
Q 11.28125 7.03125 12.765625 4.265625 
Q 14.265625 1.515625 17.484375 1.515625 
" id="Cmmi10-61"/>
     <path d="M 5.328125 1.8125 
Q 5.328125 2.390625 5.421875 2.6875 
L 19.921875 60.5 
Q 20.3125 62.203125 20.40625 63.1875 
Q 20.40625 64.796875 13.921875 64.796875 
Q 12.890625 64.796875 12.890625 66.109375 
Q 12.9375 66.359375 13.109375 66.984375 
Q 13.28125 67.625 13.546875 67.96875 
Q 13.8125 68.3125 14.3125 68.3125 
L 27.78125 69.390625 
L 28.078125 69.390625 
Q 28.078125 69.28125 28.421875 69.109375 
Q 28.765625 68.953125 28.8125 68.890625 
Q 29 68.40625 29 68.109375 
L 18.5 26.3125 
Q 22.125 27.828125 27.609375 33.515625 
Q 33.109375 39.203125 36.203125 41.6875 
Q 39.3125 44.1875 44 44.1875 
Q 46.78125 44.1875 48.734375 42.28125 
Q 50.6875 40.375 50.6875 37.59375 
Q 50.6875 35.84375 49.953125 34.34375 
Q 49.21875 32.859375 47.890625 31.921875 
Q 46.578125 31 44.828125 31 
Q 43.21875 31 42.109375 32 
Q 41.015625 33.015625 41.015625 34.625 
Q 41.015625 37.015625 42.703125 38.640625 
Q 44.390625 40.28125 46.78125 40.28125 
Q 45.796875 41.609375 43.796875 41.609375 
Q 40.828125 41.609375 38.0625 39.890625 
Q 35.296875 38.1875 32.09375 34.984375 
Q 28.90625 31.78125 26.265625 29.125 
Q 23.640625 26.46875 21.390625 25.09375 
Q 27.296875 24.421875 31.640625 22 
Q 35.984375 19.578125 35.984375 14.59375 
Q 35.984375 13.578125 35.59375 12.015625 
Q 34.71875 8.25 34.71875 6 
Q 34.71875 1.515625 37.796875 1.515625 
Q 41.40625 1.515625 43.28125 5.46875 
Q 45.171875 9.421875 46.390625 14.703125 
Q 46.578125 15.28125 47.21875 15.28125 
L 48.390625 15.28125 
Q 48.78125 15.28125 49.046875 15.03125 
Q 49.3125 14.796875 49.3125 14.40625 
Q 49.3125 14.3125 49.21875 14.109375 
Q 45.453125 -1.125 37.59375 -1.125 
Q 34.765625 -1.125 32.59375 0.1875 
Q 30.421875 1.515625 29.25 3.78125 
Q 28.078125 6.0625 28.078125 8.890625 
Q 28.078125 10.5 28.515625 12.203125 
Q 28.8125 13.375 28.8125 14.40625 
Q 28.8125 18.265625 25.390625 20.265625 
Q 21.96875 22.265625 17.578125 22.703125 
L 12.5 2.296875 
Q 12.109375 0.78125 10.984375 -0.171875 
Q 9.859375 -1.125 8.40625 -1.125 
Q 7.125 -1.125 6.21875 -0.265625 
Q 5.328125 0.59375 5.328125 1.8125 
" id="Cmmi10-6b"/>
     <path d="M 7.71875 1.703125 
Q 7.71875 2.296875 7.8125 2.59375 
L 15.28125 32.421875 
Q 16.015625 35.203125 16.015625 37.3125 
Q 16.015625 41.609375 13.09375 41.609375 
Q 9.96875 41.609375 8.453125 37.859375 
Q 6.9375 34.125 5.515625 28.421875 
Q 5.515625 28.125 5.21875 27.953125 
Q 4.9375 27.78125 4.6875 27.78125 
L 3.515625 27.78125 
Q 3.171875 27.78125 2.921875 28.140625 
Q 2.6875 28.515625 2.6875 28.8125 
Q 3.765625 33.15625 4.765625 36.171875 
Q 5.765625 39.203125 7.890625 41.6875 
Q 10.015625 44.1875 13.1875 44.1875 
Q 16.9375 44.1875 19.8125 41.8125 
Q 22.703125 39.453125 22.703125 35.796875 
Q 25.6875 39.703125 29.6875 41.9375 
Q 33.6875 44.1875 38.1875 44.1875 
Q 41.75 44.1875 44.328125 42.96875 
Q 46.921875 41.75 48.359375 39.28125 
Q 49.8125 36.8125 49.8125 33.40625 
Q 49.8125 29.296875 47.96875 23.484375 
Q 46.140625 17.671875 43.40625 10.5 
Q 42 7.234375 42 4.5 
Q 42 1.515625 44.28125 1.515625 
Q 48.1875 1.515625 50.796875 5.703125 
Q 53.421875 9.90625 54.5 14.703125 
Q 54.6875 15.28125 55.328125 15.28125 
L 56.5 15.28125 
Q 56.890625 15.28125 57.15625 15.03125 
Q 57.421875 14.796875 57.421875 14.40625 
Q 57.421875 14.3125 57.328125 14.109375 
Q 55.953125 8.453125 52.5625 3.65625 
Q 49.171875 -1.125 44.09375 -1.125 
Q 40.578125 -1.125 38.078125 1.296875 
Q 35.59375 3.71875 35.59375 7.171875 
Q 35.59375 9.03125 36.375 11.078125 
Q 37.640625 14.359375 39.28125 18.890625 
Q 40.921875 23.4375 41.96875 27.578125 
Q 43.015625 31.734375 43.015625 34.90625 
Q 43.015625 37.703125 41.859375 39.65625 
Q 40.71875 41.609375 37.984375 41.609375 
Q 34.328125 41.609375 31.25 39.984375 
Q 28.171875 38.375 25.875 35.71875 
Q 23.578125 33.0625 21.6875 29.390625 
L 14.890625 2.203125 
Q 14.546875 0.828125 13.34375 -0.140625 
Q 12.15625 -1.125 10.6875 -1.125 
Q 9.46875 -1.125 8.59375 -0.34375 
Q 7.71875 0.4375 7.71875 1.703125 
" id="Cmmi10-6e"/>
     <path d="M 7.71875 1.703125 
Q 7.71875 2.296875 7.8125 2.59375 
L 15.28125 32.421875 
Q 16.015625 35.203125 16.015625 37.3125 
Q 16.015625 41.609375 13.09375 41.609375 
Q 9.96875 41.609375 8.453125 37.859375 
Q 6.9375 34.125 5.515625 28.421875 
Q 5.515625 28.125 5.21875 27.953125 
Q 4.9375 27.78125 4.6875 27.78125 
L 3.515625 27.78125 
Q 3.171875 27.78125 2.921875 28.140625 
Q 2.6875 28.515625 2.6875 28.8125 
Q 3.765625 33.15625 4.765625 36.171875 
Q 5.765625 39.203125 7.890625 41.6875 
Q 10.015625 44.1875 13.1875 44.1875 
Q 16.9375 44.1875 19.8125 41.8125 
Q 22.703125 39.453125 22.703125 35.796875 
Q 25.6875 39.703125 29.6875 41.9375 
Q 33.6875 44.1875 38.1875 44.1875 
Q 42.921875 44.1875 46.359375 41.765625 
Q 49.8125 39.359375 49.8125 34.90625 
Q 52.875 39.265625 57 41.71875 
Q 61.140625 44.1875 66.015625 44.1875 
Q 71.1875 44.1875 74.328125 41.375 
Q 77.484375 38.578125 77.484375 33.40625 
Q 77.484375 29.296875 75.65625 23.484375 
Q 73.828125 17.671875 71.09375 10.5 
Q 69.671875 7.03125 69.671875 4.5 
Q 69.671875 1.515625 72.015625 1.515625 
Q 75.921875 1.515625 78.515625 5.703125 
Q 81.109375 9.90625 82.171875 14.703125 
Q 82.46875 15.28125 83.015625 15.28125 
L 84.1875 15.28125 
Q 84.578125 15.28125 84.84375 15.015625 
Q 85.109375 14.75 85.109375 14.40625 
Q 85.109375 14.3125 85.015625 14.109375 
Q 83.640625 8.453125 80.25 3.65625 
Q 76.859375 -1.125 71.78125 -1.125 
Q 68.265625 -1.125 65.765625 1.296875 
Q 63.28125 3.71875 63.28125 7.171875 
Q 63.28125 8.9375 64.109375 11.078125 
Q 66.9375 18.609375 68.8125 24.515625 
Q 70.703125 30.421875 70.703125 34.90625 
Q 70.703125 37.703125 69.578125 39.65625 
Q 68.453125 41.609375 65.828125 41.609375 
Q 60.359375 41.609375 56.34375 38.25 
Q 52.34375 34.90625 49.421875 29.390625 
Q 49.21875 28.421875 49.125 27.875 
L 42.671875 2.203125 
Q 42.328125 0.828125 41.125 -0.140625 
Q 39.9375 -1.125 38.484375 -1.125 
Q 37.3125 -1.125 36.40625 -0.34375 
Q 35.5 0.4375 35.5 1.703125 
Q 35.5 2.296875 35.59375 2.59375 
L 42 28.078125 
Q 43.015625 32.171875 43.015625 34.90625 
Q 43.015625 37.703125 41.859375 39.65625 
Q 40.71875 41.609375 37.984375 41.609375 
Q 34.328125 41.609375 31.25 39.984375 
Q 28.171875 38.375 25.875 35.71875 
Q 23.578125 33.0625 21.6875 29.390625 
L 14.890625 2.203125 
Q 14.546875 0.828125 13.34375 -0.140625 
Q 12.15625 -1.125 10.6875 -1.125 
Q 9.46875 -1.125 8.59375 -0.34375 
Q 7.71875 0.4375 7.71875 1.703125 
" id="Cmmi10-6d"/>
     <path d="M 5.46875 31.296875 
L 5.46875 39.5 
L 52.875 59.515625 
L 52.875 50.78125 
L 15.28125 35.359375 
L 52.875 19.78125 
L 52.875 11.03125 
z
" id="ArialMT-3c"/>
     <path d="M 7.71875 1.703125 
Q 7.71875 2.296875 7.8125 2.59375 
L 15.28125 32.421875 
Q 16.015625 35.203125 16.015625 37.3125 
Q 16.015625 41.609375 13.09375 41.609375 
Q 9.96875 41.609375 8.453125 37.859375 
Q 6.9375 34.125 5.515625 28.421875 
Q 5.515625 28.125 5.21875 27.953125 
Q 4.9375 27.78125 4.6875 27.78125 
L 3.515625 27.78125 
Q 3.171875 27.78125 2.921875 28.140625 
Q 2.6875 28.515625 2.6875 28.8125 
Q 3.765625 33.15625 4.765625 36.171875 
Q 5.765625 39.203125 7.890625 41.6875 
Q 10.015625 44.1875 13.1875 44.1875 
Q 16.65625 44.1875 19.265625 42.1875 
Q 21.875 40.1875 22.515625 36.921875 
Q 25.046875 40.234375 28.296875 42.203125 
Q 31.546875 44.1875 35.40625 44.1875 
Q 38.578125 44.1875 40.984375 42.328125 
Q 43.40625 40.484375 43.40625 37.3125 
Q 43.40625 34.765625 41.8125 32.875 
Q 40.234375 31 37.59375 31 
Q 35.984375 31 34.890625 32 
Q 33.796875 33.015625 33.796875 34.625 
Q 33.796875 36.8125 35.40625 38.546875 
Q 37.015625 40.28125 39.109375 40.28125 
Q 37.5 41.609375 35.203125 41.609375 
Q 30.90625 41.609375 27.734375 38.546875 
Q 24.5625 35.5 22.015625 30.8125 
L 14.890625 2.203125 
Q 14.546875 0.828125 13.34375 -0.140625 
Q 12.15625 -1.125 10.6875 -1.125 
Q 9.46875 -1.125 8.59375 -0.34375 
Q 7.71875 0.4375 7.71875 1.703125 
" id="Cmmi10-72"/>
     <path d="M 8.6875 6.109375 
Q 11.375 1.515625 19.484375 1.515625 
Q 23 1.515625 26.171875 2.703125 
Q 29.34375 3.90625 31.421875 6.296875 
Q 33.5 8.6875 33.5 12.109375 
Q 33.5 14.703125 31.640625 16.359375 
Q 29.78125 18.015625 27.09375 18.609375 
L 21.6875 19.671875 
Q 17.96875 20.609375 15.578125 23.140625 
Q 13.1875 25.6875 13.1875 29.296875 
Q 13.1875 33.734375 15.59375 37.15625 
Q 18.015625 40.578125 21.96875 42.375 
Q 25.921875 44.1875 30.171875 44.1875 
Q 34.71875 44.1875 38.296875 42.015625 
Q 41.890625 39.84375 41.890625 35.59375 
Q 41.890625 33.296875 40.59375 31.53125 
Q 39.3125 29.78125 37.015625 29.78125 
Q 35.6875 29.78125 34.734375 30.640625 
Q 33.796875 31.5 33.796875 32.8125 
Q 33.796875 33.984375 34.453125 35.078125 
Q 35.109375 36.1875 36.203125 36.84375 
Q 37.3125 37.5 38.484375 37.5 
Q 37.59375 39.65625 35.171875 40.625 
Q 32.765625 41.609375 29.984375 41.609375 
Q 27.4375 41.609375 24.890625 40.578125 
Q 22.359375 39.546875 20.8125 37.5625 
Q 19.28125 35.59375 19.28125 32.90625 
Q 19.28125 31.109375 20.546875 29.734375 
Q 21.828125 28.375 23.6875 27.78125 
L 29.5 26.609375 
Q 32.28125 26.03125 34.59375 24.53125 
Q 36.921875 23.046875 38.25 20.765625 
Q 39.59375 18.5 39.59375 15.578125 
Q 39.59375 11.859375 37.515625 8.25 
Q 35.453125 4.640625 32.421875 2.484375 
Q 27.09375 -1.125 19.390625 -1.125 
Q 14.0625 -1.125 9.609375 1.3125 
Q 5.171875 3.765625 5.171875 8.59375 
Q 5.171875 11.328125 6.75 13.34375 
Q 8.34375 15.375 11.078125 15.375 
Q 12.703125 15.375 13.796875 14.390625 
Q 14.890625 13.421875 14.890625 11.8125 
Q 14.890625 9.515625 13.171875 7.8125 
Q 11.46875 6.109375 9.1875 6.109375 
z
" id="Cmmi10-73"/>
     <path d="M -2.484375 -19.390625 
Q -3.421875 -19.390625 -3.421875 -18.109375 
Q -3.078125 -15.921875 -2.09375 -15.921875 
Q 1.03125 -15.921875 2.265625 -15.359375 
Q 3.515625 -14.796875 4.203125 -12.5 
L 15.484375 32.515625 
Q 16.21875 34.375 16.21875 37.3125 
Q 16.21875 41.609375 13.28125 41.609375 
Q 10.15625 41.609375 8.640625 37.859375 
Q 7.125 34.125 5.71875 28.421875 
Q 5.71875 27.78125 4.890625 27.78125 
L 3.71875 27.78125 
Q 3.46875 27.78125 3.171875 28.140625 
Q 2.875 28.515625 2.875 28.8125 
Q 3.953125 33.15625 4.953125 36.171875 
Q 5.953125 39.203125 8.078125 41.6875 
Q 10.203125 44.1875 13.375 44.1875 
Q 16.796875 44.1875 19.375 42.25 
Q 21.96875 40.328125 22.703125 37.015625 
Q 25.4375 40.1875 28.75 42.1875 
Q 32.078125 44.1875 35.59375 44.1875 
Q 39.796875 44.1875 42.890625 41.9375 
Q 46 39.703125 47.5625 36.0625 
Q 49.125 32.421875 49.125 28.21875 
Q 49.125 21.78125 45.828125 14.890625 
Q 42.53125 8.015625 36.890625 3.4375 
Q 31.25 -1.125 24.8125 -1.125 
Q 21.875 -1.125 19.5 0.53125 
Q 17.140625 2.203125 15.828125 4.890625 
L 11.28125 -12.890625 
Q 11.03125 -14.359375 10.984375 -14.59375 
Q 10.984375 -15.921875 17.578125 -15.921875 
Q 18.609375 -15.921875 18.609375 -17.1875 
Q 18.265625 -18.5 18.046875 -18.9375 
Q 17.828125 -19.390625 16.890625 -19.390625 
z
M 24.90625 1.515625 
Q 28.375 1.515625 31.34375 4.375 
Q 34.328125 7.234375 36.1875 10.796875 
Q 37.546875 13.484375 38.734375 17.359375 
Q 39.9375 21.234375 40.8125 25.625 
Q 41.703125 30.03125 41.703125 32.625 
Q 41.703125 34.90625 41.09375 36.90625 
Q 40.484375 38.921875 39.09375 40.265625 
Q 37.703125 41.609375 35.40625 41.609375 
Q 31.734375 41.609375 28.484375 38.984375 
Q 25.25 36.375 22.609375 32.515625 
L 22.609375 32.171875 
L 17.09375 10.109375 
Q 17.78125 6.546875 19.734375 4.03125 
Q 21.6875 1.515625 24.90625 1.515625 
" id="Cmmi10-70"/>
     <path d="M 10.59375 10.890625 
Q 10.59375 14.15625 11.46875 17.59375 
Q 12.359375 21.046875 13.9375 25.265625 
Q 15.53125 29.5 16.703125 32.625 
Q 18.015625 36.28125 18.015625 38.625 
Q 18.015625 41.609375 15.828125 41.609375 
Q 11.859375 41.609375 9.296875 37.53125 
Q 6.734375 33.453125 5.515625 28.421875 
Q 5.328125 27.78125 4.6875 27.78125 
L 3.515625 27.78125 
Q 2.6875 27.78125 2.6875 28.71875 
L 2.6875 29 
Q 4.296875 34.96875 7.609375 39.578125 
Q 10.9375 44.1875 16.015625 44.1875 
Q 19.578125 44.1875 22.046875 41.84375 
Q 24.515625 39.5 24.515625 35.890625 
Q 24.515625 34.03125 23.6875 31.984375 
Q 23.25 30.765625 21.6875 26.65625 
Q 20.125 22.5625 19.28125 19.875 
Q 18.453125 17.1875 17.921875 14.59375 
Q 17.390625 12.015625 17.390625 9.421875 
Q 17.390625 6.109375 18.796875 3.8125 
Q 20.21875 1.515625 23.390625 1.515625 
Q 29.78125 1.515625 34.625 9.421875 
Q 34.71875 9.8125 34.78125 10.171875 
Q 34.859375 10.546875 34.90625 10.890625 
L 42.09375 39.890625 
Q 42.4375 41.21875 43.65625 42.15625 
Q 44.875 43.109375 46.296875 43.109375 
Q 47.515625 43.109375 48.40625 42.328125 
Q 49.3125 41.546875 49.3125 40.28125 
Q 49.3125 39.703125 49.21875 39.5 
L 42 10.6875 
Q 41.3125 7.71875 41.3125 5.8125 
Q 41.3125 1.515625 44.1875 1.515625 
Q 47.40625 1.515625 49 5.484375 
Q 50.59375 9.46875 51.703125 14.703125 
Q 51.90625 15.28125 52.484375 15.28125 
L 53.71875 15.28125 
Q 54.109375 15.28125 54.34375 14.9375 
Q 54.59375 14.59375 54.59375 14.3125 
Q 53.515625 10.015625 52.515625 6.9375 
Q 51.515625 3.859375 49.359375 1.359375 
Q 47.21875 -1.125 44 -1.125 
Q 40.828125 -1.125 38.3125 0.609375 
Q 35.796875 2.34375 34.90625 5.328125 
Q 32.625 2.390625 29.59375 0.625 
Q 26.5625 -1.125 23.1875 -1.125 
Q 17.4375 -1.125 14.015625 2.015625 
Q 10.59375 5.171875 10.59375 10.890625 
" id="Cmmi10-75"/>
     <path d="M 3.171875 21.484375 
L 3.171875 30.328125 
L 30.171875 30.328125 
L 30.171875 21.484375 
z
" id="ArialMT-2d"/>
    </defs>
    <g style="fill:#262626;" transform="translate(282.775639304 165.251974743)scale(0.096 -0.096)">
     <use transform="translate(0.0 0.125)" xlink:href="#Cmmi10-70"/>
     <use transform="translate(50.29296875 -16.88125)scale(0.7)" xlink:href="#Cmmi10-72"/>
     <use transform="translate(81.875 -16.88125)scale(0.7)" xlink:href="#Cmmi10-61"/>
     <use transform="translate(118.823242188 -16.88125)scale(0.7)" xlink:href="#Cmmi10-6e"/>
     <use transform="translate(160.830078125 -16.88125)scale(0.7)" xlink:href="#Cmmi10-6b"/>
     <use transform="translate(197.231445312 -16.88125)scale(0.7)" xlink:href="#Cmmi10-73"/>
     <use transform="translate(229.975585938 -16.88125)scale(0.7)" xlink:href="#Cmmi10-75"/>
     <use transform="translate(270.0 -16.88125)scale(0.7)" xlink:href="#Cmmi10-6d"/>
     <use transform="translate(337.832421875 0.125)" xlink:href="#ArialMT-20"/>
     <use transform="translate(365.615625 0.125)" xlink:href="#ArialMT-3c"/>
     <use transform="translate(424.0140625 0.125)" xlink:href="#ArialMT-20"/>
     <use transform="translate(451.797265625 0.125)" xlink:href="#ArialMT-31"/>
     <use transform="translate(507.4125 0.125)" xlink:href="#ArialMT-65"/>
     <use transform="translate(563.027734375 0.125)" xlink:href="#ArialMT-2d"/>
     <use transform="translate(596.328515625 0.125)" xlink:href="#ArialMT-34"/>
     <use transform="translate(651.94375 0.125)" xlink:href="#ArialMT-32"/>
    </g>
   </g>
   <g id="text_22">
    <!-- Measured $K_{\rm S}$ values -->
    <defs>
     <path d="M 5.609375 -1.421875 
L 5.609375 21.921875 
Q 5.609375 22.703125 6.5 22.703125 
L 7.71875 22.703125 
Q 8.015625 22.703125 8.25 22.453125 
Q 8.5 22.21875 8.5 21.921875 
Q 8.5 12.109375 14.578125 6.703125 
Q 20.65625 1.3125 30.515625 1.3125 
Q 33.984375 1.3125 36.90625 3.3125 
Q 39.84375 5.328125 41.46875 8.5625 
Q 43.109375 11.8125 43.109375 15.28125 
Q 43.109375 18.3125 41.890625 21.171875 
Q 40.671875 24.03125 38.375 26.125 
Q 36.078125 28.21875 33.203125 28.90625 
L 20.21875 32.078125 
Q 13.765625 33.796875 9.6875 39.09375 
Q 5.609375 44.390625 5.609375 50.984375 
Q 5.609375 56.15625 8.25 60.6875 
Q 10.890625 65.234375 15.359375 67.875 
Q 19.828125 70.515625 25 70.515625 
Q 35.015625 70.515625 40.921875 63.71875 
L 45.015625 70.21875 
Q 45.3125 70.515625 45.703125 70.515625 
L 46.390625 70.515625 
Q 46.6875 70.515625 46.953125 70.28125 
Q 47.21875 70.0625 47.21875 69.671875 
L 47.21875 46.484375 
Q 47.21875 45.609375 46.390625 45.609375 
L 45.21875 45.609375 
Q 44.28125 45.609375 44.28125 46.484375 
Q 44.28125 49.03125 43.421875 52.046875 
Q 42.578125 55.078125 41.0625 57.859375 
Q 39.546875 60.640625 37.796875 62.40625 
Q 32.953125 67.28125 25 67.28125 
Q 21.578125 67.28125 18.703125 65.546875 
Q 15.828125 63.8125 14.109375 60.828125 
Q 12.40625 57.859375 12.40625 54.59375 
Q 12.40625 50.296875 15.0625 46.796875 
Q 17.71875 43.3125 22.015625 42.1875 
L 35.015625 39.015625 
Q 38.234375 38.234375 41.09375 36.203125 
Q 43.953125 34.1875 45.84375 31.5 
Q 47.75 28.8125 48.828125 25.515625 
Q 49.90625 22.21875 49.90625 18.703125 
Q 49.90625 13.28125 47.40625 8.46875 
Q 44.921875 3.65625 40.40625 0.71875 
Q 35.890625 -2.203125 30.515625 -2.203125 
Q 27.203125 -2.203125 23.734375 -1.46875 
Q 20.265625 -0.734375 17.328125 0.78125 
Q 14.40625 2.296875 12.015625 4.6875 
L 7.8125 -1.90625 
Q 7.515625 -2.203125 7.078125 -2.203125 
L 6.5 -2.203125 
Q 5.609375 -2.203125 5.609375 -1.421875 
" id="Cmr10-53"/>
    </defs>
    <g style="fill:#262626;" transform="translate(238.615639304 19.368)scale(0.096 -0.096)">
     <use transform="translate(0.0 0.421875)" xlink:href="#ArialMT-4d"/>
     <use transform="translate(83.30078125 0.421875)" xlink:href="#ArialMT-65"/>
     <use transform="translate(138.916015625 0.421875)" xlink:href="#ArialMT-61"/>
     <use transform="translate(194.53125 0.421875)" xlink:href="#ArialMT-73"/>
     <use transform="translate(244.53125 0.421875)" xlink:href="#ArialMT-75"/>
     <use transform="translate(300.146484375 0.421875)" xlink:href="#ArialMT-72"/>
     <use transform="translate(333.447265625 0.421875)" xlink:href="#ArialMT-65"/>
     <use transform="translate(389.0625 0.421875)" xlink:href="#ArialMT-64"/>
     <use transform="translate(444.677734375 0.421875)" xlink:href="#ArialMT-20"/>
     <use transform="translate(472.4609375 0.421875)" xlink:href="#Cmmi10-4b"/>
     <use transform="translate(557.373046875 -16.584375)scale(0.7)" xlink:href="#Cmr10-53"/>
     <use transform="translate(602.612695313 0.421875)" xlink:href="#ArialMT-20"/>
     <use transform="translate(630.395898438 0.421875)" xlink:href="#ArialMT-76"/>
     <use transform="translate(680.395898438 0.421875)" xlink:href="#ArialMT-61"/>
     <use transform="translate(736.011132813 0.421875)" xlink:href="#ArialMT-6c"/>
     <use transform="translate(758.227929688 0.421875)" xlink:href="#ArialMT-75"/>
     <use transform="translate(813.843164063 0.421875)" xlink:href="#ArialMT-65"/>
     <use transform="translate(869.458398438 0.421875)" xlink:href="#ArialMT-73"/>
    </g>
   </g>
   <g id="legend_1">
    <g id="line2d_48">
     <path d="M 214.905756 34.768 
L 230.905756 34.768 
" style="fill:none;stroke:#3eaf76;stroke-linecap:round;stroke-width:2.0;"/>
    </g>
    <g id="line2d_49"/>
    <g id="text_23">
     <!-- substrates $(K_M)$ -->
     <defs>
      <path d="M 31 -24.8125 
Q 25.4375 -20.40625 21.40625 -14.71875 
Q 17.390625 -9.03125 14.8125 -2.578125 
Q 12.25 3.859375 10.984375 10.890625 
Q 9.71875 17.921875 9.71875 25 
Q 9.71875 32.171875 10.984375 39.203125 
Q 12.25 46.234375 14.859375 52.734375 
Q 17.484375 59.234375 21.53125 64.890625 
Q 25.59375 70.5625 31 74.8125 
Q 31 75 31.5 75 
L 32.421875 75 
Q 32.71875 75 32.953125 74.734375 
Q 33.203125 74.46875 33.203125 74.125 
Q 33.203125 73.6875 33.015625 73.484375 
Q 28.125 68.703125 24.875 63.234375 
Q 21.625 57.765625 19.640625 51.578125 
Q 17.671875 45.40625 16.796875 38.78125 
Q 15.921875 32.171875 15.921875 25 
Q 15.921875 -6.78125 32.90625 -23.296875 
Q 33.203125 -23.578125 33.203125 -24.125 
Q 33.203125 -24.359375 32.9375 -24.671875 
Q 32.671875 -25 32.421875 -25 
L 31.5 -25 
Q 31 -25 31 -24.8125 
" id="Cmr10-28"/>
      <path d="M 6.5 -25 
Q 5.609375 -25 5.609375 -24.125 
Q 5.609375 -23.6875 5.8125 -23.484375 
Q 22.90625 -6.78125 22.90625 25 
Q 22.90625 56.78125 6 73.296875 
Q 5.609375 73.53125 5.609375 74.125 
Q 5.609375 74.46875 5.875 74.734375 
Q 6.15625 75 6.5 75 
L 7.421875 75 
Q 7.71875 75 7.90625 74.8125 
Q 15.09375 69.140625 19.875 61.03125 
Q 24.65625 52.9375 26.875 43.75 
Q 29.109375 34.578125 29.109375 25 
Q 29.109375 17.921875 27.90625 11.0625 
Q 26.703125 4.203125 24.09375 -2.453125 
Q 21.484375 -9.125 17.484375 -14.765625 
Q 13.484375 -20.40625 7.90625 -24.8125 
Q 7.71875 -25 7.421875 -25 
z
" id="Cmr10-29"/>
      <path d="M 5.078125 0 
Q 4.109375 0 4.109375 1.3125 
Q 4.15625 1.5625 4.296875 2.140625 
Q 4.4375 2.734375 4.6875 3.125 
Q 4.9375 3.515625 5.421875 3.515625 
Q 14.9375 3.515625 16.5 9.625 
L 29.5 61.8125 
Q 29.6875 62.796875 29.6875 63.1875 
Q 29.6875 64.265625 28.515625 64.40625 
Q 26.609375 64.796875 21.296875 64.796875 
Q 20.3125 64.796875 20.3125 66.109375 
Q 20.359375 66.359375 20.5 66.96875 
Q 20.65625 67.578125 20.921875 67.9375 
Q 21.1875 68.3125 21.578125 68.3125 
L 39.203125 68.3125 
Q 40.328125 68.3125 40.484375 67.1875 
L 48.296875 9.90625 
L 84.71875 67.1875 
Q 85.40625 68.3125 86.625 68.3125 
L 103.609375 68.3125 
Q 104.59375 68.3125 104.59375 67 
Q 104.546875 66.75 104.390625 66.140625 
Q 104.25 65.53125 103.984375 65.15625 
Q 103.71875 64.796875 103.328125 64.796875 
Q 97.21875 64.796875 94.828125 64.109375 
Q 93.5 63.671875 92.921875 61.375 
L 79.203125 6.5 
Q 79 5.515625 79 5.078125 
Q 79 4.6875 79.125 4.421875 
Q 79.25 4.15625 79.46875 4.078125 
Q 79.6875 4 80.171875 3.90625 
Q 82.078125 3.515625 87.40625 3.515625 
Q 88.375 3.515625 88.375 2.203125 
Q 88.03125 0.78125 87.828125 0.390625 
Q 87.640625 0 86.71875 0 
L 60.59375 0 
Q 59.625 0 59.625 1.3125 
Q 59.671875 1.5625 59.8125 2.171875 
Q 59.96875 2.78125 60.234375 3.140625 
Q 60.5 3.515625 60.890625 3.515625 
Q 67 3.515625 69.390625 4.203125 
Q 70.703125 4.640625 71.296875 6.890625 
L 85.6875 64.796875 
L 45.3125 1.125 
Q 44.734375 0 43.3125 0 
Q 42.046875 0 41.890625 1.125 
L 33.40625 64.015625 
L 19.671875 9.1875 
Q 19.578125 8.9375 19.53125 8.5625 
Q 19.484375 8.203125 19.390625 7.71875 
Q 19.390625 5.125 21.65625 4.3125 
Q 23.921875 3.515625 27.203125 3.515625 
Q 28.21875 3.515625 28.21875 2.203125 
Q 27.875 0.875 27.65625 0.4375 
Q 27.4375 0 26.515625 0 
z
" id="Cmmi10-4d"/>
     </defs>
     <g style="fill:#262626;" transform="translate(237.30575632 37.568)scale(0.08 -0.08)">
      <use xlink:href="#ArialMT-73"/>
      <use transform="translate(50.0 0.0)" xlink:href="#ArialMT-75"/>
      <use transform="translate(105.615234375 0.0)" xlink:href="#ArialMT-62"/>
      <use transform="translate(161.23046875 0.0)" xlink:href="#ArialMT-73"/>
      <use transform="translate(211.23046875 0.0)" xlink:href="#ArialMT-74"/>
      <use transform="translate(239.013671875 0.0)" xlink:href="#ArialMT-72"/>
      <use transform="translate(272.314453125 0.0)" xlink:href="#ArialMT-61"/>
      <use transform="translate(327.9296875 0.0)" xlink:href="#ArialMT-74"/>
      <use transform="translate(355.712890625 0.0)" xlink:href="#ArialMT-65"/>
      <use transform="translate(411.328125 0.0)" xlink:href="#ArialMT-73"/>
      <use transform="translate(461.328125 0.0)" xlink:href="#ArialMT-20"/>
      <use transform="translate(489.111328125 0.0)" xlink:href="#Cmr10-28"/>
      <use transform="translate(527.9296875 0.0)" xlink:href="#Cmmi10-4b"/>
      <use transform="translate(612.841796875 -17.00625)scale(0.7)" xlink:href="#Cmmi10-4d"/>
      <use transform="translate(687.134179688 0.0)" xlink:href="#Cmr10-29"/>
     </g>
    </g>
    <g id="line2d_50">
     <path d="M 214.905756 46.768 
L 230.905756 46.768 
" style="fill:none;stroke:#fe86a4;stroke-linecap:round;stroke-width:2.0;"/>
    </g>
    <g id="line2d_51"/>
    <g id="text_24">
     <!-- inhibitors $(K_I)$ -->
     <defs>
      <path d="M 6.59375 0 
L 6.59375 71.578125 
L 15.375 71.578125 
L 15.375 45.90625 
Q 21.53125 53.03125 30.90625 53.03125 
Q 36.671875 53.03125 40.921875 50.75 
Q 45.171875 48.484375 47 44.484375 
Q 48.828125 40.484375 48.828125 32.859375 
L 48.828125 0 
L 40.046875 0 
L 40.046875 32.859375 
Q 40.046875 39.453125 37.1875 42.453125 
Q 34.328125 45.453125 29.109375 45.453125 
Q 25.203125 45.453125 21.75 43.421875 
Q 18.3125 41.40625 16.84375 37.9375 
Q 15.375 34.46875 15.375 28.375 
L 15.375 0 
z
" id="ArialMT-68"/>
      <path d="M 4.203125 0 
Q 3.21875 0 3.21875 1.3125 
Q 3.609375 3.515625 4.5 3.515625 
Q 10.40625 3.515625 12.5 3.90625 
Q 14.796875 4.4375 15.375 6.890625 
L 29.109375 61.8125 
Q 29.296875 62.796875 29.296875 63.09375 
Q 29.296875 63.71875 28.96875 63.984375 
Q 28.65625 64.265625 27.984375 64.40625 
Q 25.984375 64.796875 20.40625 64.796875 
Q 19.390625 64.796875 19.390625 66.109375 
Q 19.734375 67.390625 19.921875 67.84375 
Q 20.125 68.3125 21.09375 68.3125 
L 49.03125 68.3125 
Q 50 68.3125 50 67 
Q 49.953125 66.75 49.796875 66.15625 
Q 49.65625 65.578125 49.40625 65.1875 
Q 49.171875 64.796875 48.6875 64.796875 
Q 42.828125 64.796875 40.578125 64.40625 
Q 38.375 63.875 37.796875 61.375 
L 24.125 6.5 
Q 23.875 5.28125 23.875 5.171875 
Q 23.875 4.9375 23.953125 4.71875 
Q 24.03125 4.5 24.25 4.328125 
Q 24.46875 4.15625 24.6875 4.078125 
Q 24.90625 4 25.203125 3.90625 
Q 27.09375 3.515625 32.8125 3.515625 
Q 33.796875 3.515625 33.796875 2.203125 
Q 33.453125 0.78125 33.25 0.390625 
Q 33.0625 0 32.078125 0 
z
" id="Cmmi10-49"/>
     </defs>
     <g style="fill:#262626;" transform="translate(237.30575632 49.568)scale(0.08 -0.08)">
      <use xlink:href="#ArialMT-69"/>
      <use transform="translate(22.216796875 0.0)" xlink:href="#ArialMT-6e"/>
      <use transform="translate(77.83203125 0.0)" xlink:href="#ArialMT-68"/>
      <use transform="translate(133.447265625 0.0)" xlink:href="#ArialMT-69"/>
      <use transform="translate(155.6640625 0.0)" xlink:href="#ArialMT-62"/>
      <use transform="translate(211.279296875 0.0)" xlink:href="#ArialMT-69"/>
      <use transform="translate(233.49609375 0.0)" xlink:href="#ArialMT-74"/>
      <use transform="translate(261.279296875 0.0)" xlink:href="#ArialMT-6f"/>
      <use transform="translate(316.89453125 0.0)" xlink:href="#ArialMT-72"/>
      <use transform="translate(350.1953125 0.0)" xlink:href="#ArialMT-73"/>
      <use transform="translate(400.1953125 0.0)" xlink:href="#ArialMT-20"/>
      <use transform="translate(427.978515625 0.0)" xlink:href="#Cmr10-28"/>
      <use transform="translate(466.796875 0.0)" xlink:href="#Cmmi10-4b"/>
      <use transform="translate(551.708984375 -17.00625)scale(0.7)" xlink:href="#Cmmi10-49"/>
      <use transform="translate(588.813867188 0.0)" xlink:href="#Cmr10-29"/>
     </g>
    </g>
   </g>
  </g>
  <g id="axes_3">
   <g id="patch_12">
    <path d="M 375.691169 173.22575 
L 525.830935 173.22575 
L 525.830935 24.368 
L 375.691169 24.368 
z
" style="fill:#ffffff;"/>
   </g>
   <g id="matplotlib.axis_5">
    <g id="xtick_11">
     <g id="line2d_52"/>
     <g id="line2d_53"/>
     <g id="text_25">
      <!-- 0.0 -->
      <g style="fill:#262626;" transform="translate(371.603127381 184.551999714)scale(0.08 -0.08)">
       <use xlink:href="#ArialMT-30"/>
       <use x="55.615234375" xlink:href="#ArialMT-2e"/>
       <use x="83.3984375" xlink:href="#ArialMT-30"/>
      </g>
     </g>
    </g>
    <g id="xtick_12">
     <g id="line2d_54"/>
     <g id="line2d_55"/>
     <g id="text_26">
      <!-- 0.2 -->
      <g style="fill:#262626;" transform="translate(401.042297178 184.551999714)scale(0.08 -0.08)">
       <use xlink:href="#ArialMT-30"/>
       <use x="55.615234375" xlink:href="#ArialMT-2e"/>
       <use x="83.3984375" xlink:href="#ArialMT-32"/>
      </g>
     </g>
    </g>
    <g id="xtick_13">
     <g id="line2d_56"/>
     <g id="line2d_57"/>
     <g id="text_27">
      <!-- 0.4 -->
      <g style="fill:#262626;" transform="translate(430.481466975 184.551999714)scale(0.08 -0.08)">
       <use xlink:href="#ArialMT-30"/>
       <use x="55.615234375" xlink:href="#ArialMT-2e"/>
       <use x="83.3984375" xlink:href="#ArialMT-34"/>
      </g>
     </g>
    </g>
    <g id="xtick_14">
     <g id="line2d_58"/>
     <g id="line2d_59"/>
     <g id="text_28">
      <!-- 0.6 -->
      <g style="fill:#262626;" transform="translate(459.920636773 184.551999714)scale(0.08 -0.08)">
       <use xlink:href="#ArialMT-30"/>
       <use x="55.615234375" xlink:href="#ArialMT-2e"/>
       <use x="83.3984375" xlink:href="#ArialMT-36"/>
      </g>
     </g>
    </g>
    <g id="xtick_15">
     <g id="line2d_60"/>
     <g id="line2d_61"/>
     <g id="text_29">
      <!-- 0.8 -->
      <g style="fill:#262626;" transform="translate(489.35980657 184.551999714)scale(0.08 -0.08)">
       <use xlink:href="#ArialMT-30"/>
       <use x="55.615234375" xlink:href="#ArialMT-2e"/>
       <use x="83.3984375" xlink:href="#ArialMT-38"/>
      </g>
     </g>
    </g>
    <g id="xtick_16">
     <g id="line2d_62"/>
     <g id="line2d_63"/>
     <g id="text_30">
      <!-- 1.0 -->
      <g style="fill:#262626;" transform="translate(518.798976367 184.551999714)scale(0.08 -0.08)">
       <use xlink:href="#ArialMT-31"/>
       <use x="55.615234375" xlink:href="#ArialMT-2e"/>
       <use x="83.3984375" xlink:href="#ArialMT-30"/>
      </g>
     </g>
    </g>
    <g id="text_31">
     <!-- $[S]/\left([S] + K_S\right)$ -->
     <defs>
      <path d="M 5.609375 -23 
Q 5.609375 -22.703125 5.71875 -22.609375 
L 40.484375 73.78125 
Q 40.671875 74.359375 41.15625 74.671875 
Q 41.65625 75 42.28125 75 
Q 43.171875 75 43.71875 74.453125 
Q 44.28125 73.921875 44.28125 73 
L 44.28125 72.609375 
L 9.515625 -23.78125 
Q 8.9375 -25 7.625 -25 
Q 6.78125 -25 6.1875 -24.40625 
Q 5.609375 -23.828125 5.609375 -23 
" id="Cmmi10-3d"/>
      <path d="M 7.515625 23 
Q 6.6875 23 6.140625 23.625 
Q 5.609375 24.265625 5.609375 25 
Q 5.609375 25.734375 6.140625 26.359375 
Q 6.6875 27 7.515625 27 
L 36.921875 27 
L 36.921875 56.5 
Q 36.921875 57.28125 37.5 57.78125 
Q 38.09375 58.296875 38.921875 58.296875 
Q 39.65625 58.296875 40.28125 57.78125 
Q 40.921875 57.28125 40.921875 56.5 
L 40.921875 27 
L 70.3125 27 
Q 71.046875 27 71.578125 26.359375 
Q 72.125 25.734375 72.125 25 
Q 72.125 24.265625 71.578125 23.625 
Q 71.046875 23 70.3125 23 
L 40.921875 23 
L 40.921875 -6.5 
Q 40.921875 -7.28125 40.28125 -7.78125 
Q 39.65625 -8.296875 38.921875 -8.296875 
Q 38.09375 -8.296875 37.5 -7.78125 
Q 36.921875 -7.28125 36.921875 -6.5 
L 36.921875 23 
z
" id="Cmr10-2b"/>
     </defs>
     <g style="fill:#262626;" transform="translate(424.009051874 197.741999714)scale(0.088 -0.088)">
      <use xlink:href="#Cmr10-5b"/>
      <use transform="translate(27.685546875 0.0)" xlink:href="#Cmmi10-53"/>
      <use transform="translate(88.96484375 0.0)" xlink:href="#Cmr10-5d"/>
      <use transform="translate(116.650390625 0.0)" xlink:href="#Cmmi10-3d"/>
      <use transform="translate(166.650390625 0.0)" xlink:href="#Cmr10-28"/>
      <use transform="translate(205.46875 0.0)" xlink:href="#Cmr10-5b"/>
      <use transform="translate(233.154296875 0.0)" xlink:href="#Cmmi10-53"/>
      <use transform="translate(294.43359375 0.0)" xlink:href="#Cmr10-5d"/>
      <use transform="translate(339.677734375 0.0)" xlink:href="#Cmr10-2b"/>
      <use transform="translate(434.921875 0.0)" xlink:href="#Cmmi10-4b"/>
      <use transform="translate(519.833984375 -17.00625)scale(0.7)" xlink:href="#Cmmi10-53"/>
      <use transform="translate(569.106835938 0.0)" xlink:href="#Cmr10-29"/>
     </g>
    </g>
   </g>
   <g id="matplotlib.axis_6">
    <g id="ytick_13">
     <g id="line2d_64"/>
     <g id="line2d_65"/>
    </g>
    <g id="ytick_14">
     <g id="line2d_66"/>
     <g id="line2d_67"/>
    </g>
    <g id="ytick_15">
     <g id="line2d_68"/>
     <g id="line2d_69"/>
    </g>
    <g id="ytick_16">
     <g id="line2d_70"/>
     <g id="line2d_71"/>
    </g>
    <g id="ytick_17">
     <g id="line2d_72"/>
     <g id="line2d_73"/>
    </g>
    <g id="ytick_18">
     <g id="line2d_74"/>
     <g id="line2d_75"/>
    </g>
   </g>
   <g id="line2d_76">
    <path clip-path="url(#pe40dbd9e0c)" d="M 373.576662 173.225247 
L 376.020708 173.181744 
L 377.242731 173.050361 
L 379.686777 172.435754 
L 380.9088 172.015364 
L 382.130823 171.47246 
L 387.018915 168.758808 
L 391.907008 166.569013 
L 394.351054 165.625908 
L 396.7951 164.874289 
L 399.239146 163.808999 
L 405.349261 160.991038 
L 411.459377 158.510907 
L 415.125446 157.624708 
L 423.679607 154.246355 
L 429.789722 152.27302 
L 433.455792 150.819073 
L 443.231976 147.35394 
L 451.786137 143.95554 
L 455.452207 142.741701 
L 459.118276 141.443022 
L 462.784345 140.30077 
L 468.89446 138.162124 
L 472.560529 137.101318 
L 473.782552 136.607921 
L 476.226599 135.246944 
L 478.670645 133.847706 
L 482.336714 131.940784 
L 484.78076 130.560502 
L 487.224806 129.270357 
L 488.446829 128.416814 
L 494.556944 123.538827 
L 498.223014 120.559679 
L 500.66706 118.479934 
L 503.111106 115.998464 
L 504.333129 114.573698 
L 505.555152 112.925758 
L 506.777175 110.997082 
L 509.221221 106.443535 
L 511.665267 101.280494 
L 512.88729 98.279692 
L 514.109313 94.813959 
L 515.331336 90.829695 
L 516.55336 86.162143 
L 517.775383 80.554568 
L 518.997406 73.83921 
L 520.219429 65.880771 
L 521.441452 56.463944 
L 523.885498 35.452639 
L 525.107521 28.354994 
L 526.329544 25.269563 
L 527.551567 24.487332 
L 528.77359 24.376818 
L 528.77359 24.376818 
" style="fill:none;stroke:#3eaf76;stroke-linecap:round;stroke-width:2.0;"/>
   </g>
   <g id="line2d_77">
    <path clip-path="url(#pe40dbd9e0c)" d="M 372.751005 173.215444 
L 373.978892 173.104612 
L 375.206779 172.45092 
L 376.434665 170.390399 
L 378.890439 163.05129 
L 380.118325 160.386584 
L 383.801985 155.020738 
L 387.485645 148.587477 
L 389.941419 144.145052 
L 392.397192 140.528995 
L 397.308739 134.086555 
L 399.764512 131.63877 
L 402.220286 129.485434 
L 408.359719 122.939438 
L 412.043379 119.626267 
L 413.271266 118.819636 
L 415.727039 117.774371 
L 418.182812 116.71702 
L 421.866472 114.755281 
L 425.550133 112.200999 
L 428.005906 111.114305 
L 430.461679 110.339649 
L 431.689566 109.977012 
L 432.917453 109.429598 
L 439.056886 105.946122 
L 441.512659 103.788592 
L 442.740546 102.717128 
L 443.968433 101.917736 
L 445.196319 101.428408 
L 447.652093 100.665916 
L 448.879979 100.100128 
L 450.107866 99.38838 
L 451.335753 98.499765 
L 457.475186 93.011383 
L 458.703073 91.606239 
L 461.158846 88.438273 
L 462.386733 87.323975 
L 464.842506 85.902622 
L 467.29828 84.693853 
L 468.526166 84.142149 
L 469.754053 83.413317 
L 470.98194 82.449607 
L 472.209826 81.255448 
L 475.893486 76.779115 
L 477.121373 75.668474 
L 479.577146 73.936468 
L 484.488693 71.072938 
L 485.71658 70.114775 
L 489.40024 66.529929 
L 490.628127 65.878039 
L 491.856013 65.517515 
L 494.311787 65.031473 
L 495.539673 64.626489 
L 497.995447 63.481491 
L 500.45122 62.000708 
L 502.906993 59.99888 
L 506.590653 56.616291 
L 507.81854 55.287384 
L 511.5022 50.513782 
L 515.18586 46.332395 
L 516.413747 44.622709 
L 518.86952 40.433749 
L 520.097407 38.234863 
L 521.325294 35.704811 
L 522.55318 32.401103 
L 523.781067 28.746147 
L 525.008954 26.015657 
L 526.23684 24.760946 
L 527.464727 24.42348 
L 528.692614 24.372402 
L 528.692614 24.372402 
" style="fill:none;stroke:#fe86a4;stroke-linecap:round;stroke-width:2.0;"/>
   </g>
   <g id="patch_13">
    <path d="M 375.691169 24.368 
L 525.830935 24.368 
" style="fill:none;stroke:#262626;stroke-linecap:square;stroke-linejoin:miter;stroke-width:1.25;"/>
   </g>
   <g id="patch_14">
    <path d="M 525.830935 173.22575 
L 525.830935 24.368 
" style="fill:none;stroke:#262626;stroke-linecap:square;stroke-linejoin:miter;stroke-width:1.25;"/>
   </g>
   <g id="patch_15">
    <path d="M 375.691169 173.22575 
L 525.830935 173.22575 
" style="fill:none;stroke:#262626;stroke-linecap:square;stroke-linejoin:miter;stroke-width:1.25;"/>
   </g>
   <g id="patch_16">
    <path d="M 375.691169 173.22575 
L 375.691169 24.368 
" style="fill:none;stroke:#262626;stroke-linecap:square;stroke-linejoin:miter;stroke-width:1.25;"/>
   </g>
   <g id="text_32">
    <!-- $p_{ranksum}$ &lt; 2e-54 -->
    <defs>
     <path d="M 4.15625 18.75 
L 13.375 19.53125 
Q 14.40625 12.796875 18.140625 9.390625 
Q 21.875 6 27.15625 6 
Q 33.5 6 37.890625 10.78125 
Q 42.28125 15.578125 42.28125 23.484375 
Q 42.28125 31 38.0625 35.34375 
Q 33.84375 39.703125 27 39.703125 
Q 22.75 39.703125 19.328125 37.765625 
Q 15.921875 35.84375 13.96875 32.765625 
L 5.71875 33.84375 
L 12.640625 70.609375 
L 48.25 70.609375 
L 48.25 62.203125 
L 19.671875 62.203125 
L 15.828125 42.96875 
Q 22.265625 47.46875 29.34375 47.46875 
Q 38.71875 47.46875 45.15625 40.96875 
Q 51.609375 34.46875 51.609375 24.265625 
Q 51.609375 14.546875 45.953125 7.46875 
Q 39.0625 -1.21875 27.15625 -1.21875 
Q 17.390625 -1.21875 11.203125 4.25 
Q 5.03125 9.71875 4.15625 18.75 
" id="ArialMT-35"/>
    </defs>
    <g style="fill:#262626;" transform="translate(450.761051874 165.251974743)scale(0.096 -0.096)">
     <use transform="translate(0.0 0.125)" xlink:href="#Cmmi10-70"/>
     <use transform="translate(50.29296875 -16.88125)scale(0.7)" xlink:href="#Cmmi10-72"/>
     <use transform="translate(81.875 -16.88125)scale(0.7)" xlink:href="#Cmmi10-61"/>
     <use transform="translate(118.823242188 -16.88125)scale(0.7)" xlink:href="#Cmmi10-6e"/>
     <use transform="translate(160.830078125 -16.88125)scale(0.7)" xlink:href="#Cmmi10-6b"/>
     <use transform="translate(197.231445312 -16.88125)scale(0.7)" xlink:href="#Cmmi10-73"/>
     <use transform="translate(229.975585938 -16.88125)scale(0.7)" xlink:href="#Cmmi10-75"/>
     <use transform="translate(270.0 -16.88125)scale(0.7)" xlink:href="#Cmmi10-6d"/>
     <use transform="translate(337.832421875 0.125)" xlink:href="#ArialMT-20"/>
     <use transform="translate(365.615625 0.125)" xlink:href="#ArialMT-3c"/>
     <use transform="translate(424.0140625 0.125)" xlink:href="#ArialMT-20"/>
     <use transform="translate(451.797265625 0.125)" xlink:href="#ArialMT-32"/>
     <use transform="translate(507.4125 0.125)" xlink:href="#ArialMT-65"/>
     <use transform="translate(563.027734375 0.125)" xlink:href="#ArialMT-2d"/>
     <use transform="translate(596.328515625 0.125)" xlink:href="#ArialMT-35"/>
     <use transform="translate(651.94375 0.125)" xlink:href="#ArialMT-34"/>
    </g>
   </g>
   <g id="text_33">
    <!-- Saturation levels -->
    <defs>
     <path d="M 4.5 23 
L 13.421875 23.78125 
Q 14.0625 18.40625 16.375 14.96875 
Q 18.703125 11.53125 23.578125 9.40625 
Q 28.46875 7.28125 34.578125 7.28125 
Q 39.984375 7.28125 44.140625 8.890625 
Q 48.296875 10.5 50.3125 13.296875 
Q 52.34375 16.109375 52.34375 19.4375 
Q 52.34375 22.796875 50.390625 25.3125 
Q 48.4375 27.828125 43.953125 29.546875 
Q 41.0625 30.671875 31.203125 33.03125 
Q 21.34375 35.40625 17.390625 37.5 
Q 12.25 40.1875 9.734375 44.15625 
Q 7.234375 48.140625 7.234375 53.078125 
Q 7.234375 58.5 10.296875 63.203125 
Q 13.375 67.921875 19.28125 70.359375 
Q 25.203125 72.796875 32.421875 72.796875 
Q 40.375 72.796875 46.453125 70.234375 
Q 52.546875 67.671875 55.8125 62.6875 
Q 59.078125 57.71875 59.328125 51.421875 
L 50.25 50.734375 
Q 49.515625 57.515625 45.28125 60.984375 
Q 41.0625 64.453125 32.8125 64.453125 
Q 24.21875 64.453125 20.28125 61.296875 
Q 16.359375 58.15625 16.359375 53.71875 
Q 16.359375 49.859375 19.140625 47.359375 
Q 21.875 44.875 33.421875 42.265625 
Q 44.96875 39.65625 49.265625 37.703125 
Q 55.515625 34.8125 58.484375 30.390625 
Q 61.46875 25.984375 61.46875 20.21875 
Q 61.46875 14.5 58.203125 9.4375 
Q 54.9375 4.390625 48.796875 1.578125 
Q 42.671875 -1.21875 35.015625 -1.21875 
Q 25.296875 -1.21875 18.71875 1.609375 
Q 12.15625 4.4375 8.421875 10.125 
Q 4.6875 15.828125 4.5 23 
" id="ArialMT-53"/>
    </defs>
    <g style="fill:#262626;" transform="translate(415.276301874 19.368)scale(0.096 -0.096)">
     <use xlink:href="#ArialMT-53"/>
     <use x="66.69921875" xlink:href="#ArialMT-61"/>
     <use x="122.314453125" xlink:href="#ArialMT-74"/>
     <use x="150.09765625" xlink:href="#ArialMT-75"/>
     <use x="205.712890625" xlink:href="#ArialMT-72"/>
     <use x="239.013671875" xlink:href="#ArialMT-61"/>
     <use x="294.62890625" xlink:href="#ArialMT-74"/>
     <use x="322.412109375" xlink:href="#ArialMT-69"/>
     <use x="344.62890625" xlink:href="#ArialMT-6f"/>
     <use x="400.244140625" xlink:href="#ArialMT-6e"/>
     <use x="455.859375" xlink:href="#ArialMT-20"/>
     <use x="483.642578125" xlink:href="#ArialMT-6c"/>
     <use x="505.859375" xlink:href="#ArialMT-65"/>
     <use x="561.474609375" xlink:href="#ArialMT-76"/>
     <use x="611.474609375" xlink:href="#ArialMT-65"/>
     <use x="667.08984375" xlink:href="#ArialMT-6c"/>
     <use x="689.306640625" xlink:href="#ArialMT-73"/>
    </g>
   </g>
   <g id="legend_2">
    <g id="line2d_78">
     <path d="M 382.891169 34.49425 
L 398.891169 34.49425 
" style="fill:none;stroke:#3eaf76;stroke-linecap:round;stroke-width:2.0;"/>
    </g>
    <g id="line2d_79"/>
    <g id="text_34">
     <!-- substrates -->
     <g style="fill:#262626;" transform="translate(405.291168891 37.29425)scale(0.08 -0.08)">
      <use xlink:href="#ArialMT-73"/>
      <use x="50.0" xlink:href="#ArialMT-75"/>
      <use x="105.615234375" xlink:href="#ArialMT-62"/>
      <use x="161.23046875" xlink:href="#ArialMT-73"/>
      <use x="211.23046875" xlink:href="#ArialMT-74"/>
      <use x="239.013671875" xlink:href="#ArialMT-72"/>
      <use x="272.314453125" xlink:href="#ArialMT-61"/>
      <use x="327.9296875" xlink:href="#ArialMT-74"/>
      <use x="355.712890625" xlink:href="#ArialMT-65"/>
      <use x="411.328125" xlink:href="#ArialMT-73"/>
     </g>
    </g>
    <g id="line2d_80">
     <path d="M 382.891169 45.8105 
L 398.891169 45.8105 
" style="fill:none;stroke:#fe86a4;stroke-linecap:round;stroke-width:2.0;"/>
    </g>
    <g id="line2d_81"/>
    <g id="text_35">
     <!-- inhibitors -->
     <g style="fill:#262626;" transform="translate(405.291168891 48.6105)scale(0.08 -0.08)">
      <use xlink:href="#ArialMT-69"/>
      <use x="22.216796875" xlink:href="#ArialMT-6e"/>
      <use x="77.83203125" xlink:href="#ArialMT-68"/>
      <use x="133.447265625" xlink:href="#ArialMT-69"/>
      <use x="155.6640625" xlink:href="#ArialMT-62"/>
      <use x="211.279296875" xlink:href="#ArialMT-69"/>
      <use x="233.49609375" xlink:href="#ArialMT-74"/>
      <use x="261.279296875" xlink:href="#ArialMT-6f"/>
      <use x="316.89453125" xlink:href="#ArialMT-72"/>
      <use x="350.1953125" xlink:href="#ArialMT-73"/>
     </g>
    </g>
   </g>
  </g>
 </g>
 <defs>
  <clipPath id="pc9994a1b89">
   <rect height="148.857749714" width="150.139765966" x="39.72034375" y="24.368"/>
  </clipPath>
  <clipPath id="pe40dbd9e0c">
   <rect height="148.857749714" width="150.139765966" x="375.691168891" y="24.368"/>
  </clipPath>
  <clipPath id="p17125b3ca8">
   <rect height="148.857749714" width="150.139765966" x="207.70575632" y="24.368"/>
  </clipPath>
 </defs>
</svg>
