<?xml version="1.0" encoding="utf-8" standalone="no"?>
<!DOCTYPE svg PUBLIC "-//W3C//DTD SVG 1.1//EN"
  "http://www.w3.org/Graphics/SVG/1.1/DTD/svg11.dtd">
<!-- Created with matplotlib (http://matplotlib.org/) -->
<svg height="216pt" version="1.1" viewBox="0 0 540 216" width="540pt" xmlns="http://www.w3.org/2000/svg" xmlns:xlink="http://www.w3.org/1999/xlink">
 <defs>
  <style type="text/css">
*{stroke-linecap:butt;stroke-linejoin:round;stroke-miterlimit:100000;}
  </style>
 </defs>
 <g id="figure_1">
  <g id="patch_1">
   <path d="M 0 216 
L 540 216 
L 540 0 
L 0 0 
z
" style="fill:#ffffff;"/>
  </g>
  <g id="axes_1">
   <g id="patch_2">
    <path d="M 40.2055 172.532 
L 189.138756 172.532 
L 189.138756 24.368 
L 40.2055 24.368 
z
" style="fill:#ffffff;"/>
   </g>
   <g id="matplotlib.axis_1">
    <g id="xtick_1">
     <g id="line2d_1"/>
     <g id="line2d_2"/>
     <g id="text_1">
      <!-- 0.01 -->
      <defs>
       <path d="M 4.15625 35.296875 
Q 4.15625 48 6.765625 55.734375 
Q 9.375 63.484375 14.515625 67.671875 
Q 19.671875 71.875 27.484375 71.875 
Q 33.25 71.875 37.59375 69.546875 
Q 41.9375 67.234375 44.765625 62.859375 
Q 47.609375 58.5 49.21875 52.21875 
Q 50.828125 45.953125 50.828125 35.296875 
Q 50.828125 22.703125 48.234375 14.96875 
Q 45.65625 7.234375 40.5 3 
Q 35.359375 -1.21875 27.484375 -1.21875 
Q 17.140625 -1.21875 11.234375 6.203125 
Q 4.15625 15.140625 4.15625 35.296875 
M 13.1875 35.296875 
Q 13.1875 17.671875 17.3125 11.828125 
Q 21.4375 6 27.484375 6 
Q 33.546875 6 37.671875 11.859375 
Q 41.796875 17.71875 41.796875 35.296875 
Q 41.796875 52.984375 37.671875 58.78125 
Q 33.546875 64.59375 27.390625 64.59375 
Q 21.34375 64.59375 17.71875 59.46875 
Q 13.1875 52.9375 13.1875 35.296875 
" id="ArialMT-30"/>
       <path d="M 37.25 0 
L 28.46875 0 
L 28.46875 56 
Q 25.296875 52.984375 20.140625 49.953125 
Q 14.984375 46.921875 10.890625 45.40625 
L 10.890625 53.90625 
Q 18.265625 57.375 23.78125 62.296875 
Q 29.296875 67.234375 31.59375 71.875 
L 37.25 71.875 
z
" id="ArialMT-31"/>
       <path d="M 9.078125 0 
L 9.078125 10.015625 
L 19.09375 10.015625 
L 19.09375 0 
z
" id="ArialMT-2e"/>
      </defs>
      <g style="fill:#262626;" transform="translate(35.967154908 183.85825)scale(0.08 -0.08)">
       <use xlink:href="#ArialMT-30"/>
       <use x="55.615234375" xlink:href="#ArialMT-2e"/>
       <use x="83.3984375" xlink:href="#ArialMT-30"/>
       <use x="139.013671875" xlink:href="#ArialMT-31"/>
      </g>
     </g>
    </g>
    <g id="xtick_2">
     <g id="line2d_3"/>
     <g id="line2d_4"/>
     <g id="text_2">
      <!-- 0.1 -->
      <g style="fill:#262626;" transform="translate(73.6518289885 183.85825)scale(0.08 -0.08)">
       <use xlink:href="#ArialMT-30"/>
       <use x="55.615234375" xlink:href="#ArialMT-2e"/>
       <use x="83.3984375" xlink:href="#ArialMT-31"/>
      </g>
     </g>
    </g>
    <g id="xtick_3">
     <g id="line2d_5"/>
     <g id="line2d_6"/>
     <g id="text_3">
      <!-- 1 -->
      <g style="fill:#262626;" transform="translate(112.447753069 183.85825)scale(0.08 -0.08)">
       <use xlink:href="#ArialMT-31"/>
      </g>
     </g>
    </g>
    <g id="xtick_4">
     <g id="line2d_7"/>
     <g id="line2d_8"/>
     <g id="text_4">
      <!-- 10 -->
      <g style="fill:#262626;" transform="translate(145.683677149 183.85825)scale(0.08 -0.08)">
       <use xlink:href="#ArialMT-31"/>
       <use x="55.615234375" xlink:href="#ArialMT-30"/>
      </g>
     </g>
    </g>
    <g id="xtick_5">
     <g id="line2d_9"/>
     <g id="line2d_10"/>
     <g id="text_5">
      <!-- 100 -->
      <g style="fill:#262626;" transform="translate(178.91960123 183.85825)scale(0.08 -0.08)">
       <use xlink:href="#ArialMT-31"/>
       <use x="55.615234375" xlink:href="#ArialMT-30"/>
       <use x="111.23046875" xlink:href="#ArialMT-30"/>
      </g>
     </g>
    </g>
    <g id="text_6">
     <!-- $[S]$ (in mM) -->
     <defs>
      <path d="M 2.203125 -25 
L 2.203125 -21 
L 11.921875 -21 
L 11.921875 71 
L 2.203125 71 
L 2.203125 75 
L 15.921875 75 
L 15.921875 -25 
z
" id="Cmr10-5d"/>
      <path d="M 12.359375 -21.046875 
L 6.0625 -21.046875 
Q 20.65625 2.390625 20.65625 25.875 
Q 20.65625 35.0625 18.5625 44.09375 
Q 16.890625 51.421875 13.921875 58.15625 
Q 12.015625 62.546875 6.0625 72.796875 
L 12.359375 72.796875 
Q 21.53125 60.546875 25.921875 48.1875 
Q 29.6875 37.546875 29.6875 25.921875 
Q 29.6875 12.75 24.625 0.4375 
Q 19.578125 -11.859375 12.359375 -21.046875 
" id="ArialMT-29"/>
      <path d="M 11.8125 -25 
L 11.8125 75 
L 25.484375 75 
L 25.484375 71 
L 15.828125 71 
L 15.828125 -21 
L 25.484375 -21 
L 25.484375 -25 
z
" id="Cmr10-5b"/>
      <path d="M 6.640625 61.46875 
L 6.640625 71.578125 
L 15.4375 71.578125 
L 15.4375 61.46875 
z
M 6.640625 0 
L 6.640625 51.859375 
L 15.4375 51.859375 
L 15.4375 0 
z
" id="ArialMT-69"/>
      <path d="M 6.109375 -2.203125 
Q 5.8125 -2.203125 5.5625 -1.859375 
Q 5.328125 -1.515625 5.328125 -1.21875 
L 11.078125 22.125 
Q 11.28125 22.703125 11.921875 22.703125 
L 13.09375 22.703125 
Q 13.484375 22.703125 13.703125 22.40625 
Q 13.921875 22.125 13.921875 21.6875 
Q 13.09375 18.265625 13.09375 15.578125 
Q 13.09375 8.34375 18.0625 4.828125 
Q 23.046875 1.3125 30.609375 1.3125 
Q 33.890625 1.3125 37.0625 2.921875 
Q 40.234375 4.546875 42.59375 7.125 
Q 44.96875 9.71875 46.375 12.90625 
Q 47.796875 16.109375 47.796875 19.390625 
Q 47.796875 22.90625 45.9375 25.65625 
Q 44.09375 28.421875 40.828125 29.203125 
L 28.609375 32.421875 
Q 23.6875 33.734375 20.75 37.71875 
Q 17.828125 41.703125 17.828125 46.6875 
Q 17.828125 52.6875 21.390625 58.25 
Q 24.953125 63.8125 30.6875 67.15625 
Q 36.421875 70.515625 42.390625 70.515625 
Q 46.96875 70.515625 50.796875 68.828125 
Q 54.640625 67.140625 56.6875 63.484375 
L 62.40625 70.21875 
Q 62.984375 70.515625 63.09375 70.515625 
L 63.71875 70.515625 
Q 64.109375 70.515625 64.34375 70.171875 
Q 64.59375 69.828125 64.59375 69.484375 
L 58.796875 46.296875 
Q 58.640625 45.609375 58.015625 45.609375 
L 56.78125 45.609375 
Q 55.90625 45.609375 55.90625 46.6875 
Q 56.390625 49.859375 56.390625 52.203125 
Q 56.390625 56.84375 54.796875 60.28125 
Q 53.21875 63.71875 50.015625 65.5 
Q 46.828125 67.28125 42.09375 67.28125 
Q 38.09375 67.28125 34.125 64.984375 
Q 30.171875 62.703125 27.734375 58.890625 
Q 25.296875 55.078125 25.296875 50.984375 
Q 25.296875 47.75 27.171875 45.265625 
Q 29.046875 42.78125 32.171875 41.890625 
L 44.390625 38.71875 
Q 47.703125 37.84375 50.171875 35.625 
Q 52.640625 33.40625 53.90625 30.34375 
Q 55.171875 27.296875 55.171875 23.6875 
Q 55.171875 18.953125 53.171875 14.328125 
Q 51.171875 9.71875 47.578125 5.90625 
Q 44 2.09375 39.453125 -0.046875 
Q 34.90625 -2.203125 30.171875 -2.203125 
Q 18.265625 -2.203125 13.09375 4.78125 
L 7.515625 -1.90625 
Q 6.9375 -2.203125 6.78125 -2.203125 
z
" id="Cmmi10-53"/>
      <path d="M 6.59375 0 
L 6.59375 51.859375 
L 14.453125 51.859375 
L 14.453125 44.578125 
Q 16.890625 48.390625 20.9375 50.703125 
Q 25 53.03125 30.171875 53.03125 
Q 35.9375 53.03125 39.625 50.640625 
Q 43.3125 48.25 44.828125 43.953125 
Q 50.984375 53.03125 60.84375 53.03125 
Q 68.5625 53.03125 72.703125 48.75 
Q 76.859375 44.484375 76.859375 35.59375 
L 76.859375 0 
L 68.109375 0 
L 68.109375 32.671875 
Q 68.109375 37.9375 67.25 40.25 
Q 66.40625 42.578125 64.15625 43.984375 
Q 61.921875 45.40625 58.890625 45.40625 
Q 53.421875 45.40625 49.796875 41.765625 
Q 46.1875 38.140625 46.1875 30.125 
L 46.1875 0 
L 37.40625 0 
L 37.40625 33.6875 
Q 37.40625 39.546875 35.25 42.46875 
Q 33.109375 45.40625 28.21875 45.40625 
Q 24.515625 45.40625 21.359375 43.453125 
Q 18.21875 41.5 16.796875 37.734375 
Q 15.375 33.984375 15.375 26.90625 
L 15.375 0 
z
" id="ArialMT-6d"/>
      <path d="M 6.59375 0 
L 6.59375 51.859375 
L 14.5 51.859375 
L 14.5 44.484375 
Q 20.21875 53.03125 31 53.03125 
Q 35.6875 53.03125 39.625 51.34375 
Q 43.5625 49.65625 45.515625 46.921875 
Q 47.46875 44.1875 48.25 40.4375 
Q 48.734375 37.984375 48.734375 31.890625 
L 48.734375 0 
L 39.9375 0 
L 39.9375 31.546875 
Q 39.9375 36.921875 38.90625 39.578125 
Q 37.890625 42.234375 35.28125 43.8125 
Q 32.671875 45.40625 29.15625 45.40625 
Q 23.53125 45.40625 19.453125 41.84375 
Q 15.375 38.28125 15.375 28.328125 
L 15.375 0 
z
" id="ArialMT-6e"/>
      <path d="M 23.390625 -21.046875 
Q 16.109375 -11.859375 11.078125 0.4375 
Q 6.0625 12.75 6.0625 25.921875 
Q 6.0625 37.546875 9.8125 48.1875 
Q 14.203125 60.546875 23.390625 72.796875 
L 29.6875 72.796875 
Q 23.78125 62.640625 21.875 58.296875 
Q 18.890625 51.5625 17.1875 44.234375 
Q 15.09375 35.109375 15.09375 25.875 
Q 15.09375 2.390625 29.6875 -21.046875 
z
" id="ArialMT-28"/>
      <path d="M 7.421875 0 
L 7.421875 71.578125 
L 21.6875 71.578125 
L 38.625 20.90625 
Q 40.96875 13.8125 42.046875 10.296875 
Q 43.265625 14.203125 45.84375 21.78125 
L 62.984375 71.578125 
L 75.734375 71.578125 
L 75.734375 0 
L 66.609375 0 
L 66.609375 59.90625 
L 45.796875 0 
L 37.25 0 
L 16.546875 60.9375 
L 16.546875 0 
z
" id="ArialMT-4d"/>
      <path id="ArialMT-20"/>
     </defs>
     <g style="fill:#262626;" transform="translate(93.3761280689 197.04825)scale(0.088 -0.088)">
      <use xlink:href="#Cmr10-5b"/>
      <use transform="translate(27.685546875 0.0)" xlink:href="#Cmmi10-53"/>
      <use transform="translate(88.96484375 0.0)" xlink:href="#Cmr10-5d"/>
      <use transform="translate(116.650390625 0.0)" xlink:href="#ArialMT-20"/>
      <use transform="translate(144.43359375 0.0)" xlink:href="#ArialMT-28"/>
      <use transform="translate(177.734375 0.0)" xlink:href="#ArialMT-69"/>
      <use transform="translate(199.951171875 0.0)" xlink:href="#ArialMT-6e"/>
      <use transform="translate(255.56640625 0.0)" xlink:href="#ArialMT-20"/>
      <use transform="translate(283.349609375 0.0)" xlink:href="#ArialMT-6d"/>
      <use transform="translate(366.650390625 0.0)" xlink:href="#ArialMT-4d"/>
      <use transform="translate(449.951171875 0.0)" xlink:href="#ArialMT-29"/>
     </g>
    </g>
   </g>
   <g id="matplotlib.axis_2">
    <g id="ytick_1">
     <g id="line2d_11"/>
     <g id="line2d_12"/>
     <g id="text_7">
      <!-- 0.0 -->
      <g style="fill:#262626;" transform="translate(23.4855 174.600125)scale(0.08 -0.08)">
       <use xlink:href="#ArialMT-30"/>
       <use x="55.615234375" xlink:href="#ArialMT-2e"/>
       <use x="83.3984375" xlink:href="#ArialMT-30"/>
      </g>
     </g>
    </g>
    <g id="ytick_2">
     <g id="line2d_13"/>
     <g id="line2d_14"/>
     <g id="text_8">
      <!-- 0.2 -->
      <defs>
       <path d="M 50.34375 8.453125 
L 50.34375 0 
L 3.03125 0 
Q 2.9375 3.171875 4.046875 6.109375 
Q 5.859375 10.9375 9.828125 15.625 
Q 13.8125 20.3125 21.34375 26.46875 
Q 33.015625 36.03125 37.109375 41.625 
Q 41.21875 47.21875 41.21875 52.203125 
Q 41.21875 57.421875 37.46875 61 
Q 33.734375 64.59375 27.734375 64.59375 
Q 21.390625 64.59375 17.578125 60.78125 
Q 13.765625 56.984375 13.71875 50.25 
L 4.6875 51.171875 
Q 5.609375 61.28125 11.65625 66.578125 
Q 17.71875 71.875 27.9375 71.875 
Q 38.234375 71.875 44.234375 66.15625 
Q 50.25 60.453125 50.25 52 
Q 50.25 47.703125 48.484375 43.546875 
Q 46.734375 39.40625 42.65625 34.8125 
Q 38.578125 30.21875 29.109375 22.21875 
Q 21.1875 15.578125 18.9375 13.203125 
Q 16.703125 10.84375 15.234375 8.453125 
z
" id="ArialMT-32"/>
      </defs>
      <g style="fill:#262626;" transform="translate(23.4855 144.967325)scale(0.08 -0.08)">
       <use xlink:href="#ArialMT-30"/>
       <use x="55.615234375" xlink:href="#ArialMT-2e"/>
       <use x="83.3984375" xlink:href="#ArialMT-32"/>
      </g>
     </g>
    </g>
    <g id="ytick_3">
     <g id="line2d_15"/>
     <g id="line2d_16"/>
     <g id="text_9">
      <!-- 0.4 -->
      <defs>
       <path d="M 32.328125 0 
L 32.328125 17.140625 
L 1.265625 17.140625 
L 1.265625 25.203125 
L 33.9375 71.578125 
L 41.109375 71.578125 
L 41.109375 25.203125 
L 50.78125 25.203125 
L 50.78125 17.140625 
L 41.109375 17.140625 
L 41.109375 0 
z
M 32.328125 25.203125 
L 32.328125 57.46875 
L 9.90625 25.203125 
z
" id="ArialMT-34"/>
      </defs>
      <g style="fill:#262626;" transform="translate(23.4855 115.334525)scale(0.08 -0.08)">
       <use xlink:href="#ArialMT-30"/>
       <use x="55.615234375" xlink:href="#ArialMT-2e"/>
       <use x="83.3984375" xlink:href="#ArialMT-34"/>
      </g>
     </g>
    </g>
    <g id="ytick_4">
     <g id="line2d_17"/>
     <g id="line2d_18"/>
     <g id="text_10">
      <!-- 0.6 -->
      <defs>
       <path d="M 49.75 54.046875 
L 41.015625 53.375 
Q 39.84375 58.546875 37.703125 60.890625 
Q 34.125 64.65625 28.90625 64.65625 
Q 24.703125 64.65625 21.53125 62.3125 
Q 17.390625 59.28125 14.984375 53.46875 
Q 12.59375 47.65625 12.5 36.921875 
Q 15.671875 41.75 20.265625 44.09375 
Q 24.859375 46.4375 29.890625 46.4375 
Q 38.671875 46.4375 44.84375 39.96875 
Q 51.03125 33.5 51.03125 23.25 
Q 51.03125 16.5 48.125 10.71875 
Q 45.21875 4.9375 40.140625 1.859375 
Q 35.0625 -1.21875 28.609375 -1.21875 
Q 17.625 -1.21875 10.6875 6.859375 
Q 3.765625 14.9375 3.765625 33.5 
Q 3.765625 54.25 11.421875 63.671875 
Q 18.109375 71.875 29.4375 71.875 
Q 37.890625 71.875 43.28125 67.140625 
Q 48.6875 62.40625 49.75 54.046875 
M 13.875 23.1875 
Q 13.875 18.65625 15.796875 14.5 
Q 17.71875 10.359375 21.1875 8.171875 
Q 24.65625 6 28.46875 6 
Q 34.03125 6 38.03125 10.484375 
Q 42.046875 14.984375 42.046875 22.703125 
Q 42.046875 30.125 38.078125 34.390625 
Q 34.125 38.671875 28.125 38.671875 
Q 22.171875 38.671875 18.015625 34.390625 
Q 13.875 30.125 13.875 23.1875 
" id="ArialMT-36"/>
      </defs>
      <g style="fill:#262626;" transform="translate(23.4855 85.701725)scale(0.08 -0.08)">
       <use xlink:href="#ArialMT-30"/>
       <use x="55.615234375" xlink:href="#ArialMT-2e"/>
       <use x="83.3984375" xlink:href="#ArialMT-36"/>
      </g>
     </g>
    </g>
    <g id="ytick_5">
     <g id="line2d_19"/>
     <g id="line2d_20"/>
     <g id="text_11">
      <!-- 0.8 -->
      <defs>
       <path d="M 17.671875 38.8125 
Q 12.203125 40.828125 9.5625 44.53125 
Q 6.9375 48.25 6.9375 53.421875 
Q 6.9375 61.234375 12.546875 66.546875 
Q 18.171875 71.875 27.484375 71.875 
Q 36.859375 71.875 42.578125 66.421875 
Q 48.296875 60.984375 48.296875 53.171875 
Q 48.296875 48.1875 45.671875 44.5 
Q 43.0625 40.828125 37.75 38.8125 
Q 44.34375 36.671875 47.78125 31.875 
Q 51.21875 27.09375 51.21875 20.453125 
Q 51.21875 11.28125 44.71875 5.03125 
Q 38.234375 -1.21875 27.640625 -1.21875 
Q 17.046875 -1.21875 10.546875 5.046875 
Q 4.046875 11.328125 4.046875 20.703125 
Q 4.046875 27.6875 7.59375 32.390625 
Q 11.140625 37.109375 17.671875 38.8125 
M 15.921875 53.71875 
Q 15.921875 48.640625 19.1875 45.40625 
Q 22.46875 42.1875 27.6875 42.1875 
Q 32.765625 42.1875 36.015625 45.375 
Q 39.265625 48.578125 39.265625 53.21875 
Q 39.265625 58.0625 35.90625 61.359375 
Q 32.5625 64.65625 27.59375 64.65625 
Q 22.5625 64.65625 19.234375 61.421875 
Q 15.921875 58.203125 15.921875 53.71875 
M 13.09375 20.65625 
Q 13.09375 16.890625 14.875 13.375 
Q 16.65625 9.859375 20.171875 7.921875 
Q 23.6875 6 27.734375 6 
Q 34.03125 6 38.125 10.046875 
Q 42.234375 14.109375 42.234375 20.359375 
Q 42.234375 26.703125 38.015625 30.859375 
Q 33.796875 35.015625 27.4375 35.015625 
Q 21.234375 35.015625 17.15625 30.90625 
Q 13.09375 26.8125 13.09375 20.65625 
" id="ArialMT-38"/>
      </defs>
      <g style="fill:#262626;" transform="translate(23.4855 56.068925)scale(0.08 -0.08)">
       <use xlink:href="#ArialMT-30"/>
       <use x="55.615234375" xlink:href="#ArialMT-2e"/>
       <use x="83.3984375" xlink:href="#ArialMT-38"/>
      </g>
     </g>
    </g>
    <g id="ytick_6">
     <g id="line2d_21"/>
     <g id="line2d_22"/>
     <g id="text_12">
      <!-- 1.0 -->
      <g style="fill:#262626;" transform="translate(23.4855 26.436125)scale(0.08 -0.08)">
       <use xlink:href="#ArialMT-31"/>
       <use x="55.615234375" xlink:href="#ArialMT-2e"/>
       <use x="83.3984375" xlink:href="#ArialMT-30"/>
      </g>
     </g>
    </g>
    <g id="text_13">
     <!-- Cumulative distribution -->
     <defs>
      <path d="M 14.703125 0 
L 6.546875 0 
L 6.546875 71.578125 
L 15.328125 71.578125 
L 15.328125 46.046875 
Q 20.90625 53.03125 29.546875 53.03125 
Q 34.328125 53.03125 38.59375 51.09375 
Q 42.875 49.171875 45.625 45.671875 
Q 48.390625 42.1875 49.953125 37.25 
Q 51.515625 32.328125 51.515625 26.703125 
Q 51.515625 13.375 44.921875 6.09375 
Q 38.328125 -1.171875 29.109375 -1.171875 
Q 19.921875 -1.171875 14.703125 6.5 
z
M 14.59375 26.3125 
Q 14.59375 17 17.140625 12.84375 
Q 21.296875 6.0625 28.375 6.0625 
Q 34.125 6.0625 38.328125 11.0625 
Q 42.53125 16.0625 42.53125 25.984375 
Q 42.53125 36.140625 38.5 40.96875 
Q 34.46875 45.796875 28.765625 45.796875 
Q 23 45.796875 18.796875 40.796875 
Q 14.59375 35.796875 14.59375 26.3125 
" id="ArialMT-62"/>
      <path d="M 40.4375 6.390625 
Q 35.546875 2.25 31.03125 0.53125 
Q 26.515625 -1.171875 21.34375 -1.171875 
Q 12.796875 -1.171875 8.203125 3 
Q 3.609375 7.171875 3.609375 13.671875 
Q 3.609375 17.484375 5.34375 20.625 
Q 7.078125 23.78125 9.890625 25.6875 
Q 12.703125 27.59375 16.21875 28.5625 
Q 18.796875 29.25 24.03125 29.890625 
Q 34.671875 31.15625 39.703125 32.90625 
Q 39.75 34.71875 39.75 35.203125 
Q 39.75 40.578125 37.25 42.78125 
Q 33.890625 45.75 27.25 45.75 
Q 21.046875 45.75 18.09375 43.578125 
Q 15.140625 41.40625 13.71875 35.890625 
L 5.125 37.0625 
Q 6.296875 42.578125 8.984375 45.96875 
Q 11.671875 49.359375 16.75 51.1875 
Q 21.828125 53.03125 28.515625 53.03125 
Q 35.15625 53.03125 39.296875 51.46875 
Q 43.453125 49.90625 45.40625 47.53125 
Q 47.359375 45.171875 48.140625 41.546875 
Q 48.578125 39.3125 48.578125 33.453125 
L 48.578125 21.734375 
Q 48.578125 9.46875 49.140625 6.21875 
Q 49.703125 2.984375 51.375 0 
L 42.1875 0 
Q 40.828125 2.734375 40.4375 6.390625 
M 39.703125 26.03125 
Q 34.90625 24.078125 25.34375 22.703125 
Q 19.921875 21.921875 17.671875 20.9375 
Q 15.4375 19.96875 14.203125 18.09375 
Q 12.984375 16.21875 12.984375 13.921875 
Q 12.984375 10.40625 15.640625 8.0625 
Q 18.3125 5.71875 23.4375 5.71875 
Q 28.515625 5.71875 32.46875 7.9375 
Q 36.421875 10.15625 38.28125 14.015625 
Q 39.703125 17 39.703125 22.796875 
z
" id="ArialMT-61"/>
      <path d="M 42.09375 16.703125 
L 51.171875 15.578125 
Q 49.03125 7.625 43.21875 3.21875 
Q 37.40625 -1.171875 28.375 -1.171875 
Q 17 -1.171875 10.328125 5.828125 
Q 3.65625 12.84375 3.65625 25.484375 
Q 3.65625 38.578125 10.390625 45.796875 
Q 17.140625 53.03125 27.875 53.03125 
Q 38.28125 53.03125 44.875 45.953125 
Q 51.46875 38.875 51.46875 26.03125 
Q 51.46875 25.25 51.421875 23.6875 
L 12.75 23.6875 
Q 13.234375 15.140625 17.578125 10.59375 
Q 21.921875 6.0625 28.421875 6.0625 
Q 33.25 6.0625 36.671875 8.59375 
Q 40.09375 11.140625 42.09375 16.703125 
M 13.234375 30.90625 
L 42.1875 30.90625 
Q 41.609375 37.453125 38.875 40.71875 
Q 34.671875 45.796875 27.984375 45.796875 
Q 21.921875 45.796875 17.796875 41.75 
Q 13.671875 37.703125 13.234375 30.90625 
" id="ArialMT-65"/>
      <path d="M 40.234375 0 
L 40.234375 6.546875 
Q 35.296875 -1.171875 25.734375 -1.171875 
Q 19.53125 -1.171875 14.328125 2.25 
Q 9.125 5.671875 6.265625 11.796875 
Q 3.421875 17.921875 3.421875 25.875 
Q 3.421875 33.640625 6 39.96875 
Q 8.59375 46.296875 13.765625 49.65625 
Q 18.953125 53.03125 25.34375 53.03125 
Q 30.03125 53.03125 33.6875 51.046875 
Q 37.359375 49.078125 39.65625 45.90625 
L 39.65625 71.578125 
L 48.390625 71.578125 
L 48.390625 0 
z
M 12.453125 25.875 
Q 12.453125 15.921875 16.640625 10.984375 
Q 20.84375 6.0625 26.5625 6.0625 
Q 32.328125 6.0625 36.34375 10.765625 
Q 40.375 15.484375 40.375 25.140625 
Q 40.375 35.796875 36.265625 40.765625 
Q 32.171875 45.75 26.171875 45.75 
Q 20.3125 45.75 16.375 40.96875 
Q 12.453125 36.1875 12.453125 25.875 
" id="ArialMT-64"/>
      <path d="M 25.78125 7.859375 
L 27.046875 0.09375 
Q 23.34375 -0.6875 20.40625 -0.6875 
Q 15.625 -0.6875 12.984375 0.828125 
Q 10.359375 2.34375 9.28125 4.8125 
Q 8.203125 7.28125 8.203125 15.1875 
L 8.203125 45.015625 
L 1.765625 45.015625 
L 1.765625 51.859375 
L 8.203125 51.859375 
L 8.203125 64.703125 
L 16.9375 69.96875 
L 16.9375 51.859375 
L 25.78125 51.859375 
L 25.78125 45.015625 
L 16.9375 45.015625 
L 16.9375 14.703125 
Q 16.9375 10.9375 17.40625 9.859375 
Q 17.875 8.796875 18.921875 8.15625 
Q 19.96875 7.515625 21.921875 7.515625 
Q 23.390625 7.515625 25.78125 7.859375 
" id="ArialMT-74"/>
      <path d="M 40.578125 0 
L 40.578125 7.625 
Q 34.515625 -1.171875 24.125 -1.171875 
Q 19.53125 -1.171875 15.546875 0.578125 
Q 11.578125 2.34375 9.640625 5 
Q 7.71875 7.671875 6.9375 11.53125 
Q 6.390625 14.109375 6.390625 19.734375 
L 6.390625 51.859375 
L 15.1875 51.859375 
L 15.1875 23.09375 
Q 15.1875 16.21875 15.71875 13.8125 
Q 16.546875 10.359375 19.234375 8.375 
Q 21.921875 6.390625 25.875 6.390625 
Q 29.828125 6.390625 33.296875 8.421875 
Q 36.765625 10.453125 38.203125 13.9375 
Q 39.65625 17.4375 39.65625 24.078125 
L 39.65625 51.859375 
L 48.4375 51.859375 
L 48.4375 0 
z
" id="ArialMT-75"/>
      <path d="M 58.796875 25.09375 
L 68.265625 22.703125 
Q 65.28125 11.03125 57.546875 4.90625 
Q 49.8125 -1.21875 38.625 -1.21875 
Q 27.046875 -1.21875 19.796875 3.484375 
Q 12.546875 8.203125 8.765625 17.140625 
Q 4.984375 26.078125 4.984375 36.328125 
Q 4.984375 47.515625 9.25 55.828125 
Q 13.53125 64.15625 21.40625 68.46875 
Q 29.296875 72.796875 38.765625 72.796875 
Q 49.515625 72.796875 56.828125 67.328125 
Q 64.15625 61.859375 67.046875 51.953125 
L 57.71875 49.75 
Q 55.21875 57.5625 50.484375 61.125 
Q 45.75 64.703125 38.578125 64.703125 
Q 30.328125 64.703125 24.78125 60.734375 
Q 19.234375 56.78125 16.984375 50.109375 
Q 14.75 43.453125 14.75 36.375 
Q 14.75 27.25 17.40625 20.4375 
Q 20.0625 13.625 25.671875 10.25 
Q 31.296875 6.890625 37.84375 6.890625 
Q 45.796875 6.890625 51.3125 11.46875 
Q 56.84375 16.0625 58.796875 25.09375 
" id="ArialMT-43"/>
      <path d="M 6.5 0 
L 6.5 51.859375 
L 14.40625 51.859375 
L 14.40625 44 
Q 17.4375 49.515625 20 51.265625 
Q 22.5625 53.03125 25.640625 53.03125 
Q 30.078125 53.03125 34.671875 50.203125 
L 31.640625 42.046875 
Q 28.421875 43.953125 25.203125 43.953125 
Q 22.3125 43.953125 20.015625 42.21875 
Q 17.71875 40.484375 16.75 37.40625 
Q 15.28125 32.71875 15.28125 27.15625 
L 15.28125 0 
z
" id="ArialMT-72"/>
      <path d="M 3.078125 15.484375 
L 11.765625 16.84375 
Q 12.5 11.625 15.84375 8.84375 
Q 19.1875 6.0625 25.203125 6.0625 
Q 31.25 6.0625 34.171875 8.515625 
Q 37.109375 10.984375 37.109375 14.3125 
Q 37.109375 17.28125 34.515625 19 
Q 32.71875 20.171875 25.53125 21.96875 
Q 15.875 24.421875 12.140625 26.203125 
Q 8.40625 27.984375 6.46875 31.125 
Q 4.546875 34.28125 4.546875 38.09375 
Q 4.546875 41.546875 6.125 44.5 
Q 7.71875 47.46875 10.453125 49.421875 
Q 12.5 50.921875 16.03125 51.96875 
Q 19.578125 53.03125 23.640625 53.03125 
Q 29.734375 53.03125 34.34375 51.265625 
Q 38.96875 49.515625 41.15625 46.5 
Q 43.359375 43.5 44.1875 38.484375 
L 35.59375 37.3125 
Q 35.015625 41.3125 32.203125 43.546875 
Q 29.390625 45.796875 24.265625 45.796875 
Q 18.21875 45.796875 15.625 43.796875 
Q 13.03125 41.796875 13.03125 39.109375 
Q 13.03125 37.40625 14.109375 36.03125 
Q 15.1875 34.625 17.484375 33.6875 
Q 18.796875 33.203125 25.25 31.453125 
Q 34.578125 28.953125 38.25 27.359375 
Q 41.9375 25.78125 44.03125 22.75 
Q 46.140625 19.734375 46.140625 15.234375 
Q 46.140625 10.84375 43.578125 6.953125 
Q 41.015625 3.078125 36.171875 0.953125 
Q 31.34375 -1.171875 25.25 -1.171875 
Q 15.140625 -1.171875 9.84375 3.03125 
Q 4.546875 7.234375 3.078125 15.484375 
" id="ArialMT-73"/>
      <path d="M 6.390625 0 
L 6.390625 71.578125 
L 15.1875 71.578125 
L 15.1875 0 
z
" id="ArialMT-6c"/>
      <path d="M 3.328125 25.921875 
Q 3.328125 40.328125 11.328125 47.265625 
Q 18.015625 53.03125 27.640625 53.03125 
Q 38.328125 53.03125 45.109375 46.015625 
Q 51.90625 39.015625 51.90625 26.65625 
Q 51.90625 16.65625 48.90625 10.90625 
Q 45.90625 5.171875 40.15625 2 
Q 34.421875 -1.171875 27.640625 -1.171875 
Q 16.75 -1.171875 10.03125 5.8125 
Q 3.328125 12.796875 3.328125 25.921875 
M 12.359375 25.921875 
Q 12.359375 15.96875 16.703125 11.015625 
Q 21.046875 6.0625 27.640625 6.0625 
Q 34.1875 6.0625 38.53125 11.03125 
Q 42.875 16.015625 42.875 26.21875 
Q 42.875 35.84375 38.5 40.796875 
Q 34.125 45.75 27.640625 45.75 
Q 21.046875 45.75 16.703125 40.8125 
Q 12.359375 35.890625 12.359375 25.921875 
" id="ArialMT-6f"/>
      <path d="M 21 0 
L 1.265625 51.859375 
L 10.546875 51.859375 
L 21.6875 20.796875 
Q 23.484375 15.765625 25 10.359375 
Q 26.171875 14.453125 28.265625 20.21875 
L 39.796875 51.859375 
L 48.828125 51.859375 
L 29.203125 0 
z
" id="ArialMT-76"/>
     </defs>
     <g style="fill:#262626;" transform="translate(16.7365 142.9566875)rotate(-90.0)scale(0.088 -0.088)">
      <use xlink:href="#ArialMT-43"/>
      <use x="72.216796875" xlink:href="#ArialMT-75"/>
      <use x="127.83203125" xlink:href="#ArialMT-6d"/>
      <use x="211.1328125" xlink:href="#ArialMT-75"/>
      <use x="266.748046875" xlink:href="#ArialMT-6c"/>
      <use x="288.96484375" xlink:href="#ArialMT-61"/>
      <use x="344.580078125" xlink:href="#ArialMT-74"/>
      <use x="372.36328125" xlink:href="#ArialMT-69"/>
      <use x="394.580078125" xlink:href="#ArialMT-76"/>
      <use x="444.580078125" xlink:href="#ArialMT-65"/>
      <use x="500.1953125" xlink:href="#ArialMT-20"/>
      <use x="527.978515625" xlink:href="#ArialMT-64"/>
      <use x="583.59375" xlink:href="#ArialMT-69"/>
      <use x="605.810546875" xlink:href="#ArialMT-73"/>
      <use x="655.810546875" xlink:href="#ArialMT-74"/>
      <use x="683.59375" xlink:href="#ArialMT-72"/>
      <use x="716.89453125" xlink:href="#ArialMT-69"/>
      <use x="739.111328125" xlink:href="#ArialMT-62"/>
      <use x="794.7265625" xlink:href="#ArialMT-75"/>
      <use x="850.341796875" xlink:href="#ArialMT-74"/>
      <use x="878.125" xlink:href="#ArialMT-69"/>
      <use x="900.341796875" xlink:href="#ArialMT-6f"/>
      <use x="955.95703125" xlink:href="#ArialMT-6e"/>
     </g>
    </g>
   </g>
   <g id="line2d_23">
    <path clip-path="url(#p1c10fce99f)" d="M 12.060749 172.531209 
L 22.540965 172.426225 
L 28.529659 172.096943 
L 34.518354 171.557384 
L 37.512701 171.141395 
L 40.507048 170.493956 
L 43.501396 169.498376 
L 46.495743 168.079892 
L 49.49009 166.259852 
L 53.981611 163.087998 
L 61.467479 157.519347 
L 64.461826 154.988354 
L 67.456174 152.152965 
L 76.439216 143.29172 
L 80.930736 138.884107 
L 83.925084 135.60171 
L 86.919431 131.945211 
L 92.908125 124.019706 
L 98.89682 115.989237 
L 101.891167 111.489927 
L 104.885515 106.298473 
L 107.879862 100.439971 
L 112.371383 90.974125 
L 119.857251 75.089938 
L 124.348772 66.158644 
L 127.343119 60.682371 
L 130.337466 55.603748 
L 133.331814 50.893839 
L 136.326161 46.541781 
L 139.320508 42.555834 
L 142.314855 38.965423 
L 145.309203 35.845328 
L 146.806376 34.49774 
L 148.30355 33.310382 
L 149.800724 32.290757 
L 151.297897 31.437947 
L 152.795071 30.742051 
L 155.789418 29.746438 
L 158.783765 29.123871 
L 163.275286 28.515517 
L 170.761154 27.561756 
L 175.252675 26.818391 
L 185.732891 24.930365 
L 190.224412 24.54034 
L 194.715932 24.401932 
L 202.201801 24.368679 
L 202.201801 24.368679 
" style="fill:none;stroke:#fedf08;stroke-linecap:round;stroke-width:2.0;"/>
   </g>
   <g id="patch_3">
    <path d="M 40.2055 24.368 
L 189.138756 24.368 
" style="fill:none;stroke:#262626;stroke-linecap:square;stroke-linejoin:miter;stroke-width:1.25;"/>
   </g>
   <g id="patch_4">
    <path d="M 189.138756 172.532 
L 189.138756 24.368 
" style="fill:none;stroke:#262626;stroke-linecap:square;stroke-linejoin:miter;stroke-width:1.25;"/>
   </g>
   <g id="patch_5">
    <path d="M 40.2055 172.532 
L 189.138756 172.532 
" style="fill:none;stroke:#262626;stroke-linecap:square;stroke-linejoin:miter;stroke-width:1.25;"/>
   </g>
   <g id="patch_6">
    <path d="M 40.2055 172.532 
L 40.2055 24.368 
" style="fill:none;stroke:#262626;stroke-linecap:square;stroke-linejoin:miter;stroke-width:1.25;"/>
   </g>
   <g id="text_14">
    <!-- Measured metabolite conc. -->
    <defs>
     <path d="M 40.4375 19 
L 49.078125 17.875 
Q 47.65625 8.9375 41.8125 3.875 
Q 35.984375 -1.171875 27.484375 -1.171875 
Q 16.84375 -1.171875 10.375 5.78125 
Q 3.90625 12.75 3.90625 25.734375 
Q 3.90625 34.125 6.6875 40.421875 
Q 9.46875 46.734375 15.15625 49.875 
Q 20.84375 53.03125 27.546875 53.03125 
Q 35.984375 53.03125 41.359375 48.75 
Q 46.734375 44.484375 48.25 36.625 
L 39.703125 35.296875 
Q 38.484375 40.53125 35.375 43.15625 
Q 32.28125 45.796875 27.875 45.796875 
Q 21.234375 45.796875 17.078125 41.03125 
Q 12.9375 36.28125 12.9375 25.984375 
Q 12.9375 15.53125 16.9375 10.796875 
Q 20.953125 6.0625 27.390625 6.0625 
Q 32.5625 6.0625 36.03125 9.234375 
Q 39.5 12.40625 40.4375 19 
" id="ArialMT-63"/>
    </defs>
    <g style="fill:#262626;" transform="translate(57.0458780689 19.368)scale(0.096 -0.096)">
     <use xlink:href="#ArialMT-4d"/>
     <use x="83.30078125" xlink:href="#ArialMT-65"/>
     <use x="138.916015625" xlink:href="#ArialMT-61"/>
     <use x="194.53125" xlink:href="#ArialMT-73"/>
     <use x="244.53125" xlink:href="#ArialMT-75"/>
     <use x="300.146484375" xlink:href="#ArialMT-72"/>
     <use x="333.447265625" xlink:href="#ArialMT-65"/>
     <use x="389.0625" xlink:href="#ArialMT-64"/>
     <use x="444.677734375" xlink:href="#ArialMT-20"/>
     <use x="472.4609375" xlink:href="#ArialMT-6d"/>
     <use x="555.76171875" xlink:href="#ArialMT-65"/>
     <use x="611.376953125" xlink:href="#ArialMT-74"/>
     <use x="639.16015625" xlink:href="#ArialMT-61"/>
     <use x="694.775390625" xlink:href="#ArialMT-62"/>
     <use x="750.390625" xlink:href="#ArialMT-6f"/>
     <use x="806.005859375" xlink:href="#ArialMT-6c"/>
     <use x="828.22265625" xlink:href="#ArialMT-69"/>
     <use x="850.439453125" xlink:href="#ArialMT-74"/>
     <use x="878.22265625" xlink:href="#ArialMT-65"/>
     <use x="933.837890625" xlink:href="#ArialMT-20"/>
     <use x="961.62109375" xlink:href="#ArialMT-63"/>
     <use x="1011.62109375" xlink:href="#ArialMT-6f"/>
     <use x="1067.23632812" xlink:href="#ArialMT-6e"/>
     <use x="1122.8515625" xlink:href="#ArialMT-63"/>
     <use x="1172.8515625" xlink:href="#ArialMT-2e"/>
    </g>
   </g>
  </g>
  <g id="axes_2">
   <g id="patch_7">
    <path d="M 208.299246 172.532 
L 357.232502 172.532 
L 357.232502 24.368 
L 208.299246 24.368 
z
" style="fill:#ffffff;"/>
   </g>
   <g id="matplotlib.axis_3">
    <g id="xtick_6">
     <g id="line2d_24"/>
     <g id="line2d_25"/>
     <g id="text_15">
      <!-- 0.01 -->
      <g style="fill:#262626;" transform="translate(203.617646803 183.85825)scale(0.08 -0.08)">
       <use xlink:href="#ArialMT-30"/>
       <use x="55.615234375" xlink:href="#ArialMT-2e"/>
       <use x="83.3984375" xlink:href="#ArialMT-30"/>
       <use x="139.013671875" xlink:href="#ArialMT-31"/>
      </g>
     </g>
    </g>
    <g id="xtick_7">
     <g id="line2d_26"/>
     <g id="line2d_27"/>
     <g id="text_16">
      <!-- 0.1 -->
      <g style="fill:#262626;" transform="translate(236.869783498 183.85825)scale(0.08 -0.08)">
       <use xlink:href="#ArialMT-30"/>
       <use x="55.615234375" xlink:href="#ArialMT-2e"/>
       <use x="83.3984375" xlink:href="#ArialMT-31"/>
      </g>
     </g>
    </g>
    <g id="xtick_8">
     <g id="line2d_28"/>
     <g id="line2d_29"/>
     <g id="text_17">
      <!-- 1 -->
      <g style="fill:#262626;" transform="translate(271.233170194 183.85825)scale(0.08 -0.08)">
       <use xlink:href="#ArialMT-31"/>
      </g>
     </g>
    </g>
    <g id="xtick_9">
     <g id="line2d_30"/>
     <g id="line2d_31"/>
     <g id="text_18">
      <!-- 10 -->
      <g style="fill:#262626;" transform="translate(300.036556889 183.85825)scale(0.08 -0.08)">
       <use xlink:href="#ArialMT-31"/>
       <use x="55.615234375" xlink:href="#ArialMT-30"/>
      </g>
     </g>
    </g>
    <g id="xtick_10">
     <g id="line2d_32"/>
     <g id="line2d_33"/>
     <g id="text_19">
      <!-- 100 -->
      <g style="fill:#262626;" transform="translate(328.839943585 183.85825)scale(0.08 -0.08)">
       <use xlink:href="#ArialMT-31"/>
       <use x="55.615234375" xlink:href="#ArialMT-30"/>
       <use x="111.23046875" xlink:href="#ArialMT-30"/>
      </g>
     </g>
    </g>
    <g id="text_20">
     <!-- $K_S$ (in mM) -->
     <defs>
      <path d="M 4.6875 0 
Q 3.71875 0 3.71875 1.3125 
Q 3.765625 1.5625 3.90625 2.171875 
Q 4.046875 2.78125 4.3125 3.140625 
Q 4.59375 3.515625 4.984375 3.515625 
Q 11.078125 3.515625 13.484375 4.203125 
Q 14.796875 4.640625 15.375 6.890625 
L 29.109375 61.8125 
Q 29.296875 62.796875 29.296875 63.1875 
Q 29.296875 64.265625 28.078125 64.40625 
Q 26.21875 64.796875 20.90625 64.796875 
Q 19.921875 64.796875 19.921875 66.109375 
Q 20.265625 67.390625 20.453125 67.84375 
Q 20.65625 68.3125 21.578125 68.3125 
L 48.484375 68.3125 
Q 49.515625 68.3125 49.515625 67 
Q 49.46875 66.75 49.3125 66.15625 
Q 49.171875 65.578125 48.921875 65.1875 
Q 48.6875 64.796875 48.1875 64.796875 
Q 42.09375 64.796875 39.703125 64.109375 
Q 38.375 63.625 37.796875 61.375 
L 29.6875 29 
L 68.890625 59.28125 
Q 69 59.46875 70.140625 60.609375 
Q 71.296875 61.765625 71.296875 62.890625 
Q 71.296875 64.796875 67.921875 64.796875 
Q 66.890625 64.796875 66.890625 66.109375 
Q 67.09375 66.890625 67.203125 67.328125 
Q 67.328125 67.78125 67.640625 68.046875 
Q 67.96875 68.3125 68.609375 68.3125 
L 87.984375 68.3125 
Q 88.53125 68.3125 88.765625 67.921875 
Q 89.015625 67.53125 89.015625 67 
Q 88.96875 66.75 88.796875 66.109375 
Q 88.625 65.484375 88.359375 65.140625 
Q 88.09375 64.796875 87.59375 64.796875 
Q 80.28125 64.796875 71.578125 58.015625 
Q 71.53125 57.953125 71.4375 57.921875 
Q 71.34375 57.90625 71.234375 57.875 
Q 71.140625 57.859375 71.09375 57.8125 
L 50.484375 41.796875 
L 65.484375 6.6875 
Q 66.84375 4.5 68.40625 4 
Q 69.96875 3.515625 73.1875 3.515625 
Q 74.21875 3.515625 74.21875 2.203125 
Q 73.921875 1.03125 73.625 0.515625 
Q 73.34375 0 72.515625 0 
L 49.3125 0 
Q 48.390625 0 48.390625 1.3125 
Q 48.53125 2.34375 48.71875 2.921875 
Q 48.921875 3.515625 49.703125 3.515625 
Q 52.25 3.515625 54.03125 4.03125 
Q 55.8125 4.546875 55.8125 6.390625 
Q 55.8125 7.078125 55.71875 7.421875 
L 43.3125 36.28125 
L 28.71875 25 
L 24.125 6.5 
Q 23.875 5.28125 23.875 5.078125 
Q 23.875 4.046875 25.09375 3.90625 
Q 27 3.515625 32.328125 3.515625 
Q 33.296875 3.515625 33.296875 2.203125 
Q 32.953125 0.78125 32.75 0.390625 
Q 32.5625 0 31.59375 0 
z
" id="Cmmi10-4b"/>
     </defs>
     <g style="fill:#262626;" transform="translate(260.721873702 196.87225)scale(0.088 -0.088)">
      <use transform="translate(0.0 0.203125)" xlink:href="#Cmmi10-4b"/>
      <use transform="translate(84.912109375 -16.803125)scale(0.7)" xlink:href="#Cmmi10-53"/>
      <use transform="translate(134.184960937 0.203125)" xlink:href="#ArialMT-20"/>
      <use transform="translate(161.968164062 0.203125)" xlink:href="#ArialMT-28"/>
      <use transform="translate(195.268945312 0.203125)" xlink:href="#ArialMT-69"/>
      <use transform="translate(217.485742187 0.203125)" xlink:href="#ArialMT-6e"/>
      <use transform="translate(273.100976563 0.203125)" xlink:href="#ArialMT-20"/>
      <use transform="translate(300.884179688 0.203125)" xlink:href="#ArialMT-6d"/>
      <use transform="translate(384.184960938 0.203125)" xlink:href="#ArialMT-4d"/>
      <use transform="translate(467.485742188 0.203125)" xlink:href="#ArialMT-29"/>
     </g>
    </g>
   </g>
   <g id="matplotlib.axis_4">
    <g id="ytick_7">
     <g id="line2d_34"/>
     <g id="line2d_35"/>
    </g>
    <g id="ytick_8">
     <g id="line2d_36"/>
     <g id="line2d_37"/>
    </g>
    <g id="ytick_9">
     <g id="line2d_38"/>
     <g id="line2d_39"/>
    </g>
    <g id="ytick_10">
     <g id="line2d_40"/>
     <g id="line2d_41"/>
    </g>
    <g id="ytick_11">
     <g id="line2d_42"/>
     <g id="line2d_43"/>
    </g>
    <g id="ytick_12">
     <g id="line2d_44"/>
     <g id="line2d_45"/>
    </g>
   </g>
   <g id="line2d_46">
    <path clip-path="url(#p0aa755b0d3)" d="M 202.24579 172.531081 
L 210.68997 172.43917 
L 215.756478 172.107752 
L 224.200658 171.380274 
L 236.02251 170.752802 
L 241.089017 170.180244 
L 252.910869 168.234993 
L 254.599705 167.857847 
L 256.288541 167.365844 
L 257.977377 166.73366 
L 259.666213 165.954846 
L 263.043885 164.03663 
L 268.110393 160.764525 
L 271.488065 158.426374 
L 274.865737 155.748294 
L 276.554573 154.215718 
L 278.243409 152.52305 
L 279.932245 150.652142 
L 281.621081 148.591202 
L 283.309917 146.327743 
L 284.998753 143.835163 
L 286.687589 141.066716 
L 288.376425 137.969278 
L 290.065261 134.514459 
L 293.442932 126.706822 
L 298.50944 114.556221 
L 303.575948 103.412915 
L 306.95362 95.809737 
L 312.020128 83.561542 
L 315.3978 75.665526 
L 317.086636 72.15775 
L 318.775472 69.051275 
L 320.464308 66.338101 
L 322.153144 63.941294 
L 325.530816 59.660499 
L 333.974996 49.552719 
L 337.352668 45.868568 
L 340.73034 42.610136 
L 344.108012 39.808869 
L 347.485684 37.471498 
L 350.863355 35.595133 
L 355.929863 33.189569 
L 359.307535 31.705795 
L 362.685207 30.532838 
L 366.062879 29.74741 
L 371.129387 28.982241 
L 381.262403 27.569138 
L 399.839599 24.928669 
L 406.594942 24.500285 
L 413.350286 24.375274 
L 416.727958 24.368855 
L 416.727958 24.368855 
" style="fill:none;stroke:#3eaf76;stroke-linecap:round;stroke-width:2.0;"/>
   </g>
   <g id="line2d_47">
    <path clip-path="url(#p0aa755b0d3)" d="M 160.078381 172.527862 
L 165.437434 172.423864 
L 167.223785 172.282523 
L 169.010136 172.021141 
L 170.796487 171.598644 
L 172.582837 171.000745 
L 176.155539 169.4442 
L 179.728241 167.937163 
L 183.300943 166.792555 
L 188.659995 165.36466 
L 192.232697 164.685666 
L 195.805399 164.330476 
L 199.378101 164.018786 
L 202.950803 163.428712 
L 210.096206 161.905118 
L 215.455259 161.115287 
L 217.24161 160.738447 
L 219.027961 160.236202 
L 220.814311 159.584192 
L 222.600662 158.751816 
L 224.387013 157.697777 
L 226.173364 156.393239 
L 229.746066 153.213869 
L 231.532417 151.60795 
L 233.318768 150.202993 
L 235.105119 149.081711 
L 236.891469 148.224675 
L 242.250522 146.183919 
L 244.036873 145.342535 
L 245.823224 144.321018 
L 247.609575 143.104331 
L 251.182277 140.22948 
L 254.754978 137.333706 
L 258.32768 134.886356 
L 261.900382 132.529173 
L 263.686733 131.121504 
L 265.473084 129.424744 
L 267.259435 127.359362 
L 269.045785 124.861932 
L 270.832136 121.887591 
L 272.618487 118.430098 
L 274.404838 114.55289 
L 281.550242 98.145443 
L 286.909294 86.521598 
L 292.268347 74.177544 
L 294.054698 70.598639 
L 295.841049 67.514548 
L 297.6274 64.889058 
L 299.413751 62.612884 
L 302.986452 58.648705 
L 308.345505 53.173954 
L 310.131856 51.449704 
L 311.918207 49.891557 
L 313.704558 48.599945 
L 315.490909 47.636506 
L 317.27726 46.995412 
L 319.06361 46.609461 
L 326.209014 45.691574 
L 327.995365 45.247174 
L 329.781716 44.645504 
L 331.568067 43.886456 
L 333.354418 42.978713 
L 336.927119 40.786516 
L 340.499821 38.412791 
L 342.286172 37.362869 
L 344.072523 36.493944 
L 347.645225 35.232166 
L 351.217926 34.079847 
L 354.790628 32.601192 
L 360.149681 30.171727 
L 363.722383 28.749753 
L 367.295084 27.523736 
L 372.654137 25.908246 
L 376.226839 25.046904 
L 379.799541 24.565181 
L 383.372242 24.403155 
L 386.944944 24.371705 
L 386.944944 24.371705 
" style="fill:none;stroke:#fe86a4;stroke-linecap:round;stroke-width:2.0;"/>
   </g>
   <g id="patch_8">
    <path d="M 208.299246 24.368 
L 357.232502 24.368 
" style="fill:none;stroke:#262626;stroke-linecap:square;stroke-linejoin:miter;stroke-width:1.25;"/>
   </g>
   <g id="patch_9">
    <path d="M 357.232502 172.532 
L 357.232502 24.368 
" style="fill:none;stroke:#262626;stroke-linecap:square;stroke-linejoin:miter;stroke-width:1.25;"/>
   </g>
   <g id="patch_10">
    <path d="M 208.299246 172.532 
L 357.232502 172.532 
" style="fill:none;stroke:#262626;stroke-linecap:square;stroke-linejoin:miter;stroke-width:1.25;"/>
   </g>
   <g id="patch_11">
    <path d="M 208.299246 172.532 
L 208.299246 24.368 
" style="fill:none;stroke:#262626;stroke-linecap:square;stroke-linejoin:miter;stroke-width:1.25;"/>
   </g>
   <g id="text_21">
    <!-- Measured $K_{\rm S}$ values -->
    <defs>
     <path d="M 5.609375 -1.421875 
L 5.609375 21.921875 
Q 5.609375 22.703125 6.5 22.703125 
L 7.71875 22.703125 
Q 8.015625 22.703125 8.25 22.453125 
Q 8.5 22.21875 8.5 21.921875 
Q 8.5 12.109375 14.578125 6.703125 
Q 20.65625 1.3125 30.515625 1.3125 
Q 33.984375 1.3125 36.90625 3.3125 
Q 39.84375 5.328125 41.46875 8.5625 
Q 43.109375 11.8125 43.109375 15.28125 
Q 43.109375 18.3125 41.890625 21.171875 
Q 40.671875 24.03125 38.375 26.125 
Q 36.078125 28.21875 33.203125 28.90625 
L 20.21875 32.078125 
Q 13.765625 33.796875 9.6875 39.09375 
Q 5.609375 44.390625 5.609375 50.984375 
Q 5.609375 56.15625 8.25 60.6875 
Q 10.890625 65.234375 15.359375 67.875 
Q 19.828125 70.515625 25 70.515625 
Q 35.015625 70.515625 40.921875 63.71875 
L 45.015625 70.21875 
Q 45.3125 70.515625 45.703125 70.515625 
L 46.390625 70.515625 
Q 46.6875 70.515625 46.953125 70.28125 
Q 47.21875 70.0625 47.21875 69.671875 
L 47.21875 46.484375 
Q 47.21875 45.609375 46.390625 45.609375 
L 45.21875 45.609375 
Q 44.28125 45.609375 44.28125 46.484375 
Q 44.28125 49.03125 43.421875 52.046875 
Q 42.578125 55.078125 41.0625 57.859375 
Q 39.546875 60.640625 37.796875 62.40625 
Q 32.953125 67.28125 25 67.28125 
Q 21.578125 67.28125 18.703125 65.546875 
Q 15.828125 63.8125 14.109375 60.828125 
Q 12.40625 57.859375 12.40625 54.59375 
Q 12.40625 50.296875 15.0625 46.796875 
Q 17.71875 43.3125 22.015625 42.1875 
L 35.015625 39.015625 
Q 38.234375 38.234375 41.09375 36.203125 
Q 43.953125 34.1875 45.84375 31.5 
Q 47.75 28.8125 48.828125 25.515625 
Q 49.90625 22.21875 49.90625 18.703125 
Q 49.90625 13.28125 47.40625 8.46875 
Q 44.921875 3.65625 40.40625 0.71875 
Q 35.890625 -2.203125 30.515625 -2.203125 
Q 27.203125 -2.203125 23.734375 -1.46875 
Q 20.265625 -0.734375 17.328125 0.78125 
Q 14.40625 2.296875 12.015625 4.6875 
L 7.8125 -1.90625 
Q 7.515625 -2.203125 7.078125 -2.203125 
L 6.5 -2.203125 
Q 5.609375 -2.203125 5.609375 -1.421875 
" id="Cmr10-53"/>
    </defs>
    <g style="fill:#262626;" transform="translate(238.605873702 19.368)scale(0.096 -0.096)">
     <use transform="translate(0.0 0.421875)" xlink:href="#ArialMT-4d"/>
     <use transform="translate(83.30078125 0.421875)" xlink:href="#ArialMT-65"/>
     <use transform="translate(138.916015625 0.421875)" xlink:href="#ArialMT-61"/>
     <use transform="translate(194.53125 0.421875)" xlink:href="#ArialMT-73"/>
     <use transform="translate(244.53125 0.421875)" xlink:href="#ArialMT-75"/>
     <use transform="translate(300.146484375 0.421875)" xlink:href="#ArialMT-72"/>
     <use transform="translate(333.447265625 0.421875)" xlink:href="#ArialMT-65"/>
     <use transform="translate(389.0625 0.421875)" xlink:href="#ArialMT-64"/>
     <use transform="translate(444.677734375 0.421875)" xlink:href="#ArialMT-20"/>
     <use transform="translate(472.4609375 0.421875)" xlink:href="#Cmmi10-4b"/>
     <use transform="translate(557.373046875 -16.584375)scale(0.7)" xlink:href="#Cmr10-53"/>
     <use transform="translate(602.612695313 0.421875)" xlink:href="#ArialMT-20"/>
     <use transform="translate(630.395898438 0.421875)" xlink:href="#ArialMT-76"/>
     <use transform="translate(680.395898438 0.421875)" xlink:href="#ArialMT-61"/>
     <use transform="translate(736.011132813 0.421875)" xlink:href="#ArialMT-6c"/>
     <use transform="translate(758.227929688 0.421875)" xlink:href="#ArialMT-75"/>
     <use transform="translate(813.843164063 0.421875)" xlink:href="#ArialMT-65"/>
     <use transform="translate(869.458398438 0.421875)" xlink:href="#ArialMT-73"/>
    </g>
   </g>
   <g id="legend_1">
    <g id="line2d_48">
     <path d="M 215.499246 34.768 
L 231.499246 34.768 
" style="fill:none;stroke:#3eaf76;stroke-linecap:round;stroke-width:2.0;"/>
    </g>
    <g id="line2d_49"/>
    <g id="text_22">
     <!-- substrates $(K_M)$ -->
     <defs>
      <path d="M 31 -24.8125 
Q 25.4375 -20.40625 21.40625 -14.71875 
Q 17.390625 -9.03125 14.8125 -2.578125 
Q 12.25 3.859375 10.984375 10.890625 
Q 9.71875 17.921875 9.71875 25 
Q 9.71875 32.171875 10.984375 39.203125 
Q 12.25 46.234375 14.859375 52.734375 
Q 17.484375 59.234375 21.53125 64.890625 
Q 25.59375 70.5625 31 74.8125 
Q 31 75 31.5 75 
L 32.421875 75 
Q 32.71875 75 32.953125 74.734375 
Q 33.203125 74.46875 33.203125 74.125 
Q 33.203125 73.6875 33.015625 73.484375 
Q 28.125 68.703125 24.875 63.234375 
Q 21.625 57.765625 19.640625 51.578125 
Q 17.671875 45.40625 16.796875 38.78125 
Q 15.921875 32.171875 15.921875 25 
Q 15.921875 -6.78125 32.90625 -23.296875 
Q 33.203125 -23.578125 33.203125 -24.125 
Q 33.203125 -24.359375 32.9375 -24.671875 
Q 32.671875 -25 32.421875 -25 
L 31.5 -25 
Q 31 -25 31 -24.8125 
" id="Cmr10-28"/>
      <path d="M 6.5 -25 
Q 5.609375 -25 5.609375 -24.125 
Q 5.609375 -23.6875 5.8125 -23.484375 
Q 22.90625 -6.78125 22.90625 25 
Q 22.90625 56.78125 6 73.296875 
Q 5.609375 73.53125 5.609375 74.125 
Q 5.609375 74.46875 5.875 74.734375 
Q 6.15625 75 6.5 75 
L 7.421875 75 
Q 7.71875 75 7.90625 74.8125 
Q 15.09375 69.140625 19.875 61.03125 
Q 24.65625 52.9375 26.875 43.75 
Q 29.109375 34.578125 29.109375 25 
Q 29.109375 17.921875 27.90625 11.0625 
Q 26.703125 4.203125 24.09375 -2.453125 
Q 21.484375 -9.125 17.484375 -14.765625 
Q 13.484375 -20.40625 7.90625 -24.8125 
Q 7.71875 -25 7.421875 -25 
z
" id="Cmr10-29"/>
      <path d="M 5.078125 0 
Q 4.109375 0 4.109375 1.3125 
Q 4.15625 1.5625 4.296875 2.140625 
Q 4.4375 2.734375 4.6875 3.125 
Q 4.9375 3.515625 5.421875 3.515625 
Q 14.9375 3.515625 16.5 9.625 
L 29.5 61.8125 
Q 29.6875 62.796875 29.6875 63.1875 
Q 29.6875 64.265625 28.515625 64.40625 
Q 26.609375 64.796875 21.296875 64.796875 
Q 20.3125 64.796875 20.3125 66.109375 
Q 20.359375 66.359375 20.5 66.96875 
Q 20.65625 67.578125 20.921875 67.9375 
Q 21.1875 68.3125 21.578125 68.3125 
L 39.203125 68.3125 
Q 40.328125 68.3125 40.484375 67.1875 
L 48.296875 9.90625 
L 84.71875 67.1875 
Q 85.40625 68.3125 86.625 68.3125 
L 103.609375 68.3125 
Q 104.59375 68.3125 104.59375 67 
Q 104.546875 66.75 104.390625 66.140625 
Q 104.25 65.53125 103.984375 65.15625 
Q 103.71875 64.796875 103.328125 64.796875 
Q 97.21875 64.796875 94.828125 64.109375 
Q 93.5 63.671875 92.921875 61.375 
L 79.203125 6.5 
Q 79 5.515625 79 5.078125 
Q 79 4.6875 79.125 4.421875 
Q 79.25 4.15625 79.46875 4.078125 
Q 79.6875 4 80.171875 3.90625 
Q 82.078125 3.515625 87.40625 3.515625 
Q 88.375 3.515625 88.375 2.203125 
Q 88.03125 0.78125 87.828125 0.390625 
Q 87.640625 0 86.71875 0 
L 60.59375 0 
Q 59.625 0 59.625 1.3125 
Q 59.671875 1.5625 59.8125 2.171875 
Q 59.96875 2.78125 60.234375 3.140625 
Q 60.5 3.515625 60.890625 3.515625 
Q 67 3.515625 69.390625 4.203125 
Q 70.703125 4.640625 71.296875 6.890625 
L 85.6875 64.796875 
L 45.3125 1.125 
Q 44.734375 0 43.3125 0 
Q 42.046875 0 41.890625 1.125 
L 33.40625 64.015625 
L 19.671875 9.1875 
Q 19.578125 8.9375 19.53125 8.5625 
Q 19.484375 8.203125 19.390625 7.71875 
Q 19.390625 5.125 21.65625 4.3125 
Q 23.921875 3.515625 27.203125 3.515625 
Q 28.21875 3.515625 28.21875 2.203125 
Q 27.875 0.875 27.65625 0.4375 
Q 27.4375 0 26.515625 0 
z
" id="Cmmi10-4d"/>
     </defs>
     <g style="fill:#262626;" transform="translate(237.899245634 37.568)scale(0.08 -0.08)">
      <use xlink:href="#ArialMT-73"/>
      <use transform="translate(50.0 0.0)" xlink:href="#ArialMT-75"/>
      <use transform="translate(105.615234375 0.0)" xlink:href="#ArialMT-62"/>
      <use transform="translate(161.23046875 0.0)" xlink:href="#ArialMT-73"/>
      <use transform="translate(211.23046875 0.0)" xlink:href="#ArialMT-74"/>
      <use transform="translate(239.013671875 0.0)" xlink:href="#ArialMT-72"/>
      <use transform="translate(272.314453125 0.0)" xlink:href="#ArialMT-61"/>
      <use transform="translate(327.9296875 0.0)" xlink:href="#ArialMT-74"/>
      <use transform="translate(355.712890625 0.0)" xlink:href="#ArialMT-65"/>
      <use transform="translate(411.328125 0.0)" xlink:href="#ArialMT-73"/>
      <use transform="translate(461.328125 0.0)" xlink:href="#ArialMT-20"/>
      <use transform="translate(489.111328125 0.0)" xlink:href="#Cmr10-28"/>
      <use transform="translate(527.9296875 0.0)" xlink:href="#Cmmi10-4b"/>
      <use transform="translate(612.841796875 -17.00625)scale(0.7)" xlink:href="#Cmmi10-4d"/>
      <use transform="translate(687.134179688 0.0)" xlink:href="#Cmr10-29"/>
     </g>
    </g>
    <g id="line2d_50">
     <path d="M 215.499246 46.768 
L 231.499246 46.768 
" style="fill:none;stroke:#fe86a4;stroke-linecap:round;stroke-width:2.0;"/>
    </g>
    <g id="line2d_51"/>
    <g id="text_23">
     <!-- inhibitors $(K_I)$ -->
     <defs>
      <path d="M 6.59375 0 
L 6.59375 71.578125 
L 15.375 71.578125 
L 15.375 45.90625 
Q 21.53125 53.03125 30.90625 53.03125 
Q 36.671875 53.03125 40.921875 50.75 
Q 45.171875 48.484375 47 44.484375 
Q 48.828125 40.484375 48.828125 32.859375 
L 48.828125 0 
L 40.046875 0 
L 40.046875 32.859375 
Q 40.046875 39.453125 37.1875 42.453125 
Q 34.328125 45.453125 29.109375 45.453125 
Q 25.203125 45.453125 21.75 43.421875 
Q 18.3125 41.40625 16.84375 37.9375 
Q 15.375 34.46875 15.375 28.375 
L 15.375 0 
z
" id="ArialMT-68"/>
      <path d="M 4.203125 0 
Q 3.21875 0 3.21875 1.3125 
Q 3.609375 3.515625 4.5 3.515625 
Q 10.40625 3.515625 12.5 3.90625 
Q 14.796875 4.4375 15.375 6.890625 
L 29.109375 61.8125 
Q 29.296875 62.796875 29.296875 63.09375 
Q 29.296875 63.71875 28.96875 63.984375 
Q 28.65625 64.265625 27.984375 64.40625 
Q 25.984375 64.796875 20.40625 64.796875 
Q 19.390625 64.796875 19.390625 66.109375 
Q 19.734375 67.390625 19.921875 67.84375 
Q 20.125 68.3125 21.09375 68.3125 
L 49.03125 68.3125 
Q 50 68.3125 50 67 
Q 49.953125 66.75 49.796875 66.15625 
Q 49.65625 65.578125 49.40625 65.1875 
Q 49.171875 64.796875 48.6875 64.796875 
Q 42.828125 64.796875 40.578125 64.40625 
Q 38.375 63.875 37.796875 61.375 
L 24.125 6.5 
Q 23.875 5.28125 23.875 5.171875 
Q 23.875 4.9375 23.953125 4.71875 
Q 24.03125 4.5 24.25 4.328125 
Q 24.46875 4.15625 24.6875 4.078125 
Q 24.90625 4 25.203125 3.90625 
Q 27.09375 3.515625 32.8125 3.515625 
Q 33.796875 3.515625 33.796875 2.203125 
Q 33.453125 0.78125 33.25 0.390625 
Q 33.0625 0 32.078125 0 
z
" id="Cmmi10-49"/>
     </defs>
     <g style="fill:#262626;" transform="translate(237.899245634 49.568)scale(0.08 -0.08)">
      <use xlink:href="#ArialMT-69"/>
      <use transform="translate(22.216796875 0.0)" xlink:href="#ArialMT-6e"/>
      <use transform="translate(77.83203125 0.0)" xlink:href="#ArialMT-68"/>
      <use transform="translate(133.447265625 0.0)" xlink:href="#ArialMT-69"/>
      <use transform="translate(155.6640625 0.0)" xlink:href="#ArialMT-62"/>
      <use transform="translate(211.279296875 0.0)" xlink:href="#ArialMT-69"/>
      <use transform="translate(233.49609375 0.0)" xlink:href="#ArialMT-74"/>
      <use transform="translate(261.279296875 0.0)" xlink:href="#ArialMT-6f"/>
      <use transform="translate(316.89453125 0.0)" xlink:href="#ArialMT-72"/>
      <use transform="translate(350.1953125 0.0)" xlink:href="#ArialMT-73"/>
      <use transform="translate(400.1953125 0.0)" xlink:href="#ArialMT-20"/>
      <use transform="translate(427.978515625 0.0)" xlink:href="#Cmr10-28"/>
      <use transform="translate(466.796875 0.0)" xlink:href="#Cmmi10-4b"/>
      <use transform="translate(551.708984375 -17.00625)scale(0.7)" xlink:href="#Cmmi10-49"/>
      <use transform="translate(588.813867188 0.0)" xlink:href="#Cmr10-29"/>
     </g>
    </g>
   </g>
  </g>
  <g id="axes_3">
   <g id="patch_12">
    <path d="M 376.392991 172.532 
L 525.326247 172.532 
L 525.326247 24.368 
L 376.392991 24.368 
z
" style="fill:#ffffff;"/>
   </g>
   <g id="matplotlib.axis_5">
    <g id="xtick_11">
     <g id="line2d_52"/>
     <g id="line2d_53"/>
     <g id="text_24">
      <!-- 0.0 -->
      <g style="fill:#262626;" transform="translate(372.293121229 183.85825)scale(0.08 -0.08)">
       <use xlink:href="#ArialMT-30"/>
       <use x="55.615234375" xlink:href="#ArialMT-2e"/>
       <use x="83.3984375" xlink:href="#ArialMT-30"/>
      </g>
     </g>
    </g>
    <g id="xtick_12">
     <g id="line2d_54"/>
     <g id="line2d_55"/>
     <g id="text_25">
      <!-- 0.2 -->
      <g style="fill:#262626;" transform="translate(401.495720472 183.85825)scale(0.08 -0.08)">
       <use xlink:href="#ArialMT-30"/>
       <use x="55.615234375" xlink:href="#ArialMT-2e"/>
       <use x="83.3984375" xlink:href="#ArialMT-32"/>
      </g>
     </g>
    </g>
    <g id="xtick_13">
     <g id="line2d_56"/>
     <g id="line2d_57"/>
     <g id="text_26">
      <!-- 0.4 -->
      <g style="fill:#262626;" transform="translate(430.698319715 183.85825)scale(0.08 -0.08)">
       <use xlink:href="#ArialMT-30"/>
       <use x="55.615234375" xlink:href="#ArialMT-2e"/>
       <use x="83.3984375" xlink:href="#ArialMT-34"/>
      </g>
     </g>
    </g>
    <g id="xtick_14">
     <g id="line2d_58"/>
     <g id="line2d_59"/>
     <g id="text_27">
      <!-- 0.6 -->
      <g style="fill:#262626;" transform="translate(459.900918957 183.85825)scale(0.08 -0.08)">
       <use xlink:href="#ArialMT-30"/>
       <use x="55.615234375" xlink:href="#ArialMT-2e"/>
       <use x="83.3984375" xlink:href="#ArialMT-36"/>
      </g>
     </g>
    </g>
    <g id="xtick_15">
     <g id="line2d_60"/>
     <g id="line2d_61"/>
     <g id="text_28">
      <!-- 0.8 -->
      <g style="fill:#262626;" transform="translate(489.1035182 183.85825)scale(0.08 -0.08)">
       <use xlink:href="#ArialMT-30"/>
       <use x="55.615234375" xlink:href="#ArialMT-2e"/>
       <use x="83.3984375" xlink:href="#ArialMT-38"/>
      </g>
     </g>
    </g>
    <g id="xtick_16">
     <g id="line2d_62"/>
     <g id="line2d_63"/>
     <g id="text_29">
      <!-- 1.0 -->
      <g style="fill:#262626;" transform="translate(518.306117443 183.85825)scale(0.08 -0.08)">
       <use xlink:href="#ArialMT-31"/>
       <use x="55.615234375" xlink:href="#ArialMT-2e"/>
       <use x="83.3984375" xlink:href="#ArialMT-30"/>
      </g>
     </g>
    </g>
    <g id="text_30">
     <!-- $[S]/\left([S] + K_S\right)$ -->
     <defs>
      <path d="M 5.609375 -23 
Q 5.609375 -22.703125 5.71875 -22.609375 
L 40.484375 73.78125 
Q 40.671875 74.359375 41.15625 74.671875 
Q 41.65625 75 42.28125 75 
Q 43.171875 75 43.71875 74.453125 
Q 44.28125 73.921875 44.28125 73 
L 44.28125 72.609375 
L 9.515625 -23.78125 
Q 8.9375 -25 7.625 -25 
Q 6.78125 -25 6.1875 -24.40625 
Q 5.609375 -23.828125 5.609375 -23 
" id="Cmmi10-3d"/>
      <path d="M 7.515625 23 
Q 6.6875 23 6.140625 23.625 
Q 5.609375 24.265625 5.609375 25 
Q 5.609375 25.734375 6.140625 26.359375 
Q 6.6875 27 7.515625 27 
L 36.921875 27 
L 36.921875 56.5 
Q 36.921875 57.28125 37.5 57.78125 
Q 38.09375 58.296875 38.921875 58.296875 
Q 39.65625 58.296875 40.28125 57.78125 
Q 40.921875 57.28125 40.921875 56.5 
L 40.921875 27 
L 70.3125 27 
Q 71.046875 27 71.578125 26.359375 
Q 72.125 25.734375 72.125 25 
Q 72.125 24.265625 71.578125 23.625 
Q 71.046875 23 70.3125 23 
L 40.921875 23 
L 40.921875 -6.5 
Q 40.921875 -7.28125 40.28125 -7.78125 
Q 39.65625 -8.296875 38.921875 -8.296875 
Q 38.09375 -8.296875 37.5 -7.78125 
Q 36.921875 -7.28125 36.921875 -6.5 
L 36.921875 23 
z
" id="Cmr10-2b"/>
     </defs>
     <g style="fill:#262626;" transform="translate(424.107619336 197.04825)scale(0.088 -0.088)">
      <use xlink:href="#Cmr10-5b"/>
      <use transform="translate(27.685546875 0.0)" xlink:href="#Cmmi10-53"/>
      <use transform="translate(88.96484375 0.0)" xlink:href="#Cmr10-5d"/>
      <use transform="translate(116.650390625 0.0)" xlink:href="#Cmmi10-3d"/>
      <use transform="translate(166.650390625 0.0)" xlink:href="#Cmr10-28"/>
      <use transform="translate(205.46875 0.0)" xlink:href="#Cmr10-5b"/>
      <use transform="translate(233.154296875 0.0)" xlink:href="#Cmmi10-53"/>
      <use transform="translate(294.43359375 0.0)" xlink:href="#Cmr10-5d"/>
      <use transform="translate(339.677734375 0.0)" xlink:href="#Cmr10-2b"/>
      <use transform="translate(434.921875 0.0)" xlink:href="#Cmmi10-4b"/>
      <use transform="translate(519.833984375 -17.00625)scale(0.7)" xlink:href="#Cmmi10-53"/>
      <use transform="translate(569.106835938 0.0)" xlink:href="#Cmr10-29"/>
     </g>
    </g>
   </g>
   <g id="matplotlib.axis_6">
    <g id="ytick_13">
     <g id="line2d_64"/>
     <g id="line2d_65"/>
    </g>
    <g id="ytick_14">
     <g id="line2d_66"/>
     <g id="line2d_67"/>
    </g>
    <g id="ytick_15">
     <g id="line2d_68"/>
     <g id="line2d_69"/>
    </g>
    <g id="ytick_16">
     <g id="line2d_70"/>
     <g id="line2d_71"/>
    </g>
    <g id="ytick_17">
     <g id="line2d_72"/>
     <g id="line2d_73"/>
    </g>
    <g id="ytick_18">
     <g id="line2d_74"/>
     <g id="line2d_75"/>
    </g>
   </g>
   <g id="line2d_76">
    <path clip-path="url(#p17de244bb6)" d="M 374.295476 172.5315 
L 376.719882 172.488204 
L 377.932085 172.35754 
L 380.356491 171.760791 
L 382.780897 171.017137 
L 385.205303 170.059363 
L 388.841912 168.606032 
L 394.902927 166.544776 
L 398.539536 165.540888 
L 403.388348 163.938204 
L 407.024957 162.540052 
L 410.661566 161.477777 
L 414.298175 160.439279 
L 416.722581 159.412119 
L 420.35919 157.512636 
L 422.783596 156.646331 
L 428.844611 154.63415 
L 437.330032 151.564719 
L 443.391046 149.794049 
L 447.027655 148.544039 
L 449.452061 147.745428 
L 451.876467 146.788371 
L 455.513076 145.729397 
L 459.149685 144.895623 
L 462.786294 144.030151 
L 466.422903 142.923545 
L 470.059512 142.249906 
L 473.696121 141.549274 
L 476.120527 140.744229 
L 480.969339 138.675553 
L 485.818151 136.311787 
L 488.242557 135.177142 
L 490.666963 133.621556 
L 493.091369 131.976848 
L 496.727978 129.662995 
L 499.152384 127.684182 
L 505.213399 122.270409 
L 506.425602 120.748072 
L 507.637805 118.910718 
L 510.062211 114.552645 
L 511.274414 112.257867 
L 512.486617 109.698071 
L 513.69882 106.620553 
L 514.911023 102.882587 
L 516.123226 98.398463 
L 517.335429 93.14198 
L 518.547632 87.081968 
L 519.759835 79.835066 
L 520.972038 70.225245 
L 522.184241 57.173048 
L 523.396444 42.558059 
L 524.608647 31.33321 
L 525.82085 26.039168 
L 527.033053 24.602052 
L 528.245256 24.386244 
L 528.245256 24.386244 
" style="fill:none;stroke:#3eaf76;stroke-linecap:round;stroke-width:2.0;"/>
   </g>
   <g id="line2d_77">
    <path clip-path="url(#p17de244bb6)" d="M 373.476455 172.521742 
L 374.694474 172.411427 
L 375.912494 171.760782 
L 377.130513 169.709863 
L 379.566552 162.404958 
L 380.784572 159.752671 
L 384.43863 154.413861 
L 390.528727 144.279324 
L 391.746747 142.594013 
L 392.964766 141.119967 
L 397.836844 136.13762 
L 400.272883 133.963467 
L 403.926942 131.411483 
L 406.362981 129.120758 
L 410.017039 125.516597 
L 412.453078 123.380957 
L 413.671098 122.659497 
L 414.889117 122.254701 
L 417.325156 121.678519 
L 420.979215 120.449926 
L 422.197234 120.070277 
L 427.069312 117.934645 
L 429.505351 117.178754 
L 431.94139 116.537054 
L 434.377429 115.3877 
L 436.813468 114.297625 
L 440.467527 113.103034 
L 444.121585 110.821394 
L 445.339605 110.439383 
L 447.775644 109.885613 
L 448.993663 109.425569 
L 450.211683 108.782181 
L 451.429702 107.967842 
L 456.30178 104.038255 
L 457.519799 103.247266 
L 458.737819 102.305762 
L 461.173858 100.031027 
L 462.391877 99.187523 
L 463.609897 98.69099 
L 467.263955 97.557863 
L 468.481975 96.913869 
L 470.918014 95.110327 
L 472.136033 94.056262 
L 477.008111 89.369988 
L 481.880189 86.083229 
L 484.316228 84.158888 
L 485.534248 83.0281 
L 486.752267 81.618107 
L 489.188306 78.224028 
L 490.406326 77.038493 
L 491.624345 76.329417 
L 494.060384 75.365102 
L 495.278404 74.622888 
L 501.368501 70.104595 
L 502.586521 69.302544 
L 503.80454 68.170686 
L 506.240579 65.411919 
L 508.676618 63.13624 
L 509.894638 62.046686 
L 511.112657 60.715191 
L 512.330677 58.954217 
L 513.548696 56.684191 
L 514.766716 54.034315 
L 515.984735 51.087487 
L 520.856813 38.200434 
L 522.074832 34.14124 
L 523.292852 29.6104 
L 524.510871 26.281573 
L 525.728891 24.807784 
L 526.94691 24.427987 
L 528.16493 24.372632 
L 528.16493 24.372632 
" style="fill:none;stroke:#fe86a4;stroke-linecap:round;stroke-width:2.0;"/>
   </g>
   <g id="patch_13">
    <path d="M 376.392991 24.368 
L 525.326247 24.368 
" style="fill:none;stroke:#262626;stroke-linecap:square;stroke-linejoin:miter;stroke-width:1.25;"/>
   </g>
   <g id="patch_14">
    <path d="M 525.326247 172.532 
L 525.326247 24.368 
" style="fill:none;stroke:#262626;stroke-linecap:square;stroke-linejoin:miter;stroke-width:1.25;"/>
   </g>
   <g id="patch_15">
    <path d="M 376.392991 172.532 
L 525.326247 172.532 
" style="fill:none;stroke:#262626;stroke-linecap:square;stroke-linejoin:miter;stroke-width:1.25;"/>
   </g>
   <g id="patch_16">
    <path d="M 376.392991 172.532 
L 376.392991 24.368 
" style="fill:none;stroke:#262626;stroke-linecap:square;stroke-linejoin:miter;stroke-width:1.25;"/>
   </g>
   <g id="text_31">
    <!-- Saturation levels -->
    <defs>
     <path d="M 4.5 23 
L 13.421875 23.78125 
Q 14.0625 18.40625 16.375 14.96875 
Q 18.703125 11.53125 23.578125 9.40625 
Q 28.46875 7.28125 34.578125 7.28125 
Q 39.984375 7.28125 44.140625 8.890625 
Q 48.296875 10.5 50.3125 13.296875 
Q 52.34375 16.109375 52.34375 19.4375 
Q 52.34375 22.796875 50.390625 25.3125 
Q 48.4375 27.828125 43.953125 29.546875 
Q 41.0625 30.671875 31.203125 33.03125 
Q 21.34375 35.40625 17.390625 37.5 
Q 12.25 40.1875 9.734375 44.15625 
Q 7.234375 48.140625 7.234375 53.078125 
Q 7.234375 58.5 10.296875 63.203125 
Q 13.375 67.921875 19.28125 70.359375 
Q 25.203125 72.796875 32.421875 72.796875 
Q 40.375 72.796875 46.453125 70.234375 
Q 52.546875 67.671875 55.8125 62.6875 
Q 59.078125 57.71875 59.328125 51.421875 
L 50.25 50.734375 
Q 49.515625 57.515625 45.28125 60.984375 
Q 41.0625 64.453125 32.8125 64.453125 
Q 24.21875 64.453125 20.28125 61.296875 
Q 16.359375 58.15625 16.359375 53.71875 
Q 16.359375 49.859375 19.140625 47.359375 
Q 21.875 44.875 33.421875 42.265625 
Q 44.96875 39.65625 49.265625 37.703125 
Q 55.515625 34.8125 58.484375 30.390625 
Q 61.46875 25.984375 61.46875 20.21875 
Q 61.46875 14.5 58.203125 9.4375 
Q 54.9375 4.390625 48.796875 1.578125 
Q 42.671875 -1.21875 35.015625 -1.21875 
Q 25.296875 -1.21875 18.71875 1.609375 
Q 12.15625 4.4375 8.421875 10.125 
Q 4.6875 15.828125 4.5 23 
" id="ArialMT-53"/>
    </defs>
    <g style="fill:#262626;" transform="translate(415.374869336 19.368)scale(0.096 -0.096)">
     <use xlink:href="#ArialMT-53"/>
     <use x="66.69921875" xlink:href="#ArialMT-61"/>
     <use x="122.314453125" xlink:href="#ArialMT-74"/>
     <use x="150.09765625" xlink:href="#ArialMT-75"/>
     <use x="205.712890625" xlink:href="#ArialMT-72"/>
     <use x="239.013671875" xlink:href="#ArialMT-61"/>
     <use x="294.62890625" xlink:href="#ArialMT-74"/>
     <use x="322.412109375" xlink:href="#ArialMT-69"/>
     <use x="344.62890625" xlink:href="#ArialMT-6f"/>
     <use x="400.244140625" xlink:href="#ArialMT-6e"/>
     <use x="455.859375" xlink:href="#ArialMT-20"/>
     <use x="483.642578125" xlink:href="#ArialMT-6c"/>
     <use x="505.859375" xlink:href="#ArialMT-65"/>
     <use x="561.474609375" xlink:href="#ArialMT-76"/>
     <use x="611.474609375" xlink:href="#ArialMT-65"/>
     <use x="667.08984375" xlink:href="#ArialMT-6c"/>
     <use x="689.306640625" xlink:href="#ArialMT-73"/>
    </g>
   </g>
   <g id="legend_2">
    <g id="line2d_78">
     <path d="M 383.592991 34.49425 
L 399.592991 34.49425 
" style="fill:none;stroke:#3eaf76;stroke-linecap:round;stroke-width:2.0;"/>
    </g>
    <g id="line2d_79"/>
    <g id="text_32">
     <!-- substrates -->
     <g style="fill:#262626;" transform="translate(405.992991267 37.29425)scale(0.08 -0.08)">
      <use xlink:href="#ArialMT-73"/>
      <use x="50.0" xlink:href="#ArialMT-75"/>
      <use x="105.615234375" xlink:href="#ArialMT-62"/>
      <use x="161.23046875" xlink:href="#ArialMT-73"/>
      <use x="211.23046875" xlink:href="#ArialMT-74"/>
      <use x="239.013671875" xlink:href="#ArialMT-72"/>
      <use x="272.314453125" xlink:href="#ArialMT-61"/>
      <use x="327.9296875" xlink:href="#ArialMT-74"/>
      <use x="355.712890625" xlink:href="#ArialMT-65"/>
      <use x="411.328125" xlink:href="#ArialMT-73"/>
     </g>
    </g>
    <g id="line2d_80">
     <path d="M 383.592991 45.8105 
L 399.592991 45.8105 
" style="fill:none;stroke:#fe86a4;stroke-linecap:round;stroke-width:2.0;"/>
    </g>
    <g id="line2d_81"/>
    <g id="text_33">
     <!-- inhibitors -->
     <g style="fill:#262626;" transform="translate(405.992991267 48.6105)scale(0.08 -0.08)">
      <use xlink:href="#ArialMT-69"/>
      <use x="22.216796875" xlink:href="#ArialMT-6e"/>
      <use x="77.83203125" xlink:href="#ArialMT-68"/>
      <use x="133.447265625" xlink:href="#ArialMT-69"/>
      <use x="155.6640625" xlink:href="#ArialMT-62"/>
      <use x="211.279296875" xlink:href="#ArialMT-69"/>
      <use x="233.49609375" xlink:href="#ArialMT-74"/>
      <use x="261.279296875" xlink:href="#ArialMT-6f"/>
      <use x="316.89453125" xlink:href="#ArialMT-72"/>
      <use x="350.1953125" xlink:href="#ArialMT-73"/>
     </g>
    </g>
   </g>
  </g>
 </g>
 <defs>
  <clipPath id="p0aa755b0d3">
   <rect height="148.164" width="148.933256138" x="208.299245634" y="24.368"/>
  </clipPath>
  <clipPath id="p17de244bb6">
   <rect height="148.164" width="148.933256138" x="376.392991267" y="24.368"/>
  </clipPath>
  <clipPath id="p1c10fce99f">
   <rect height="148.164" width="148.933256138" x="40.2055" y="24.368"/>
  </clipPath>
 </defs>
</svg>
