<?xml version="1.0" encoding="utf-8" standalone="no"?>
<!DOCTYPE svg PUBLIC "-//W3C//DTD SVG 1.1//EN"
  "http://www.w3.org/Graphics/SVG/1.1/DTD/svg11.dtd">
<!-- Created with matplotlib (http://matplotlib.org/) -->
<svg height="504pt" version="1.1" viewBox="0 0 504 504" width="504pt" xmlns="http://www.w3.org/2000/svg" xmlns:xlink="http://www.w3.org/1999/xlink">
 <defs>
  <style type="text/css">
*{stroke-linecap:butt;stroke-linejoin:round;stroke-miterlimit:100000;}
  </style>
 </defs>
 <g id="figure_1">
  <g id="patch_1">
   <path d="M 0 504 
L 504 504 
L 504 0 
L 0 0 
z
" style="fill:#ffffff;"/>
  </g>
  <g id="axes_1">
   <g id="patch_2">
    <path d="M 63 441 
L 453.6 441 
L 453.6 50.4 
L 63 50.4 
z
" style="fill:#eaeaf2;"/>
   </g>
   <g id="matplotlib.axis_1">
    <g id="xtick_1">
     <g id="line2d_1">
      <path clip-path="url(#pdb858fed6c)" d="M 63 441 
L 63 50.4 
" style="fill:none;stroke:#ffffff;stroke-linecap:round;"/>
     </g>
     <g id="line2d_2">
      <defs>
       <path d="M 0 0 
L 0 0 
" id="m0d49f6e001" style="stroke:#262626;"/>
      </defs>
      <g>
       <use style="fill:#262626;stroke:#262626;" x="63.0" xlink:href="#m0d49f6e001" y="441.0"/>
      </g>
     </g>
     <g id="line2d_3">
      <g>
       <use style="fill:#262626;stroke:#262626;" x="63.0" xlink:href="#m0d49f6e001" y="50.4"/>
      </g>
     </g>
     <g id="text_1">
      <!-- −10 -->
      <defs>
       <path d="M 4.15625 35.296875 
Q 4.15625 48 6.765625 55.734375 
Q 9.375 63.484375 14.515625 67.671875 
Q 19.671875 71.875 27.484375 71.875 
Q 33.25 71.875 37.59375 69.546875 
Q 41.9375 67.234375 44.765625 62.859375 
Q 47.609375 58.5 49.21875 52.21875 
Q 50.828125 45.953125 50.828125 35.296875 
Q 50.828125 22.703125 48.234375 14.96875 
Q 45.65625 7.234375 40.5 3 
Q 35.359375 -1.21875 27.484375 -1.21875 
Q 17.140625 -1.21875 11.234375 6.203125 
Q 4.15625 15.140625 4.15625 35.296875 
M 13.1875 35.296875 
Q 13.1875 17.671875 17.3125 11.828125 
Q 21.4375 6 27.484375 6 
Q 33.546875 6 37.671875 11.859375 
Q 41.796875 17.71875 41.796875 35.296875 
Q 41.796875 52.984375 37.671875 58.78125 
Q 33.546875 64.59375 27.390625 64.59375 
Q 21.34375 64.59375 17.71875 59.46875 
Q 13.1875 52.9375 13.1875 35.296875 
" id="ArialMT-30"/>
       <path d="M 37.25 0 
L 28.46875 0 
L 28.46875 56 
Q 25.296875 52.984375 20.140625 49.953125 
Q 14.984375 46.921875 10.890625 45.40625 
L 10.890625 53.90625 
Q 18.265625 57.375 23.78125 62.296875 
Q 29.296875 67.234375 31.59375 71.875 
L 37.25 71.875 
z
" id="ArialMT-31"/>
       <path d="M 52.828125 31.203125 
L 5.5625 31.203125 
L 5.5625 39.40625 
L 52.828125 39.40625 
z
" id="ArialMT-2212"/>
      </defs>
      <g style="fill:#262626;" transform="translate(54.51875 455.1578125)scale(0.1 -0.1)">
       <use xlink:href="#ArialMT-2212"/>
       <use x="58.3984375" xlink:href="#ArialMT-31"/>
       <use x="114.013671875" xlink:href="#ArialMT-30"/>
      </g>
     </g>
    </g>
    <g id="xtick_2">
     <g id="line2d_4">
      <path clip-path="url(#pdb858fed6c)" d="M 160.65 441 
L 160.65 50.4 
" style="fill:none;stroke:#ffffff;stroke-linecap:round;"/>
     </g>
     <g id="line2d_5">
      <g>
       <use style="fill:#262626;stroke:#262626;" x="160.65" xlink:href="#m0d49f6e001" y="441.0"/>
      </g>
     </g>
     <g id="line2d_6">
      <g>
       <use style="fill:#262626;stroke:#262626;" x="160.65" xlink:href="#m0d49f6e001" y="50.4"/>
      </g>
     </g>
     <g id="text_2">
      <!-- −5 -->
      <defs>
       <path d="M 4.15625 18.75 
L 13.375 19.53125 
Q 14.40625 12.796875 18.140625 9.390625 
Q 21.875 6 27.15625 6 
Q 33.5 6 37.890625 10.78125 
Q 42.28125 15.578125 42.28125 23.484375 
Q 42.28125 31 38.0625 35.34375 
Q 33.84375 39.703125 27 39.703125 
Q 22.75 39.703125 19.328125 37.765625 
Q 15.921875 35.84375 13.96875 32.765625 
L 5.71875 33.84375 
L 12.640625 70.609375 
L 48.25 70.609375 
L 48.25 62.203125 
L 19.671875 62.203125 
L 15.828125 42.96875 
Q 22.265625 47.46875 29.34375 47.46875 
Q 38.71875 47.46875 45.15625 40.96875 
Q 51.609375 34.46875 51.609375 24.265625 
Q 51.609375 14.546875 45.953125 7.46875 
Q 39.0625 -1.21875 27.15625 -1.21875 
Q 17.390625 -1.21875 11.203125 4.25 
Q 5.03125 9.71875 4.15625 18.75 
" id="ArialMT-35"/>
      </defs>
      <g style="fill:#262626;" transform="translate(154.94921875 455.1578125)scale(0.1 -0.1)">
       <use xlink:href="#ArialMT-2212"/>
       <use x="58.3984375" xlink:href="#ArialMT-35"/>
      </g>
     </g>
    </g>
    <g id="xtick_3">
     <g id="line2d_7">
      <path clip-path="url(#pdb858fed6c)" d="M 258.3 441 
L 258.3 50.4 
" style="fill:none;stroke:#ffffff;stroke-linecap:round;"/>
     </g>
     <g id="line2d_8">
      <g>
       <use style="fill:#262626;stroke:#262626;" x="258.3" xlink:href="#m0d49f6e001" y="441.0"/>
      </g>
     </g>
     <g id="line2d_9">
      <g>
       <use style="fill:#262626;stroke:#262626;" x="258.3" xlink:href="#m0d49f6e001" y="50.4"/>
      </g>
     </g>
     <g id="text_3">
      <!-- 0 -->
      <g style="fill:#262626;" transform="translate(255.51953125 455.1578125)scale(0.1 -0.1)">
       <use xlink:href="#ArialMT-30"/>
      </g>
     </g>
    </g>
    <g id="xtick_4">
     <g id="line2d_10">
      <path clip-path="url(#pdb858fed6c)" d="M 355.95 441 
L 355.95 50.4 
" style="fill:none;stroke:#ffffff;stroke-linecap:round;"/>
     </g>
     <g id="line2d_11">
      <g>
       <use style="fill:#262626;stroke:#262626;" x="355.95" xlink:href="#m0d49f6e001" y="441.0"/>
      </g>
     </g>
     <g id="line2d_12">
      <g>
       <use style="fill:#262626;stroke:#262626;" x="355.95" xlink:href="#m0d49f6e001" y="50.4"/>
      </g>
     </g>
     <g id="text_4">
      <!-- 5 -->
      <g style="fill:#262626;" transform="translate(353.16953125 455.1578125)scale(0.1 -0.1)">
       <use xlink:href="#ArialMT-35"/>
      </g>
     </g>
    </g>
    <g id="xtick_5">
     <g id="line2d_13">
      <path clip-path="url(#pdb858fed6c)" d="M 453.6 441 
L 453.6 50.4 
" style="fill:none;stroke:#ffffff;stroke-linecap:round;"/>
     </g>
     <g id="line2d_14">
      <g>
       <use style="fill:#262626;stroke:#262626;" x="453.6" xlink:href="#m0d49f6e001" y="441.0"/>
      </g>
     </g>
     <g id="line2d_15">
      <g>
       <use style="fill:#262626;stroke:#262626;" x="453.6" xlink:href="#m0d49f6e001" y="50.4"/>
      </g>
     </g>
     <g id="text_5">
      <!-- 10 -->
      <g style="fill:#262626;" transform="translate(448.0390625 455.1578125)scale(0.1 -0.1)">
       <use xlink:href="#ArialMT-31"/>
       <use x="55.615234375" xlink:href="#ArialMT-30"/>
      </g>
     </g>
    </g>
    <g id="text_6">
     <!-- $\log_2 \left( \frac{[S]}{K_S} \right)$ -->
     <defs>
      <path d="M 2.203125 -25 
L 2.203125 -21 
L 11.921875 -21 
L 11.921875 71 
L 2.203125 71 
L 2.203125 75 
L 15.921875 75 
L 15.921875 -25 
z
" id="Cmr10-5d"/>
      <path d="M 4.984375 0 
L 4.984375 2.6875 
Q 4.984375 2.9375 5.171875 3.21875 
L 20.703125 20.40625 
Q 24.21875 24.21875 26.40625 26.796875 
Q 28.609375 29.390625 30.75 32.765625 
Q 32.90625 36.140625 34.15625 39.625 
Q 35.40625 43.109375 35.40625 47.015625 
Q 35.40625 51.125 33.890625 54.859375 
Q 32.375 58.59375 29.375 60.84375 
Q 26.375 63.09375 22.125 63.09375 
Q 17.78125 63.09375 14.3125 60.46875 
Q 10.84375 57.859375 9.421875 53.71875 
Q 9.8125 53.8125 10.5 53.8125 
Q 12.75 53.8125 14.328125 52.296875 
Q 15.921875 50.78125 15.921875 48.390625 
Q 15.921875 46.09375 14.328125 44.5 
Q 12.75 42.921875 10.5 42.921875 
Q 8.15625 42.921875 6.5625 44.546875 
Q 4.984375 46.1875 4.984375 48.390625 
Q 4.984375 52.15625 6.390625 55.4375 
Q 7.8125 58.734375 10.46875 61.296875 
Q 13.140625 63.875 16.484375 65.234375 
Q 19.828125 66.609375 23.578125 66.609375 
Q 29.296875 66.609375 34.21875 64.1875 
Q 39.15625 61.765625 42.03125 57.34375 
Q 44.921875 52.9375 44.921875 47.015625 
Q 44.921875 42.671875 43.015625 38.765625 
Q 41.109375 34.859375 38.125 31.65625 
Q 35.15625 28.46875 30.515625 24.40625 
Q 25.875 20.359375 24.421875 19 
L 13.09375 8.109375 
L 22.703125 8.109375 
Q 29.78125 8.109375 34.546875 8.21875 
Q 39.3125 8.34375 39.59375 8.59375 
Q 40.765625 9.859375 42 17.828125 
L 44.921875 17.828125 
L 42.09375 0 
z
" id="Cmr10-32"/>
      <path d="M 4.6875 0 
Q 3.71875 0 3.71875 1.3125 
Q 3.765625 1.5625 3.90625 2.171875 
Q 4.046875 2.78125 4.3125 3.140625 
Q 4.59375 3.515625 4.984375 3.515625 
Q 11.078125 3.515625 13.484375 4.203125 
Q 14.796875 4.640625 15.375 6.890625 
L 29.109375 61.8125 
Q 29.296875 62.796875 29.296875 63.1875 
Q 29.296875 64.265625 28.078125 64.40625 
Q 26.21875 64.796875 20.90625 64.796875 
Q 19.921875 64.796875 19.921875 66.109375 
Q 20.265625 67.390625 20.453125 67.84375 
Q 20.65625 68.3125 21.578125 68.3125 
L 48.484375 68.3125 
Q 49.515625 68.3125 49.515625 67 
Q 49.46875 66.75 49.3125 66.15625 
Q 49.171875 65.578125 48.921875 65.1875 
Q 48.6875 64.796875 48.1875 64.796875 
Q 42.09375 64.796875 39.703125 64.109375 
Q 38.375 63.625 37.796875 61.375 
L 29.6875 29 
L 68.890625 59.28125 
Q 69 59.46875 70.140625 60.609375 
Q 71.296875 61.765625 71.296875 62.890625 
Q 71.296875 64.796875 67.921875 64.796875 
Q 66.890625 64.796875 66.890625 66.109375 
Q 67.09375 66.890625 67.203125 67.328125 
Q 67.328125 67.78125 67.640625 68.046875 
Q 67.96875 68.3125 68.609375 68.3125 
L 87.984375 68.3125 
Q 88.53125 68.3125 88.765625 67.921875 
Q 89.015625 67.53125 89.015625 67 
Q 88.96875 66.75 88.796875 66.109375 
Q 88.625 65.484375 88.359375 65.140625 
Q 88.09375 64.796875 87.59375 64.796875 
Q 80.28125 64.796875 71.578125 58.015625 
Q 71.53125 57.953125 71.4375 57.921875 
Q 71.34375 57.90625 71.234375 57.875 
Q 71.140625 57.859375 71.09375 57.8125 
L 50.484375 41.796875 
L 65.484375 6.6875 
Q 66.84375 4.5 68.40625 4 
Q 69.96875 3.515625 73.1875 3.515625 
Q 74.21875 3.515625 74.21875 2.203125 
Q 73.921875 1.03125 73.625 0.515625 
Q 73.34375 0 72.515625 0 
L 49.3125 0 
Q 48.390625 0 48.390625 1.3125 
Q 48.53125 2.34375 48.71875 2.921875 
Q 48.921875 3.515625 49.703125 3.515625 
Q 52.25 3.515625 54.03125 4.03125 
Q 55.8125 4.546875 55.8125 6.390625 
Q 55.8125 7.078125 55.71875 7.421875 
L 43.3125 36.28125 
L 28.71875 25 
L 24.125 6.5 
Q 23.875 5.28125 23.875 5.078125 
Q 23.875 4.046875 25.09375 3.90625 
Q 27 3.515625 32.328125 3.515625 
Q 33.296875 3.515625 33.296875 2.203125 
Q 32.953125 0.78125 32.75 0.390625 
Q 32.5625 0 31.59375 0 
z
" id="Cmmi10-4b"/>
      <path d="M 11.8125 -25 
L 11.8125 75 
L 25.484375 75 
L 25.484375 71 
L 15.828125 71 
L 15.828125 -21 
L 25.484375 -21 
L 25.484375 -25 
z
" id="Cmr10-5b"/>
      <path d="M 25 -1.125 
Q 19 -1.125 13.859375 1.921875 
Q 8.734375 4.984375 5.75 10.109375 
Q 2.78125 15.234375 2.78125 21.296875 
Q 2.78125 25.875 4.421875 30.125 
Q 6.0625 34.375 9.109375 37.71875 
Q 12.15625 41.0625 16.203125 42.9375 
Q 20.265625 44.828125 25 44.828125 
Q 31.15625 44.828125 36.203125 41.578125 
Q 41.265625 38.328125 44.1875 32.875 
Q 47.125 27.4375 47.125 21.296875 
Q 47.125 15.28125 44.140625 10.125 
Q 41.15625 4.984375 36.046875 1.921875 
Q 30.953125 -1.125 25 -1.125 
M 25 1.8125 
Q 33.015625 1.8125 35.6875 7.609375 
Q 38.375 13.421875 38.375 22.40625 
Q 38.375 27.4375 37.84375 30.734375 
Q 37.3125 34.03125 35.5 36.71875 
Q 34.375 38.375 32.640625 39.625 
Q 30.90625 40.875 28.96875 41.53125 
Q 27.046875 42.1875 25 42.1875 
Q 21.875 42.1875 19.0625 40.765625 
Q 16.265625 39.359375 14.40625 36.71875 
Q 12.546875 33.890625 12.03125 30.484375 
Q 11.53125 27.09375 11.53125 22.40625 
Q 11.53125 16.796875 12.5 12.328125 
Q 13.484375 7.859375 16.4375 4.828125 
Q 19.390625 1.8125 25 1.8125 
" id="Cmr10-6f"/>
      <path d="M 6.109375 -2.203125 
Q 5.8125 -2.203125 5.5625 -1.859375 
Q 5.328125 -1.515625 5.328125 -1.21875 
L 11.078125 22.125 
Q 11.28125 22.703125 11.921875 22.703125 
L 13.09375 22.703125 
Q 13.484375 22.703125 13.703125 22.40625 
Q 13.921875 22.125 13.921875 21.6875 
Q 13.09375 18.265625 13.09375 15.578125 
Q 13.09375 8.34375 18.0625 4.828125 
Q 23.046875 1.3125 30.609375 1.3125 
Q 33.890625 1.3125 37.0625 2.921875 
Q 40.234375 4.546875 42.59375 7.125 
Q 44.96875 9.71875 46.375 12.90625 
Q 47.796875 16.109375 47.796875 19.390625 
Q 47.796875 22.90625 45.9375 25.65625 
Q 44.09375 28.421875 40.828125 29.203125 
L 28.609375 32.421875 
Q 23.6875 33.734375 20.75 37.71875 
Q 17.828125 41.703125 17.828125 46.6875 
Q 17.828125 52.6875 21.390625 58.25 
Q 24.953125 63.8125 30.6875 67.15625 
Q 36.421875 70.515625 42.390625 70.515625 
Q 46.96875 70.515625 50.796875 68.828125 
Q 54.640625 67.140625 56.6875 63.484375 
L 62.40625 70.21875 
Q 62.984375 70.515625 63.09375 70.515625 
L 63.71875 70.515625 
Q 64.109375 70.515625 64.34375 70.171875 
Q 64.59375 69.828125 64.59375 69.484375 
L 58.796875 46.296875 
Q 58.640625 45.609375 58.015625 45.609375 
L 56.78125 45.609375 
Q 55.90625 45.609375 55.90625 46.6875 
Q 56.390625 49.859375 56.390625 52.203125 
Q 56.390625 56.84375 54.796875 60.28125 
Q 53.21875 63.71875 50.015625 65.5 
Q 46.828125 67.28125 42.09375 67.28125 
Q 38.09375 67.28125 34.125 64.984375 
Q 30.171875 62.703125 27.734375 58.890625 
Q 25.296875 55.078125 25.296875 50.984375 
Q 25.296875 47.75 27.171875 45.265625 
Q 29.046875 42.78125 32.171875 41.890625 
L 44.390625 38.71875 
Q 47.703125 37.84375 50.171875 35.625 
Q 52.640625 33.40625 53.90625 30.34375 
Q 55.171875 27.296875 55.171875 23.6875 
Q 55.171875 18.953125 53.171875 14.328125 
Q 51.171875 9.71875 47.578125 5.90625 
Q 44 2.09375 39.453125 -0.046875 
Q 34.90625 -2.203125 30.171875 -2.203125 
Q 18.265625 -2.203125 13.09375 4.78125 
L 7.515625 -1.90625 
Q 6.9375 -2.203125 6.78125 -2.203125 
z
" id="Cmmi10-53"/>
      <path d="M 3.078125 0 
L 3.078125 3.515625 
Q 6.5 3.515625 8.6875 4.046875 
Q 10.890625 4.59375 10.890625 6.6875 
L 10.890625 59.1875 
Q 10.890625 61.859375 10.078125 63.0625 
Q 9.28125 64.265625 7.765625 64.53125 
Q 6.25 64.796875 3.078125 64.796875 
L 3.078125 68.3125 
L 17.921875 69.390625 
L 17.921875 6.6875 
Q 17.921875 4.59375 20.109375 4.046875 
Q 22.3125 3.515625 25.6875 3.515625 
L 25.6875 0 
z
" id="Cmr10-6c"/>
      <path d="M 4.390625 -175.875 
Q 3.515625 -175.875 3.515625 -175 
Q 3.515625 -174.609375 3.71875 -174.421875 
Q 12.203125 -165.921875 18.0625 -155.546875 
Q 23.921875 -145.171875 27.296875 -133.84375 
Q 30.671875 -122.515625 32.125 -110.546875 
Q 33.59375 -98.578125 33.59375 -85.890625 
Q 33.59375 -72.90625 32.09375 -61.03125 
Q 30.609375 -49.171875 27.234375 -37.890625 
Q 23.875 -26.609375 18.03125 -16.234375 
Q 12.203125 -5.859375 3.71875 2.484375 
Q 3.515625 2.6875 3.515625 3.078125 
Q 3.515625 4 4.390625 4 
L 6.6875 4 
Q 6.984375 4 7.171875 3.8125 
Q 16.40625 -4.15625 23.09375 -14.578125 
Q 29.78125 -25 33.859375 -36.6875 
Q 37.9375 -48.390625 39.765625 -60.734375 
Q 41.609375 -73.09375 41.609375 -85.984375 
Q 41.609375 -98.828125 39.765625 -111.15625 
Q 37.9375 -123.484375 33.859375 -135.203125 
Q 29.78125 -146.921875 23.09375 -157.3125 
Q 16.40625 -167.71875 7.171875 -175.6875 
Q 6.984375 -175.875 6.6875 -175.875 
z
" id="Cmex10-b4"/>
      <path d="M 2.78125 -7.8125 
Q 2.78125 -4.25 5.359375 -1.578125 
Q 7.953125 1.078125 11.53125 2.203125 
Q 9.515625 3.71875 8.46875 6 
Q 7.421875 8.296875 7.421875 10.890625 
Q 7.421875 15.578125 10.40625 19.1875 
Q 5.8125 23.6875 5.8125 29.5 
Q 5.8125 32.625 7.15625 35.359375 
Q 8.5 38.09375 10.890625 40.09375 
Q 13.28125 42.09375 16.203125 43.140625 
Q 19.140625 44.1875 22.21875 44.1875 
Q 28.171875 44.1875 32.90625 40.71875 
Q 34.96875 42.921875 37.765625 44.109375 
Q 40.578125 45.3125 43.609375 45.3125 
Q 45.75 45.3125 47.109375 43.765625 
Q 48.484375 42.234375 48.484375 40.09375 
Q 48.484375 38.875 47.546875 37.9375 
Q 46.625 37.015625 45.40625 37.015625 
Q 44.140625 37.015625 43.203125 37.9375 
Q 42.28125 38.875 42.28125 40.09375 
Q 42.28125 41.9375 43.5 42.671875 
Q 38.328125 42.671875 34.625 39.109375 
Q 36.421875 37.3125 37.515625 34.6875 
Q 38.625 32.078125 38.625 29.5 
Q 38.625 25.25 36.28125 21.84375 
Q 33.9375 18.453125 30.09375 16.578125 
Q 26.265625 14.703125 22.21875 14.703125 
Q 16.75 14.703125 12.203125 17.671875 
Q 10.796875 15.71875 10.796875 13.28125 
Q 10.796875 10.640625 12.53125 8.65625 
Q 14.265625 6.6875 16.890625 6.6875 
L 25.09375 6.6875 
Q 31.0625 6.6875 35.84375 5.609375 
Q 40.625 4.546875 43.875 1.3125 
Q 47.125 -1.90625 47.125 -7.8125 
Q 47.125 -12.203125 43.40625 -15.109375 
Q 39.703125 -18.015625 34.546875 -19.3125 
Q 29.390625 -20.609375 25 -20.609375 
Q 20.5625 -20.609375 15.375 -19.3125 
Q 10.203125 -18.015625 6.484375 -15.109375 
Q 2.78125 -12.203125 2.78125 -7.8125 
M 8.40625 -7.8125 
Q 8.40625 -11.1875 11.140625 -13.453125 
Q 13.875 -15.71875 17.71875 -16.8125 
Q 21.578125 -17.921875 25 -17.921875 
Q 28.375 -17.921875 32.21875 -16.8125 
Q 36.078125 -15.71875 38.78125 -13.453125 
Q 41.5 -11.1875 41.5 -7.8125 
Q 41.5 -2.59375 36.71875 -1.046875 
Q 31.9375 0.484375 25.09375 0.484375 
L 16.890625 0.484375 
Q 14.59375 0.484375 12.671875 -0.609375 
Q 10.75 -1.703125 9.578125 -3.6875 
Q 8.40625 -5.671875 8.40625 -7.8125 
M 22.21875 17.390625 
Q 30.71875 17.390625 30.71875 29.5 
Q 30.71875 34.71875 28.90625 38.109375 
Q 27.09375 41.5 22.21875 41.5 
Q 17.328125 41.5 15.515625 38.109375 
Q 13.71875 34.71875 13.71875 29.5 
Q 13.71875 26.171875 14.40625 23.484375 
Q 15.09375 20.796875 16.9375 19.09375 
Q 18.796875 17.390625 22.21875 17.390625 
" id="Cmr10-67"/>
      <path d="M 52.484375 -175.6875 
Q 43.171875 -167.578125 36.546875 -157.265625 
Q 29.9375 -146.96875 25.859375 -135.25 
Q 21.78125 -123.53125 19.890625 -111.171875 
Q 18.015625 -98.828125 18.015625 -85.984375 
Q 18.015625 -73.09375 19.890625 -60.71875 
Q 21.78125 -48.34375 25.859375 -36.625 
Q 29.9375 -24.90625 36.546875 -14.59375 
Q 43.171875 -4.296875 52.484375 3.8125 
Q 52.484375 4 52.984375 4 
L 55.328125 4 
Q 55.609375 4 55.859375 3.6875 
Q 56.109375 3.375 56.109375 3.078125 
Q 56.109375 2.6875 55.90625 2.484375 
Q 47.359375 -6.0625 41.59375 -16.265625 
Q 35.84375 -26.46875 32.375 -38.109375 
Q 28.90625 -49.75 27.4375 -61.6875 
Q 25.984375 -73.640625 25.984375 -86.078125 
Q 25.984375 -98.484375 27.4375 -110.46875 
Q 28.90625 -122.46875 32.375 -133.984375 
Q 35.84375 -145.515625 41.671875 -155.765625 
Q 47.515625 -166.015625 55.90625 -174.421875 
Q 56.109375 -174.609375 56.109375 -175 
Q 56.109375 -175.25 55.828125 -175.5625 
Q 55.5625 -175.875 55.328125 -175.875 
L 52.984375 -175.875 
Q 52.484375 -175.875 52.484375 -175.6875 
" id="Cmex10-b3"/>
     </defs>
     <g style="fill:#262626;" transform="translate(236.96 474.0253125)scale(0.11 -0.11)">
      <use transform="translate(0.0 0.5)" xlink:href="#Cmr10-6c"/>
      <use transform="translate(27.685546875 0.5)" xlink:href="#Cmr10-6f"/>
      <use transform="translate(77.685546875 0.5)" xlink:href="#Cmr10-67"/>
      <use transform="translate(132.1496875 -16.50625)scale(0.7)" xlink:href="#Cmr10-32"/>
      <use transform="translate(173.52703125 104.36921875)scale(0.900918172342)" xlink:href="#Cmex10-b3"/>
      <use transform="translate(233.318794556 55.5)scale(0.7)" xlink:href="#Cmr10-5b"/>
      <use transform="translate(252.698677368 55.5)scale(0.7)" xlink:href="#Cmmi10-53"/>
      <use transform="translate(295.594185181 55.5)scale(0.7)" xlink:href="#Cmr10-5d"/>
      <use transform="translate(227.318794556 -41.06875)scale(0.7)" xlink:href="#Cmmi10-4b"/>
      <use transform="translate(286.757271118 -52.973125)scale(0.49)" xlink:href="#Cmmi10-53"/>
      <use transform="translate(333.748267212 104.36921875)scale(0.900918172342)" xlink:href="#Cmex10-b4"/>
      <path d="M 227.318795 13 
L 227.318795 19.25 
L 321.248267 19.25 
L 321.248267 13 
L 227.318795 13 
z
"/>
     </g>
    </g>
   </g>
   <g id="matplotlib.axis_2">
    <g id="ytick_1">
     <g id="line2d_16">
      <path clip-path="url(#pdb858fed6c)" d="M 63 441 
L 453.6 441 
" style="fill:none;stroke:#ffffff;stroke-linecap:round;"/>
     </g>
     <g id="line2d_17">
      <g>
       <use style="fill:#262626;stroke:#262626;" x="63.0" xlink:href="#m0d49f6e001" y="441.0"/>
      </g>
     </g>
     <g id="line2d_18">
      <g>
       <use style="fill:#262626;stroke:#262626;" x="453.6" xlink:href="#m0d49f6e001" y="441.0"/>
      </g>
     </g>
     <g id="text_7">
      <!-- 0.0 -->
      <defs>
       <path d="M 9.078125 0 
L 9.078125 10.015625 
L 19.09375 10.015625 
L 19.09375 0 
z
" id="ArialMT-2e"/>
      </defs>
      <g style="fill:#262626;" transform="translate(42.1 443.58515625)scale(0.1 -0.1)">
       <use xlink:href="#ArialMT-30"/>
       <use x="55.615234375" xlink:href="#ArialMT-2e"/>
       <use x="83.3984375" xlink:href="#ArialMT-30"/>
      </g>
     </g>
    </g>
    <g id="ytick_2">
     <g id="line2d_19">
      <path clip-path="url(#pdb858fed6c)" d="M 63 362.88 
L 453.6 362.88 
" style="fill:none;stroke:#ffffff;stroke-linecap:round;"/>
     </g>
     <g id="line2d_20">
      <g>
       <use style="fill:#262626;stroke:#262626;" x="63.0" xlink:href="#m0d49f6e001" y="362.88"/>
      </g>
     </g>
     <g id="line2d_21">
      <g>
       <use style="fill:#262626;stroke:#262626;" x="453.6" xlink:href="#m0d49f6e001" y="362.88"/>
      </g>
     </g>
     <g id="text_8">
      <!-- 0.2 -->
      <defs>
       <path d="M 50.34375 8.453125 
L 50.34375 0 
L 3.03125 0 
Q 2.9375 3.171875 4.046875 6.109375 
Q 5.859375 10.9375 9.828125 15.625 
Q 13.8125 20.3125 21.34375 26.46875 
Q 33.015625 36.03125 37.109375 41.625 
Q 41.21875 47.21875 41.21875 52.203125 
Q 41.21875 57.421875 37.46875 61 
Q 33.734375 64.59375 27.734375 64.59375 
Q 21.390625 64.59375 17.578125 60.78125 
Q 13.765625 56.984375 13.71875 50.25 
L 4.6875 51.171875 
Q 5.609375 61.28125 11.65625 66.578125 
Q 17.71875 71.875 27.9375 71.875 
Q 38.234375 71.875 44.234375 66.15625 
Q 50.25 60.453125 50.25 52 
Q 50.25 47.703125 48.484375 43.546875 
Q 46.734375 39.40625 42.65625 34.8125 
Q 38.578125 30.21875 29.109375 22.21875 
Q 21.1875 15.578125 18.9375 13.203125 
Q 16.703125 10.84375 15.234375 8.453125 
z
" id="ArialMT-32"/>
      </defs>
      <g style="fill:#262626;" transform="translate(42.1 365.46515625)scale(0.1 -0.1)">
       <use xlink:href="#ArialMT-30"/>
       <use x="55.615234375" xlink:href="#ArialMT-2e"/>
       <use x="83.3984375" xlink:href="#ArialMT-32"/>
      </g>
     </g>
    </g>
    <g id="ytick_3">
     <g id="line2d_22">
      <path clip-path="url(#pdb858fed6c)" d="M 63 284.76 
L 453.6 284.76 
" style="fill:none;stroke:#ffffff;stroke-linecap:round;"/>
     </g>
     <g id="line2d_23">
      <g>
       <use style="fill:#262626;stroke:#262626;" x="63.0" xlink:href="#m0d49f6e001" y="284.76"/>
      </g>
     </g>
     <g id="line2d_24">
      <g>
       <use style="fill:#262626;stroke:#262626;" x="453.6" xlink:href="#m0d49f6e001" y="284.76"/>
      </g>
     </g>
     <g id="text_9">
      <!-- 0.4 -->
      <defs>
       <path d="M 32.328125 0 
L 32.328125 17.140625 
L 1.265625 17.140625 
L 1.265625 25.203125 
L 33.9375 71.578125 
L 41.109375 71.578125 
L 41.109375 25.203125 
L 50.78125 25.203125 
L 50.78125 17.140625 
L 41.109375 17.140625 
L 41.109375 0 
z
M 32.328125 25.203125 
L 32.328125 57.46875 
L 9.90625 25.203125 
z
" id="ArialMT-34"/>
      </defs>
      <g style="fill:#262626;" transform="translate(42.1 287.34515625)scale(0.1 -0.1)">
       <use xlink:href="#ArialMT-30"/>
       <use x="55.615234375" xlink:href="#ArialMT-2e"/>
       <use x="83.3984375" xlink:href="#ArialMT-34"/>
      </g>
     </g>
    </g>
    <g id="ytick_4">
     <g id="line2d_25">
      <path clip-path="url(#pdb858fed6c)" d="M 63 206.64 
L 453.6 206.64 
" style="fill:none;stroke:#ffffff;stroke-linecap:round;"/>
     </g>
     <g id="line2d_26">
      <g>
       <use style="fill:#262626;stroke:#262626;" x="63.0" xlink:href="#m0d49f6e001" y="206.64"/>
      </g>
     </g>
     <g id="line2d_27">
      <g>
       <use style="fill:#262626;stroke:#262626;" x="453.6" xlink:href="#m0d49f6e001" y="206.64"/>
      </g>
     </g>
     <g id="text_10">
      <!-- 0.6 -->
      <defs>
       <path d="M 49.75 54.046875 
L 41.015625 53.375 
Q 39.84375 58.546875 37.703125 60.890625 
Q 34.125 64.65625 28.90625 64.65625 
Q 24.703125 64.65625 21.53125 62.3125 
Q 17.390625 59.28125 14.984375 53.46875 
Q 12.59375 47.65625 12.5 36.921875 
Q 15.671875 41.75 20.265625 44.09375 
Q 24.859375 46.4375 29.890625 46.4375 
Q 38.671875 46.4375 44.84375 39.96875 
Q 51.03125 33.5 51.03125 23.25 
Q 51.03125 16.5 48.125 10.71875 
Q 45.21875 4.9375 40.140625 1.859375 
Q 35.0625 -1.21875 28.609375 -1.21875 
Q 17.625 -1.21875 10.6875 6.859375 
Q 3.765625 14.9375 3.765625 33.5 
Q 3.765625 54.25 11.421875 63.671875 
Q 18.109375 71.875 29.4375 71.875 
Q 37.890625 71.875 43.28125 67.140625 
Q 48.6875 62.40625 49.75 54.046875 
M 13.875 23.1875 
Q 13.875 18.65625 15.796875 14.5 
Q 17.71875 10.359375 21.1875 8.171875 
Q 24.65625 6 28.46875 6 
Q 34.03125 6 38.03125 10.484375 
Q 42.046875 14.984375 42.046875 22.703125 
Q 42.046875 30.125 38.078125 34.390625 
Q 34.125 38.671875 28.125 38.671875 
Q 22.171875 38.671875 18.015625 34.390625 
Q 13.875 30.125 13.875 23.1875 
" id="ArialMT-36"/>
      </defs>
      <g style="fill:#262626;" transform="translate(42.1 209.22515625)scale(0.1 -0.1)">
       <use xlink:href="#ArialMT-30"/>
       <use x="55.615234375" xlink:href="#ArialMT-2e"/>
       <use x="83.3984375" xlink:href="#ArialMT-36"/>
      </g>
     </g>
    </g>
    <g id="ytick_5">
     <g id="line2d_28">
      <path clip-path="url(#pdb858fed6c)" d="M 63 128.52 
L 453.6 128.52 
" style="fill:none;stroke:#ffffff;stroke-linecap:round;"/>
     </g>
     <g id="line2d_29">
      <g>
       <use style="fill:#262626;stroke:#262626;" x="63.0" xlink:href="#m0d49f6e001" y="128.52"/>
      </g>
     </g>
     <g id="line2d_30">
      <g>
       <use style="fill:#262626;stroke:#262626;" x="453.6" xlink:href="#m0d49f6e001" y="128.52"/>
      </g>
     </g>
     <g id="text_11">
      <!-- 0.8 -->
      <defs>
       <path d="M 17.671875 38.8125 
Q 12.203125 40.828125 9.5625 44.53125 
Q 6.9375 48.25 6.9375 53.421875 
Q 6.9375 61.234375 12.546875 66.546875 
Q 18.171875 71.875 27.484375 71.875 
Q 36.859375 71.875 42.578125 66.421875 
Q 48.296875 60.984375 48.296875 53.171875 
Q 48.296875 48.1875 45.671875 44.5 
Q 43.0625 40.828125 37.75 38.8125 
Q 44.34375 36.671875 47.78125 31.875 
Q 51.21875 27.09375 51.21875 20.453125 
Q 51.21875 11.28125 44.71875 5.03125 
Q 38.234375 -1.21875 27.640625 -1.21875 
Q 17.046875 -1.21875 10.546875 5.046875 
Q 4.046875 11.328125 4.046875 20.703125 
Q 4.046875 27.6875 7.59375 32.390625 
Q 11.140625 37.109375 17.671875 38.8125 
M 15.921875 53.71875 
Q 15.921875 48.640625 19.1875 45.40625 
Q 22.46875 42.1875 27.6875 42.1875 
Q 32.765625 42.1875 36.015625 45.375 
Q 39.265625 48.578125 39.265625 53.21875 
Q 39.265625 58.0625 35.90625 61.359375 
Q 32.5625 64.65625 27.59375 64.65625 
Q 22.5625 64.65625 19.234375 61.421875 
Q 15.921875 58.203125 15.921875 53.71875 
M 13.09375 20.65625 
Q 13.09375 16.890625 14.875 13.375 
Q 16.65625 9.859375 20.171875 7.921875 
Q 23.6875 6 27.734375 6 
Q 34.03125 6 38.125 10.046875 
Q 42.234375 14.109375 42.234375 20.359375 
Q 42.234375 26.703125 38.015625 30.859375 
Q 33.796875 35.015625 27.4375 35.015625 
Q 21.234375 35.015625 17.15625 30.90625 
Q 13.09375 26.8125 13.09375 20.65625 
" id="ArialMT-38"/>
      </defs>
      <g style="fill:#262626;" transform="translate(42.1 131.10515625)scale(0.1 -0.1)">
       <use xlink:href="#ArialMT-30"/>
       <use x="55.615234375" xlink:href="#ArialMT-2e"/>
       <use x="83.3984375" xlink:href="#ArialMT-38"/>
      </g>
     </g>
    </g>
    <g id="ytick_6">
     <g id="line2d_31">
      <path clip-path="url(#pdb858fed6c)" d="M 63 50.4 
L 453.6 50.4 
" style="fill:none;stroke:#ffffff;stroke-linecap:round;"/>
     </g>
     <g id="line2d_32">
      <g>
       <use style="fill:#262626;stroke:#262626;" x="63.0" xlink:href="#m0d49f6e001" y="50.4"/>
      </g>
     </g>
     <g id="line2d_33">
      <g>
       <use style="fill:#262626;stroke:#262626;" x="453.6" xlink:href="#m0d49f6e001" y="50.4"/>
      </g>
     </g>
     <g id="text_12">
      <!-- 1.0 -->
      <g style="fill:#262626;" transform="translate(42.1 52.98515625)scale(0.1 -0.1)">
       <use xlink:href="#ArialMT-31"/>
       <use x="55.615234375" xlink:href="#ArialMT-2e"/>
       <use x="83.3984375" xlink:href="#ArialMT-30"/>
      </g>
     </g>
    </g>
    <g id="text_13">
     <!-- Cumulative distribution -->
     <defs>
      <path d="M 14.703125 0 
L 6.546875 0 
L 6.546875 71.578125 
L 15.328125 71.578125 
L 15.328125 46.046875 
Q 20.90625 53.03125 29.546875 53.03125 
Q 34.328125 53.03125 38.59375 51.09375 
Q 42.875 49.171875 45.625 45.671875 
Q 48.390625 42.1875 49.953125 37.25 
Q 51.515625 32.328125 51.515625 26.703125 
Q 51.515625 13.375 44.921875 6.09375 
Q 38.328125 -1.171875 29.109375 -1.171875 
Q 19.921875 -1.171875 14.703125 6.5 
z
M 14.59375 26.3125 
Q 14.59375 17 17.140625 12.84375 
Q 21.296875 6.0625 28.375 6.0625 
Q 34.125 6.0625 38.328125 11.0625 
Q 42.53125 16.0625 42.53125 25.984375 
Q 42.53125 36.140625 38.5 40.96875 
Q 34.46875 45.796875 28.765625 45.796875 
Q 23 45.796875 18.796875 40.796875 
Q 14.59375 35.796875 14.59375 26.3125 
" id="ArialMT-62"/>
      <path d="M 40.4375 6.390625 
Q 35.546875 2.25 31.03125 0.53125 
Q 26.515625 -1.171875 21.34375 -1.171875 
Q 12.796875 -1.171875 8.203125 3 
Q 3.609375 7.171875 3.609375 13.671875 
Q 3.609375 17.484375 5.34375 20.625 
Q 7.078125 23.78125 9.890625 25.6875 
Q 12.703125 27.59375 16.21875 28.5625 
Q 18.796875 29.25 24.03125 29.890625 
Q 34.671875 31.15625 39.703125 32.90625 
Q 39.75 34.71875 39.75 35.203125 
Q 39.75 40.578125 37.25 42.78125 
Q 33.890625 45.75 27.25 45.75 
Q 21.046875 45.75 18.09375 43.578125 
Q 15.140625 41.40625 13.71875 35.890625 
L 5.125 37.0625 
Q 6.296875 42.578125 8.984375 45.96875 
Q 11.671875 49.359375 16.75 51.1875 
Q 21.828125 53.03125 28.515625 53.03125 
Q 35.15625 53.03125 39.296875 51.46875 
Q 43.453125 49.90625 45.40625 47.53125 
Q 47.359375 45.171875 48.140625 41.546875 
Q 48.578125 39.3125 48.578125 33.453125 
L 48.578125 21.734375 
Q 48.578125 9.46875 49.140625 6.21875 
Q 49.703125 2.984375 51.375 0 
L 42.1875 0 
Q 40.828125 2.734375 40.4375 6.390625 
M 39.703125 26.03125 
Q 34.90625 24.078125 25.34375 22.703125 
Q 19.921875 21.921875 17.671875 20.9375 
Q 15.4375 19.96875 14.203125 18.09375 
Q 12.984375 16.21875 12.984375 13.921875 
Q 12.984375 10.40625 15.640625 8.0625 
Q 18.3125 5.71875 23.4375 5.71875 
Q 28.515625 5.71875 32.46875 7.9375 
Q 36.421875 10.15625 38.28125 14.015625 
Q 39.703125 17 39.703125 22.796875 
z
" id="ArialMT-61"/>
      <path d="M 21 0 
L 1.265625 51.859375 
L 10.546875 51.859375 
L 21.6875 20.796875 
Q 23.484375 15.765625 25 10.359375 
Q 26.171875 14.453125 28.265625 20.21875 
L 39.796875 51.859375 
L 48.828125 51.859375 
L 29.203125 0 
z
" id="ArialMT-76"/>
      <path d="M 42.09375 16.703125 
L 51.171875 15.578125 
Q 49.03125 7.625 43.21875 3.21875 
Q 37.40625 -1.171875 28.375 -1.171875 
Q 17 -1.171875 10.328125 5.828125 
Q 3.65625 12.84375 3.65625 25.484375 
Q 3.65625 38.578125 10.390625 45.796875 
Q 17.140625 53.03125 27.875 53.03125 
Q 38.28125 53.03125 44.875 45.953125 
Q 51.46875 38.875 51.46875 26.03125 
Q 51.46875 25.25 51.421875 23.6875 
L 12.75 23.6875 
Q 13.234375 15.140625 17.578125 10.59375 
Q 21.921875 6.0625 28.421875 6.0625 
Q 33.25 6.0625 36.671875 8.59375 
Q 40.09375 11.140625 42.09375 16.703125 
M 13.234375 30.90625 
L 42.1875 30.90625 
Q 41.609375 37.453125 38.875 40.71875 
Q 34.671875 45.796875 27.984375 45.796875 
Q 21.921875 45.796875 17.796875 41.75 
Q 13.671875 37.703125 13.234375 30.90625 
" id="ArialMT-65"/>
      <path d="M 40.234375 0 
L 40.234375 6.546875 
Q 35.296875 -1.171875 25.734375 -1.171875 
Q 19.53125 -1.171875 14.328125 2.25 
Q 9.125 5.671875 6.265625 11.796875 
Q 3.421875 17.921875 3.421875 25.875 
Q 3.421875 33.640625 6 39.96875 
Q 8.59375 46.296875 13.765625 49.65625 
Q 18.953125 53.03125 25.34375 53.03125 
Q 30.03125 53.03125 33.6875 51.046875 
Q 37.359375 49.078125 39.65625 45.90625 
L 39.65625 71.578125 
L 48.390625 71.578125 
L 48.390625 0 
z
M 12.453125 25.875 
Q 12.453125 15.921875 16.640625 10.984375 
Q 20.84375 6.0625 26.5625 6.0625 
Q 32.328125 6.0625 36.34375 10.765625 
Q 40.375 15.484375 40.375 25.140625 
Q 40.375 35.796875 36.265625 40.765625 
Q 32.171875 45.75 26.171875 45.75 
Q 20.3125 45.75 16.375 40.96875 
Q 12.453125 36.1875 12.453125 25.875 
" id="ArialMT-64"/>
      <path d="M 25.78125 7.859375 
L 27.046875 0.09375 
Q 23.34375 -0.6875 20.40625 -0.6875 
Q 15.625 -0.6875 12.984375 0.828125 
Q 10.359375 2.34375 9.28125 4.8125 
Q 8.203125 7.28125 8.203125 15.1875 
L 8.203125 45.015625 
L 1.765625 45.015625 
L 1.765625 51.859375 
L 8.203125 51.859375 
L 8.203125 64.703125 
L 16.9375 69.96875 
L 16.9375 51.859375 
L 25.78125 51.859375 
L 25.78125 45.015625 
L 16.9375 45.015625 
L 16.9375 14.703125 
Q 16.9375 10.9375 17.40625 9.859375 
Q 17.875 8.796875 18.921875 8.15625 
Q 19.96875 7.515625 21.921875 7.515625 
Q 23.390625 7.515625 25.78125 7.859375 
" id="ArialMT-74"/>
      <path d="M 40.578125 0 
L 40.578125 7.625 
Q 34.515625 -1.171875 24.125 -1.171875 
Q 19.53125 -1.171875 15.546875 0.578125 
Q 11.578125 2.34375 9.640625 5 
Q 7.71875 7.671875 6.9375 11.53125 
Q 6.390625 14.109375 6.390625 19.734375 
L 6.390625 51.859375 
L 15.1875 51.859375 
L 15.1875 23.09375 
Q 15.1875 16.21875 15.71875 13.8125 
Q 16.546875 10.359375 19.234375 8.375 
Q 21.921875 6.390625 25.875 6.390625 
Q 29.828125 6.390625 33.296875 8.421875 
Q 36.765625 10.453125 38.203125 13.9375 
Q 39.65625 17.4375 39.65625 24.078125 
L 39.65625 51.859375 
L 48.4375 51.859375 
L 48.4375 0 
z
" id="ArialMT-75"/>
      <path d="M 58.796875 25.09375 
L 68.265625 22.703125 
Q 65.28125 11.03125 57.546875 4.90625 
Q 49.8125 -1.21875 38.625 -1.21875 
Q 27.046875 -1.21875 19.796875 3.484375 
Q 12.546875 8.203125 8.765625 17.140625 
Q 4.984375 26.078125 4.984375 36.328125 
Q 4.984375 47.515625 9.25 55.828125 
Q 13.53125 64.15625 21.40625 68.46875 
Q 29.296875 72.796875 38.765625 72.796875 
Q 49.515625 72.796875 56.828125 67.328125 
Q 64.15625 61.859375 67.046875 51.953125 
L 57.71875 49.75 
Q 55.21875 57.5625 50.484375 61.125 
Q 45.75 64.703125 38.578125 64.703125 
Q 30.328125 64.703125 24.78125 60.734375 
Q 19.234375 56.78125 16.984375 50.109375 
Q 14.75 43.453125 14.75 36.375 
Q 14.75 27.25 17.40625 20.4375 
Q 20.0625 13.625 25.671875 10.25 
Q 31.296875 6.890625 37.84375 6.890625 
Q 45.796875 6.890625 51.3125 11.46875 
Q 56.84375 16.0625 58.796875 25.09375 
" id="ArialMT-43"/>
      <path d="M 6.5 0 
L 6.5 51.859375 
L 14.40625 51.859375 
L 14.40625 44 
Q 17.4375 49.515625 20 51.265625 
Q 22.5625 53.03125 25.640625 53.03125 
Q 30.078125 53.03125 34.671875 50.203125 
L 31.640625 42.046875 
Q 28.421875 43.953125 25.203125 43.953125 
Q 22.3125 43.953125 20.015625 42.21875 
Q 17.71875 40.484375 16.75 37.40625 
Q 15.28125 32.71875 15.28125 27.15625 
L 15.28125 0 
z
" id="ArialMT-72"/>
      <path d="M 3.078125 15.484375 
L 11.765625 16.84375 
Q 12.5 11.625 15.84375 8.84375 
Q 19.1875 6.0625 25.203125 6.0625 
Q 31.25 6.0625 34.171875 8.515625 
Q 37.109375 10.984375 37.109375 14.3125 
Q 37.109375 17.28125 34.515625 19 
Q 32.71875 20.171875 25.53125 21.96875 
Q 15.875 24.421875 12.140625 26.203125 
Q 8.40625 27.984375 6.46875 31.125 
Q 4.546875 34.28125 4.546875 38.09375 
Q 4.546875 41.546875 6.125 44.5 
Q 7.71875 47.46875 10.453125 49.421875 
Q 12.5 50.921875 16.03125 51.96875 
Q 19.578125 53.03125 23.640625 53.03125 
Q 29.734375 53.03125 34.34375 51.265625 
Q 38.96875 49.515625 41.15625 46.5 
Q 43.359375 43.5 44.1875 38.484375 
L 35.59375 37.3125 
Q 35.015625 41.3125 32.203125 43.546875 
Q 29.390625 45.796875 24.265625 45.796875 
Q 18.21875 45.796875 15.625 43.796875 
Q 13.03125 41.796875 13.03125 39.109375 
Q 13.03125 37.40625 14.109375 36.03125 
Q 15.1875 34.625 17.484375 33.6875 
Q 18.796875 33.203125 25.25 31.453125 
Q 34.578125 28.953125 38.25 27.359375 
Q 41.9375 25.78125 44.03125 22.75 
Q 46.140625 19.734375 46.140625 15.234375 
Q 46.140625 10.84375 43.578125 6.953125 
Q 41.015625 3.078125 36.171875 0.953125 
Q 31.34375 -1.171875 25.25 -1.171875 
Q 15.140625 -1.171875 9.84375 3.03125 
Q 4.546875 7.234375 3.078125 15.484375 
" id="ArialMT-73"/>
      <path d="M 6.390625 0 
L 6.390625 71.578125 
L 15.1875 71.578125 
L 15.1875 0 
z
" id="ArialMT-6c"/>
      <path d="M 3.328125 25.921875 
Q 3.328125 40.328125 11.328125 47.265625 
Q 18.015625 53.03125 27.640625 53.03125 
Q 38.328125 53.03125 45.109375 46.015625 
Q 51.90625 39.015625 51.90625 26.65625 
Q 51.90625 16.65625 48.90625 10.90625 
Q 45.90625 5.171875 40.15625 2 
Q 34.421875 -1.171875 27.640625 -1.171875 
Q 16.75 -1.171875 10.03125 5.8125 
Q 3.328125 12.796875 3.328125 25.921875 
M 12.359375 25.921875 
Q 12.359375 15.96875 16.703125 11.015625 
Q 21.046875 6.0625 27.640625 6.0625 
Q 34.1875 6.0625 38.53125 11.03125 
Q 42.875 16.015625 42.875 26.21875 
Q 42.875 35.84375 38.5 40.796875 
Q 34.125 45.75 27.640625 45.75 
Q 21.046875 45.75 16.703125 40.8125 
Q 12.359375 35.890625 12.359375 25.921875 
" id="ArialMT-6f"/>
      <path d="M 6.59375 0 
L 6.59375 51.859375 
L 14.5 51.859375 
L 14.5 44.484375 
Q 20.21875 53.03125 31 53.03125 
Q 35.6875 53.03125 39.625 51.34375 
Q 43.5625 49.65625 45.515625 46.921875 
Q 47.46875 44.1875 48.25 40.4375 
Q 48.734375 37.984375 48.734375 31.890625 
L 48.734375 0 
L 39.9375 0 
L 39.9375 31.546875 
Q 39.9375 36.921875 38.90625 39.578125 
Q 37.890625 42.234375 35.28125 43.8125 
Q 32.671875 45.40625 29.15625 45.40625 
Q 23.53125 45.40625 19.453125 41.84375 
Q 15.375 38.28125 15.375 28.328125 
L 15.375 0 
z
" id="ArialMT-6e"/>
      <path d="M 6.59375 0 
L 6.59375 51.859375 
L 14.453125 51.859375 
L 14.453125 44.578125 
Q 16.890625 48.390625 20.9375 50.703125 
Q 25 53.03125 30.171875 53.03125 
Q 35.9375 53.03125 39.625 50.640625 
Q 43.3125 48.25 44.828125 43.953125 
Q 50.984375 53.03125 60.84375 53.03125 
Q 68.5625 53.03125 72.703125 48.75 
Q 76.859375 44.484375 76.859375 35.59375 
L 76.859375 0 
L 68.109375 0 
L 68.109375 32.671875 
Q 68.109375 37.9375 67.25 40.25 
Q 66.40625 42.578125 64.15625 43.984375 
Q 61.921875 45.40625 58.890625 45.40625 
Q 53.421875 45.40625 49.796875 41.765625 
Q 46.1875 38.140625 46.1875 30.125 
L 46.1875 0 
L 37.40625 0 
L 37.40625 33.6875 
Q 37.40625 39.546875 35.25 42.46875 
Q 33.109375 45.40625 28.21875 45.40625 
Q 24.515625 45.40625 21.359375 43.453125 
Q 18.21875 41.5 16.796875 37.734375 
Q 15.375 33.984375 15.375 26.90625 
L 15.375 0 
z
" id="ArialMT-6d"/>
      <path d="M 6.640625 61.46875 
L 6.640625 71.578125 
L 15.4375 71.578125 
L 15.4375 61.46875 
z
M 6.640625 0 
L 6.640625 51.859375 
L 15.4375 51.859375 
L 15.4375 0 
z
" id="ArialMT-69"/>
      <path id="ArialMT-20"/>
     </defs>
     <g style="fill:#262626;" transform="translate(34.91375 301.333359375)rotate(-90.0)scale(0.11 -0.11)">
      <use xlink:href="#ArialMT-43"/>
      <use x="72.216796875" xlink:href="#ArialMT-75"/>
      <use x="127.83203125" xlink:href="#ArialMT-6d"/>
      <use x="211.1328125" xlink:href="#ArialMT-75"/>
      <use x="266.748046875" xlink:href="#ArialMT-6c"/>
      <use x="288.96484375" xlink:href="#ArialMT-61"/>
      <use x="344.580078125" xlink:href="#ArialMT-74"/>
      <use x="372.36328125" xlink:href="#ArialMT-69"/>
      <use x="394.580078125" xlink:href="#ArialMT-76"/>
      <use x="444.580078125" xlink:href="#ArialMT-65"/>
      <use x="500.1953125" xlink:href="#ArialMT-20"/>
      <use x="527.978515625" xlink:href="#ArialMT-64"/>
      <use x="583.59375" xlink:href="#ArialMT-69"/>
      <use x="605.810546875" xlink:href="#ArialMT-73"/>
      <use x="655.810546875" xlink:href="#ArialMT-74"/>
      <use x="683.59375" xlink:href="#ArialMT-72"/>
      <use x="716.89453125" xlink:href="#ArialMT-69"/>
      <use x="739.111328125" xlink:href="#ArialMT-62"/>
      <use x="794.7265625" xlink:href="#ArialMT-75"/>
      <use x="850.341796875" xlink:href="#ArialMT-74"/>
      <use x="878.125" xlink:href="#ArialMT-69"/>
      <use x="900.341796875" xlink:href="#ArialMT-6f"/>
      <use x="955.95703125" xlink:href="#ArialMT-6e"/>
     </g>
    </g>
   </g>
   <g id="patch_3">
    <path clip-path="url(#pdb858fed6c)" d="M 94.053322 441 
L 94.053322 440.859142 
L 98.284532 440.859142 
L 98.284532 440.718283 
L 100.929038 440.718283 
L 100.929038 440.436567 
L 107.275853 440.436567 
L 107.275853 440.295709 
L 116.796075 440.295709 
L 116.796075 440.15485 
L 119.969482 440.15485 
L 119.969482 440.013992 
L 122.085087 440.013992 
L 122.085087 439.873134 
L 123.671791 439.873134 
L 123.671791 439.732276 
L 124.200692 439.732276 
L 124.200692 439.591417 
L 128.960803 439.591417 
L 128.960803 439.450559 
L 130.547507 439.450559 
L 130.547507 439.309701 
L 132.13421 439.309701 
L 132.13421 439.168842 
L 139.009926 439.168842 
L 139.009926 439.027984 
L 141.125531 439.027984 
L 141.125531 438.746268 
L 142.183334 438.746268 
L 142.183334 438.464551 
L 144.298938 438.464551 
L 144.298938 438.182834 
L 144.82784 438.182834 
L 144.82784 438.041976 
L 145.356741 438.041976 
L 145.356741 437.76026 
L 145.885642 437.76026 
L 145.885642 437.619401 
L 146.414543 437.619401 
L 146.414543 437.337685 
L 147.472346 437.337685 
L 147.472346 437.196827 
L 148.001247 437.196827 
L 148.001247 437.055968 
L 149.059049 437.055968 
L 149.059049 436.91511 
L 149.587951 436.91511 
L 149.587951 436.774252 
L 151.174654 436.774252 
L 151.174654 436.492535 
L 151.703556 436.492535 
L 151.703556 436.351677 
L 153.290259 436.351677 
L 153.290259 436.210819 
L 153.81916 436.210819 
L 153.81916 436.06996 
L 155.934765 436.06996 
L 155.934765 435.788244 
L 156.992568 435.788244 
L 156.992568 435.647386 
L 158.05037 435.647386 
L 158.05037 435.506527 
L 159.637074 435.506527 
L 159.637074 435.224811 
L 160.165975 435.224811 
L 160.165975 435.083952 
L 161.223778 435.083952 
L 161.223778 434.802236 
L 163.339382 434.802236 
L 163.339382 434.661378 
L 164.397185 434.661378 
L 164.397185 434.520519 
L 165.454987 434.520519 
L 165.454987 434.379661 
L 165.983888 434.379661 
L 165.983888 434.097944 
L 170.215098 434.097944 
L 170.215098 433.957086 
L 170.743999 433.957086 
L 170.743999 433.816228 
L 171.272901 433.816228 
L 171.272901 433.67537 
L 172.330703 433.67537 
L 172.330703 433.534511 
L 173.917407 433.534511 
L 173.917407 433.393653 
L 174.975209 433.393653 
L 174.975209 433.111937 
L 175.50411 433.111937 
L 175.50411 432.971078 
L 176.561913 432.971078 
L 176.561913 432.407645 
L 177.090814 432.407645 
L 177.090814 432.125929 
L 178.148617 432.125929 
L 178.148617 431.844212 
L 178.677518 431.844212 
L 178.677518 431.703354 
L 179.73532 431.703354 
L 179.73532 431.562495 
L 180.264221 431.562495 
L 180.264221 431.280779 
L 180.793123 431.280779 
L 180.793123 431.139921 
L 181.850925 431.139921 
L 181.850925 430.717346 
L 182.379826 430.717346 
L 182.379826 430.576488 
L 183.96653 430.576488 
L 183.96653 430.294771 
L 184.495431 430.294771 
L 184.495431 430.153913 
L 185.024332 430.153913 
L 185.024332 429.872196 
L 186.082135 429.872196 
L 186.082135 429.449621 
L 186.611036 429.449621 
L 186.611036 429.167905 
L 187.139937 429.167905 
L 187.139937 429.027047 
L 187.668839 429.027047 
L 187.668839 428.886188 
L 188.726641 428.886188 
L 188.726641 428.463613 
L 189.784443 428.463613 
L 189.784443 428.322755 
L 190.313345 428.322755 
L 190.313345 428.181897 
L 191.371147 428.181897 
L 191.371147 428.041039 
L 191.900048 428.041039 
L 191.900048 427.759322 
L 192.957851 427.759322 
L 192.957851 427.477605 
L 194.015653 427.477605 
L 194.015653 427.195889 
L 195.073456 427.195889 
L 195.073456 426.914172 
L 195.602357 426.914172 
L 195.602357 426.773314 
L 196.131258 426.773314 
L 196.131258 426.632456 
L 196.660159 426.632456 
L 196.660159 426.069023 
L 197.717962 426.069023 
L 197.717962 425.787306 
L 198.775764 425.787306 
L 198.775764 425.646448 
L 200.362468 425.646448 
L 200.362468 425.364731 
L 201.42027 425.364731 
L 201.42027 425.083015 
L 201.949172 425.083015 
L 201.949172 424.801298 
L 202.478073 424.801298 
L 202.478073 424.66044 
L 203.006974 424.66044 
L 203.006974 424.519582 
L 203.535875 424.519582 
L 203.535875 424.378723 
L 204.593678 424.378723 
L 204.593678 424.097007 
L 205.122579 424.097007 
L 205.122579 423.956149 
L 205.65148 423.956149 
L 205.65148 423.392715 
L 206.180381 423.392715 
L 206.180381 422.970141 
L 206.709283 422.970141 
L 206.709283 422.547566 
L 207.238184 422.547566 
L 207.238184 422.406708 
L 207.767085 422.406708 
L 207.767085 421.984133 
L 208.295986 421.984133 
L 208.295986 421.702416 
L 208.824887 421.702416 
L 208.824887 421.4207 
L 210.411591 421.4207 
L 210.411591 421.279841 
L 210.940492 421.279841 
L 210.940492 420.57555 
L 211.469394 420.57555 
L 211.469394 420.152975 
L 211.998295 420.152975 
L 211.998295 419.871259 
L 212.527196 419.871259 
L 212.527196 419.589542 
L 213.056097 419.589542 
L 213.056097 419.307825 
L 213.584998 419.307825 
L 213.584998 419.026109 
L 214.1139 419.026109 
L 214.1139 418.885251 
L 215.171702 418.885251 
L 215.171702 417.899243 
L 215.700603 417.899243 
L 215.700603 417.33581 
L 216.229505 417.33581 
L 216.229505 417.054093 
L 216.758406 417.054093 
L 216.758406 416.49066 
L 217.287307 416.49066 
L 217.287307 416.208943 
L 217.816208 416.208943 
L 217.816208 415.786369 
L 218.345109 415.786369 
L 218.345109 415.64551 
L 218.874011 415.64551 
L 218.874011 415.363794 
L 219.402912 415.363794 
L 219.402912 415.222935 
L 219.931813 415.222935 
L 219.931813 414.659502 
L 220.460714 414.659502 
L 220.460714 414.377786 
L 220.989615 414.377786 
L 220.989615 414.096069 
L 221.518517 414.096069 
L 221.518517 413.814353 
L 222.047418 413.814353 
L 222.047418 413.391778 
L 222.576319 413.391778 
L 222.576319 413.25092 
L 223.10522 413.25092 
L 223.10522 412.969203 
L 223.634122 412.969203 
L 223.634122 412.546628 
L 224.691924 412.546628 
L 224.691924 412.40577 
L 225.220825 412.40577 
L 225.220825 412.264912 
L 226.278628 412.264912 
L 226.278628 412.124053 
L 226.807529 412.124053 
L 226.807529 411.842337 
L 227.33643 411.842337 
L 227.33643 411.278904 
L 227.865331 411.278904 
L 227.865331 410.856329 
L 228.394233 410.856329 
L 228.394233 410.433754 
L 228.923134 410.433754 
L 228.923134 409.729463 
L 229.452035 409.729463 
L 229.452035 409.16603 
L 229.980936 409.16603 
L 229.980936 408.743455 
L 230.509837 408.743455 
L 230.509837 407.898305 
L 231.038739 407.898305 
L 231.038739 407.334872 
L 231.56764 407.334872 
L 231.56764 407.053155 
L 232.096541 407.053155 
L 232.096541 406.771439 
L 232.625442 406.771439 
L 232.625442 406.208006 
L 233.154344 406.208006 
L 233.154344 405.785431 
L 233.683245 405.785431 
L 233.683245 405.362856 
L 234.212146 405.362856 
L 234.212146 404.940281 
L 234.741047 404.940281 
L 234.741047 404.23599 
L 235.269948 404.23599 
L 235.269948 403.531699 
L 235.79885 403.531699 
L 235.79885 402.686549 
L 236.327751 402.686549 
L 236.327751 401.841399 
L 236.856652 401.841399 
L 236.856652 401.559683 
L 237.385553 401.559683 
L 237.385553 401.137108 
L 238.443356 401.137108 
L 238.443356 400.573675 
L 238.972257 400.573675 
L 238.972257 399.587667 
L 239.501158 399.587667 
L 239.501158 399.165092 
L 240.030059 399.165092 
L 240.030059 398.883375 
L 240.558961 398.883375 
L 240.558961 398.319942 
L 241.087862 398.319942 
L 241.087862 397.615651 
L 241.616763 397.615651 
L 241.616763 397.333934 
L 242.145664 397.333934 
L 242.145664 396.91136 
L 242.674566 396.91136 
L 242.674566 395.502777 
L 243.203467 395.502777 
L 243.203467 395.080202 
L 243.732368 395.080202 
L 243.732368 394.798485 
L 244.261269 394.798485 
L 244.261269 394.516769 
L 244.79017 394.516769 
L 244.79017 393.389903 
L 245.319072 393.389903 
L 245.319072 392.82647 
L 245.847973 392.82647 
L 245.847973 392.403895 
L 246.376874 392.403895 
L 246.376874 391.699603 
L 247.434677 391.699603 
L 247.434677 391.277028 
L 247.963578 391.277028 
L 247.963578 389.586729 
L 248.492479 389.586729 
L 248.492479 389.164154 
L 249.02138 389.164154 
L 249.02138 388.882438 
L 249.550281 388.882438 
L 249.550281 388.459863 
L 250.079183 388.459863 
L 250.079183 387.89643 
L 250.608084 387.89643 
L 250.608084 387.192138 
L 251.136985 387.192138 
L 251.136985 386.769564 
L 251.665886 386.769564 
L 251.665886 386.487847 
L 252.194788 386.487847 
L 252.194788 386.065272 
L 252.723689 386.065272 
L 252.723689 385.220123 
L 253.25259 385.220123 
L 253.25259 384.65669 
L 253.781491 384.65669 
L 253.781491 384.093256 
L 254.310392 384.093256 
L 254.310392 383.81154 
L 254.839294 383.81154 
L 254.839294 383.388965 
L 255.368195 383.388965 
L 255.368195 382.96639 
L 255.897096 382.96639 
L 255.897096 382.684674 
L 256.425997 382.684674 
L 256.425997 382.402957 
L 256.954899 382.402957 
L 256.954899 381.416949 
L 257.4838 381.416949 
L 257.4838 380.994374 
L 258.012701 380.994374 
L 258.012701 379.72665 
L 258.541602 379.72665 
L 258.541602 379.022358 
L 259.070503 379.022358 
L 259.070503 378.8815 
L 259.599405 378.8815 
L 259.599405 378.740642 
L 260.128306 378.740642 
L 260.128306 378.177209 
L 260.657207 378.177209 
L 260.657207 377.754634 
L 261.186108 377.754634 
L 261.186108 377.332059 
L 262.243911 377.332059 
L 262.243911 376.346051 
L 262.772812 376.346051 
L 262.772812 375.923476 
L 263.301713 375.923476 
L 263.301713 375.219185 
L 263.830614 375.219185 
L 263.830614 374.514894 
L 264.359516 374.514894 
L 264.359516 373.528886 
L 264.888417 373.528886 
L 264.888417 373.247169 
L 265.417318 373.247169 
L 265.417318 372.683736 
L 265.946219 372.683736 
L 265.946219 372.120303 
L 266.475121 372.120303 
L 266.475121 371.838586 
L 267.004022 371.838586 
L 267.004022 371.55687 
L 267.532923 371.55687 
L 267.532923 371.275153 
L 268.061824 371.275153 
L 268.061824 370.993437 
L 268.590725 370.993437 
L 268.590725 370.289145 
L 269.119627 370.289145 
L 269.119627 369.725712 
L 269.648528 369.725712 
L 269.648528 369.443996 
L 270.177429 369.443996 
L 270.177429 368.457988 
L 270.70633 368.457988 
L 270.70633 368.035413 
L 271.235231 368.035413 
L 271.235231 367.753696 
L 271.764133 367.753696 
L 271.764133 367.612838 
L 272.293034 367.612838 
L 272.293034 367.190263 
L 272.821935 367.190263 
L 272.821935 366.345114 
L 273.350836 366.345114 
L 273.350836 365.78168 
L 273.879738 365.78168 
L 273.879738 365.359106 
L 274.408639 365.359106 
L 274.408639 364.654814 
L 274.93754 364.654814 
L 274.93754 364.373098 
L 275.466441 364.373098 
L 275.466441 363.668806 
L 275.995342 363.668806 
L 275.995342 362.964515 
L 276.524244 362.964515 
L 276.524244 362.54194 
L 277.053145 362.54194 
L 277.053145 361.274216 
L 277.582046 361.274216 
L 277.582046 360.288208 
L 278.110947 360.288208 
L 278.110947 359.020483 
L 278.639849 359.020483 
L 278.639849 358.034475 
L 279.16875 358.034475 
L 279.16875 357.330184 
L 279.697651 357.330184 
L 279.697651 356.344176 
L 280.226552 356.344176 
L 280.226552 355.076451 
L 280.755453 355.076451 
L 280.755453 353.949585 
L 281.284355 353.949585 
L 281.284355 353.245294 
L 281.813256 353.245294 
L 281.813256 352.681861 
L 282.342157 352.681861 
L 282.342157 351.836711 
L 282.871058 351.836711 
L 282.871058 350.146412 
L 283.39996 350.146412 
L 283.39996 349.582979 
L 283.928861 349.582979 
L 283.928861 348.737829 
L 284.457762 348.737829 
L 284.457762 348.456113 
L 284.986663 348.456113 
L 284.986663 347.892679 
L 285.515564 347.892679 
L 285.515564 346.484097 
L 286.044466 346.484097 
L 286.044466 345.216372 
L 286.573367 345.216372 
L 286.573367 344.934656 
L 287.102268 344.934656 
L 287.102268 344.371223 
L 287.631169 344.371223 
L 287.631169 343.526073 
L 288.160071 343.526073 
L 288.160071 342.11749 
L 288.688972 342.11749 
L 288.688972 341.413199 
L 289.217873 341.413199 
L 289.217873 340.990624 
L 289.746774 340.990624 
L 289.746774 340.568049 
L 290.275675 340.568049 
L 290.275675 339.159466 
L 290.804577 339.159466 
L 290.804577 337.750884 
L 291.333478 337.750884 
L 291.333478 336.624017 
L 291.862379 336.624017 
L 291.862379 335.074576 
L 292.39128 335.074576 
L 292.39128 333.806852 
L 292.920182 333.806852 
L 292.920182 332.820844 
L 293.449083 332.820844 
L 293.449083 332.257411 
L 293.977984 332.257411 
L 293.977984 331.975694 
L 294.506885 331.975694 
L 294.506885 331.130545 
L 295.035786 331.130545 
L 295.035786 330.426253 
L 295.564688 330.426253 
L 295.564688 329.299387 
L 296.093589 329.299387 
L 296.093589 327.749946 
L 296.62249 327.749946 
L 296.62249 326.62308 
L 297.151391 326.62308 
L 297.151391 326.059647 
L 297.680293 326.059647 
L 297.680293 325.214497 
L 298.209194 325.214497 
L 298.209194 323.805914 
L 298.738095 323.805914 
L 298.738095 322.819906 
L 299.266996 322.819906 
L 299.266996 321.833898 
L 299.795897 321.833898 
L 299.795897 320.707032 
L 300.324799 320.707032 
L 300.324799 319.439308 
L 300.8537 319.439308 
L 300.8537 318.4533 
L 301.382601 318.4533 
L 301.382601 317.044717 
L 301.911502 317.044717 
L 301.911502 316.199567 
L 302.440404 316.199567 
L 302.440404 315.072701 
L 302.969305 315.072701 
L 302.969305 314.509268 
L 303.498206 314.509268 
L 303.498206 313.100685 
L 304.027107 313.100685 
L 304.027107 311.692102 
L 304.556008 311.692102 
L 304.556008 310.565236 
L 305.08491 310.565236 
L 305.08491 309.579228 
L 305.613811 309.579228 
L 305.613811 308.874937 
L 306.142712 308.874937 
L 306.142712 307.607212 
L 306.671613 307.607212 
L 306.671613 306.621204 
L 307.200515 306.621204 
L 307.200515 305.776055 
L 307.729416 305.776055 
L 307.729416 304.50833 
L 308.258317 304.50833 
L 308.258317 303.944897 
L 308.787218 303.944897 
L 308.787218 302.818031 
L 309.316119 302.818031 
L 309.316119 302.254598 
L 309.845021 302.254598 
L 309.845021 301.409448 
L 310.373922 301.409448 
L 310.373922 300.846015 
L 310.902823 300.846015 
L 310.902823 299.578291 
L 311.431724 299.578291 
L 311.431724 298.169708 
L 311.960626 298.169708 
L 311.960626 297.324558 
L 312.489527 297.324558 
L 312.489527 296.901983 
L 313.018428 296.901983 
L 313.018428 296.197692 
L 313.547329 296.197692 
L 313.547329 295.775117 
L 314.07623 295.775117 
L 314.07623 294.366534 
L 314.605132 294.366534 
L 314.605132 293.380527 
L 315.134033 293.380527 
L 315.134033 292.957952 
L 315.662934 292.957952 
L 315.662934 292.25366 
L 316.191835 292.25366 
L 316.191835 291.549369 
L 316.720737 291.549369 
L 316.720737 290.422503 
L 317.249638 290.422503 
L 317.249638 289.718211 
L 317.778539 289.718211 
L 317.778539 288.450487 
L 318.30744 288.450487 
L 318.30744 288.027912 
L 318.836341 288.027912 
L 318.836341 286.901046 
L 319.365243 286.901046 
L 319.365243 285.77418 
L 319.894144 285.77418 
L 319.894144 284.506455 
L 320.423045 284.506455 
L 320.423045 283.520447 
L 320.951946 283.520447 
L 320.951946 281.407573 
L 321.480847 281.407573 
L 321.480847 279.717274 
L 322.009749 279.717274 
L 322.009749 279.153841 
L 322.53865 279.153841 
L 322.53865 278.167833 
L 323.067551 278.167833 
L 323.067551 277.463541 
L 323.596452 277.463541 
L 323.596452 276.336675 
L 324.125354 276.336675 
L 324.125354 275.773242 
L 324.654255 275.773242 
L 324.654255 274.787234 
L 325.183156 274.787234 
L 325.183156 273.942084 
L 325.712057 273.942084 
L 325.712057 272.956076 
L 326.240958 272.956076 
L 326.240958 271.970069 
L 326.76986 271.970069 
L 326.76986 270.843202 
L 327.298761 270.843202 
L 327.298761 269.293761 
L 327.827662 269.293761 
L 327.827662 268.026037 
L 328.356563 268.026037 
L 328.356563 267.040029 
L 328.885465 267.040029 
L 328.885465 266.054021 
L 329.414366 266.054021 
L 329.414366 265.208871 
L 329.943267 265.208871 
L 329.943267 264.222863 
L 330.472168 264.222863 
L 330.472168 263.941147 
L 331.001069 263.941147 
L 331.001069 263.095997 
L 331.529971 263.095997 
L 331.529971 262.391706 
L 332.058872 262.391706 
L 332.058872 261.969131 
L 332.587773 261.969131 
L 332.587773 261.123981 
L 333.116674 261.123981 
L 333.116674 259.715398 
L 333.645576 259.715398 
L 333.645576 259.011107 
L 334.174477 259.011107 
L 334.174477 257.743383 
L 334.703378 257.743383 
L 334.703378 256.475658 
L 335.232279 256.475658 
L 335.232279 255.207934 
L 335.76118 255.207934 
L 335.76118 253.658493 
L 336.290082 253.658493 
L 336.290082 252.672485 
L 336.818983 252.672485 
L 336.818983 251.968193 
L 337.347884 251.968193 
L 337.347884 250.982185 
L 337.876785 250.982185 
L 337.876785 250.137036 
L 338.405687 250.137036 
L 338.405687 248.728453 
L 338.934588 248.728453 
L 338.934588 247.460728 
L 339.463489 247.460728 
L 339.463489 246.193004 
L 339.99239 246.193004 
L 339.99239 245.347854 
L 340.521291 245.347854 
L 340.521291 243.657555 
L 341.050193 243.657555 
L 341.050193 242.530689 
L 341.579094 242.530689 
L 341.579094 240.840389 
L 342.107995 240.840389 
L 342.107995 239.854382 
L 342.636896 239.854382 
L 342.636896 238.445799 
L 343.165798 238.445799 
L 343.165798 236.614641 
L 343.694699 236.614641 
L 343.694699 235.487775 
L 344.2236 235.487775 
L 344.2236 234.642625 
L 344.752501 234.642625 
L 344.752501 232.952326 
L 345.281402 232.952326 
L 345.281402 232.529751 
L 345.810304 232.529751 
L 345.810304 231.402885 
L 346.339205 231.402885 
L 346.339205 230.98031 
L 346.868106 230.98031 
L 346.868106 229.853444 
L 347.397007 229.853444 
L 347.397007 227.74057 
L 347.925909 227.74057 
L 347.925909 227.036278 
L 348.45481 227.036278 
L 348.45481 225.909412 
L 348.983711 225.909412 
L 348.983711 225.064263 
L 349.512612 225.064263 
L 349.512612 223.373963 
L 350.041513 223.373963 
L 350.041513 221.824522 
L 350.570415 221.824522 
L 350.570415 220.134223 
L 351.099316 220.134223 
L 351.099316 219.148215 
L 351.628217 219.148215 
L 351.628217 217.598774 
L 352.157118 217.598774 
L 352.157118 217.176199 
L 352.68602 217.176199 
L 352.68602 214.359034 
L 353.214921 214.359034 
L 353.214921 213.513884 
L 353.743822 213.513884 
L 353.743822 212.527876 
L 354.272723 212.527876 
L 354.272723 211.682726 
L 354.801624 211.682726 
L 354.801624 210.274144 
L 355.330526 210.274144 
L 355.330526 209.147277 
L 355.859427 209.147277 
L 355.859427 207.879553 
L 356.388328 207.879553 
L 356.388328 206.893545 
L 356.917229 206.893545 
L 356.917229 205.62582 
L 357.446131 205.62582 
L 357.446131 204.076379 
L 357.975032 204.076379 
L 357.975032 203.794663 
L 358.503933 203.794663 
L 358.503933 202.526938 
L 359.032834 202.526938 
L 359.032834 200.695781 
L 359.561735 200.695781 
L 359.561735 200.132348 
L 360.090637 200.132348 
L 360.090637 198.160332 
L 360.619538 198.160332 
L 360.619538 197.737757 
L 361.148439 197.737757 
L 361.148439 196.047458 
L 361.67734 196.047458 
L 361.67734 194.357158 
L 362.206242 194.357158 
L 362.206242 192.807717 
L 362.735143 192.807717 
L 362.735143 191.399135 
L 363.264044 191.399135 
L 363.264044 190.272268 
L 363.792945 190.272268 
L 363.792945 189.427119 
L 364.321846 189.427119 
L 364.321846 189.004544 
L 364.850748 189.004544 
L 364.850748 188.018536 
L 365.379649 188.018536 
L 365.379649 186.609953 
L 365.90855 186.609953 
L 365.90855 186.187378 
L 366.437451 186.187378 
L 366.437451 184.919654 
L 366.966353 184.919654 
L 366.966353 183.933646 
L 367.495254 183.933646 
L 367.495254 183.088496 
L 368.024155 183.088496 
L 368.024155 182.243347 
L 368.553056 182.243347 
L 368.553056 181.11648 
L 369.081957 181.11648 
L 369.081957 179.707898 
L 369.610859 179.707898 
L 369.610859 178.299315 
L 370.13976 178.299315 
L 370.13976 177.87674 
L 370.668661 177.87674 
L 370.668661 177.172449 
L 371.197562 177.172449 
L 371.197562 175.763866 
L 371.726464 175.763866 
L 371.726464 175.341291 
L 372.255365 175.341291 
L 372.255365 174.214425 
L 372.784266 174.214425 
L 372.784266 173.510133 
L 373.313167 173.510133 
L 373.313167 172.9467 
L 373.842068 172.9467 
L 373.842068 172.101551 
L 374.37097 172.101551 
L 374.37097 171.397259 
L 374.899871 171.397259 
L 374.899871 169.847818 
L 375.428772 169.847818 
L 375.428772 168.580094 
L 375.957673 168.580094 
L 375.957673 167.734944 
L 376.486574 167.734944 
L 376.486574 166.889794 
L 377.015476 166.889794 
L 377.015476 165.762928 
L 377.544377 165.762928 
L 377.544377 165.199495 
L 378.073278 165.199495 
L 378.073278 164.072629 
L 378.602179 164.072629 
L 378.602179 162.945763 
L 379.131081 162.945763 
L 379.131081 162.523188 
L 379.659982 162.523188 
L 379.659982 161.53718 
L 380.188883 161.53718 
L 380.188883 160.551172 
L 380.717784 160.551172 
L 380.717784 159.706022 
L 381.246685 159.706022 
L 381.246685 158.860873 
L 381.775587 158.860873 
L 381.775587 158.438298 
L 382.304488 158.438298 
L 382.304488 157.170573 
L 382.833389 157.170573 
L 382.833389 156.184565 
L 383.36229 156.184565 
L 383.36229 155.339416 
L 383.891192 155.339416 
L 383.891192 154.775983 
L 384.420093 154.775983 
L 384.420093 154.21255 
L 384.948994 154.21255 
L 384.948994 153.226542 
L 385.477895 153.226542 
L 385.477895 151.958817 
L 386.006796 151.958817 
L 386.006796 150.972809 
L 386.535698 150.972809 
L 386.535698 148.859935 
L 387.064599 148.859935 
L 387.064599 148.155644 
L 387.5935 148.155644 
L 387.5935 147.169636 
L 388.122401 147.169636 
L 388.122401 146.324486 
L 388.651303 146.324486 
L 388.651303 145.19762 
L 389.180204 145.19762 
L 389.180204 144.070754 
L 389.709105 144.070754 
L 389.709105 142.943887 
L 390.238006 142.943887 
L 390.238006 142.662171 
L 390.766907 142.662171 
L 390.766907 141.676163 
L 391.295809 141.676163 
L 391.295809 140.971872 
L 391.82471 140.971872 
L 391.82471 140.126722 
L 392.353611 140.126722 
L 392.353611 139.704147 
L 392.882512 139.704147 
L 392.882512 138.718139 
L 393.411414 138.718139 
L 393.411414 138.295564 
L 393.940315 138.295564 
L 393.940315 137.168698 
L 394.469216 137.168698 
L 394.469216 136.605265 
L 394.998117 136.605265 
L 394.998117 135.619257 
L 395.527018 135.619257 
L 395.527018 134.774107 
L 396.05592 134.774107 
L 396.05592 134.210674 
L 396.584821 134.210674 
L 396.584821 133.365525 
L 397.113722 133.365525 
L 397.113722 132.802092 
L 397.642623 132.802092 
L 397.642623 132.520375 
L 398.171525 132.520375 
L 398.171525 131.534367 
L 398.700426 131.534367 
L 398.700426 130.548359 
L 399.229327 130.548359 
L 399.229327 129.984926 
L 399.758228 129.984926 
L 399.758228 129.562351 
L 400.287129 129.562351 
L 400.287129 128.01291 
L 400.816031 128.01291 
L 400.816031 127.308619 
L 401.344932 127.308619 
L 401.344932 126.745186 
L 401.873833 126.745186 
L 401.873833 125.477461 
L 402.402734 125.477461 
L 402.402734 125.054886 
L 402.931636 125.054886 
L 402.931636 123.646304 
L 403.460537 123.646304 
L 403.460537 123.505445 
L 403.989438 123.505445 
L 403.989438 123.082871 
L 404.518339 123.082871 
L 404.518339 122.660296 
L 405.04724 122.660296 
L 405.04724 121.392571 
L 405.576142 121.392571 
L 405.576142 120.829138 
L 406.105043 120.829138 
L 406.105043 119.84313 
L 406.633944 119.84313 
L 406.633944 119.138839 
L 407.162845 119.138839 
L 407.162845 118.575406 
L 407.691747 118.575406 
L 407.691747 117.448539 
L 408.220648 117.448539 
L 408.220648 116.885106 
L 408.749549 116.885106 
L 408.749549 116.180815 
L 409.27845 116.180815 
L 409.27845 115.476524 
L 409.807351 115.476524 
L 409.807351 115.335665 
L 410.336253 115.335665 
L 410.336253 114.208799 
L 410.865154 114.208799 
L 410.865154 113.504508 
L 411.394055 113.504508 
L 411.394055 112.941075 
L 411.922956 112.941075 
L 411.922956 112.5185 
L 412.451858 112.5185 
L 412.451858 111.814208 
L 412.980759 111.814208 
L 412.980759 111.532492 
L 413.50966 111.532492 
L 413.50966 110.828201 
L 414.038561 110.828201 
L 414.038561 110.264767 
L 414.567462 110.264767 
L 414.567462 109.278759 
L 415.096364 109.278759 
L 415.096364 108.574468 
L 415.625265 108.574468 
L 415.625265 108.151893 
L 416.154166 108.151893 
L 416.154166 107.306744 
L 416.683067 107.306744 
L 416.683067 107.025027 
L 417.211969 107.025027 
L 417.211969 106.320736 
L 417.74087 106.320736 
L 417.74087 105.334728 
L 418.269771 105.334728 
L 418.269771 104.912153 
L 418.798672 104.912153 
L 418.798672 104.207862 
L 419.327573 104.207862 
L 419.327573 103.926145 
L 419.856475 103.926145 
L 419.856475 102.940137 
L 420.385376 102.940137 
L 420.385376 102.376704 
L 420.914277 102.376704 
L 420.914277 101.813271 
L 421.443178 101.813271 
L 421.443178 100.827263 
L 421.97208 100.827263 
L 421.97208 100.122972 
L 422.500981 100.122972 
L 422.500981 99.559538 
L 423.029882 99.559538 
L 423.029882 99.41868 
L 423.558783 99.41868 
L 423.558783 98.855247 
L 424.087684 98.855247 
L 424.087684 98.57353 
L 424.616586 98.57353 
L 424.616586 97.587523 
L 425.145487 97.587523 
L 425.145487 97.305806 
L 425.674388 97.305806 
L 425.674388 96.038082 
L 426.203289 96.038082 
L 426.203289 95.897223 
L 426.73219 95.897223 
L 426.73219 94.911215 
L 427.261092 94.911215 
L 427.261092 94.347782 
L 427.789993 94.347782 
L 427.789993 94.066066 
L 428.847795 94.066066 
L 428.847795 93.643491 
L 429.376697 93.643491 
L 429.376697 93.502633 
L 429.905598 93.502633 
L 429.905598 93.220916 
L 430.434499 93.220916 
L 430.434499 92.657483 
L 430.9634 92.657483 
L 430.9634 92.516625 
L 431.492301 92.516625 
L 431.492301 92.375766 
L 432.021203 92.375766 
L 432.021203 91.812333 
L 432.550104 91.812333 
L 432.550104 91.530617 
L 433.079005 91.530617 
L 433.079005 91.2489 
L 433.607906 91.2489 
L 433.607906 90.826325 
L 434.136808 90.826325 
L 434.136808 90.262892 
L 434.665709 90.262892 
L 434.665709 89.276884 
L 435.19461 89.276884 
L 435.19461 89.136026 
L 435.723511 89.136026 
L 435.723511 88.713451 
L 436.252412 88.713451 
L 436.252412 88.572593 
L 436.781314 88.572593 
L 436.781314 88.150018 
L 437.310215 88.150018 
L 437.310215 87.586585 
L 437.839116 87.586585 
L 437.839116 86.600577 
L 438.368017 86.600577 
L 438.368017 86.459719 
L 438.896919 86.459719 
L 438.896919 86.037144 
L 439.42582 86.037144 
L 439.42582 85.896286 
L 439.954721 85.896286 
L 439.954721 85.755427 
L 440.483622 85.755427 
L 440.483622 85.191994 
L 441.012523 85.191994 
L 441.012523 84.487703 
L 441.541425 84.487703 
L 441.541425 84.065128 
L 442.070326 84.065128 
L 442.070326 83.07912 
L 442.599227 83.07912 
L 442.599227 82.656545 
L 443.128128 82.656545 
L 443.128128 82.374829 
L 443.65703 82.374829 
L 443.65703 81.952254 
L 444.185931 81.952254 
L 444.185931 81.529679 
L 444.714832 81.529679 
L 444.714832 80.966246 
L 445.243733 80.966246 
L 445.243733 80.684529 
L 446.301536 80.684529 
L 446.301536 80.261955 
L 446.830437 80.261955 
L 446.830437 80.121096 
L 447.359338 80.121096 
L 447.359338 79.557663 
L 447.888239 79.557663 
L 447.888239 78.853372 
L 448.417141 78.853372 
L 448.417141 78.289939 
L 448.946042 78.289939 
L 448.946042 78.14908 
L 449.474943 78.14908 
L 449.474943 78.008222 
L 450.003844 78.008222 
L 450.003844 77.867364 
L 450.532745 77.867364 
L 450.532745 77.303931 
L 451.061647 77.303931 
L 451.061647 77.022214 
L 451.590548 77.022214 
L 451.590548 76.458781 
L 452.64835 76.458781 
L 452.64835 75.75449 
L 453.177252 75.75449 
L 453.177252 75.191057 
L 453.706153 75.191057 
L 453.706153 74.768482 
L 454.235054 74.768482 
L 454.235054 74.486765 
L 454.763955 74.486765 
L 454.763955 74.06419 
L 455.292856 74.06419 
L 455.292856 73.782474 
L 455.821758 73.782474 
L 455.821758 73.500757 
L 456.350659 73.500757 
L 456.350659 72.796466 
L 456.87956 72.796466 
L 456.87956 72.373891 
L 457.408461 72.373891 
L 457.408461 71.810458 
L 458.466264 71.810458 
L 458.466264 71.6696 
L 458.995165 71.6696 
L 458.995165 71.387883 
L 459.524066 71.387883 
L 459.524066 71.247025 
L 460.052967 71.247025 
L 460.052967 70.965308 
L 460.581869 70.965308 
L 460.581869 70.82445 
L 461.639671 70.82445 
L 461.639671 70.401875 
L 462.168572 70.401875 
L 462.168572 70.261017 
L 462.697474 70.261017 
L 462.697474 69.9793 
L 463.226375 69.9793 
L 463.226375 69.697584 
L 463.755276 69.697584 
L 463.755276 69.415867 
L 464.813078 69.415867 
L 464.813078 69.134151 
L 465.34198 69.134151 
L 465.34198 68.852434 
L 465.870881 68.852434 
L 465.870881 68.429859 
L 466.399782 68.429859 
L 466.399782 68.289001 
L 467.457585 68.289001 
L 467.457585 68.148143 
L 467.986486 68.148143 
L 467.986486 67.866426 
L 469.044288 67.866426 
L 469.044288 67.443851 
L 469.573189 67.443851 
L 469.573189 67.021277 
L 470.102091 67.021277 
L 470.102091 66.880418 
L 470.630992 66.880418 
L 470.630992 66.73956 
L 471.159893 66.73956 
L 471.159893 66.316985 
L 472.217696 66.316985 
L 472.217696 66.035269 
L 472.746597 66.035269 
L 472.746597 65.612694 
L 473.275498 65.612694 
L 473.275498 65.471836 
L 473.804399 65.471836 
L 473.804399 65.330977 
L 474.3333 65.330977 
L 474.3333 65.049261 
L 475.391103 65.049261 
L 475.391103 64.908402 
L 476.448905 64.908402 
L 476.448905 64.767544 
L 476.977807 64.767544 
L 476.977807 64.485828 
L 477.506708 64.485828 
L 477.506708 64.063253 
L 478.035609 64.063253 
L 478.035609 63.922395 
L 478.56451 63.922395 
L 478.56451 63.640678 
L 479.093411 63.640678 
L 479.093411 63.077245 
L 479.622313 63.077245 
L 479.622313 62.936387 
L 480.151214 62.936387 
L 480.151214 62.795528 
L 480.680115 62.795528 
L 480.680115 62.513812 
L 481.209016 62.513812 
L 481.209016 62.232095 
L 481.737917 62.232095 
L 481.737917 61.950379 
L 482.266819 61.950379 
L 482.266819 61.527804 
L 482.79572 61.527804 
L 482.79572 61.105229 
L 483.324621 61.105229 
L 483.324621 60.823512 
L 483.853522 60.823512 
L 483.853522 60.260079 
L 484.911325 60.260079 
L 484.911325 60.119221 
L 485.440226 60.119221 
L 485.440226 59.837505 
L 485.969127 59.837505 
L 485.969127 59.696646 
L 487.02693 59.696646 
L 487.02693 59.41493 
L 488.613633 59.41493 
L 488.613633 59.274071 
L 489.671436 59.274071 
L 489.671436 59.133213 
L 490.729238 59.133213 
L 490.729238 58.992355 
L 491.258139 58.992355 
L 491.258139 58.56978 
L 491.787041 58.56978 
L 491.787041 58.428922 
L 492.315942 58.428922 
L 492.315942 58.147205 
L 492.844843 58.147205 
L 492.844843 58.006347 
L 493.373744 58.006347 
L 493.373744 57.865489 
L 494.431547 57.865489 
L 494.431547 57.583772 
L 495.489349 57.583772 
L 495.489349 57.302056 
L 496.01825 57.302056 
L 496.01825 56.879481 
L 496.547152 56.879481 
L 496.547152 56.738622 
L 497.076053 56.738622 
L 497.076053 56.597764 
L 497.604954 56.597764 
L 497.604954 56.456906 
L 504.48067 56.456906 
L 504.48067 56.316048 
L 505 56.316048 
L 505 56.316048 
" style="fill:none;stroke:#4c72b0;stroke-linejoin:miter;stroke-width:2.0;"/>
   </g>
   <g id="patch_4">
    <path clip-path="url(#pdb858fed6c)" d="M 113.504802 441 
L 113.504802 439.713015 
L 118.48158 439.713015 
L 118.48158 438.42603 
L 124.224017 438.42603 
L 124.224017 437.782537 
L 124.989675 437.782537 
L 124.989675 437.139044 
L 131.880599 437.139044 
L 131.880599 435.852059 
L 132.646257 435.852059 
L 132.646257 435.208567 
L 135.70889 435.208567 
L 135.70889 434.565074 
L 136.857377 434.565074 
L 136.857377 433.921582 
L 138.005864 433.921582 
L 138.005864 433.278089 
L 139.92001 433.278089 
L 139.92001 432.634596 
L 142.982643 432.634596 
L 142.982643 431.991104 
L 143.365472 431.991104 
L 143.365472 431.347611 
L 169.397851 431.347611 
L 169.397851 430.060626 
L 174.757459 430.060626 
L 174.757459 427.486656 
L 175.140288 427.486656 
L 175.140288 426.843163 
L 180.117066 426.843163 
L 180.117066 426.199671 
L 181.648382 426.199671 
L 181.648382 425.556178 
L 182.79687 425.556178 
L 182.79687 424.912685 
L 184.328186 424.912685 
L 184.328186 424.269193 
L 185.859503 424.269193 
L 185.859503 423.6257 
L 187.00799 423.6257 
L 187.00799 422.982208 
L 187.773648 422.982208 
L 187.773648 422.338715 
L 189.687794 422.338715 
L 189.687794 421.05173 
L 190.070623 421.05173 
L 190.070623 420.408237 
L 191.601939 420.408237 
L 191.601939 419.121252 
L 193.516085 419.121252 
L 193.516085 417.834267 
L 194.281743 417.834267 
L 194.281743 416.547282 
L 195.047401 416.547282 
L 195.047401 415.903789 
L 195.813059 415.903789 
L 195.813059 414.616804 
L 196.195888 414.616804 
L 196.195888 413.973311 
L 196.961547 413.973311 
L 196.961547 413.329819 
L 197.344376 413.329819 
L 197.344376 412.686326 
L 197.727205 412.686326 
L 197.727205 412.042834 
L 198.110034 412.042834 
L 198.110034 410.755848 
L 198.875692 410.755848 
L 198.875692 410.112356 
L 199.258521 410.112356 
L 199.258521 408.825371 
L 200.407009 408.825371 
L 200.407009 408.181878 
L 200.789838 408.181878 
L 200.789838 407.538386 
L 201.555496 407.538386 
L 201.555496 406.2514 
L 202.703983 406.2514 
L 202.703983 404.964415 
L 203.469641 404.964415 
L 203.469641 404.320923 
L 204.618129 404.320923 
L 204.618129 403.67743 
L 205.000958 403.67743 
L 205.000958 402.390445 
L 205.766616 402.390445 
L 205.766616 401.746952 
L 206.532274 401.746952 
L 206.532274 401.10346 
L 207.297933 401.10346 
L 207.297933 400.459967 
L 207.680762 400.459967 
L 207.680762 399.816474 
L 208.063591 399.816474 
L 208.063591 397.885997 
L 208.44642 397.885997 
L 208.44642 395.955519 
L 208.829249 395.955519 
L 208.829249 395.312026 
L 209.212078 395.312026 
L 209.212078 394.025041 
L 209.977736 394.025041 
L 209.977736 392.738056 
L 210.360565 392.738056 
L 210.360565 391.451071 
L 211.126224 391.451071 
L 211.126224 390.807578 
L 211.509053 390.807578 
L 211.509053 388.8771 
L 211.891882 388.8771 
L 211.891882 388.233608 
L 212.274711 388.233608 
L 212.274711 386.30313 
L 213.423198 386.30313 
L 213.423198 385.659638 
L 214.188856 385.659638 
L 214.188856 385.016145 
L 214.571686 385.016145 
L 214.571686 383.085667 
L 214.954515 383.085667 
L 214.954515 382.442175 
L 216.103002 382.442175 
L 216.103002 381.798682 
L 216.485831 381.798682 
L 216.485831 380.511697 
L 216.86866 380.511697 
L 216.86866 379.868204 
L 217.634318 379.868204 
L 217.634318 379.224712 
L 218.017148 379.224712 
L 218.017148 377.294234 
L 218.399977 377.294234 
L 218.399977 376.650741 
L 219.548464 376.650741 
L 219.548464 374.720264 
L 219.931293 374.720264 
L 219.931293 374.076771 
L 220.314122 374.076771 
L 220.314122 372.789786 
L 221.07978 372.789786 
L 221.07978 371.502801 
L 221.462609 371.502801 
L 221.462609 370.859308 
L 221.845439 370.859308 
L 221.845439 370.215815 
L 222.228268 370.215815 
L 222.228268 369.572323 
L 222.993926 369.572323 
L 222.993926 368.92883 
L 223.759584 368.92883 
L 223.759584 368.285338 
L 224.142413 368.285338 
L 224.142413 367.641845 
L 224.525242 367.641845 
L 224.525242 366.35486 
L 224.908071 366.35486 
L 224.908071 364.424382 
L 226.056559 364.424382 
L 226.056559 362.493904 
L 226.439388 362.493904 
L 226.439388 360.563427 
L 226.822217 360.563427 
L 226.822217 359.276442 
L 231.033337 359.276442 
L 231.033337 358.632949 
L 231.798995 358.632949 
L 231.798995 357.989456 
L 232.564654 357.989456 
L 232.564654 356.702471 
L 232.947483 356.702471 
L 232.947483 355.415486 
L 234.478799 355.415486 
L 234.478799 354.771993 
L 234.861628 354.771993 
L 234.861628 354.128501 
L 235.244457 354.128501 
L 235.244457 352.841516 
L 236.010115 352.841516 
L 236.010115 350.911038 
L 237.158603 350.911038 
L 237.158603 350.267545 
L 237.541432 350.267545 
L 237.541432 349.624053 
L 237.924261 349.624053 
L 237.924261 348.98056 
L 238.689919 348.98056 
L 238.689919 348.337068 
L 239.072748 348.337068 
L 239.072748 347.693575 
L 239.455577 347.693575 
L 239.455577 347.050082 
L 239.838407 347.050082 
L 239.838407 346.40659 
L 240.221236 346.40659 
L 240.221236 344.476112 
L 240.986894 344.476112 
L 240.986894 343.832619 
L 241.369723 343.832619 
L 241.369723 343.189127 
L 242.51821 343.189127 
L 242.51821 341.902142 
L 243.283868 341.902142 
L 243.283868 341.258649 
L 244.049527 341.258649 
L 244.049527 340.615157 
L 244.432356 340.615157 
L 244.432356 339.328171 
L 245.198014 339.328171 
L 245.198014 338.684679 
L 245.580843 338.684679 
L 245.580843 338.041186 
L 245.963672 338.041186 
L 245.963672 336.110708 
L 246.72933 336.110708 
L 246.72933 335.467216 
L 247.11216 335.467216 
L 247.11216 334.180231 
L 247.494989 334.180231 
L 247.494989 333.536738 
L 249.026305 333.536738 
L 249.026305 332.893245 
L 249.409134 332.893245 
L 249.409134 332.249753 
L 249.791963 332.249753 
L 249.791963 331.60626 
L 250.174792 331.60626 
L 250.174792 330.319275 
L 250.557621 330.319275 
L 250.557621 329.675783 
L 250.940451 329.675783 
L 250.940451 328.388797 
L 251.32328 328.388797 
L 251.32328 327.745305 
L 251.706109 327.745305 
L 251.706109 327.101812 
L 252.088938 327.101812 
L 252.088938 325.171334 
L 252.854596 325.171334 
L 252.854596 324.527842 
L 253.620254 324.527842 
L 253.620254 323.240857 
L 254.385913 323.240857 
L 254.385913 322.597364 
L 255.5344 322.597364 
L 255.5344 321.953871 
L 256.300058 321.953871 
L 256.300058 321.310379 
L 257.065716 321.310379 
L 257.065716 320.023394 
L 257.448545 320.023394 
L 257.448545 319.379901 
L 258.214204 319.379901 
L 258.214204 318.736409 
L 258.597033 318.736409 
L 258.597033 318.092916 
L 258.979862 318.092916 
L 258.979862 317.449423 
L 259.74552 317.449423 
L 259.74552 316.805931 
L 260.128349 316.805931 
L 260.128349 314.875453 
L 261.276836 314.875453 
L 261.276836 312.944975 
L 261.659666 312.944975 
L 261.659666 311.014498 
L 262.808153 311.014498 
L 262.808153 309.727512 
L 263.573811 309.727512 
L 263.573811 305.223064 
L 264.339469 305.223064 
L 264.339469 304.579572 
L 264.722298 304.579572 
L 264.722298 302.649094 
L 265.105127 302.649094 
L 265.105127 301.362109 
L 265.487957 301.362109 
L 265.487957 300.075124 
L 265.870786 300.075124 
L 265.870786 297.501153 
L 266.253615 297.501153 
L 266.253615 295.570675 
L 267.402102 295.570675 
L 267.402102 294.927183 
L 267.784931 294.927183 
L 267.784931 292.996705 
L 268.16776 292.996705 
L 268.16776 292.353213 
L 268.550589 292.353213 
L 268.550589 291.70972 
L 268.933419 291.70972 
L 268.933419 290.422735 
L 270.464735 290.422735 
L 270.464735 289.779242 
L 270.847564 289.779242 
L 270.847564 288.492257 
L 271.613222 288.492257 
L 271.613222 287.848764 
L 271.996051 287.848764 
L 271.996051 287.205272 
L 273.144539 287.205272 
L 273.144539 285.918287 
L 273.910197 285.918287 
L 273.910197 284.631301 
L 275.058684 284.631301 
L 275.058684 283.987809 
L 275.441513 283.987809 
L 275.441513 282.057331 
L 275.824342 282.057331 
L 275.824342 278.196376 
L 276.590001 278.196376 
L 276.590001 274.978913 
L 276.97283 274.978913 
L 276.97283 274.33542 
L 277.355659 274.33542 
L 277.355659 269.187479 
L 277.738488 269.187479 
L 277.738488 268.543987 
L 278.504146 268.543987 
L 278.504146 267.900494 
L 278.886975 267.900494 
L 278.886975 267.257002 
L 279.269804 267.257002 
L 279.269804 265.326524 
L 279.652633 265.326524 
L 279.652633 264.683031 
L 280.035463 264.683031 
L 280.035463 264.039539 
L 280.418292 264.039539 
L 280.418292 260.822076 
L 280.801121 260.822076 
L 280.801121 259.535091 
L 281.949608 259.535091 
L 281.949608 258.891598 
L 282.332437 258.891598 
L 282.332437 258.248105 
L 283.480925 258.248105 
L 283.480925 257.604613 
L 283.863754 257.604613 
L 283.863754 256.317628 
L 284.246583 256.317628 
L 284.246583 255.030643 
L 285.012241 255.030643 
L 285.012241 254.38715 
L 285.39507 254.38715 
L 285.39507 253.743657 
L 285.777899 253.743657 
L 285.777899 253.100165 
L 287.309216 253.100165 
L 287.309216 250.526194 
L 287.692045 250.526194 
L 287.692045 249.882702 
L 288.074874 249.882702 
L 288.074874 249.239209 
L 288.457703 249.239209 
L 288.457703 248.595717 
L 288.840532 248.595717 
L 288.840532 247.308731 
L 289.223361 247.308731 
L 289.223361 245.378254 
L 289.60619 245.378254 
L 289.60619 242.160791 
L 289.989019 242.160791 
L 289.989019 239.58682 
L 290.371848 239.58682 
L 290.371848 238.299835 
L 290.754678 238.299835 
L 290.754678 236.369357 
L 291.520336 236.369357 
L 291.520336 235.725865 
L 291.903165 235.725865 
L 291.903165 234.43888 
L 292.285994 234.43888 
L 292.285994 231.864909 
L 292.668823 231.864909 
L 292.668823 231.221417 
L 293.051652 231.221417 
L 293.051652 229.290939 
L 293.434481 229.290939 
L 293.434481 228.003954 
L 294.200139 228.003954 
L 294.200139 227.360461 
L 294.965798 227.360461 
L 294.965798 226.716969 
L 296.879943 226.716969 
L 296.879943 225.429984 
L 297.262772 225.429984 
L 297.262772 224.142998 
L 297.645601 224.142998 
L 297.645601 223.499506 
L 298.028431 223.499506 
L 298.028431 222.212521 
L 298.41126 222.212521 
L 298.41126 221.569028 
L 298.794089 221.569028 
L 298.794089 220.925535 
L 299.176918 220.925535 
L 299.176918 220.282043 
L 299.559747 220.282043 
L 299.559747 218.995058 
L 300.708234 218.995058 
L 300.708234 217.06458 
L 301.473892 217.06458 
L 301.473892 216.421087 
L 302.239551 216.421087 
L 302.239551 214.49061 
L 303.005209 214.49061 
L 303.005209 213.847117 
L 303.388038 213.847117 
L 303.388038 213.203624 
L 304.536525 213.203624 
L 304.536525 212.560132 
L 305.302184 212.560132 
L 305.302184 211.916639 
L 305.685013 211.916639 
L 305.685013 211.273147 
L 306.067842 211.273147 
L 306.067842 210.629654 
L 306.450671 210.629654 
L 306.450671 209.342669 
L 306.8335 209.342669 
L 306.8335 208.055684 
L 307.981987 208.055684 
L 307.981987 207.412191 
L 308.364816 207.412191 
L 308.364816 206.768699 
L 308.747646 206.768699 
L 308.747646 206.125206 
L 309.130475 206.125206 
L 309.130475 205.481713 
L 309.513304 205.481713 
L 309.513304 204.194728 
L 310.278962 204.194728 
L 310.278962 202.26425 
L 310.661791 202.26425 
L 310.661791 201.620758 
L 311.04462 201.620758 
L 311.04462 200.333773 
L 311.810278 200.333773 
L 311.810278 199.046787 
L 312.958766 199.046787 
L 312.958766 197.759802 
L 313.341595 197.759802 
L 313.341595 197.11631 
L 314.107253 197.11631 
L 314.107253 196.472817 
L 314.872911 196.472817 
L 314.872911 195.829325 
L 315.25574 195.829325 
L 315.25574 195.185832 
L 315.638569 195.185832 
L 315.638569 193.898847 
L 316.021399 193.898847 
L 316.021399 192.611862 
L 317.169886 192.611862 
L 317.169886 191.968369 
L 318.318373 191.968369 
L 318.318373 190.681384 
L 318.701202 190.681384 
L 318.701202 189.394399 
L 319.084031 189.394399 
L 319.084031 188.750906 
L 320.232519 188.750906 
L 320.232519 187.463921 
L 320.998177 187.463921 
L 320.998177 186.176936 
L 321.381006 186.176936 
L 321.381006 183.602965 
L 321.763835 183.602965 
L 321.763835 182.959473 
L 322.146664 182.959473 
L 322.146664 182.31598 
L 322.529493 182.31598 
L 322.529493 181.672488 
L 322.912322 181.672488 
L 322.912322 181.028995 
L 323.677981 181.028995 
L 323.677981 180.385502 
L 324.06081 180.385502 
L 324.06081 179.74201 
L 325.592126 179.74201 
L 325.592126 179.098517 
L 326.357784 179.098517 
L 326.357784 178.455025 
L 327.123443 178.455025 
L 327.123443 175.881054 
L 327.506272 175.881054 
L 327.506272 175.237562 
L 328.27193 175.237562 
L 328.27193 173.950577 
L 328.654759 173.950577 
L 328.654759 173.307084 
L 329.420417 173.307084 
L 329.420417 172.663591 
L 329.803246 172.663591 
L 329.803246 172.020099 
L 330.568905 172.020099 
L 330.568905 170.733114 
L 330.951734 170.733114 
L 330.951734 170.089621 
L 331.717392 170.089621 
L 331.717392 168.159143 
L 332.100221 168.159143 
L 332.100221 166.872158 
L 332.48305 166.872158 
L 332.48305 166.228666 
L 332.865879 166.228666 
L 332.865879 163.654695 
L 333.248708 163.654695 
L 333.248708 163.011203 
L 334.014366 163.011203 
L 334.014366 162.36771 
L 334.397196 162.36771 
L 334.397196 161.080725 
L 335.162854 161.080725 
L 335.162854 159.150247 
L 335.928512 159.150247 
L 335.928512 157.863262 
L 336.69417 157.863262 
L 336.69417 155.932784 
L 337.076999 155.932784 
L 337.076999 155.289292 
L 337.459828 155.289292 
L 337.459828 154.645799 
L 337.842658 154.645799 
L 337.842658 153.358814 
L 338.991145 153.358814 
L 338.991145 152.715321 
L 339.373974 152.715321 
L 339.373974 152.071829 
L 339.756803 152.071829 
L 339.756803 151.428336 
L 340.139632 151.428336 
L 340.139632 150.141351 
L 340.522461 150.141351 
L 340.522461 149.497858 
L 342.819436 149.497858 
L 342.819436 148.854366 
L 343.585094 148.854366 
L 343.585094 148.210873 
L 344.733581 148.210873 
L 344.733581 147.567381 
L 345.882069 147.567381 
L 345.882069 145.636903 
L 346.647727 145.636903 
L 346.647727 143.062932 
L 347.030556 143.062932 
L 347.030556 142.41944 
L 347.413385 142.41944 
L 347.413385 141.775947 
L 349.71036 141.775947 
L 349.71036 140.488962 
L 350.093189 140.488962 
L 350.093189 139.201977 
L 350.476018 139.201977 
L 350.476018 137.914992 
L 350.858847 137.914992 
L 350.858847 137.271499 
L 351.241676 137.271499 
L 351.241676 136.628007 
L 351.624505 136.628007 
L 351.624505 135.984514 
L 352.390164 135.984514 
L 352.390164 135.341021 
L 353.538651 135.341021 
L 353.538651 134.054036 
L 353.92148 134.054036 
L 353.92148 133.410544 
L 355.069967 133.410544 
L 355.069967 132.767051 
L 355.452796 132.767051 
L 355.452796 131.480066 
L 355.835625 131.480066 
L 355.835625 130.836573 
L 357.366942 130.836573 
L 357.366942 129.549588 
L 358.1326 129.549588 
L 358.1326 128.262603 
L 358.515429 128.262603 
L 358.515429 127.61911 
L 359.281087 127.61911 
L 359.281087 126.975618 
L 360.046746 126.975618 
L 360.046746 126.332125 
L 360.429575 126.332125 
L 360.429575 125.04514 
L 361.578062 125.04514 
L 361.578062 123.758155 
L 362.34372 123.758155 
L 362.34372 123.114662 
L 363.109378 123.114662 
L 363.109378 121.827677 
L 363.492208 121.827677 
L 363.492208 121.184185 
L 363.875037 121.184185 
L 363.875037 120.540692 
L 366.93767 120.540692 
L 366.93767 119.253707 
L 367.320499 119.253707 
L 367.320499 117.323229 
L 367.703328 117.323229 
L 367.703328 116.679736 
L 368.851815 116.679736 
L 368.851815 116.036244 
L 369.617473 116.036244 
L 369.617473 114.749259 
L 370.383131 114.749259 
L 370.383131 114.105766 
L 372.297277 114.105766 
L 372.297277 112.818781 
L 373.828593 112.818781 
L 373.828593 112.175288 
L 374.211423 112.175288 
L 374.211423 111.531796 
L 376.125568 111.531796 
L 376.125568 110.888303 
L 376.508397 110.888303 
L 376.508397 110.244811 
L 376.891226 110.244811 
L 376.891226 108.957825 
L 377.274055 108.957825 
L 377.274055 108.314333 
L 378.039714 108.314333 
L 378.039714 107.67084 
L 379.57103 107.67084 
L 379.57103 105.740362 
L 381.868005 105.740362 
L 381.868005 104.453377 
L 383.016492 104.453377 
L 383.016492 102.5229 
L 383.78215 102.5229 
L 383.78215 101.879407 
L 384.930637 101.879407 
L 384.930637 101.235914 
L 385.313467 101.235914 
L 385.313467 100.592422 
L 386.461954 100.592422 
L 386.461954 99.948929 
L 386.844783 99.948929 
L 386.844783 98.661944 
L 387.227612 98.661944 
L 387.227612 98.018451 
L 387.610441 98.018451 
L 387.610441 97.374959 
L 387.99327 97.374959 
L 387.99327 96.731466 
L 388.376099 96.731466 
L 388.376099 96.087974 
L 388.758929 96.087974 
L 388.758929 95.444481 
L 390.290245 95.444481 
L 390.290245 94.800988 
L 390.673074 94.800988 
L 390.673074 93.514003 
L 391.821561 93.514003 
L 391.821561 92.870511 
L 392.20439 92.870511 
L 392.20439 92.227018 
L 392.58722 92.227018 
L 392.58722 90.940033 
L 395.649852 90.940033 
L 395.649852 89.653048 
L 396.415511 89.653048 
L 396.415511 89.009555 
L 396.79834 89.009555 
L 396.79834 88.366063 
L 397.181169 88.366063 
L 397.181169 87.079077 
L 397.563998 87.079077 
L 397.563998 85.792092 
L 399.860973 85.792092 
L 399.860973 85.1486 
L 400.243802 85.1486 
L 400.243802 84.505107 
L 400.626631 84.505107 
L 400.626631 83.861614 
L 401.00946 83.861614 
L 401.00946 83.218122 
L 402.540776 83.218122 
L 402.540776 82.574629 
L 402.923605 82.574629 
L 402.923605 81.931137 
L 405.986238 81.931137 
L 405.986238 81.287644 
L 407.134726 81.287644 
L 407.134726 80.644152 
L 409.4317 80.644152 
L 409.4317 80.000659 
L 409.814529 80.000659 
L 409.814529 79.357166 
L 414.408479 79.357166 
L 414.408479 78.713674 
L 414.791308 78.713674 
L 414.791308 78.070181 
L 424.744864 78.070181 
L 424.744864 77.426689 
L 433.932763 77.426689 
L 433.932763 76.783196 
L 436.995396 76.783196 
L 436.995396 76.139703 
L 437.378225 76.139703 
L 437.378225 75.496211 
L 438.143883 75.496211 
L 438.143883 74.852718 
L 438.526712 74.852718 
L 438.526712 74.209226 
L 439.29237 74.209226 
L 439.29237 73.565733 
L 440.440858 73.565733 
L 440.440858 72.278748 
L 440.823687 72.278748 
L 440.823687 71.635255 
L 441.972174 71.635255 
L 441.972174 70.991763 
L 443.503491 70.991763 
L 443.503491 70.34827 
L 445.034807 70.34827 
L 445.034807 69.704778 
L 450.011585 69.704778 
L 450.011585 69.061285 
L 450.777244 69.061285 
L 450.777244 68.417792 
L 451.925731 68.417792 
L 451.925731 67.7743 
L 452.691389 67.7743 
L 452.691389 67.130807 
L 453.839876 67.130807 
L 453.839876 66.487315 
L 454.605535 66.487315 
L 454.605535 65.200329 
L 454.988364 65.200329 
L 454.988364 64.556837 
L 455.754022 64.556837 
L 455.754022 63.913344 
L 456.902509 63.913344 
L 456.902509 63.269852 
L 458.816655 63.269852 
L 458.816655 62.626359 
L 467.621724 62.626359 
L 467.621724 61.982867 
L 468.387382 61.982867 
L 468.387382 61.339374 
L 468.770212 61.339374 
L 468.770212 60.695881 
L 469.153041 60.695881 
L 469.153041 60.052389 
L 470.684357 60.052389 
L 470.684357 59.408896 
L 474.129819 59.408896 
L 474.129819 58.765404 
L 474.512648 58.765404 
L 474.512648 58.121911 
L 476.043965 58.121911 
L 476.043965 57.478418 
L 477.575281 57.478418 
L 477.575281 56.834926 
L 481.020743 56.834926 
L 481.020743 56.191433 
L 481.786401 56.191433 
L 481.786401 55.547941 
L 484.083376 55.547941 
L 484.083376 54.904448 
L 487.146009 54.904448 
L 487.146009 54.260956 
L 487.528838 54.260956 
L 487.528838 53.617463 
L 488.294496 53.617463 
L 488.294496 52.97397 
L 490.591471 52.97397 
L 490.591471 52.330478 
L 494.419762 52.330478 
L 494.419762 51.686985 
L 495.568249 51.686985 
L 495.568249 51.043493 
L 495.951078 51.043493 
L 495.951078 50.4 
L 496.333907 50.4 
L 496.333907 441 
L 496.333907 441 
" style="fill:none;stroke:#55a868;stroke-linejoin:miter;stroke-width:2.0;"/>
   </g>
   <g id="patch_5">
    <path d="M 63 50.4 
L 453.6 50.4 
" style="fill:none;"/>
   </g>
   <g id="patch_6">
    <path d="M 453.6 441 
L 453.6 50.4 
" style="fill:none;"/>
   </g>
   <g id="patch_7">
    <path d="M 63 441 
L 453.6 441 
" style="fill:none;"/>
   </g>
   <g id="patch_8">
    <path d="M 63 441 
L 63 50.4 
" style="fill:none;"/>
   </g>
   <g id="text_14">
    <!-- Saturation of substrates and inhibitors -->
    <defs>
     <path d="M 4.5 23 
L 13.421875 23.78125 
Q 14.0625 18.40625 16.375 14.96875 
Q 18.703125 11.53125 23.578125 9.40625 
Q 28.46875 7.28125 34.578125 7.28125 
Q 39.984375 7.28125 44.140625 8.890625 
Q 48.296875 10.5 50.3125 13.296875 
Q 52.34375 16.109375 52.34375 19.4375 
Q 52.34375 22.796875 50.390625 25.3125 
Q 48.4375 27.828125 43.953125 29.546875 
Q 41.0625 30.671875 31.203125 33.03125 
Q 21.34375 35.40625 17.390625 37.5 
Q 12.25 40.1875 9.734375 44.15625 
Q 7.234375 48.140625 7.234375 53.078125 
Q 7.234375 58.5 10.296875 63.203125 
Q 13.375 67.921875 19.28125 70.359375 
Q 25.203125 72.796875 32.421875 72.796875 
Q 40.375 72.796875 46.453125 70.234375 
Q 52.546875 67.671875 55.8125 62.6875 
Q 59.078125 57.71875 59.328125 51.421875 
L 50.25 50.734375 
Q 49.515625 57.515625 45.28125 60.984375 
Q 41.0625 64.453125 32.8125 64.453125 
Q 24.21875 64.453125 20.28125 61.296875 
Q 16.359375 58.15625 16.359375 53.71875 
Q 16.359375 49.859375 19.140625 47.359375 
Q 21.875 44.875 33.421875 42.265625 
Q 44.96875 39.65625 49.265625 37.703125 
Q 55.515625 34.8125 58.484375 30.390625 
Q 61.46875 25.984375 61.46875 20.21875 
Q 61.46875 14.5 58.203125 9.4375 
Q 54.9375 4.390625 48.796875 1.578125 
Q 42.671875 -1.21875 35.015625 -1.21875 
Q 25.296875 -1.21875 18.71875 1.609375 
Q 12.15625 4.4375 8.421875 10.125 
Q 4.6875 15.828125 4.5 23 
" id="ArialMT-53"/>
     <path d="M 6.59375 0 
L 6.59375 71.578125 
L 15.375 71.578125 
L 15.375 45.90625 
Q 21.53125 53.03125 30.90625 53.03125 
Q 36.671875 53.03125 40.921875 50.75 
Q 45.171875 48.484375 47 44.484375 
Q 48.828125 40.484375 48.828125 32.859375 
L 48.828125 0 
L 40.046875 0 
L 40.046875 32.859375 
Q 40.046875 39.453125 37.1875 42.453125 
Q 34.328125 45.453125 29.109375 45.453125 
Q 25.203125 45.453125 21.75 43.421875 
Q 18.3125 41.40625 16.84375 37.9375 
Q 15.375 34.46875 15.375 28.375 
L 15.375 0 
z
" id="ArialMT-68"/>
     <path d="M 8.6875 0 
L 8.6875 45.015625 
L 0.921875 45.015625 
L 0.921875 51.859375 
L 8.6875 51.859375 
L 8.6875 57.375 
Q 8.6875 62.59375 9.625 65.140625 
Q 10.890625 68.5625 14.078125 70.671875 
Q 17.28125 72.796875 23.046875 72.796875 
Q 26.765625 72.796875 31.25 71.921875 
L 29.9375 64.265625 
Q 27.203125 64.75 24.75 64.75 
Q 20.75 64.75 19.09375 63.03125 
Q 17.4375 61.328125 17.4375 56.640625 
L 17.4375 51.859375 
L 27.546875 51.859375 
L 27.546875 45.015625 
L 17.4375 45.015625 
L 17.4375 0 
z
" id="ArialMT-66"/>
    </defs>
    <g style="fill:#262626;" transform="translate(157.5815625 45.4)scale(0.12 -0.12)">
     <use xlink:href="#ArialMT-53"/>
     <use x="66.69921875" xlink:href="#ArialMT-61"/>
     <use x="122.314453125" xlink:href="#ArialMT-74"/>
     <use x="150.09765625" xlink:href="#ArialMT-75"/>
     <use x="205.712890625" xlink:href="#ArialMT-72"/>
     <use x="239.013671875" xlink:href="#ArialMT-61"/>
     <use x="294.62890625" xlink:href="#ArialMT-74"/>
     <use x="322.412109375" xlink:href="#ArialMT-69"/>
     <use x="344.62890625" xlink:href="#ArialMT-6f"/>
     <use x="400.244140625" xlink:href="#ArialMT-6e"/>
     <use x="455.859375" xlink:href="#ArialMT-20"/>
     <use x="483.642578125" xlink:href="#ArialMT-6f"/>
     <use x="539.2578125" xlink:href="#ArialMT-66"/>
     <use x="567.041015625" xlink:href="#ArialMT-20"/>
     <use x="594.82421875" xlink:href="#ArialMT-73"/>
     <use x="644.82421875" xlink:href="#ArialMT-75"/>
     <use x="700.439453125" xlink:href="#ArialMT-62"/>
     <use x="756.0546875" xlink:href="#ArialMT-73"/>
     <use x="806.0546875" xlink:href="#ArialMT-74"/>
     <use x="833.837890625" xlink:href="#ArialMT-72"/>
     <use x="867.138671875" xlink:href="#ArialMT-61"/>
     <use x="922.75390625" xlink:href="#ArialMT-74"/>
     <use x="950.537109375" xlink:href="#ArialMT-65"/>
     <use x="1006.15234375" xlink:href="#ArialMT-73"/>
     <use x="1056.15234375" xlink:href="#ArialMT-20"/>
     <use x="1083.93554688" xlink:href="#ArialMT-61"/>
     <use x="1139.55078125" xlink:href="#ArialMT-6e"/>
     <use x="1195.16601562" xlink:href="#ArialMT-64"/>
     <use x="1250.78125" xlink:href="#ArialMT-20"/>
     <use x="1278.56445312" xlink:href="#ArialMT-69"/>
     <use x="1300.78125" xlink:href="#ArialMT-6e"/>
     <use x="1356.39648438" xlink:href="#ArialMT-68"/>
     <use x="1412.01171875" xlink:href="#ArialMT-69"/>
     <use x="1434.22851562" xlink:href="#ArialMT-62"/>
     <use x="1489.84375" xlink:href="#ArialMT-69"/>
     <use x="1512.06054688" xlink:href="#ArialMT-74"/>
     <use x="1539.84375" xlink:href="#ArialMT-6f"/>
     <use x="1595.45898438" xlink:href="#ArialMT-72"/>
     <use x="1628.75976562" xlink:href="#ArialMT-73"/>
    </g>
   </g>
   <g id="legend_1">
    <g id="patch_9">
     <path d="M 72 66.557812 
L 92 66.557812 
L 92 59.557812 
L 72 59.557812 
L 72 66.557812 
z
" style="fill:none;stroke:#4c72b0;stroke-linejoin:miter;stroke-width:2.0;"/>
    </g>
    <g id="text_15">
     <!-- $K_M$ -->
     <defs>
      <path d="M 5.078125 0 
Q 4.109375 0 4.109375 1.3125 
Q 4.15625 1.5625 4.296875 2.140625 
Q 4.4375 2.734375 4.6875 3.125 
Q 4.9375 3.515625 5.421875 3.515625 
Q 14.9375 3.515625 16.5 9.625 
L 29.5 61.8125 
Q 29.6875 62.796875 29.6875 63.1875 
Q 29.6875 64.265625 28.515625 64.40625 
Q 26.609375 64.796875 21.296875 64.796875 
Q 20.3125 64.796875 20.3125 66.109375 
Q 20.359375 66.359375 20.5 66.96875 
Q 20.65625 67.578125 20.921875 67.9375 
Q 21.1875 68.3125 21.578125 68.3125 
L 39.203125 68.3125 
Q 40.328125 68.3125 40.484375 67.1875 
L 48.296875 9.90625 
L 84.71875 67.1875 
Q 85.40625 68.3125 86.625 68.3125 
L 103.609375 68.3125 
Q 104.59375 68.3125 104.59375 67 
Q 104.546875 66.75 104.390625 66.140625 
Q 104.25 65.53125 103.984375 65.15625 
Q 103.71875 64.796875 103.328125 64.796875 
Q 97.21875 64.796875 94.828125 64.109375 
Q 93.5 63.671875 92.921875 61.375 
L 79.203125 6.5 
Q 79 5.515625 79 5.078125 
Q 79 4.6875 79.125 4.421875 
Q 79.25 4.15625 79.46875 4.078125 
Q 79.6875 4 80.171875 3.90625 
Q 82.078125 3.515625 87.40625 3.515625 
Q 88.375 3.515625 88.375 2.203125 
Q 88.03125 0.78125 87.828125 0.390625 
Q 87.640625 0 86.71875 0 
L 60.59375 0 
Q 59.625 0 59.625 1.3125 
Q 59.671875 1.5625 59.8125 2.171875 
Q 59.96875 2.78125 60.234375 3.140625 
Q 60.5 3.515625 60.890625 3.515625 
Q 67 3.515625 69.390625 4.203125 
Q 70.703125 4.640625 71.296875 6.890625 
L 85.6875 64.796875 
L 45.3125 1.125 
Q 44.734375 0 43.3125 0 
Q 42.046875 0 41.890625 1.125 
L 33.40625 64.015625 
L 19.671875 9.1875 
Q 19.578125 8.9375 19.53125 8.5625 
Q 19.484375 8.203125 19.390625 7.71875 
Q 19.390625 5.125 21.65625 4.3125 
Q 23.921875 3.515625 27.203125 3.515625 
Q 28.21875 3.515625 28.21875 2.203125 
Q 27.875 0.875 27.65625 0.4375 
Q 27.4375 0 26.515625 0 
z
" id="Cmmi10-4d"/>
     </defs>
     <g style="fill:#262626;" transform="translate(100.0 66.5578125)scale(0.1 -0.1)">
      <use transform="translate(0.0 0.6875)" xlink:href="#Cmmi10-4b"/>
      <use transform="translate(84.912109375 -16.31875)scale(0.7)" xlink:href="#Cmmi10-4d"/>
     </g>
    </g>
    <g id="patch_10">
     <path d="M 72 80.703125 
L 92 80.703125 
L 92 73.703125 
L 72 73.703125 
L 72 80.703125 
z
" style="fill:none;stroke:#55a868;stroke-linejoin:miter;stroke-width:2.0;"/>
    </g>
    <g id="text_16">
     <!-- $K_I$ -->
     <defs>
      <path d="M 4.203125 0 
Q 3.21875 0 3.21875 1.3125 
Q 3.609375 3.515625 4.5 3.515625 
Q 10.40625 3.515625 12.5 3.90625 
Q 14.796875 4.4375 15.375 6.890625 
L 29.109375 61.8125 
Q 29.296875 62.796875 29.296875 63.09375 
Q 29.296875 63.71875 28.96875 63.984375 
Q 28.65625 64.265625 27.984375 64.40625 
Q 25.984375 64.796875 20.40625 64.796875 
Q 19.390625 64.796875 19.390625 66.109375 
Q 19.734375 67.390625 19.921875 67.84375 
Q 20.125 68.3125 21.09375 68.3125 
L 49.03125 68.3125 
Q 50 68.3125 50 67 
Q 49.953125 66.75 49.796875 66.15625 
Q 49.65625 65.578125 49.40625 65.1875 
Q 49.171875 64.796875 48.6875 64.796875 
Q 42.828125 64.796875 40.578125 64.40625 
Q 38.375 63.875 37.796875 61.375 
L 24.125 6.5 
Q 23.875 5.28125 23.875 5.171875 
Q 23.875 4.9375 23.953125 4.71875 
Q 24.03125 4.5 24.25 4.328125 
Q 24.46875 4.15625 24.6875 4.078125 
Q 24.90625 4 25.203125 3.90625 
Q 27.09375 3.515625 32.8125 3.515625 
Q 33.796875 3.515625 33.796875 2.203125 
Q 33.453125 0.78125 33.25 0.390625 
Q 33.0625 0 32.078125 0 
z
" id="Cmmi10-49"/>
     </defs>
     <g style="fill:#262626;" transform="translate(100.0 80.703125)scale(0.1 -0.1)">
      <use transform="translate(0.0 0.6875)" xlink:href="#Cmmi10-4b"/>
      <use transform="translate(84.912109375 -16.31875)scale(0.7)" xlink:href="#Cmmi10-49"/>
     </g>
    </g>
   </g>
  </g>
 </g>
 <defs>
  <clipPath id="pdb858fed6c">
   <rect height="390.6" width="390.6" x="63.0" y="50.4"/>
  </clipPath>
 </defs>
</svg>
