<?xml version="1.0" encoding="utf-8" standalone="no"?>
<!DOCTYPE svg PUBLIC "-//W3C//DTD SVG 1.1//EN"
  "http://www.w3.org/Graphics/SVG/1.1/DTD/svg11.dtd">
<!-- Created with matplotlib (http://matplotlib.org/) -->
<svg height="360pt" version="1.1" viewBox="0 0 720 360" width="720pt" xmlns="http://www.w3.org/2000/svg" xmlns:xlink="http://www.w3.org/1999/xlink">
 <defs>
  <style type="text/css">
*{stroke-linecap:butt;stroke-linejoin:round;stroke-miterlimit:100000;}
  </style>
 </defs>
 <g id="figure_1">
  <g id="patch_1">
   <path d="M 0 360 
L 720 360 
L 720 0 
L 0 0 
z
" style="fill:#ffffff;"/>
  </g>
  <g id="axes_1">
   <g id="patch_2">
    <path d="M 90 315 
L 343.636364 315 
L 343.636364 36 
L 90 36 
z
" style="fill:#eaeaf2;"/>
   </g>
   <g id="matplotlib.axis_1">
    <g id="xtick_1">
     <g id="line2d_1">
      <path clip-path="url(#pbf24ed6be7)" d="M 90 315 
L 90 36 
" style="fill:none;stroke:#ffffff;stroke-linecap:round;"/>
     </g>
     <g id="line2d_2">
      <defs>
       <path d="M 0 0 
L 0 0 
" id="m91e6ceffbb" style="stroke:#262626;"/>
      </defs>
      <g>
       <use style="fill:#262626;stroke:#262626;" x="90.0" xlink:href="#m91e6ceffbb" y="315.0"/>
      </g>
     </g>
     <g id="line2d_3">
      <g>
       <use style="fill:#262626;stroke:#262626;" x="90.0" xlink:href="#m91e6ceffbb" y="36.0"/>
      </g>
     </g>
     <g id="text_1">
      <!-- −100 -->
      <defs>
       <path d="M 4.15625 35.296875 
Q 4.15625 48 6.765625 55.734375 
Q 9.375 63.484375 14.515625 67.671875 
Q 19.671875 71.875 27.484375 71.875 
Q 33.25 71.875 37.59375 69.546875 
Q 41.9375 67.234375 44.765625 62.859375 
Q 47.609375 58.5 49.21875 52.21875 
Q 50.828125 45.953125 50.828125 35.296875 
Q 50.828125 22.703125 48.234375 14.96875 
Q 45.65625 7.234375 40.5 3 
Q 35.359375 -1.21875 27.484375 -1.21875 
Q 17.140625 -1.21875 11.234375 6.203125 
Q 4.15625 15.140625 4.15625 35.296875 
M 13.1875 35.296875 
Q 13.1875 17.671875 17.3125 11.828125 
Q 21.4375 6 27.484375 6 
Q 33.546875 6 37.671875 11.859375 
Q 41.796875 17.71875 41.796875 35.296875 
Q 41.796875 52.984375 37.671875 58.78125 
Q 33.546875 64.59375 27.390625 64.59375 
Q 21.34375 64.59375 17.71875 59.46875 
Q 13.1875 52.9375 13.1875 35.296875 
" id="ArialMT-30"/>
       <path d="M 37.25 0 
L 28.46875 0 
L 28.46875 56 
Q 25.296875 52.984375 20.140625 49.953125 
Q 14.984375 46.921875 10.890625 45.40625 
L 10.890625 53.90625 
Q 18.265625 57.375 23.78125 62.296875 
Q 29.296875 67.234375 31.59375 71.875 
L 37.25 71.875 
z
" id="ArialMT-31"/>
       <path d="M 52.828125 31.203125 
L 5.5625 31.203125 
L 5.5625 39.40625 
L 52.828125 39.40625 
z
" id="ArialMT-2212"/>
      </defs>
      <g style="fill:#262626;" transform="translate(78.73828125 329.1578125)scale(0.1 -0.1)">
       <use xlink:href="#ArialMT-2212"/>
       <use x="58.3984375" xlink:href="#ArialMT-31"/>
       <use x="114.013671875" xlink:href="#ArialMT-30"/>
       <use x="169.62890625" xlink:href="#ArialMT-30"/>
      </g>
     </g>
    </g>
    <g id="xtick_2">
     <g id="line2d_4">
      <path clip-path="url(#pbf24ed6be7)" d="M 140.727273 315 
L 140.727273 36 
" style="fill:none;stroke:#ffffff;stroke-linecap:round;"/>
     </g>
     <g id="line2d_5">
      <g>
       <use style="fill:#262626;stroke:#262626;" x="140.727272727" xlink:href="#m91e6ceffbb" y="315.0"/>
      </g>
     </g>
     <g id="line2d_6">
      <g>
       <use style="fill:#262626;stroke:#262626;" x="140.727272727" xlink:href="#m91e6ceffbb" y="36.0"/>
      </g>
     </g>
     <g id="text_2">
      <!-- −80 -->
      <defs>
       <path d="M 17.671875 38.8125 
Q 12.203125 40.828125 9.5625 44.53125 
Q 6.9375 48.25 6.9375 53.421875 
Q 6.9375 61.234375 12.546875 66.546875 
Q 18.171875 71.875 27.484375 71.875 
Q 36.859375 71.875 42.578125 66.421875 
Q 48.296875 60.984375 48.296875 53.171875 
Q 48.296875 48.1875 45.671875 44.5 
Q 43.0625 40.828125 37.75 38.8125 
Q 44.34375 36.671875 47.78125 31.875 
Q 51.21875 27.09375 51.21875 20.453125 
Q 51.21875 11.28125 44.71875 5.03125 
Q 38.234375 -1.21875 27.640625 -1.21875 
Q 17.046875 -1.21875 10.546875 5.046875 
Q 4.046875 11.328125 4.046875 20.703125 
Q 4.046875 27.6875 7.59375 32.390625 
Q 11.140625 37.109375 17.671875 38.8125 
M 15.921875 53.71875 
Q 15.921875 48.640625 19.1875 45.40625 
Q 22.46875 42.1875 27.6875 42.1875 
Q 32.765625 42.1875 36.015625 45.375 
Q 39.265625 48.578125 39.265625 53.21875 
Q 39.265625 58.0625 35.90625 61.359375 
Q 32.5625 64.65625 27.59375 64.65625 
Q 22.5625 64.65625 19.234375 61.421875 
Q 15.921875 58.203125 15.921875 53.71875 
M 13.09375 20.65625 
Q 13.09375 16.890625 14.875 13.375 
Q 16.65625 9.859375 20.171875 7.921875 
Q 23.6875 6 27.734375 6 
Q 34.03125 6 38.125 10.046875 
Q 42.234375 14.109375 42.234375 20.359375 
Q 42.234375 26.703125 38.015625 30.859375 
Q 33.796875 35.015625 27.4375 35.015625 
Q 21.234375 35.015625 17.15625 30.90625 
Q 13.09375 26.8125 13.09375 20.65625 
" id="ArialMT-38"/>
      </defs>
      <g style="fill:#262626;" transform="translate(132.246022727 329.1578125)scale(0.1 -0.1)">
       <use xlink:href="#ArialMT-2212"/>
       <use x="58.3984375" xlink:href="#ArialMT-38"/>
       <use x="114.013671875" xlink:href="#ArialMT-30"/>
      </g>
     </g>
    </g>
    <g id="xtick_3">
     <g id="line2d_7">
      <path clip-path="url(#pbf24ed6be7)" d="M 191.454545 315 
L 191.454545 36 
" style="fill:none;stroke:#ffffff;stroke-linecap:round;"/>
     </g>
     <g id="line2d_8">
      <g>
       <use style="fill:#262626;stroke:#262626;" x="191.454545455" xlink:href="#m91e6ceffbb" y="315.0"/>
      </g>
     </g>
     <g id="line2d_9">
      <g>
       <use style="fill:#262626;stroke:#262626;" x="191.454545455" xlink:href="#m91e6ceffbb" y="36.0"/>
      </g>
     </g>
     <g id="text_3">
      <!-- −60 -->
      <defs>
       <path d="M 49.75 54.046875 
L 41.015625 53.375 
Q 39.84375 58.546875 37.703125 60.890625 
Q 34.125 64.65625 28.90625 64.65625 
Q 24.703125 64.65625 21.53125 62.3125 
Q 17.390625 59.28125 14.984375 53.46875 
Q 12.59375 47.65625 12.5 36.921875 
Q 15.671875 41.75 20.265625 44.09375 
Q 24.859375 46.4375 29.890625 46.4375 
Q 38.671875 46.4375 44.84375 39.96875 
Q 51.03125 33.5 51.03125 23.25 
Q 51.03125 16.5 48.125 10.71875 
Q 45.21875 4.9375 40.140625 1.859375 
Q 35.0625 -1.21875 28.609375 -1.21875 
Q 17.625 -1.21875 10.6875 6.859375 
Q 3.765625 14.9375 3.765625 33.5 
Q 3.765625 54.25 11.421875 63.671875 
Q 18.109375 71.875 29.4375 71.875 
Q 37.890625 71.875 43.28125 67.140625 
Q 48.6875 62.40625 49.75 54.046875 
M 13.875 23.1875 
Q 13.875 18.65625 15.796875 14.5 
Q 17.71875 10.359375 21.1875 8.171875 
Q 24.65625 6 28.46875 6 
Q 34.03125 6 38.03125 10.484375 
Q 42.046875 14.984375 42.046875 22.703125 
Q 42.046875 30.125 38.078125 34.390625 
Q 34.125 38.671875 28.125 38.671875 
Q 22.171875 38.671875 18.015625 34.390625 
Q 13.875 30.125 13.875 23.1875 
" id="ArialMT-36"/>
      </defs>
      <g style="fill:#262626;" transform="translate(182.973295455 329.1578125)scale(0.1 -0.1)">
       <use xlink:href="#ArialMT-2212"/>
       <use x="58.3984375" xlink:href="#ArialMT-36"/>
       <use x="114.013671875" xlink:href="#ArialMT-30"/>
      </g>
     </g>
    </g>
    <g id="xtick_4">
     <g id="line2d_10">
      <path clip-path="url(#pbf24ed6be7)" d="M 242.181818 315 
L 242.181818 36 
" style="fill:none;stroke:#ffffff;stroke-linecap:round;"/>
     </g>
     <g id="line2d_11">
      <g>
       <use style="fill:#262626;stroke:#262626;" x="242.181818182" xlink:href="#m91e6ceffbb" y="315.0"/>
      </g>
     </g>
     <g id="line2d_12">
      <g>
       <use style="fill:#262626;stroke:#262626;" x="242.181818182" xlink:href="#m91e6ceffbb" y="36.0"/>
      </g>
     </g>
     <g id="text_4">
      <!-- −40 -->
      <defs>
       <path d="M 32.328125 0 
L 32.328125 17.140625 
L 1.265625 17.140625 
L 1.265625 25.203125 
L 33.9375 71.578125 
L 41.109375 71.578125 
L 41.109375 25.203125 
L 50.78125 25.203125 
L 50.78125 17.140625 
L 41.109375 17.140625 
L 41.109375 0 
z
M 32.328125 25.203125 
L 32.328125 57.46875 
L 9.90625 25.203125 
z
" id="ArialMT-34"/>
      </defs>
      <g style="fill:#262626;" transform="translate(233.700568182 329.1578125)scale(0.1 -0.1)">
       <use xlink:href="#ArialMT-2212"/>
       <use x="58.3984375" xlink:href="#ArialMT-34"/>
       <use x="114.013671875" xlink:href="#ArialMT-30"/>
      </g>
     </g>
    </g>
    <g id="xtick_5">
     <g id="line2d_13">
      <path clip-path="url(#pbf24ed6be7)" d="M 292.909091 315 
L 292.909091 36 
" style="fill:none;stroke:#ffffff;stroke-linecap:round;"/>
     </g>
     <g id="line2d_14">
      <g>
       <use style="fill:#262626;stroke:#262626;" x="292.909090909" xlink:href="#m91e6ceffbb" y="315.0"/>
      </g>
     </g>
     <g id="line2d_15">
      <g>
       <use style="fill:#262626;stroke:#262626;" x="292.909090909" xlink:href="#m91e6ceffbb" y="36.0"/>
      </g>
     </g>
     <g id="text_5">
      <!-- −20 -->
      <defs>
       <path d="M 50.34375 8.453125 
L 50.34375 0 
L 3.03125 0 
Q 2.9375 3.171875 4.046875 6.109375 
Q 5.859375 10.9375 9.828125 15.625 
Q 13.8125 20.3125 21.34375 26.46875 
Q 33.015625 36.03125 37.109375 41.625 
Q 41.21875 47.21875 41.21875 52.203125 
Q 41.21875 57.421875 37.46875 61 
Q 33.734375 64.59375 27.734375 64.59375 
Q 21.390625 64.59375 17.578125 60.78125 
Q 13.765625 56.984375 13.71875 50.25 
L 4.6875 51.171875 
Q 5.609375 61.28125 11.65625 66.578125 
Q 17.71875 71.875 27.9375 71.875 
Q 38.234375 71.875 44.234375 66.15625 
Q 50.25 60.453125 50.25 52 
Q 50.25 47.703125 48.484375 43.546875 
Q 46.734375 39.40625 42.65625 34.8125 
Q 38.578125 30.21875 29.109375 22.21875 
Q 21.1875 15.578125 18.9375 13.203125 
Q 16.703125 10.84375 15.234375 8.453125 
z
" id="ArialMT-32"/>
      </defs>
      <g style="fill:#262626;" transform="translate(284.427840909 329.1578125)scale(0.1 -0.1)">
       <use xlink:href="#ArialMT-2212"/>
       <use x="58.3984375" xlink:href="#ArialMT-32"/>
       <use x="114.013671875" xlink:href="#ArialMT-30"/>
      </g>
     </g>
    </g>
    <g id="xtick_6">
     <g id="line2d_16">
      <path clip-path="url(#pbf24ed6be7)" d="M 343.636364 315 
L 343.636364 36 
" style="fill:none;stroke:#ffffff;stroke-linecap:round;"/>
     </g>
     <g id="line2d_17">
      <g>
       <use style="fill:#262626;stroke:#262626;" x="343.636363636" xlink:href="#m91e6ceffbb" y="315.0"/>
      </g>
     </g>
     <g id="line2d_18">
      <g>
       <use style="fill:#262626;stroke:#262626;" x="343.636363636" xlink:href="#m91e6ceffbb" y="36.0"/>
      </g>
     </g>
     <g id="text_6">
      <!-- 0 -->
      <g style="fill:#262626;" transform="translate(340.855894886 329.1578125)scale(0.1 -0.1)">
       <use xlink:href="#ArialMT-30"/>
      </g>
     </g>
    </g>
    <g id="text_7">
     <!-- Shadow Price -->
     <defs>
      <path d="M 40.4375 19 
L 49.078125 17.875 
Q 47.65625 8.9375 41.8125 3.875 
Q 35.984375 -1.171875 27.484375 -1.171875 
Q 16.84375 -1.171875 10.375 5.78125 
Q 3.90625 12.75 3.90625 25.734375 
Q 3.90625 34.125 6.6875 40.421875 
Q 9.46875 46.734375 15.15625 49.875 
Q 20.84375 53.03125 27.546875 53.03125 
Q 35.984375 53.03125 41.359375 48.75 
Q 46.734375 44.484375 48.25 36.625 
L 39.703125 35.296875 
Q 38.484375 40.53125 35.375 43.15625 
Q 32.28125 45.796875 27.875 45.796875 
Q 21.234375 45.796875 17.078125 41.03125 
Q 12.9375 36.28125 12.9375 25.984375 
Q 12.9375 15.53125 16.9375 10.796875 
Q 20.953125 6.0625 27.390625 6.0625 
Q 32.5625 6.0625 36.03125 9.234375 
Q 39.5 12.40625 40.4375 19 
" id="ArialMT-63"/>
      <path d="M 40.4375 6.390625 
Q 35.546875 2.25 31.03125 0.53125 
Q 26.515625 -1.171875 21.34375 -1.171875 
Q 12.796875 -1.171875 8.203125 3 
Q 3.609375 7.171875 3.609375 13.671875 
Q 3.609375 17.484375 5.34375 20.625 
Q 7.078125 23.78125 9.890625 25.6875 
Q 12.703125 27.59375 16.21875 28.5625 
Q 18.796875 29.25 24.03125 29.890625 
Q 34.671875 31.15625 39.703125 32.90625 
Q 39.75 34.71875 39.75 35.203125 
Q 39.75 40.578125 37.25 42.78125 
Q 33.890625 45.75 27.25 45.75 
Q 21.046875 45.75 18.09375 43.578125 
Q 15.140625 41.40625 13.71875 35.890625 
L 5.125 37.0625 
Q 6.296875 42.578125 8.984375 45.96875 
Q 11.671875 49.359375 16.75 51.1875 
Q 21.828125 53.03125 28.515625 53.03125 
Q 35.15625 53.03125 39.296875 51.46875 
Q 43.453125 49.90625 45.40625 47.53125 
Q 47.359375 45.171875 48.140625 41.546875 
Q 48.578125 39.3125 48.578125 33.453125 
L 48.578125 21.734375 
Q 48.578125 9.46875 49.140625 6.21875 
Q 49.703125 2.984375 51.375 0 
L 42.1875 0 
Q 40.828125 2.734375 40.4375 6.390625 
M 39.703125 26.03125 
Q 34.90625 24.078125 25.34375 22.703125 
Q 19.921875 21.921875 17.671875 20.9375 
Q 15.4375 19.96875 14.203125 18.09375 
Q 12.984375 16.21875 12.984375 13.921875 
Q 12.984375 10.40625 15.640625 8.0625 
Q 18.3125 5.71875 23.4375 5.71875 
Q 28.515625 5.71875 32.46875 7.9375 
Q 36.421875 10.15625 38.28125 14.015625 
Q 39.703125 17 39.703125 22.796875 
z
" id="ArialMT-61"/>
      <path d="M 16.15625 0 
L 0.296875 51.859375 
L 9.375 51.859375 
L 17.625 21.921875 
L 20.703125 10.796875 
Q 20.90625 11.625 23.390625 21.484375 
L 31.640625 51.859375 
L 40.671875 51.859375 
L 48.4375 21.78125 
L 51.03125 11.859375 
L 54 21.875 
L 62.890625 51.859375 
L 71.4375 51.859375 
L 55.21875 0 
L 46.09375 0 
L 37.84375 31.0625 
L 35.84375 39.890625 
L 25.34375 0 
z
" id="ArialMT-77"/>
      <path d="M 42.09375 16.703125 
L 51.171875 15.578125 
Q 49.03125 7.625 43.21875 3.21875 
Q 37.40625 -1.171875 28.375 -1.171875 
Q 17 -1.171875 10.328125 5.828125 
Q 3.65625 12.84375 3.65625 25.484375 
Q 3.65625 38.578125 10.390625 45.796875 
Q 17.140625 53.03125 27.875 53.03125 
Q 38.28125 53.03125 44.875 45.953125 
Q 51.46875 38.875 51.46875 26.03125 
Q 51.46875 25.25 51.421875 23.6875 
L 12.75 23.6875 
Q 13.234375 15.140625 17.578125 10.59375 
Q 21.921875 6.0625 28.421875 6.0625 
Q 33.25 6.0625 36.671875 8.59375 
Q 40.09375 11.140625 42.09375 16.703125 
M 13.234375 30.90625 
L 42.1875 30.90625 
Q 41.609375 37.453125 38.875 40.71875 
Q 34.671875 45.796875 27.984375 45.796875 
Q 21.921875 45.796875 17.796875 41.75 
Q 13.671875 37.703125 13.234375 30.90625 
" id="ArialMT-65"/>
      <path d="M 40.234375 0 
L 40.234375 6.546875 
Q 35.296875 -1.171875 25.734375 -1.171875 
Q 19.53125 -1.171875 14.328125 2.25 
Q 9.125 5.671875 6.265625 11.796875 
Q 3.421875 17.921875 3.421875 25.875 
Q 3.421875 33.640625 6 39.96875 
Q 8.59375 46.296875 13.765625 49.65625 
Q 18.953125 53.03125 25.34375 53.03125 
Q 30.03125 53.03125 33.6875 51.046875 
Q 37.359375 49.078125 39.65625 45.90625 
L 39.65625 71.578125 
L 48.390625 71.578125 
L 48.390625 0 
z
M 12.453125 25.875 
Q 12.453125 15.921875 16.640625 10.984375 
Q 20.84375 6.0625 26.5625 6.0625 
Q 32.328125 6.0625 36.34375 10.765625 
Q 40.375 15.484375 40.375 25.140625 
Q 40.375 35.796875 36.265625 40.765625 
Q 32.171875 45.75 26.171875 45.75 
Q 20.3125 45.75 16.375 40.96875 
Q 12.453125 36.1875 12.453125 25.875 
" id="ArialMT-64"/>
      <path d="M 4.5 23 
L 13.421875 23.78125 
Q 14.0625 18.40625 16.375 14.96875 
Q 18.703125 11.53125 23.578125 9.40625 
Q 28.46875 7.28125 34.578125 7.28125 
Q 39.984375 7.28125 44.140625 8.890625 
Q 48.296875 10.5 50.3125 13.296875 
Q 52.34375 16.109375 52.34375 19.4375 
Q 52.34375 22.796875 50.390625 25.3125 
Q 48.4375 27.828125 43.953125 29.546875 
Q 41.0625 30.671875 31.203125 33.03125 
Q 21.34375 35.40625 17.390625 37.5 
Q 12.25 40.1875 9.734375 44.15625 
Q 7.234375 48.140625 7.234375 53.078125 
Q 7.234375 58.5 10.296875 63.203125 
Q 13.375 67.921875 19.28125 70.359375 
Q 25.203125 72.796875 32.421875 72.796875 
Q 40.375 72.796875 46.453125 70.234375 
Q 52.546875 67.671875 55.8125 62.6875 
Q 59.078125 57.71875 59.328125 51.421875 
L 50.25 50.734375 
Q 49.515625 57.515625 45.28125 60.984375 
Q 41.0625 64.453125 32.8125 64.453125 
Q 24.21875 64.453125 20.28125 61.296875 
Q 16.359375 58.15625 16.359375 53.71875 
Q 16.359375 49.859375 19.140625 47.359375 
Q 21.875 44.875 33.421875 42.265625 
Q 44.96875 39.65625 49.265625 37.703125 
Q 55.515625 34.8125 58.484375 30.390625 
Q 61.46875 25.984375 61.46875 20.21875 
Q 61.46875 14.5 58.203125 9.4375 
Q 54.9375 4.390625 48.796875 1.578125 
Q 42.671875 -1.21875 35.015625 -1.21875 
Q 25.296875 -1.21875 18.71875 1.609375 
Q 12.15625 4.4375 8.421875 10.125 
Q 4.6875 15.828125 4.5 23 
" id="ArialMT-53"/>
      <path d="M 7.71875 0 
L 7.71875 71.578125 
L 34.71875 71.578125 
Q 41.84375 71.578125 45.609375 70.90625 
Q 50.875 70.015625 54.4375 67.546875 
Q 58.015625 65.09375 60.1875 60.640625 
Q 62.359375 56.203125 62.359375 50.875 
Q 62.359375 41.75 56.546875 35.421875 
Q 50.734375 29.109375 35.546875 29.109375 
L 17.1875 29.109375 
L 17.1875 0 
z
M 17.1875 37.546875 
L 35.6875 37.546875 
Q 44.875 37.546875 48.734375 40.96875 
Q 52.59375 44.390625 52.59375 50.59375 
Q 52.59375 55.078125 50.3125 58.265625 
Q 48.046875 61.46875 44.34375 62.5 
Q 41.9375 63.140625 35.5 63.140625 
L 17.1875 63.140625 
z
" id="ArialMT-50"/>
      <path d="M 6.59375 0 
L 6.59375 71.578125 
L 15.375 71.578125 
L 15.375 45.90625 
Q 21.53125 53.03125 30.90625 53.03125 
Q 36.671875 53.03125 40.921875 50.75 
Q 45.171875 48.484375 47 44.484375 
Q 48.828125 40.484375 48.828125 32.859375 
L 48.828125 0 
L 40.046875 0 
L 40.046875 32.859375 
Q 40.046875 39.453125 37.1875 42.453125 
Q 34.328125 45.453125 29.109375 45.453125 
Q 25.203125 45.453125 21.75 43.421875 
Q 18.3125 41.40625 16.84375 37.9375 
Q 15.375 34.46875 15.375 28.375 
L 15.375 0 
z
" id="ArialMT-68"/>
      <path d="M 6.5 0 
L 6.5 51.859375 
L 14.40625 51.859375 
L 14.40625 44 
Q 17.4375 49.515625 20 51.265625 
Q 22.5625 53.03125 25.640625 53.03125 
Q 30.078125 53.03125 34.671875 50.203125 
L 31.640625 42.046875 
Q 28.421875 43.953125 25.203125 43.953125 
Q 22.3125 43.953125 20.015625 42.21875 
Q 17.71875 40.484375 16.75 37.40625 
Q 15.28125 32.71875 15.28125 27.15625 
L 15.28125 0 
z
" id="ArialMT-72"/>
      <path d="M 3.328125 25.921875 
Q 3.328125 40.328125 11.328125 47.265625 
Q 18.015625 53.03125 27.640625 53.03125 
Q 38.328125 53.03125 45.109375 46.015625 
Q 51.90625 39.015625 51.90625 26.65625 
Q 51.90625 16.65625 48.90625 10.90625 
Q 45.90625 5.171875 40.15625 2 
Q 34.421875 -1.171875 27.640625 -1.171875 
Q 16.75 -1.171875 10.03125 5.8125 
Q 3.328125 12.796875 3.328125 25.921875 
M 12.359375 25.921875 
Q 12.359375 15.96875 16.703125 11.015625 
Q 21.046875 6.0625 27.640625 6.0625 
Q 34.1875 6.0625 38.53125 11.03125 
Q 42.875 16.015625 42.875 26.21875 
Q 42.875 35.84375 38.5 40.796875 
Q 34.125 45.75 27.640625 45.75 
Q 21.046875 45.75 16.703125 40.8125 
Q 12.359375 35.890625 12.359375 25.921875 
" id="ArialMT-6f"/>
      <path d="M 6.640625 61.46875 
L 6.640625 71.578125 
L 15.4375 71.578125 
L 15.4375 61.46875 
z
M 6.640625 0 
L 6.640625 51.859375 
L 15.4375 51.859375 
L 15.4375 0 
z
" id="ArialMT-69"/>
      <path id="ArialMT-20"/>
     </defs>
     <g style="fill:#262626;" transform="translate(182.884900568 344.01890625)scale(0.11 -0.11)">
      <use xlink:href="#ArialMT-53"/>
      <use x="66.69921875" xlink:href="#ArialMT-68"/>
      <use x="122.314453125" xlink:href="#ArialMT-61"/>
      <use x="177.9296875" xlink:href="#ArialMT-64"/>
      <use x="233.544921875" xlink:href="#ArialMT-6f"/>
      <use x="289.16015625" xlink:href="#ArialMT-77"/>
      <use x="361.376953125" xlink:href="#ArialMT-20"/>
      <use x="389.16015625" xlink:href="#ArialMT-50"/>
      <use x="455.859375" xlink:href="#ArialMT-72"/>
      <use x="489.16015625" xlink:href="#ArialMT-69"/>
      <use x="511.376953125" xlink:href="#ArialMT-63"/>
      <use x="561.376953125" xlink:href="#ArialMT-65"/>
     </g>
    </g>
   </g>
   <g id="matplotlib.axis_2">
    <g id="ytick_1">
     <g id="line2d_19">
      <path clip-path="url(#pbf24ed6be7)" d="M 90 315 
L 343.636364 315 
" style="fill:none;stroke:#ffffff;stroke-linecap:round;"/>
     </g>
     <g id="line2d_20">
      <g>
       <use style="fill:#262626;stroke:#262626;" x="90.0" xlink:href="#m91e6ceffbb" y="315.0"/>
      </g>
     </g>
     <g id="line2d_21">
      <g>
       <use style="fill:#262626;stroke:#262626;" x="343.636363636" xlink:href="#m91e6ceffbb" y="315.0"/>
      </g>
     </g>
     <g id="text_8">
      <!-- 0.0 -->
      <defs>
       <path d="M 9.078125 0 
L 9.078125 10.015625 
L 19.09375 10.015625 
L 19.09375 0 
z
" id="ArialMT-2e"/>
      </defs>
      <g style="fill:#262626;" transform="translate(69.1 317.58515625)scale(0.1 -0.1)">
       <use xlink:href="#ArialMT-30"/>
       <use x="55.615234375" xlink:href="#ArialMT-2e"/>
       <use x="83.3984375" xlink:href="#ArialMT-30"/>
      </g>
     </g>
    </g>
    <g id="ytick_2">
     <g id="line2d_22">
      <path clip-path="url(#pbf24ed6be7)" d="M 90 259.2 
L 343.636364 259.2 
" style="fill:none;stroke:#ffffff;stroke-linecap:round;"/>
     </g>
     <g id="line2d_23">
      <g>
       <use style="fill:#262626;stroke:#262626;" x="90.0" xlink:href="#m91e6ceffbb" y="259.2"/>
      </g>
     </g>
     <g id="line2d_24">
      <g>
       <use style="fill:#262626;stroke:#262626;" x="343.636363636" xlink:href="#m91e6ceffbb" y="259.2"/>
      </g>
     </g>
     <g id="text_9">
      <!-- 0.2 -->
      <g style="fill:#262626;" transform="translate(69.1 261.78515625)scale(0.1 -0.1)">
       <use xlink:href="#ArialMT-30"/>
       <use x="55.615234375" xlink:href="#ArialMT-2e"/>
       <use x="83.3984375" xlink:href="#ArialMT-32"/>
      </g>
     </g>
    </g>
    <g id="ytick_3">
     <g id="line2d_25">
      <path clip-path="url(#pbf24ed6be7)" d="M 90 203.4 
L 343.636364 203.4 
" style="fill:none;stroke:#ffffff;stroke-linecap:round;"/>
     </g>
     <g id="line2d_26">
      <g>
       <use style="fill:#262626;stroke:#262626;" x="90.0" xlink:href="#m91e6ceffbb" y="203.4"/>
      </g>
     </g>
     <g id="line2d_27">
      <g>
       <use style="fill:#262626;stroke:#262626;" x="343.636363636" xlink:href="#m91e6ceffbb" y="203.4"/>
      </g>
     </g>
     <g id="text_10">
      <!-- 0.4 -->
      <g style="fill:#262626;" transform="translate(69.1 205.98515625)scale(0.1 -0.1)">
       <use xlink:href="#ArialMT-30"/>
       <use x="55.615234375" xlink:href="#ArialMT-2e"/>
       <use x="83.3984375" xlink:href="#ArialMT-34"/>
      </g>
     </g>
    </g>
    <g id="ytick_4">
     <g id="line2d_28">
      <path clip-path="url(#pbf24ed6be7)" d="M 90 147.6 
L 343.636364 147.6 
" style="fill:none;stroke:#ffffff;stroke-linecap:round;"/>
     </g>
     <g id="line2d_29">
      <g>
       <use style="fill:#262626;stroke:#262626;" x="90.0" xlink:href="#m91e6ceffbb" y="147.6"/>
      </g>
     </g>
     <g id="line2d_30">
      <g>
       <use style="fill:#262626;stroke:#262626;" x="343.636363636" xlink:href="#m91e6ceffbb" y="147.6"/>
      </g>
     </g>
     <g id="text_11">
      <!-- 0.6 -->
      <g style="fill:#262626;" transform="translate(69.1 150.18515625)scale(0.1 -0.1)">
       <use xlink:href="#ArialMT-30"/>
       <use x="55.615234375" xlink:href="#ArialMT-2e"/>
       <use x="83.3984375" xlink:href="#ArialMT-36"/>
      </g>
     </g>
    </g>
    <g id="ytick_5">
     <g id="line2d_31">
      <path clip-path="url(#pbf24ed6be7)" d="M 90 91.8 
L 343.636364 91.8 
" style="fill:none;stroke:#ffffff;stroke-linecap:round;"/>
     </g>
     <g id="line2d_32">
      <g>
       <use style="fill:#262626;stroke:#262626;" x="90.0" xlink:href="#m91e6ceffbb" y="91.8"/>
      </g>
     </g>
     <g id="line2d_33">
      <g>
       <use style="fill:#262626;stroke:#262626;" x="343.636363636" xlink:href="#m91e6ceffbb" y="91.8"/>
      </g>
     </g>
     <g id="text_12">
      <!-- 0.8 -->
      <g style="fill:#262626;" transform="translate(69.1 94.38515625)scale(0.1 -0.1)">
       <use xlink:href="#ArialMT-30"/>
       <use x="55.615234375" xlink:href="#ArialMT-2e"/>
       <use x="83.3984375" xlink:href="#ArialMT-38"/>
      </g>
     </g>
    </g>
    <g id="ytick_6">
     <g id="line2d_34">
      <path clip-path="url(#pbf24ed6be7)" d="M 90 36 
L 343.636364 36 
" style="fill:none;stroke:#ffffff;stroke-linecap:round;"/>
     </g>
     <g id="line2d_35">
      <g>
       <use style="fill:#262626;stroke:#262626;" x="90.0" xlink:href="#m91e6ceffbb" y="36.0"/>
      </g>
     </g>
     <g id="line2d_36">
      <g>
       <use style="fill:#262626;stroke:#262626;" x="343.636363636" xlink:href="#m91e6ceffbb" y="36.0"/>
      </g>
     </g>
     <g id="text_13">
      <!-- 1.0 -->
      <g style="fill:#262626;" transform="translate(69.1 38.58515625)scale(0.1 -0.1)">
       <use xlink:href="#ArialMT-31"/>
       <use x="55.615234375" xlink:href="#ArialMT-2e"/>
       <use x="83.3984375" xlink:href="#ArialMT-30"/>
      </g>
     </g>
    </g>
    <g id="text_14">
     <!-- Cumulative Distribution -->
     <defs>
      <path d="M 14.703125 0 
L 6.546875 0 
L 6.546875 71.578125 
L 15.328125 71.578125 
L 15.328125 46.046875 
Q 20.90625 53.03125 29.546875 53.03125 
Q 34.328125 53.03125 38.59375 51.09375 
Q 42.875 49.171875 45.625 45.671875 
Q 48.390625 42.1875 49.953125 37.25 
Q 51.515625 32.328125 51.515625 26.703125 
Q 51.515625 13.375 44.921875 6.09375 
Q 38.328125 -1.171875 29.109375 -1.171875 
Q 19.921875 -1.171875 14.703125 6.5 
z
M 14.59375 26.3125 
Q 14.59375 17 17.140625 12.84375 
Q 21.296875 6.0625 28.375 6.0625 
Q 34.125 6.0625 38.328125 11.0625 
Q 42.53125 16.0625 42.53125 25.984375 
Q 42.53125 36.140625 38.5 40.96875 
Q 34.46875 45.796875 28.765625 45.796875 
Q 23 45.796875 18.796875 40.796875 
Q 14.59375 35.796875 14.59375 26.3125 
" id="ArialMT-62"/>
      <path d="M 25.78125 7.859375 
L 27.046875 0.09375 
Q 23.34375 -0.6875 20.40625 -0.6875 
Q 15.625 -0.6875 12.984375 0.828125 
Q 10.359375 2.34375 9.28125 4.8125 
Q 8.203125 7.28125 8.203125 15.1875 
L 8.203125 45.015625 
L 1.765625 45.015625 
L 1.765625 51.859375 
L 8.203125 51.859375 
L 8.203125 64.703125 
L 16.9375 69.96875 
L 16.9375 51.859375 
L 25.78125 51.859375 
L 25.78125 45.015625 
L 16.9375 45.015625 
L 16.9375 14.703125 
Q 16.9375 10.9375 17.40625 9.859375 
Q 17.875 8.796875 18.921875 8.15625 
Q 19.96875 7.515625 21.921875 7.515625 
Q 23.390625 7.515625 25.78125 7.859375 
" id="ArialMT-74"/>
      <path d="M 40.578125 0 
L 40.578125 7.625 
Q 34.515625 -1.171875 24.125 -1.171875 
Q 19.53125 -1.171875 15.546875 0.578125 
Q 11.578125 2.34375 9.640625 5 
Q 7.71875 7.671875 6.9375 11.53125 
Q 6.390625 14.109375 6.390625 19.734375 
L 6.390625 51.859375 
L 15.1875 51.859375 
L 15.1875 23.09375 
Q 15.1875 16.21875 15.71875 13.8125 
Q 16.546875 10.359375 19.234375 8.375 
Q 21.921875 6.390625 25.875 6.390625 
Q 29.828125 6.390625 33.296875 8.421875 
Q 36.765625 10.453125 38.203125 13.9375 
Q 39.65625 17.4375 39.65625 24.078125 
L 39.65625 51.859375 
L 48.4375 51.859375 
L 48.4375 0 
z
" id="ArialMT-75"/>
      <path d="M 58.796875 25.09375 
L 68.265625 22.703125 
Q 65.28125 11.03125 57.546875 4.90625 
Q 49.8125 -1.21875 38.625 -1.21875 
Q 27.046875 -1.21875 19.796875 3.484375 
Q 12.546875 8.203125 8.765625 17.140625 
Q 4.984375 26.078125 4.984375 36.328125 
Q 4.984375 47.515625 9.25 55.828125 
Q 13.53125 64.15625 21.40625 68.46875 
Q 29.296875 72.796875 38.765625 72.796875 
Q 49.515625 72.796875 56.828125 67.328125 
Q 64.15625 61.859375 67.046875 51.953125 
L 57.71875 49.75 
Q 55.21875 57.5625 50.484375 61.125 
Q 45.75 64.703125 38.578125 64.703125 
Q 30.328125 64.703125 24.78125 60.734375 
Q 19.234375 56.78125 16.984375 50.109375 
Q 14.75 43.453125 14.75 36.375 
Q 14.75 27.25 17.40625 20.4375 
Q 20.0625 13.625 25.671875 10.25 
Q 31.296875 6.890625 37.84375 6.890625 
Q 45.796875 6.890625 51.3125 11.46875 
Q 56.84375 16.0625 58.796875 25.09375 
" id="ArialMT-43"/>
      <path d="M 7.71875 0 
L 7.71875 71.578125 
L 32.375 71.578125 
Q 40.71875 71.578125 45.125 70.5625 
Q 51.265625 69.140625 55.609375 65.4375 
Q 61.28125 60.640625 64.078125 53.1875 
Q 66.890625 45.75 66.890625 36.1875 
Q 66.890625 28.03125 64.984375 21.734375 
Q 63.09375 15.4375 60.109375 11.296875 
Q 57.125 7.171875 53.578125 4.796875 
Q 50.046875 2.4375 45.046875 1.21875 
Q 40.046875 0 33.546875 0 
z
M 17.1875 8.453125 
L 32.46875 8.453125 
Q 39.546875 8.453125 43.578125 9.765625 
Q 47.609375 11.078125 50 13.484375 
Q 53.375 16.84375 55.25 22.53125 
Q 57.125 28.21875 57.125 36.328125 
Q 57.125 47.5625 53.4375 53.59375 
Q 49.75 59.625 44.484375 61.671875 
Q 40.671875 63.140625 32.234375 63.140625 
L 17.1875 63.140625 
z
" id="ArialMT-44"/>
      <path d="M 3.078125 15.484375 
L 11.765625 16.84375 
Q 12.5 11.625 15.84375 8.84375 
Q 19.1875 6.0625 25.203125 6.0625 
Q 31.25 6.0625 34.171875 8.515625 
Q 37.109375 10.984375 37.109375 14.3125 
Q 37.109375 17.28125 34.515625 19 
Q 32.71875 20.171875 25.53125 21.96875 
Q 15.875 24.421875 12.140625 26.203125 
Q 8.40625 27.984375 6.46875 31.125 
Q 4.546875 34.28125 4.546875 38.09375 
Q 4.546875 41.546875 6.125 44.5 
Q 7.71875 47.46875 10.453125 49.421875 
Q 12.5 50.921875 16.03125 51.96875 
Q 19.578125 53.03125 23.640625 53.03125 
Q 29.734375 53.03125 34.34375 51.265625 
Q 38.96875 49.515625 41.15625 46.5 
Q 43.359375 43.5 44.1875 38.484375 
L 35.59375 37.3125 
Q 35.015625 41.3125 32.203125 43.546875 
Q 29.390625 45.796875 24.265625 45.796875 
Q 18.21875 45.796875 15.625 43.796875 
Q 13.03125 41.796875 13.03125 39.109375 
Q 13.03125 37.40625 14.109375 36.03125 
Q 15.1875 34.625 17.484375 33.6875 
Q 18.796875 33.203125 25.25 31.453125 
Q 34.578125 28.953125 38.25 27.359375 
Q 41.9375 25.78125 44.03125 22.75 
Q 46.140625 19.734375 46.140625 15.234375 
Q 46.140625 10.84375 43.578125 6.953125 
Q 41.015625 3.078125 36.171875 0.953125 
Q 31.34375 -1.171875 25.25 -1.171875 
Q 15.140625 -1.171875 9.84375 3.03125 
Q 4.546875 7.234375 3.078125 15.484375 
" id="ArialMT-73"/>
      <path d="M 6.390625 0 
L 6.390625 71.578125 
L 15.1875 71.578125 
L 15.1875 0 
z
" id="ArialMT-6c"/>
      <path d="M 6.59375 0 
L 6.59375 51.859375 
L 14.5 51.859375 
L 14.5 44.484375 
Q 20.21875 53.03125 31 53.03125 
Q 35.6875 53.03125 39.625 51.34375 
Q 43.5625 49.65625 45.515625 46.921875 
Q 47.46875 44.1875 48.25 40.4375 
Q 48.734375 37.984375 48.734375 31.890625 
L 48.734375 0 
L 39.9375 0 
L 39.9375 31.546875 
Q 39.9375 36.921875 38.90625 39.578125 
Q 37.890625 42.234375 35.28125 43.8125 
Q 32.671875 45.40625 29.15625 45.40625 
Q 23.53125 45.40625 19.453125 41.84375 
Q 15.375 38.28125 15.375 28.328125 
L 15.375 0 
z
" id="ArialMT-6e"/>
      <path d="M 6.59375 0 
L 6.59375 51.859375 
L 14.453125 51.859375 
L 14.453125 44.578125 
Q 16.890625 48.390625 20.9375 50.703125 
Q 25 53.03125 30.171875 53.03125 
Q 35.9375 53.03125 39.625 50.640625 
Q 43.3125 48.25 44.828125 43.953125 
Q 50.984375 53.03125 60.84375 53.03125 
Q 68.5625 53.03125 72.703125 48.75 
Q 76.859375 44.484375 76.859375 35.59375 
L 76.859375 0 
L 68.109375 0 
L 68.109375 32.671875 
Q 68.109375 37.9375 67.25 40.25 
Q 66.40625 42.578125 64.15625 43.984375 
Q 61.921875 45.40625 58.890625 45.40625 
Q 53.421875 45.40625 49.796875 41.765625 
Q 46.1875 38.140625 46.1875 30.125 
L 46.1875 0 
L 37.40625 0 
L 37.40625 33.6875 
Q 37.40625 39.546875 35.25 42.46875 
Q 33.109375 45.40625 28.21875 45.40625 
Q 24.515625 45.40625 21.359375 43.453125 
Q 18.21875 41.5 16.796875 37.734375 
Q 15.375 33.984375 15.375 26.90625 
L 15.375 0 
z
" id="ArialMT-6d"/>
      <path d="M 21 0 
L 1.265625 51.859375 
L 10.546875 51.859375 
L 21.6875 20.796875 
Q 23.484375 15.765625 25 10.359375 
Q 26.171875 14.453125 28.265625 20.21875 
L 39.796875 51.859375 
L 48.828125 51.859375 
L 29.203125 0 
z
" id="ArialMT-76"/>
     </defs>
     <g style="fill:#262626;" transform="translate(61.91375 232.046875)rotate(-90.0)scale(0.11 -0.11)">
      <use xlink:href="#ArialMT-43"/>
      <use x="72.216796875" xlink:href="#ArialMT-75"/>
      <use x="127.83203125" xlink:href="#ArialMT-6d"/>
      <use x="211.1328125" xlink:href="#ArialMT-75"/>
      <use x="266.748046875" xlink:href="#ArialMT-6c"/>
      <use x="288.96484375" xlink:href="#ArialMT-61"/>
      <use x="344.580078125" xlink:href="#ArialMT-74"/>
      <use x="372.36328125" xlink:href="#ArialMT-69"/>
      <use x="394.580078125" xlink:href="#ArialMT-76"/>
      <use x="444.580078125" xlink:href="#ArialMT-65"/>
      <use x="500.1953125" xlink:href="#ArialMT-20"/>
      <use x="527.978515625" xlink:href="#ArialMT-44"/>
      <use x="600.1953125" xlink:href="#ArialMT-69"/>
      <use x="622.412109375" xlink:href="#ArialMT-73"/>
      <use x="672.412109375" xlink:href="#ArialMT-74"/>
      <use x="700.1953125" xlink:href="#ArialMT-72"/>
      <use x="733.49609375" xlink:href="#ArialMT-69"/>
      <use x="755.712890625" xlink:href="#ArialMT-62"/>
      <use x="811.328125" xlink:href="#ArialMT-75"/>
      <use x="866.943359375" xlink:href="#ArialMT-74"/>
      <use x="894.7265625" xlink:href="#ArialMT-69"/>
      <use x="916.943359375" xlink:href="#ArialMT-6f"/>
      <use x="972.55859375" xlink:href="#ArialMT-6e"/>
     </g>
    </g>
   </g>
   <g id="patch_3">
    <path clip-path="url(#pbf24ed6be7)" d="M -1 310.165277 
L 1.153211 310.165277 
L 1.153211 309.914419 
L 7.90704 309.8346 
L 7.90704 309.78899 
L 19.163422 309.686366 
L 19.163422 309.61795 
L 25.917251 309.526729 
L 25.917251 309.458313 
L 30.419804 309.424105 
L 30.419804 309.344286 
L 34.922356 309.275871 
L 34.922356 309.207455 
L 41.676185 309.139039 
L 41.676185 309.093428 
L 46.178738 309.047818 
L 46.178738 308.819765 
L 50.681291 308.796959 
L 50.681291 308.67153 
L 55.183844 308.603114 
L 55.183844 308.546101 
L 61.937673 308.45488 
L 61.937673 308.215424 
L 64.188949 308.215424 
L 64.188949 307.964566 
L 66.440225 307.964566 
L 66.440225 307.668097 
L 68.691502 307.668097 
L 68.691502 307.50846 
L 75.445331 307.417239 
L 75.445331 307.394434 
L 79.947884 307.303212 
L 79.947884 307.257602 
L 86.701713 307.200589 
L 86.701713 307.143575 
L 91.204265 307.097965 
L 91.204265 307.029549 
L 93.455542 307.029549 
L 93.455542 306.881314 
L 95.706818 306.881314 
L 95.706818 306.755885 
L 97.958095 306.755885 
L 97.958095 306.539235 
L 102.460647 306.459416 
L 102.460647 306.197155 
L 104.711924 306.197155 
L 104.711924 305.136709 
L 109.214476 305.079696 
L 109.214476 304.680603 
L 113.717029 304.657798 
L 113.717029 304.555174 
L 115.968305 304.555174 
L 115.968305 304.429745 
L 120.470858 304.327121 
L 120.470858 304.2359 
L 122.722135 304.2359 
L 122.722135 304.007847 
L 124.973411 304.007847 
L 124.973411 303.84821 
L 127.224687 303.84821 
L 127.224687 303.483325 
L 129.475964 303.483325 
L 129.475964 303.164051 
L 131.72724 303.164051 
L 131.72724 303.004414 
L 133.978516 303.004414 
L 133.978516 302.890387 
L 136.229793 302.890387 
L 136.229793 302.571113 
L 138.481069 302.571113 
L 138.481069 302.457087 
L 145.234898 302.365866 
L 145.234898 302.274644 
L 147.486175 302.274644 
L 147.486175 302.115007 
L 149.737451 302.115007 
L 149.737451 302.000981 
L 151.988727 302.000981 
L 151.988727 301.73872 
L 154.240004 301.73872 
L 154.240004 301.385238 
L 156.49128 301.385238 
L 156.49128 301.214198 
L 158.742556 301.214198 
L 158.742556 300.986145 
L 160.993833 300.986145 
L 160.993833 300.803703 
L 163.245109 300.803703 
L 163.245109 300.678274 
L 165.496385 300.678274 
L 165.496385 300.153752 
L 167.747662 300.153752 
L 167.747662 299.880088 
L 169.998938 299.880088 
L 169.998938 299.697646 
L 172.250215 299.697646 
L 172.250215 299.503801 
L 176.752767 299.401177 
L 176.752767 299.081903 
L 179.004044 299.081903 
L 179.004044 298.899461 
L 181.25532 298.899461 
L 181.25532 298.762629 
L 185.757873 298.694213 
L 185.757873 298.397744 
L 188.009149 298.397744 
L 188.009149 297.987249 
L 190.260425 297.987249 
L 190.260425 297.827612 
L 192.511702 297.827612 
L 192.511702 297.656572 
L 194.762978 297.656572 
L 194.762978 297.531143 
L 197.014255 297.531143 
L 197.014255 297.371506 
L 201.516807 297.280284 
L 201.516807 297.006621 
L 203.768084 297.006621 
L 203.768084 296.732957 
L 206.01936 296.732957 
L 206.01936 296.561918 
L 208.270636 296.561918 
L 208.270636 296.447891 
L 210.521913 296.447891 
L 210.521913 296.037396 
L 212.773189 296.037396 
L 212.773189 295.718122 
L 215.024465 295.718122 
L 215.024465 295.569887 
L 217.275742 295.569887 
L 217.275742 295.284821 
L 219.527018 295.284821 
L 219.527018 294.897131 
L 221.778295 294.897131 
L 221.778295 294.555051 
L 224.029571 294.555051 
L 224.029571 293.825282 
L 226.280847 293.825282 
L 226.280847 292.924473 
L 228.532124 292.924473 
L 228.532124 292.046469 
L 230.7834 292.046469 
L 230.7834 291.054438 
L 233.034676 291.054438 
L 233.034676 290.062408 
L 235.285953 290.062408 
L 235.285953 288.842325 
L 237.537229 288.842325 
L 237.537229 287.006498 
L 239.788505 287.006498 
L 239.788505 286.36795 
L 242.039782 286.36795 
L 242.039782 285.512751 
L 244.291058 285.512751 
L 244.291058 285.193477 
L 246.542335 285.193477 
L 246.542335 284.338279 
L 248.793611 284.338279 
L 248.793611 283.414664 
L 251.044887 283.414664 
L 251.044887 281.863904 
L 253.296164 281.863904 
L 253.296164 280.689431 
L 255.54744 280.689431 
L 255.54744 279.674595 
L 257.798716 279.674595 
L 257.798716 278.739578 
L 260.049993 278.739578 
L 260.049993 277.781756 
L 262.301269 277.781756 
L 262.301269 275.911721 
L 264.552545 275.911721 
L 264.552545 274.794262 
L 266.803822 274.794262 
L 266.803822 274.05309 
L 269.055098 274.05309 
L 269.055098 273.403139 
L 271.306375 273.403139 
L 271.306375 272.308485 
L 273.557651 272.308485 
L 273.557651 271.008583 
L 275.808927 271.008583 
L 275.808927 269.435017 
L 278.060204 269.435017 
L 278.060204 268.214934 
L 280.31148 268.214934 
L 280.31148 267.599191 
L 282.562756 267.599191 
L 282.562756 265.147621 
L 284.814033 265.147621 
L 284.814033 263.095145 
L 287.065309 263.095145 
L 287.065309 262.046101 
L 289.316585 262.046101 
L 289.316585 260.267288 
L 291.567862 260.267288 
L 291.567862 259.184036 
L 293.819138 259.184036 
L 293.819138 257.473639 
L 296.070415 257.473639 
L 296.070415 254.577366 
L 298.321691 254.577366 
L 298.321691 252.604708 
L 300.572967 252.604708 
L 300.572967 251.133767 
L 302.824244 251.133767 
L 302.824244 249.366356 
L 305.07552 249.366356 
L 305.07552 247.279671 
L 307.326796 247.279671 
L 307.326796 244.292178 
L 309.578073 244.292178 
L 309.578073 242.000245 
L 311.829349 242.000245 
L 311.829349 239.035557 
L 314.080625 239.035557 
L 314.080625 235.192864 
L 316.331902 235.192864 
L 316.331902 231.475601 
L 318.583178 231.475601 
L 318.583178 227.94078 
L 320.834455 227.94078 
L 320.834455 224.941883 
L 323.085731 224.941883 
L 323.085731 221.543894 
L 325.337007 221.543894 
L 325.337007 218.1231 
L 327.588284 218.1231 
L 327.588284 214.143575 
L 329.83956 214.143575 
L 329.83956 210.061427 
L 332.090836 210.061427 
L 332.090836 204.30309 
L 334.342113 204.30309 
L 334.342113 199.126287 
L 336.593389 199.126287 
L 336.593389 192.59257 
L 338.844665 192.59257 
L 338.844665 181.554806 
L 341.095942 181.554806 
L 341.095942 160.391491 
L 343.347218 160.391491 
L 343.347218 37.254291 
L 345.598495 37.254291 
L 345.598495 36.55873 
L 347.849771 36.55873 
L 347.849771 36.421898 
L 350.101047 36.421898 
L 350.101047 36.091221 
L 377.116364 36 
L 377.116364 315 
L 377.116364 315 
" style="fill:none;stroke:#4c72b0;stroke-linejoin:miter;stroke-width:2.0;"/>
   </g>
   <g id="patch_4">
    <path clip-path="url(#pbf24ed6be7)" d="M -1 313.211538 
L 0.055473 313.211538 
L 0.055473 313.211538 
L 0.055473 313.211538 
L 2.846741 313.211538 
L 2.846741 313.211538 
L 2.846741 313.211538 
L 5.638009 313.211538 
L 5.638009 313.211538 
L 5.638009 313.211538 
L 8.429277 313.211538 
L 8.429277 313.211538 
L 8.429277 313.211538 
L 11.220545 313.211538 
L 11.220545 313.211538 
L 11.220545 313.211538 
L 14.011814 313.211538 
L 14.011814 313.211538 
L 14.011814 313.211538 
L 16.803082 313.211538 
L 16.803082 313.211538 
L 16.803082 313.211538 
L 19.59435 313.211538 
L 19.59435 313.211538 
L 19.59435 313.211538 
L 22.385618 313.211538 
L 22.385618 313.211538 
L 22.385618 313.211538 
L 25.176886 313.211538 
L 25.176886 313.211538 
L 25.176886 313.211538 
L 27.968155 313.211538 
L 27.968155 313.211538 
L 27.968155 313.211538 
L 30.759423 313.211538 
L 30.759423 313.211538 
L 30.759423 313.211538 
L 33.550691 313.211538 
L 33.550691 313.211538 
L 33.550691 313.211538 
L 36.341959 313.211538 
L 36.341959 313.211538 
L 36.341959 313.211538 
L 39.133227 313.211538 
L 39.133227 313.211538 
L 39.133227 313.211538 
L 41.924495 313.211538 
L 41.924495 313.211538 
L 41.924495 313.211538 
L 44.715764 313.211538 
L 44.715764 313.211538 
L 44.715764 313.211538 
L 47.507032 313.211538 
L 47.507032 313.211538 
L 47.507032 313.211538 
L 50.2983 313.211538 
L 50.2983 313.211538 
L 50.2983 313.211538 
L 53.089568 313.211538 
L 53.089568 313.211538 
L 53.089568 313.211538 
L 55.880836 313.211538 
L 55.880836 313.211538 
L 55.880836 313.211538 
L 58.672105 313.211538 
L 58.672105 313.211538 
L 58.672105 313.211538 
L 61.463373 313.211538 
L 61.463373 313.211538 
L 61.463373 313.211538 
L 64.254641 313.211538 
L 64.254641 313.211538 
L 64.254641 313.211538 
L 67.045909 313.211538 
L 67.045909 313.211538 
L 67.045909 313.211538 
L 69.837177 313.211538 
L 69.837177 313.211538 
L 69.837177 313.211538 
L 72.628445 313.211538 
L 72.628445 313.211538 
L 72.628445 313.211538 
L 75.419714 313.211538 
L 75.419714 313.211538 
L 75.419714 313.211538 
L 78.210982 313.211538 
L 78.210982 313.211538 
L 78.210982 313.211538 
L 81.00225 313.211538 
L 81.00225 313.211538 
L 81.00225 313.211538 
L 83.793518 313.211538 
L 83.793518 313.211538 
L 83.793518 313.211538 
L 86.584786 313.211538 
L 86.584786 313.211538 
L 86.584786 313.211538 
L 89.376055 313.211538 
L 89.376055 313.211538 
L 89.376055 313.211538 
L 92.167323 313.211538 
L 92.167323 313.211538 
L 92.167323 313.211538 
L 94.958591 313.211538 
L 94.958591 313.211538 
L 94.958591 313.211538 
L 97.749859 313.211538 
L 97.749859 313.211538 
L 97.749859 313.211538 
L 100.541127 313.211538 
L 100.541127 313.211538 
L 100.541127 313.211538 
L 103.332395 313.211538 
L 103.332395 313.211538 
L 103.332395 313.211538 
L 106.123664 313.211538 
L 106.123664 313.211538 
L 106.123664 313.211538 
L 108.914932 313.211538 
L 108.914932 313.211538 
L 108.914932 313.211538 
L 111.7062 313.211538 
L 111.7062 313.211538 
L 111.7062 313.211538 
L 114.497468 313.211538 
L 114.497468 313.211538 
L 114.497468 313.211538 
L 117.288736 313.211538 
L 117.288736 313.211538 
L 117.288736 313.211538 
L 120.080005 313.211538 
L 120.080005 313.211538 
L 120.080005 313.211538 
L 122.871273 313.211538 
L 122.871273 313.211538 
L 122.871273 313.211538 
L 125.662541 313.211538 
L 125.662541 313.211538 
L 125.662541 313.211538 
L 128.453809 313.211538 
L 128.453809 313.211538 
L 128.453809 313.211538 
L 131.245077 313.211538 
L 131.245077 313.211538 
L 131.245077 313.211538 
L 134.036345 313.211538 
L 134.036345 313.211538 
L 134.036345 313.211538 
L 136.827614 313.211538 
L 136.827614 313.211538 
L 136.827614 313.211538 
L 139.618882 313.211538 
L 139.618882 313.211538 
L 139.618882 313.211538 
L 142.41015 313.211538 
L 142.41015 313.211538 
L 142.41015 313.211538 
L 145.201418 313.211538 
L 145.201418 313.211538 
L 145.201418 313.211538 
L 147.992686 313.211538 
L 147.992686 313.211538 
L 147.992686 313.211538 
L 150.783955 313.211538 
L 150.783955 311.423077 
L 156.366491 311.423077 
L 156.366491 309.634615 
L 161.949027 309.634615 
L 161.949027 307.846154 
L 184.279173 307.846154 
L 184.279173 306.057692 
L 223.356927 306.057692 
L 223.356927 304.269231 
L 228.939464 304.269231 
L 228.939464 302.480769 
L 231.730732 302.480769 
L 231.730732 298.903846 
L 234.522 298.903846 
L 234.522 293.538462 
L 237.313268 293.538462 
L 237.313268 291.75 
L 242.895805 291.75 
L 242.895805 289.961538 
L 245.687073 289.961538 
L 245.687073 288.173077 
L 251.269609 288.173077 
L 251.269609 286.384615 
L 254.060877 286.384615 
L 254.060877 282.807692 
L 262.434682 282.807692 
L 262.434682 281.019231 
L 265.22595 281.019231 
L 265.22595 279.230769 
L 270.808486 279.230769 
L 270.808486 277.442308 
L 273.599755 277.442308 
L 273.599755 275.653846 
L 279.182291 275.653846 
L 279.182291 272.076923 
L 281.973559 272.076923 
L 281.973559 270.288462 
L 284.764827 270.288462 
L 284.764827 268.5 
L 287.556095 268.5 
L 287.556095 266.711538 
L 290.347364 266.711538 
L 290.347364 264.923077 
L 293.138632 264.923077 
L 293.138632 263.134615 
L 295.9299 263.134615 
L 295.9299 261.346154 
L 298.721168 261.346154 
L 298.721168 255.980769 
L 304.303705 255.980769 
L 304.303705 252.403846 
L 307.094973 252.403846 
L 307.094973 248.826923 
L 309.886241 248.826923 
L 309.886241 247.038462 
L 312.677509 247.038462 
L 312.677509 245.25 
L 315.468777 245.25 
L 315.468777 241.673077 
L 318.260045 241.673077 
L 318.260045 239.884615 
L 321.051314 239.884615 
L 321.051314 234.519231 
L 323.842582 234.519231 
L 323.842582 223.788462 
L 326.63385 223.788462 
L 326.63385 211.269231 
L 329.425118 211.269231 
L 329.425118 198.75 
L 332.216386 198.75 
L 332.216386 182.653846 
L 335.007655 182.653846 
L 335.007655 177.288462 
L 337.798923 177.288462 
L 337.798923 168.346154 
L 340.590191 168.346154 
L 340.590191 139.730769 
L 343.381459 139.730769 
L 343.381459 36 
L 346.172727 36 
L 346.172727 315 
L 346.172727 315 
" style="fill:none;stroke:#55a868;stroke-linejoin:miter;stroke-width:2.0;"/>
   </g>
   <g id="patch_5">
    <path d="M 90 36 
L 343.636364 36 
" style="fill:none;"/>
   </g>
   <g id="patch_6">
    <path d="M 343.636364 315 
L 343.636364 36 
" style="fill:none;"/>
   </g>
   <g id="patch_7">
    <path d="M 90 315 
L 343.636364 315 
" style="fill:none;"/>
   </g>
   <g id="patch_8">
    <path d="M 90 315 
L 90 36 
" style="fill:none;"/>
   </g>
   <g id="text_15">
    <!-- Inhibiting -->
    <defs>
     <path d="M 9.328125 0 
L 9.328125 71.578125 
L 18.796875 71.578125 
L 18.796875 0 
z
" id="ArialMT-49"/>
     <path d="M 4.984375 -4.296875 
L 13.53125 -5.5625 
Q 14.0625 -9.515625 16.5 -11.328125 
Q 19.78125 -13.765625 25.4375 -13.765625 
Q 31.546875 -13.765625 34.859375 -11.328125 
Q 38.1875 -8.890625 39.359375 -4.5 
Q 40.046875 -1.8125 39.984375 6.78125 
Q 34.234375 0 25.640625 0 
Q 14.9375 0 9.078125 7.71875 
Q 3.21875 15.4375 3.21875 26.21875 
Q 3.21875 33.640625 5.90625 39.90625 
Q 8.59375 46.1875 13.6875 49.609375 
Q 18.796875 53.03125 25.6875 53.03125 
Q 34.859375 53.03125 40.828125 45.609375 
L 40.828125 51.859375 
L 48.921875 51.859375 
L 48.921875 7.03125 
Q 48.921875 -5.078125 46.453125 -10.125 
Q 44 -15.1875 38.640625 -18.109375 
Q 33.296875 -21.046875 25.484375 -21.046875 
Q 16.21875 -21.046875 10.5 -16.875 
Q 4.78125 -12.703125 4.984375 -4.296875 
M 12.25 26.859375 
Q 12.25 16.65625 16.296875 11.96875 
Q 20.359375 7.28125 26.46875 7.28125 
Q 32.515625 7.28125 36.609375 11.9375 
Q 40.71875 16.609375 40.71875 26.5625 
Q 40.71875 36.078125 36.5 40.90625 
Q 32.28125 45.75 26.3125 45.75 
Q 20.453125 45.75 16.34375 40.984375 
Q 12.25 36.234375 12.25 26.859375 
" id="ArialMT-67"/>
    </defs>
    <g style="fill:#262626;" transform="translate(192.802244318 31.0)scale(0.12 -0.12)">
     <use xlink:href="#ArialMT-49"/>
     <use x="27.783203125" xlink:href="#ArialMT-6e"/>
     <use x="83.3984375" xlink:href="#ArialMT-68"/>
     <use x="139.013671875" xlink:href="#ArialMT-69"/>
     <use x="161.23046875" xlink:href="#ArialMT-62"/>
     <use x="216.845703125" xlink:href="#ArialMT-69"/>
     <use x="239.0625" xlink:href="#ArialMT-74"/>
     <use x="266.845703125" xlink:href="#ArialMT-69"/>
     <use x="289.0625" xlink:href="#ArialMT-6e"/>
     <use x="344.677734375" xlink:href="#ArialMT-67"/>
    </g>
   </g>
   <g id="legend_1">
    <g id="patch_9">
     <path d="M 99 52.157812 
L 119 52.157812 
L 119 45.157812 
L 99 45.157812 
L 99 52.157812 
z
" style="fill:none;stroke:#4c72b0;stroke-linejoin:miter;stroke-width:2.0;"/>
    </g>
    <g id="text_16">
     <!-- non-interacting -->
     <defs>
      <path d="M 3.171875 21.484375 
L 3.171875 30.328125 
L 30.171875 30.328125 
L 30.171875 21.484375 
z
" id="ArialMT-2d"/>
     </defs>
     <g style="fill:#262626;" transform="translate(127.0 52.1578125)scale(0.1 -0.1)">
      <use xlink:href="#ArialMT-6e"/>
      <use x="55.615234375" xlink:href="#ArialMT-6f"/>
      <use x="111.23046875" xlink:href="#ArialMT-6e"/>
      <use x="166.845703125" xlink:href="#ArialMT-2d"/>
      <use x="200.146484375" xlink:href="#ArialMT-69"/>
      <use x="222.36328125" xlink:href="#ArialMT-6e"/>
      <use x="277.978515625" xlink:href="#ArialMT-74"/>
      <use x="305.76171875" xlink:href="#ArialMT-65"/>
      <use x="361.376953125" xlink:href="#ArialMT-72"/>
      <use x="394.677734375" xlink:href="#ArialMT-61"/>
      <use x="450.29296875" xlink:href="#ArialMT-63"/>
      <use x="500.29296875" xlink:href="#ArialMT-74"/>
      <use x="528.076171875" xlink:href="#ArialMT-69"/>
      <use x="550.29296875" xlink:href="#ArialMT-6e"/>
      <use x="605.908203125" xlink:href="#ArialMT-67"/>
     </g>
    </g>
    <g id="patch_10">
     <path d="M 99 66.420312 
L 119 66.420312 
L 119 59.420312 
L 99 59.420312 
L 99 66.420312 
z
" style="fill:none;stroke:#55a868;stroke-linejoin:miter;stroke-width:2.0;"/>
    </g>
    <g id="text_17">
     <!-- interacting -->
     <g style="fill:#262626;" transform="translate(127.0 66.4203125)scale(0.1 -0.1)">
      <use xlink:href="#ArialMT-69"/>
      <use x="22.216796875" xlink:href="#ArialMT-6e"/>
      <use x="77.83203125" xlink:href="#ArialMT-74"/>
      <use x="105.615234375" xlink:href="#ArialMT-65"/>
      <use x="161.23046875" xlink:href="#ArialMT-72"/>
      <use x="194.53125" xlink:href="#ArialMT-61"/>
      <use x="250.146484375" xlink:href="#ArialMT-63"/>
      <use x="300.146484375" xlink:href="#ArialMT-74"/>
      <use x="327.9296875" xlink:href="#ArialMT-69"/>
      <use x="350.146484375" xlink:href="#ArialMT-6e"/>
      <use x="405.76171875" xlink:href="#ArialMT-67"/>
     </g>
    </g>
   </g>
  </g>
  <g id="axes_2">
   <g id="patch_11">
    <path d="M 394.363636 315 
L 648 315 
L 648 36 
L 394.363636 36 
z
" style="fill:#eaeaf2;"/>
   </g>
   <g id="matplotlib.axis_3">
    <g id="xtick_7">
     <g id="line2d_37">
      <path clip-path="url(#pcc14458d2a)" d="M 394.363636 315 
L 394.363636 36 
" style="fill:none;stroke:#ffffff;stroke-linecap:round;"/>
     </g>
     <g id="line2d_38">
      <g>
       <use style="fill:#262626;stroke:#262626;" x="394.363636364" xlink:href="#m91e6ceffbb" y="315.0"/>
      </g>
     </g>
     <g id="line2d_39">
      <g>
       <use style="fill:#262626;stroke:#262626;" x="394.363636364" xlink:href="#m91e6ceffbb" y="36.0"/>
      </g>
     </g>
     <g id="text_18">
      <!-- −100 -->
      <g style="fill:#262626;" transform="translate(383.101917614 329.1578125)scale(0.1 -0.1)">
       <use xlink:href="#ArialMT-2212"/>
       <use x="58.3984375" xlink:href="#ArialMT-31"/>
       <use x="114.013671875" xlink:href="#ArialMT-30"/>
       <use x="169.62890625" xlink:href="#ArialMT-30"/>
      </g>
     </g>
    </g>
    <g id="xtick_8">
     <g id="line2d_40">
      <path clip-path="url(#pcc14458d2a)" d="M 445.090909 315 
L 445.090909 36 
" style="fill:none;stroke:#ffffff;stroke-linecap:round;"/>
     </g>
     <g id="line2d_41">
      <g>
       <use style="fill:#262626;stroke:#262626;" x="445.090909091" xlink:href="#m91e6ceffbb" y="315.0"/>
      </g>
     </g>
     <g id="line2d_42">
      <g>
       <use style="fill:#262626;stroke:#262626;" x="445.090909091" xlink:href="#m91e6ceffbb" y="36.0"/>
      </g>
     </g>
     <g id="text_19">
      <!-- −80 -->
      <g style="fill:#262626;" transform="translate(436.609659091 329.1578125)scale(0.1 -0.1)">
       <use xlink:href="#ArialMT-2212"/>
       <use x="58.3984375" xlink:href="#ArialMT-38"/>
       <use x="114.013671875" xlink:href="#ArialMT-30"/>
      </g>
     </g>
    </g>
    <g id="xtick_9">
     <g id="line2d_43">
      <path clip-path="url(#pcc14458d2a)" d="M 495.818182 315 
L 495.818182 36 
" style="fill:none;stroke:#ffffff;stroke-linecap:round;"/>
     </g>
     <g id="line2d_44">
      <g>
       <use style="fill:#262626;stroke:#262626;" x="495.818181818" xlink:href="#m91e6ceffbb" y="315.0"/>
      </g>
     </g>
     <g id="line2d_45">
      <g>
       <use style="fill:#262626;stroke:#262626;" x="495.818181818" xlink:href="#m91e6ceffbb" y="36.0"/>
      </g>
     </g>
     <g id="text_20">
      <!-- −60 -->
      <g style="fill:#262626;" transform="translate(487.336931818 329.1578125)scale(0.1 -0.1)">
       <use xlink:href="#ArialMT-2212"/>
       <use x="58.3984375" xlink:href="#ArialMT-36"/>
       <use x="114.013671875" xlink:href="#ArialMT-30"/>
      </g>
     </g>
    </g>
    <g id="xtick_10">
     <g id="line2d_46">
      <path clip-path="url(#pcc14458d2a)" d="M 546.545455 315 
L 546.545455 36 
" style="fill:none;stroke:#ffffff;stroke-linecap:round;"/>
     </g>
     <g id="line2d_47">
      <g>
       <use style="fill:#262626;stroke:#262626;" x="546.545454545" xlink:href="#m91e6ceffbb" y="315.0"/>
      </g>
     </g>
     <g id="line2d_48">
      <g>
       <use style="fill:#262626;stroke:#262626;" x="546.545454545" xlink:href="#m91e6ceffbb" y="36.0"/>
      </g>
     </g>
     <g id="text_21">
      <!-- −40 -->
      <g style="fill:#262626;" transform="translate(538.064204545 329.1578125)scale(0.1 -0.1)">
       <use xlink:href="#ArialMT-2212"/>
       <use x="58.3984375" xlink:href="#ArialMT-34"/>
       <use x="114.013671875" xlink:href="#ArialMT-30"/>
      </g>
     </g>
    </g>
    <g id="xtick_11">
     <g id="line2d_49">
      <path clip-path="url(#pcc14458d2a)" d="M 597.272727 315 
L 597.272727 36 
" style="fill:none;stroke:#ffffff;stroke-linecap:round;"/>
     </g>
     <g id="line2d_50">
      <g>
       <use style="fill:#262626;stroke:#262626;" x="597.272727273" xlink:href="#m91e6ceffbb" y="315.0"/>
      </g>
     </g>
     <g id="line2d_51">
      <g>
       <use style="fill:#262626;stroke:#262626;" x="597.272727273" xlink:href="#m91e6ceffbb" y="36.0"/>
      </g>
     </g>
     <g id="text_22">
      <!-- −20 -->
      <g style="fill:#262626;" transform="translate(588.791477273 329.1578125)scale(0.1 -0.1)">
       <use xlink:href="#ArialMT-2212"/>
       <use x="58.3984375" xlink:href="#ArialMT-32"/>
       <use x="114.013671875" xlink:href="#ArialMT-30"/>
      </g>
     </g>
    </g>
    <g id="xtick_12">
     <g id="line2d_52">
      <path clip-path="url(#pcc14458d2a)" d="M 648 315 
L 648 36 
" style="fill:none;stroke:#ffffff;stroke-linecap:round;"/>
     </g>
     <g id="line2d_53">
      <g>
       <use style="fill:#262626;stroke:#262626;" x="648.0" xlink:href="#m91e6ceffbb" y="315.0"/>
      </g>
     </g>
     <g id="line2d_54">
      <g>
       <use style="fill:#262626;stroke:#262626;" x="648.0" xlink:href="#m91e6ceffbb" y="36.0"/>
      </g>
     </g>
     <g id="text_23">
      <!-- 0 -->
      <g style="fill:#262626;" transform="translate(645.21953125 329.1578125)scale(0.1 -0.1)">
       <use xlink:href="#ArialMT-30"/>
      </g>
     </g>
    </g>
    <g id="text_24">
     <!-- Shadow Price -->
     <g style="fill:#262626;" transform="translate(487.248536932 344.01890625)scale(0.11 -0.11)">
      <use xlink:href="#ArialMT-53"/>
      <use x="66.69921875" xlink:href="#ArialMT-68"/>
      <use x="122.314453125" xlink:href="#ArialMT-61"/>
      <use x="177.9296875" xlink:href="#ArialMT-64"/>
      <use x="233.544921875" xlink:href="#ArialMT-6f"/>
      <use x="289.16015625" xlink:href="#ArialMT-77"/>
      <use x="361.376953125" xlink:href="#ArialMT-20"/>
      <use x="389.16015625" xlink:href="#ArialMT-50"/>
      <use x="455.859375" xlink:href="#ArialMT-72"/>
      <use x="489.16015625" xlink:href="#ArialMT-69"/>
      <use x="511.376953125" xlink:href="#ArialMT-63"/>
      <use x="561.376953125" xlink:href="#ArialMT-65"/>
     </g>
    </g>
   </g>
   <g id="matplotlib.axis_4">
    <g id="ytick_7">
     <g id="line2d_55">
      <path clip-path="url(#pcc14458d2a)" d="M 394.363636 315 
L 648 315 
" style="fill:none;stroke:#ffffff;stroke-linecap:round;"/>
     </g>
     <g id="line2d_56">
      <g>
       <use style="fill:#262626;stroke:#262626;" x="394.363636364" xlink:href="#m91e6ceffbb" y="315.0"/>
      </g>
     </g>
     <g id="line2d_57">
      <g>
       <use style="fill:#262626;stroke:#262626;" x="648.0" xlink:href="#m91e6ceffbb" y="315.0"/>
      </g>
     </g>
     <g id="text_25">
      <!-- 0.0 -->
      <g style="fill:#262626;" transform="translate(373.463636364 317.58515625)scale(0.1 -0.1)">
       <use xlink:href="#ArialMT-30"/>
       <use x="55.615234375" xlink:href="#ArialMT-2e"/>
       <use x="83.3984375" xlink:href="#ArialMT-30"/>
      </g>
     </g>
    </g>
    <g id="ytick_8">
     <g id="line2d_58">
      <path clip-path="url(#pcc14458d2a)" d="M 394.363636 259.2 
L 648 259.2 
" style="fill:none;stroke:#ffffff;stroke-linecap:round;"/>
     </g>
     <g id="line2d_59">
      <g>
       <use style="fill:#262626;stroke:#262626;" x="394.363636364" xlink:href="#m91e6ceffbb" y="259.2"/>
      </g>
     </g>
     <g id="line2d_60">
      <g>
       <use style="fill:#262626;stroke:#262626;" x="648.0" xlink:href="#m91e6ceffbb" y="259.2"/>
      </g>
     </g>
     <g id="text_26">
      <!-- 0.2 -->
      <g style="fill:#262626;" transform="translate(373.463636364 261.78515625)scale(0.1 -0.1)">
       <use xlink:href="#ArialMT-30"/>
       <use x="55.615234375" xlink:href="#ArialMT-2e"/>
       <use x="83.3984375" xlink:href="#ArialMT-32"/>
      </g>
     </g>
    </g>
    <g id="ytick_9">
     <g id="line2d_61">
      <path clip-path="url(#pcc14458d2a)" d="M 394.363636 203.4 
L 648 203.4 
" style="fill:none;stroke:#ffffff;stroke-linecap:round;"/>
     </g>
     <g id="line2d_62">
      <g>
       <use style="fill:#262626;stroke:#262626;" x="394.363636364" xlink:href="#m91e6ceffbb" y="203.4"/>
      </g>
     </g>
     <g id="line2d_63">
      <g>
       <use style="fill:#262626;stroke:#262626;" x="648.0" xlink:href="#m91e6ceffbb" y="203.4"/>
      </g>
     </g>
     <g id="text_27">
      <!-- 0.4 -->
      <g style="fill:#262626;" transform="translate(373.463636364 205.98515625)scale(0.1 -0.1)">
       <use xlink:href="#ArialMT-30"/>
       <use x="55.615234375" xlink:href="#ArialMT-2e"/>
       <use x="83.3984375" xlink:href="#ArialMT-34"/>
      </g>
     </g>
    </g>
    <g id="ytick_10">
     <g id="line2d_64">
      <path clip-path="url(#pcc14458d2a)" d="M 394.363636 147.6 
L 648 147.6 
" style="fill:none;stroke:#ffffff;stroke-linecap:round;"/>
     </g>
     <g id="line2d_65">
      <g>
       <use style="fill:#262626;stroke:#262626;" x="394.363636364" xlink:href="#m91e6ceffbb" y="147.6"/>
      </g>
     </g>
     <g id="line2d_66">
      <g>
       <use style="fill:#262626;stroke:#262626;" x="648.0" xlink:href="#m91e6ceffbb" y="147.6"/>
      </g>
     </g>
     <g id="text_28">
      <!-- 0.6 -->
      <g style="fill:#262626;" transform="translate(373.463636364 150.18515625)scale(0.1 -0.1)">
       <use xlink:href="#ArialMT-30"/>
       <use x="55.615234375" xlink:href="#ArialMT-2e"/>
       <use x="83.3984375" xlink:href="#ArialMT-36"/>
      </g>
     </g>
    </g>
    <g id="ytick_11">
     <g id="line2d_67">
      <path clip-path="url(#pcc14458d2a)" d="M 394.363636 91.8 
L 648 91.8 
" style="fill:none;stroke:#ffffff;stroke-linecap:round;"/>
     </g>
     <g id="line2d_68">
      <g>
       <use style="fill:#262626;stroke:#262626;" x="394.363636364" xlink:href="#m91e6ceffbb" y="91.8"/>
      </g>
     </g>
     <g id="line2d_69">
      <g>
       <use style="fill:#262626;stroke:#262626;" x="648.0" xlink:href="#m91e6ceffbb" y="91.8"/>
      </g>
     </g>
     <g id="text_29">
      <!-- 0.8 -->
      <g style="fill:#262626;" transform="translate(373.463636364 94.38515625)scale(0.1 -0.1)">
       <use xlink:href="#ArialMT-30"/>
       <use x="55.615234375" xlink:href="#ArialMT-2e"/>
       <use x="83.3984375" xlink:href="#ArialMT-38"/>
      </g>
     </g>
    </g>
    <g id="ytick_12">
     <g id="line2d_70">
      <path clip-path="url(#pcc14458d2a)" d="M 394.363636 36 
L 648 36 
" style="fill:none;stroke:#ffffff;stroke-linecap:round;"/>
     </g>
     <g id="line2d_71">
      <g>
       <use style="fill:#262626;stroke:#262626;" x="394.363636364" xlink:href="#m91e6ceffbb" y="36.0"/>
      </g>
     </g>
     <g id="line2d_72">
      <g>
       <use style="fill:#262626;stroke:#262626;" x="648.0" xlink:href="#m91e6ceffbb" y="36.0"/>
      </g>
     </g>
     <g id="text_30">
      <!-- 1.0 -->
      <g style="fill:#262626;" transform="translate(373.463636364 38.58515625)scale(0.1 -0.1)">
       <use xlink:href="#ArialMT-31"/>
       <use x="55.615234375" xlink:href="#ArialMT-2e"/>
       <use x="83.3984375" xlink:href="#ArialMT-30"/>
      </g>
     </g>
    </g>
    <g id="text_31">
     <!-- Cumulative Distribution -->
     <g style="fill:#262626;" transform="translate(366.277386364 232.046875)rotate(-90.0)scale(0.11 -0.11)">
      <use xlink:href="#ArialMT-43"/>
      <use x="72.216796875" xlink:href="#ArialMT-75"/>
      <use x="127.83203125" xlink:href="#ArialMT-6d"/>
      <use x="211.1328125" xlink:href="#ArialMT-75"/>
      <use x="266.748046875" xlink:href="#ArialMT-6c"/>
      <use x="288.96484375" xlink:href="#ArialMT-61"/>
      <use x="344.580078125" xlink:href="#ArialMT-74"/>
      <use x="372.36328125" xlink:href="#ArialMT-69"/>
      <use x="394.580078125" xlink:href="#ArialMT-76"/>
      <use x="444.580078125" xlink:href="#ArialMT-65"/>
      <use x="500.1953125" xlink:href="#ArialMT-20"/>
      <use x="527.978515625" xlink:href="#ArialMT-44"/>
      <use x="600.1953125" xlink:href="#ArialMT-69"/>
      <use x="622.412109375" xlink:href="#ArialMT-73"/>
      <use x="672.412109375" xlink:href="#ArialMT-74"/>
      <use x="700.1953125" xlink:href="#ArialMT-72"/>
      <use x="733.49609375" xlink:href="#ArialMT-69"/>
      <use x="755.712890625" xlink:href="#ArialMT-62"/>
      <use x="811.328125" xlink:href="#ArialMT-75"/>
      <use x="866.943359375" xlink:href="#ArialMT-74"/>
      <use x="894.7265625" xlink:href="#ArialMT-69"/>
      <use x="916.943359375" xlink:href="#ArialMT-6f"/>
      <use x="972.55859375" xlink:href="#ArialMT-6e"/>
     </g>
    </g>
   </g>
   <g id="patch_12">
    <path clip-path="url(#pcc14458d2a)" d="M -1 314.052845 
L -0.881866 314.052845 
L -0.881866 314.052845 
L -0.881866 314.052845 
L -0.656738 314.052845 
L -0.656738 314.052845 
L -0.656738 314.052845 
L -0.431611 314.052845 
L -0.431611 314.052845 
L -0.431611 314.052845 
L -0.206483 314.052845 
L -0.206483 314.052845 
L -0.206483 314.052845 
L 0.018645 314.052845 
L 0.018645 314.052845 
L 0.018645 314.052845 
L 0.018645 314.041433 
L 47.520576 313.93873 
L 47.520576 313.915907 
L 89.844572 313.813203 
L 89.844572 313.801791 
L 97.498911 313.756145 
L 97.498911 313.527915 
L 120.011675 313.425212 
L 120.011675 313.4138 
L 135.545482 313.322508 
L 135.545482 313.082866 
L 149.278268 312.980163 
L 149.278268 312.945928 
L 155.131586 312.945928 
L 155.131586 312.72911 
L 164.361819 312.694875 
L 164.361819 312.489468 
L 175.393073 312.386764 
L 175.393073 312.147123 
L 191.152008 312.044419 
L 191.152008 312.033007 
L 206.23556 311.930304 
L 206.23556 311.907481 
L 214.340155 311.804777 
L 214.340155 311.793366 
L 228.07294 311.690662 
L 228.07294 311.679251 
L 229.423706 311.667839 
L 229.423706 311.428197 
L 240.905216 311.325494 
L 240.905216 311.302671 
L 253.737491 311.211379 
L 253.737491 311.165733 
L 261.166703 311.074441 
L 261.166703 311.028795 
L 269.946681 310.926091 
L 269.946681 310.869033 
L 277.150765 310.76633 
L 277.150765 310.720684 
L 286.606126 310.61798 
L 286.606126 310.595157 
L 289.757913 310.515277 
L 289.757913 310.481042 
L 292.684572 310.423985 
L 292.684572 310.366927 
L 302.590188 310.275635 
L 302.590188 310.252812 
L 305.516847 310.207166 
L 305.516847 309.990347 
L 310.694783 309.887644 
L 310.694783 309.876232 
L 318.57425 309.773529 
L 318.57425 309.762117 
L 327.804483 309.659413 
L 327.804483 309.63659 
L 331.181398 309.545298 
L 331.181398 309.522475 
L 336.359333 309.431183 
L 336.359333 309.385537 
L 341.312141 309.282834 
L 341.312141 309.248599 
L 347.840843 309.145896 
L 347.840843 309.134484 
L 350.542375 309.088838 
L 350.542375 308.883431 
L 356.170565 308.780727 
L 356.170565 308.769316 
L 358.872097 308.666612 
L 358.872097 308.655201 
L 363.37465 308.552497 
L 363.37465 308.529674 
L 368.327458 308.484028 
L 368.327458 308.267209 
L 369.453096 308.232975 
L 369.453096 308.016156 
L 372.604883 307.981922 
L 372.604883 307.719457 
L 373.955649 307.650988 
L 373.955649 307.59393 
L 378.233074 307.491227 
L 378.233074 307.468404 
L 384.086392 307.377112 
L 384.086392 307.354289 
L 391.740732 307.262996 
L 391.740732 307.240173 
L 395.793029 307.13747 
L 395.793029 307.114647 
L 399.395072 307.011943 
L 399.395072 307.000532 
L 401.42122 306.897828 
L 401.42122 306.863594 
L 403.222241 306.795125 
L 403.222241 306.703832 
L 404.798135 306.61254 
L 404.798135 306.578306 
L 408.175049 306.498425 
L 408.175049 306.293018 
L 409.525815 306.270195 
L 409.525815 305.996319 
L 409.750943 305.996319 
L 409.750943 305.7795 
L 410.201198 305.711031 
L 410.201198 305.608328 
L 410.426326 305.608328 
L 410.426326 305.482801 
L 411.101709 305.448566 
L 411.101709 305.231748 
L 413.578113 305.17469 
L 413.578113 304.935048 
L 414.478623 304.889402 
L 414.478623 304.820933 
L 418.756048 304.71823 
L 418.756048 304.695407 
L 421.232452 304.592703 
L 421.232452 304.581292 
L 424.159112 304.501411 
L 424.159112 304.444354 
L 427.536026 304.34165 
L 427.536026 304.318827 
L 428.211409 304.250358 
L 428.211409 304.204712 
L 429.337047 304.11342 
L 429.337047 304.056362 
L 432.939089 303.953659 
L 432.939089 303.645548 
L 434.965238 303.542844 
L 434.965238 303.531433 
L 435.190366 303.531433 
L 435.190366 303.314614 
L 437.891897 303.211911 
L 437.891897 303.143441 
L 440.368301 303.040738 
L 440.368301 303.029326 
L 442.39445 302.972269 
L 442.39445 302.732627 
L 444.870854 302.629924 
L 444.870854 302.595689 
L 449.598535 302.504397 
L 449.598535 302.470162 
L 452.525194 302.367459 
L 452.525194 302.356047 
L 454.551343 302.253344 
L 454.551343 302.230521 
L 456.352364 302.139229 
L 456.352364 302.104994 
L 457.478002 302.013702 
L 457.478002 301.968056 
L 458.60364 301.865352 
L 458.60364 301.842529 
L 459.954406 301.796883 
L 459.954406 301.591476 
L 461.305172 301.488773 
L 461.305172 301.477361 
L 462.43081 301.386069 
L 462.43081 301.340423 
L 464.006703 301.294777 
L 464.006703 301.226308 
L 464.907214 301.135016 
L 464.907214 301.100781 
L 466.483107 301.043724 
L 466.483107 300.975255 
L 469.184639 300.872551 
L 469.184639 300.815493 
L 470.760532 300.735613 
L 470.760532 300.495971 
L 471.661043 300.473148 
L 471.661043 300.25633 
L 473.912319 300.233506 
L 473.912319 300.016688 
L 475.263085 299.913984 
L 475.263085 299.902573 
L 476.613851 299.799869 
L 476.613851 299.754223 
L 477.739489 299.685754 
L 477.739489 299.640108 
L 479.990765 299.548816 
L 479.990765 299.525993 
L 482.692297 299.434701 
L 482.692297 299.195059 
L 483.592808 299.183648 
L 483.592808 299.069532 
L 486.744595 298.966829 
L 486.744595 298.909771 
L 488.995871 298.807068 
L 488.995871 298.795656 
L 490.346637 298.704364 
L 490.346637 298.658718 
L 491.472275 298.567426 
L 491.472275 298.52178 
L 493.273296 298.430488 
L 493.273296 298.350607 
L 493.723551 298.339196 
L 493.723551 298.110966 
L 495.7497 298.031085 
L 495.7497 297.985439 
L 496.875338 297.91697 
L 496.875338 297.871324 
L 498.676359 297.76862 
L 498.676359 297.745797 
L 500.927636 297.654505 
L 500.927636 297.631682 
L 502.728657 297.528979 
L 502.728657 297.517567 
L 504.754805 297.414864 
L 504.754805 297.369218 
L 506.780954 297.300748 
L 506.780954 297.243691 
L 507.906592 297.152399 
L 507.906592 297.095341 
L 508.581975 297.026872 
L 508.581975 296.946992 
L 509.482486 296.867111 
L 509.482486 296.832877 
L 510.833252 296.741585 
L 510.833252 296.718762 
L 513.084528 296.638881 
L 513.084528 296.593235 
L 515.78606 296.501943 
L 515.78606 296.193832 
L 518.037336 296.10254 
L 518.037336 296.079717 
L 518.487591 296.068305 
L 518.487591 295.817252 
L 520.963995 295.72596 
L 520.963995 295.691726 
L 522.314761 295.623257 
L 522.314761 295.577611 
L 523.440399 295.474907 
L 523.440399 295.463495 
L 524.115782 295.360792 
L 524.115782 295.326557 
L 524.791165 295.235265 
L 524.791165 295.189619 
L 525.466548 295.132562 
L 525.466548 295.064093 
L 526.141931 294.995624 
L 526.141931 294.938566 
L 527.042441 294.870097 
L 527.042441 294.790216 
L 528.16808 294.710336 
L 528.16808 294.676101 
L 528.618335 294.676101 
L 528.618335 294.367991 
L 529.518845 294.310933 
L 529.518845 294.014234 
L 530.644484 293.934353 
L 530.644484 293.865884 
L 530.869611 293.865884 
L 530.869611 293.569185 
L 531.544994 293.500716 
L 531.544994 293.420835 
L 532.220377 293.352366 
L 532.220377 293.089901 
L 533.346015 292.987198 
L 533.346015 292.85026 
L 534.021398 292.758968 
L 534.021398 292.496503 
L 534.696781 292.47368 
L 534.696781 292.234038 
L 535.822419 292.154158 
L 535.822419 292.108512 
L 536.047547 292.108512 
L 536.047547 291.903104 
L 536.497802 291.880281 
L 536.497802 291.400998 
L 537.173185 291.332529 
L 537.173185 291.275471 
L 538.523951 291.172768 
L 538.523951 291.138533 
L 539.199334 291.070064 
L 539.199334 290.545135 
L 539.424461 290.545135 
L 539.424461 290.248436 
L 539.874717 290.168555 
L 539.874717 290.077263 
L 540.324972 290.008794 
L 540.324972 289.67786 
L 541.45061 289.609391 
L 541.45061 289.278457 
L 541.675738 289.278457 
L 541.675738 289.027404 
L 542.125993 288.970346 
L 542.125993 288.879054 
L 542.351121 288.879054 
L 542.351121 288.570944 
L 542.576248 288.570944 
L 542.576248 288.31989 
L 543.026504 288.297067 
L 543.026504 288.057426 
L 543.927014 287.988957 
L 543.927014 287.190151 
L 544.377269 287.144505 
L 544.377269 287.076036 
L 544.827525 287.064624 
L 544.827525 286.779337 
L 545.502908 286.710868 
L 545.502908 286.665221 
L 546.403418 286.562518 
L 546.403418 286.300053 
L 547.303929 286.242996 
L 547.303929 286.003354 
L 548.429567 285.923473 
L 548.429567 285.706655 
L 549.330077 285.638186 
L 549.330077 285.59254 
L 550.00546 285.535482 
L 550.00546 285.467013 
L 550.905971 285.375721 
L 550.905971 285.307252 
L 551.806481 285.204548 
L 551.806481 285.181725 
L 552.256737 285.090433 
L 552.256737 284.964907 
L 552.481864 284.964907 
L 552.481864 284.656796 
L 552.93212 284.61115 
L 552.93212 284.542681 
L 553.382375 284.519858 
L 553.382375 284.428566 
L 554.057758 284.348685 
L 554.057758 283.915048 
L 554.508013 283.869402 
L 554.508013 283.789521 
L 554.958268 283.698229 
L 554.958268 283.663994 
L 555.408524 283.618348 
L 555.408524 283.25318 
L 556.083907 283.184711 
L 556.083907 283.139065 
L 556.534162 283.093419 
L 556.534162 282.511432 
L 557.209545 282.431551 
L 557.209545 282.374494 
L 557.434672 282.374494 
L 557.434672 282.066383 
L 558.335183 281.986503 
L 558.335183 281.929445 
L 558.560311 281.929445 
L 558.560311 281.655569 
L 559.010566 281.552865 
L 559.010566 281.233343 
L 559.685949 281.221931 
L 559.685949 280.902409 
L 560.136204 280.822529 
L 560.136204 280.765471 
L 560.361332 280.765471 
L 560.361332 280.45736 
L 560.811587 280.445949 
L 560.811587 280.343245 
L 561.712097 280.240542 
L 561.712097 279.955254 
L 562.38748 279.875373 
L 562.38748 279.601497 
L 563.062863 279.510205 
L 563.062863 279.487382 
L 563.738246 279.407501 
L 563.738246 279.327621 
L 564.188501 279.24774 
L 564.188501 278.951041 
L 564.638757 278.882572 
L 564.638757 278.699988 
L 564.863884 278.699988 
L 564.863884 278.357642 
L 565.539267 278.26635 
L 565.539267 278.129412 
L 566.439778 278.03812 
L 566.439778 277.992474 
L 566.664905 277.992474 
L 566.664905 277.855536 
L 567.340288 277.775655 
L 567.340288 277.399076 
L 567.790544 277.296372 
L 567.790544 277.250726 
L 568.015671 277.250726 
L 568.015671 276.429097 
L 568.465927 276.349217 
L 568.465927 276.212279 
L 568.916182 276.109575 
L 568.916182 276.041106 
L 569.366437 275.949814 
L 569.366437 275.869933 
L 569.816692 275.812876 
L 569.816692 275.504765 
L 570.492075 275.436296 
L 570.492075 275.048305 
L 571.617713 274.968424 
L 571.617713 274.877132 
L 571.842841 274.877132 
L 571.842841 274.569021 
L 572.743352 274.489141 
L 572.743352 274.397849 
L 573.193607 274.317968 
L 573.193607 274.249499 
L 573.86899 274.18103 
L 573.86899 274.044092 
L 574.319245 273.998446 
L 574.319245 273.907154 
L 574.544373 273.907154 
L 574.544373 273.781627 
L 574.994628 273.678923 
L 574.994628 273.644689 
L 575.670011 273.599043 
L 575.670011 273.256698 
L 576.120266 273.211052 
L 576.120266 273.028467 
L 576.345394 273.028467 
L 576.345394 272.880118 
L 577.020777 272.777414 
L 577.020777 272.686122 
L 577.69616 272.59483 
L 577.69616 272.492126 
L 577.921287 272.492126 
L 577.921287 272.3666 
L 578.59667 272.286719 
L 578.59667 272.21825 
L 579.046925 272.126958 
L 579.046925 272.047078 
L 579.497181 271.99002 
L 579.497181 271.476502 
L 579.722308 271.476502 
L 579.722308 271.225449 
L 580.397691 271.134157 
L 580.397691 270.985807 
L 580.622819 270.985807 
L 580.622819 270.666285 
L 580.847947 270.666285 
L 580.847947 270.529347 
L 581.298202 270.483701 
L 581.298202 270.187002 
L 581.748457 270.095709 
L 581.748457 270.072886 
L 581.973585 270.072886 
L 581.973585 269.741953 
L 582.198712 269.741953 
L 582.198712 269.605015 
L 582.874095 269.502311 
L 582.874095 269.479488 
L 583.549478 269.411019 
L 583.549478 269.319727 
L 583.774606 269.319727 
L 583.774606 268.669271 
L 583.999733 268.669271 
L 583.999733 268.486687 
L 584.900244 268.383983 
L 584.900244 268.36116 
L 585.350499 268.292691 
L 585.350499 268.21281 
L 585.575627 268.21281 
L 585.575627 268.087284 
L 586.025882 268.030226 
L 586.025882 267.927523 
L 586.476137 267.847642 
L 586.476137 267.790584 
L 586.926393 267.767761 
L 586.926393 266.54673 
L 587.601776 266.466849 
L 587.601776 266.364146 
L 588.052031 266.295677 
L 588.052031 266.250031 
L 588.277159 266.250031 
L 588.277159 265.576752 
L 588.727414 265.508283 
L 588.727414 265.439813 
L 589.177669 265.371344 
L 589.177669 265.200172 
L 589.627924 265.154526 
L 589.627924 264.755123 
L 590.07818 264.652419 
L 590.07818 264.287251 
L 590.528435 264.184547 
L 590.528435 264.12749 
L 590.753563 264.12749 
L 590.753563 263.499857 
L 591.203818 263.465622 
L 591.203818 263.328684 
L 591.879201 263.237392 
L 591.879201 263.180335 
L 592.104328 263.180335 
L 592.104328 263.054808 
L 592.554584 262.974927 
L 592.554584 262.872224 
L 592.779711 262.872224 
L 592.779711 262.723874 
L 593.004839 262.723874 
L 593.004839 262.518467 
L 593.455094 262.415763 
L 593.455094 262.301648 
L 593.905349 262.244591 
L 593.905349 261.902245 
L 594.130477 261.902245 
L 594.130477 261.753896 
L 594.580732 261.70825 
L 594.580732 261.308847 
L 594.80586 261.308847 
L 594.80586 261.137674 
L 595.030988 261.137674 
L 595.030988 260.977913 
L 595.481243 260.909444 
L 595.481243 260.658391 
L 595.706371 260.658391 
L 595.706371 260.532864 
L 595.931498 260.532864 
L 595.931498 260.338869 
L 596.381753 260.281811 
L 596.381753 260.224754 
L 596.606881 260.224754 
L 596.606881 259.996523 
L 597.057136 259.939466 
L 597.057136 259.802528 
L 597.282264 259.802528 
L 597.282264 259.688413 
L 597.732519 259.597121 
L 597.732519 259.551474 
L 598.182775 259.448771 
L 598.182775 259.311833 
L 598.407902 259.311833 
L 598.407902 259.152072 
L 598.858157 259.095014 
L 598.858157 259.026545 
L 599.083285 259.026545 
L 599.083285 258.501616 
L 599.53354 258.433147 
L 599.53354 258.319031 
L 599.758668 258.319031 
L 599.758668 258.182093 
L 599.983796 258.182093 
L 599.983796 258.056567 
L 600.208923 258.056567 
L 600.208923 257.725633 
L 600.659179 257.622929 
L 600.659179 257.497403 
L 600.884306 257.497403 
L 600.884306 256.527424 
L 601.109434 256.527424 
L 601.109434 256.379075 
L 601.334561 256.379075 
L 601.334561 256.230725 
L 601.559689 256.230725 
L 601.559689 255.420508 
L 601.784817 255.420508 
L 601.784817 255.306393 
L 602.009944 255.306393 
L 602.009944 255.146632 
L 602.235072 255.146632 
L 602.235072 254.918402 
L 602.685327 254.861344 
L 602.685327 254.667348 
L 602.910455 254.667348 
L 602.910455 254.313592 
L 603.135583 254.313592 
L 603.135583 254.108184 
L 603.585838 254.039715 
L 603.585838 253.651724 
L 603.810965 253.651724 
L 603.810965 253.503374 
L 604.036093 253.503374 
L 604.036093 253.309379 
L 604.261221 253.309379 
L 604.261221 253.172441 
L 604.486348 253.172441 
L 604.486348 253.035502 
L 604.711476 253.035502 
L 604.711476 252.852918 
L 605.386859 252.750215 
L 605.386859 252.544808 
L 605.611987 252.544808 
L 605.611987 252.362223 
L 606.062242 252.25952 
L 606.062242 252.168228 
L 606.287369 252.168228 
L 606.287369 251.962821 
L 606.737625 251.871528 
L 606.737625 251.449303 
L 607.18788 251.392245 
L 607.18788 251.27813 
L 607.413008 251.27813 
L 607.413008 251.0499 
L 607.638135 251.0499 
L 607.638135 250.844493 
L 607.863263 250.844493 
L 607.863263 250.67332 
L 608.088391 250.67332 
L 608.088391 250.433678 
L 608.538646 250.353798 
L 608.538646 250.136979 
L 608.763773 250.136979 
L 608.763773 249.92016 
L 608.988901 249.92016 
L 608.988901 249.714753 
L 609.439156 249.623461 
L 609.439156 249.543581 
L 609.664284 249.543581 
L 609.664284 249.372408 
L 609.889412 249.372408 
L 609.889412 249.098532 
L 610.114539 249.098532 
L 610.114539 248.904536 
L 610.339667 248.904536 
L 610.339667 248.619248 
L 610.564795 248.619248 
L 610.564795 248.379607 
L 610.789922 248.379607 
L 610.789922 248.037261 
L 611.01505 248.037261 
L 611.01505 247.911735 
L 611.240177 247.911735 
L 611.240177 247.751973 
L 611.465305 247.751973 
L 611.465305 247.546566 
L 611.690433 247.546566 
L 611.690433 247.27269 
L 611.91556 247.27269 
L 611.91556 247.055871 
L 612.140688 247.055871 
L 612.140688 246.850464 
L 612.365816 246.850464 
L 612.365816 246.268477 
L 612.590943 246.268477 
L 612.590943 246.051659 
L 612.816071 246.051659 
L 612.816071 245.777782 
L 613.041199 245.777782 
L 613.041199 245.446849 
L 613.266326 245.446849 
L 613.266326 245.195795 
L 613.491454 245.195795 
L 613.491454 244.967565 
L 613.716581 244.967565 
L 613.716581 244.568162 
L 614.166837 244.511105 
L 614.166837 244.282875 
L 614.391964 244.282875 
L 614.391964 243.49548 
L 614.617092 243.49548 
L 614.617092 243.369954 
L 614.84222 243.369954 
L 614.84222 243.255839 
L 615.292475 243.198781 
L 615.292475 243.130312 
L 615.517603 243.130312 
L 615.517603 242.753732 
L 615.74273 242.753732 
L 615.74273 242.491268 
L 615.967858 242.491268 
L 615.967858 242.297272 
L 616.192985 242.297272 
L 616.192985 241.532701 
L 616.643241 241.509878 
L 616.643241 241.281648 
L 616.868368 241.281648 
L 616.868368 240.733895 
L 617.093496 240.733895 
L 617.093496 240.551311 
L 617.543751 240.448607 
L 617.543751 240.026381 
L 617.768879 240.026381 
L 617.768879 239.86662 
L 617.994007 239.86662 
L 617.994007 239.581333 
L 618.219134 239.581333 
L 618.219134 239.341691 
L 618.444262 239.341691 
L 618.444262 239.136284 
L 618.669389 239.136284 
L 618.669389 237.926664 
L 618.894517 237.926664 
L 618.894517 237.766903 
L 619.119645 237.766903 
L 619.119645 237.652787 
L 619.344772 237.652787 
L 619.344772 236.922451 
L 619.5699 236.922451 
L 619.5699 236.796924 
L 620.020155 236.728455 
L 620.020155 235.918238 
L 620.245283 235.918238 
L 620.245283 235.690008 
L 620.470411 235.690008 
L 620.470411 235.518835 
L 620.695538 235.518835 
L 620.695538 233.989693 
L 620.920666 233.989693 
L 620.920666 233.601702 
L 621.145793 233.601702 
L 621.145793 233.327825 
L 621.370921 233.327825 
L 621.370921 233.122418 
L 621.596049 233.122418 
L 621.596049 232.98548 
L 622.046304 232.905599 
L 622.046304 232.6089 
L 622.271432 232.6089 
L 622.271432 232.460551 
L 622.496559 232.460551 
L 622.496559 232.015502 
L 622.721687 232.015502 
L 622.721687 231.844329 
L 622.946815 231.844329 
L 622.946815 231.616099 
L 623.171942 231.616099 
L 623.171942 231.479161 
L 623.39707 231.479161 
L 623.39707 231.273754 
L 623.622197 231.273754 
L 623.622197 231.125404 
L 623.847325 231.125404 
L 623.847325 230.360833 
L 624.072453 230.360833 
L 624.072453 230.18966 
L 624.29758 230.18966 
L 624.29758 230.052722 
L 624.522708 230.052722 
L 624.522708 228.877336 
L 624.747836 228.877336 
L 624.747836 228.649106 
L 624.972963 228.649106 
L 624.972963 228.318173 
L 625.198091 228.318173 
L 625.198091 228.147 
L 625.423219 228.147 
L 625.423219 227.953004 
L 625.648346 227.953004 
L 625.648346 227.485132 
L 625.873474 227.485132 
L 625.873474 227.31396 
L 626.098601 227.31396 
L 626.098601 226.925968 
L 626.323729 226.925968 
L 626.323729 226.70915 
L 626.548857 226.70915 
L 626.548857 226.366804 
L 626.773984 226.366804 
L 626.773984 226.092928 
L 626.999112 226.092928 
L 626.999112 225.670702 
L 627.22424 225.670702 
L 627.22424 225.328357 
L 627.449367 225.328357 
L 627.449367 225.20283 
L 627.674495 225.20283 
L 627.674495 224.780605 
L 627.899623 224.780605 
L 627.899623 224.643666 
L 628.12475 224.643666 
L 628.12475 223.981799 
L 628.349878 223.981799 
L 628.349878 223.822038 
L 628.575005 223.822038 
L 628.575005 223.616631 
L 628.800133 223.616631 
L 628.800133 223.354166 
L 629.025261 223.354166 
L 629.025261 222.840648 
L 629.250388 222.840648 
L 629.250388 222.55536 
L 629.475516 222.55536 
L 629.475516 221.916316 
L 629.700644 221.916316 
L 629.700644 221.482678 
L 629.925771 221.482678 
L 629.925771 221.26586 
L 630.150899 221.26586 
L 630.150899 220.843634 
L 630.376027 220.843634 
L 630.376027 220.535523 
L 630.601154 220.535523 
L 630.601154 220.375762 
L 630.826282 220.375762 
L 630.826282 219.828009 
L 631.051409 219.828009 
L 631.051409 219.67966 
L 631.276537 219.67966 
L 631.276537 219.405783 
L 631.501665 219.405783 
L 631.501665 219.040615 
L 631.726792 219.040615 
L 631.726792 218.447217 
L 631.95192 218.447217 
L 631.95192 218.184752 
L 632.177048 218.184752 
L 632.177048 217.682646 
L 632.402175 217.682646 
L 632.402175 217.431592 
L 632.627303 217.431592 
L 632.627303 216.781136 
L 632.852431 216.781136 
L 632.852431 216.393145 
L 633.077558 216.393145 
L 633.077558 216.107857 
L 633.302686 216.107857 
L 633.302686 215.605751 
L 633.527813 215.605751 
L 633.527813 215.06941 
L 633.752941 215.06941 
L 633.752941 214.749888 
L 633.978069 214.749888 
L 633.978069 214.453188 
L 634.203196 214.453188 
L 634.203196 214.076608 
L 634.428324 214.076608 
L 634.428324 213.85979 
L 634.653452 213.85979 
L 634.653452 213.700029 
L 634.878579 213.700029 
L 634.878579 213.33486 
L 635.103707 213.33486 
L 635.103707 212.912634 
L 635.328835 212.912634 
L 635.328835 212.524643 
L 635.553962 212.524643 
L 635.553962 212.079594 
L 635.77909 212.079594 
L 635.77909 211.06397 
L 636.004217 211.06397 
L 636.004217 210.744448 
L 636.229345 210.744448 
L 636.229345 210.31081 
L 636.454473 210.31081 
L 636.454473 209.888584 
L 636.6796 209.888584 
L 636.6796 209.489182 
L 636.904728 209.489182 
L 636.904728 208.815902 
L 637.129856 208.815902 
L 637.129856 208.313796 
L 637.354983 208.313796 
L 637.354983 207.583459 
L 637.580111 207.583459 
L 637.580111 207.092765 
L 637.805239 207.092765 
L 637.805239 206.613481 
L 638.030366 206.613481 
L 638.030366 206.157021 
L 638.255494 206.157021 
L 638.255494 205.358215 
L 638.480621 205.358215 
L 638.480621 204.49094 
L 638.705749 204.49094 
L 638.705749 203.829073 
L 638.930877 203.829073 
L 638.930877 203.395435 
L 639.156004 203.395435 
L 639.156004 203.05309 
L 639.381132 203.05309 
L 639.381132 202.436869 
L 639.60626 202.436869 
L 639.60626 201.820647 
L 639.831387 201.820647 
L 639.831387 201.227249 
L 640.056515 201.227249 
L 640.056515 200.793611 
L 640.281643 200.793611 
L 640.281643 200.302916 
L 640.50677 200.302916 
L 640.50677 199.892102 
L 640.731898 199.892102 
L 640.731898 199.310115 
L 640.957025 199.310115 
L 640.957025 198.96777 
L 641.182153 198.96777 
L 641.182153 198.59119 
L 641.407281 198.59119 
L 641.407281 197.906499 
L 641.632408 197.906499 
L 641.632408 197.450039 
L 641.857536 197.450039 
L 641.857536 196.85664 
L 642.082664 196.85664 
L 642.082664 195.863839 
L 642.307791 195.863839 
L 642.307791 195.065033 
L 642.532919 195.065033 
L 642.532919 194.574338 
L 642.758047 194.574338 
L 642.758047 193.889648 
L 642.983174 193.889648 
L 642.983174 192.782731 
L 643.208302 192.782731 
L 643.208302 191.835576 
L 643.433429 191.835576 
L 643.433429 190.625956 
L 643.658557 190.625956 
L 643.658557 189.507628 
L 643.883685 189.507628 
L 643.883685 188.91423 
L 644.108812 188.91423 
L 644.108812 187.875782 
L 644.33394 187.875782 
L 644.33394 186.791689 
L 644.559068 186.791689 
L 644.559068 185.673361 
L 644.784195 185.673361 
L 644.784195 184.486564 
L 645.009323 184.486564 
L 645.009323 182.854718 
L 645.234451 182.854718 
L 645.234451 181.770625 
L 645.459578 181.770625 
L 645.459578 179.636672 
L 645.684706 179.636672 
L 645.684706 178.392818 
L 645.909833 178.392818 
L 645.909833 176.738149 
L 646.134961 176.738149 
L 646.134961 175.186183 
L 646.360089 175.186183 
L 646.360089 173.634218 
L 646.585216 173.634218 
L 646.585216 171.386151 
L 646.810344 171.386151 
L 646.810344 169.366314 
L 647.035472 169.366314 
L 647.035472 167.163892 
L 647.260599 167.163892 
L 647.260599 163.786085 
L 647.485727 163.786085 
L 647.485727 160.636509 
L 647.710855 160.636509 
L 647.710855 155.58121 
L 647.935982 155.58121 
L 647.935982 41.032476 
L 648.16111 41.032476 
L 648.16111 39.583214 
L 648.386237 39.583214 
L 648.386237 39.02405 
L 648.611365 39.02405 
L 648.611365 37.974191 
L 648.836493 37.974191 
L 648.836493 37.791607 
L 649.06162 37.791607 
L 649.06162 37.460673 
L 649.511876 37.35797 
L 649.511876 37.300912 
L 650.412386 37.20962 
L 650.412386 36.75316 
L 651.538024 36.650456 
L 651.538024 36.570575 
L 653.339045 36.467872 
L 653.339045 36.433637 
L 656.040577 36.365168 
L 656.040577 36.091292 
L 681.48 36 
L 681.48 315 
L 681.48 315 
" style="fill:none;stroke:#4c72b0;stroke-linejoin:miter;stroke-width:2.0;"/>
   </g>
   <g id="patch_13">
    <path clip-path="url(#pcc14458d2a)" d="M 97.609091 315 
L 97.609091 313.405714 
L 135.269816 313.405714 
L 135.269816 311.811429 
L 160.376966 311.811429 
L 160.376966 310.217143 
L 170.838279 310.217143 
L 170.838279 308.622857 
L 175.022804 308.622857 
L 175.022804 307.028571 
L 348.680592 307.028571 
L 348.680592 305.434286 
L 384.249055 305.434286 
L 384.249055 303.84 
L 398.894893 303.84 
L 398.894893 302.245714 
L 409.356205 302.245714 
L 409.356205 299.057143 
L 426.094305 299.057143 
L 426.094305 297.462857 
L 430.27883 297.462857 
L 430.27883 295.868571 
L 432.371093 295.868571 
L 432.371093 294.274286 
L 434.463355 294.274286 
L 434.463355 292.68 
L 524.430644 292.68 
L 524.430644 291.085714 
L 526.522906 291.085714 
L 526.522906 287.897143 
L 528.615169 287.897143 
L 528.615169 286.302857 
L 530.707431 286.302857 
L 530.707431 284.708571 
L 532.799694 284.708571 
L 532.799694 278.331429 
L 534.891956 278.331429 
L 534.891956 268.765714 
L 536.984219 268.765714 
L 536.984219 267.171429 
L 543.261006 267.171429 
L 543.261006 263.982857 
L 545.353269 263.982857 
L 545.353269 262.388571 
L 549.537794 262.388571 
L 549.537794 260.794286 
L 551.630056 260.794286 
L 551.630056 259.2 
L 555.814581 259.2 
L 555.814581 257.605714 
L 557.906844 257.605714 
L 557.906844 254.417143 
L 564.183631 254.417143 
L 564.183631 252.822857 
L 570.460419 252.822857 
L 570.460419 251.228571 
L 583.013994 251.228571 
L 583.013994 248.04 
L 585.106256 248.04 
L 585.106256 246.445714 
L 587.198519 246.445714 
L 587.198519 238.474286 
L 589.290781 238.474286 
L 589.290781 235.285714 
L 591.383044 235.285714 
L 591.383044 233.691429 
L 593.475306 233.691429 
L 593.475306 228.908571 
L 597.659831 228.908571 
L 597.659831 227.314286 
L 599.752094 227.314286 
L 599.752094 220.937143 
L 606.028882 220.937143 
L 606.028882 219.342857 
L 608.121144 219.342857 
L 608.121144 217.748571 
L 610.213407 217.748571 
L 610.213407 211.371429 
L 612.305669 211.371429 
L 612.305669 208.182857 
L 614.397932 208.182857 
L 614.397932 204.994286 
L 616.490194 204.994286 
L 616.490194 201.805714 
L 618.582457 201.805714 
L 618.582457 197.022857 
L 620.674719 197.022857 
L 620.674719 189.051429 
L 622.766982 189.051429 
L 622.766982 185.862857 
L 624.859244 185.862857 
L 624.859244 184.268571 
L 626.951507 184.268571 
L 626.951507 179.485714 
L 629.043769 179.485714 
L 629.043769 174.702857 
L 631.136032 174.702857 
L 631.136032 166.731429 
L 635.320557 166.731429 
L 635.320557 163.542857 
L 637.412819 163.542857 
L 637.412819 160.354286 
L 639.505082 160.354286 
L 639.505082 155.571429 
L 641.597344 155.571429 
L 641.597344 142.817143 
L 643.689607 142.817143 
L 643.689607 126.874286 
L 645.781869 126.874286 
L 645.781869 104.554286 
L 647.874132 104.554286 
L 647.874132 39.188571 
L 649.966394 39.188571 
L 649.966394 37.594286 
L 654.150919 37.594286 
L 654.150919 36 
L 656.243182 36 
L 656.243182 315 
L 656.243182 315 
" style="fill:none;stroke:#55a868;stroke-linejoin:miter;stroke-width:2.0;"/>
   </g>
   <g id="patch_14">
    <path d="M 394.363636 36 
L 648 36 
" style="fill:none;"/>
   </g>
   <g id="patch_15">
    <path d="M 648 315 
L 648 36 
" style="fill:none;"/>
   </g>
   <g id="patch_16">
    <path d="M 394.363636 315 
L 648 315 
" style="fill:none;"/>
   </g>
   <g id="patch_17">
    <path d="M 394.363636 315 
L 394.363636 36 
" style="fill:none;"/>
   </g>
   <g id="text_32">
    <!-- Activating -->
    <defs>
     <path d="M -0.140625 0 
L 27.34375 71.578125 
L 37.546875 71.578125 
L 66.84375 0 
L 56.0625 0 
L 47.703125 21.6875 
L 17.78125 21.6875 
L 9.90625 0 
z
M 20.515625 29.390625 
L 44.78125 29.390625 
L 37.3125 49.21875 
Q 33.890625 58.25 32.234375 64.0625 
Q 30.859375 57.171875 28.375 50.390625 
z
" id="ArialMT-41"/>
    </defs>
    <g style="fill:#262626;" transform="translate(495.169943182 31.0)scale(0.12 -0.12)">
     <use xlink:href="#ArialMT-41"/>
     <use x="66.69921875" xlink:href="#ArialMT-63"/>
     <use x="116.69921875" xlink:href="#ArialMT-74"/>
     <use x="144.482421875" xlink:href="#ArialMT-69"/>
     <use x="166.69921875" xlink:href="#ArialMT-76"/>
     <use x="216.69921875" xlink:href="#ArialMT-61"/>
     <use x="272.314453125" xlink:href="#ArialMT-74"/>
     <use x="300.09765625" xlink:href="#ArialMT-69"/>
     <use x="322.314453125" xlink:href="#ArialMT-6e"/>
     <use x="377.9296875" xlink:href="#ArialMT-67"/>
    </g>
   </g>
   <g id="legend_2">
    <g id="patch_18">
     <path d="M 403.363636 52.157812 
L 423.363636 52.157812 
L 423.363636 45.157812 
L 403.363636 45.157812 
L 403.363636 52.157812 
z
" style="fill:none;stroke:#4c72b0;stroke-linejoin:miter;stroke-width:2.0;"/>
    </g>
    <g id="text_33">
     <!-- non-interacting -->
     <g style="fill:#262626;" transform="translate(431.363636364 52.1578125)scale(0.1 -0.1)">
      <use xlink:href="#ArialMT-6e"/>
      <use x="55.615234375" xlink:href="#ArialMT-6f"/>
      <use x="111.23046875" xlink:href="#ArialMT-6e"/>
      <use x="166.845703125" xlink:href="#ArialMT-2d"/>
      <use x="200.146484375" xlink:href="#ArialMT-69"/>
      <use x="222.36328125" xlink:href="#ArialMT-6e"/>
      <use x="277.978515625" xlink:href="#ArialMT-74"/>
      <use x="305.76171875" xlink:href="#ArialMT-65"/>
      <use x="361.376953125" xlink:href="#ArialMT-72"/>
      <use x="394.677734375" xlink:href="#ArialMT-61"/>
      <use x="450.29296875" xlink:href="#ArialMT-63"/>
      <use x="500.29296875" xlink:href="#ArialMT-74"/>
      <use x="528.076171875" xlink:href="#ArialMT-69"/>
      <use x="550.29296875" xlink:href="#ArialMT-6e"/>
      <use x="605.908203125" xlink:href="#ArialMT-67"/>
     </g>
    </g>
    <g id="patch_19">
     <path d="M 403.363636 66.420312 
L 423.363636 66.420312 
L 423.363636 59.420312 
L 403.363636 59.420312 
L 403.363636 66.420312 
z
" style="fill:none;stroke:#55a868;stroke-linejoin:miter;stroke-width:2.0;"/>
    </g>
    <g id="text_34">
     <!-- interacting -->
     <g style="fill:#262626;" transform="translate(431.363636364 66.4203125)scale(0.1 -0.1)">
      <use xlink:href="#ArialMT-69"/>
      <use x="22.216796875" xlink:href="#ArialMT-6e"/>
      <use x="77.83203125" xlink:href="#ArialMT-74"/>
      <use x="105.615234375" xlink:href="#ArialMT-65"/>
      <use x="161.23046875" xlink:href="#ArialMT-72"/>
      <use x="194.53125" xlink:href="#ArialMT-61"/>
      <use x="250.146484375" xlink:href="#ArialMT-63"/>
      <use x="300.146484375" xlink:href="#ArialMT-74"/>
      <use x="327.9296875" xlink:href="#ArialMT-69"/>
      <use x="350.146484375" xlink:href="#ArialMT-6e"/>
      <use x="405.76171875" xlink:href="#ArialMT-67"/>
     </g>
    </g>
   </g>
  </g>
 </g>
 <defs>
  <clipPath id="pcc14458d2a">
   <rect height="279.0" width="253.636363636" x="394.363636364" y="36.0"/>
  </clipPath>
  <clipPath id="pbf24ed6be7">
   <rect height="279.0" width="253.636363636" x="90.0" y="36.0"/>
  </clipPath>
 </defs>
</svg>
