<?xml version="1.0" encoding="utf-8" standalone="no"?>
<!DOCTYPE svg PUBLIC "-//W3C//DTD SVG 1.1//EN"
  "http://www.w3.org/Graphics/SVG/1.1/DTD/svg11.dtd">
<!-- Created with matplotlib (http://matplotlib.org/) -->
<svg height="360pt" version="1.1" viewBox="0 0 504 360" width="504pt" xmlns="http://www.w3.org/2000/svg" xmlns:xlink="http://www.w3.org/1999/xlink">
 <defs>
  <style type="text/css">
*{stroke-linecap:butt;stroke-linejoin:round;stroke-miterlimit:100000;}
  </style>
 </defs>
 <g id="figure_1">
  <g id="patch_1">
   <path d="M 0 360 
L 504 360 
L 504 0 
L 0 0 
z
" style="fill:#ffffff;"/>
  </g>
  <g id="axes_1">
   <g id="patch_2">
    <path clip-path="url(#p781d39bd56)" d="M 190.289128 115.171564 
C 192.588018 116.591825 194.740343 118.236663 196.714461 120.081898 
C 198.68858 121.927134 200.47477 123.963679 202.046774 126.161597 
C 203.689356 126.966414 205.24409 127.939346 206.686033 129.064782 
C 208.127975 130.190218 209.449373 131.462108 210.629026 132.860044 
C 207.803476 129.332222 204.666456 126.065576 201.255868 123.099578 
C 197.84528 120.133579 194.174918 117.480221 190.289128 115.171564 
M 187.603719 113.649572 
C 179.487604 109.266654 170.635752 106.409873 161.488687 105.221397 
C 152.341621 104.032922 143.053639 104.532801 134.086969 106.696158 
C 125.120299 108.859515 116.626196 112.649856 109.027378 117.878551 
C 101.42856 123.107246 94.85321 129.686095 89.628556 137.287692 
C 84.403903 144.889289 80.618079 153.385407 78.459491 162.353226 
C 76.300903 171.321045 75.805963 180.609292 76.999302 189.755724 
C 78.192641 198.902156 81.05413 207.752488 85.441363 215.866271 
C 89.828595 223.980054 95.667566 231.22042 102.66769 237.227045 
C 109.667815 243.233669 117.711012 247.905229 126.397001 251.009238 
C 135.082991 254.113246 144.265253 255.597344 153.486821 255.387673 
C 162.70839 255.178001 171.813709 253.278098 180.349644 249.782513 
C 188.885578 246.286929 196.708137 241.254628 203.428023 234.936051 
C 210.147909 228.617474 215.651766 221.119205 219.665688 212.814404 
C 223.679611 204.509604 226.135889 195.538362 226.912284 186.347144 
C 227.68868 177.155925 226.772094 167.899773 224.208144 159.03933 
C 221.644194 150.178888 217.476129 141.863618 211.911377 134.50734 
C 214.152723 137.633509 215.685846 141.211043 216.403679 144.990101 
C 217.121512 148.769158 217.006945 152.659671 216.067981 156.38994 
C 215.129016 160.12021 213.388032 163.601329 210.966613 166.59019 
C 208.545194 169.579051 205.50105 172.004419 202.046774 173.696914 
C 197.491127 180.066448 191.198805 184.993864 183.922805 187.889501 
C 176.646806 190.785137 168.689427 191.52869 161.002923 190.031177 
C 153.31642 188.533664 146.220144 184.857303 140.563305 179.442042 
C 134.906465 174.026782 130.924087 167.09761 129.092739 159.483738 
C 127.261391 151.869867 127.657161 143.887629 130.232687 136.492255 
C 132.808213 129.096882 137.456489 122.59563 143.621259 117.766501 
C 149.786029 112.937371 157.211164 109.981001 165.008102 109.251177 
C 172.80504 108.521354 180.64984 110.048399 187.603719 113.649572 
" style="fill:#0000ff;opacity:0.4;"/>
   </g>
   <g id="patch_3">
    <path clip-path="url(#p781d39bd56)" d="M 202.046774 126.161597 
C 200.47477 123.963679 198.68858 121.927134 196.714461 120.081898 
C 194.740343 118.236663 192.588018 116.591825 190.289128 115.171564 
C 189.846811 114.90877 189.401815 114.650511 188.954212 114.396826 
C 188.506609 114.14314 188.056421 113.894043 187.603719 113.649572 
C 180.64984 110.048399 172.80504 108.521354 165.008102 109.251177 
C 157.211164 109.981001 149.786029 112.937371 143.621259 117.766501 
C 137.456489 122.59563 132.808213 129.096882 130.232687 136.492255 
C 127.657161 143.887629 127.261391 151.869867 129.092739 159.483738 
C 130.924087 167.09761 134.906465 174.026782 140.563305 179.442042 
C 146.220144 184.857303 153.31642 188.533664 161.002923 190.031177 
C 168.689427 191.52869 176.646806 190.785137 183.922805 187.889501 
C 191.198805 184.993864 197.491127 180.066448 202.046774 173.696914 
C 198.011897 175.673887 193.53927 176.591218 189.051934 176.362144 
C 184.564598 176.133069 180.208637 174.765045 176.396056 172.387466 
C 172.583474 170.009887 169.43839 166.700154 167.258279 162.771315 
C 165.078168 158.842476 163.934002 154.422434 163.934002 149.929255 
C 163.934002 145.436076 165.078168 141.016034 167.258279 137.087195 
C 169.43839 133.158357 172.583474 129.848623 176.396056 127.471044 
C 180.208637 125.093465 184.564598 123.725441 189.051934 123.496367 
C 193.53927 123.267292 198.011897 124.184624 202.046774 126.161597 
" style="fill:#b200b2;opacity:0.4;"/>
   </g>
   <g id="patch_4">
    <path clip-path="url(#p781d39bd56)" d="M 202.046774 173.696914 
C 205.50105 172.004419 208.545194 169.579051 210.966613 166.59019 
C 213.388032 163.601329 215.129016 160.12021 216.067981 156.38994 
C 217.006945 152.659671 217.121512 148.769158 216.403679 144.990101 
C 215.685846 141.211043 214.152723 137.633509 211.911377 134.50734 
C 211.701465 134.229849 211.489635 133.953814 211.275902 133.679254 
C 211.062169 133.404695 210.846538 133.131619 210.629026 132.860044 
C 209.449373 131.462108 208.127975 130.190218 206.686033 129.064782 
C 205.24409 127.939346 203.689356 126.966414 202.046774 126.161597 
C 207.004809 133.093735 209.671621 141.406541 209.671621 149.929255 
C 209.671621 158.451969 207.004809 166.764775 202.046774 173.696914 
" style="fill:#0059b2;opacity:0.4;"/>
   </g>
   <g id="patch_5">
    <path clip-path="url(#p781d39bd56)" d="M 202.046774 173.696914 
C 207.004809 166.764775 209.671621 158.451969 209.671621 149.929255 
C 209.671621 141.406541 207.004809 133.093735 202.046774 126.161597 
C 198.011897 124.184624 193.53927 123.267292 189.051934 123.496367 
C 184.564598 123.725441 180.208637 125.093465 176.396056 127.471044 
C 172.583474 129.848623 169.43839 133.158357 167.258279 137.087195 
C 165.078168 141.016034 163.934002 145.436076 163.934002 149.929255 
C 163.934002 154.422434 165.078168 158.842476 167.258279 162.771315 
C 169.43839 166.700154 172.583474 170.009887 176.396056 172.387466 
C 180.208637 174.765045 184.564598 176.133069 189.051934 176.362144 
C 193.53927 176.591218 198.011897 175.673887 202.046774 173.696914 
" style="fill:#663366;opacity:0.4;"/>
   </g>
   <g id="text_1">
    <!-- 719 -->
    <defs>
     <path d="M 37.25 0 
L 28.46875 0 
L 28.46875 56 
Q 25.296875 52.984375 20.140625 49.953125 
Q 14.984375 46.921875 10.890625 45.40625 
L 10.890625 53.90625 
Q 18.265625 57.375 23.78125 62.296875 
Q 29.296875 67.234375 31.59375 71.875 
L 37.25 71.875 
z
" id="ArialMT-31"/>
     <path d="M 5.46875 16.546875 
L 13.921875 17.328125 
Q 14.984375 11.375 18.015625 8.6875 
Q 21.046875 6 25.78125 6 
Q 29.828125 6 32.875 7.859375 
Q 35.9375 9.71875 37.890625 12.8125 
Q 39.84375 15.921875 41.15625 21.1875 
Q 42.484375 26.46875 42.484375 31.9375 
Q 42.484375 32.515625 42.4375 33.6875 
Q 39.796875 29.5 35.234375 26.875 
Q 30.671875 24.265625 25.34375 24.265625 
Q 16.453125 24.265625 10.296875 30.703125 
Q 4.15625 37.15625 4.15625 47.703125 
Q 4.15625 58.59375 10.578125 65.234375 
Q 17 71.875 26.65625 71.875 
Q 33.640625 71.875 39.421875 68.109375 
Q 45.21875 64.359375 48.21875 57.390625 
Q 51.21875 50.4375 51.21875 37.25 
Q 51.21875 23.53125 48.234375 15.40625 
Q 45.265625 7.28125 39.375 3.03125 
Q 33.5 -1.21875 25.59375 -1.21875 
Q 17.1875 -1.21875 11.859375 3.4375 
Q 6.546875 8.109375 5.46875 16.546875 
M 41.453125 48.140625 
Q 41.453125 55.71875 37.421875 60.15625 
Q 33.40625 64.59375 27.734375 64.59375 
Q 21.875 64.59375 17.53125 59.8125 
Q 13.1875 55.03125 13.1875 47.40625 
Q 13.1875 40.578125 17.3125 36.296875 
Q 21.4375 32.03125 27.484375 32.03125 
Q 33.59375 32.03125 37.515625 36.296875 
Q 41.453125 40.578125 41.453125 48.140625 
" id="ArialMT-39"/>
     <path d="M 4.734375 62.203125 
L 4.734375 70.65625 
L 51.078125 70.65625 
L 51.078125 63.8125 
Q 44.234375 56.546875 37.515625 44.484375 
Q 30.8125 32.421875 27.15625 19.671875 
Q 24.515625 10.6875 23.78125 0 
L 14.75 0 
Q 14.890625 8.453125 18.0625 20.40625 
Q 21.234375 32.375 27.171875 43.484375 
Q 33.109375 54.59375 39.796875 62.203125 
z
" id="ArialMT-37"/>
    </defs>
    <g style="fill:#262626;" transform="translate(120.786708237 198.952399324)scale(0.096 -0.096)">
     <use xlink:href="#ArialMT-37"/>
     <use x="55.615234375" xlink:href="#ArialMT-31"/>
     <use x="111.23046875" xlink:href="#ArialMT-39"/>
    </g>
   </g>
   <g id="text_2">
    <!-- 192 -->
    <defs>
     <path d="M 50.34375 8.453125 
L 50.34375 0 
L 3.03125 0 
Q 2.9375 3.171875 4.046875 6.109375 
Q 5.859375 10.9375 9.828125 15.625 
Q 13.8125 20.3125 21.34375 26.46875 
Q 33.015625 36.03125 37.109375 41.625 
Q 41.21875 47.21875 41.21875 52.203125 
Q 41.21875 57.421875 37.46875 61 
Q 33.734375 64.59375 27.734375 64.59375 
Q 21.390625 64.59375 17.578125 60.78125 
Q 13.765625 56.984375 13.71875 50.25 
L 4.6875 51.171875 
Q 5.609375 61.28125 11.65625 66.578125 
Q 17.71875 71.875 27.9375 71.875 
Q 38.234375 71.875 44.234375 66.15625 
Q 50.25 60.453125 50.25 52 
Q 50.25 47.703125 48.484375 43.546875 
Q 46.734375 39.40625 42.65625 34.8125 
Q 38.578125 30.21875 29.109375 22.21875 
Q 21.1875 15.578125 18.9375 13.203125 
Q 16.703125 10.84375 15.234375 8.453125 
z
" id="ArialMT-32"/>
    </defs>
    <g style="fill:#262626;" transform="translate(139.901261635 155.763057562)scale(0.096 -0.096)">
     <use xlink:href="#ArialMT-31"/>
     <use x="55.615234375" xlink:href="#ArialMT-39"/>
     <use x="111.23046875" xlink:href="#ArialMT-32"/>
    </g>
   </g>
   <g id="text_3">
    <!-- 15 -->
    <defs>
     <path d="M 4.15625 18.75 
L 13.375 19.53125 
Q 14.40625 12.796875 18.140625 9.390625 
Q 21.875 6 27.15625 6 
Q 33.5 6 37.890625 10.78125 
Q 42.28125 15.578125 42.28125 23.484375 
Q 42.28125 31 38.0625 35.34375 
Q 33.84375 39.703125 27 39.703125 
Q 22.75 39.703125 19.328125 37.765625 
Q 15.921875 35.84375 13.96875 32.765625 
L 5.71875 33.84375 
L 12.640625 70.609375 
L 48.25 70.609375 
L 48.25 62.203125 
L 19.671875 62.203125 
L 15.828125 42.96875 
Q 22.265625 47.46875 29.34375 47.46875 
Q 38.71875 47.46875 45.15625 40.96875 
Q 51.609375 34.46875 51.609375 24.265625 
Q 51.609375 14.546875 45.953125 7.46875 
Q 39.0625 -1.21875 27.15625 -1.21875 
Q 17.390625 -1.21875 11.203125 4.25 
Q 5.03125 9.71875 4.15625 18.75 
" id="ArialMT-35"/>
    </defs>
    <g style="fill:#262626;" transform="translate(207.232740651 153.033593823)scale(0.096 -0.096)">
     <use xlink:href="#ArialMT-31"/>
     <use x="55.615234375" xlink:href="#ArialMT-35"/>
    </g>
   </g>
   <g id="text_4">
    <!-- 113 -->
    <defs>
     <path d="M 4.203125 18.890625 
L 12.984375 20.0625 
Q 14.5 12.59375 18.140625 9.296875 
Q 21.78125 6 27 6 
Q 33.203125 6 37.46875 10.296875 
Q 41.75 14.59375 41.75 20.953125 
Q 41.75 27 37.796875 30.921875 
Q 33.84375 34.859375 27.734375 34.859375 
Q 25.25 34.859375 21.53125 33.890625 
L 22.515625 41.609375 
Q 23.390625 41.5 23.921875 41.5 
Q 29.546875 41.5 34.03125 44.421875 
Q 38.53125 47.359375 38.53125 53.46875 
Q 38.53125 58.296875 35.25 61.46875 
Q 31.984375 64.65625 26.8125 64.65625 
Q 21.6875 64.65625 18.265625 61.421875 
Q 14.84375 58.203125 13.875 51.765625 
L 5.078125 53.328125 
Q 6.6875 62.15625 12.390625 67.015625 
Q 18.109375 71.875 26.609375 71.875 
Q 32.46875 71.875 37.390625 69.359375 
Q 42.328125 66.84375 44.9375 62.5 
Q 47.5625 58.15625 47.5625 53.265625 
Q 47.5625 48.640625 45.0625 44.828125 
Q 42.578125 41.015625 37.703125 38.765625 
Q 44.046875 37.3125 47.5625 32.6875 
Q 51.078125 28.078125 51.078125 21.140625 
Q 51.078125 11.765625 44.234375 5.25 
Q 37.40625 -1.265625 26.953125 -1.265625 
Q 17.53125 -1.265625 11.296875 4.34375 
Q 5.078125 9.96875 4.203125 18.890625 
" id="ArialMT-33"/>
    </defs>
    <g style="fill:#262626;" transform="translate(178.800311854 152.411005085)scale(0.096 -0.096)">
     <use xlink:href="#ArialMT-31"/>
     <use x="55.505859375" xlink:href="#ArialMT-31"/>
     <use x="111.12109375" xlink:href="#ArialMT-33"/>
    </g>
   </g>
   <g id="text_5">
    <!-- inhibitors -->
    <defs>
     <path d="M 14.703125 0 
L 6.546875 0 
L 6.546875 71.578125 
L 15.328125 71.578125 
L 15.328125 46.046875 
Q 20.90625 53.03125 29.546875 53.03125 
Q 34.328125 53.03125 38.59375 51.09375 
Q 42.875 49.171875 45.625 45.671875 
Q 48.390625 42.1875 49.953125 37.25 
Q 51.515625 32.328125 51.515625 26.703125 
Q 51.515625 13.375 44.921875 6.09375 
Q 38.328125 -1.171875 29.109375 -1.171875 
Q 19.921875 -1.171875 14.703125 6.5 
z
M 14.59375 26.3125 
Q 14.59375 17 17.140625 12.84375 
Q 21.296875 6.0625 28.375 6.0625 
Q 34.125 6.0625 38.328125 11.0625 
Q 42.53125 16.0625 42.53125 25.984375 
Q 42.53125 36.140625 38.5 40.96875 
Q 34.46875 45.796875 28.765625 45.796875 
Q 23 45.796875 18.796875 40.796875 
Q 14.59375 35.796875 14.59375 26.3125 
" id="ArialMT-62"/>
     <path d="M 25.78125 7.859375 
L 27.046875 0.09375 
Q 23.34375 -0.6875 20.40625 -0.6875 
Q 15.625 -0.6875 12.984375 0.828125 
Q 10.359375 2.34375 9.28125 4.8125 
Q 8.203125 7.28125 8.203125 15.1875 
L 8.203125 45.015625 
L 1.765625 45.015625 
L 1.765625 51.859375 
L 8.203125 51.859375 
L 8.203125 64.703125 
L 16.9375 69.96875 
L 16.9375 51.859375 
L 25.78125 51.859375 
L 25.78125 45.015625 
L 16.9375 45.015625 
L 16.9375 14.703125 
Q 16.9375 10.9375 17.40625 9.859375 
Q 17.875 8.796875 18.921875 8.15625 
Q 19.96875 7.515625 21.921875 7.515625 
Q 23.390625 7.515625 25.78125 7.859375 
" id="ArialMT-74"/>
     <path d="M 6.640625 61.46875 
L 6.640625 71.578125 
L 15.4375 71.578125 
L 15.4375 61.46875 
z
M 6.640625 0 
L 6.640625 51.859375 
L 15.4375 51.859375 
L 15.4375 0 
z
" id="ArialMT-69"/>
     <path d="M 6.59375 0 
L 6.59375 71.578125 
L 15.375 71.578125 
L 15.375 45.90625 
Q 21.53125 53.03125 30.90625 53.03125 
Q 36.671875 53.03125 40.921875 50.75 
Q 45.171875 48.484375 47 44.484375 
Q 48.828125 40.484375 48.828125 32.859375 
L 48.828125 0 
L 40.046875 0 
L 40.046875 32.859375 
Q 40.046875 39.453125 37.1875 42.453125 
Q 34.328125 45.453125 29.109375 45.453125 
Q 25.203125 45.453125 21.75 43.421875 
Q 18.3125 41.40625 16.84375 37.9375 
Q 15.375 34.46875 15.375 28.375 
L 15.375 0 
z
" id="ArialMT-68"/>
     <path d="M 6.5 0 
L 6.5 51.859375 
L 14.40625 51.859375 
L 14.40625 44 
Q 17.4375 49.515625 20 51.265625 
Q 22.5625 53.03125 25.640625 53.03125 
Q 30.078125 53.03125 34.671875 50.203125 
L 31.640625 42.046875 
Q 28.421875 43.953125 25.203125 43.953125 
Q 22.3125 43.953125 20.015625 42.21875 
Q 17.71875 40.484375 16.75 37.40625 
Q 15.28125 32.71875 15.28125 27.15625 
L 15.28125 0 
z
" id="ArialMT-72"/>
     <path d="M 3.078125 15.484375 
L 11.765625 16.84375 
Q 12.5 11.625 15.84375 8.84375 
Q 19.1875 6.0625 25.203125 6.0625 
Q 31.25 6.0625 34.171875 8.515625 
Q 37.109375 10.984375 37.109375 14.3125 
Q 37.109375 17.28125 34.515625 19 
Q 32.71875 20.171875 25.53125 21.96875 
Q 15.875 24.421875 12.140625 26.203125 
Q 8.40625 27.984375 6.46875 31.125 
Q 4.546875 34.28125 4.546875 38.09375 
Q 4.546875 41.546875 6.125 44.5 
Q 7.71875 47.46875 10.453125 49.421875 
Q 12.5 50.921875 16.03125 51.96875 
Q 19.578125 53.03125 23.640625 53.03125 
Q 29.734375 53.03125 34.34375 51.265625 
Q 38.96875 49.515625 41.15625 46.5 
Q 43.359375 43.5 44.1875 38.484375 
L 35.59375 37.3125 
Q 35.015625 41.3125 32.203125 43.546875 
Q 29.390625 45.796875 24.265625 45.796875 
Q 18.21875 45.796875 15.625 43.796875 
Q 13.03125 41.796875 13.03125 39.109375 
Q 13.03125 37.40625 14.109375 36.03125 
Q 15.1875 34.625 17.484375 33.6875 
Q 18.796875 33.203125 25.25 31.453125 
Q 34.578125 28.953125 38.25 27.359375 
Q 41.9375 25.78125 44.03125 22.75 
Q 46.140625 19.734375 46.140625 15.234375 
Q 46.140625 10.84375 43.578125 6.953125 
Q 41.015625 3.078125 36.171875 0.953125 
Q 31.34375 -1.171875 25.25 -1.171875 
Q 15.140625 -1.171875 9.84375 3.03125 
Q 4.546875 7.234375 3.078125 15.484375 
" id="ArialMT-73"/>
     <path d="M 3.328125 25.921875 
Q 3.328125 40.328125 11.328125 47.265625 
Q 18.015625 53.03125 27.640625 53.03125 
Q 38.328125 53.03125 45.109375 46.015625 
Q 51.90625 39.015625 51.90625 26.65625 
Q 51.90625 16.65625 48.90625 10.90625 
Q 45.90625 5.171875 40.15625 2 
Q 34.421875 -1.171875 27.640625 -1.171875 
Q 16.75 -1.171875 10.03125 5.8125 
Q 3.328125 12.796875 3.328125 25.921875 
M 12.359375 25.921875 
Q 12.359375 15.96875 16.703125 11.015625 
Q 21.046875 6.0625 27.640625 6.0625 
Q 34.1875 6.0625 38.53125 11.03125 
Q 42.875 16.015625 42.875 26.21875 
Q 42.875 35.84375 38.5 40.796875 
Q 34.125 45.75 27.640625 45.75 
Q 21.046875 45.75 16.703125 40.8125 
Q 12.359375 35.890625 12.359375 25.921875 
" id="ArialMT-6f"/>
     <path d="M 6.59375 0 
L 6.59375 51.859375 
L 14.5 51.859375 
L 14.5 44.484375 
Q 20.21875 53.03125 31 53.03125 
Q 35.6875 53.03125 39.625 51.34375 
Q 43.5625 49.65625 45.515625 46.921875 
Q 47.46875 44.1875 48.25 40.4375 
Q 48.734375 37.984375 48.734375 31.890625 
L 48.734375 0 
L 39.9375 0 
L 39.9375 31.546875 
Q 39.9375 36.921875 38.90625 39.578125 
Q 37.890625 42.234375 35.28125 43.8125 
Q 32.671875 45.40625 29.15625 45.40625 
Q 23.53125 45.40625 19.453125 41.84375 
Q 15.375 38.28125 15.375 28.328125 
L 15.375 0 
z
" id="ArialMT-6e"/>
    </defs>
    <g style="fill:#262626;" transform="translate(102.287981239 109.073361683)scale(0.1152 -0.1152)">
     <use xlink:href="#ArialMT-69"/>
     <use x="22.216796875" xlink:href="#ArialMT-6e"/>
     <use x="77.83203125" xlink:href="#ArialMT-68"/>
     <use x="133.447265625" xlink:href="#ArialMT-69"/>
     <use x="155.6640625" xlink:href="#ArialMT-62"/>
     <use x="211.279296875" xlink:href="#ArialMT-69"/>
     <use x="233.49609375" xlink:href="#ArialMT-74"/>
     <use x="261.279296875" xlink:href="#ArialMT-6f"/>
     <use x="316.89453125" xlink:href="#ArialMT-72"/>
     <use x="350.1953125" xlink:href="#ArialMT-73"/>
    </g>
   </g>
   <g id="text_6">
    <!-- activators -->
    <defs>
     <path d="M 40.4375 19 
L 49.078125 17.875 
Q 47.65625 8.9375 41.8125 3.875 
Q 35.984375 -1.171875 27.484375 -1.171875 
Q 16.84375 -1.171875 10.375 5.78125 
Q 3.90625 12.75 3.90625 25.734375 
Q 3.90625 34.125 6.6875 40.421875 
Q 9.46875 46.734375 15.15625 49.875 
Q 20.84375 53.03125 27.546875 53.03125 
Q 35.984375 53.03125 41.359375 48.75 
Q 46.734375 44.484375 48.25 36.625 
L 39.703125 35.296875 
Q 38.484375 40.53125 35.375 43.15625 
Q 32.28125 45.796875 27.875 45.796875 
Q 21.234375 45.796875 17.078125 41.03125 
Q 12.9375 36.28125 12.9375 25.984375 
Q 12.9375 15.53125 16.9375 10.796875 
Q 20.953125 6.0625 27.390625 6.0625 
Q 32.5625 6.0625 36.03125 9.234375 
Q 39.5 12.40625 40.4375 19 
" id="ArialMT-63"/>
     <path d="M 40.4375 6.390625 
Q 35.546875 2.25 31.03125 0.53125 
Q 26.515625 -1.171875 21.34375 -1.171875 
Q 12.796875 -1.171875 8.203125 3 
Q 3.609375 7.171875 3.609375 13.671875 
Q 3.609375 17.484375 5.34375 20.625 
Q 7.078125 23.78125 9.890625 25.6875 
Q 12.703125 27.59375 16.21875 28.5625 
Q 18.796875 29.25 24.03125 29.890625 
Q 34.671875 31.15625 39.703125 32.90625 
Q 39.75 34.71875 39.75 35.203125 
Q 39.75 40.578125 37.25 42.78125 
Q 33.890625 45.75 27.25 45.75 
Q 21.046875 45.75 18.09375 43.578125 
Q 15.140625 41.40625 13.71875 35.890625 
L 5.125 37.0625 
Q 6.296875 42.578125 8.984375 45.96875 
Q 11.671875 49.359375 16.75 51.1875 
Q 21.828125 53.03125 28.515625 53.03125 
Q 35.15625 53.03125 39.296875 51.46875 
Q 43.453125 49.90625 45.40625 47.53125 
Q 47.359375 45.171875 48.140625 41.546875 
Q 48.578125 39.3125 48.578125 33.453125 
L 48.578125 21.734375 
Q 48.578125 9.46875 49.140625 6.21875 
Q 49.703125 2.984375 51.375 0 
L 42.1875 0 
Q 40.828125 2.734375 40.4375 6.390625 
M 39.703125 26.03125 
Q 34.90625 24.078125 25.34375 22.703125 
Q 19.921875 21.921875 17.671875 20.9375 
Q 15.4375 19.96875 14.203125 18.09375 
Q 12.984375 16.21875 12.984375 13.921875 
Q 12.984375 10.40625 15.640625 8.0625 
Q 18.3125 5.71875 23.4375 5.71875 
Q 28.515625 5.71875 32.46875 7.9375 
Q 36.421875 10.15625 38.28125 14.015625 
Q 39.703125 17 39.703125 22.796875 
z
" id="ArialMT-61"/>
     <path d="M 21 0 
L 1.265625 51.859375 
L 10.546875 51.859375 
L 21.6875 20.796875 
Q 23.484375 15.765625 25 10.359375 
Q 26.171875 14.453125 28.265625 20.21875 
L 39.796875 51.859375 
L 48.828125 51.859375 
L 29.203125 0 
z
" id="ArialMT-76"/>
    </defs>
    <g style="fill:#262626;" transform="translate(203.634964877 123.461946745)scale(0.1152 -0.1152)">
     <use xlink:href="#ArialMT-61"/>
     <use x="55.615234375" xlink:href="#ArialMT-63"/>
     <use x="105.615234375" xlink:href="#ArialMT-74"/>
     <use x="133.3984375" xlink:href="#ArialMT-69"/>
     <use x="155.615234375" xlink:href="#ArialMT-76"/>
     <use x="205.615234375" xlink:href="#ArialMT-61"/>
     <use x="261.23046875" xlink:href="#ArialMT-74"/>
     <use x="289.013671875" xlink:href="#ArialMT-6f"/>
     <use x="344.62890625" xlink:href="#ArialMT-72"/>
     <use x="377.9296875" xlink:href="#ArialMT-73"/>
    </g>
   </g>
   <g id="text_7">
    <!-- E. coli metabolites -->
    <defs>
     <path d="M 42.09375 16.703125 
L 51.171875 15.578125 
Q 49.03125 7.625 43.21875 3.21875 
Q 37.40625 -1.171875 28.375 -1.171875 
Q 17 -1.171875 10.328125 5.828125 
Q 3.65625 12.84375 3.65625 25.484375 
Q 3.65625 38.578125 10.390625 45.796875 
Q 17.140625 53.03125 27.875 53.03125 
Q 38.28125 53.03125 44.875 45.953125 
Q 51.46875 38.875 51.46875 26.03125 
Q 51.46875 25.25 51.421875 23.6875 
L 12.75 23.6875 
Q 13.234375 15.140625 17.578125 10.59375 
Q 21.921875 6.0625 28.421875 6.0625 
Q 33.25 6.0625 36.671875 8.59375 
Q 40.09375 11.140625 42.09375 16.703125 
M 13.234375 30.90625 
L 42.1875 30.90625 
Q 41.609375 37.453125 38.875 40.71875 
Q 34.671875 45.796875 27.984375 45.796875 
Q 21.921875 45.796875 17.796875 41.75 
Q 13.671875 37.703125 13.234375 30.90625 
" id="ArialMT-65"/>
     <path d="M 9.078125 0 
L 9.078125 10.015625 
L 19.09375 10.015625 
L 19.09375 0 
z
" id="ArialMT-2e"/>
     <path d="M 7.90625 0 
L 7.90625 71.578125 
L 59.671875 71.578125 
L 59.671875 63.140625 
L 17.390625 63.140625 
L 17.390625 41.21875 
L 56.984375 41.21875 
L 56.984375 32.8125 
L 17.390625 32.8125 
L 17.390625 8.453125 
L 61.328125 8.453125 
L 61.328125 0 
z
" id="ArialMT-45"/>
     <path d="M 6.390625 0 
L 6.390625 71.578125 
L 15.1875 71.578125 
L 15.1875 0 
z
" id="ArialMT-6c"/>
     <path d="M 6.59375 0 
L 6.59375 51.859375 
L 14.453125 51.859375 
L 14.453125 44.578125 
Q 16.890625 48.390625 20.9375 50.703125 
Q 25 53.03125 30.171875 53.03125 
Q 35.9375 53.03125 39.625 50.640625 
Q 43.3125 48.25 44.828125 43.953125 
Q 50.984375 53.03125 60.84375 53.03125 
Q 68.5625 53.03125 72.703125 48.75 
Q 76.859375 44.484375 76.859375 35.59375 
L 76.859375 0 
L 68.109375 0 
L 68.109375 32.671875 
Q 68.109375 37.9375 67.25 40.25 
Q 66.40625 42.578125 64.15625 43.984375 
Q 61.921875 45.40625 58.890625 45.40625 
Q 53.421875 45.40625 49.796875 41.765625 
Q 46.1875 38.140625 46.1875 30.125 
L 46.1875 0 
L 37.40625 0 
L 37.40625 33.6875 
Q 37.40625 39.546875 35.25 42.46875 
Q 33.109375 45.40625 28.21875 45.40625 
Q 24.515625 45.40625 21.359375 43.453125 
Q 18.21875 41.5 16.796875 37.734375 
Q 15.375 33.984375 15.375 26.90625 
L 15.375 0 
z
" id="ArialMT-6d"/>
     <path id="ArialMT-20"/>
    </defs>
    <g style="fill:#262626;" transform="translate(105.033927273 271.193672412)scale(0.1152 -0.1152)">
     <use xlink:href="#ArialMT-45"/>
     <use x="66.69921875" xlink:href="#ArialMT-2e"/>
     <use x="94.482421875" xlink:href="#ArialMT-20"/>
     <use x="122.265625" xlink:href="#ArialMT-63"/>
     <use x="172.265625" xlink:href="#ArialMT-6f"/>
     <use x="227.880859375" xlink:href="#ArialMT-6c"/>
     <use x="250.09765625" xlink:href="#ArialMT-69"/>
     <use x="272.314453125" xlink:href="#ArialMT-20"/>
     <use x="300.09765625" xlink:href="#ArialMT-6d"/>
     <use x="383.3984375" xlink:href="#ArialMT-65"/>
     <use x="439.013671875" xlink:href="#ArialMT-74"/>
     <use x="466.796875" xlink:href="#ArialMT-61"/>
     <use x="522.412109375" xlink:href="#ArialMT-62"/>
     <use x="578.02734375" xlink:href="#ArialMT-6f"/>
     <use x="633.642578125" xlink:href="#ArialMT-6c"/>
     <use x="655.859375" xlink:href="#ArialMT-69"/>
     <use x="678.076171875" xlink:href="#ArialMT-74"/>
     <use x="705.859375" xlink:href="#ArialMT-65"/>
     <use x="761.474609375" xlink:href="#ArialMT-73"/>
    </g>
   </g>
   <g id="text_8">
    <!-- a -->
    <g style="fill:#262626;" transform="translate(66.5509090909 109.093806818)scale(0.2 -0.2)">
     <use xlink:href="#ArialMT-61"/>
    </g>
   </g>
  </g>
  <g id="axes_2">
   <g id="patch_6">
    <path clip-path="url(#peac3cdc241)" d="M 391.550239 109.486722 
C 396.884282 111.579653 401.855103 114.500627 406.279314 118.14188 
C 410.703525 121.783133 414.526039 126.099328 417.605832 130.931227 
C 420.37257 132.377308 422.920571 134.208042 425.173812 136.368805 
C 427.427052 138.529568 429.362899 140.998656 430.923592 143.702399 
C 426.639426 135.901123 421.007733 128.919581 414.289714 123.081583 
C 407.571695 117.243585 399.872845 112.640805 391.550239 109.486722 
M 387.216753 107.9934 
C 378.97175 105.429728 370.347342 104.301119 361.720296 104.656878 
C 353.09325 105.012638 344.591049 106.847508 336.585122 110.081332 
C 328.579194 113.315155 321.187845 117.900144 314.733973 123.635999 
C 308.280102 129.371854 302.859078 136.173814 298.707725 143.744729 
C 294.556372 151.315645 291.736035 159.543638 290.369924 168.06926 
C 289.003814 176.594882 289.112116 185.292148 290.6901 193.781109 
C 292.268085 202.27007 295.292433 210.425282 299.631022 217.890477 
C 303.969612 225.355671 309.558331 232.020533 316.153031 237.593901 
C 322.74773 243.167269 330.250959 247.566784 338.334929 250.600248 
C 346.4189 253.633712 354.964155 255.2563 363.597385 255.397126 
C 372.230615 255.537953 380.824245 254.194937 389.002853 251.42675 
C 397.181461 248.658563 404.82419 244.506111 411.59716 239.150798 
C 418.370129 233.795486 424.173253 227.316449 428.753017 219.996732 
C 433.33278 212.677015 436.621506 204.624782 438.475523 196.191804 
C 440.32954 187.758827 440.721451 179.06972 439.634136 170.504078 
C 438.54682 161.938435 435.996345 153.622832 432.09413 145.920546 
C 435.803487 153.646272 436.367025 162.519554 433.664846 170.652474 
C 430.962666 178.785394 425.201039 185.557126 417.605832 189.526887 
C 412.157749 198.074405 404.431975 204.935201 395.300486 209.334924 
C 386.168997 213.734648 375.988768 215.501302 365.908803 214.43549 
C 355.828837 213.369679 346.243188 209.513068 338.23375 203.300938 
C 330.224312 197.088808 324.104195 188.764008 320.564154 179.266126 
C 317.024113 169.768244 316.202537 159.468577 318.192155 149.529609 
C 320.181772 139.590641 324.904803 130.400914 331.828178 122.997635 
C 338.751553 115.594356 347.604617 110.26694 357.388162 107.616671 
C 367.171706 104.966403 377.503264 105.096888 387.216753 107.9934 
" style="fill:#0000ff;opacity:0.4;"/>
   </g>
   <g id="patch_7">
    <path clip-path="url(#peac3cdc241)" d="M 417.605832 130.931227 
C 414.526039 126.099328 410.703525 121.783133 406.279314 118.14188 
C 401.855103 114.500627 396.884282 111.579653 391.550239 109.486722 
C 390.835766 109.215953 390.117218 108.956058 389.394845 108.707127 
C 388.672472 108.458197 387.946358 108.220261 387.216753 107.9934 
C 377.503264 105.096888 367.171706 104.966403 357.388162 107.616671 
C 347.604617 110.26694 338.751553 115.594356 331.828178 122.997635 
C 324.904803 130.400914 320.181772 139.590641 318.192155 149.529609 
C 316.202537 159.468577 317.024113 169.768244 320.564154 179.266126 
C 324.104195 188.764008 330.224312 197.088808 338.23375 203.300938 
C 346.243188 209.513068 355.828837 213.369679 365.908803 214.43549 
C 375.988768 215.501302 386.168997 213.734648 395.300486 209.334924 
C 404.431975 204.935201 412.157749 198.074405 417.605832 189.526887 
C 412.567575 192.160216 406.934211 193.449937 401.252097 193.270965 
C 395.569984 193.091993 390.028951 191.450307 385.166404 188.505128 
C 380.303856 185.559949 376.282243 181.409672 373.491606 176.456815 
C 370.700969 171.503958 369.234539 165.913989 369.234539 160.229057 
C 369.234539 154.544125 370.700969 148.954156 373.491606 144.001299 
C 376.282243 139.048442 380.303856 134.898164 385.166404 131.952986 
C 390.028951 129.007807 395.569984 127.366121 401.252097 127.187149 
C 406.934211 127.008177 412.567575 128.297898 417.605832 130.931227 
" style="fill:#b200b2;opacity:0.4;"/>
   </g>
   <g id="patch_8">
    <path clip-path="url(#peac3cdc241)" d="M 417.605832 189.526887 
C 425.201039 185.557126 430.962666 178.785394 433.664846 170.652474 
C 436.367025 162.519554 435.803487 153.646272 432.09413 145.920546 
C 431.905206 145.547643 431.713184 145.176316 431.518084 144.806606 
C 431.322984 144.436895 431.124813 144.068814 430.923592 143.702399 
C 429.362899 140.998656 427.427052 138.529568 425.173812 136.368805 
C 422.920571 134.208042 420.37257 132.377308 417.605832 130.931227 
C 423.184497 139.683615 426.148959 149.849953 426.148959 160.229057 
C 426.148959 170.608161 423.184497 180.774499 417.605832 189.526887 
" style="fill:#0059b2;opacity:0.4;"/>
   </g>
   <g id="patch_9">
    <path clip-path="url(#peac3cdc241)" d="M 417.605832 189.526887 
C 423.184497 180.774499 426.148959 170.608161 426.148959 160.229057 
C 426.148959 149.849953 423.184497 139.683615 417.605832 130.931227 
C 412.567575 128.297898 406.934211 127.008177 401.252097 127.187149 
C 395.569984 127.366121 390.028951 129.007807 385.166404 131.952986 
C 380.303856 134.898164 376.282243 139.048442 373.491606 144.001299 
C 370.700969 148.954156 369.234539 154.544125 369.234539 160.229057 
C 369.234539 165.913989 370.700969 171.503958 373.491606 176.456815 
C 376.282243 181.409672 380.303856 185.559949 385.166404 188.505128 
C 390.028951 191.450307 395.569984 193.091993 401.252097 193.270965 
C 406.934211 193.449937 412.567575 192.160216 417.605832 189.526887 
" style="fill:#663366;opacity:0.4;"/>
   </g>
   <g id="text_9">
    <!-- 303 -->
    <defs>
     <path d="M 4.15625 35.296875 
Q 4.15625 48 6.765625 55.734375 
Q 9.375 63.484375 14.515625 67.671875 
Q 19.671875 71.875 27.484375 71.875 
Q 33.25 71.875 37.59375 69.546875 
Q 41.9375 67.234375 44.765625 62.859375 
Q 47.609375 58.5 49.21875 52.21875 
Q 50.828125 45.953125 50.828125 35.296875 
Q 50.828125 22.703125 48.234375 14.96875 
Q 45.65625 7.234375 40.5 3 
Q 35.359375 -1.21875 27.484375 -1.21875 
Q 17.140625 -1.21875 11.234375 6.203125 
Q 4.15625 15.140625 4.15625 35.296875 
M 13.1875 35.296875 
Q 13.1875 17.671875 17.3125 11.828125 
Q 21.4375 6 27.484375 6 
Q 33.546875 6 37.671875 11.859375 
Q 41.796875 17.71875 41.796875 35.296875 
Q 41.796875 52.984375 37.671875 58.78125 
Q 33.546875 64.59375 27.390625 64.59375 
Q 21.34375 64.59375 17.71875 59.46875 
Q 13.1875 52.9375 13.1875 35.296875 
" id="ArialMT-30"/>
    </defs>
    <g style="fill:#262626;" transform="translate(325.619470881 208.511676447)scale(0.096 -0.096)">
     <use xlink:href="#ArialMT-33"/>
     <use x="55.615234375" xlink:href="#ArialMT-30"/>
     <use x="111.23046875" xlink:href="#ArialMT-33"/>
    </g>
   </g>
   <g id="text_10">
    <!-- 235 -->
    <g style="fill:#262626;" transform="translate(340.500655691 168.648259868)scale(0.096 -0.096)">
     <use xlink:href="#ArialMT-32"/>
     <use x="55.615234375" xlink:href="#ArialMT-33"/>
     <use x="111.23046875" xlink:href="#ArialMT-35"/>
    </g>
   </g>
   <g id="text_11">
    <!-- 15 -->
    <g style="fill:#262626;" transform="translate(424.227954306 163.324997834)scale(0.096 -0.096)">
     <use xlink:href="#ArialMT-31"/>
     <use x="55.615234375" xlink:href="#ArialMT-35"/>
    </g>
   </g>
   <g id="text_12">
    <!-- 113 -->
    <g style="fill:#262626;" transform="translate(389.689249018 162.710806914)scale(0.096 -0.096)">
     <use xlink:href="#ArialMT-31"/>
     <use x="55.505859375" xlink:href="#ArialMT-31"/>
     <use x="111.12109375" xlink:href="#ArialMT-33"/>
    </g>
   </g>
   <g id="text_13">
    <!-- inhibited -->
    <defs>
     <path d="M 40.234375 0 
L 40.234375 6.546875 
Q 35.296875 -1.171875 25.734375 -1.171875 
Q 19.53125 -1.171875 14.328125 2.25 
Q 9.125 5.671875 6.265625 11.796875 
Q 3.421875 17.921875 3.421875 25.875 
Q 3.421875 33.640625 6 39.96875 
Q 8.59375 46.296875 13.765625 49.65625 
Q 18.953125 53.03125 25.34375 53.03125 
Q 30.03125 53.03125 33.6875 51.046875 
Q 37.359375 49.078125 39.65625 45.90625 
L 39.65625 71.578125 
L 48.390625 71.578125 
L 48.390625 0 
z
M 12.453125 25.875 
Q 12.453125 15.921875 16.640625 10.984375 
Q 20.84375 6.0625 26.5625 6.0625 
Q 32.328125 6.0625 36.34375 10.765625 
Q 40.375 15.484375 40.375 25.140625 
Q 40.375 35.796875 36.265625 40.765625 
Q 32.171875 45.75 26.171875 45.75 
Q 20.3125 45.75 16.375 40.96875 
Q 12.453125 36.1875 12.453125 25.875 
" id="ArialMT-64"/>
    </defs>
    <g style="fill:#262626;" transform="translate(301.475850341 105.720451207)scale(0.1152 -0.1152)">
     <use xlink:href="#ArialMT-69"/>
     <use x="22.216796875" xlink:href="#ArialMT-6e"/>
     <use x="77.83203125" xlink:href="#ArialMT-68"/>
     <use x="133.447265625" xlink:href="#ArialMT-69"/>
     <use x="155.6640625" xlink:href="#ArialMT-62"/>
     <use x="211.279296875" xlink:href="#ArialMT-69"/>
     <use x="233.49609375" xlink:href="#ArialMT-74"/>
     <use x="261.279296875" xlink:href="#ArialMT-65"/>
     <use x="316.89453125" xlink:href="#ArialMT-64"/>
    </g>
   </g>
   <g id="text_14">
    <!-- activated -->
    <g style="fill:#262626;" transform="translate(418.821979948 127.170763038)scale(0.1152 -0.1152)">
     <use xlink:href="#ArialMT-61"/>
     <use x="55.615234375" xlink:href="#ArialMT-63"/>
     <use x="105.615234375" xlink:href="#ArialMT-74"/>
     <use x="133.3984375" xlink:href="#ArialMT-69"/>
     <use x="155.615234375" xlink:href="#ArialMT-76"/>
     <use x="205.615234375" xlink:href="#ArialMT-61"/>
     <use x="261.23046875" xlink:href="#ArialMT-74"/>
     <use x="289.013671875" xlink:href="#ArialMT-65"/>
     <use x="344.62890625" xlink:href="#ArialMT-64"/>
    </g>
   </g>
   <g id="text_15">
    <!-- E. coli reactions -->
    <g style="fill:#262626;" transform="translate(324.171572727 271.193672412)scale(0.1152 -0.1152)">
     <use xlink:href="#ArialMT-45"/>
     <use x="66.69921875" xlink:href="#ArialMT-2e"/>
     <use x="94.482421875" xlink:href="#ArialMT-20"/>
     <use x="122.265625" xlink:href="#ArialMT-63"/>
     <use x="172.265625" xlink:href="#ArialMT-6f"/>
     <use x="227.880859375" xlink:href="#ArialMT-6c"/>
     <use x="250.09765625" xlink:href="#ArialMT-69"/>
     <use x="272.314453125" xlink:href="#ArialMT-20"/>
     <use x="300.09765625" xlink:href="#ArialMT-72"/>
     <use x="333.3984375" xlink:href="#ArialMT-65"/>
     <use x="389.013671875" xlink:href="#ArialMT-61"/>
     <use x="444.62890625" xlink:href="#ArialMT-63"/>
     <use x="494.62890625" xlink:href="#ArialMT-74"/>
     <use x="522.412109375" xlink:href="#ArialMT-69"/>
     <use x="544.62890625" xlink:href="#ArialMT-6f"/>
     <use x="600.244140625" xlink:href="#ArialMT-6e"/>
     <use x="655.859375" xlink:href="#ArialMT-73"/>
    </g>
   </g>
   <g id="text_16">
    <!-- b -->
    <g style="fill:#262626;" transform="translate(279.605454545 109.093806818)scale(0.2 -0.2)">
     <use xlink:href="#ArialMT-62"/>
    </g>
   </g>
  </g>
 </g>
 <defs>
  <clipPath id="peac3cdc241">
   <rect height="177.545454545" width="177.545454545" x="276.054545455" y="91.2272727273"/>
  </clipPath>
  <clipPath id="p781d39bd56">
   <rect height="177.545454545" width="177.545454545" x="63.0" y="91.2272727273"/>
  </clipPath>
 </defs>
</svg>
