<?xml version="1.0" encoding="utf-8" standalone="no"?>
<!DOCTYPE svg PUBLIC "-//W3C//DTD SVG 1.1//EN"
  "http://www.w3.org/Graphics/SVG/1.1/DTD/svg11.dtd">
<!-- Created with matplotlib (http://matplotlib.org/) -->
<svg height="360pt" version="1.1" viewBox="0 0 504 360" width="504pt" xmlns="http://www.w3.org/2000/svg" xmlns:xlink="http://www.w3.org/1999/xlink">
 <defs>
  <style type="text/css">
*{stroke-linecap:butt;stroke-linejoin:round;stroke-miterlimit:100000;}
  </style>
 </defs>
 <g id="figure_1">
  <g id="patch_1">
   <path d="M 0 360 
L 504 360 
L 504 0 
L 0 0 
z
" style="fill:#ffffff;"/>
  </g>
  <g id="axes_1">
   <g id="patch_2">
    <path clip-path="url(#p293ec42f1b)" d="M 173.652914 107.837013 
C 176.370702 108.7221 178.968448 109.940368 181.386789 111.463976 
C 183.805129 112.987583 186.025502 114.804837 187.997165 116.874207 
C 190.10889 117.15113 192.174585 117.706931 194.140153 118.527056 
C 196.105722 119.347181 197.953855 120.424408 199.636152 121.730524 
C 195.81382 118.590803 191.691808 115.834789 187.329728 113.502338 
C 182.967647 111.169888 178.386626 109.272299 173.652914 107.837013 
M 171.137371 107.121678 
C 162.262133 104.76342 153.0303 104.046139 143.897316 105.005219 
C 134.764331 105.964299 125.882894 108.583706 117.691158 112.734214 
C 109.499423 116.884722 102.134352 122.496937 95.959293 129.293986 
C 89.784233 136.091036 84.902429 143.959277 81.554718 152.510538 
C 78.207008 161.0618 76.449363 170.153109 76.368494 179.335958 
C 76.287626 188.518806 77.884887 197.63966 81.081478 206.248554 
C 84.278069 214.857447 89.020544 222.810444 95.07494 229.715191 
C 101.129336 236.619938 108.394425 242.360993 116.511793 246.655126 
C 124.629161 250.949259 133.463089 253.724675 142.577766 254.844452 
C 151.692444 255.964229 160.935477 255.409645 169.850871 253.20806 
C 178.766266 251.006474 187.204961 247.194697 194.750644 241.960777 
C 202.296327 236.726858 208.822837 230.158305 214.008196 222.579169 
C 219.193556 215.000034 222.951068 206.537037 225.095361 197.607689 
C 227.239653 188.678341 227.734875 179.431938 226.556594 170.324639 
C 225.378313 161.21734 222.54623 152.401415 218.200062 144.311788 
C 213.853894 136.22216 208.066308 128.994085 201.122826 122.984151 
C 204.507332 126.080342 206.937931 130.0799 208.127335 134.51009 
C 209.316739 138.940281 209.216164 143.6194 207.837499 147.994392 
C 206.458834 152.369384 203.858624 156.260808 200.344205 159.208711 
C 196.829786 162.156613 192.545302 164.040087 187.997165 164.636511 
C 183.803793 169.037688 178.52424 172.257706 172.691732 173.971349 
C 166.859224 175.684993 160.676957 175.832561 154.76933 174.39915 
C 148.861703 172.965739 143.434529 170.001286 139.035943 165.805196 
C 134.637358 161.609106 131.420601 156.327565 129.71056 150.493999 
C 128.00052 144.660434 127.85677 138.478077 129.29383 132.571337 
C 130.73089 126.664596 133.698695 121.239254 137.897501 116.843261 
C 142.096307 112.447268 147.379834 109.233775 153.214455 107.527337 
C 159.049076 105.8209 165.231519 105.680969 171.137371 107.121678 
" style="fill:#0000ff;opacity:0.4;"/>
   </g>
   <g id="patch_3">
    <path clip-path="url(#p293ec42f1b)" d="M 187.997165 116.874207 
C 186.025502 114.804837 183.805129 112.987583 181.386789 111.463976 
C 178.968448 109.940368 176.370702 108.7221 173.652914 107.837013 
C 173.235764 107.710531 172.817525 107.587668 172.398244 107.468439 
C 171.978963 107.34921 171.558657 107.233618 171.137371 107.121678 
C 165.231519 105.680969 159.049076 105.8209 153.214455 107.527337 
C 147.379834 109.233775 142.096307 112.447268 137.897501 116.843261 
C 133.698695 121.239254 130.73089 126.664596 129.29383 132.571337 
C 127.85677 138.478077 128.00052 144.660434 129.71056 150.493999 
C 131.420601 156.327565 134.637358 161.609106 139.035943 165.805196 
C 143.434529 170.001286 148.861703 172.965739 154.76933 174.39915 
C 160.676957 175.832561 166.859224 175.684993 172.691732 173.971349 
C 178.52424 172.257706 183.803793 169.037688 187.997165 164.636511 
C 184.598932 165.082141 181.144396 164.79734 177.865026 163.80119 
C 174.585657 162.80504 171.556371 161.120298 168.980143 158.859849 
C 166.403915 156.5994 164.339599 153.814884 162.925513 150.692876 
C 161.511427 147.570867 160.779876 144.182687 160.779876 140.755359 
C 160.779876 137.328031 161.511427 133.939851 162.925513 130.817842 
C 164.339599 127.695833 166.403915 124.911317 168.980143 122.650869 
C 171.556371 120.39042 174.585657 118.705678 177.865026 117.709528 
C 181.144396 116.713378 184.598932 116.428577 187.997165 116.874207 
" style="fill:#b200b2;opacity:0.4;"/>
   </g>
   <g id="patch_4">
    <path clip-path="url(#p293ec42f1b)" d="M 187.997165 164.636511 
C 192.545302 164.040087 196.829786 162.156613 200.344205 159.208711 
C 203.858624 156.260808 206.458834 152.369384 207.837499 147.994392 
C 209.216164 143.6194 209.316739 138.940281 208.127335 134.51009 
C 206.937931 130.0799 204.507332 126.080342 201.122826 122.984151 
C 200.877755 122.772029 200.631318 122.561489 200.383531 122.352545 
C 200.135744 122.143601 199.886613 121.936256 199.636152 121.730524 
C 197.953855 120.424408 196.105722 119.347181 194.140153 118.527056 
C 192.174585 117.706931 190.10889 117.15113 187.997165 116.874207 
C 194.128959 123.309864 197.552556 131.866232 197.552556 140.755359 
C 197.552556 149.644486 194.128959 158.200854 187.997165 164.636511 
" style="fill:#0059b2;opacity:0.4;"/>
   </g>
   <g id="patch_5">
    <path clip-path="url(#p293ec42f1b)" d="M 187.997165 164.636511 
C 194.128959 158.200854 197.552556 149.644486 197.552556 140.755359 
C 197.552556 131.866232 194.128959 123.309864 187.997165 116.874207 
C 184.598932 116.428577 181.144396 116.713378 177.865026 117.709528 
C 174.585657 118.705678 171.556371 120.39042 168.980143 122.650869 
C 166.403915 124.911317 164.339599 127.695833 162.925513 130.817842 
C 161.511427 133.939851 160.779876 137.328031 160.779876 140.755359 
C 160.779876 144.182687 161.511427 147.570867 162.925513 150.692876 
C 164.339599 153.814884 166.403915 156.5994 168.980143 158.859849 
C 171.556371 161.120298 174.585657 162.80504 177.865026 163.80119 
C 181.144396 164.79734 184.598932 165.082141 187.997165 164.636511 
" style="fill:#663366;opacity:0.4;"/>
   </g>
   <g id="text_1">
    <!-- 794 -->
    <defs>
     <path d="M 5.46875 16.546875 
L 13.921875 17.328125 
Q 14.984375 11.375 18.015625 8.6875 
Q 21.046875 6 25.78125 6 
Q 29.828125 6 32.875 7.859375 
Q 35.9375 9.71875 37.890625 12.8125 
Q 39.84375 15.921875 41.15625 21.1875 
Q 42.484375 26.46875 42.484375 31.9375 
Q 42.484375 32.515625 42.4375 33.6875 
Q 39.796875 29.5 35.234375 26.875 
Q 30.671875 24.265625 25.34375 24.265625 
Q 16.453125 24.265625 10.296875 30.703125 
Q 4.15625 37.15625 4.15625 47.703125 
Q 4.15625 58.59375 10.578125 65.234375 
Q 17 71.875 26.65625 71.875 
Q 33.640625 71.875 39.421875 68.109375 
Q 45.21875 64.359375 48.21875 57.390625 
Q 51.21875 50.4375 51.21875 37.25 
Q 51.21875 23.53125 48.234375 15.40625 
Q 45.265625 7.28125 39.375 3.03125 
Q 33.5 -1.21875 25.59375 -1.21875 
Q 17.1875 -1.21875 11.859375 3.4375 
Q 6.546875 8.109375 5.46875 16.546875 
M 41.453125 48.140625 
Q 41.453125 55.71875 37.421875 60.15625 
Q 33.40625 64.59375 27.734375 64.59375 
Q 21.875 64.59375 17.53125 59.8125 
Q 13.1875 55.03125 13.1875 47.40625 
Q 13.1875 40.578125 17.3125 36.296875 
Q 21.4375 32.03125 27.484375 32.03125 
Q 33.59375 32.03125 37.515625 36.296875 
Q 41.453125 40.578125 41.453125 48.140625 
" id="ArialMT-39"/>
     <path d="M 32.328125 0 
L 32.328125 17.140625 
L 1.265625 17.140625 
L 1.265625 25.203125 
L 33.9375 71.578125 
L 41.109375 71.578125 
L 41.109375 25.203125 
L 50.78125 25.203125 
L 50.78125 17.140625 
L 41.109375 17.140625 
L 41.109375 0 
z
M 32.328125 25.203125 
L 32.328125 57.46875 
L 9.90625 25.203125 
z
" id="ArialMT-34"/>
     <path d="M 4.734375 62.203125 
L 4.734375 70.65625 
L 51.078125 70.65625 
L 51.078125 63.8125 
Q 44.234375 56.546875 37.515625 44.484375 
Q 30.8125 32.421875 27.15625 19.671875 
Q 24.515625 10.6875 23.78125 0 
L 14.75 0 
Q 14.890625 8.453125 18.0625 20.40625 
Q 21.234375 32.375 27.171875 43.484375 
Q 33.109375 54.59375 39.796875 62.203125 
z
" id="ArialMT-37"/>
    </defs>
    <g style="fill:#262626;" transform="translate(129.874166091 198.125028739)scale(0.096 -0.096)">
     <use xlink:href="#ArialMT-37"/>
     <use x="55.615234375" xlink:href="#ArialMT-39"/>
     <use x="111.23046875" xlink:href="#ArialMT-34"/>
    </g>
   </g>
   <g id="text_2">
    <!-- 139 -->
    <defs>
     <path d="M 37.25 0 
L 28.46875 0 
L 28.46875 56 
Q 25.296875 52.984375 20.140625 49.953125 
Q 14.984375 46.921875 10.890625 45.40625 
L 10.890625 53.90625 
Q 18.265625 57.375 23.78125 62.296875 
Q 29.296875 67.234375 31.59375 71.875 
L 37.25 71.875 
z
" id="ArialMT-31"/>
     <path d="M 4.203125 18.890625 
L 12.984375 20.0625 
Q 14.5 12.59375 18.140625 9.296875 
Q 21.78125 6 27 6 
Q 33.203125 6 37.46875 10.296875 
Q 41.75 14.59375 41.75 20.953125 
Q 41.75 27 37.796875 30.921875 
Q 33.84375 34.859375 27.734375 34.859375 
Q 25.25 34.859375 21.53125 33.890625 
L 22.515625 41.609375 
Q 23.390625 41.5 23.921875 41.5 
Q 29.546875 41.5 34.03125 44.421875 
Q 38.53125 47.359375 38.53125 53.46875 
Q 38.53125 58.296875 35.25 61.46875 
Q 31.984375 64.65625 26.8125 64.65625 
Q 21.6875 64.65625 18.265625 61.421875 
Q 14.84375 58.203125 13.875 51.765625 
L 5.078125 53.328125 
Q 6.6875 62.15625 12.390625 67.015625 
Q 18.109375 71.875 26.609375 71.875 
Q 32.46875 71.875 37.390625 69.359375 
Q 42.328125 66.84375 44.9375 62.5 
Q 47.5625 58.15625 47.5625 53.265625 
Q 47.5625 48.640625 45.0625 44.828125 
Q 42.578125 41.015625 37.703125 38.765625 
Q 44.046875 37.3125 47.5625 32.6875 
Q 51.078125 28.078125 51.078125 21.140625 
Q 51.078125 11.765625 44.234375 5.25 
Q 37.40625 -1.265625 26.953125 -1.265625 
Q 17.53125 -1.265625 11.296875 4.34375 
Q 5.078125 9.96875 4.203125 18.890625 
" id="ArialMT-33"/>
    </defs>
    <g style="fill:#262626;" transform="translate(138.047609576 146.335153595)scale(0.096 -0.096)">
     <use xlink:href="#ArialMT-31"/>
     <use x="55.615234375" xlink:href="#ArialMT-33"/>
     <use x="111.23046875" xlink:href="#ArialMT-39"/>
    </g>
   </g>
   <g id="text_3">
    <!-- 26 -->
    <defs>
     <path d="M 50.34375 8.453125 
L 50.34375 0 
L 3.03125 0 
Q 2.9375 3.171875 4.046875 6.109375 
Q 5.859375 10.9375 9.828125 15.625 
Q 13.8125 20.3125 21.34375 26.46875 
Q 33.015625 36.03125 37.109375 41.625 
Q 41.21875 47.21875 41.21875 52.203125 
Q 41.21875 57.421875 37.46875 61 
Q 33.734375 64.59375 27.734375 64.59375 
Q 21.390625 64.59375 17.578125 60.78125 
Q 13.765625 56.984375 13.71875 50.25 
L 4.6875 51.171875 
Q 5.609375 61.28125 11.65625 66.578125 
Q 17.71875 71.875 27.9375 71.875 
Q 38.234375 71.875 44.234375 66.15625 
Q 50.25 60.453125 50.25 52 
Q 50.25 47.703125 48.484375 43.546875 
Q 46.734375 39.40625 42.65625 34.8125 
Q 38.578125 30.21875 29.109375 22.21875 
Q 21.1875 15.578125 18.9375 13.203125 
Q 16.703125 10.84375 15.234375 8.453125 
z
" id="ArialMT-32"/>
     <path d="M 49.75 54.046875 
L 41.015625 53.375 
Q 39.84375 58.546875 37.703125 60.890625 
Q 34.125 64.65625 28.90625 64.65625 
Q 24.703125 64.65625 21.53125 62.3125 
Q 17.390625 59.28125 14.984375 53.46875 
Q 12.59375 47.65625 12.5 36.921875 
Q 15.671875 41.75 20.265625 44.09375 
Q 24.859375 46.4375 29.890625 46.4375 
Q 38.671875 46.4375 44.84375 39.96875 
Q 51.03125 33.5 51.03125 23.25 
Q 51.03125 16.5 48.125 10.71875 
Q 45.21875 4.9375 40.140625 1.859375 
Q 35.0625 -1.21875 28.609375 -1.21875 
Q 17.625 -1.21875 10.6875 6.859375 
Q 3.765625 14.9375 3.765625 33.5 
Q 3.765625 54.25 11.421875 63.671875 
Q 18.109375 71.875 29.4375 71.875 
Q 37.890625 71.875 43.28125 67.140625 
Q 48.6875 62.40625 49.75 54.046875 
M 13.875 23.1875 
Q 13.875 18.65625 15.796875 14.5 
Q 17.71875 10.359375 21.1875 8.171875 
Q 24.65625 6 28.46875 6 
Q 34.03125 6 38.03125 10.484375 
Q 42.046875 14.984375 42.046875 22.703125 
Q 42.046875 30.125 38.078125 34.390625 
Q 34.125 38.671875 28.125 38.671875 
Q 22.171875 38.671875 18.015625 34.390625 
Q 13.875 30.125 13.875 23.1875 
" id="ArialMT-36"/>
    </defs>
    <g style="fill:#262626;" transform="translate(197.184907928 144.199251493)scale(0.096 -0.096)">
     <use xlink:href="#ArialMT-32"/>
     <use x="55.615234375" xlink:href="#ArialMT-36"/>
    </g>
   </g>
   <g id="text_4">
    <!-- 80 -->
    <defs>
     <path d="M 17.671875 38.8125 
Q 12.203125 40.828125 9.5625 44.53125 
Q 6.9375 48.25 6.9375 53.421875 
Q 6.9375 61.234375 12.546875 66.546875 
Q 18.171875 71.875 27.484375 71.875 
Q 36.859375 71.875 42.578125 66.421875 
Q 48.296875 60.984375 48.296875 53.171875 
Q 48.296875 48.1875 45.671875 44.5 
Q 43.0625 40.828125 37.75 38.8125 
Q 44.34375 36.671875 47.78125 31.875 
Q 51.21875 27.09375 51.21875 20.453125 
Q 51.21875 11.28125 44.71875 5.03125 
Q 38.234375 -1.21875 27.640625 -1.21875 
Q 17.046875 -1.21875 10.546875 5.046875 
Q 4.046875 11.328125 4.046875 20.703125 
Q 4.046875 27.6875 7.59375 32.390625 
Q 11.140625 37.109375 17.671875 38.8125 
M 15.921875 53.71875 
Q 15.921875 48.640625 19.1875 45.40625 
Q 22.46875 42.1875 27.6875 42.1875 
Q 32.765625 42.1875 36.015625 45.375 
Q 39.265625 48.578125 39.265625 53.21875 
Q 39.265625 58.0625 35.90625 61.359375 
Q 32.5625 64.65625 27.59375 64.65625 
Q 22.5625 64.65625 19.234375 61.421875 
Q 15.921875 58.203125 15.921875 53.71875 
M 13.09375 20.65625 
Q 13.09375 16.890625 14.875 13.375 
Q 16.65625 9.859375 20.171875 7.921875 
Q 23.6875 6 27.734375 6 
Q 34.03125 6 38.125 10.046875 
Q 42.234375 14.109375 42.234375 20.359375 
Q 42.234375 26.703125 38.015625 30.859375 
Q 33.796875 35.015625 27.4375 35.015625 
Q 21.234375 35.015625 17.15625 30.90625 
Q 13.09375 26.8125 13.09375 20.65625 
" id="ArialMT-38"/>
     <path d="M 4.15625 35.296875 
Q 4.15625 48 6.765625 55.734375 
Q 9.375 63.484375 14.515625 67.671875 
Q 19.671875 71.875 27.484375 71.875 
Q 33.25 71.875 37.59375 69.546875 
Q 41.9375 67.234375 44.765625 62.859375 
Q 47.609375 58.5 49.21875 52.21875 
Q 50.828125 45.953125 50.828125 35.296875 
Q 50.828125 22.703125 48.234375 14.96875 
Q 45.65625 7.234375 40.5 3 
Q 35.359375 -1.21875 27.484375 -1.21875 
Q 17.140625 -1.21875 11.234375 6.203125 
Q 4.15625 15.140625 4.15625 35.296875 
M 13.1875 35.296875 
Q 13.1875 17.671875 17.3125 11.828125 
Q 21.4375 6 27.484375 6 
Q 33.546875 6 37.671875 11.859375 
Q 41.796875 17.71875 41.796875 35.296875 
Q 41.796875 52.984375 37.671875 58.78125 
Q 33.546875 64.59375 27.390625 64.59375 
Q 21.34375 64.59375 17.71875 59.46875 
Q 13.1875 52.9375 13.1875 35.296875 
" id="ArialMT-30"/>
    </defs>
    <g style="fill:#262626;" transform="translate(173.827715678 143.237108808)scale(0.096 -0.096)">
     <use xlink:href="#ArialMT-38"/>
     <use x="55.615234375" xlink:href="#ArialMT-30"/>
    </g>
   </g>
   <g id="text_5">
    <!-- inhibitors -->
    <defs>
     <path d="M 14.703125 0 
L 6.546875 0 
L 6.546875 71.578125 
L 15.328125 71.578125 
L 15.328125 46.046875 
Q 20.90625 53.03125 29.546875 53.03125 
Q 34.328125 53.03125 38.59375 51.09375 
Q 42.875 49.171875 45.625 45.671875 
Q 48.390625 42.1875 49.953125 37.25 
Q 51.515625 32.328125 51.515625 26.703125 
Q 51.515625 13.375 44.921875 6.09375 
Q 38.328125 -1.171875 29.109375 -1.171875 
Q 19.921875 -1.171875 14.703125 6.5 
z
M 14.59375 26.3125 
Q 14.59375 17 17.140625 12.84375 
Q 21.296875 6.0625 28.375 6.0625 
Q 34.125 6.0625 38.328125 11.0625 
Q 42.53125 16.0625 42.53125 25.984375 
Q 42.53125 36.140625 38.5 40.96875 
Q 34.46875 45.796875 28.765625 45.796875 
Q 23 45.796875 18.796875 40.796875 
Q 14.59375 35.796875 14.59375 26.3125 
" id="ArialMT-62"/>
     <path d="M 25.78125 7.859375 
L 27.046875 0.09375 
Q 23.34375 -0.6875 20.40625 -0.6875 
Q 15.625 -0.6875 12.984375 0.828125 
Q 10.359375 2.34375 9.28125 4.8125 
Q 8.203125 7.28125 8.203125 15.1875 
L 8.203125 45.015625 
L 1.765625 45.015625 
L 1.765625 51.859375 
L 8.203125 51.859375 
L 8.203125 64.703125 
L 16.9375 69.96875 
L 16.9375 51.859375 
L 25.78125 51.859375 
L 25.78125 45.015625 
L 16.9375 45.015625 
L 16.9375 14.703125 
Q 16.9375 10.9375 17.40625 9.859375 
Q 17.875 8.796875 18.921875 8.15625 
Q 19.96875 7.515625 21.921875 7.515625 
Q 23.390625 7.515625 25.78125 7.859375 
" id="ArialMT-74"/>
     <path d="M 6.640625 61.46875 
L 6.640625 71.578125 
L 15.4375 71.578125 
L 15.4375 61.46875 
z
M 6.640625 0 
L 6.640625 51.859375 
L 15.4375 51.859375 
L 15.4375 0 
z
" id="ArialMT-69"/>
     <path d="M 6.59375 0 
L 6.59375 71.578125 
L 15.375 71.578125 
L 15.375 45.90625 
Q 21.53125 53.03125 30.90625 53.03125 
Q 36.671875 53.03125 40.921875 50.75 
Q 45.171875 48.484375 47 44.484375 
Q 48.828125 40.484375 48.828125 32.859375 
L 48.828125 0 
L 40.046875 0 
L 40.046875 32.859375 
Q 40.046875 39.453125 37.1875 42.453125 
Q 34.328125 45.453125 29.109375 45.453125 
Q 25.203125 45.453125 21.75 43.421875 
Q 18.3125 41.40625 16.84375 37.9375 
Q 15.375 34.46875 15.375 28.375 
L 15.375 0 
z
" id="ArialMT-68"/>
     <path d="M 6.5 0 
L 6.5 51.859375 
L 14.40625 51.859375 
L 14.40625 44 
Q 17.4375 49.515625 20 51.265625 
Q 22.5625 53.03125 25.640625 53.03125 
Q 30.078125 53.03125 34.671875 50.203125 
L 31.640625 42.046875 
Q 28.421875 43.953125 25.203125 43.953125 
Q 22.3125 43.953125 20.015625 42.21875 
Q 17.71875 40.484375 16.75 37.40625 
Q 15.28125 32.71875 15.28125 27.15625 
L 15.28125 0 
z
" id="ArialMT-72"/>
     <path d="M 3.078125 15.484375 
L 11.765625 16.84375 
Q 12.5 11.625 15.84375 8.84375 
Q 19.1875 6.0625 25.203125 6.0625 
Q 31.25 6.0625 34.171875 8.515625 
Q 37.109375 10.984375 37.109375 14.3125 
Q 37.109375 17.28125 34.515625 19 
Q 32.71875 20.171875 25.53125 21.96875 
Q 15.875 24.421875 12.140625 26.203125 
Q 8.40625 27.984375 6.46875 31.125 
Q 4.546875 34.28125 4.546875 38.09375 
Q 4.546875 41.546875 6.125 44.5 
Q 7.71875 47.46875 10.453125 49.421875 
Q 12.5 50.921875 16.03125 51.96875 
Q 19.578125 53.03125 23.640625 53.03125 
Q 29.734375 53.03125 34.34375 51.265625 
Q 38.96875 49.515625 41.15625 46.5 
Q 43.359375 43.5 44.1875 38.484375 
L 35.59375 37.3125 
Q 35.015625 41.3125 32.203125 43.546875 
Q 29.390625 45.796875 24.265625 45.796875 
Q 18.21875 45.796875 15.625 43.796875 
Q 13.03125 41.796875 13.03125 39.109375 
Q 13.03125 37.40625 14.109375 36.03125 
Q 15.1875 34.625 17.484375 33.6875 
Q 18.796875 33.203125 25.25 31.453125 
Q 34.578125 28.953125 38.25 27.359375 
Q 41.9375 25.78125 44.03125 22.75 
Q 46.140625 19.734375 46.140625 15.234375 
Q 46.140625 10.84375 43.578125 6.953125 
Q 41.015625 3.078125 36.171875 0.953125 
Q 31.34375 -1.171875 25.25 -1.171875 
Q 15.140625 -1.171875 9.84375 3.03125 
Q 4.546875 7.234375 3.078125 15.484375 
" id="ArialMT-73"/>
     <path d="M 3.328125 25.921875 
Q 3.328125 40.328125 11.328125 47.265625 
Q 18.015625 53.03125 27.640625 53.03125 
Q 38.328125 53.03125 45.109375 46.015625 
Q 51.90625 39.015625 51.90625 26.65625 
Q 51.90625 16.65625 48.90625 10.90625 
Q 45.90625 5.171875 40.15625 2 
Q 34.421875 -1.171875 27.640625 -1.171875 
Q 16.75 -1.171875 10.03125 5.8125 
Q 3.328125 12.796875 3.328125 25.921875 
M 12.359375 25.921875 
Q 12.359375 15.96875 16.703125 11.015625 
Q 21.046875 6.0625 27.640625 6.0625 
Q 34.1875 6.0625 38.53125 11.03125 
Q 42.875 16.015625 42.875 26.21875 
Q 42.875 35.84375 38.5 40.796875 
Q 34.125 45.75 27.640625 45.75 
Q 21.046875 45.75 16.703125 40.8125 
Q 12.359375 35.890625 12.359375 25.921875 
" id="ArialMT-6f"/>
     <path d="M 6.59375 0 
L 6.59375 51.859375 
L 14.5 51.859375 
L 14.5 44.484375 
Q 20.21875 53.03125 31 53.03125 
Q 35.6875 53.03125 39.625 51.34375 
Q 43.5625 49.65625 45.515625 46.921875 
Q 47.46875 44.1875 48.25 40.4375 
Q 48.734375 37.984375 48.734375 31.890625 
L 48.734375 0 
L 39.9375 0 
L 39.9375 31.546875 
Q 39.9375 36.921875 38.90625 39.578125 
Q 37.890625 42.234375 35.28125 43.8125 
Q 32.671875 45.40625 29.15625 45.40625 
Q 23.53125 45.40625 19.453125 41.84375 
Q 15.375 38.28125 15.375 28.328125 
L 15.375 0 
z
" id="ArialMT-6e"/>
    </defs>
    <g style="fill:#262626;" transform="translate(99.5227812741 106.135375873)scale(0.1152 -0.1152)">
     <use xlink:href="#ArialMT-69"/>
     <use x="22.216796875" xlink:href="#ArialMT-6e"/>
     <use x="77.83203125" xlink:href="#ArialMT-68"/>
     <use x="133.447265625" xlink:href="#ArialMT-69"/>
     <use x="155.6640625" xlink:href="#ArialMT-62"/>
     <use x="211.279296875" xlink:href="#ArialMT-69"/>
     <use x="233.49609375" xlink:href="#ArialMT-74"/>
     <use x="261.279296875" xlink:href="#ArialMT-6f"/>
     <use x="316.89453125" xlink:href="#ArialMT-72"/>
     <use x="350.1953125" xlink:href="#ArialMT-73"/>
    </g>
   </g>
   <g id="text_6">
    <!-- activators -->
    <defs>
     <path d="M 40.4375 19 
L 49.078125 17.875 
Q 47.65625 8.9375 41.8125 3.875 
Q 35.984375 -1.171875 27.484375 -1.171875 
Q 16.84375 -1.171875 10.375 5.78125 
Q 3.90625 12.75 3.90625 25.734375 
Q 3.90625 34.125 6.6875 40.421875 
Q 9.46875 46.734375 15.15625 49.875 
Q 20.84375 53.03125 27.546875 53.03125 
Q 35.984375 53.03125 41.359375 48.75 
Q 46.734375 44.484375 48.25 36.625 
L 39.703125 35.296875 
Q 38.484375 40.53125 35.375 43.15625 
Q 32.28125 45.796875 27.875 45.796875 
Q 21.234375 45.796875 17.078125 41.03125 
Q 12.9375 36.28125 12.9375 25.984375 
Q 12.9375 15.53125 16.9375 10.796875 
Q 20.953125 6.0625 27.390625 6.0625 
Q 32.5625 6.0625 36.03125 9.234375 
Q 39.5 12.40625 40.4375 19 
" id="ArialMT-63"/>
     <path d="M 40.4375 6.390625 
Q 35.546875 2.25 31.03125 0.53125 
Q 26.515625 -1.171875 21.34375 -1.171875 
Q 12.796875 -1.171875 8.203125 3 
Q 3.609375 7.171875 3.609375 13.671875 
Q 3.609375 17.484375 5.34375 20.625 
Q 7.078125 23.78125 9.890625 25.6875 
Q 12.703125 27.59375 16.21875 28.5625 
Q 18.796875 29.25 24.03125 29.890625 
Q 34.671875 31.15625 39.703125 32.90625 
Q 39.75 34.71875 39.75 35.203125 
Q 39.75 40.578125 37.25 42.78125 
Q 33.890625 45.75 27.25 45.75 
Q 21.046875 45.75 18.09375 43.578125 
Q 15.140625 41.40625 13.71875 35.890625 
L 5.125 37.0625 
Q 6.296875 42.578125 8.984375 45.96875 
Q 11.671875 49.359375 16.75 51.1875 
Q 21.828125 53.03125 28.515625 53.03125 
Q 35.15625 53.03125 39.296875 51.46875 
Q 43.453125 49.90625 45.40625 47.53125 
Q 47.359375 45.171875 48.140625 41.546875 
Q 48.578125 39.3125 48.578125 33.453125 
L 48.578125 21.734375 
Q 48.578125 9.46875 49.140625 6.21875 
Q 49.703125 2.984375 51.375 0 
L 42.1875 0 
Q 40.828125 2.734375 40.4375 6.390625 
M 39.703125 26.03125 
Q 34.90625 24.078125 25.34375 22.703125 
Q 19.921875 21.921875 17.671875 20.9375 
Q 15.4375 19.96875 14.203125 18.09375 
Q 12.984375 16.21875 12.984375 13.921875 
Q 12.984375 10.40625 15.640625 8.0625 
Q 18.3125 5.71875 23.4375 5.71875 
Q 28.515625 5.71875 32.46875 7.9375 
Q 36.421875 10.15625 38.28125 14.015625 
Q 39.703125 17 39.703125 22.796875 
z
" id="ArialMT-61"/>
     <path d="M 21 0 
L 1.265625 51.859375 
L 10.546875 51.859375 
L 21.6875 20.796875 
Q 23.484375 15.765625 25 10.359375 
Q 26.171875 14.453125 28.265625 20.21875 
L 39.796875 51.859375 
L 48.828125 51.859375 
L 29.203125 0 
z
" id="ArialMT-76"/>
    </defs>
    <g style="fill:#262626;" transform="translate(196.908296902 116.669744659)scale(0.1152 -0.1152)">
     <use xlink:href="#ArialMT-61"/>
     <use x="55.615234375" xlink:href="#ArialMT-63"/>
     <use x="105.615234375" xlink:href="#ArialMT-74"/>
     <use x="133.3984375" xlink:href="#ArialMT-69"/>
     <use x="155.615234375" xlink:href="#ArialMT-76"/>
     <use x="205.615234375" xlink:href="#ArialMT-61"/>
     <use x="261.23046875" xlink:href="#ArialMT-74"/>
     <use x="289.013671875" xlink:href="#ArialMT-6f"/>
     <use x="344.62890625" xlink:href="#ArialMT-72"/>
     <use x="377.9296875" xlink:href="#ArialMT-73"/>
    </g>
   </g>
   <g id="text_7">
    <!-- E. coli metabolites -->
    <defs>
     <path d="M 42.09375 16.703125 
L 51.171875 15.578125 
Q 49.03125 7.625 43.21875 3.21875 
Q 37.40625 -1.171875 28.375 -1.171875 
Q 17 -1.171875 10.328125 5.828125 
Q 3.65625 12.84375 3.65625 25.484375 
Q 3.65625 38.578125 10.390625 45.796875 
Q 17.140625 53.03125 27.875 53.03125 
Q 38.28125 53.03125 44.875 45.953125 
Q 51.46875 38.875 51.46875 26.03125 
Q 51.46875 25.25 51.421875 23.6875 
L 12.75 23.6875 
Q 13.234375 15.140625 17.578125 10.59375 
Q 21.921875 6.0625 28.421875 6.0625 
Q 33.25 6.0625 36.671875 8.59375 
Q 40.09375 11.140625 42.09375 16.703125 
M 13.234375 30.90625 
L 42.1875 30.90625 
Q 41.609375 37.453125 38.875 40.71875 
Q 34.671875 45.796875 27.984375 45.796875 
Q 21.921875 45.796875 17.796875 41.75 
Q 13.671875 37.703125 13.234375 30.90625 
" id="ArialMT-65"/>
     <path d="M 9.078125 0 
L 9.078125 10.015625 
L 19.09375 10.015625 
L 19.09375 0 
z
" id="ArialMT-2e"/>
     <path d="M 7.90625 0 
L 7.90625 71.578125 
L 59.671875 71.578125 
L 59.671875 63.140625 
L 17.390625 63.140625 
L 17.390625 41.21875 
L 56.984375 41.21875 
L 56.984375 32.8125 
L 17.390625 32.8125 
L 17.390625 8.453125 
L 61.328125 8.453125 
L 61.328125 0 
z
" id="ArialMT-45"/>
     <path d="M 6.390625 0 
L 6.390625 71.578125 
L 15.1875 71.578125 
L 15.1875 0 
z
" id="ArialMT-6c"/>
     <path d="M 6.59375 0 
L 6.59375 51.859375 
L 14.453125 51.859375 
L 14.453125 44.578125 
Q 16.890625 48.390625 20.9375 50.703125 
Q 25 53.03125 30.171875 53.03125 
Q 35.9375 53.03125 39.625 50.640625 
Q 43.3125 48.25 44.828125 43.953125 
Q 50.984375 53.03125 60.84375 53.03125 
Q 68.5625 53.03125 72.703125 48.75 
Q 76.859375 44.484375 76.859375 35.59375 
L 76.859375 0 
L 68.109375 0 
L 68.109375 32.671875 
Q 68.109375 37.9375 67.25 40.25 
Q 66.40625 42.578125 64.15625 43.984375 
Q 61.921875 45.40625 58.890625 45.40625 
Q 53.421875 45.40625 49.796875 41.765625 
Q 46.1875 38.140625 46.1875 30.125 
L 46.1875 0 
L 37.40625 0 
L 37.40625 33.6875 
Q 37.40625 39.546875 35.25 42.46875 
Q 33.109375 45.40625 28.21875 45.40625 
Q 24.515625 45.40625 21.359375 43.453125 
Q 18.21875 41.5 16.796875 37.734375 
Q 15.375 33.984375 15.375 26.90625 
L 15.375 0 
z
" id="ArialMT-6d"/>
     <path id="ArialMT-20"/>
    </defs>
    <g style="fill:#262626;" transform="translate(105.033927273 271.193672412)scale(0.1152 -0.1152)">
     <use xlink:href="#ArialMT-45"/>
     <use x="66.69921875" xlink:href="#ArialMT-2e"/>
     <use x="94.482421875" xlink:href="#ArialMT-20"/>
     <use x="122.265625" xlink:href="#ArialMT-63"/>
     <use x="172.265625" xlink:href="#ArialMT-6f"/>
     <use x="227.880859375" xlink:href="#ArialMT-6c"/>
     <use x="250.09765625" xlink:href="#ArialMT-69"/>
     <use x="272.314453125" xlink:href="#ArialMT-20"/>
     <use x="300.09765625" xlink:href="#ArialMT-6d"/>
     <use x="383.3984375" xlink:href="#ArialMT-65"/>
     <use x="439.013671875" xlink:href="#ArialMT-74"/>
     <use x="466.796875" xlink:href="#ArialMT-61"/>
     <use x="522.412109375" xlink:href="#ArialMT-62"/>
     <use x="578.02734375" xlink:href="#ArialMT-6f"/>
     <use x="633.642578125" xlink:href="#ArialMT-6c"/>
     <use x="655.859375" xlink:href="#ArialMT-69"/>
     <use x="678.076171875" xlink:href="#ArialMT-74"/>
     <use x="705.859375" xlink:href="#ArialMT-65"/>
     <use x="761.474609375" xlink:href="#ArialMT-73"/>
    </g>
   </g>
   <g id="text_8">
    <!-- a -->
    <g style="fill:#262626;" transform="translate(66.5509090909 109.093806818)scale(0.2 -0.2)">
     <use xlink:href="#ArialMT-61"/>
    </g>
   </g>
  </g>
  <g id="axes_2">
   <g id="patch_6">
    <path clip-path="url(#pb6594cc8e6)" d="M 377.804639 105.717921 
C 383.393455 106.782502 388.733269 108.886178 393.546451 111.919573 
C 398.359632 114.952967 402.561295 118.862583 405.932983 123.44515 
C 409.374905 123.819483 412.713506 124.849543 415.768013 126.479556 
C 418.822519 128.10957 421.536788 130.309576 423.763851 132.960452 
C 418.070451 125.827103 411.128993 119.786302 403.277796 115.132469 
C 395.426598 110.478636 386.79532 107.288628 377.804639 105.717921 
M 374.343741 105.195748 
C 365.775989 104.105773 357.084315 104.495826 348.648635 106.348856 
C 340.212954 108.201887 332.157994 111.490497 324.835839 116.070942 
C 317.513684 120.651386 311.032596 126.455939 305.675866 133.230883 
C 300.319135 140.005827 296.165965 147.650989 293.39789 155.832199 
C 290.629816 164.013408 289.287765 172.609701 289.4304 181.245329 
C 289.573034 189.880958 291.198245 198.42824 294.234994 206.513571 
C 297.271742 214.598902 301.675129 222.102737 307.252679 228.697079 
C 312.83023 235.291421 319.499478 240.878771 326.968908 245.214903 
C 334.438338 249.551034 342.597511 252.571836 351.089786 254.145268 
C 359.582061 255.7187 368.281876 255.821497 376.808958 254.449167 
C 385.33604 253.076837 393.564313 250.249671 401.134115 246.091244 
C 408.703918 241.932816 415.503326 236.504613 421.235136 230.043903 
C 426.966946 223.583193 431.54641 216.185501 434.773358 208.174182 
C 438.000305 200.162863 439.827025 191.656369 440.173669 183.026522 
C 440.520314 174.396674 439.381758 165.771071 436.807769 157.52674 
C 434.23378 149.282408 430.262415 141.541245 425.067264 134.641619 
C 427.818315 138.492952 429.513731 142.998239 429.984279 147.707764 
C 430.454826 152.417289 429.684309 157.168958 427.749639 161.488459 
C 425.81497 165.807961 422.782736 169.546625 418.955616 172.33126 
C 415.128496 175.115895 410.638212 176.850657 405.932983 177.362383 
C 401.200495 183.794456 394.856708 188.868388 387.542001 192.071989 
C 380.227294 195.27559 372.196366 196.49731 364.259902 195.613822 
C 356.323439 194.730334 348.75779 191.772401 342.326674 187.038613 
C 335.895558 182.304826 330.822907 175.960015 327.620784 168.644661 
C 324.41866 161.329307 323.198562 153.298132 324.083653 145.361847 
C 324.968744 137.425562 327.928205 129.860511 332.663291 123.430351 
C 337.398378 117.000191 343.744213 111.928822 351.060214 108.728176 
C 358.376214 105.52753 366.407636 104.309054 374.343741 105.195748 
" style="fill:#0000ff;opacity:0.4;"/>
   </g>
   <g id="patch_7">
    <path clip-path="url(#pb6594cc8e6)" d="M 405.932983 123.44515 
C 402.561295 118.862583 398.359632 114.952967 393.546451 111.919573 
C 388.733269 108.886178 383.393455 106.782502 377.804639 105.717921 
C 377.22994 105.617519 376.654095 105.523789 376.07722 105.436752 
C 375.500346 105.349714 374.92248 105.269374 374.343741 105.195748 
C 366.407636 104.309054 358.376214 105.52753 351.060214 108.728176 
C 343.744213 111.928822 337.398378 117.000191 332.663291 123.430351 
C 327.928205 129.860511 324.968744 137.425562 324.083653 145.361847 
C 323.198562 153.298132 324.41866 161.329307 327.620784 168.644661 
C 330.822907 175.960015 335.895558 182.304826 342.326674 187.038613 
C 348.75779 191.772401 356.323439 194.730334 364.259902 195.613822 
C 372.196366 196.49731 380.227294 195.27559 387.542001 192.071989 
C 394.856708 188.868388 401.200495 183.794456 405.932983 177.362383 
C 402.146943 177.774142 398.316283 177.383758 394.691138 176.216723 
C 391.065993 175.049688 387.727024 173.131969 384.892261 170.58879 
C 382.057497 168.045611 379.790012 164.933558 378.23787 161.455843 
C 376.685728 157.978128 375.883464 154.212132 375.883464 150.403767 
C 375.883464 146.595401 376.685728 142.829405 378.23787 139.35169 
C 379.790012 135.873975 382.057497 132.761923 384.892261 130.218743 
C 387.727024 127.675564 391.065993 125.757845 394.691138 124.590811 
C 398.316283 123.423776 402.146943 123.033392 405.932983 123.44515 
" style="fill:#b200b2;opacity:0.4;"/>
   </g>
   <g id="patch_8">
    <path clip-path="url(#pb6594cc8e6)" d="M 405.932983 177.362383 
C 410.638212 176.850657 415.128496 175.115895 418.955616 172.33126 
C 422.782736 169.546625 425.81497 165.807961 427.749639 161.488459 
C 429.684309 157.168958 430.454826 152.417289 429.984279 147.707764 
C 429.513731 142.998239 427.818315 138.492952 425.067264 134.641619 
C 424.853995 134.358378 424.63873 134.076644 424.421486 133.796439 
C 424.204242 133.516234 423.985025 133.237565 423.763851 132.960452 
C 421.536788 130.309576 418.822519 128.10957 415.768013 126.479556 
C 412.713506 124.849543 409.374905 123.819483 405.932983 123.44515 
C 411.680524 131.256811 414.782009 140.705505 414.782009 150.403767 
C 414.782009 160.102028 411.680524 169.550722 405.932983 177.362383 
" style="fill:#0059b2;opacity:0.4;"/>
   </g>
   <g id="patch_9">
    <path clip-path="url(#pb6594cc8e6)" d="M 405.932983 177.362383 
C 411.680524 169.550722 414.782009 160.102028 414.782009 150.403767 
C 414.782009 140.705505 411.680524 131.256811 405.932983 123.44515 
C 402.146943 123.033392 398.316283 123.423776 394.691138 124.590811 
C 391.065993 125.757845 387.727024 127.675564 384.892261 130.218743 
C 382.057497 132.761923 379.790012 135.873975 378.23787 139.35169 
C 376.685728 142.829405 375.883464 146.595401 375.883464 150.403767 
C 375.883464 154.212132 376.685728 157.978128 378.23787 161.455843 
C 379.790012 164.933558 382.057497 168.045611 384.892261 170.58879 
C 387.727024 173.131969 391.065993 175.049688 394.691138 176.216723 
C 398.316283 177.383758 402.146943 177.774142 405.932983 177.362383 
" style="fill:#663366;opacity:0.4;"/>
   </g>
   <g id="text_9">
    <!-- 398 -->
    <g style="fill:#262626;" transform="translate(337.047516215 205.57845296)scale(0.096 -0.096)">
     <use xlink:href="#ArialMT-33"/>
     <use x="55.615234375" xlink:href="#ArialMT-39"/>
     <use x="111.23046875" xlink:href="#ArialMT-38"/>
    </g>
   </g>
   <g id="text_10">
    <!-- 181 -->
    <g style="fill:#262626;" transform="translate(345.224359118 158.343804003)scale(0.096 -0.096)">
     <use xlink:href="#ArialMT-31"/>
     <use x="55.615234375" xlink:href="#ArialMT-38"/>
     <use x="111.23046875" xlink:href="#ArialMT-31"/>
    </g>
   </g>
   <g id="text_11">
    <!-- 25 -->
    <defs>
     <path d="M 4.15625 18.75 
L 13.375 19.53125 
Q 14.40625 12.796875 18.140625 9.390625 
Q 21.875 6 27.15625 6 
Q 33.5 6 37.890625 10.78125 
Q 42.28125 15.578125 42.28125 23.484375 
Q 42.28125 31 38.0625 35.34375 
Q 33.84375 39.703125 27 39.703125 
Q 22.75 39.703125 19.328125 37.765625 
Q 15.921875 35.84375 13.96875 32.765625 
L 5.71875 33.84375 
L 12.640625 70.609375 
L 48.25 70.609375 
L 48.25 62.203125 
L 19.671875 62.203125 
L 15.828125 42.96875 
Q 22.265625 47.46875 29.34375 47.46875 
Q 38.71875 47.46875 45.15625 40.96875 
Q 51.609375 34.46875 51.609375 24.265625 
Q 51.609375 14.546875 45.953125 7.46875 
Q 39.0625 -1.21875 27.15625 -1.21875 
Q 17.390625 -1.21875 11.203125 4.25 
Q 5.03125 9.71875 4.15625 18.75 
" id="ArialMT-35"/>
    </defs>
    <g style="fill:#262626;" transform="translate(416.209339241 153.93448313)scale(0.096 -0.096)">
     <use xlink:href="#ArialMT-32"/>
     <use x="55.615234375" xlink:href="#ArialMT-35"/>
    </g>
   </g>
   <g id="text_12">
    <!-- 61 -->
    <g style="fill:#262626;" transform="translate(389.994236191 152.885516608)scale(0.096 -0.096)">
     <use xlink:href="#ArialMT-36"/>
     <use x="55.615234375" xlink:href="#ArialMT-31"/>
    </g>
   </g>
   <g id="text_13">
    <!-- inhibited -->
    <defs>
     <path d="M 40.234375 0 
L 40.234375 6.546875 
Q 35.296875 -1.171875 25.734375 -1.171875 
Q 19.53125 -1.171875 14.328125 2.25 
Q 9.125 5.671875 6.265625 11.796875 
Q 3.421875 17.921875 3.421875 25.875 
Q 3.421875 33.640625 6 39.96875 
Q 8.59375 46.296875 13.765625 49.65625 
Q 18.953125 53.03125 25.34375 53.03125 
Q 30.03125 53.03125 33.6875 51.046875 
Q 37.359375 49.078125 39.65625 45.90625 
L 39.65625 71.578125 
L 48.390625 71.578125 
L 48.390625 0 
z
M 12.453125 25.875 
Q 12.453125 15.921875 16.640625 10.984375 
Q 20.84375 6.0625 26.5625 6.0625 
Q 32.328125 6.0625 36.34375 10.765625 
Q 40.375 15.484375 40.375 25.140625 
Q 40.375 35.796875 36.265625 40.765625 
Q 32.171875 45.75 26.171875 45.75 
Q 20.3125 45.75 16.375 40.96875 
Q 12.453125 36.1875 12.453125 25.875 
" id="ArialMT-64"/>
    </defs>
    <g style="fill:#262626;" transform="translate(303.637831662 104.914448561)scale(0.1152 -0.1152)">
     <use xlink:href="#ArialMT-69"/>
     <use x="22.216796875" xlink:href="#ArialMT-6e"/>
     <use x="77.83203125" xlink:href="#ArialMT-68"/>
     <use x="133.447265625" xlink:href="#ArialMT-69"/>
     <use x="155.6640625" xlink:href="#ArialMT-62"/>
     <use x="211.279296875" xlink:href="#ArialMT-69"/>
     <use x="233.49609375" xlink:href="#ArialMT-74"/>
     <use x="261.279296875" xlink:href="#ArialMT-65"/>
     <use x="316.89453125" xlink:href="#ArialMT-64"/>
    </g>
   </g>
   <g id="text_14">
    <!-- activated -->
    <g style="fill:#262626;" transform="translate(416.559837277 123.286184189)scale(0.1152 -0.1152)">
     <use xlink:href="#ArialMT-61"/>
     <use x="55.615234375" xlink:href="#ArialMT-63"/>
     <use x="105.615234375" xlink:href="#ArialMT-74"/>
     <use x="133.3984375" xlink:href="#ArialMT-69"/>
     <use x="155.615234375" xlink:href="#ArialMT-76"/>
     <use x="205.615234375" xlink:href="#ArialMT-61"/>
     <use x="261.23046875" xlink:href="#ArialMT-74"/>
     <use x="289.013671875" xlink:href="#ArialMT-65"/>
     <use x="344.62890625" xlink:href="#ArialMT-64"/>
    </g>
   </g>
   <g id="text_15">
    <!-- E. coli reactions -->
    <g style="fill:#262626;" transform="translate(324.171572727 271.193672412)scale(0.1152 -0.1152)">
     <use xlink:href="#ArialMT-45"/>
     <use x="66.69921875" xlink:href="#ArialMT-2e"/>
     <use x="94.482421875" xlink:href="#ArialMT-20"/>
     <use x="122.265625" xlink:href="#ArialMT-63"/>
     <use x="172.265625" xlink:href="#ArialMT-6f"/>
     <use x="227.880859375" xlink:href="#ArialMT-6c"/>
     <use x="250.09765625" xlink:href="#ArialMT-69"/>
     <use x="272.314453125" xlink:href="#ArialMT-20"/>
     <use x="300.09765625" xlink:href="#ArialMT-72"/>
     <use x="333.3984375" xlink:href="#ArialMT-65"/>
     <use x="389.013671875" xlink:href="#ArialMT-61"/>
     <use x="444.62890625" xlink:href="#ArialMT-63"/>
     <use x="494.62890625" xlink:href="#ArialMT-74"/>
     <use x="522.412109375" xlink:href="#ArialMT-69"/>
     <use x="544.62890625" xlink:href="#ArialMT-6f"/>
     <use x="600.244140625" xlink:href="#ArialMT-6e"/>
     <use x="655.859375" xlink:href="#ArialMT-73"/>
    </g>
   </g>
   <g id="text_16">
    <!-- b -->
    <g style="fill:#262626;" transform="translate(279.605454545 109.093806818)scale(0.2 -0.2)">
     <use xlink:href="#ArialMT-62"/>
    </g>
   </g>
  </g>
 </g>
 <defs>
  <clipPath id="pb6594cc8e6">
   <rect height="177.545454545" width="177.545454545" x="276.054545455" y="91.2272727273"/>
  </clipPath>
  <clipPath id="p293ec42f1b">
   <rect height="177.545454545" width="177.545454545" x="63.0" y="91.2272727273"/>
  </clipPath>
 </defs>
</svg>
