<?xml version="1.0" encoding="utf-8" standalone="no"?>
<!DOCTYPE svg PUBLIC "-//W3C//DTD SVG 1.1//EN"
  "http://www.w3.org/Graphics/SVG/1.1/DTD/svg11.dtd">
<!-- Created with matplotlib (http://matplotlib.org/) -->
<svg height="504pt" version="1.1" viewBox="0 0 288 504" width="288pt" xmlns="http://www.w3.org/2000/svg" xmlns:xlink="http://www.w3.org/1999/xlink">
 <defs>
  <style type="text/css">
*{stroke-linecap:butt;stroke-linejoin:round;stroke-miterlimit:100000;}
  </style>
 </defs>
 <g id="figure_1">
  <g id="patch_1">
   <path d="M 0 504 
L 288 504 
L 288 0 
L 0 0 
z
" style="fill:#ffffff;"/>
  </g>
  <g id="axes_1">
   <g id="patch_2">
    <path clip-path="url(#p780c6f8802)" d="M 105.67862 83.438228 
C 105.804751 83.342066 105.93314 83.248904 106.06368 83.158818 
C 106.19422 83.068732 106.326874 82.981749 106.461531 82.897941 
C 112.93225 78.434446 120.08648 75.053659 127.643231 72.888363 
C 135.199983 70.723068 143.059011 69.801988 150.911648 70.161299 
C 147.36058 67.102567 143.099436 64.981236 138.518345 63.991523 
C 133.937254 63.00181 129.180424 63.174871 124.683363 64.494861 
C 120.186303 65.814851 116.090575 68.240218 112.771164 71.548909 
C 109.451753 74.8576 107.01315 78.945461 105.67862 83.438228 
" style="fill:#008000;opacity:0.4;"/>
   </g>
   <g id="patch_3">
    <path clip-path="url(#p780c6f8802)" d="M 105.56124 83.529095 
C 98.636707 88.462371 92.634301 94.576256 87.829273 101.590391 
C 83.024244 108.604525 79.491178 116.41003 77.39209 124.648974 
C 75.293001 132.887919 74.660472 141.432412 75.523509 149.890636 
C 76.386546 158.34886 78.731751 166.589519 82.451583 174.234729 
C 86.171416 181.879938 91.208132 188.811024 97.330769 194.710151 
C 103.453405 200.609278 110.566922 205.384878 118.345118 208.817957 
C 126.123315 212.251037 134.445454 214.288306 142.929912 214.836344 
C 151.414371 215.384382 159.929447 214.434681 168.084672 212.030791 
C 176.239897 209.626902 183.90868 205.806138 190.739358 200.743706 
C 197.570036 195.681274 203.456579 189.455756 208.129052 182.352632 
C 212.801526 175.249508 216.1874 167.379037 218.131412 159.102129 
C 220.075423 150.825222 220.547396 142.270357 219.525687 133.829831 
C 218.503977 125.389304 216.004446 117.194135 212.141711 109.620122 
C 208.278977 102.04611 203.112999 95.210824 196.880671 89.427704 
C 190.648343 83.644585 183.446407 79.003402 175.605117 75.716983 
C 167.763827 72.430565 159.404901 70.549923 150.911648 70.161299 
C 154.216737 73.008157 156.81326 76.586549 158.494549 80.611656 
C 160.175837 84.636763 160.896068 88.998883 160.597915 93.350816 
C 160.299762 97.702749 158.991352 101.925886 156.776825 105.684089 
C 154.562299 109.442292 151.502012 112.633134 147.839547 115.002641 
C 144.177082 117.372148 140.012256 118.855742 135.676566 119.335336 
C 131.340877 119.81493 126.952489 119.277454 122.860695 117.765688 
C 118.768901 116.253921 115.08522 113.809067 112.102851 110.625721 
C 109.120482 107.442374 106.920708 103.607297 105.67862 99.425738 
C 104.458292 98.495371 103.46706 97.297797 102.781141 95.9251 
C 102.095221 94.552403 101.732657 93.040692 101.721326 91.506204 
C 101.709996 89.971715 102.050197 88.454815 102.715771 87.072139 
C 103.381345 85.689462 104.354785 84.477382 105.56124 83.529095 
" style="fill:#0000ff;opacity:0.4;"/>
   </g>
   <g id="patch_4">
    <path clip-path="url(#p780c6f8802)" d="M 105.56124 83.529095 
C 104.354785 84.477382 103.381345 85.689462 102.715771 87.072139 
C 102.050197 88.454815 101.709996 89.971715 101.721326 91.506204 
C 101.732657 93.040692 102.095221 94.552403 102.781141 95.9251 
C 103.46706 97.297797 104.458292 98.495371 105.67862 99.425738 
C 104.908384 96.832701 104.516954 94.141899 104.516481 91.436884 
C 104.516009 88.731869 104.9065 86.040931 105.67583 83.447625 
C 105.656719 83.461185 105.637614 83.474754 105.618515 83.488332 
C 105.599417 83.50191 105.580325 83.515498 105.56124 83.529095 
" style="fill:#b200b2;opacity:0.4;"/>
   </g>
   <g id="patch_5">
    <path clip-path="url(#p780c6f8802)" d="M 106.461531 82.897941 
C 108.017679 81.929417 109.809495 81.404729 111.642271 81.380892 
C 113.475047 81.357055 115.279902 81.834965 116.860713 82.762691 
C 118.441523 83.690416 119.738878 85.033089 120.6118 86.64481 
C 121.484721 88.256531 121.900403 90.076726 121.813676 91.907604 
C 121.726948 93.738482 121.141071 95.511233 120.119707 97.033223 
C 119.098344 98.555213 117.67988 99.76924 116.018453 100.543382 
C 114.357026 101.317525 112.515077 101.622688 110.692761 101.425712 
C 108.870444 101.228736 107.136249 100.537023 105.67862 99.425738 
C 106.920708 103.607297 109.120482 107.442374 112.102851 110.625721 
C 115.08522 113.809067 118.768901 116.253921 122.860695 117.765688 
C 126.952489 119.277454 131.340877 119.81493 135.676566 119.335336 
C 140.012256 118.855742 144.177082 117.372148 147.839547 115.002641 
C 151.502012 112.633134 154.562299 109.442292 156.776825 105.684089 
C 158.991352 101.925886 160.299762 97.702749 160.597915 93.350816 
C 160.896068 88.998883 160.175837 84.636763 158.494549 80.611656 
C 156.81326 76.586549 154.216737 73.008157 150.911648 70.161299 
C 143.059011 69.801988 135.199983 70.723068 127.643231 72.888363 
C 120.08648 75.053659 112.93225 78.434446 106.461531 82.897941 
" style="fill:#0059b2;opacity:0.4;"/>
   </g>
   <g id="patch_6">
    <path clip-path="url(#p780c6f8802)" d="M 105.67583 83.447625 
C 104.9065 86.040931 104.516009 88.731869 104.516481 91.436884 
C 104.516954 94.141899 104.908384 96.832701 105.67862 99.425738 
C 107.136249 100.537023 108.870444 101.228736 110.692761 101.425712 
C 112.515077 101.622688 114.357026 101.317525 116.018453 100.543382 
C 117.67988 99.76924 119.098344 98.555213 120.119707 97.033223 
C 121.141071 95.511233 121.726948 93.738482 121.813676 91.907604 
C 121.900403 90.076726 121.484721 88.256531 120.6118 86.64481 
C 119.738878 85.033089 118.441523 83.690416 116.860713 82.762691 
C 115.279902 81.834965 113.475047 81.357055 111.642271 81.380892 
C 109.809495 81.404729 108.017679 81.929417 106.461531 82.897941 
C 106.329976 82.988687 106.198722 83.079868 106.067771 83.171483 
C 105.93682 83.263098 105.806172 83.355145 105.67583 83.447625 
" style="fill:#663366;opacity:0.4;"/>
   </g>
   <g id="text_1">
    <!-- 19 -->
    <defs>
     <path d="M 37.25 0 
L 28.46875 0 
L 28.46875 56 
Q 25.296875 52.984375 20.140625 49.953125 
Q 14.984375 46.921875 10.890625 45.40625 
L 10.890625 53.90625 
Q 18.265625 57.375 23.78125 62.296875 
Q 29.296875 67.234375 31.59375 71.875 
L 37.25 71.875 
z
" id="ArialMT-31"/>
     <path d="M 5.46875 16.546875 
L 13.921875 17.328125 
Q 14.984375 11.375 18.015625 8.6875 
Q 21.046875 6 25.78125 6 
Q 29.828125 6 32.875 7.859375 
Q 35.9375 9.71875 37.890625 12.8125 
Q 39.84375 15.921875 41.15625 21.1875 
Q 42.484375 26.46875 42.484375 31.9375 
Q 42.484375 32.515625 42.4375 33.6875 
Q 39.796875 29.5 35.234375 26.875 
Q 30.671875 24.265625 25.34375 24.265625 
Q 16.453125 24.265625 10.296875 30.703125 
Q 4.15625 37.15625 4.15625 47.703125 
Q 4.15625 58.59375 10.578125 65.234375 
Q 17 71.875 26.65625 71.875 
Q 33.640625 71.875 39.421875 68.109375 
Q 45.21875 64.359375 48.21875 57.390625 
Q 51.21875 50.4375 51.21875 37.25 
Q 51.21875 23.53125 48.234375 15.40625 
Q 45.265625 7.28125 39.375 3.03125 
Q 33.5 -1.21875 25.59375 -1.21875 
Q 17.1875 -1.21875 11.859375 3.4375 
Q 6.546875 8.109375 5.46875 16.546875 
M 41.453125 48.140625 
Q 41.453125 55.71875 37.421875 60.15625 
Q 33.40625 64.59375 27.734375 64.59375 
Q 21.875 64.59375 17.53125 59.8125 
Q 13.1875 55.03125 13.1875 47.40625 
Q 13.1875 40.578125 17.3125 36.296875 
Q 21.4375 32.03125 27.484375 32.03125 
Q 33.59375 32.03125 37.515625 36.296875 
Q 41.453125 40.578125 41.453125 48.140625 
" id="ArialMT-39"/>
    </defs>
    <g style="fill:#262626;" transform="translate(119.403298976 69.6138576775)scale(0.096 -0.096)">
     <use xlink:href="#ArialMT-31"/>
     <use x="55.615234375" xlink:href="#ArialMT-39"/>
    </g>
   </g>
   <g id="text_2">
    <!-- 900 -->
    <defs>
     <path d="M 4.15625 35.296875 
Q 4.15625 48 6.765625 55.734375 
Q 9.375 63.484375 14.515625 67.671875 
Q 19.671875 71.875 27.484375 71.875 
Q 33.25 71.875 37.59375 69.546875 
Q 41.9375 67.234375 44.765625 62.859375 
Q 47.609375 58.5 49.21875 52.21875 
Q 50.828125 45.953125 50.828125 35.296875 
Q 50.828125 22.703125 48.234375 14.96875 
Q 45.65625 7.234375 40.5 3 
Q 35.359375 -1.21875 27.484375 -1.21875 
Q 17.140625 -1.21875 11.234375 6.203125 
Q 4.15625 15.140625 4.15625 35.296875 
M 13.1875 35.296875 
Q 13.1875 17.671875 17.3125 11.828125 
Q 21.4375 6 27.484375 6 
Q 33.546875 6 37.671875 11.859375 
Q 41.796875 17.71875 41.796875 35.296875 
Q 41.796875 52.984375 37.671875 58.78125 
Q 33.546875 64.59375 27.390625 64.59375 
Q 21.34375 64.59375 17.71875 59.46875 
Q 13.1875 52.9375 13.1875 35.296875 
" id="ArialMT-30"/>
    </defs>
    <g style="fill:#262626;" transform="translate(142.487425698 162.512056147)scale(0.096 -0.096)">
     <use xlink:href="#ArialMT-39"/>
     <use x="55.615234375" xlink:href="#ArialMT-30"/>
     <use x="111.23046875" xlink:href="#ArialMT-30"/>
    </g>
   </g>
   <g id="text_3">
    <!-- 2 -->
    <defs>
     <path d="M 50.34375 8.453125 
L 50.34375 0 
L 3.03125 0 
Q 2.9375 3.171875 4.046875 6.109375 
Q 5.859375 10.9375 9.828125 15.625 
Q 13.8125 20.3125 21.34375 26.46875 
Q 33.015625 36.03125 37.109375 41.625 
Q 41.21875 47.21875 41.21875 52.203125 
Q 41.21875 57.421875 37.46875 61 
Q 33.734375 64.59375 27.734375 64.59375 
Q 21.390625 64.59375 17.578125 60.78125 
Q 13.765625 56.984375 13.71875 50.25 
L 4.6875 51.171875 
Q 5.609375 61.28125 11.65625 66.578125 
Q 17.71875 71.875 27.9375 71.875 
Q 38.234375 71.875 44.234375 66.15625 
Q 50.25 60.453125 50.25 52 
Q 50.25 47.703125 48.484375 43.546875 
Q 46.734375 39.40625 42.65625 34.8125 
Q 38.578125 30.21875 29.109375 22.21875 
Q 21.1875 15.578125 18.9375 13.203125 
Q 16.703125 10.84375 15.234375 8.453125 
z
" id="ArialMT-32"/>
    </defs>
    <g style="fill:#262626;" transform="translate(99.7265009385 93.9648313054)scale(0.096 -0.096)">
     <use xlink:href="#ArialMT-32"/>
    </g>
   </g>
   <g id="text_4">
    <!-- 119 -->
    <g style="fill:#262626;" transform="translate(125.336877878 102.813299233)scale(0.096 -0.096)">
     <use xlink:href="#ArialMT-31"/>
     <use x="55.505859375" xlink:href="#ArialMT-31"/>
     <use x="111.12109375" xlink:href="#ArialMT-39"/>
    </g>
   </g>
   <g id="text_5">
    <!-- 18 -->
    <defs>
     <path d="M 17.671875 38.8125 
Q 12.203125 40.828125 9.5625 44.53125 
Q 6.9375 48.25 6.9375 53.421875 
Q 6.9375 61.234375 12.546875 66.546875 
Q 18.171875 71.875 27.484375 71.875 
Q 36.859375 71.875 42.578125 66.421875 
Q 48.296875 60.984375 48.296875 53.171875 
Q 48.296875 48.1875 45.671875 44.5 
Q 43.0625 40.828125 37.75 38.8125 
Q 44.34375 36.671875 47.78125 31.875 
Q 51.21875 27.09375 51.21875 20.453125 
Q 51.21875 11.28125 44.71875 5.03125 
Q 38.234375 -1.21875 27.640625 -1.21875 
Q 17.046875 -1.21875 10.546875 5.046875 
Q 4.046875 11.328125 4.046875 20.703125 
Q 4.046875 27.6875 7.59375 32.390625 
Q 11.140625 37.109375 17.671875 38.8125 
M 15.921875 53.71875 
Q 15.921875 48.640625 19.1875 45.40625 
Q 22.46875 42.1875 27.6875 42.1875 
Q 32.765625 42.1875 36.015625 45.375 
Q 39.265625 48.578125 39.265625 53.21875 
Q 39.265625 58.0625 35.90625 61.359375 
Q 32.5625 64.65625 27.59375 64.65625 
Q 22.5625 64.65625 19.234375 61.421875 
Q 15.921875 58.203125 15.921875 53.71875 
M 13.09375 20.65625 
Q 13.09375 16.890625 14.875 13.375 
Q 16.65625 9.859375 20.171875 7.921875 
Q 23.6875 6 27.734375 6 
Q 34.03125 6 38.125 10.046875 
Q 42.234375 14.109375 42.234375 20.359375 
Q 42.234375 26.703125 38.015625 30.859375 
Q 33.796875 35.015625 27.4375 35.015625 
Q 21.234375 35.015625 17.15625 30.90625 
Q 13.09375 26.8125 13.09375 20.65625 
" id="ArialMT-38"/>
    </defs>
    <g style="fill:#262626;" transform="translate(114.412224392 94.3109558786)scale(0.096 -0.096)">
     <use xlink:href="#ArialMT-31"/>
     <use x="55.615234375" xlink:href="#ArialMT-38"/>
    </g>
   </g>
   <g id="text_6">
    <!-- inhibitors -->
    <defs>
     <path d="M 14.703125 0 
L 6.546875 0 
L 6.546875 71.578125 
L 15.328125 71.578125 
L 15.328125 46.046875 
Q 20.90625 53.03125 29.546875 53.03125 
Q 34.328125 53.03125 38.59375 51.09375 
Q 42.875 49.171875 45.625 45.671875 
Q 48.390625 42.1875 49.953125 37.25 
Q 51.515625 32.328125 51.515625 26.703125 
Q 51.515625 13.375 44.921875 6.09375 
Q 38.328125 -1.171875 29.109375 -1.171875 
Q 19.921875 -1.171875 14.703125 6.5 
z
M 14.59375 26.3125 
Q 14.59375 17 17.140625 12.84375 
Q 21.296875 6.0625 28.375 6.0625 
Q 34.125 6.0625 38.328125 11.0625 
Q 42.53125 16.0625 42.53125 25.984375 
Q 42.53125 36.140625 38.5 40.96875 
Q 34.46875 45.796875 28.765625 45.796875 
Q 23 45.796875 18.796875 40.796875 
Q 14.59375 35.796875 14.59375 26.3125 
" id="ArialMT-62"/>
     <path d="M 25.78125 7.859375 
L 27.046875 0.09375 
Q 23.34375 -0.6875 20.40625 -0.6875 
Q 15.625 -0.6875 12.984375 0.828125 
Q 10.359375 2.34375 9.28125 4.8125 
Q 8.203125 7.28125 8.203125 15.1875 
L 8.203125 45.015625 
L 1.765625 45.015625 
L 1.765625 51.859375 
L 8.203125 51.859375 
L 8.203125 64.703125 
L 16.9375 69.96875 
L 16.9375 51.859375 
L 25.78125 51.859375 
L 25.78125 45.015625 
L 16.9375 45.015625 
L 16.9375 14.703125 
Q 16.9375 10.9375 17.40625 9.859375 
Q 17.875 8.796875 18.921875 8.15625 
Q 19.96875 7.515625 21.921875 7.515625 
Q 23.390625 7.515625 25.78125 7.859375 
" id="ArialMT-74"/>
     <path d="M 6.640625 61.46875 
L 6.640625 71.578125 
L 15.4375 71.578125 
L 15.4375 61.46875 
z
M 6.640625 0 
L 6.640625 51.859375 
L 15.4375 51.859375 
L 15.4375 0 
z
" id="ArialMT-69"/>
     <path d="M 6.59375 0 
L 6.59375 71.578125 
L 15.375 71.578125 
L 15.375 45.90625 
Q 21.53125 53.03125 30.90625 53.03125 
Q 36.671875 53.03125 40.921875 50.75 
Q 45.171875 48.484375 47 44.484375 
Q 48.828125 40.484375 48.828125 32.859375 
L 48.828125 0 
L 40.046875 0 
L 40.046875 32.859375 
Q 40.046875 39.453125 37.1875 42.453125 
Q 34.328125 45.453125 29.109375 45.453125 
Q 25.203125 45.453125 21.75 43.421875 
Q 18.3125 41.40625 16.84375 37.9375 
Q 15.375 34.46875 15.375 28.375 
L 15.375 0 
z
" id="ArialMT-68"/>
     <path d="M 6.5 0 
L 6.5 51.859375 
L 14.40625 51.859375 
L 14.40625 44 
Q 17.4375 49.515625 20 51.265625 
Q 22.5625 53.03125 25.640625 53.03125 
Q 30.078125 53.03125 34.671875 50.203125 
L 31.640625 42.046875 
Q 28.421875 43.953125 25.203125 43.953125 
Q 22.3125 43.953125 20.015625 42.21875 
Q 17.71875 40.484375 16.75 37.40625 
Q 15.28125 32.71875 15.28125 27.15625 
L 15.28125 0 
z
" id="ArialMT-72"/>
     <path d="M 3.078125 15.484375 
L 11.765625 16.84375 
Q 12.5 11.625 15.84375 8.84375 
Q 19.1875 6.0625 25.203125 6.0625 
Q 31.25 6.0625 34.171875 8.515625 
Q 37.109375 10.984375 37.109375 14.3125 
Q 37.109375 17.28125 34.515625 19 
Q 32.71875 20.171875 25.53125 21.96875 
Q 15.875 24.421875 12.140625 26.203125 
Q 8.40625 27.984375 6.46875 31.125 
Q 4.546875 34.28125 4.546875 38.09375 
Q 4.546875 41.546875 6.125 44.5 
Q 7.71875 47.46875 10.453125 49.421875 
Q 12.5 50.921875 16.03125 51.96875 
Q 19.578125 53.03125 23.640625 53.03125 
Q 29.734375 53.03125 34.34375 51.265625 
Q 38.96875 49.515625 41.15625 46.5 
Q 43.359375 43.5 44.1875 38.484375 
L 35.59375 37.3125 
Q 35.015625 41.3125 32.203125 43.546875 
Q 29.390625 45.796875 24.265625 45.796875 
Q 18.21875 45.796875 15.625 43.796875 
Q 13.03125 41.796875 13.03125 39.109375 
Q 13.03125 37.40625 14.109375 36.03125 
Q 15.1875 34.625 17.484375 33.6875 
Q 18.796875 33.203125 25.25 31.453125 
Q 34.578125 28.953125 38.25 27.359375 
Q 41.9375 25.78125 44.03125 22.75 
Q 46.140625 19.734375 46.140625 15.234375 
Q 46.140625 10.84375 43.578125 6.953125 
Q 41.015625 3.078125 36.171875 0.953125 
Q 31.34375 -1.171875 25.25 -1.171875 
Q 15.140625 -1.171875 9.84375 3.03125 
Q 4.546875 7.234375 3.078125 15.484375 
" id="ArialMT-73"/>
     <path d="M 3.328125 25.921875 
Q 3.328125 40.328125 11.328125 47.265625 
Q 18.015625 53.03125 27.640625 53.03125 
Q 38.328125 53.03125 45.109375 46.015625 
Q 51.90625 39.015625 51.90625 26.65625 
Q 51.90625 16.65625 48.90625 10.90625 
Q 45.90625 5.171875 40.15625 2 
Q 34.421875 -1.171875 27.640625 -1.171875 
Q 16.75 -1.171875 10.03125 5.8125 
Q 3.328125 12.796875 3.328125 25.921875 
M 12.359375 25.921875 
Q 12.359375 15.96875 16.703125 11.015625 
Q 21.046875 6.0625 27.640625 6.0625 
Q 34.1875 6.0625 38.53125 11.03125 
Q 42.875 16.015625 42.875 26.21875 
Q 42.875 35.84375 38.5 40.796875 
Q 34.125 45.75 27.640625 45.75 
Q 21.046875 45.75 16.703125 40.8125 
Q 12.359375 35.890625 12.359375 25.921875 
" id="ArialMT-6f"/>
     <path d="M 6.59375 0 
L 6.59375 51.859375 
L 14.5 51.859375 
L 14.5 44.484375 
Q 20.21875 53.03125 31 53.03125 
Q 35.6875 53.03125 39.625 51.34375 
Q 43.5625 49.65625 45.515625 46.921875 
Q 47.46875 44.1875 48.25 40.4375 
Q 48.734375 37.984375 48.734375 31.890625 
L 48.734375 0 
L 39.9375 0 
L 39.9375 31.546875 
Q 39.9375 36.921875 38.90625 39.578125 
Q 37.890625 42.234375 35.28125 43.8125 
Q 32.671875 45.40625 29.15625 45.40625 
Q 23.53125 45.40625 19.453125 41.84375 
Q 15.375 38.28125 15.375 28.328125 
L 15.375 0 
z
" id="ArialMT-6e"/>
    </defs>
    <g style="fill:#262626;" transform="translate(60.6472229636 81.3800420174)scale(0.1152 -0.1152)">
     <use xlink:href="#ArialMT-69"/>
     <use x="22.216796875" xlink:href="#ArialMT-6e"/>
     <use x="77.83203125" xlink:href="#ArialMT-68"/>
     <use x="133.447265625" xlink:href="#ArialMT-69"/>
     <use x="155.6640625" xlink:href="#ArialMT-62"/>
     <use x="211.279296875" xlink:href="#ArialMT-69"/>
     <use x="233.49609375" xlink:href="#ArialMT-74"/>
     <use x="261.279296875" xlink:href="#ArialMT-6f"/>
     <use x="316.89453125" xlink:href="#ArialMT-72"/>
     <use x="350.1953125" xlink:href="#ArialMT-73"/>
    </g>
   </g>
   <g id="text_7">
    <!-- activators -->
    <defs>
     <path d="M 40.4375 19 
L 49.078125 17.875 
Q 47.65625 8.9375 41.8125 3.875 
Q 35.984375 -1.171875 27.484375 -1.171875 
Q 16.84375 -1.171875 10.375 5.78125 
Q 3.90625 12.75 3.90625 25.734375 
Q 3.90625 34.125 6.6875 40.421875 
Q 9.46875 46.734375 15.15625 49.875 
Q 20.84375 53.03125 27.546875 53.03125 
Q 35.984375 53.03125 41.359375 48.75 
Q 46.734375 44.484375 48.25 36.625 
L 39.703125 35.296875 
Q 38.484375 40.53125 35.375 43.15625 
Q 32.28125 45.796875 27.875 45.796875 
Q 21.234375 45.796875 17.078125 41.03125 
Q 12.9375 36.28125 12.9375 25.984375 
Q 12.9375 15.53125 16.9375 10.796875 
Q 20.953125 6.0625 27.390625 6.0625 
Q 32.5625 6.0625 36.03125 9.234375 
Q 39.5 12.40625 40.4375 19 
" id="ArialMT-63"/>
     <path d="M 40.4375 6.390625 
Q 35.546875 2.25 31.03125 0.53125 
Q 26.515625 -1.171875 21.34375 -1.171875 
Q 12.796875 -1.171875 8.203125 3 
Q 3.609375 7.171875 3.609375 13.671875 
Q 3.609375 17.484375 5.34375 20.625 
Q 7.078125 23.78125 9.890625 25.6875 
Q 12.703125 27.59375 16.21875 28.5625 
Q 18.796875 29.25 24.03125 29.890625 
Q 34.671875 31.15625 39.703125 32.90625 
Q 39.75 34.71875 39.75 35.203125 
Q 39.75 40.578125 37.25 42.78125 
Q 33.890625 45.75 27.25 45.75 
Q 21.046875 45.75 18.09375 43.578125 
Q 15.140625 41.40625 13.71875 35.890625 
L 5.125 37.0625 
Q 6.296875 42.578125 8.984375 45.96875 
Q 11.671875 49.359375 16.75 51.1875 
Q 21.828125 53.03125 28.515625 53.03125 
Q 35.15625 53.03125 39.296875 51.46875 
Q 43.453125 49.90625 45.40625 47.53125 
Q 47.359375 45.171875 48.140625 41.546875 
Q 48.578125 39.3125 48.578125 33.453125 
L 48.578125 21.734375 
Q 48.578125 9.46875 49.140625 6.21875 
Q 49.703125 2.984375 51.375 0 
L 42.1875 0 
Q 40.828125 2.734375 40.4375 6.390625 
M 39.703125 26.03125 
Q 34.90625 24.078125 25.34375 22.703125 
Q 19.921875 21.921875 17.671875 20.9375 
Q 15.4375 19.96875 14.203125 18.09375 
Q 12.984375 16.21875 12.984375 13.921875 
Q 12.984375 10.40625 15.640625 8.0625 
Q 18.3125 5.71875 23.4375 5.71875 
Q 28.515625 5.71875 32.46875 7.9375 
Q 36.421875 10.15625 38.28125 14.015625 
Q 39.703125 17 39.703125 22.796875 
z
" id="ArialMT-61"/>
     <path d="M 21 0 
L 1.265625 51.859375 
L 10.546875 51.859375 
L 21.6875 20.796875 
Q 23.484375 15.765625 25 10.359375 
Q 26.171875 14.453125 28.265625 20.21875 
L 39.796875 51.859375 
L 48.828125 51.859375 
L 29.203125 0 
z
" id="ArialMT-76"/>
    </defs>
    <g style="fill:#262626;" transform="translate(146.626796404 63.3584395076)scale(0.1152 -0.1152)">
     <use xlink:href="#ArialMT-61"/>
     <use x="55.615234375" xlink:href="#ArialMT-63"/>
     <use x="105.615234375" xlink:href="#ArialMT-74"/>
     <use x="133.3984375" xlink:href="#ArialMT-69"/>
     <use x="155.615234375" xlink:href="#ArialMT-76"/>
     <use x="205.615234375" xlink:href="#ArialMT-61"/>
     <use x="261.23046875" xlink:href="#ArialMT-74"/>
     <use x="289.013671875" xlink:href="#ArialMT-6f"/>
     <use x="344.62890625" xlink:href="#ArialMT-72"/>
     <use x="377.9296875" xlink:href="#ArialMT-73"/>
    </g>
   </g>
   <g id="text_8">
    <!-- E. coli metabolites -->
    <defs>
     <path d="M 42.09375 16.703125 
L 51.171875 15.578125 
Q 49.03125 7.625 43.21875 3.21875 
Q 37.40625 -1.171875 28.375 -1.171875 
Q 17 -1.171875 10.328125 5.828125 
Q 3.65625 12.84375 3.65625 25.484375 
Q 3.65625 38.578125 10.390625 45.796875 
Q 17.140625 53.03125 27.875 53.03125 
Q 38.28125 53.03125 44.875 45.953125 
Q 51.46875 38.875 51.46875 26.03125 
Q 51.46875 25.25 51.421875 23.6875 
L 12.75 23.6875 
Q 13.234375 15.140625 17.578125 10.59375 
Q 21.921875 6.0625 28.421875 6.0625 
Q 33.25 6.0625 36.671875 8.59375 
Q 40.09375 11.140625 42.09375 16.703125 
M 13.234375 30.90625 
L 42.1875 30.90625 
Q 41.609375 37.453125 38.875 40.71875 
Q 34.671875 45.796875 27.984375 45.796875 
Q 21.921875 45.796875 17.796875 41.75 
Q 13.671875 37.703125 13.234375 30.90625 
" id="ArialMT-65"/>
     <path d="M 9.078125 0 
L 9.078125 10.015625 
L 19.09375 10.015625 
L 19.09375 0 
z
" id="ArialMT-2e"/>
     <path d="M 7.90625 0 
L 7.90625 71.578125 
L 59.671875 71.578125 
L 59.671875 63.140625 
L 17.390625 63.140625 
L 17.390625 41.21875 
L 56.984375 41.21875 
L 56.984375 32.8125 
L 17.390625 32.8125 
L 17.390625 8.453125 
L 61.328125 8.453125 
L 61.328125 0 
z
" id="ArialMT-45"/>
     <path d="M 6.390625 0 
L 6.390625 71.578125 
L 15.1875 71.578125 
L 15.1875 0 
z
" id="ArialMT-6c"/>
     <path d="M 6.59375 0 
L 6.59375 51.859375 
L 14.453125 51.859375 
L 14.453125 44.578125 
Q 16.890625 48.390625 20.9375 50.703125 
Q 25 53.03125 30.171875 53.03125 
Q 35.9375 53.03125 39.625 50.640625 
Q 43.3125 48.25 44.828125 43.953125 
Q 50.984375 53.03125 60.84375 53.03125 
Q 68.5625 53.03125 72.703125 48.75 
Q 76.859375 44.484375 76.859375 35.59375 
L 76.859375 0 
L 68.109375 0 
L 68.109375 32.671875 
Q 68.109375 37.9375 67.25 40.25 
Q 66.40625 42.578125 64.15625 43.984375 
Q 61.921875 45.40625 58.890625 45.40625 
Q 53.421875 45.40625 49.796875 41.765625 
Q 46.1875 38.140625 46.1875 30.125 
L 46.1875 0 
L 37.40625 0 
L 37.40625 33.6875 
Q 37.40625 39.546875 35.25 42.46875 
Q 33.109375 45.40625 28.21875 45.40625 
Q 24.515625 45.40625 21.359375 43.453125 
Q 18.21875 41.5 16.796875 37.734375 
Q 15.375 33.984375 15.375 26.90625 
L 15.375 0 
z
" id="ArialMT-6d"/>
     <path id="ArialMT-20"/>
    </defs>
    <g style="fill:#262626;" transform="translate(100.8612 230.477887097)scale(0.1152 -0.1152)">
     <use xlink:href="#ArialMT-45"/>
     <use x="66.69921875" xlink:href="#ArialMT-2e"/>
     <use x="94.482421875" xlink:href="#ArialMT-20"/>
     <use x="122.265625" xlink:href="#ArialMT-63"/>
     <use x="172.265625" xlink:href="#ArialMT-6f"/>
     <use x="227.880859375" xlink:href="#ArialMT-6c"/>
     <use x="250.09765625" xlink:href="#ArialMT-69"/>
     <use x="272.314453125" xlink:href="#ArialMT-20"/>
     <use x="300.09765625" xlink:href="#ArialMT-6d"/>
     <use x="383.3984375" xlink:href="#ArialMT-65"/>
     <use x="439.013671875" xlink:href="#ArialMT-74"/>
     <use x="466.796875" xlink:href="#ArialMT-61"/>
     <use x="522.412109375" xlink:href="#ArialMT-62"/>
     <use x="578.02734375" xlink:href="#ArialMT-6f"/>
     <use x="633.642578125" xlink:href="#ArialMT-6c"/>
     <use x="655.859375" xlink:href="#ArialMT-69"/>
     <use x="678.076171875" xlink:href="#ArialMT-74"/>
     <use x="705.859375" xlink:href="#ArialMT-65"/>
     <use x="761.474609375" xlink:href="#ArialMT-73"/>
    </g>
   </g>
  </g>
  <g id="axes_2">
   <g id="patch_7">
    <path clip-path="url(#pd81d3ec131)" d="M 96.20803 297.044805 
C 99.26884 294.365462 103.058667 292.656352 107.093094 292.135934 
C 111.127522 291.615517 115.227005 292.306952 118.867547 294.12186 
C 122.058397 288.813257 126.579037 284.427322 131.981708 281.398471 
C 137.384379 278.36962 143.484616 276.801269 149.678205 276.848759 
C 139.8809 276.578645 130.124255 278.221207 120.955452 281.684326 
C 111.786649 285.147445 103.380358 290.365146 96.20803 297.044805 
M 94.952005 298.241831 
C 88.810873 304.230821 83.736444 311.224017 79.947546 318.919844 
C 76.158649 326.615671 73.710543 334.901889 72.708801 343.421161 
C 71.707059 351.940433 72.166291 360.568512 74.066692 368.933317 
C 75.967094 377.298122 79.280948 385.277658 83.865349 392.527814 
C 88.44975 399.777969 94.237837 406.193006 100.980002 411.496278 
C 107.722166 416.799551 115.320079 420.913716 123.446086 423.661352 
C 131.572093 426.408989 140.10768 427.750024 148.684758 427.626627 
C 157.261836 427.50323 165.755312 425.9172 173.798912 422.936935 
C 181.842513 419.956669 189.318926 415.625632 195.905737 410.130598 
C 202.492549 404.635563 208.093693 398.056672 212.467627 390.677634 
C 216.84156 383.298596 219.92449 375.227031 221.583469 366.811018 
C 223.242448 358.395004 223.453279 349.757286 222.206872 341.270357 
C 220.960464 332.783428 218.274996 324.571066 214.266275 316.987423 
C 210.257555 309.403779 204.984047 302.559457 198.673168 296.749612 
C 192.362289 290.939768 185.106079 286.249134 177.217456 282.87999 
C 169.328834 279.510847 160.92285 277.512332 152.362006 276.970628 
C 158.442784 277.477036 164.292734 279.537132 169.349029 282.952712 
C 174.405325 286.368291 178.500435 291.026187 181.240366 296.478258 
C 183.980297 301.930329 185.274268 307.995934 184.997784 314.091494 
C 184.721299 320.187055 182.883521 326.110609 179.661264 331.292245 
C 176.439006 336.473882 171.939031 340.741919 166.594285 343.685725 
C 161.249539 346.629532 155.237109 348.15157 149.135456 348.105405 
C 143.033802 348.059239 137.045091 346.446399 131.745501 343.422057 
C 126.44591 340.397715 122.011031 336.062076 118.867547 330.832276 
C 114.540815 332.989268 109.587713 333.548447 104.888986 332.410381 
C 100.190259 331.272315 96.04196 328.508709 93.181726 324.61098 
C 90.321492 320.713252 88.929538 315.926983 89.253376 311.103255 
C 89.577215 306.279527 91.596442 301.722266 94.952005 298.241831 
" style="fill:#0000ff;opacity:0.4;"/>
   </g>
   <g id="patch_8">
    <path clip-path="url(#pd81d3ec131)" d="M 118.867547 294.12186 
C 115.227005 292.306952 111.127522 291.615517 107.093094 292.135934 
C 103.058667 292.656352 99.26884 294.365462 96.20803 297.044805 
C 95.996406 297.241893 95.785917 297.440196 95.576574 297.639706 
C 95.367232 297.839215 95.159038 298.039927 94.952005 298.241831 
C 91.596442 301.722266 89.577215 306.279527 89.253376 311.103255 
C 88.929538 315.926983 90.321492 320.713252 93.181726 324.61098 
C 96.04196 328.508709 100.190259 331.272315 104.888986 332.410381 
C 109.587713 333.548447 114.540815 332.989268 118.867547 330.832276 
C 115.536152 325.28985 113.775666 318.943649 113.775666 312.477068 
C 113.775666 306.010487 115.536152 299.664286 118.867547 294.12186 
" style="fill:#b200b2;opacity:0.4;"/>
   </g>
   <g id="patch_9">
    <path clip-path="url(#pd81d3ec131)" d="M 118.867547 330.832276 
C 122.011031 336.062076 126.44591 340.397715 131.745501 343.422057 
C 137.045091 346.446399 143.033802 348.059239 149.135456 348.105405 
C 155.237109 348.15157 161.249539 346.629532 166.594285 343.685725 
C 171.939031 340.741919 176.439006 336.473882 179.661264 331.292245 
C 182.883521 326.110609 184.721299 320.187055 184.997784 314.091494 
C 185.274268 307.995934 183.980297 301.930329 181.240366 296.478258 
C 178.500435 291.026187 174.405325 286.368291 169.349029 282.952712 
C 164.292734 279.537132 158.442784 277.477036 152.362006 276.970628 
C 151.915112 276.94235 151.467975 276.918053 151.020648 276.89774 
C 150.573321 276.877428 150.125822 276.8611 149.678205 276.848759 
C 143.484616 276.801269 137.384379 278.36962 131.981708 281.398471 
C 126.579037 284.427322 122.058397 288.813257 118.867547 294.12186 
C 122.279686 295.822904 125.150851 298.442168 127.157187 301.684213 
C 129.163524 304.926258 130.22665 308.664426 130.22665 312.477068 
C 130.22665 316.28971 129.163524 320.027878 127.157187 323.269923 
C 125.150851 326.511968 122.279686 329.131232 118.867547 330.832276 
" style="fill:#0059b2;opacity:0.4;"/>
   </g>
   <g id="patch_10">
    <path clip-path="url(#pd81d3ec131)" d="M 118.867547 330.832276 
C 122.279686 329.131232 125.150851 326.511968 127.157187 323.269923 
C 129.163524 320.027878 130.22665 316.28971 130.22665 312.477068 
C 130.22665 308.664426 129.163524 304.926258 127.157187 301.684213 
C 125.150851 298.442168 122.279686 295.822904 118.867547 294.12186 
C 115.536152 299.664286 113.775666 306.010487 113.775666 312.477068 
C 113.775666 318.943649 115.536152 325.28985 118.867547 330.832276 
" style="fill:#663366;opacity:0.4;"/>
   </g>
   <g id="text_9">
    <!-- 550 -->
    <defs>
     <path d="M 4.15625 18.75 
L 13.375 19.53125 
Q 14.40625 12.796875 18.140625 9.390625 
Q 21.875 6 27.15625 6 
Q 33.5 6 37.890625 10.78125 
Q 42.28125 15.578125 42.28125 23.484375 
Q 42.28125 31 38.0625 35.34375 
Q 33.84375 39.703125 27 39.703125 
Q 22.75 39.703125 19.328125 37.765625 
Q 15.921875 35.84375 13.96875 32.765625 
L 5.71875 33.84375 
L 12.640625 70.609375 
L 48.25 70.609375 
L 48.25 62.203125 
L 19.671875 62.203125 
L 15.828125 42.96875 
Q 22.265625 47.46875 29.34375 47.46875 
Q 38.71875 47.46875 45.15625 40.96875 
Q 51.609375 34.46875 51.609375 24.265625 
Q 51.609375 14.546875 45.953125 7.46875 
Q 39.0625 -1.21875 27.15625 -1.21875 
Q 17.390625 -1.21875 11.203125 4.25 
Q 5.03125 9.71875 4.15625 18.75 
" id="ArialMT-35"/>
    </defs>
    <g style="fill:#262626;" transform="translate(149.432499066 372.725470916)scale(0.096 -0.096)">
     <use xlink:href="#ArialMT-35"/>
     <use x="55.615234375" xlink:href="#ArialMT-35"/>
     <use x="111.23046875" xlink:href="#ArialMT-30"/>
    </g>
   </g>
   <g id="text_10">
    <!-- 38 -->
    <defs>
     <path d="M 4.203125 18.890625 
L 12.984375 20.0625 
Q 14.5 12.59375 18.140625 9.296875 
Q 21.78125 6 27 6 
Q 33.203125 6 37.46875 10.296875 
Q 41.75 14.59375 41.75 20.953125 
Q 41.75 27 37.796875 30.921875 
Q 33.84375 34.859375 27.734375 34.859375 
Q 25.25 34.859375 21.53125 33.890625 
L 22.515625 41.609375 
Q 23.390625 41.5 23.921875 41.5 
Q 29.546875 41.5 34.03125 44.421875 
Q 38.53125 47.359375 38.53125 53.46875 
Q 38.53125 58.296875 35.25 61.46875 
Q 31.984375 64.65625 26.8125 64.65625 
Q 21.6875 64.65625 18.265625 61.421875 
Q 14.84375 58.203125 13.875 51.765625 
L 5.078125 53.328125 
Q 6.6875 62.15625 12.390625 67.015625 
Q 18.109375 71.875 26.609375 71.875 
Q 32.46875 71.875 37.390625 69.359375 
Q 42.328125 66.84375 44.9375 62.5 
Q 47.5625 58.15625 47.5625 53.265625 
Q 47.5625 48.640625 45.0625 44.828125 
Q 42.578125 41.015625 37.703125 38.765625 
Q 44.046875 37.3125 47.5625 32.6875 
Q 51.078125 28.078125 51.078125 21.140625 
Q 51.078125 11.765625 44.234375 5.25 
Q 37.40625 -1.265625 26.953125 -1.265625 
Q 17.53125 -1.265625 11.296875 4.34375 
Q 5.078125 9.96875 4.203125 18.890625 
" id="ArialMT-33"/>
    </defs>
    <g style="fill:#262626;" transform="translate(95.4666098984 316.846873172)scale(0.096 -0.096)">
     <use xlink:href="#ArialMT-33"/>
     <use x="55.615234375" xlink:href="#ArialMT-38"/>
    </g>
   </g>
   <g id="text_11">
    <!-- 151 -->
    <g style="fill:#262626;" transform="translate(149.958769946 320.843366334)scale(0.096 -0.096)">
     <use xlink:href="#ArialMT-31"/>
     <use x="55.615234375" xlink:href="#ArialMT-35"/>
     <use x="111.23046875" xlink:href="#ArialMT-31"/>
    </g>
   </g>
   <g id="text_12">
    <!-- 18 -->
    <g style="fill:#262626;" transform="translate(116.662657705 314.958818029)scale(0.096 -0.096)">
     <use xlink:href="#ArialMT-31"/>
     <use x="55.615234375" xlink:href="#ArialMT-38"/>
    </g>
   </g>
   <g id="text_13">
    <!-- inhibited -->
    <defs>
     <path d="M 40.234375 0 
L 40.234375 6.546875 
Q 35.296875 -1.171875 25.734375 -1.171875 
Q 19.53125 -1.171875 14.328125 2.25 
Q 9.125 5.671875 6.265625 11.796875 
Q 3.421875 17.921875 3.421875 25.875 
Q 3.421875 33.640625 6 39.96875 
Q 8.59375 46.296875 13.765625 49.65625 
Q 18.953125 53.03125 25.34375 53.03125 
Q 30.03125 53.03125 33.6875 51.046875 
Q 37.359375 49.078125 39.65625 45.90625 
L 39.65625 71.578125 
L 48.390625 71.578125 
L 48.390625 0 
z
M 12.453125 25.875 
Q 12.453125 15.921875 16.640625 10.984375 
Q 20.84375 6.0625 26.5625 6.0625 
Q 32.328125 6.0625 36.34375 10.765625 
Q 40.375 15.484375 40.375 25.140625 
Q 40.375 35.796875 36.265625 40.765625 
Q 32.171875 45.75 26.171875 45.75 
Q 20.3125 45.75 16.375 40.96875 
Q 12.453125 36.1875 12.453125 25.875 
" id="ArialMT-64"/>
    </defs>
    <g style="fill:#262626;" transform="translate(56.5519471683 291.967399591)scale(0.1152 -0.1152)">
     <use xlink:href="#ArialMT-69"/>
     <use x="22.216796875" xlink:href="#ArialMT-6e"/>
     <use x="77.83203125" xlink:href="#ArialMT-68"/>
     <use x="133.447265625" xlink:href="#ArialMT-69"/>
     <use x="155.6640625" xlink:href="#ArialMT-62"/>
     <use x="211.279296875" xlink:href="#ArialMT-69"/>
     <use x="233.49609375" xlink:href="#ArialMT-74"/>
     <use x="261.279296875" xlink:href="#ArialMT-65"/>
     <use x="316.89453125" xlink:href="#ArialMT-64"/>
    </g>
   </g>
   <g id="text_14">
    <!-- activated -->
    <g style="fill:#262626;" transform="translate(167.2197003 276.847711551)scale(0.1152 -0.1152)">
     <use xlink:href="#ArialMT-61"/>
     <use x="55.615234375" xlink:href="#ArialMT-63"/>
     <use x="105.615234375" xlink:href="#ArialMT-74"/>
     <use x="133.3984375" xlink:href="#ArialMT-69"/>
     <use x="155.615234375" xlink:href="#ArialMT-76"/>
     <use x="205.615234375" xlink:href="#ArialMT-61"/>
     <use x="261.23046875" xlink:href="#ArialMT-74"/>
     <use x="289.013671875" xlink:href="#ArialMT-65"/>
     <use x="344.62890625" xlink:href="#ArialMT-64"/>
    </g>
   </g>
   <g id="text_15">
    <!-- E. coli reactions -->
    <g style="fill:#262626;" transform="translate(106.9443 443.420945139)scale(0.1152 -0.1152)">
     <use xlink:href="#ArialMT-45"/>
     <use x="66.69921875" xlink:href="#ArialMT-2e"/>
     <use x="94.482421875" xlink:href="#ArialMT-20"/>
     <use x="122.265625" xlink:href="#ArialMT-63"/>
     <use x="172.265625" xlink:href="#ArialMT-6f"/>
     <use x="227.880859375" xlink:href="#ArialMT-6c"/>
     <use x="250.09765625" xlink:href="#ArialMT-69"/>
     <use x="272.314453125" xlink:href="#ArialMT-20"/>
     <use x="300.09765625" xlink:href="#ArialMT-72"/>
     <use x="333.3984375" xlink:href="#ArialMT-65"/>
     <use x="389.013671875" xlink:href="#ArialMT-61"/>
     <use x="444.62890625" xlink:href="#ArialMT-63"/>
     <use x="494.62890625" xlink:href="#ArialMT-74"/>
     <use x="522.412109375" xlink:href="#ArialMT-69"/>
     <use x="544.62890625" xlink:href="#ArialMT-6f"/>
     <use x="600.244140625" xlink:href="#ArialMT-6e"/>
     <use x="655.859375" xlink:href="#ArialMT-73"/>
    </g>
   </g>
  </g>
 </g>
 <defs>
  <clipPath id="pd81d3ec131">
   <rect height="177.545454545" width="177.545454545" x="58.8272727273" y="263.454545455"/>
  </clipPath>
  <clipPath id="p780c6f8802">
   <rect height="177.545454545" width="170.818320191" x="62.1908399045" y="50.4"/>
  </clipPath>
 </defs>
</svg>
