<?xml version="1.0" encoding="utf-8" standalone="no"?>
<!DOCTYPE svg PUBLIC "-//W3C//DTD SVG 1.1//EN"
  "http://www.w3.org/Graphics/SVG/1.1/DTD/svg11.dtd">
<!-- Created with matplotlib (http://matplotlib.org/) -->
<svg height="360pt" version="1.1" viewBox="0 0 504 360" width="504pt" xmlns="http://www.w3.org/2000/svg" xmlns:xlink="http://www.w3.org/1999/xlink">
 <defs>
  <style type="text/css">
*{stroke-linecap:butt;stroke-linejoin:round;stroke-miterlimit:100000;}
  </style>
 </defs>
 <g id="figure_1">
  <g id="patch_1">
   <path d="M 0 360 
L 504 360 
L 504 0 
L 0 0 
z
" style="fill:#ffffff;"/>
  </g>
  <g id="axes_1">
   <g id="patch_2">
    <path clip-path="url(#p75263194b8)" d="M 191.804833 116.096402 
C 194.03292 117.546201 196.114946 119.20897 198.021574 121.06128 
C 199.928203 122.913591 201.650438 124.946702 203.164012 127.131966 
C 204.746204 127.956914 206.240566 128.940363 207.624098 130.067176 
C 209.00763 131.19399 210.273197 132.458358 211.401323 133.84082 
C 208.688459 130.336334 205.671922 127.07782 202.386756 124.103136 
C 199.101591 121.128453 195.560569 118.449166 191.804833 116.096402 
M 189.141606 114.503388 
C 181.120499 109.926971 172.326521 106.862714 163.198331 105.463466 
C 154.070141 104.064218 144.762082 104.353639 135.738456 106.317292 
C 126.714831 108.280945 118.128214 111.885627 110.406921 116.951532 
C 102.685628 122.017436 95.960214 128.458906 90.566154 135.954629 
C 85.172094 143.450352 81.200594 151.873589 78.849758 160.804172 
C 76.498922 169.734755 75.808499 179.021684 76.81293 188.201709 
C 77.81736 197.381735 80.49966 206.299638 84.726032 214.510578 
C 88.952404 222.721517 94.651387 230.08666 101.538705 236.238619 
C 108.426022 242.390578 116.385222 247.225334 125.019285 250.501721 
C 133.653348 253.778107 142.816285 255.440726 152.051034 255.406643 
C 161.285783 255.37256 170.436199 253.642351 179.045842 250.302322 
C 187.655485 246.962293 195.578781 242.068919 202.420501 235.86629 
C 209.262221 229.66366 214.906683 222.256652 219.072332 214.014739 
C 223.237981 205.772827 225.854381 196.835368 226.791023 187.648178 
C 227.727664 178.460989 226.96871 169.179409 224.552018 160.266422 
C 222.135326 151.353434 218.101758 142.959742 212.652517 135.504039 
C 214.780677 138.578532 216.230599 142.070896 216.905758 145.748631 
C 217.580917 149.426366 217.465988 153.206006 216.568624 156.835925 
C 215.67126 160.465844 214.011826 163.863661 211.700797 166.803171 
C 209.389768 169.74268 206.479592 172.157171 203.164012 173.885899 
C 198.644959 180.410407 192.329503 185.486657 184.985923 188.497119 
C 177.642343 191.507581 169.58101 192.32502 161.78259 190.849995 
C 153.984171 189.37497 146.778259 185.66982 141.041458 180.185281 
C 135.304658 174.700742 131.279431 167.668612 129.455448 159.944356 
C 127.631466 152.2201 128.085818 144.130176 130.763231 136.65873 
C 133.440644 129.187284 138.22796 122.65009 144.542799 117.842402 
C 150.857638 113.034715 158.433108 110.159727 166.347648 109.567183 
C 174.262187 108.974639 182.181295 110.689582 189.141606 114.503388 
" style="fill:#0000ff;opacity:0.4;"/>
   </g>
   <g id="patch_3">
    <path clip-path="url(#p75263194b8)" d="M 203.164012 127.131966 
C 201.650438 124.946702 199.928203 122.913591 198.021574 121.06128 
C 196.114946 119.20897 194.03292 117.546201 191.804833 116.096402 
C 191.366484 115.821801 190.925322 115.551717 190.481415 115.286193 
C 190.037509 115.02067 189.590882 114.759721 189.141606 114.503388 
C 182.181295 110.689582 174.262187 108.974639 166.347648 109.567183 
C 158.433108 110.159727 150.857638 113.034715 144.542799 117.842402 
C 138.22796 122.65009 133.440644 129.187284 130.763231 136.65873 
C 128.085818 144.130176 127.631466 152.2201 129.455448 159.944356 
C 131.279431 167.668612 135.304658 174.700742 141.041458 180.185281 
C 146.778259 185.66982 153.984171 189.37497 161.78259 190.849995 
C 169.58101 192.32502 177.642343 191.507581 184.985923 188.497119 
C 192.329503 185.486657 198.644959 180.410407 203.164012 173.885899 
C 199.145926 175.980911 194.654749 177.005005 190.125648 176.858953 
C 185.596546 176.712901 181.180681 175.401578 177.30592 173.052042 
C 173.431158 170.702506 170.226824 167.393175 168.003395 163.4447 
C 165.779966 159.496224 164.61165 155.040389 164.61165 150.508933 
C 164.61165 145.977477 165.779966 141.521641 168.003395 137.573166 
C 170.226824 133.62469 173.431158 130.315359 177.30592 127.965823 
C 181.180681 125.616287 185.596546 124.304964 190.125648 124.158912 
C 194.654749 124.01286 199.145926 125.036954 203.164012 127.131966 
" style="fill:#b200b2;opacity:0.4;"/>
   </g>
   <g id="patch_4">
    <path clip-path="url(#p75263194b8)" d="M 203.164012 173.885899 
C 206.479592 172.157171 209.389768 169.74268 211.700797 166.803171 
C 214.011826 163.863661 215.67126 160.465844 216.568624 156.835925 
C 217.465988 153.206006 217.580917 149.426366 216.905758 145.748631 
C 216.230599 142.070896 214.780677 138.578532 212.652517 135.504039 
C 212.447822 135.223974 212.241198 134.945326 212.032658 134.668113 
C 211.824118 134.3909 211.613668 134.115129 211.401323 133.84082 
C 210.273197 132.458358 209.00763 131.19399 207.624098 130.067176 
C 206.240566 128.940363 204.746204 127.956914 203.164012 127.131966 
C 207.920077 133.998667 210.469198 142.155985 210.469198 150.508933 
C 210.469198 158.86188 207.920077 167.019198 203.164012 173.885899 
" style="fill:#0059b2;opacity:0.4;"/>
   </g>
   <g id="patch_5">
    <path clip-path="url(#p75263194b8)" d="M 203.164012 173.885899 
C 207.920077 167.019198 210.469198 158.86188 210.469198 150.508933 
C 210.469198 142.155985 207.920077 133.998667 203.164012 127.131966 
C 199.145926 125.036954 194.654749 124.01286 190.125648 124.158912 
C 185.596546 124.304964 181.180681 125.616287 177.30592 127.965823 
C 173.431158 130.315359 170.226824 133.62469 168.003395 137.573166 
C 165.779966 141.521641 164.61165 145.977477 164.61165 150.508933 
C 164.61165 155.040389 165.779966 159.496224 168.003395 163.4447 
C 170.226824 167.393175 173.431158 170.702506 177.30592 173.052042 
C 181.180681 175.401578 185.596546 176.712901 190.125648 176.858953 
C 194.654749 177.005005 199.145926 175.980911 203.164012 173.885899 
" style="fill:#663366;opacity:0.4;"/>
   </g>
   <g id="text_1">
    <!-- 717 -->
    <defs>
     <path d="M 37.25 0 
L 28.46875 0 
L 28.46875 56 
Q 25.296875 52.984375 20.140625 49.953125 
Q 14.984375 46.921875 10.890625 45.40625 
L 10.890625 53.90625 
Q 18.265625 57.375 23.78125 62.296875 
Q 29.296875 67.234375 31.59375 71.875 
L 37.25 71.875 
z
" id="ArialMT-31"/>
     <path d="M 4.734375 62.203125 
L 4.734375 70.65625 
L 51.078125 70.65625 
L 51.078125 63.8125 
Q 44.234375 56.546875 37.515625 44.484375 
Q 30.8125 32.421875 27.15625 19.671875 
Q 24.515625 10.6875 23.78125 0 
L 14.75 0 
Q 14.890625 8.453125 18.0625 20.40625 
Q 21.234375 32.375 27.171875 43.484375 
Q 33.109375 54.59375 39.796875 62.203125 
z
" id="ArialMT-37"/>
    </defs>
    <g style="fill:#262626;" transform="translate(120.137842675 198.755544429)scale(0.096 -0.096)">
     <use xlink:href="#ArialMT-37"/>
     <use x="55.615234375" xlink:href="#ArialMT-31"/>
     <use x="111.23046875" xlink:href="#ArialMT-37"/>
    </g>
   </g>
   <g id="text_2">
    <!-- 195 -->
    <defs>
     <path d="M 5.46875 16.546875 
L 13.921875 17.328125 
Q 14.984375 11.375 18.015625 8.6875 
Q 21.046875 6 25.78125 6 
Q 29.828125 6 32.875 7.859375 
Q 35.9375 9.71875 37.890625 12.8125 
Q 39.84375 15.921875 41.15625 21.1875 
Q 42.484375 26.46875 42.484375 31.9375 
Q 42.484375 32.515625 42.4375 33.6875 
Q 39.796875 29.5 35.234375 26.875 
Q 30.671875 24.265625 25.34375 24.265625 
Q 16.453125 24.265625 10.296875 30.703125 
Q 4.15625 37.15625 4.15625 47.703125 
Q 4.15625 58.59375 10.578125 65.234375 
Q 17 71.875 26.65625 71.875 
Q 33.640625 71.875 39.421875 68.109375 
Q 45.21875 64.359375 48.21875 57.390625 
Q 51.21875 50.4375 51.21875 37.25 
Q 51.21875 23.53125 48.234375 15.40625 
Q 45.265625 7.28125 39.375 3.03125 
Q 33.5 -1.21875 25.59375 -1.21875 
Q 17.1875 -1.21875 11.859375 3.4375 
Q 6.546875 8.109375 5.46875 16.546875 
M 41.453125 48.140625 
Q 41.453125 55.71875 37.421875 60.15625 
Q 33.40625 64.59375 27.734375 64.59375 
Q 21.875 64.59375 17.53125 59.8125 
Q 13.1875 55.03125 13.1875 47.40625 
Q 13.1875 40.578125 17.3125 36.296875 
Q 21.4375 32.03125 27.484375 32.03125 
Q 33.59375 32.03125 37.515625 36.296875 
Q 41.453125 40.578125 41.453125 48.140625 
" id="ArialMT-39"/>
     <path d="M 4.15625 18.75 
L 13.375 19.53125 
Q 14.40625 12.796875 18.140625 9.390625 
Q 21.875 6 27.15625 6 
Q 33.5 6 37.890625 10.78125 
Q 42.28125 15.578125 42.28125 23.484375 
Q 42.28125 31 38.0625 35.34375 
Q 33.84375 39.703125 27 39.703125 
Q 22.75 39.703125 19.328125 37.765625 
Q 15.921875 35.84375 13.96875 32.765625 
L 5.71875 33.84375 
L 12.640625 70.609375 
L 48.25 70.609375 
L 48.25 62.203125 
L 19.671875 62.203125 
L 15.828125 42.96875 
Q 22.265625 47.46875 29.34375 47.46875 
Q 38.71875 47.46875 45.15625 40.96875 
Q 51.609375 34.46875 51.609375 24.265625 
Q 51.609375 14.546875 45.953125 7.46875 
Q 39.0625 -1.21875 27.15625 -1.21875 
Q 17.390625 -1.21875 11.203125 4.25 
Q 5.03125 9.71875 4.15625 18.75 
" id="ArialMT-35"/>
    </defs>
    <g style="fill:#262626;" transform="translate(140.415554658 156.338247146)scale(0.096 -0.096)">
     <use xlink:href="#ArialMT-31"/>
     <use x="55.615234375" xlink:href="#ArialMT-39"/>
     <use x="111.23046875" xlink:href="#ArialMT-35"/>
    </g>
   </g>
   <g id="text_3">
    <!-- 14 -->
    <defs>
     <path d="M 32.328125 0 
L 32.328125 17.140625 
L 1.265625 17.140625 
L 1.265625 25.203125 
L 33.9375 71.578125 
L 41.109375 71.578125 
L 41.109375 25.203125 
L 50.78125 25.203125 
L 50.78125 17.140625 
L 41.109375 17.140625 
L 41.109375 0 
z
M 32.328125 25.203125 
L 32.328125 57.46875 
L 9.90625 25.203125 
z
" id="ArialMT-34"/>
    </defs>
    <g style="fill:#262626;" transform="translate(207.894124718 153.588508418)scale(0.096 -0.096)">
     <use xlink:href="#ArialMT-31"/>
     <use x="55.615234375" xlink:href="#ArialMT-34"/>
    </g>
   </g>
   <g id="text_4">
    <!-- 113 -->
    <defs>
     <path d="M 4.203125 18.890625 
L 12.984375 20.0625 
Q 14.5 12.59375 18.140625 9.296875 
Q 21.78125 6 27 6 
Q 33.203125 6 37.46875 10.296875 
Q 41.75 14.59375 41.75 20.953125 
Q 41.75 27 37.796875 30.921875 
Q 33.84375 34.859375 27.734375 34.859375 
Q 25.25 34.859375 21.53125 33.890625 
L 22.515625 41.609375 
Q 23.390625 41.5 23.921875 41.5 
Q 29.546875 41.5 34.03125 44.421875 
Q 38.53125 47.359375 38.53125 53.46875 
Q 38.53125 58.296875 35.25 61.46875 
Q 31.984375 64.65625 26.8125 64.65625 
Q 21.6875 64.65625 18.265625 61.421875 
Q 14.84375 58.203125 13.875 51.765625 
L 5.078125 53.328125 
Q 6.6875 62.15625 12.390625 67.015625 
Q 18.109375 71.875 26.609375 71.875 
Q 32.46875 71.875 37.390625 69.359375 
Q 42.328125 66.84375 44.9375 62.5 
Q 47.5625 58.15625 47.5625 53.265625 
Q 47.5625 48.640625 45.0625 44.828125 
Q 42.578125 41.015625 37.703125 38.765625 
Q 44.046875 37.3125 47.5625 32.6875 
Q 51.078125 28.078125 51.078125 21.140625 
Q 51.078125 11.765625 44.234375 5.25 
Q 37.40625 -1.265625 26.953125 -1.265625 
Q 17.53125 -1.265625 11.296875 4.34375 
Q 5.078125 9.96875 4.203125 18.890625 
" id="ArialMT-33"/>
    </defs>
    <g style="fill:#262626;" transform="translate(179.537924206 152.990682581)scale(0.096 -0.096)">
     <use xlink:href="#ArialMT-31"/>
     <use x="55.505859375" xlink:href="#ArialMT-31"/>
     <use x="111.12109375" xlink:href="#ArialMT-33"/>
    </g>
   </g>
   <g id="text_5">
    <!-- inhibitors -->
    <defs>
     <path d="M 14.703125 0 
L 6.546875 0 
L 6.546875 71.578125 
L 15.328125 71.578125 
L 15.328125 46.046875 
Q 20.90625 53.03125 29.546875 53.03125 
Q 34.328125 53.03125 38.59375 51.09375 
Q 42.875 49.171875 45.625 45.671875 
Q 48.390625 42.1875 49.953125 37.25 
Q 51.515625 32.328125 51.515625 26.703125 
Q 51.515625 13.375 44.921875 6.09375 
Q 38.328125 -1.171875 29.109375 -1.171875 
Q 19.921875 -1.171875 14.703125 6.5 
z
M 14.59375 26.3125 
Q 14.59375 17 17.140625 12.84375 
Q 21.296875 6.0625 28.375 6.0625 
Q 34.125 6.0625 38.328125 11.0625 
Q 42.53125 16.0625 42.53125 25.984375 
Q 42.53125 36.140625 38.5 40.96875 
Q 34.46875 45.796875 28.765625 45.796875 
Q 23 45.796875 18.796875 40.796875 
Q 14.59375 35.796875 14.59375 26.3125 
" id="ArialMT-62"/>
     <path d="M 25.78125 7.859375 
L 27.046875 0.09375 
Q 23.34375 -0.6875 20.40625 -0.6875 
Q 15.625 -0.6875 12.984375 0.828125 
Q 10.359375 2.34375 9.28125 4.8125 
Q 8.203125 7.28125 8.203125 15.1875 
L 8.203125 45.015625 
L 1.765625 45.015625 
L 1.765625 51.859375 
L 8.203125 51.859375 
L 8.203125 64.703125 
L 16.9375 69.96875 
L 16.9375 51.859375 
L 25.78125 51.859375 
L 25.78125 45.015625 
L 16.9375 45.015625 
L 16.9375 14.703125 
Q 16.9375 10.9375 17.40625 9.859375 
Q 17.875 8.796875 18.921875 8.15625 
Q 19.96875 7.515625 21.921875 7.515625 
Q 23.390625 7.515625 25.78125 7.859375 
" id="ArialMT-74"/>
     <path d="M 6.640625 61.46875 
L 6.640625 71.578125 
L 15.4375 71.578125 
L 15.4375 61.46875 
z
M 6.640625 0 
L 6.640625 51.859375 
L 15.4375 51.859375 
L 15.4375 0 
z
" id="ArialMT-69"/>
     <path d="M 6.59375 0 
L 6.59375 71.578125 
L 15.375 71.578125 
L 15.375 45.90625 
Q 21.53125 53.03125 30.90625 53.03125 
Q 36.671875 53.03125 40.921875 50.75 
Q 45.171875 48.484375 47 44.484375 
Q 48.828125 40.484375 48.828125 32.859375 
L 48.828125 0 
L 40.046875 0 
L 40.046875 32.859375 
Q 40.046875 39.453125 37.1875 42.453125 
Q 34.328125 45.453125 29.109375 45.453125 
Q 25.203125 45.453125 21.75 43.421875 
Q 18.3125 41.40625 16.84375 37.9375 
Q 15.375 34.46875 15.375 28.375 
L 15.375 0 
z
" id="ArialMT-68"/>
     <path d="M 6.5 0 
L 6.5 51.859375 
L 14.40625 51.859375 
L 14.40625 44 
Q 17.4375 49.515625 20 51.265625 
Q 22.5625 53.03125 25.640625 53.03125 
Q 30.078125 53.03125 34.671875 50.203125 
L 31.640625 42.046875 
Q 28.421875 43.953125 25.203125 43.953125 
Q 22.3125 43.953125 20.015625 42.21875 
Q 17.71875 40.484375 16.75 37.40625 
Q 15.28125 32.71875 15.28125 27.15625 
L 15.28125 0 
z
" id="ArialMT-72"/>
     <path d="M 3.078125 15.484375 
L 11.765625 16.84375 
Q 12.5 11.625 15.84375 8.84375 
Q 19.1875 6.0625 25.203125 6.0625 
Q 31.25 6.0625 34.171875 8.515625 
Q 37.109375 10.984375 37.109375 14.3125 
Q 37.109375 17.28125 34.515625 19 
Q 32.71875 20.171875 25.53125 21.96875 
Q 15.875 24.421875 12.140625 26.203125 
Q 8.40625 27.984375 6.46875 31.125 
Q 4.546875 34.28125 4.546875 38.09375 
Q 4.546875 41.546875 6.125 44.5 
Q 7.71875 47.46875 10.453125 49.421875 
Q 12.5 50.921875 16.03125 51.96875 
Q 19.578125 53.03125 23.640625 53.03125 
Q 29.734375 53.03125 34.34375 51.265625 
Q 38.96875 49.515625 41.15625 46.5 
Q 43.359375 43.5 44.1875 38.484375 
L 35.59375 37.3125 
Q 35.015625 41.3125 32.203125 43.546875 
Q 29.390625 45.796875 24.265625 45.796875 
Q 18.21875 45.796875 15.625 43.796875 
Q 13.03125 41.796875 13.03125 39.109375 
Q 13.03125 37.40625 14.109375 36.03125 
Q 15.1875 34.625 17.484375 33.6875 
Q 18.796875 33.203125 25.25 31.453125 
Q 34.578125 28.953125 38.25 27.359375 
Q 41.9375 25.78125 44.03125 22.75 
Q 46.140625 19.734375 46.140625 15.234375 
Q 46.140625 10.84375 43.578125 6.953125 
Q 41.015625 3.078125 36.171875 0.953125 
Q 31.34375 -1.171875 25.25 -1.171875 
Q 15.140625 -1.171875 9.84375 3.03125 
Q 4.546875 7.234375 3.078125 15.484375 
" id="ArialMT-73"/>
     <path d="M 3.328125 25.921875 
Q 3.328125 40.328125 11.328125 47.265625 
Q 18.015625 53.03125 27.640625 53.03125 
Q 38.328125 53.03125 45.109375 46.015625 
Q 51.90625 39.015625 51.90625 26.65625 
Q 51.90625 16.65625 48.90625 10.90625 
Q 45.90625 5.171875 40.15625 2 
Q 34.421875 -1.171875 27.640625 -1.171875 
Q 16.75 -1.171875 10.03125 5.8125 
Q 3.328125 12.796875 3.328125 25.921875 
M 12.359375 25.921875 
Q 12.359375 15.96875 16.703125 11.015625 
Q 21.046875 6.0625 27.640625 6.0625 
Q 34.1875 6.0625 38.53125 11.03125 
Q 42.875 16.015625 42.875 26.21875 
Q 42.875 35.84375 38.5 40.796875 
Q 34.125 45.75 27.640625 45.75 
Q 21.046875 45.75 16.703125 40.8125 
Q 12.359375 35.890625 12.359375 25.921875 
" id="ArialMT-6f"/>
     <path d="M 6.59375 0 
L 6.59375 51.859375 
L 14.5 51.859375 
L 14.5 44.484375 
Q 20.21875 53.03125 31 53.03125 
Q 35.6875 53.03125 39.625 51.34375 
Q 43.5625 49.65625 45.515625 46.921875 
Q 47.46875 44.1875 48.25 40.4375 
Q 48.734375 37.984375 48.734375 31.890625 
L 48.734375 0 
L 39.9375 0 
L 39.9375 31.546875 
Q 39.9375 36.921875 38.90625 39.578125 
Q 37.890625 42.234375 35.28125 43.8125 
Q 32.671875 45.40625 29.15625 45.40625 
Q 23.53125 45.40625 19.453125 41.84375 
Q 15.375 38.28125 15.375 28.328125 
L 15.375 0 
z
" id="ArialMT-6e"/>
    </defs>
    <g style="fill:#262626;" transform="translate(102.784899821 109.452600233)scale(0.1152 -0.1152)">
     <use xlink:href="#ArialMT-69"/>
     <use x="22.216796875" xlink:href="#ArialMT-6e"/>
     <use x="77.83203125" xlink:href="#ArialMT-68"/>
     <use x="133.447265625" xlink:href="#ArialMT-69"/>
     <use x="155.6640625" xlink:href="#ArialMT-62"/>
     <use x="211.279296875" xlink:href="#ArialMT-69"/>
     <use x="233.49609375" xlink:href="#ArialMT-74"/>
     <use x="261.279296875" xlink:href="#ArialMT-6f"/>
     <use x="316.89453125" xlink:href="#ArialMT-72"/>
     <use x="350.1953125" xlink:href="#ArialMT-73"/>
    </g>
   </g>
   <g id="text_6">
    <!-- activators -->
    <defs>
     <path d="M 40.4375 19 
L 49.078125 17.875 
Q 47.65625 8.9375 41.8125 3.875 
Q 35.984375 -1.171875 27.484375 -1.171875 
Q 16.84375 -1.171875 10.375 5.78125 
Q 3.90625 12.75 3.90625 25.734375 
Q 3.90625 34.125 6.6875 40.421875 
Q 9.46875 46.734375 15.15625 49.875 
Q 20.84375 53.03125 27.546875 53.03125 
Q 35.984375 53.03125 41.359375 48.75 
Q 46.734375 44.484375 48.25 36.625 
L 39.703125 35.296875 
Q 38.484375 40.53125 35.375 43.15625 
Q 32.28125 45.796875 27.875 45.796875 
Q 21.234375 45.796875 17.078125 41.03125 
Q 12.9375 36.28125 12.9375 25.984375 
Q 12.9375 15.53125 16.9375 10.796875 
Q 20.953125 6.0625 27.390625 6.0625 
Q 32.5625 6.0625 36.03125 9.234375 
Q 39.5 12.40625 40.4375 19 
" id="ArialMT-63"/>
     <path d="M 40.4375 6.390625 
Q 35.546875 2.25 31.03125 0.53125 
Q 26.515625 -1.171875 21.34375 -1.171875 
Q 12.796875 -1.171875 8.203125 3 
Q 3.609375 7.171875 3.609375 13.671875 
Q 3.609375 17.484375 5.34375 20.625 
Q 7.078125 23.78125 9.890625 25.6875 
Q 12.703125 27.59375 16.21875 28.5625 
Q 18.796875 29.25 24.03125 29.890625 
Q 34.671875 31.15625 39.703125 32.90625 
Q 39.75 34.71875 39.75 35.203125 
Q 39.75 40.578125 37.25 42.78125 
Q 33.890625 45.75 27.25 45.75 
Q 21.046875 45.75 18.09375 43.578125 
Q 15.140625 41.40625 13.71875 35.890625 
L 5.125 37.0625 
Q 6.296875 42.578125 8.984375 45.96875 
Q 11.671875 49.359375 16.75 51.1875 
Q 21.828125 53.03125 28.515625 53.03125 
Q 35.15625 53.03125 39.296875 51.46875 
Q 43.453125 49.90625 45.40625 47.53125 
Q 47.359375 45.171875 48.140625 41.546875 
Q 48.578125 39.3125 48.578125 33.453125 
L 48.578125 21.734375 
Q 48.578125 9.46875 49.140625 6.21875 
Q 49.703125 2.984375 51.375 0 
L 42.1875 0 
Q 40.828125 2.734375 40.4375 6.390625 
M 39.703125 26.03125 
Q 34.90625 24.078125 25.34375 22.703125 
Q 19.921875 21.921875 17.671875 20.9375 
Q 15.4375 19.96875 14.203125 18.09375 
Q 12.984375 16.21875 12.984375 13.921875 
Q 12.984375 10.40625 15.640625 8.0625 
Q 18.3125 5.71875 23.4375 5.71875 
Q 28.515625 5.71875 32.46875 7.9375 
Q 36.421875 10.15625 38.28125 14.015625 
Q 39.703125 17 39.703125 22.796875 
z
" id="ArialMT-61"/>
     <path d="M 21 0 
L 1.265625 51.859375 
L 10.546875 51.859375 
L 21.6875 20.796875 
Q 23.484375 15.765625 25 10.359375 
Q 26.171875 14.453125 28.265625 20.21875 
L 39.796875 51.859375 
L 48.828125 51.859375 
L 29.203125 0 
z
" id="ArialMT-76"/>
    </defs>
    <g style="fill:#262626;" transform="translate(204.157226611 124.145214887)scale(0.1152 -0.1152)">
     <use xlink:href="#ArialMT-61"/>
     <use x="55.615234375" xlink:href="#ArialMT-63"/>
     <use x="105.615234375" xlink:href="#ArialMT-74"/>
     <use x="133.3984375" xlink:href="#ArialMT-69"/>
     <use x="155.615234375" xlink:href="#ArialMT-76"/>
     <use x="205.615234375" xlink:href="#ArialMT-61"/>
     <use x="261.23046875" xlink:href="#ArialMT-74"/>
     <use x="289.013671875" xlink:href="#ArialMT-6f"/>
     <use x="344.62890625" xlink:href="#ArialMT-72"/>
     <use x="377.9296875" xlink:href="#ArialMT-73"/>
    </g>
   </g>
   <g id="text_7">
    <!-- E. coli metabolites (1039 total) -->
    <defs>
     <path d="M 42.09375 16.703125 
L 51.171875 15.578125 
Q 49.03125 7.625 43.21875 3.21875 
Q 37.40625 -1.171875 28.375 -1.171875 
Q 17 -1.171875 10.328125 5.828125 
Q 3.65625 12.84375 3.65625 25.484375 
Q 3.65625 38.578125 10.390625 45.796875 
Q 17.140625 53.03125 27.875 53.03125 
Q 38.28125 53.03125 44.875 45.953125 
Q 51.46875 38.875 51.46875 26.03125 
Q 51.46875 25.25 51.421875 23.6875 
L 12.75 23.6875 
Q 13.234375 15.140625 17.578125 10.59375 
Q 21.921875 6.0625 28.421875 6.0625 
Q 33.25 6.0625 36.671875 8.59375 
Q 40.09375 11.140625 42.09375 16.703125 
M 13.234375 30.90625 
L 42.1875 30.90625 
Q 41.609375 37.453125 38.875 40.71875 
Q 34.671875 45.796875 27.984375 45.796875 
Q 21.921875 45.796875 17.796875 41.75 
Q 13.671875 37.703125 13.234375 30.90625 
" id="ArialMT-65"/>
     <path d="M 9.078125 0 
L 9.078125 10.015625 
L 19.09375 10.015625 
L 19.09375 0 
z
" id="ArialMT-2e"/>
     <path d="M 23.390625 -21.046875 
Q 16.109375 -11.859375 11.078125 0.4375 
Q 6.0625 12.75 6.0625 25.921875 
Q 6.0625 37.546875 9.8125 48.1875 
Q 14.203125 60.546875 23.390625 72.796875 
L 29.6875 72.796875 
Q 23.78125 62.640625 21.875 58.296875 
Q 18.890625 51.5625 17.1875 44.234375 
Q 15.09375 35.109375 15.09375 25.875 
Q 15.09375 2.390625 29.6875 -21.046875 
z
" id="ArialMT-28"/>
     <path d="M 7.90625 0 
L 7.90625 71.578125 
L 59.671875 71.578125 
L 59.671875 63.140625 
L 17.390625 63.140625 
L 17.390625 41.21875 
L 56.984375 41.21875 
L 56.984375 32.8125 
L 17.390625 32.8125 
L 17.390625 8.453125 
L 61.328125 8.453125 
L 61.328125 0 
z
" id="ArialMT-45"/>
     <path d="M 6.390625 0 
L 6.390625 71.578125 
L 15.1875 71.578125 
L 15.1875 0 
z
" id="ArialMT-6c"/>
     <path d="M 12.359375 -21.046875 
L 6.0625 -21.046875 
Q 20.65625 2.390625 20.65625 25.875 
Q 20.65625 35.0625 18.5625 44.09375 
Q 16.890625 51.421875 13.921875 58.15625 
Q 12.015625 62.546875 6.0625 72.796875 
L 12.359375 72.796875 
Q 21.53125 60.546875 25.921875 48.1875 
Q 29.6875 37.546875 29.6875 25.921875 
Q 29.6875 12.75 24.625 0.4375 
Q 19.578125 -11.859375 12.359375 -21.046875 
" id="ArialMT-29"/>
     <path d="M 6.59375 0 
L 6.59375 51.859375 
L 14.453125 51.859375 
L 14.453125 44.578125 
Q 16.890625 48.390625 20.9375 50.703125 
Q 25 53.03125 30.171875 53.03125 
Q 35.9375 53.03125 39.625 50.640625 
Q 43.3125 48.25 44.828125 43.953125 
Q 50.984375 53.03125 60.84375 53.03125 
Q 68.5625 53.03125 72.703125 48.75 
Q 76.859375 44.484375 76.859375 35.59375 
L 76.859375 0 
L 68.109375 0 
L 68.109375 32.671875 
Q 68.109375 37.9375 67.25 40.25 
Q 66.40625 42.578125 64.15625 43.984375 
Q 61.921875 45.40625 58.890625 45.40625 
Q 53.421875 45.40625 49.796875 41.765625 
Q 46.1875 38.140625 46.1875 30.125 
L 46.1875 0 
L 37.40625 0 
L 37.40625 33.6875 
Q 37.40625 39.546875 35.25 42.46875 
Q 33.109375 45.40625 28.21875 45.40625 
Q 24.515625 45.40625 21.359375 43.453125 
Q 18.21875 41.5 16.796875 37.734375 
Q 15.375 33.984375 15.375 26.90625 
L 15.375 0 
z
" id="ArialMT-6d"/>
     <path d="M 4.15625 35.296875 
Q 4.15625 48 6.765625 55.734375 
Q 9.375 63.484375 14.515625 67.671875 
Q 19.671875 71.875 27.484375 71.875 
Q 33.25 71.875 37.59375 69.546875 
Q 41.9375 67.234375 44.765625 62.859375 
Q 47.609375 58.5 49.21875 52.21875 
Q 50.828125 45.953125 50.828125 35.296875 
Q 50.828125 22.703125 48.234375 14.96875 
Q 45.65625 7.234375 40.5 3 
Q 35.359375 -1.21875 27.484375 -1.21875 
Q 17.140625 -1.21875 11.234375 6.203125 
Q 4.15625 15.140625 4.15625 35.296875 
M 13.1875 35.296875 
Q 13.1875 17.671875 17.3125 11.828125 
Q 21.4375 6 27.484375 6 
Q 33.546875 6 37.671875 11.859375 
Q 41.796875 17.71875 41.796875 35.296875 
Q 41.796875 52.984375 37.671875 58.78125 
Q 33.546875 64.59375 27.390625 64.59375 
Q 21.34375 64.59375 17.71875 59.46875 
Q 13.1875 52.9375 13.1875 35.296875 
" id="ArialMT-30"/>
     <path id="ArialMT-20"/>
    </defs>
    <g style="fill:#262626;" transform="translate(74.2989272727 271.334072412)scale(0.1152 -0.1152)">
     <use xlink:href="#ArialMT-45"/>
     <use x="66.69921875" xlink:href="#ArialMT-2e"/>
     <use x="94.482421875" xlink:href="#ArialMT-20"/>
     <use x="122.265625" xlink:href="#ArialMT-63"/>
     <use x="172.265625" xlink:href="#ArialMT-6f"/>
     <use x="227.880859375" xlink:href="#ArialMT-6c"/>
     <use x="250.09765625" xlink:href="#ArialMT-69"/>
     <use x="272.314453125" xlink:href="#ArialMT-20"/>
     <use x="300.09765625" xlink:href="#ArialMT-6d"/>
     <use x="383.3984375" xlink:href="#ArialMT-65"/>
     <use x="439.013671875" xlink:href="#ArialMT-74"/>
     <use x="466.796875" xlink:href="#ArialMT-61"/>
     <use x="522.412109375" xlink:href="#ArialMT-62"/>
     <use x="578.02734375" xlink:href="#ArialMT-6f"/>
     <use x="633.642578125" xlink:href="#ArialMT-6c"/>
     <use x="655.859375" xlink:href="#ArialMT-69"/>
     <use x="678.076171875" xlink:href="#ArialMT-74"/>
     <use x="705.859375" xlink:href="#ArialMT-65"/>
     <use x="761.474609375" xlink:href="#ArialMT-73"/>
     <use x="811.474609375" xlink:href="#ArialMT-20"/>
     <use x="839.2578125" xlink:href="#ArialMT-28"/>
     <use x="872.55859375" xlink:href="#ArialMT-31"/>
     <use x="928.173828125" xlink:href="#ArialMT-30"/>
     <use x="983.7890625" xlink:href="#ArialMT-33"/>
     <use x="1039.40429688" xlink:href="#ArialMT-39"/>
     <use x="1095.01953125" xlink:href="#ArialMT-20"/>
     <use x="1122.80273438" xlink:href="#ArialMT-74"/>
     <use x="1150.5859375" xlink:href="#ArialMT-6f"/>
     <use x="1206.20117188" xlink:href="#ArialMT-74"/>
     <use x="1233.984375" xlink:href="#ArialMT-61"/>
     <use x="1289.59960938" xlink:href="#ArialMT-6c"/>
     <use x="1311.81640625" xlink:href="#ArialMT-29"/>
    </g>
   </g>
   <g id="text_8">
    <!-- a -->
    <g style="fill:#262626;" transform="translate(66.5509090909 109.093806818)scale(0.2 -0.2)">
     <use xlink:href="#ArialMT-61"/>
    </g>
   </g>
  </g>
  <g id="axes_2">
   <g id="patch_6">
    <path clip-path="url(#pc3094d89a0)" d="M 389.749653 108.830384 
C 395.294179 110.845157 400.474138 113.74869 405.086194 117.427008 
C 409.698249 121.105325 413.681253 125.509659 416.878856 130.46712 
C 419.758105 131.883914 422.414316 133.71492 424.762765 135.901736 
C 427.111214 138.088553 429.126664 140.607679 430.744831 143.378765 
C 426.296266 135.37143 420.425667 128.241281 413.421216 122.338332 
C 406.416764 116.435382 398.394983 111.85783 389.749653 108.830384 
M 385.397404 107.452712 
C 377.121069 105.106032 368.503864 104.192833 359.919509 104.75272 
C 351.335154 105.312607 342.909568 107.337368 335.008161 110.73919 
C 327.106754 114.141012 319.845427 118.869996 313.539097 124.72105 
C 307.232768 130.572104 301.97394 137.459403 297.990683 145.08425 
C 294.007427 152.709097 291.358171 160.959649 290.15781 169.478085 
C 288.95745 177.996522 289.223593 186.657892 290.944697 195.086559 
C 292.665801 203.515226 295.816619 211.587555 300.260505 218.953457 
C 304.704391 226.319358 310.376158 232.870786 317.029828 238.323611 
C 323.683499 243.776436 331.221473 248.050673 339.316835 250.960953 
C 347.412198 253.871233 355.946203 255.374867 364.548739 255.406642 
C 373.151274 255.438418 381.696155 253.99787 389.812796 251.147473 
C 397.929437 248.297076 405.498781 244.078642 412.192552 238.675119 
C 418.886323 233.271597 424.606334 226.762247 429.104513 219.429375 
C 433.602693 212.096503 436.813059 204.047671 438.596382 195.631948 
C 440.379705 187.216226 440.709826 178.557059 439.572427 170.029987 
C 438.435029 161.502915 435.846795 153.233018 431.919976 145.578953 
C 435.717353 153.38834 436.267943 162.393281 433.450278 170.607133 
C 430.632613 178.820986 424.670347 185.591768 416.878856 189.425731 
C 411.435344 197.865177 403.759161 204.634212 394.705008 208.979139 
C 385.650855 213.324066 375.567729 215.077407 365.578334 214.043937 
C 355.588939 213.010468 346.07832 209.230023 338.105436 203.123536 
C 330.132551 197.017049 324.004719 188.819897 320.404242 179.444789 
C 316.803765 170.069682 315.869424 159.877987 317.705254 150.004498 
C 319.541085 140.131008 324.076322 130.956301 330.805993 123.501933 
C 337.535664 116.047564 346.200369 110.600867 355.835339 107.768301 
C 365.470309 104.935735 375.704159 104.826484 385.397404 107.452712 
" style="fill:#0000ff;opacity:0.4;"/>
   </g>
   <g id="patch_7">
    <path clip-path="url(#pc3094d89a0)" d="M 416.878856 130.46712 
C 413.681253 125.509659 409.698249 121.105325 405.086194 117.427008 
C 400.474138 113.74869 395.294179 110.845157 389.749653 108.830384 
C 389.031438 108.578877 388.309456 108.338257 387.583957 108.108605 
C 386.858457 107.878954 386.129523 107.660298 385.397404 107.452712 
C 375.704159 104.826484 365.470309 104.935735 355.835339 107.768301 
C 346.200369 110.600867 337.535664 116.047564 330.805993 123.501933 
C 324.076322 130.956301 319.541085 140.131008 317.705254 150.004498 
C 315.869424 159.877987 316.803765 170.069682 320.404242 179.444789 
C 324.004719 188.819897 330.132551 197.017049 338.105436 203.123536 
C 346.07832 209.230023 355.588939 213.010468 365.578334 214.043937 
C 375.567729 215.077407 385.650855 213.324066 394.705008 208.979139 
C 403.759161 204.634212 411.435344 197.865177 416.878856 189.425731 
C 411.870128 191.890378 406.314928 193.038316 400.739552 192.760789 
C 395.164176 192.483263 389.750436 190.789322 385.011228 187.83945 
C 380.27202 184.889578 376.361888 180.77997 373.651276 175.899967 
C 370.940665 171.019965 369.517966 165.528704 369.517966 159.946425 
C 369.517966 154.364147 370.940665 148.872886 373.651276 143.992884 
C 376.361888 139.112881 380.27202 135.003273 385.011228 132.053401 
C 389.750436 129.103529 395.164176 127.409588 400.739552 127.132061 
C 406.314928 126.854535 411.870128 128.002473 416.878856 130.46712 
" style="fill:#b200b2;opacity:0.4;"/>
   </g>
   <g id="patch_8">
    <path clip-path="url(#pc3094d89a0)" d="M 416.878856 189.425731 
C 424.670347 185.591768 430.632613 178.820986 433.450278 170.607133 
C 436.267943 162.393281 435.717353 153.38834 431.919976 145.578953 
C 431.7302 145.209047 431.537369 144.840716 431.341501 144.474 
C 431.145634 144.107283 430.946737 143.742192 430.744831 143.378765 
C 429.126664 140.607679 427.111214 138.088553 424.762765 135.901736 
C 422.414316 133.71492 419.758105 131.883914 416.878856 130.46712 
C 422.546205 139.253597 425.561334 149.490755 425.561334 159.946425 
C 425.561334 170.402095 422.546205 180.639253 416.878856 189.425731 
" style="fill:#0059b2;opacity:0.4;"/>
   </g>
   <g id="patch_9">
    <path clip-path="url(#pc3094d89a0)" d="M 416.878856 189.425731 
C 422.546205 180.639253 425.561334 170.402095 425.561334 159.946425 
C 425.561334 149.490755 422.546205 139.253597 416.878856 130.46712 
C 411.870128 128.002473 406.314928 126.854535 400.739552 127.132061 
C 395.164176 127.409588 389.750436 129.103529 385.011228 132.053401 
C 380.27202 135.003273 376.361888 139.112881 373.651276 143.992884 
C 370.940665 148.872886 369.517966 154.364147 369.517966 159.946425 
C 369.517966 165.528704 370.940665 171.019965 373.651276 175.899967 
C 376.361888 180.77997 380.27202 184.889578 385.011228 187.83945 
C 389.750436 190.789322 395.164176 192.483263 400.739552 192.760789 
C 406.314928 193.038316 411.870128 191.890378 416.878856 189.425731 
" style="fill:#663366;opacity:0.4;"/>
   </g>
   <g id="text_9">
    <!-- 305 -->
    <g style="fill:#262626;" transform="translate(326.269471883 208.848506006)scale(0.096 -0.096)">
     <use xlink:href="#ArialMT-33"/>
     <use x="55.615234375" xlink:href="#ArialMT-30"/>
     <use x="111.23046875" xlink:href="#ArialMT-35"/>
    </g>
   </g>
   <g id="text_10">
    <!-- 237 -->
    <defs>
     <path d="M 50.34375 8.453125 
L 50.34375 0 
L 3.03125 0 
Q 2.9375 3.171875 4.046875 6.109375 
Q 5.859375 10.9375 9.828125 15.625 
Q 13.8125 20.3125 21.34375 26.46875 
Q 33.015625 36.03125 37.109375 41.625 
Q 41.21875 47.21875 41.21875 52.203125 
Q 41.21875 57.421875 37.46875 61 
Q 33.734375 64.59375 27.734375 64.59375 
Q 21.390625 64.59375 17.578125 60.78125 
Q 13.765625 56.984375 13.71875 50.25 
L 4.6875 51.171875 
Q 5.609375 61.28125 11.65625 66.578125 
Q 17.71875 71.875 27.9375 71.875 
Q 38.234375 71.875 44.234375 66.15625 
Q 50.25 60.453125 50.25 52 
Q 50.25 47.703125 48.484375 43.546875 
Q 46.734375 39.40625 42.65625 34.8125 
Q 38.578125 30.21875 29.109375 22.21875 
Q 21.1875 15.578125 18.9375 13.203125 
Q 16.703125 10.84375 15.234375 8.453125 
z
" id="ArialMT-32"/>
    </defs>
    <g style="fill:#262626;" transform="translate(340.560789696 168.439208596)scale(0.096 -0.096)">
     <use xlink:href="#ArialMT-32"/>
     <use x="55.615234375" xlink:href="#ArialMT-33"/>
     <use x="111.23046875" xlink:href="#ArialMT-37"/>
    </g>
   </g>
   <g id="text_11">
    <!-- 16 -->
    <defs>
     <path d="M 49.75 54.046875 
L 41.015625 53.375 
Q 39.84375 58.546875 37.703125 60.890625 
Q 34.125 64.65625 28.90625 64.65625 
Q 24.703125 64.65625 21.53125 62.3125 
Q 17.390625 59.28125 14.984375 53.46875 
Q 12.59375 47.65625 12.5 36.921875 
Q 15.671875 41.75 20.265625 44.09375 
Q 24.859375 46.4375 29.890625 46.4375 
Q 38.671875 46.4375 44.84375 39.96875 
Q 51.03125 33.5 51.03125 23.25 
Q 51.03125 16.5 48.125 10.71875 
Q 45.21875 4.9375 40.140625 1.859375 
Q 35.0625 -1.21875 28.609375 -1.21875 
Q 17.625 -1.21875 10.6875 6.859375 
Q 3.765625 14.9375 3.765625 33.5 
Q 3.765625 54.25 11.421875 63.671875 
Q 18.109375 71.875 29.4375 71.875 
Q 37.890625 71.875 43.28125 67.140625 
Q 48.6875 62.40625 49.75 54.046875 
M 13.875 23.1875 
Q 13.875 18.65625 15.796875 14.5 
Q 17.71875 10.359375 21.1875 8.171875 
Q 24.65625 6 28.46875 6 
Q 34.03125 6 38.03125 10.484375 
Q 42.046875 14.984375 42.046875 22.703125 
Q 42.046875 30.125 38.078125 34.390625 
Q 34.125 38.671875 28.125 38.671875 
Q 22.171875 38.671875 18.015625 34.390625 
Q 13.875 30.125 13.875 23.1875 
" id="ArialMT-36"/>
    </defs>
    <g style="fill:#262626;" transform="translate(423.850284381 163.064323672)scale(0.096 -0.096)">
     <use xlink:href="#ArialMT-31"/>
     <use x="55.615234375" xlink:href="#ArialMT-36"/>
    </g>
   </g>
   <g id="text_12">
    <!-- 111 -->
    <g style="fill:#262626;" transform="translate(389.542399946 162.428175383)scale(0.096 -0.096)">
     <use xlink:href="#ArialMT-31"/>
     <use x="55.505859375" xlink:href="#ArialMT-31"/>
     <use x="111.01171875" xlink:href="#ArialMT-31"/>
    </g>
   </g>
   <g id="text_13">
    <!-- inhibited -->
    <defs>
     <path d="M 40.234375 0 
L 40.234375 6.546875 
Q 35.296875 -1.171875 25.734375 -1.171875 
Q 19.53125 -1.171875 14.328125 2.25 
Q 9.125 5.671875 6.265625 11.796875 
Q 3.421875 17.921875 3.421875 25.875 
Q 3.421875 33.640625 6 39.96875 
Q 8.59375 46.296875 13.765625 49.65625 
Q 18.953125 53.03125 25.34375 53.03125 
Q 30.03125 53.03125 33.6875 51.046875 
Q 37.359375 49.078125 39.65625 45.90625 
L 39.65625 71.578125 
L 48.390625 71.578125 
L 48.390625 0 
z
M 12.453125 25.875 
Q 12.453125 15.921875 16.640625 10.984375 
Q 20.84375 6.0625 26.5625 6.0625 
Q 32.328125 6.0625 36.34375 10.765625 
Q 40.375 15.484375 40.375 25.140625 
Q 40.375 35.796875 36.265625 40.765625 
Q 32.171875 45.75 26.171875 45.75 
Q 20.3125 45.75 16.375 40.96875 
Q 12.453125 36.1875 12.453125 25.875 
" id="ArialMT-64"/>
    </defs>
    <g style="fill:#262626;" transform="translate(301.071756047 105.560173603)scale(0.1152 -0.1152)">
     <use xlink:href="#ArialMT-69"/>
     <use x="22.216796875" xlink:href="#ArialMT-6e"/>
     <use x="77.83203125" xlink:href="#ArialMT-68"/>
     <use x="133.447265625" xlink:href="#ArialMT-69"/>
     <use x="155.6640625" xlink:href="#ArialMT-62"/>
     <use x="211.279296875" xlink:href="#ArialMT-69"/>
     <use x="233.49609375" xlink:href="#ArialMT-74"/>
     <use x="261.279296875" xlink:href="#ArialMT-65"/>
     <use x="316.89453125" xlink:href="#ArialMT-64"/>
    </g>
   </g>
   <g id="text_14">
    <!-- activated -->
    <g style="fill:#262626;" transform="translate(418.80045436 127.091433259)scale(0.1152 -0.1152)">
     <use xlink:href="#ArialMT-61"/>
     <use x="55.615234375" xlink:href="#ArialMT-63"/>
     <use x="105.615234375" xlink:href="#ArialMT-74"/>
     <use x="133.3984375" xlink:href="#ArialMT-69"/>
     <use x="155.615234375" xlink:href="#ArialMT-76"/>
     <use x="205.615234375" xlink:href="#ArialMT-61"/>
     <use x="261.23046875" xlink:href="#ArialMT-74"/>
     <use x="289.013671875" xlink:href="#ArialMT-65"/>
     <use x="344.62890625" xlink:href="#ArialMT-64"/>
    </g>
   </g>
   <g id="text_15">
    <!-- E. coli reactions (669 total) -->
    <g style="fill:#262626;" transform="translate(296.639672727 271.334072412)scale(0.1152 -0.1152)">
     <use xlink:href="#ArialMT-45"/>
     <use x="66.69921875" xlink:href="#ArialMT-2e"/>
     <use x="94.482421875" xlink:href="#ArialMT-20"/>
     <use x="122.265625" xlink:href="#ArialMT-63"/>
     <use x="172.265625" xlink:href="#ArialMT-6f"/>
     <use x="227.880859375" xlink:href="#ArialMT-6c"/>
     <use x="250.09765625" xlink:href="#ArialMT-69"/>
     <use x="272.314453125" xlink:href="#ArialMT-20"/>
     <use x="300.09765625" xlink:href="#ArialMT-72"/>
     <use x="333.3984375" xlink:href="#ArialMT-65"/>
     <use x="389.013671875" xlink:href="#ArialMT-61"/>
     <use x="444.62890625" xlink:href="#ArialMT-63"/>
     <use x="494.62890625" xlink:href="#ArialMT-74"/>
     <use x="522.412109375" xlink:href="#ArialMT-69"/>
     <use x="544.62890625" xlink:href="#ArialMT-6f"/>
     <use x="600.244140625" xlink:href="#ArialMT-6e"/>
     <use x="655.859375" xlink:href="#ArialMT-73"/>
     <use x="705.859375" xlink:href="#ArialMT-20"/>
     <use x="733.642578125" xlink:href="#ArialMT-28"/>
     <use x="766.943359375" xlink:href="#ArialMT-36"/>
     <use x="822.55859375" xlink:href="#ArialMT-36"/>
     <use x="878.173828125" xlink:href="#ArialMT-39"/>
     <use x="933.7890625" xlink:href="#ArialMT-20"/>
     <use x="961.572265625" xlink:href="#ArialMT-74"/>
     <use x="989.35546875" xlink:href="#ArialMT-6f"/>
     <use x="1044.97070312" xlink:href="#ArialMT-74"/>
     <use x="1072.75390625" xlink:href="#ArialMT-61"/>
     <use x="1128.36914062" xlink:href="#ArialMT-6c"/>
     <use x="1150.5859375" xlink:href="#ArialMT-29"/>
    </g>
   </g>
   <g id="text_16">
    <!-- b -->
    <g style="fill:#262626;" transform="translate(279.605454545 109.093806818)scale(0.2 -0.2)">
     <use xlink:href="#ArialMT-62"/>
    </g>
   </g>
  </g>
 </g>
 <defs>
  <clipPath id="pc3094d89a0">
   <rect height="177.545454545" width="177.545454545" x="276.054545455" y="91.2272727273"/>
  </clipPath>
  <clipPath id="p75263194b8">
   <rect height="177.545454545" width="177.545454545" x="63.0" y="91.2272727273"/>
  </clipPath>
 </defs>
</svg>
