<?xml version="1.0" encoding="utf-8" standalone="no"?>
<!DOCTYPE svg PUBLIC "-//W3C//DTD SVG 1.1//EN"
  "http://www.w3.org/Graphics/SVG/1.1/DTD/svg11.dtd">
<!-- Created with matplotlib (http://matplotlib.org/) -->
<svg height="360pt" version="1.1" viewBox="0 0 720 360" width="720pt" xmlns="http://www.w3.org/2000/svg" xmlns:xlink="http://www.w3.org/1999/xlink">
 <defs>
  <style type="text/css">
*{stroke-linecap:butt;stroke-linejoin:round;stroke-miterlimit:100000;}
  </style>
 </defs>
 <g id="figure_1">
  <g id="patch_1">
   <path d="M 0 360 
L 720 360 
L 720 0 
L 0 0 
z
" style="fill:#ffffff;"/>
  </g>
  <g id="axes_1">
   <g id="patch_2">
    <path clip-path="url(#p9056d383b5)" d="M 200.029265 69.091813 
C 202.900462 68.730854 205.809992 68.809962 208.657333 69.326405 
C 211.504673 69.842848 214.25665 70.790609 216.818182 72.136943 
C 219.379714 70.790609 222.131691 69.842848 224.979031 69.326405 
C 227.826371 68.809962 230.735902 68.730854 233.607098 69.091813 
C 228.053719 68.21561 222.440259 67.77549 216.818182 67.77549 
C 211.196105 67.77549 205.582644 68.21561 200.029265 69.091813 
M 197.633651 69.49753 
C 184.511486 71.872404 171.94366 76.663375 160.570516 83.626336 
C 149.197372 90.589298 139.215405 99.603951 131.133205 110.21099 
C 123.051006 120.81803 117.00821 132.834197 113.312706 145.647256 
C 109.617201 158.460315 108.332834 171.848894 109.525046 185.130831 
C 110.717257 198.412769 114.365448 211.358592 120.283741 223.308699 
C 126.202033 235.258806 134.288176 246.006733 144.130172 255.004863 
C 153.972169 264.002993 165.399977 271.095865 177.831341 275.92209 
C 190.262704 280.748315 203.482844 283.22451 216.818182 283.22451 
C 230.15352 283.22451 243.37366 280.748315 255.805023 275.92209 
C 268.236386 271.095865 279.664195 264.002993 289.506191 255.004863 
C 299.348187 246.006733 307.43433 235.258806 313.352623 223.308699 
C 319.270915 211.358592 322.919107 198.412769 324.111318 185.130831 
C 325.303529 171.848894 324.019163 158.460315 320.323658 145.647256 
C 316.628153 132.834197 310.585358 120.81803 302.503158 110.21099 
C 294.420958 99.603951 284.438991 90.589298 273.065847 83.626336 
C 261.692703 76.663375 249.124877 71.872404 236.002713 69.49753 
C 239.977507 70.346684 243.724628 72.037653 246.991156 74.4563 
C 250.257683 76.874947 252.96843 79.965601 254.940427 83.519652 
C 256.912425 87.073703 258.100284 91.009346 258.423827 95.060935 
C 258.74737 99.112524 258.199149 103.186803 256.816168 107.008768 
C 255.433188 110.830733 253.24728 114.312414 250.405988 117.218805 
C 247.564695 120.125196 244.133417 122.389402 240.343756 123.858593 
C 236.554095 125.327784 232.493278 125.968144 228.435401 125.73645 
C 224.377523 125.504756 220.415985 124.406342 216.818182 122.515347 
C 213.220378 124.406342 209.25884 125.504756 205.200963 125.73645 
C 201.143085 125.968144 197.082268 125.327784 193.292607 123.858593 
C 189.502946 122.389402 186.071668 120.125196 183.230376 117.218805 
C 180.389084 114.312414 178.203176 110.830733 176.820195 107.008768 
C 175.437215 103.186803 174.888994 99.112524 175.212537 95.060935 
C 175.536079 91.009346 176.723938 87.073703 178.695936 83.519652 
C 180.667934 79.965601 183.378681 76.874947 186.645208 74.4563 
C 189.911735 72.037653 193.658857 70.346684 197.633651 69.49753 
" style="fill:#0000ff;opacity:0.4;"/>
   </g>
   <g id="patch_3">
    <path clip-path="url(#p9056d383b5)" d="M 216.818182 72.136943 
C 214.25665 70.790609 211.504673 69.842848 208.657333 69.326405 
C 205.809992 68.809962 202.900462 68.730854 200.029265 69.091813 
C 199.629249 69.154927 199.229593 69.220296 198.830314 69.287917 
C 198.431036 69.355538 198.032142 69.42541 197.633651 69.49753 
C 193.658857 70.346684 189.911735 72.037653 186.645208 74.4563 
C 183.378681 76.874947 180.667934 79.965601 178.695936 83.519652 
C 176.723938 87.073703 175.536079 91.009346 175.212537 95.060935 
C 174.888994 99.112524 175.437215 103.186803 176.820195 107.008768 
C 178.203176 110.830733 180.389084 114.312414 183.230376 117.218805 
C 186.071668 120.125196 189.502946 122.389402 193.292607 123.858593 
C 197.082268 125.327784 201.143085 125.968144 205.200963 125.73645 
C 209.25884 125.504756 213.220378 124.406342 216.818182 122.515347 
C 212.22735 120.10242 208.382347 116.479743 205.700581 112.040588 
C 203.018816 107.601434 201.600973 102.512469 201.600973 97.326145 
C 201.600973 92.139821 203.018816 87.050856 205.700581 82.611702 
C 208.382347 78.172548 212.22735 74.54987 216.818182 72.136943 
" style="fill:#b200b2;opacity:0.4;"/>
   </g>
   <g id="patch_4">
    <path clip-path="url(#p9056d383b5)" d="M 216.818182 122.515347 
C 220.415985 124.406342 224.377523 125.504756 228.435401 125.73645 
C 232.493278 125.968144 236.554095 125.327784 240.343756 123.858593 
C 244.133417 122.389402 247.564695 120.125196 250.405988 117.218805 
C 253.24728 114.312414 255.433188 110.830733 256.816168 107.008768 
C 258.199149 103.186803 258.74737 99.112524 258.423827 95.060935 
C 258.100284 91.009346 256.912425 87.073703 254.940427 83.519652 
C 252.96843 79.965601 250.257683 76.874947 246.991156 74.4563 
C 243.724628 72.037653 239.977507 70.346684 236.002713 69.49753 
C 235.604222 69.42541 235.205328 69.355538 234.806049 69.287917 
C 234.406771 69.220296 234.007114 69.154927 233.607098 69.091813 
C 230.735902 68.730854 227.826371 68.809962 224.979031 69.326405 
C 222.131691 69.842848 219.379714 70.790609 216.818182 72.136943 
C 221.409014 74.54987 225.254017 78.172548 227.935782 82.611702 
C 230.617548 87.050856 232.03539 92.139821 232.03539 97.326145 
C 232.03539 102.512469 230.617548 107.601434 227.935782 112.040588 
C 225.254017 116.479743 221.409014 120.10242 216.818182 122.515347 
" style="fill:#0059b2;opacity:0.4;"/>
   </g>
   <g id="patch_5">
    <path clip-path="url(#p9056d383b5)" d="M 216.818182 122.515347 
C 221.409014 120.10242 225.254017 116.479743 227.935782 112.040588 
C 230.617548 107.601434 232.03539 102.512469 232.03539 97.326145 
C 232.03539 92.139821 230.617548 87.050856 227.935782 82.611702 
C 225.254017 78.172548 221.409014 74.54987 216.818182 72.136943 
C 212.22735 74.54987 208.382347 78.172548 205.700581 82.611702 
C 203.018816 87.050856 201.600973 92.139821 201.600973 97.326145 
C 201.600973 102.512469 203.018816 107.601434 205.700581 112.040588 
C 208.382347 116.479743 212.22735 120.10242 216.818182 122.515347 
" style="fill:#663366;opacity:0.4;"/>
   </g>
   <g id="text_1">
    <!-- 1544 -->
    <defs>
     <path d="M 37.25 0 
L 28.46875 0 
L 28.46875 56 
Q 25.296875 52.984375 20.140625 49.953125 
Q 14.984375 46.921875 10.890625 45.40625 
L 10.890625 53.90625 
Q 18.265625 57.375 23.78125 62.296875 
Q 29.296875 67.234375 31.59375 71.875 
L 37.25 71.875 
z
" id="ArialMT-31"/>
     <path d="M 32.328125 0 
L 32.328125 17.140625 
L 1.265625 17.140625 
L 1.265625 25.203125 
L 33.9375 71.578125 
L 41.109375 71.578125 
L 41.109375 25.203125 
L 50.78125 25.203125 
L 50.78125 17.140625 
L 41.109375 17.140625 
L 41.109375 0 
z
M 32.328125 25.203125 
L 32.328125 57.46875 
L 9.90625 25.203125 
z
" id="ArialMT-34"/>
     <path d="M 4.15625 18.75 
L 13.375 19.53125 
Q 14.40625 12.796875 18.140625 9.390625 
Q 21.875 6 27.15625 6 
Q 33.5 6 37.890625 10.78125 
Q 42.28125 15.578125 42.28125 23.484375 
Q 42.28125 31 38.0625 35.34375 
Q 33.84375 39.703125 27 39.703125 
Q 22.75 39.703125 19.328125 37.765625 
Q 15.921875 35.84375 13.96875 32.765625 
L 5.71875 33.84375 
L 12.640625 70.609375 
L 48.25 70.609375 
L 48.25 62.203125 
L 19.671875 62.203125 
L 15.828125 42.96875 
Q 22.265625 47.46875 29.34375 47.46875 
Q 38.71875 47.46875 45.15625 40.96875 
Q 51.609375 34.46875 51.609375 24.265625 
Q 51.609375 14.546875 45.953125 7.46875 
Q 39.0625 -1.21875 27.15625 -1.21875 
Q 17.390625 -1.21875 11.203125 4.25 
Q 5.03125 9.71875 4.15625 18.75 
" id="ArialMT-35"/>
    </defs>
    <g style="fill:#262626;" transform="translate(203.471931818 191.967598555)scale(0.12 -0.12)">
     <use xlink:href="#ArialMT-31"/>
     <use x="55.615234375" xlink:href="#ArialMT-35"/>
     <use x="111.23046875" xlink:href="#ArialMT-34"/>
     <use x="166.845703125" xlink:href="#ArialMT-34"/>
    </g>
   </g>
   <g id="text_2">
    <!-- 69 -->
    <defs>
     <path d="M 5.46875 16.546875 
L 13.921875 17.328125 
Q 14.984375 11.375 18.015625 8.6875 
Q 21.046875 6 25.78125 6 
Q 29.828125 6 32.875 7.859375 
Q 35.9375 9.71875 37.890625 12.8125 
Q 39.84375 15.921875 41.15625 21.1875 
Q 42.484375 26.46875 42.484375 31.9375 
Q 42.484375 32.515625 42.4375 33.6875 
Q 39.796875 29.5 35.234375 26.875 
Q 30.671875 24.265625 25.34375 24.265625 
Q 16.453125 24.265625 10.296875 30.703125 
Q 4.15625 37.15625 4.15625 47.703125 
Q 4.15625 58.59375 10.578125 65.234375 
Q 17 71.875 26.65625 71.875 
Q 33.640625 71.875 39.421875 68.109375 
Q 45.21875 64.359375 48.21875 57.390625 
Q 51.21875 50.4375 51.21875 37.25 
Q 51.21875 23.53125 48.234375 15.40625 
Q 45.265625 7.28125 39.375 3.03125 
Q 33.5 -1.21875 25.59375 -1.21875 
Q 17.1875 -1.21875 11.859375 3.4375 
Q 6.546875 8.109375 5.46875 16.546875 
M 41.453125 48.140625 
Q 41.453125 55.71875 37.421875 60.15625 
Q 33.40625 64.59375 27.734375 64.59375 
Q 21.875 64.59375 17.53125 59.8125 
Q 13.1875 55.03125 13.1875 47.40625 
Q 13.1875 40.578125 17.3125 36.296875 
Q 21.4375 32.03125 27.484375 32.03125 
Q 33.59375 32.03125 37.515625 36.296875 
Q 41.453125 40.578125 41.453125 48.140625 
" id="ArialMT-39"/>
     <path d="M 49.75 54.046875 
L 41.015625 53.375 
Q 39.84375 58.546875 37.703125 60.890625 
Q 34.125 64.65625 28.90625 64.65625 
Q 24.703125 64.65625 21.53125 62.3125 
Q 17.390625 59.28125 14.984375 53.46875 
Q 12.59375 47.65625 12.5 36.921875 
Q 15.671875 41.75 20.265625 44.09375 
Q 24.859375 46.4375 29.890625 46.4375 
Q 38.671875 46.4375 44.84375 39.96875 
Q 51.03125 33.5 51.03125 23.25 
Q 51.03125 16.5 48.125 10.71875 
Q 45.21875 4.9375 40.140625 1.859375 
Q 35.0625 -1.21875 28.609375 -1.21875 
Q 17.625 -1.21875 10.6875 6.859375 
Q 3.765625 14.9375 3.765625 33.5 
Q 3.765625 54.25 11.421875 63.671875 
Q 18.109375 71.875 29.4375 71.875 
Q 37.890625 71.875 43.28125 67.140625 
Q 48.6875 62.40625 49.75 54.046875 
M 13.875 23.1875 
Q 13.875 18.65625 15.796875 14.5 
Q 17.71875 10.359375 21.1875 8.171875 
Q 24.65625 6 28.46875 6 
Q 34.03125 6 38.03125 10.484375 
Q 42.046875 14.984375 42.046875 22.703125 
Q 42.046875 30.125 38.078125 34.390625 
Q 34.125 38.671875 28.125 38.671875 
Q 22.171875 38.671875 18.015625 34.390625 
Q 13.875 30.125 13.875 23.1875 
" id="ArialMT-36"/>
    </defs>
    <g style="fill:#262626;" transform="translate(182.003680768 102.901339123)scale(0.12 -0.12)">
     <use xlink:href="#ArialMT-36"/>
     <use x="55.615234375" xlink:href="#ArialMT-39"/>
    </g>
   </g>
   <g id="text_3">
    <!-- 69 -->
    <g style="fill:#262626;" transform="translate(238.286432868 102.901339123)scale(0.12 -0.12)">
     <use xlink:href="#ArialMT-36"/>
     <use x="55.615234375" xlink:href="#ArialMT-39"/>
    </g>
   </g>
   <g id="text_4">
    <!-- 52 -->
    <defs>
     <path d="M 50.34375 8.453125 
L 50.34375 0 
L 3.03125 0 
Q 2.9375 3.171875 4.046875 6.109375 
Q 5.859375 10.9375 9.828125 15.625 
Q 13.8125 20.3125 21.34375 26.46875 
Q 33.015625 36.03125 37.109375 41.625 
Q 41.21875 47.21875 41.21875 52.203125 
Q 41.21875 57.421875 37.46875 61 
Q 33.734375 64.59375 27.734375 64.59375 
Q 21.390625 64.59375 17.578125 60.78125 
Q 13.765625 56.984375 13.71875 50.25 
L 4.6875 51.171875 
Q 5.609375 61.28125 11.65625 66.578125 
Q 17.71875 71.875 27.9375 71.875 
Q 38.234375 71.875 44.234375 66.15625 
Q 50.25 60.453125 50.25 52 
Q 50.25 47.703125 48.484375 43.546875 
Q 46.734375 39.40625 42.65625 34.8125 
Q 38.578125 30.21875 29.109375 22.21875 
Q 21.1875 15.578125 18.9375 13.203125 
Q 16.703125 10.84375 15.234375 8.453125 
z
" id="ArialMT-32"/>
    </defs>
    <g style="fill:#262626;" transform="translate(210.145056818 100.428332631)scale(0.12 -0.12)">
     <use xlink:href="#ArialMT-35"/>
     <use x="55.615234375" xlink:href="#ArialMT-32"/>
    </g>
   </g>
   <g id="text_5">
    <!-- Inhibitors -->
    <defs>
     <path d="M 9.328125 0 
L 9.328125 71.578125 
L 18.796875 71.578125 
L 18.796875 0 
z
" id="ArialMT-49"/>
     <path d="M 14.703125 0 
L 6.546875 0 
L 6.546875 71.578125 
L 15.328125 71.578125 
L 15.328125 46.046875 
Q 20.90625 53.03125 29.546875 53.03125 
Q 34.328125 53.03125 38.59375 51.09375 
Q 42.875 49.171875 45.625 45.671875 
Q 48.390625 42.1875 49.953125 37.25 
Q 51.515625 32.328125 51.515625 26.703125 
Q 51.515625 13.375 44.921875 6.09375 
Q 38.328125 -1.171875 29.109375 -1.171875 
Q 19.921875 -1.171875 14.703125 6.5 
z
M 14.59375 26.3125 
Q 14.59375 17 17.140625 12.84375 
Q 21.296875 6.0625 28.375 6.0625 
Q 34.125 6.0625 38.328125 11.0625 
Q 42.53125 16.0625 42.53125 25.984375 
Q 42.53125 36.140625 38.5 40.96875 
Q 34.46875 45.796875 28.765625 45.796875 
Q 23 45.796875 18.796875 40.796875 
Q 14.59375 35.796875 14.59375 26.3125 
" id="ArialMT-62"/>
     <path d="M 25.78125 7.859375 
L 27.046875 0.09375 
Q 23.34375 -0.6875 20.40625 -0.6875 
Q 15.625 -0.6875 12.984375 0.828125 
Q 10.359375 2.34375 9.28125 4.8125 
Q 8.203125 7.28125 8.203125 15.1875 
L 8.203125 45.015625 
L 1.765625 45.015625 
L 1.765625 51.859375 
L 8.203125 51.859375 
L 8.203125 64.703125 
L 16.9375 69.96875 
L 16.9375 51.859375 
L 25.78125 51.859375 
L 25.78125 45.015625 
L 16.9375 45.015625 
L 16.9375 14.703125 
Q 16.9375 10.9375 17.40625 9.859375 
Q 17.875 8.796875 18.921875 8.15625 
Q 19.96875 7.515625 21.921875 7.515625 
Q 23.390625 7.515625 25.78125 7.859375 
" id="ArialMT-74"/>
     <path d="M 6.640625 61.46875 
L 6.640625 71.578125 
L 15.4375 71.578125 
L 15.4375 61.46875 
z
M 6.640625 0 
L 6.640625 51.859375 
L 15.4375 51.859375 
L 15.4375 0 
z
" id="ArialMT-69"/>
     <path d="M 6.59375 0 
L 6.59375 71.578125 
L 15.375 71.578125 
L 15.375 45.90625 
Q 21.53125 53.03125 30.90625 53.03125 
Q 36.671875 53.03125 40.921875 50.75 
Q 45.171875 48.484375 47 44.484375 
Q 48.828125 40.484375 48.828125 32.859375 
L 48.828125 0 
L 40.046875 0 
L 40.046875 32.859375 
Q 40.046875 39.453125 37.1875 42.453125 
Q 34.328125 45.453125 29.109375 45.453125 
Q 25.203125 45.453125 21.75 43.421875 
Q 18.3125 41.40625 16.84375 37.9375 
Q 15.375 34.46875 15.375 28.375 
L 15.375 0 
z
" id="ArialMT-68"/>
     <path d="M 6.5 0 
L 6.5 51.859375 
L 14.40625 51.859375 
L 14.40625 44 
Q 17.4375 49.515625 20 51.265625 
Q 22.5625 53.03125 25.640625 53.03125 
Q 30.078125 53.03125 34.671875 50.203125 
L 31.640625 42.046875 
Q 28.421875 43.953125 25.203125 43.953125 
Q 22.3125 43.953125 20.015625 42.21875 
Q 17.71875 40.484375 16.75 37.40625 
Q 15.28125 32.71875 15.28125 27.15625 
L 15.28125 0 
z
" id="ArialMT-72"/>
     <path d="M 3.078125 15.484375 
L 11.765625 16.84375 
Q 12.5 11.625 15.84375 8.84375 
Q 19.1875 6.0625 25.203125 6.0625 
Q 31.25 6.0625 34.171875 8.515625 
Q 37.109375 10.984375 37.109375 14.3125 
Q 37.109375 17.28125 34.515625 19 
Q 32.71875 20.171875 25.53125 21.96875 
Q 15.875 24.421875 12.140625 26.203125 
Q 8.40625 27.984375 6.46875 31.125 
Q 4.546875 34.28125 4.546875 38.09375 
Q 4.546875 41.546875 6.125 44.5 
Q 7.71875 47.46875 10.453125 49.421875 
Q 12.5 50.921875 16.03125 51.96875 
Q 19.578125 53.03125 23.640625 53.03125 
Q 29.734375 53.03125 34.34375 51.265625 
Q 38.96875 49.515625 41.15625 46.5 
Q 43.359375 43.5 44.1875 38.484375 
L 35.59375 37.3125 
Q 35.015625 41.3125 32.203125 43.546875 
Q 29.390625 45.796875 24.265625 45.796875 
Q 18.21875 45.796875 15.625 43.796875 
Q 13.03125 41.796875 13.03125 39.109375 
Q 13.03125 37.40625 14.109375 36.03125 
Q 15.1875 34.625 17.484375 33.6875 
Q 18.796875 33.203125 25.25 31.453125 
Q 34.578125 28.953125 38.25 27.359375 
Q 41.9375 25.78125 44.03125 22.75 
Q 46.140625 19.734375 46.140625 15.234375 
Q 46.140625 10.84375 43.578125 6.953125 
Q 41.015625 3.078125 36.171875 0.953125 
Q 31.34375 -1.171875 25.25 -1.171875 
Q 15.140625 -1.171875 9.84375 3.03125 
Q 4.546875 7.234375 3.078125 15.484375 
" id="ArialMT-73"/>
     <path d="M 3.328125 25.921875 
Q 3.328125 40.328125 11.328125 47.265625 
Q 18.015625 53.03125 27.640625 53.03125 
Q 38.328125 53.03125 45.109375 46.015625 
Q 51.90625 39.015625 51.90625 26.65625 
Q 51.90625 16.65625 48.90625 10.90625 
Q 45.90625 5.171875 40.15625 2 
Q 34.421875 -1.171875 27.640625 -1.171875 
Q 16.75 -1.171875 10.03125 5.8125 
Q 3.328125 12.796875 3.328125 25.921875 
M 12.359375 25.921875 
Q 12.359375 15.96875 16.703125 11.015625 
Q 21.046875 6.0625 27.640625 6.0625 
Q 34.1875 6.0625 38.53125 11.03125 
Q 42.875 16.015625 42.875 26.21875 
Q 42.875 35.84375 38.5 40.796875 
Q 34.125 45.75 27.640625 45.75 
Q 21.046875 45.75 16.703125 40.8125 
Q 12.359375 35.890625 12.359375 25.921875 
" id="ArialMT-6f"/>
     <path d="M 6.59375 0 
L 6.59375 51.859375 
L 14.5 51.859375 
L 14.5 44.484375 
Q 20.21875 53.03125 31 53.03125 
Q 35.6875 53.03125 39.625 51.34375 
Q 43.5625 49.65625 45.515625 46.921875 
Q 47.46875 44.1875 48.25 40.4375 
Q 48.734375 37.984375 48.734375 31.890625 
L 48.734375 0 
L 39.9375 0 
L 39.9375 31.546875 
Q 39.9375 36.921875 38.90625 39.578125 
Q 37.890625 42.234375 35.28125 43.8125 
Q 32.671875 45.40625 29.15625 45.40625 
Q 23.53125 45.40625 19.453125 41.84375 
Q 15.375 38.28125 15.375 28.328125 
L 15.375 0 
z
" id="ArialMT-6e"/>
    </defs>
    <g style="fill:#262626;" transform="translate(130.924774166 68.869567728)scale(0.144 -0.144)">
     <use xlink:href="#ArialMT-49"/>
     <use x="27.783203125" xlink:href="#ArialMT-6e"/>
     <use x="83.3984375" xlink:href="#ArialMT-68"/>
     <use x="139.013671875" xlink:href="#ArialMT-69"/>
     <use x="161.23046875" xlink:href="#ArialMT-62"/>
     <use x="216.845703125" xlink:href="#ArialMT-69"/>
     <use x="239.0625" xlink:href="#ArialMT-74"/>
     <use x="266.845703125" xlink:href="#ArialMT-6f"/>
     <use x="322.4609375" xlink:href="#ArialMT-72"/>
     <use x="355.76171875" xlink:href="#ArialMT-73"/>
    </g>
   </g>
   <g id="text_6">
    <!-- Activators -->
    <defs>
     <path d="M -0.140625 0 
L 27.34375 71.578125 
L 37.546875 71.578125 
L 66.84375 0 
L 56.0625 0 
L 47.703125 21.6875 
L 17.78125 21.6875 
L 9.90625 0 
z
M 20.515625 29.390625 
L 44.78125 29.390625 
L 37.3125 49.21875 
Q 33.890625 58.25 32.234375 64.0625 
Q 30.859375 57.171875 28.375 50.390625 
z
" id="ArialMT-41"/>
     <path d="M 40.4375 19 
L 49.078125 17.875 
Q 47.65625 8.9375 41.8125 3.875 
Q 35.984375 -1.171875 27.484375 -1.171875 
Q 16.84375 -1.171875 10.375 5.78125 
Q 3.90625 12.75 3.90625 25.734375 
Q 3.90625 34.125 6.6875 40.421875 
Q 9.46875 46.734375 15.15625 49.875 
Q 20.84375 53.03125 27.546875 53.03125 
Q 35.984375 53.03125 41.359375 48.75 
Q 46.734375 44.484375 48.25 36.625 
L 39.703125 35.296875 
Q 38.484375 40.53125 35.375 43.15625 
Q 32.28125 45.796875 27.875 45.796875 
Q 21.234375 45.796875 17.078125 41.03125 
Q 12.9375 36.28125 12.9375 25.984375 
Q 12.9375 15.53125 16.9375 10.796875 
Q 20.953125 6.0625 27.390625 6.0625 
Q 32.5625 6.0625 36.03125 9.234375 
Q 39.5 12.40625 40.4375 19 
" id="ArialMT-63"/>
     <path d="M 21 0 
L 1.265625 51.859375 
L 10.546875 51.859375 
L 21.6875 20.796875 
Q 23.484375 15.765625 25 10.359375 
Q 26.171875 14.453125 28.265625 20.21875 
L 39.796875 51.859375 
L 48.828125 51.859375 
L 29.203125 0 
z
" id="ArialMT-76"/>
     <path d="M 40.4375 6.390625 
Q 35.546875 2.25 31.03125 0.53125 
Q 26.515625 -1.171875 21.34375 -1.171875 
Q 12.796875 -1.171875 8.203125 3 
Q 3.609375 7.171875 3.609375 13.671875 
Q 3.609375 17.484375 5.34375 20.625 
Q 7.078125 23.78125 9.890625 25.6875 
Q 12.703125 27.59375 16.21875 28.5625 
Q 18.796875 29.25 24.03125 29.890625 
Q 34.671875 31.15625 39.703125 32.90625 
Q 39.75 34.71875 39.75 35.203125 
Q 39.75 40.578125 37.25 42.78125 
Q 33.890625 45.75 27.25 45.75 
Q 21.046875 45.75 18.09375 43.578125 
Q 15.140625 41.40625 13.71875 35.890625 
L 5.125 37.0625 
Q 6.296875 42.578125 8.984375 45.96875 
Q 11.671875 49.359375 16.75 51.1875 
Q 21.828125 53.03125 28.515625 53.03125 
Q 35.15625 53.03125 39.296875 51.46875 
Q 43.453125 49.90625 45.40625 47.53125 
Q 47.359375 45.171875 48.140625 41.546875 
Q 48.578125 39.3125 48.578125 33.453125 
L 48.578125 21.734375 
Q 48.578125 9.46875 49.140625 6.21875 
Q 49.703125 2.984375 51.375 0 
L 42.1875 0 
Q 40.828125 2.734375 40.4375 6.390625 
M 39.703125 26.03125 
Q 34.90625 24.078125 25.34375 22.703125 
Q 19.921875 21.921875 17.671875 20.9375 
Q 15.4375 19.96875 14.203125 18.09375 
Q 12.984375 16.21875 12.984375 13.921875 
Q 12.984375 10.40625 15.640625 8.0625 
Q 18.3125 5.71875 23.4375 5.71875 
Q 28.515625 5.71875 32.46875 7.9375 
Q 36.421875 10.15625 38.28125 14.015625 
Q 39.703125 17 39.703125 22.796875 
z
" id="ArialMT-61"/>
    </defs>
    <g style="fill:#262626;" transform="translate(244.28583947 68.869567728)scale(0.144 -0.144)">
     <use xlink:href="#ArialMT-41"/>
     <use x="66.69921875" xlink:href="#ArialMT-63"/>
     <use x="116.69921875" xlink:href="#ArialMT-74"/>
     <use x="144.482421875" xlink:href="#ArialMT-69"/>
     <use x="166.69921875" xlink:href="#ArialMT-76"/>
     <use x="216.69921875" xlink:href="#ArialMT-61"/>
     <use x="272.314453125" xlink:href="#ArialMT-74"/>
     <use x="300.09765625" xlink:href="#ArialMT-6f"/>
     <use x="355.712890625" xlink:href="#ArialMT-72"/>
     <use x="389.013671875" xlink:href="#ArialMT-73"/>
    </g>
   </g>
   <g id="text_7">
    <!-- All metabolites -->
    <defs>
     <path d="M 6.390625 0 
L 6.390625 71.578125 
L 15.1875 71.578125 
L 15.1875 0 
z
" id="ArialMT-6c"/>
     <path d="M 6.59375 0 
L 6.59375 51.859375 
L 14.453125 51.859375 
L 14.453125 44.578125 
Q 16.890625 48.390625 20.9375 50.703125 
Q 25 53.03125 30.171875 53.03125 
Q 35.9375 53.03125 39.625 50.640625 
Q 43.3125 48.25 44.828125 43.953125 
Q 50.984375 53.03125 60.84375 53.03125 
Q 68.5625 53.03125 72.703125 48.75 
Q 76.859375 44.484375 76.859375 35.59375 
L 76.859375 0 
L 68.109375 0 
L 68.109375 32.671875 
Q 68.109375 37.9375 67.25 40.25 
Q 66.40625 42.578125 64.15625 43.984375 
Q 61.921875 45.40625 58.890625 45.40625 
Q 53.421875 45.40625 49.796875 41.765625 
Q 46.1875 38.140625 46.1875 30.125 
L 46.1875 0 
L 37.40625 0 
L 37.40625 33.6875 
Q 37.40625 39.546875 35.25 42.46875 
Q 33.109375 45.40625 28.21875 45.40625 
Q 24.515625 45.40625 21.359375 43.453125 
Q 18.21875 41.5 16.796875 37.734375 
Q 15.375 33.984375 15.375 26.90625 
L 15.375 0 
z
" id="ArialMT-6d"/>
     <path d="M 42.09375 16.703125 
L 51.171875 15.578125 
Q 49.03125 7.625 43.21875 3.21875 
Q 37.40625 -1.171875 28.375 -1.171875 
Q 17 -1.171875 10.328125 5.828125 
Q 3.65625 12.84375 3.65625 25.484375 
Q 3.65625 38.578125 10.390625 45.796875 
Q 17.140625 53.03125 27.875 53.03125 
Q 38.28125 53.03125 44.875 45.953125 
Q 51.46875 38.875 51.46875 26.03125 
Q 51.46875 25.25 51.421875 23.6875 
L 12.75 23.6875 
Q 13.234375 15.140625 17.578125 10.59375 
Q 21.921875 6.0625 28.421875 6.0625 
Q 33.25 6.0625 36.671875 8.59375 
Q 40.09375 11.140625 42.09375 16.703125 
M 13.234375 30.90625 
L 42.1875 30.90625 
Q 41.609375 37.453125 38.875 40.71875 
Q 34.671875 45.796875 27.984375 45.796875 
Q 21.921875 45.796875 17.796875 41.75 
Q 13.671875 37.703125 13.234375 30.90625 
" id="ArialMT-65"/>
     <path id="ArialMT-20"/>
    </defs>
    <g style="fill:#262626;" transform="translate(169.999056818 304.304210588)scale(0.144 -0.144)">
     <use xlink:href="#ArialMT-41"/>
     <use x="66.69921875" xlink:href="#ArialMT-6c"/>
     <use x="88.916015625" xlink:href="#ArialMT-6c"/>
     <use x="111.1328125" xlink:href="#ArialMT-20"/>
     <use x="138.916015625" xlink:href="#ArialMT-6d"/>
     <use x="222.216796875" xlink:href="#ArialMT-65"/>
     <use x="277.83203125" xlink:href="#ArialMT-74"/>
     <use x="305.615234375" xlink:href="#ArialMT-61"/>
     <use x="361.23046875" xlink:href="#ArialMT-62"/>
     <use x="416.845703125" xlink:href="#ArialMT-6f"/>
     <use x="472.4609375" xlink:href="#ArialMT-6c"/>
     <use x="494.677734375" xlink:href="#ArialMT-69"/>
     <use x="516.89453125" xlink:href="#ArialMT-74"/>
     <use x="544.677734375" xlink:href="#ArialMT-65"/>
     <use x="600.29296875" xlink:href="#ArialMT-73"/>
    </g>
   </g>
  </g>
  <g id="axes_2">
   <g id="patch_6">
    <path clip-path="url(#pa49a500414)" d="M 496.360152 70.674169 
C 500.438744 69.840832 504.649109 69.892735 508.705919 70.82636 
C 512.762729 71.759985 516.572225 73.553755 519.876244 76.086109 
C 523.163557 73.465429 526.97304 71.576893 531.049087 70.547216 
C 535.125133 69.51754 539.374492 69.37028 543.51204 70.115318 
C 535.752945 68.471224 527.835953 67.689059 519.905142 67.783056 
C 511.97433 67.877053 504.078101 68.846639 496.360152 70.674169 
M 493.966916 71.269874 
C 481.347152 74.564945 469.430096 80.124714 458.796964 87.678021 
C 448.163833 95.231328 438.990349 104.653347 431.723919 115.484549 
C 424.45749 126.315751 419.218201 138.37714 416.261582 151.08046 
C 413.304962 163.78378 412.679873 176.919096 414.416802 189.845774 
C 416.15373 202.772452 420.223972 215.276867 426.429013 226.749155 
C 432.634055 238.221444 440.871352 248.472014 450.739156 257.000928 
C 460.60696 265.529842 471.942197 272.196151 484.192025 276.674726 
C 496.441853 281.153301 509.403834 283.37013 522.445786 283.217094 
C 535.487738 283.064058 548.394131 280.543686 560.535496 275.778901 
C 572.676862 271.014116 583.852552 264.083661 593.517508 255.325547 
C 603.182464 246.567433 611.176962 236.126396 617.111097 224.511665 
C 623.045233 212.896935 626.820937 200.300454 628.254062 187.336578 
C 629.687187 174.372702 628.75405 161.25567 625.50016 148.625226 
C 622.246271 135.994781 616.725403 124.059653 609.20682 113.40194 
C 601.688237 102.744227 592.29619 93.540059 581.488748 86.238339 
C 570.681305 78.936618 558.63707 73.658015 545.943462 70.659974 
C 550.180452 71.79882 554.110784 73.867946 557.447744 76.716411 
C 560.784704 79.564877 563.445127 83.121692 565.23494 87.127391 
C 567.024753 91.13309 567.899349 95.487843 567.794927 99.873975 
C 567.690505 104.260107 566.609668 108.568306 564.631261 112.484294 
C 562.652854 116.400282 559.826184 119.826464 556.357453 122.512905 
C 552.888722 125.199345 548.864379 127.079091 544.577993 128.015018 
C 540.291608 128.950946 535.850008 128.919728 531.577202 127.923644 
C 527.304396 126.927559 523.306872 124.991432 519.876244 122.2565 
C 516.487358 124.8539 512.567731 126.67349 508.396526 127.585678 
C 504.22532 128.497865 499.903969 128.480468 495.740244 127.534724 
C 491.576518 126.58898 487.67167 124.737888 484.303807 122.113285 
C 480.935944 119.488683 478.186965 116.154393 476.252654 112.347888 
C 474.318342 108.541382 473.245738 104.355227 473.111232 100.087564 
C 472.976726 95.8199 473.783589 91.574509 475.474356 87.65375 
C 477.165123 83.732991 479.698678 80.232209 482.894579 77.400733 
C 486.09048 74.569257 489.87101 72.475941 493.966916 71.269874 
" style="fill:#0000ff;opacity:0.4;"/>
   </g>
   <g id="patch_7">
    <path clip-path="url(#pa49a500414)" d="M 519.876244 76.086109 
C 516.572225 73.553755 512.762729 71.759985 508.705919 70.82636 
C 504.649109 69.892735 500.438744 69.840832 496.360152 70.674169 
C 495.960159 70.768883 495.560712 70.865886 495.161829 70.965173 
C 494.762947 71.064459 494.364636 71.166028 493.966916 71.269874 
C 489.87101 72.475941 486.09048 74.569257 482.894579 77.400733 
C 479.698678 80.232209 477.165123 83.732991 475.474356 87.65375 
C 473.783589 91.574509 472.976726 95.8199 473.111232 100.087564 
C 473.245738 104.355227 474.318342 108.541382 476.252654 112.347888 
C 478.186965 116.154393 480.935944 119.488683 484.303807 122.113285 
C 487.67167 124.737888 491.576518 126.58898 495.740244 127.534724 
C 499.903969 128.480468 504.22532 128.497865 508.396526 127.585678 
C 512.567731 126.67349 516.487358 124.8539 519.876244 122.2565 
C 516.407654 119.491304 513.606465 115.979592 511.681468 111.983117 
C 509.756471 107.986642 508.756714 103.607229 508.756714 99.171304 
C 508.756714 94.73538 509.756471 90.355966 511.681468 86.359491 
C 513.606465 82.363016 516.407654 78.851305 519.876244 76.086109 
" style="fill:#b200b2;opacity:0.4;"/>
   </g>
   <g id="patch_8">
    <path clip-path="url(#pa49a500414)" d="M 519.876244 122.2565 
C 523.306872 124.991432 527.304396 126.927559 531.577202 127.923644 
C 535.850008 128.919728 540.291608 128.950946 544.577993 128.015018 
C 548.864379 127.079091 552.888722 125.199345 556.357453 122.512905 
C 559.826184 119.826464 562.652854 116.400282 564.631261 112.484294 
C 566.609668 108.568306 567.690505 104.260107 567.794927 99.873975 
C 567.899349 95.487843 567.024753 91.13309 565.23494 87.127391 
C 563.445127 83.121692 560.784704 79.564877 557.447744 76.716411 
C 554.110784 73.867946 550.180452 71.79882 545.943462 70.659974 
C 545.539292 70.564515 545.134573 70.471394 544.729326 70.380616 
C 544.324079 70.289838 543.91831 70.201404 543.51204 70.115318 
C 539.374492 69.37028 535.125133 69.51754 531.049087 70.547216 
C 526.97304 71.576893 523.163557 73.465429 519.876244 76.086109 
C 523.419235 78.801621 526.289984 82.296674 528.265446 86.299716 
C 530.240907 90.302758 531.26856 94.70736 531.26856 99.171304 
C 531.26856 103.635248 530.240907 108.03985 528.265446 112.042892 
C 526.289984 116.045934 523.419235 119.540987 519.876244 122.2565 
" style="fill:#0059b2;opacity:0.4;"/>
   </g>
   <g id="patch_9">
    <path clip-path="url(#pa49a500414)" d="M 519.876244 122.2565 
C 523.419235 119.540987 526.289984 116.045934 528.265446 112.042892 
C 530.240907 108.03985 531.26856 103.635248 531.26856 99.171304 
C 531.26856 94.70736 530.240907 90.302758 528.265446 86.299716 
C 526.289984 82.296674 523.419235 78.801621 519.876244 76.086109 
C 516.407654 78.851305 513.606465 82.363016 511.681468 86.359491 
C 509.756471 90.355966 508.756714 94.73538 508.756714 99.171304 
C 508.756714 103.607229 509.756471 107.986642 511.681468 111.983117 
C 513.606465 115.979592 516.407654 119.491304 519.876244 122.2565 
" style="fill:#663366;opacity:0.4;"/>
   </g>
   <g id="text_8">
    <!-- 1184 -->
    <defs>
     <path d="M 17.671875 38.8125 
Q 12.203125 40.828125 9.5625 44.53125 
Q 6.9375 48.25 6.9375 53.421875 
Q 6.9375 61.234375 12.546875 66.546875 
Q 18.171875 71.875 27.484375 71.875 
Q 36.859375 71.875 42.578125 66.421875 
Q 48.296875 60.984375 48.296875 53.171875 
Q 48.296875 48.1875 45.671875 44.5 
Q 43.0625 40.828125 37.75 38.8125 
Q 44.34375 36.671875 47.78125 31.875 
Q 51.21875 27.09375 51.21875 20.453125 
Q 51.21875 11.28125 44.71875 5.03125 
Q 38.234375 -1.21875 27.640625 -1.21875 
Q 17.046875 -1.21875 10.546875 5.046875 
Q 4.046875 11.328125 4.046875 20.703125 
Q 4.046875 27.6875 7.59375 32.390625 
Q 11.140625 37.109375 17.671875 38.8125 
M 15.921875 53.71875 
Q 15.921875 48.640625 19.1875 45.40625 
Q 22.46875 42.1875 27.6875 42.1875 
Q 32.765625 42.1875 36.015625 45.375 
Q 39.265625 48.578125 39.265625 53.21875 
Q 39.265625 58.0625 35.90625 61.359375 
Q 32.5625 64.65625 27.59375 64.65625 
Q 22.5625 64.65625 19.234375 61.421875 
Q 15.921875 58.203125 15.921875 53.71875 
M 13.09375 20.65625 
Q 13.09375 16.890625 14.875 13.375 
Q 16.65625 9.859375 20.171875 7.921875 
Q 23.6875 6 27.734375 6 
Q 34.03125 6 38.125 10.046875 
Q 42.234375 14.109375 42.234375 20.359375 
Q 42.234375 26.703125 38.015625 30.859375 
Q 33.796875 35.015625 27.4375 35.015625 
Q 21.234375 35.015625 17.15625 30.90625 
Q 13.09375 26.8125 13.09375 20.65625 
" id="ArialMT-38"/>
    </defs>
    <g style="fill:#262626;" transform="translate(508.152942479 192.514014132)scale(0.12 -0.12)">
     <use xlink:href="#ArialMT-31"/>
     <use x="55.505859375" xlink:href="#ArialMT-31"/>
     <use x="111.12109375" xlink:href="#ArialMT-38"/>
     <use x="166.736328125" xlink:href="#ArialMT-34"/>
    </g>
   </g>
   <g id="text_9">
    <!-- 72 -->
    <defs>
     <path d="M 4.734375 62.203125 
L 4.734375 70.65625 
L 51.078125 70.65625 
L 51.078125 63.8125 
Q 44.234375 56.546875 37.515625 44.484375 
Q 30.8125 32.421875 27.15625 19.671875 
Q 24.515625 10.6875 23.78125 0 
L 14.75 0 
Q 14.890625 8.453125 18.0625 20.40625 
Q 21.234375 32.375 27.171875 43.484375 
Q 33.109375 54.59375 39.796875 62.203125 
z
" id="ArialMT-37"/>
    </defs>
    <g style="fill:#262626;" transform="translate(483.578704969 105.725550389)scale(0.12 -0.12)">
     <use xlink:href="#ArialMT-37"/>
     <use x="55.615234375" xlink:href="#ArialMT-32"/>
    </g>
   </g>
   <g id="text_10">
    <!-- 75 -->
    <g style="fill:#262626;" transform="translate(543.545751835 105.828996697)scale(0.12 -0.12)">
     <use xlink:href="#ArialMT-37"/>
     <use x="55.615234375" xlink:href="#ArialMT-35"/>
    </g>
   </g>
   <g id="text_11">
    <!-- 27 -->
    <g style="fill:#262626;" transform="translate(513.33951198 102.273491719)scale(0.12 -0.12)">
     <use xlink:href="#ArialMT-32"/>
     <use x="55.615234375" xlink:href="#ArialMT-37"/>
    </g>
   </g>
   <g id="text_12">
    <!-- Inhibited -->
    <defs>
     <path d="M 40.234375 0 
L 40.234375 6.546875 
Q 35.296875 -1.171875 25.734375 -1.171875 
Q 19.53125 -1.171875 14.328125 2.25 
Q 9.125 5.671875 6.265625 11.796875 
Q 3.421875 17.921875 3.421875 25.875 
Q 3.421875 33.640625 6 39.96875 
Q 8.59375 46.296875 13.765625 49.65625 
Q 18.953125 53.03125 25.34375 53.03125 
Q 30.03125 53.03125 33.6875 51.046875 
Q 37.359375 49.078125 39.65625 45.90625 
L 39.65625 71.578125 
L 48.390625 71.578125 
L 48.390625 0 
z
M 12.453125 25.875 
Q 12.453125 15.921875 16.640625 10.984375 
Q 20.84375 6.0625 26.5625 6.0625 
Q 32.328125 6.0625 36.34375 10.765625 
Q 40.375 15.484375 40.375 25.140625 
Q 40.375 35.796875 36.265625 40.765625 
Q 32.171875 45.75 26.171875 45.75 
Q 20.3125 45.75 16.375 40.96875 
Q 12.453125 36.1875 12.453125 25.875 
" id="ArialMT-64"/>
    </defs>
    <g style="fill:#262626;" transform="translate(433.200987261 70.0854222013)scale(0.144 -0.144)">
     <use xlink:href="#ArialMT-49"/>
     <use x="27.783203125" xlink:href="#ArialMT-6e"/>
     <use x="83.3984375" xlink:href="#ArialMT-68"/>
     <use x="139.013671875" xlink:href="#ArialMT-69"/>
     <use x="161.23046875" xlink:href="#ArialMT-62"/>
     <use x="216.845703125" xlink:href="#ArialMT-69"/>
     <use x="239.0625" xlink:href="#ArialMT-74"/>
     <use x="266.845703125" xlink:href="#ArialMT-65"/>
     <use x="322.4609375" xlink:href="#ArialMT-64"/>
    </g>
   </g>
   <g id="text_13">
    <!-- Activated -->
    <g style="fill:#262626;" transform="translate(553.041646042 69.6480159724)scale(0.144 -0.144)">
     <use xlink:href="#ArialMT-41"/>
     <use x="66.69921875" xlink:href="#ArialMT-63"/>
     <use x="116.69921875" xlink:href="#ArialMT-74"/>
     <use x="144.482421875" xlink:href="#ArialMT-69"/>
     <use x="166.69921875" xlink:href="#ArialMT-76"/>
     <use x="216.69921875" xlink:href="#ArialMT-61"/>
     <use x="272.314453125" xlink:href="#ArialMT-74"/>
     <use x="300.09765625" xlink:href="#ArialMT-65"/>
     <use x="355.712890625" xlink:href="#ArialMT-64"/>
    </g>
   </g>
   <g id="text_14">
    <!-- All reactions -->
    <g style="fill:#262626;" transform="translate(481.966568182 304.304210588)scale(0.144 -0.144)">
     <use xlink:href="#ArialMT-41"/>
     <use x="66.69921875" xlink:href="#ArialMT-6c"/>
     <use x="88.916015625" xlink:href="#ArialMT-6c"/>
     <use x="111.1328125" xlink:href="#ArialMT-20"/>
     <use x="138.916015625" xlink:href="#ArialMT-72"/>
     <use x="172.216796875" xlink:href="#ArialMT-65"/>
     <use x="227.83203125" xlink:href="#ArialMT-61"/>
     <use x="283.447265625" xlink:href="#ArialMT-63"/>
     <use x="333.447265625" xlink:href="#ArialMT-74"/>
     <use x="361.23046875" xlink:href="#ArialMT-69"/>
     <use x="383.447265625" xlink:href="#ArialMT-6f"/>
     <use x="439.0625" xlink:href="#ArialMT-6e"/>
     <use x="494.677734375" xlink:href="#ArialMT-73"/>
    </g>
   </g>
  </g>
 </g>
 <defs>
  <clipPath id="p9056d383b5">
   <rect height="253.636363636" width="253.636363636" x="90.0" y="48.6818181818"/>
  </clipPath>
  <clipPath id="pa49a500414">
   <rect height="253.636363636" width="253.636363636" x="394.363636364" y="48.6818181818"/>
  </clipPath>
 </defs>
</svg>
