<?xml version="1.0" encoding="utf-8" standalone="no"?>
<!DOCTYPE svg PUBLIC "-//W3C//DTD SVG 1.1//EN"
  "http://www.w3.org/Graphics/SVG/1.1/DTD/svg11.dtd">
<!-- Created with matplotlib (http://matplotlib.org/) -->
<svg height="360pt" version="1.1" viewBox="0 0 504 360" width="504pt" xmlns="http://www.w3.org/2000/svg" xmlns:xlink="http://www.w3.org/1999/xlink">
 <defs>
  <style type="text/css">
*{stroke-linecap:butt;stroke-linejoin:round;stroke-miterlimit:100000;}
  </style>
 </defs>
 <g id="figure_1">
  <g id="patch_1">
   <path d="M 0 360 
L 504 360 
L 504 0 
L 0 0 
z
" style="fill:#ffffff;"/>
  </g>
  <g id="axes_1">
   <g id="patch_2">
    <path clip-path="url(#pad882dd0a2)" d="M 190.317874 115.188651 
C 192.625768 116.615791 194.786005 118.268946 196.766668 120.123691 
C 198.74733 121.978436 200.538615 124.025591 202.114055 126.23491 
C 203.759981 127.042797 205.317512 128.019532 206.761539 129.149371 
C 208.205567 130.27921 209.528291 131.556048 210.708388 132.959303 
C 207.879032 129.414501 204.735623 126.132182 201.316405 123.15228 
C 197.897186 120.172377 194.216081 117.507025 190.317874 115.188651 
M 187.628282 113.662842 
C 179.515623 109.277911 170.666979 106.418145 161.522518 105.225801 
C 152.378056 104.033457 143.091962 104.528638 134.126162 106.686713 
C 125.160362 108.844788 116.666028 112.62937 109.065704 117.852197 
C 101.465379 123.075024 94.887212 129.648036 89.658427 137.244263 
C 84.429643 144.84049 80.638403 153.331854 78.473299 162.295959 
C 76.308195 171.260065 75.805733 180.545768 76.990907 189.691162 
C 78.176081 198.836555 81.028908 207.687438 85.407478 215.803533 
C 89.786047 223.919627 95.616532 231.164087 102.6089 237.176545 
C 109.601267 243.189003 117.637621 247.868083 126.318199 250.981027 
C 134.998777 254.093972 144.177216 255.588295 153.396945 255.389662 
C 162.616674 255.19103 171.722239 253.302791 180.260692 249.818874 
C 188.799146 246.334957 196.62652 241.314104 203.353452 235.006074 
C 210.080383 228.698043 215.593449 221.209193 219.618407 212.912051 
C 223.643364 204.614908 226.112349 195.64937 226.902544 186.461419 
C 227.692739 177.273468 226.79082 168.01802 224.241654 159.155481 
C 221.692487 150.292941 217.539053 141.97274 211.987961 134.608758 
C 214.22094 137.734367 215.746935 141.308953 216.459665 145.083558 
C 217.172395 148.858163 217.05492 152.743073 216.115422 156.467717 
C 215.175924 160.19236 213.436732 163.668212 211.018976 166.653188 
C 208.60122 169.638164 205.562364 172.06132 202.114055 173.753889 
C 197.558141 180.142875 191.2593 185.088627 183.971899 187.99883 
C 176.684498 190.909032 168.711551 191.662677 161.00792 190.169506 
C 153.304289 188.676334 146.190295 184.998433 140.51793 179.576278 
C 134.845564 174.154123 130.850688 167.213171 129.011737 159.584688 
C 127.172786 151.956204 127.566226 143.957388 130.144937 136.546198 
C 132.723648 129.135007 137.380406 122.619605 143.557504 117.780292 
C 149.734603 112.94098 157.175195 109.978979 164.988176 109.249027 
C 172.801156 108.519075 180.661656 110.051523 187.628282 113.662842 
" style="fill:#0000ff;opacity:0.4;"/>
   </g>
   <g id="patch_3">
    <path clip-path="url(#pad882dd0a2)" d="M 202.114055 126.23491 
C 200.538615 124.025591 198.74733 121.978436 196.766668 120.123691 
C 194.786005 118.268946 192.625768 116.615791 190.317874 115.188651 
C 189.874882 114.925191 189.429201 114.66628 188.9809 114.411959 
C 188.532599 114.157637 188.081703 113.907918 187.628282 113.662842 
C 180.661656 110.051523 172.801156 108.519075 164.988176 109.249027 
C 157.175195 109.978979 149.734603 112.94098 143.557504 117.780292 
C 137.380406 122.619605 132.723648 129.135007 130.144937 136.546198 
C 127.566226 143.957388 127.172786 151.956204 129.011737 159.584688 
C 130.850688 167.213171 134.845564 174.154123 140.51793 179.576278 
C 146.190295 184.998433 153.304289 188.676334 161.00792 190.169506 
C 168.711551 191.662677 176.684498 190.909032 183.971899 187.99883 
C 191.2593 185.088627 197.558141 180.142875 202.114055 173.753889 
C 198.079155 175.734382 193.605479 176.654789 189.116454 176.427994 
C 184.62743 176.201199 180.269299 174.834591 176.454552 172.457518 
C 172.639804 170.080444 169.492716 166.770344 167.311154 162.840515 
C 165.129592 158.910685 163.984626 154.489149 163.984626 149.994399 
C 163.984626 145.49965 165.129592 141.078114 167.311154 137.148284 
C 169.492716 133.218454 172.639804 129.908355 176.454552 127.531281 
C 180.269299 125.154208 184.62743 123.7876 189.116454 123.560805 
C 193.605479 123.33401 198.079155 124.254417 202.114055 126.23491 
" style="fill:#b200b2;opacity:0.4;"/>
   </g>
   <g id="patch_4">
    <path clip-path="url(#pad882dd0a2)" d="M 202.114055 173.753889 
C 205.562364 172.06132 208.60122 169.638164 211.018976 166.653188 
C 213.436732 163.668212 215.175924 160.19236 216.115422 156.467717 
C 217.05492 152.743073 217.172395 148.858163 216.459665 145.083558 
C 215.746935 141.308953 214.22094 137.734367 211.987961 134.608758 
C 211.778517 134.330913 211.567153 134.054521 211.353883 133.779602 
C 211.140613 133.504683 210.925443 133.231244 210.708388 132.959303 
C 209.528291 131.556048 208.205567 130.27921 206.761539 129.149371 
C 205.317512 128.019532 203.759981 127.042797 202.114055 126.23491 
C 207.05892 133.16934 209.717755 141.477475 209.717755 149.994399 
C 209.717755 158.511324 207.05892 166.819459 202.114055 173.753889 
" style="fill:#0059b2;opacity:0.4;"/>
   </g>
   <g id="patch_5">
    <path clip-path="url(#pad882dd0a2)" d="M 202.114055 173.753889 
C 207.05892 166.819459 209.717755 158.511324 209.717755 149.994399 
C 209.717755 141.477475 207.05892 133.16934 202.114055 126.23491 
C 198.079155 124.254417 193.605479 123.33401 189.116454 123.560805 
C 184.62743 123.7876 180.269299 125.154208 176.454552 127.531281 
C 172.639804 129.908355 169.492716 133.218454 167.311154 137.148284 
C 165.129592 141.078114 163.984626 145.49965 163.984626 149.994399 
C 163.984626 154.489149 165.129592 158.910685 167.311154 162.840515 
C 169.492716 166.770344 172.639804 170.080444 176.454552 172.457518 
C 180.269299 174.834591 184.62743 176.201199 189.116454 176.427994 
C 193.605479 176.654789 198.079155 175.734382 202.114055 173.753889 
" style="fill:#663366;opacity:0.4;"/>
   </g>
   <g id="text_1">
    <!-- 718 -->
    <defs>
     <path d="M 17.671875 38.8125 
Q 12.203125 40.828125 9.5625 44.53125 
Q 6.9375 48.25 6.9375 53.421875 
Q 6.9375 61.234375 12.546875 66.546875 
Q 18.171875 71.875 27.484375 71.875 
Q 36.859375 71.875 42.578125 66.421875 
Q 48.296875 60.984375 48.296875 53.171875 
Q 48.296875 48.1875 45.671875 44.5 
Q 43.0625 40.828125 37.75 38.8125 
Q 44.34375 36.671875 47.78125 31.875 
Q 51.21875 27.09375 51.21875 20.453125 
Q 51.21875 11.28125 44.71875 5.03125 
Q 38.234375 -1.21875 27.640625 -1.21875 
Q 17.046875 -1.21875 10.546875 5.046875 
Q 4.046875 11.328125 4.046875 20.703125 
Q 4.046875 27.6875 7.59375 32.390625 
Q 11.140625 37.109375 17.671875 38.8125 
M 15.921875 53.71875 
Q 15.921875 48.640625 19.1875 45.40625 
Q 22.46875 42.1875 27.6875 42.1875 
Q 32.765625 42.1875 36.015625 45.375 
Q 39.265625 48.578125 39.265625 53.21875 
Q 39.265625 58.0625 35.90625 61.359375 
Q 32.5625 64.65625 27.59375 64.65625 
Q 22.5625 64.65625 19.234375 61.421875 
Q 15.921875 58.203125 15.921875 53.71875 
M 13.09375 20.65625 
Q 13.09375 16.890625 14.875 13.375 
Q 16.65625 9.859375 20.171875 7.921875 
Q 23.6875 6 27.734375 6 
Q 34.03125 6 38.125 10.046875 
Q 42.234375 14.109375 42.234375 20.359375 
Q 42.234375 26.703125 38.015625 30.859375 
Q 33.796875 35.015625 27.4375 35.015625 
Q 21.234375 35.015625 17.15625 30.90625 
Q 13.09375 26.8125 13.09375 20.65625 
" id="ArialMT-38"/>
     <path d="M 37.25 0 
L 28.46875 0 
L 28.46875 56 
Q 25.296875 52.984375 20.140625 49.953125 
Q 14.984375 46.921875 10.890625 45.40625 
L 10.890625 53.90625 
Q 18.265625 57.375 23.78125 62.296875 
Q 29.296875 67.234375 31.59375 71.875 
L 37.25 71.875 
z
" id="ArialMT-31"/>
     <path d="M 4.734375 62.203125 
L 4.734375 70.65625 
L 51.078125 70.65625 
L 51.078125 63.8125 
Q 44.234375 56.546875 37.515625 44.484375 
Q 30.8125 32.421875 27.15625 19.671875 
Q 24.515625 10.6875 23.78125 0 
L 14.75 0 
Q 14.890625 8.453125 18.0625 20.40625 
Q 21.234375 32.375 27.171875 43.484375 
Q 33.109375 54.59375 39.796875 62.203125 
z
" id="ArialMT-37"/>
    </defs>
    <g style="fill:#262626;" transform="translate(120.720467346 198.975069486)scale(0.096 -0.096)">
     <use xlink:href="#ArialMT-37"/>
     <use x="55.615234375" xlink:href="#ArialMT-31"/>
     <use x="111.23046875" xlink:href="#ArialMT-38"/>
    </g>
   </g>
   <g id="text_2">
    <!-- 193 -->
    <defs>
     <path d="M 5.46875 16.546875 
L 13.921875 17.328125 
Q 14.984375 11.375 18.015625 8.6875 
Q 21.046875 6 25.78125 6 
Q 29.828125 6 32.875 7.859375 
Q 35.9375 9.71875 37.890625 12.8125 
Q 39.84375 15.921875 41.15625 21.1875 
Q 42.484375 26.46875 42.484375 31.9375 
Q 42.484375 32.515625 42.4375 33.6875 
Q 39.796875 29.5 35.234375 26.875 
Q 30.671875 24.265625 25.34375 24.265625 
Q 16.453125 24.265625 10.296875 30.703125 
Q 4.15625 37.15625 4.15625 47.703125 
Q 4.15625 58.59375 10.578125 65.234375 
Q 17 71.875 26.65625 71.875 
Q 33.640625 71.875 39.421875 68.109375 
Q 45.21875 64.359375 48.21875 57.390625 
Q 51.21875 50.4375 51.21875 37.25 
Q 51.21875 23.53125 48.234375 15.40625 
Q 45.265625 7.28125 39.375 3.03125 
Q 33.5 -1.21875 25.59375 -1.21875 
Q 17.1875 -1.21875 11.859375 3.4375 
Q 6.546875 8.109375 5.46875 16.546875 
M 41.453125 48.140625 
Q 41.453125 55.71875 37.421875 60.15625 
Q 33.40625 64.59375 27.734375 64.59375 
Q 21.875 64.59375 17.53125 59.8125 
Q 13.1875 55.03125 13.1875 47.40625 
Q 13.1875 40.578125 17.3125 36.296875 
Q 21.4375 32.03125 27.484375 32.03125 
Q 33.59375 32.03125 37.515625 36.296875 
Q 41.453125 40.578125 41.453125 48.140625 
" id="ArialMT-39"/>
     <path d="M 4.203125 18.890625 
L 12.984375 20.0625 
Q 14.5 12.59375 18.140625 9.296875 
Q 21.78125 6 27 6 
Q 33.203125 6 37.46875 10.296875 
Q 41.75 14.59375 41.75 20.953125 
Q 41.75 27 37.796875 30.921875 
Q 33.84375 34.859375 27.734375 34.859375 
Q 25.25 34.859375 21.53125 33.890625 
L 22.515625 41.609375 
Q 23.390625 41.5 23.921875 41.5 
Q 29.546875 41.5 34.03125 44.421875 
Q 38.53125 47.359375 38.53125 53.46875 
Q 38.53125 58.296875 35.25 61.46875 
Q 31.984375 64.65625 26.8125 64.65625 
Q 21.6875 64.65625 18.265625 61.421875 
Q 14.84375 58.203125 13.875 51.765625 
L 5.078125 53.328125 
Q 6.6875 62.15625 12.390625 67.015625 
Q 18.109375 71.875 26.609375 71.875 
Q 32.46875 71.875 37.390625 69.359375 
Q 42.328125 66.84375 44.9375 62.5 
Q 47.5625 58.15625 47.5625 53.265625 
Q 47.5625 48.640625 45.0625 44.828125 
Q 42.578125 41.015625 37.703125 38.765625 
Q 44.046875 37.3125 47.5625 32.6875 
Q 51.078125 28.078125 51.078125 21.140625 
Q 51.078125 11.765625 44.234375 5.25 
Q 37.40625 -1.265625 26.953125 -1.265625 
Q 17.53125 -1.265625 11.296875 4.34375 
Q 5.078125 9.96875 4.203125 18.890625 
" id="ArialMT-33"/>
    </defs>
    <g style="fill:#262626;" transform="translate(139.889899797 155.841749251)scale(0.096 -0.096)">
     <use xlink:href="#ArialMT-31"/>
     <use x="55.615234375" xlink:href="#ArialMT-39"/>
     <use x="111.23046875" xlink:href="#ArialMT-33"/>
    </g>
   </g>
   <g id="text_3">
    <!-- 15 -->
    <defs>
     <path d="M 4.15625 18.75 
L 13.375 19.53125 
Q 14.40625 12.796875 18.140625 9.390625 
Q 21.875 6 27.15625 6 
Q 33.5 6 37.890625 10.78125 
Q 42.28125 15.578125 42.28125 23.484375 
Q 42.28125 31 38.0625 35.34375 
Q 33.84375 39.703125 27 39.703125 
Q 22.75 39.703125 19.328125 37.765625 
Q 15.921875 35.84375 13.96875 32.765625 
L 5.71875 33.84375 
L 12.640625 70.609375 
L 48.25 70.609375 
L 48.25 62.203125 
L 19.671875 62.203125 
L 15.828125 42.96875 
Q 22.265625 47.46875 29.34375 47.46875 
Q 38.71875 47.46875 45.15625 40.96875 
Q 51.609375 34.46875 51.609375 24.265625 
Q 51.609375 14.546875 45.953125 7.46875 
Q 39.0625 -1.21875 27.15625 -1.21875 
Q 17.390625 -1.21875 11.203125 4.25 
Q 5.03125 9.71875 4.15625 18.75 
" id="ArialMT-35"/>
    </defs>
    <g style="fill:#262626;" transform="translate(207.281629113 153.098048193)scale(0.096 -0.096)">
     <use xlink:href="#ArialMT-31"/>
     <use x="55.615234375" xlink:href="#ArialMT-35"/>
    </g>
   </g>
   <g id="text_4">
    <!-- 113 -->
    <g style="fill:#262626;" transform="translate(178.848690757 152.476149446)scale(0.096 -0.096)">
     <use xlink:href="#ArialMT-31"/>
     <use x="55.505859375" xlink:href="#ArialMT-31"/>
     <use x="111.12109375" xlink:href="#ArialMT-33"/>
    </g>
   </g>
   <g id="text_5">
    <!-- inhibitors -->
    <defs>
     <path d="M 14.703125 0 
L 6.546875 0 
L 6.546875 71.578125 
L 15.328125 71.578125 
L 15.328125 46.046875 
Q 20.90625 53.03125 29.546875 53.03125 
Q 34.328125 53.03125 38.59375 51.09375 
Q 42.875 49.171875 45.625 45.671875 
Q 48.390625 42.1875 49.953125 37.25 
Q 51.515625 32.328125 51.515625 26.703125 
Q 51.515625 13.375 44.921875 6.09375 
Q 38.328125 -1.171875 29.109375 -1.171875 
Q 19.921875 -1.171875 14.703125 6.5 
z
M 14.59375 26.3125 
Q 14.59375 17 17.140625 12.84375 
Q 21.296875 6.0625 28.375 6.0625 
Q 34.125 6.0625 38.328125 11.0625 
Q 42.53125 16.0625 42.53125 25.984375 
Q 42.53125 36.140625 38.5 40.96875 
Q 34.46875 45.796875 28.765625 45.796875 
Q 23 45.796875 18.796875 40.796875 
Q 14.59375 35.796875 14.59375 26.3125 
" id="ArialMT-62"/>
     <path d="M 25.78125 7.859375 
L 27.046875 0.09375 
Q 23.34375 -0.6875 20.40625 -0.6875 
Q 15.625 -0.6875 12.984375 0.828125 
Q 10.359375 2.34375 9.28125 4.8125 
Q 8.203125 7.28125 8.203125 15.1875 
L 8.203125 45.015625 
L 1.765625 45.015625 
L 1.765625 51.859375 
L 8.203125 51.859375 
L 8.203125 64.703125 
L 16.9375 69.96875 
L 16.9375 51.859375 
L 25.78125 51.859375 
L 25.78125 45.015625 
L 16.9375 45.015625 
L 16.9375 14.703125 
Q 16.9375 10.9375 17.40625 9.859375 
Q 17.875 8.796875 18.921875 8.15625 
Q 19.96875 7.515625 21.921875 7.515625 
Q 23.390625 7.515625 25.78125 7.859375 
" id="ArialMT-74"/>
     <path d="M 6.640625 61.46875 
L 6.640625 71.578125 
L 15.4375 71.578125 
L 15.4375 61.46875 
z
M 6.640625 0 
L 6.640625 51.859375 
L 15.4375 51.859375 
L 15.4375 0 
z
" id="ArialMT-69"/>
     <path d="M 6.59375 0 
L 6.59375 71.578125 
L 15.375 71.578125 
L 15.375 45.90625 
Q 21.53125 53.03125 30.90625 53.03125 
Q 36.671875 53.03125 40.921875 50.75 
Q 45.171875 48.484375 47 44.484375 
Q 48.828125 40.484375 48.828125 32.859375 
L 48.828125 0 
L 40.046875 0 
L 40.046875 32.859375 
Q 40.046875 39.453125 37.1875 42.453125 
Q 34.328125 45.453125 29.109375 45.453125 
Q 25.203125 45.453125 21.75 43.421875 
Q 18.3125 41.40625 16.84375 37.9375 
Q 15.375 34.46875 15.375 28.375 
L 15.375 0 
z
" id="ArialMT-68"/>
     <path d="M 6.5 0 
L 6.5 51.859375 
L 14.40625 51.859375 
L 14.40625 44 
Q 17.4375 49.515625 20 51.265625 
Q 22.5625 53.03125 25.640625 53.03125 
Q 30.078125 53.03125 34.671875 50.203125 
L 31.640625 42.046875 
Q 28.421875 43.953125 25.203125 43.953125 
Q 22.3125 43.953125 20.015625 42.21875 
Q 17.71875 40.484375 16.75 37.40625 
Q 15.28125 32.71875 15.28125 27.15625 
L 15.28125 0 
z
" id="ArialMT-72"/>
     <path d="M 3.078125 15.484375 
L 11.765625 16.84375 
Q 12.5 11.625 15.84375 8.84375 
Q 19.1875 6.0625 25.203125 6.0625 
Q 31.25 6.0625 34.171875 8.515625 
Q 37.109375 10.984375 37.109375 14.3125 
Q 37.109375 17.28125 34.515625 19 
Q 32.71875 20.171875 25.53125 21.96875 
Q 15.875 24.421875 12.140625 26.203125 
Q 8.40625 27.984375 6.46875 31.125 
Q 4.546875 34.28125 4.546875 38.09375 
Q 4.546875 41.546875 6.125 44.5 
Q 7.71875 47.46875 10.453125 49.421875 
Q 12.5 50.921875 16.03125 51.96875 
Q 19.578125 53.03125 23.640625 53.03125 
Q 29.734375 53.03125 34.34375 51.265625 
Q 38.96875 49.515625 41.15625 46.5 
Q 43.359375 43.5 44.1875 38.484375 
L 35.59375 37.3125 
Q 35.015625 41.3125 32.203125 43.546875 
Q 29.390625 45.796875 24.265625 45.796875 
Q 18.21875 45.796875 15.625 43.796875 
Q 13.03125 41.796875 13.03125 39.109375 
Q 13.03125 37.40625 14.109375 36.03125 
Q 15.1875 34.625 17.484375 33.6875 
Q 18.796875 33.203125 25.25 31.453125 
Q 34.578125 28.953125 38.25 27.359375 
Q 41.9375 25.78125 44.03125 22.75 
Q 46.140625 19.734375 46.140625 15.234375 
Q 46.140625 10.84375 43.578125 6.953125 
Q 41.015625 3.078125 36.171875 0.953125 
Q 31.34375 -1.171875 25.25 -1.171875 
Q 15.140625 -1.171875 9.84375 3.03125 
Q 4.546875 7.234375 3.078125 15.484375 
" id="ArialMT-73"/>
     <path d="M 3.328125 25.921875 
Q 3.328125 40.328125 11.328125 47.265625 
Q 18.015625 53.03125 27.640625 53.03125 
Q 38.328125 53.03125 45.109375 46.015625 
Q 51.90625 39.015625 51.90625 26.65625 
Q 51.90625 16.65625 48.90625 10.90625 
Q 45.90625 5.171875 40.15625 2 
Q 34.421875 -1.171875 27.640625 -1.171875 
Q 16.75 -1.171875 10.03125 5.8125 
Q 3.328125 12.796875 3.328125 25.921875 
M 12.359375 25.921875 
Q 12.359375 15.96875 16.703125 11.015625 
Q 21.046875 6.0625 27.640625 6.0625 
Q 34.1875 6.0625 38.53125 11.03125 
Q 42.875 16.015625 42.875 26.21875 
Q 42.875 35.84375 38.5 40.796875 
Q 34.125 45.75 27.640625 45.75 
Q 21.046875 45.75 16.703125 40.8125 
Q 12.359375 35.890625 12.359375 25.921875 
" id="ArialMT-6f"/>
     <path d="M 6.59375 0 
L 6.59375 51.859375 
L 14.5 51.859375 
L 14.5 44.484375 
Q 20.21875 53.03125 31 53.03125 
Q 35.6875 53.03125 39.625 51.34375 
Q 43.5625 49.65625 45.515625 46.921875 
Q 47.46875 44.1875 48.25 40.4375 
Q 48.734375 37.984375 48.734375 31.890625 
L 48.734375 0 
L 39.9375 0 
L 39.9375 31.546875 
Q 39.9375 36.921875 38.90625 39.578125 
Q 37.890625 42.234375 35.28125 43.8125 
Q 32.671875 45.40625 29.15625 45.40625 
Q 23.53125 45.40625 19.453125 41.84375 
Q 15.375 38.28125 15.375 28.328125 
L 15.375 0 
z
" id="ArialMT-6e"/>
    </defs>
    <g style="fill:#262626;" transform="translate(102.233731874 109.07158398)scale(0.1152 -0.1152)">
     <use xlink:href="#ArialMT-69"/>
     <use x="22.216796875" xlink:href="#ArialMT-6e"/>
     <use x="77.83203125" xlink:href="#ArialMT-68"/>
     <use x="133.447265625" xlink:href="#ArialMT-69"/>
     <use x="155.6640625" xlink:href="#ArialMT-62"/>
     <use x="211.279296875" xlink:href="#ArialMT-69"/>
     <use x="233.49609375" xlink:href="#ArialMT-74"/>
     <use x="261.279296875" xlink:href="#ArialMT-6f"/>
     <use x="316.89453125" xlink:href="#ArialMT-72"/>
     <use x="350.1953125" xlink:href="#ArialMT-73"/>
    </g>
   </g>
   <g id="text_6">
    <!-- activators -->
    <defs>
     <path d="M 40.4375 19 
L 49.078125 17.875 
Q 47.65625 8.9375 41.8125 3.875 
Q 35.984375 -1.171875 27.484375 -1.171875 
Q 16.84375 -1.171875 10.375 5.78125 
Q 3.90625 12.75 3.90625 25.734375 
Q 3.90625 34.125 6.6875 40.421875 
Q 9.46875 46.734375 15.15625 49.875 
Q 20.84375 53.03125 27.546875 53.03125 
Q 35.984375 53.03125 41.359375 48.75 
Q 46.734375 44.484375 48.25 36.625 
L 39.703125 35.296875 
Q 38.484375 40.53125 35.375 43.15625 
Q 32.28125 45.796875 27.875 45.796875 
Q 21.234375 45.796875 17.078125 41.03125 
Q 12.9375 36.28125 12.9375 25.984375 
Q 12.9375 15.53125 16.9375 10.796875 
Q 20.953125 6.0625 27.390625 6.0625 
Q 32.5625 6.0625 36.03125 9.234375 
Q 39.5 12.40625 40.4375 19 
" id="ArialMT-63"/>
     <path d="M 40.4375 6.390625 
Q 35.546875 2.25 31.03125 0.53125 
Q 26.515625 -1.171875 21.34375 -1.171875 
Q 12.796875 -1.171875 8.203125 3 
Q 3.609375 7.171875 3.609375 13.671875 
Q 3.609375 17.484375 5.34375 20.625 
Q 7.078125 23.78125 9.890625 25.6875 
Q 12.703125 27.59375 16.21875 28.5625 
Q 18.796875 29.25 24.03125 29.890625 
Q 34.671875 31.15625 39.703125 32.90625 
Q 39.75 34.71875 39.75 35.203125 
Q 39.75 40.578125 37.25 42.78125 
Q 33.890625 45.75 27.25 45.75 
Q 21.046875 45.75 18.09375 43.578125 
Q 15.140625 41.40625 13.71875 35.890625 
L 5.125 37.0625 
Q 6.296875 42.578125 8.984375 45.96875 
Q 11.671875 49.359375 16.75 51.1875 
Q 21.828125 53.03125 28.515625 53.03125 
Q 35.15625 53.03125 39.296875 51.46875 
Q 43.453125 49.90625 45.40625 47.53125 
Q 47.359375 45.171875 48.140625 41.546875 
Q 48.578125 39.3125 48.578125 33.453125 
L 48.578125 21.734375 
Q 48.578125 9.46875 49.140625 6.21875 
Q 49.703125 2.984375 51.375 0 
L 42.1875 0 
Q 40.828125 2.734375 40.4375 6.390625 
M 39.703125 26.03125 
Q 34.90625 24.078125 25.34375 22.703125 
Q 19.921875 21.921875 17.671875 20.9375 
Q 15.4375 19.96875 14.203125 18.09375 
Q 12.984375 16.21875 12.984375 13.921875 
Q 12.984375 10.40625 15.640625 8.0625 
Q 18.3125 5.71875 23.4375 5.71875 
Q 28.515625 5.71875 32.46875 7.9375 
Q 36.421875 10.15625 38.28125 14.015625 
Q 39.703125 17 39.703125 22.796875 
z
" id="ArialMT-61"/>
     <path d="M 21 0 
L 1.265625 51.859375 
L 10.546875 51.859375 
L 21.6875 20.796875 
Q 23.484375 15.765625 25 10.359375 
Q 26.171875 14.453125 28.265625 20.21875 
L 39.796875 51.859375 
L 48.828125 51.859375 
L 29.203125 0 
z
" id="ArialMT-76"/>
    </defs>
    <g style="fill:#262626;" transform="translate(203.685588949 123.527091107)scale(0.1152 -0.1152)">
     <use xlink:href="#ArialMT-61"/>
     <use x="55.615234375" xlink:href="#ArialMT-63"/>
     <use x="105.615234375" xlink:href="#ArialMT-74"/>
     <use x="133.3984375" xlink:href="#ArialMT-69"/>
     <use x="155.615234375" xlink:href="#ArialMT-76"/>
     <use x="205.615234375" xlink:href="#ArialMT-61"/>
     <use x="261.23046875" xlink:href="#ArialMT-74"/>
     <use x="289.013671875" xlink:href="#ArialMT-6f"/>
     <use x="344.62890625" xlink:href="#ArialMT-72"/>
     <use x="377.9296875" xlink:href="#ArialMT-73"/>
    </g>
   </g>
   <g id="text_7">
    <!-- E. coli metabolites -->
    <defs>
     <path d="M 42.09375 16.703125 
L 51.171875 15.578125 
Q 49.03125 7.625 43.21875 3.21875 
Q 37.40625 -1.171875 28.375 -1.171875 
Q 17 -1.171875 10.328125 5.828125 
Q 3.65625 12.84375 3.65625 25.484375 
Q 3.65625 38.578125 10.390625 45.796875 
Q 17.140625 53.03125 27.875 53.03125 
Q 38.28125 53.03125 44.875 45.953125 
Q 51.46875 38.875 51.46875 26.03125 
Q 51.46875 25.25 51.421875 23.6875 
L 12.75 23.6875 
Q 13.234375 15.140625 17.578125 10.59375 
Q 21.921875 6.0625 28.421875 6.0625 
Q 33.25 6.0625 36.671875 8.59375 
Q 40.09375 11.140625 42.09375 16.703125 
M 13.234375 30.90625 
L 42.1875 30.90625 
Q 41.609375 37.453125 38.875 40.71875 
Q 34.671875 45.796875 27.984375 45.796875 
Q 21.921875 45.796875 17.796875 41.75 
Q 13.671875 37.703125 13.234375 30.90625 
" id="ArialMT-65"/>
     <path d="M 9.078125 0 
L 9.078125 10.015625 
L 19.09375 10.015625 
L 19.09375 0 
z
" id="ArialMT-2e"/>
     <path d="M 7.90625 0 
L 7.90625 71.578125 
L 59.671875 71.578125 
L 59.671875 63.140625 
L 17.390625 63.140625 
L 17.390625 41.21875 
L 56.984375 41.21875 
L 56.984375 32.8125 
L 17.390625 32.8125 
L 17.390625 8.453125 
L 61.328125 8.453125 
L 61.328125 0 
z
" id="ArialMT-45"/>
     <path d="M 6.390625 0 
L 6.390625 71.578125 
L 15.1875 71.578125 
L 15.1875 0 
z
" id="ArialMT-6c"/>
     <path d="M 6.59375 0 
L 6.59375 51.859375 
L 14.453125 51.859375 
L 14.453125 44.578125 
Q 16.890625 48.390625 20.9375 50.703125 
Q 25 53.03125 30.171875 53.03125 
Q 35.9375 53.03125 39.625 50.640625 
Q 43.3125 48.25 44.828125 43.953125 
Q 50.984375 53.03125 60.84375 53.03125 
Q 68.5625 53.03125 72.703125 48.75 
Q 76.859375 44.484375 76.859375 35.59375 
L 76.859375 0 
L 68.109375 0 
L 68.109375 32.671875 
Q 68.109375 37.9375 67.25 40.25 
Q 66.40625 42.578125 64.15625 43.984375 
Q 61.921875 45.40625 58.890625 45.40625 
Q 53.421875 45.40625 49.796875 41.765625 
Q 46.1875 38.140625 46.1875 30.125 
L 46.1875 0 
L 37.40625 0 
L 37.40625 33.6875 
Q 37.40625 39.546875 35.25 42.46875 
Q 33.109375 45.40625 28.21875 45.40625 
Q 24.515625 45.40625 21.359375 43.453125 
Q 18.21875 41.5 16.796875 37.734375 
Q 15.375 33.984375 15.375 26.90625 
L 15.375 0 
z
" id="ArialMT-6d"/>
     <path id="ArialMT-20"/>
    </defs>
    <g style="fill:#262626;" transform="translate(105.033927273 271.193672412)scale(0.1152 -0.1152)">
     <use xlink:href="#ArialMT-45"/>
     <use x="66.69921875" xlink:href="#ArialMT-2e"/>
     <use x="94.482421875" xlink:href="#ArialMT-20"/>
     <use x="122.265625" xlink:href="#ArialMT-63"/>
     <use x="172.265625" xlink:href="#ArialMT-6f"/>
     <use x="227.880859375" xlink:href="#ArialMT-6c"/>
     <use x="250.09765625" xlink:href="#ArialMT-69"/>
     <use x="272.314453125" xlink:href="#ArialMT-20"/>
     <use x="300.09765625" xlink:href="#ArialMT-6d"/>
     <use x="383.3984375" xlink:href="#ArialMT-65"/>
     <use x="439.013671875" xlink:href="#ArialMT-74"/>
     <use x="466.796875" xlink:href="#ArialMT-61"/>
     <use x="522.412109375" xlink:href="#ArialMT-62"/>
     <use x="578.02734375" xlink:href="#ArialMT-6f"/>
     <use x="633.642578125" xlink:href="#ArialMT-6c"/>
     <use x="655.859375" xlink:href="#ArialMT-69"/>
     <use x="678.076171875" xlink:href="#ArialMT-74"/>
     <use x="705.859375" xlink:href="#ArialMT-65"/>
     <use x="761.474609375" xlink:href="#ArialMT-73"/>
    </g>
   </g>
   <g id="text_8">
    <!-- a -->
    <g style="fill:#262626;" transform="translate(66.5509090909 109.093806818)scale(0.2 -0.2)">
     <use xlink:href="#ArialMT-61"/>
    </g>
   </g>
  </g>
  <g id="axes_2">
   <g id="patch_6">
    <path clip-path="url(#pa3f3e80a1d)" d="M 391.621996 109.513958 
C 396.954131 111.612414 401.922143 114.538665 406.342707 118.18473 
C 410.763271 121.830795 414.581335 126.151268 417.656007 130.986716 
C 420.418766 132.432547 422.962765 134.262593 425.212053 136.422215 
C 427.46134 138.581837 429.393306 141.049328 430.950269 143.751018 
C 426.67356 135.949729 421.049792 128.966502 414.339591 123.124965 
C 407.629391 117.283429 399.938043 112.675239 391.621996 109.513958 
M 387.290541 108.016385 
C 379.047666 105.444106 370.423872 104.306678 361.795945 104.653797 
C 353.168019 105.000915 344.663471 106.827451 336.653878 110.053598 
C 328.644285 113.279746 321.24802 117.857827 314.788236 123.587819 
C 308.328453 129.317812 302.90062 136.115031 298.741886 143.682497 
C 294.583153 151.249964 291.754982 159.475838 290.380939 168.000721 
C 289.006896 176.525603 289.107289 185.223504 290.677731 193.714401 
C 292.248173 202.205297 295.265455 210.363702 299.597747 217.833164 
C 303.930039 225.302625 309.513315 231.972752 316.103633 237.552118 
C 322.693952 243.131483 330.193914 247.537629 338.275837 250.578046 
C 346.35776 253.618462 354.902201 255.248215 363.535841 255.396097 
C 372.169481 255.54398 380.764724 254.207806 388.946032 251.445957 
C 397.12734 248.684107 404.773801 244.537398 411.551331 239.187006 
C 418.328861 233.836613 424.137295 227.361611 428.722854 220.0449 
C 433.308413 212.728189 436.603327 204.677903 438.463638 196.245771 
C 440.323948 187.813638 440.722161 179.124277 439.640877 170.557339 
C 438.559594 161.9904 436.014795 153.672494 432.117666 145.967042 
C 435.812861 153.677486 436.371431 162.529867 433.674717 170.64363 
C 430.978002 178.757393 425.231515 185.514206 417.656007 189.478687 
C 412.214945 198.035687 404.492362 204.906846 395.360688 209.315919 
C 386.229014 213.724993 376.045576 215.499451 365.96081 214.438832 
C 355.876045 213.378213 346.284575 209.524019 338.269961 203.311663 
C 330.255347 197.099307 324.131205 188.771883 320.589388 179.270149 
C 317.047571 169.768416 316.226672 159.464182 318.219429 149.52153 
C 320.212187 139.578878 324.940622 130.38687 331.870558 122.983939 
C 338.800494 115.581008 347.660759 110.256835 357.450397 107.612898 
C 367.240034 104.968961 377.57597 105.10872 387.290541 108.016385 
" style="fill:#0000ff;opacity:0.4;"/>
   </g>
   <g id="patch_7">
    <path clip-path="url(#pa3f3e80a1d)" d="M 417.656007 130.986716 
C 414.581335 126.151268 410.763271 121.830795 406.342707 118.18473 
C 401.922143 114.538665 396.954131 111.612414 391.621996 109.513958 
C 390.907881 109.242493 390.189683 108.981896 389.467649 108.732257 
C 388.745614 108.482618 388.019828 108.243967 387.290541 108.016385 
C 377.57597 105.10872 367.240034 104.968961 357.450397 107.612898 
C 347.660759 110.256835 338.800494 115.581008 331.870558 122.983939 
C 324.940622 130.38687 320.212187 139.578878 318.219429 149.52153 
C 316.226672 159.464182 317.047571 169.768416 320.589388 179.270149 
C 324.131205 188.771883 330.255347 197.099307 338.269961 203.311663 
C 346.284575 209.524019 355.876045 213.378213 365.96081 214.438832 
C 376.045576 215.499451 386.229014 213.724993 395.360688 209.315919 
C 404.492362 204.906846 412.214945 198.035687 417.656007 189.478687 
C 412.625378 192.11136 406.999554 193.402048 401.32443 193.225511 
C 395.649307 193.048974 390.114581 191.411113 385.25731 188.470856 
C 380.40004 185.530599 376.382583 181.386227 373.59477 176.439886 
C 370.806957 171.493545 369.341974 165.91057 369.341974 160.232702 
C 369.341974 154.554833 370.806957 148.971859 373.59477 144.025517 
C 376.382583 139.079176 380.40004 134.934804 385.25731 131.994547 
C 390.114581 129.05429 395.649307 127.416429 401.32443 127.239892 
C 406.999554 127.063355 412.625378 128.354044 417.656007 130.986716 
" style="fill:#b200b2;opacity:0.4;"/>
   </g>
   <g id="patch_8">
    <path clip-path="url(#pa3f3e80a1d)" d="M 417.656007 189.478687 
C 425.231515 185.514206 430.978002 178.757393 433.674717 170.64363 
C 436.371431 162.529867 435.812861 153.677486 432.117666 145.967042 
C 431.929251 145.594505 431.737745 145.223539 431.543169 144.854182 
C 431.348593 144.484826 431.150952 144.117092 430.950269 143.751018 
C 429.393306 141.049328 427.46134 138.581837 425.212053 136.422215 
C 422.962765 134.262593 420.418766 132.432547 417.656007 130.986716 
C 423.213998 139.727608 426.166781 149.874398 426.166781 160.232702 
C 426.166781 170.591005 423.213998 180.737795 417.656007 189.478687 
" style="fill:#0059b2;opacity:0.4;"/>
   </g>
   <g id="patch_9">
    <path clip-path="url(#pa3f3e80a1d)" d="M 417.656007 189.478687 
C 423.213998 180.737795 426.166781 170.591005 426.166781 160.232702 
C 426.166781 149.874398 423.213998 139.727608 417.656007 130.986716 
C 412.625378 128.354044 406.999554 127.063355 401.32443 127.239892 
C 395.649307 127.416429 390.114581 129.05429 385.25731 131.994547 
C 380.40004 134.934804 376.382583 139.079176 373.59477 144.025517 
C 370.806957 148.971859 369.341974 154.554833 369.341974 160.232702 
C 369.341974 165.91057 370.806957 171.493545 373.59477 176.439886 
C 376.382583 181.386227 380.40004 185.530599 385.25731 188.470856 
C 390.114581 191.411113 395.649307 193.048974 401.32443 193.225511 
C 406.999554 193.402048 412.625378 192.11136 417.656007 189.478687 
" style="fill:#663366;opacity:0.4;"/>
   </g>
   <g id="text_9">
    <!-- 304 -->
    <defs>
     <path d="M 4.15625 35.296875 
Q 4.15625 48 6.765625 55.734375 
Q 9.375 63.484375 14.515625 67.671875 
Q 19.671875 71.875 27.484375 71.875 
Q 33.25 71.875 37.59375 69.546875 
Q 41.9375 67.234375 44.765625 62.859375 
Q 47.609375 58.5 49.21875 52.21875 
Q 50.828125 45.953125 50.828125 35.296875 
Q 50.828125 22.703125 48.234375 14.96875 
Q 45.65625 7.234375 40.5 3 
Q 35.359375 -1.21875 27.484375 -1.21875 
Q 17.140625 -1.21875 11.234375 6.203125 
Q 4.15625 15.140625 4.15625 35.296875 
M 13.1875 35.296875 
Q 13.1875 17.671875 17.3125 11.828125 
Q 21.4375 6 27.484375 6 
Q 33.546875 6 37.671875 11.859375 
Q 41.796875 17.71875 41.796875 35.296875 
Q 41.796875 52.984375 37.671875 58.78125 
Q 33.546875 64.59375 27.390625 64.59375 
Q 21.34375 64.59375 17.71875 59.46875 
Q 13.1875 52.9375 13.1875 35.296875 
" id="ArialMT-30"/>
     <path d="M 32.328125 0 
L 32.328125 17.140625 
L 1.265625 17.140625 
L 1.265625 25.203125 
L 33.9375 71.578125 
L 41.109375 71.578125 
L 41.109375 25.203125 
L 50.78125 25.203125 
L 50.78125 17.140625 
L 41.109375 17.140625 
L 41.109375 0 
z
M 32.328125 25.203125 
L 32.328125 57.46875 
L 9.90625 25.203125 
z
" id="ArialMT-34"/>
    </defs>
    <g style="fill:#262626;" transform="translate(325.593184938 208.49186749)scale(0.096 -0.096)">
     <use xlink:href="#ArialMT-33"/>
     <use x="55.615234375" xlink:href="#ArialMT-30"/>
     <use x="111.23046875" xlink:href="#ArialMT-34"/>
    </g>
   </g>
   <g id="text_10">
    <!-- 236 -->
    <defs>
     <path d="M 50.34375 8.453125 
L 50.34375 0 
L 3.03125 0 
Q 2.9375 3.171875 4.046875 6.109375 
Q 5.859375 10.9375 9.828125 15.625 
Q 13.8125 20.3125 21.34375 26.46875 
Q 33.015625 36.03125 37.109375 41.625 
Q 41.21875 47.21875 41.21875 52.203125 
Q 41.21875 57.421875 37.46875 61 
Q 33.734375 64.59375 27.734375 64.59375 
Q 21.390625 64.59375 17.578125 60.78125 
Q 13.765625 56.984375 13.71875 50.25 
L 4.6875 51.171875 
Q 5.609375 61.28125 11.65625 66.578125 
Q 17.71875 71.875 27.9375 71.875 
Q 38.234375 71.875 44.234375 66.15625 
Q 50.25 60.453125 50.25 52 
Q 50.25 47.703125 48.484375 43.546875 
Q 46.734375 39.40625 42.65625 34.8125 
Q 38.578125 30.21875 29.109375 22.21875 
Q 21.1875 15.578125 18.9375 13.203125 
Q 16.703125 10.84375 15.234375 8.453125 
z
" id="ArialMT-32"/>
     <path d="M 49.75 54.046875 
L 41.015625 53.375 
Q 39.84375 58.546875 37.703125 60.890625 
Q 34.125 64.65625 28.90625 64.65625 
Q 24.703125 64.65625 21.53125 62.3125 
Q 17.390625 59.28125 14.984375 53.46875 
Q 12.59375 47.65625 12.5 36.921875 
Q 15.671875 41.75 20.265625 44.09375 
Q 24.859375 46.4375 29.890625 46.4375 
Q 38.671875 46.4375 44.84375 39.96875 
Q 51.03125 33.5 51.03125 23.25 
Q 51.03125 16.5 48.125 10.71875 
Q 45.21875 4.9375 40.140625 1.859375 
Q 35.0625 -1.21875 28.609375 -1.21875 
Q 17.625 -1.21875 10.6875 6.859375 
Q 3.765625 14.9375 3.765625 33.5 
Q 3.765625 54.25 11.421875 63.671875 
Q 18.109375 71.875 29.4375 71.875 
Q 37.890625 71.875 43.28125 67.140625 
Q 48.6875 62.40625 49.75 54.046875 
M 13.875 23.1875 
Q 13.875 18.65625 15.796875 14.5 
Q 17.71875 10.359375 21.1875 8.171875 
Q 24.65625 6 28.46875 6 
Q 34.03125 6 38.03125 10.484375 
Q 42.046875 14.984375 42.046875 22.703125 
Q 42.046875 30.125 38.078125 34.390625 
Q 34.125 38.671875 28.125 38.671875 
Q 22.171875 38.671875 18.015625 34.390625 
Q 13.875 30.125 13.875 23.1875 
" id="ArialMT-36"/>
    </defs>
    <g style="fill:#262626;" transform="translate(340.561696533 168.656919955)scale(0.096 -0.096)">
     <use xlink:href="#ArialMT-32"/>
     <use x="55.615234375" xlink:href="#ArialMT-33"/>
     <use x="111.23046875" xlink:href="#ArialMT-36"/>
    </g>
   </g>
   <g id="text_11">
    <!-- 15 -->
    <g style="fill:#262626;" transform="translate(424.246089834 163.327342092)scale(0.096 -0.096)">
     <use xlink:href="#ArialMT-31"/>
     <use x="55.615234375" xlink:href="#ArialMT-35"/>
    </g>
   </g>
   <g id="text_12">
    <!-- 113 -->
    <g style="fill:#262626;" transform="translate(389.751877511 162.714451619)scale(0.096 -0.096)">
     <use xlink:href="#ArialMT-31"/>
     <use x="55.505859375" xlink:href="#ArialMT-31"/>
     <use x="111.12109375" xlink:href="#ArialMT-33"/>
    </g>
   </g>
   <g id="text_13">
    <!-- inhibited -->
    <defs>
     <path d="M 40.234375 0 
L 40.234375 6.546875 
Q 35.296875 -1.171875 25.734375 -1.171875 
Q 19.53125 -1.171875 14.328125 2.25 
Q 9.125 5.671875 6.265625 11.796875 
Q 3.421875 17.921875 3.421875 25.875 
Q 3.421875 33.640625 6 39.96875 
Q 8.59375 46.296875 13.765625 49.65625 
Q 18.953125 53.03125 25.34375 53.03125 
Q 30.03125 53.03125 33.6875 51.046875 
Q 37.359375 49.078125 39.65625 45.90625 
L 39.65625 71.578125 
L 48.390625 71.578125 
L 48.390625 0 
z
M 12.453125 25.875 
Q 12.453125 15.921875 16.640625 10.984375 
Q 20.84375 6.0625 26.5625 6.0625 
Q 32.328125 6.0625 36.34375 10.765625 
Q 40.375 15.484375 40.375 25.140625 
Q 40.375 35.796875 36.265625 40.765625 
Q 32.171875 45.75 26.171875 45.75 
Q 20.3125 45.75 16.375 40.96875 
Q 12.453125 36.1875 12.453125 25.875 
" id="ArialMT-64"/>
    </defs>
    <g style="fill:#262626;" transform="translate(301.498948185 105.727613255)scale(0.1152 -0.1152)">
     <use xlink:href="#ArialMT-69"/>
     <use x="22.216796875" xlink:href="#ArialMT-6e"/>
     <use x="77.83203125" xlink:href="#ArialMT-68"/>
     <use x="133.447265625" xlink:href="#ArialMT-69"/>
     <use x="155.6640625" xlink:href="#ArialMT-62"/>
     <use x="211.279296875" xlink:href="#ArialMT-69"/>
     <use x="233.49609375" xlink:href="#ArialMT-74"/>
     <use x="261.279296875" xlink:href="#ArialMT-65"/>
     <use x="316.89453125" xlink:href="#ArialMT-64"/>
    </g>
   </g>
   <g id="text_14">
    <!-- activated -->
    <g style="fill:#262626;" transform="translate(418.855126762 127.223933306)scale(0.1152 -0.1152)">
     <use xlink:href="#ArialMT-61"/>
     <use x="55.615234375" xlink:href="#ArialMT-63"/>
     <use x="105.615234375" xlink:href="#ArialMT-74"/>
     <use x="133.3984375" xlink:href="#ArialMT-69"/>
     <use x="155.615234375" xlink:href="#ArialMT-76"/>
     <use x="205.615234375" xlink:href="#ArialMT-61"/>
     <use x="261.23046875" xlink:href="#ArialMT-74"/>
     <use x="289.013671875" xlink:href="#ArialMT-65"/>
     <use x="344.62890625" xlink:href="#ArialMT-64"/>
    </g>
   </g>
   <g id="text_15">
    <!-- E. coli reactions -->
    <g style="fill:#262626;" transform="translate(324.171572727 271.193672412)scale(0.1152 -0.1152)">
     <use xlink:href="#ArialMT-45"/>
     <use x="66.69921875" xlink:href="#ArialMT-2e"/>
     <use x="94.482421875" xlink:href="#ArialMT-20"/>
     <use x="122.265625" xlink:href="#ArialMT-63"/>
     <use x="172.265625" xlink:href="#ArialMT-6f"/>
     <use x="227.880859375" xlink:href="#ArialMT-6c"/>
     <use x="250.09765625" xlink:href="#ArialMT-69"/>
     <use x="272.314453125" xlink:href="#ArialMT-20"/>
     <use x="300.09765625" xlink:href="#ArialMT-72"/>
     <use x="333.3984375" xlink:href="#ArialMT-65"/>
     <use x="389.013671875" xlink:href="#ArialMT-61"/>
     <use x="444.62890625" xlink:href="#ArialMT-63"/>
     <use x="494.62890625" xlink:href="#ArialMT-74"/>
     <use x="522.412109375" xlink:href="#ArialMT-69"/>
     <use x="544.62890625" xlink:href="#ArialMT-6f"/>
     <use x="600.244140625" xlink:href="#ArialMT-6e"/>
     <use x="655.859375" xlink:href="#ArialMT-73"/>
    </g>
   </g>
   <g id="text_16">
    <!-- b -->
    <g style="fill:#262626;" transform="translate(279.605454545 109.093806818)scale(0.2 -0.2)">
     <use xlink:href="#ArialMT-62"/>
    </g>
   </g>
  </g>
 </g>
 <defs>
  <clipPath id="pa3f3e80a1d">
   <rect height="177.545454545" width="177.545454545" x="276.054545455" y="91.2272727273"/>
  </clipPath>
  <clipPath id="pad882dd0a2">
   <rect height="177.545454545" width="177.545454545" x="63.0" y="91.2272727273"/>
  </clipPath>
 </defs>
</svg>
