<?xml version="1.0" encoding="UTF-8" standalone="no"?>
<!-- Created with matplotlib (http://matplotlib.org/) -->

<svg
   xmlns:dc="http://purl.org/dc/elements/1.1/"
   xmlns:cc="http://creativecommons.org/ns#"
   xmlns:rdf="http://www.w3.org/1999/02/22-rdf-syntax-ns#"
   xmlns:svg="http://www.w3.org/2000/svg"
   xmlns="http://www.w3.org/2000/svg"
   xmlns:sodipodi="http://sodipodi.sourceforge.net/DTD/sodipodi-0.dtd"
   xmlns:inkscape="http://www.inkscape.org/namespaces/inkscape"
   height="7cm"
   version="1.1"
   viewBox="0 0 396.85038 198.4252"
   width="14cm"
   id="svg2"
   inkscape:version="0.91 r13725"
   sodipodi:docname="venn.svg"
   inkscape:export-filename="/home/noore/git/small-molecule-regulation/res/venn.png"
   inkscape:export-xdpi="299.96988"
   inkscape:export-ydpi="299.96988">
  <metadata
     id="metadata390">
    <rdf:RDF>
      <cc:Work
         rdf:about="">
        <dc:format>image/svg+xml</dc:format>
        <dc:type
           rdf:resource="http://purl.org/dc/dcmitype/StillImage" />
        <dc:title />
      </cc:Work>
    </rdf:RDF>
  </metadata>
  <sodipodi:namedview
     pagecolor="#ffffff"
     bordercolor="#666666"
     borderopacity="1"
     objecttolerance="10"
     gridtolerance="10"
     guidetolerance="10"
     inkscape:pageopacity="0"
     inkscape:pageshadow="2"
     inkscape:window-width="1865"
     inkscape:window-height="1176"
     id="namedview388"
     showgrid="false"
     inkscape:zoom="2.0956785"
     inkscape:cx="68.964278"
     inkscape:cy="148.50644"
     inkscape:window-x="55"
     inkscape:window-y="24"
     inkscape:window-maximized="1"
     inkscape:current-layer="svg2"
     units="cm" />
  <defs
     id="defs4"
     style="stroke-linecap:butt;stroke-linejoin:round;stroke-miterlimit:100000">
    <style
       type="text/css"
       id="style6">
*{stroke-linecap:butt;stroke-linejoin:round;stroke-miterlimit:100000;}
  </style>
  </defs>
  <ellipse
     style="opacity:1;fill:#e1d8a1;fill-opacity:1;stroke:none;stroke-width:1.60000002;stroke-linecap:square;stroke-linejoin:round;stroke-miterlimit:4;stroke-dasharray:1.6, 1.6;stroke-dashoffset:0;stroke-opacity:1"
     id="path4943"
     cx="86.341171"
     cy="110.21983"
     rx="86.001396"
     ry="87.414154" />
  <circle
     style="opacity:1;fill:#ff0000;fill-opacity:0.39215686;stroke:none;stroke-width:2;stroke-linecap:square;stroke-linejoin:round;stroke-miterlimit:4;stroke-dasharray:2, 2;stroke-dashoffset:0;stroke-opacity:1"
     id="path4945"
     cx="82.632698"
     cy="98.034828"
     r="46.974072" />
  <ellipse
     style="opacity:1;fill:#0089ff;fill-opacity:0.39215686;stroke:none;stroke-width:2;stroke-linecap:square;stroke-linejoin:round;stroke-miterlimit:4;stroke-dasharray:2, 2;stroke-dashoffset:0;stroke-opacity:1"
     id="path4947"
     cx="109.22749"
     cy="96.622063"
     rx="30.021023"
     ry="30.374212" />
  <g
     id="text_5"
     style="fill:#ff0000;fill-opacity:1;stroke-linecap:butt;stroke-linejoin:round;stroke-miterlimit:100000"
     transform="matrix(1.1512549,0,0,1.1512549,-138.44352,-17.156572)">
    <!-- inhibitors -->
    <defs
       id="defs72">
      <path
         d="m 46.390625,14.59375 q 0,-3.703125 -1.453125,-6.609375 Q 43.5,5.078125 40.765625,3.09375 38.03125,1.125 34.046875,0.0625 q -3.96875,-1.046875 -9.09375,-1.046875 -4.59375,0 -8.28125,0.71875 Q 12.984375,0.4375 10.203125,2 7.421875,3.5625 5.53125,6.125 q -1.875,2.5625 -2.75,6.28125 l 7.765625,1.515625 q 1.125,-4.25 4.640625,-6.234375 3.515625,-1.96875 9.765625,-1.96875 2.828125,0 5.1875,0.390625 2.375,0.390625 4.078125,1.34375 1.71875,0.953125 2.671875,2.53125 0.953125,1.59375 0.953125,3.9375 0,2.390625 -1.125,3.921875 -1.125,1.546875 -3.125,2.5625 -2,1.03125 -4.859375,1.78125 -2.859375,0.765625 -6.265625,1.6875 -3.1875,0.828125 -6.3125,1.859375 -3.125,1.03125 -5.640625,2.703125 -2.5,1.6875 -4.0625,4.171875 -1.5625,2.5 -1.5625,6.265625 0,7.21875 5.140625,11 5.15625,3.78125 15.015625,3.78125 8.75,0 13.890625,-3.078125 5.15625,-3.0625 6.515625,-9.859375 L 37.546875,39.75 q -0.4375,2.046875 -1.609375,3.4375 -1.171875,1.390625 -2.828125,2.25 -1.65625,0.859375 -3.734375,1.21875 -2.078125,0.359375 -4.328125,0.359375 -5.953125,0 -8.796875,-1.8125 Q 13.421875,43.40625 13.421875,39.75 q 0,-2.15625 1.046875,-3.546875 1.0625,-1.390625 2.9375,-2.34375 1.875,-0.953125 4.515625,-1.65625 2.640625,-0.703125 5.8125,-1.484375 2.09375,-0.546875 4.296875,-1.15625 2.203125,-0.609375 4.265625,-1.46875 2.078125,-0.84375 3.90625,-2 1.84375,-1.140625 3.203125,-2.75 1.375,-1.609375 2.171875,-3.765625 0.8125,-2.140625 0.8125,-4.984375"
         id="LiberationSans-73"
         inkscape:connector-curvature="0"
         style="stroke-linecap:butt;stroke-linejoin:round;stroke-miterlimit:100000" />
      <path
         d="m 6.9375,0 0,40.53125 q 0,1.65625 -0.03125,3.390625 Q 6.890625,45.65625 6.828125,47.265625 6.78125,48.875 6.734375,50.28125 6.6875,51.703125 6.640625,52.828125 l 8.296875,0 q 0.04687,-1.125 0.125,-2.5625 0.07813,-1.4375 0.140625,-2.953125 0.07813,-1.515625 0.09375,-2.90625 0.03125,-1.390625 0.03125,-2.359375 l 0.203125,0 Q 16.453125,45.0625 17.5,47.28125 q 1.0625,2.234375 2.46875,3.671875 1.421875,1.4375 3.375,2.140625 1.953125,0.71875 4.734375,0.71875 1.078125,0 2.046875,-0.171875 0.984375,-0.171875 1.515625,-0.3125 l 0,-8.0625 q -0.875,0.25 -2.046875,0.359375 -1.171875,0.125 -2.640625,0.125 -3.03125,0 -5.15625,-1.375 -2.125,-1.359375 -3.46875,-3.78125 Q 17,38.1875 16.359375,34.84375 15.71875,31.5 15.71875,27.546875 L 15.71875,0 Z"
         id="LiberationSans-72"
         inkscape:connector-curvature="0"
         style="stroke-linecap:butt;stroke-linejoin:round;stroke-miterlimit:100000" />
      <path
         d="m 51.421875,26.65625 q 0,-27.640625 -19.4375,-27.640625 -6,0 -9.984375,2.171875 -3.984375,2.1875 -6.46875,7.015625 l -0.09375,0 q 0,-1.265625 -0.07813,-2.640625 -0.07813,-1.359375 -0.15625,-2.53125 -0.0625,-1.171875 -0.140625,-2 Q 14.984375,0.203125 14.9375,0 L 6.453125,0 Q 6.5,0.4375 6.546875,1.484375 6.59375,2.546875 6.640625,4 q 0.046875,1.46875 0.0625,3.21875 0.03125,1.765625 0.03125,3.671875 l 0,61.578125 8.796875,0 0,-20.65625 Q 15.53125,50.34375 15.5,49 15.484375,47.65625 15.4375,46.625 15.375,45.40625 15.328125,44.34375 l 0.203125,0 q 2.4375,5.078125 6.46875,7.265625 4.03125,2.203125 9.984375,2.203125 10.015625,0 14.71875,-6.75 4.71875,-6.734375 4.71875,-20.40625 M 42.1875,26.375 q 0,5.46875 -0.6875,9.375 -0.671875,3.90625 -2.1875,6.40625 -1.515625,2.515625 -3.859375,3.6875 -2.34375,1.171875 -5.71875,1.171875 -3.46875,0 -6.125,-1.125 -2.65625,-1.109375 -4.4375,-3.609375 -1.78125,-2.484375 -2.71875,-6.546875 -0.921875,-4.046875 -0.921875,-9.90625 0,-5.65625 0.921875,-9.515625 0.9375,-3.859375 2.71875,-6.28125 1.78125,-2.40625 4.40625,-3.46875 2.640625,-1.046875 6.0625,-1.046875 3.21875,0 5.5625,1.125 2.34375,1.125 3.90625,3.609375 1.5625,2.5 2.3125,6.46875 0.765625,3.984375 0.765625,9.65625"
         id="LiberationSans-62"
         inkscape:connector-curvature="0"
         style="stroke-linecap:butt;stroke-linejoin:round;stroke-miterlimit:100000" />
      <path
         d="m 27.046875,0.390625 q -2,-0.53125 -4.078125,-0.84375 Q 20.90625,-0.78125 18.171875,-0.78125 7.625,-0.78125 7.625,11.1875 l 0,35.25 -6.109375,0 0,6.390625 6.4375,0 2.59375,11.828125 5.859375,0 0,-11.828125 9.765625,0 0,-6.390625 -9.765625,0 0,-33.34375 q 0,-3.8125 1.234375,-5.359375 1.25,-1.53125 4.328125,-1.53125 1.28125,0 2.46875,0.1875 1.203125,0.203125 2.609375,0.5 z"
         id="LiberationSans-74"
         inkscape:connector-curvature="0"
         style="stroke-linecap:butt;stroke-linejoin:round;stroke-miterlimit:100000" />
      <path
         d="m 15.484375,43.796875 q 1.453125,2.6875 3.15625,4.5625 1.71875,1.890625 3.765625,3.109375 2.0625,1.21875 4.5,1.78125 2.4375,0.5625 5.46875,0.5625 5.078125,0 8.328125,-1.375 3.25,-1.359375 5.125,-3.828125 1.875,-2.46875 2.578125,-5.890625 Q 49.125,39.3125 49.125,35.203125 L 49.125,0 l -8.84375,0 0,33.5 q 0,3.359375 -0.421875,5.890625 -0.40625,2.546875 -1.578125,4.234375 -1.171875,1.6875 -3.328125,2.53125 -2.140625,0.859375 -5.5625,0.859375 -3.125,0 -5.640625,-1.125 Q 21.234375,44.78125 19.453125,42.71875 17.671875,40.671875 16.6875,37.734375 15.71875,34.8125 15.71875,31.15625 L 15.71875,0 6.9375,0 l 0,72.46875 8.78125,0 0,-18.859375 q 0,-1.609375 -0.04687,-3.21875 -0.04687,-1.609375 -0.125,-2.984375 -0.0625,-1.359375 -0.125,-2.3125 -0.04687,-0.953125 -0.09375,-1.296875 z"
         id="LiberationSans-68"
         inkscape:connector-curvature="0"
         style="stroke-linecap:butt;stroke-linejoin:round;stroke-miterlimit:100000" />
      <path
         d="m 6.6875,64.0625 0,8.40625 8.796875,0 0,-8.40625 z m 0,-64.0625 0,52.828125 8.796875,0 0,-52.828125 z"
         id="LiberationSans-69"
         inkscape:connector-curvature="0"
         style="stroke-linecap:butt;stroke-linejoin:round;stroke-miterlimit:100000" />
      <path
         d="m 40.28125,0 0,33.5 q 0,3.859375 -0.5625,6.4375 -0.5625,2.59375 -1.828125,4.171875 -1.265625,1.59375 -3.34375,2.25 -2.078125,0.65625 -5.15625,0.65625 -3.125,0 -5.640625,-1.09375 Q 21.234375,44.828125 19.453125,42.75 17.671875,40.671875 16.6875,37.625 15.71875,34.578125 15.71875,30.609375 L 15.71875,0 6.9375,0 l 0,41.546875 q 0,1.671875 -0.03125,3.5 Q 6.890625,46.875 6.828125,48.5 6.78125,50.140625 6.734375,51.3125 6.6875,52.484375 6.640625,52.828125 l 8.296875,0 q 0.04687,-0.234375 0.09375,-1.3125 0.0625,-1.078125 0.125,-2.46875 0.07813,-1.390625 0.125,-2.828125 0.04687,-1.4375 0.04687,-2.421875 l 0.15625,0 q 1.265625,2.296875 2.78125,4.15625 1.515625,1.859375 3.515625,3.140625 2,1.296875 4.578125,2 2.59375,0.71875 6.015625,0.71875 4.390625,0 7.5625,-1.078125 3.171875,-1.078125 5.21875,-3.328125 2.0625,-2.234375 3.015625,-5.78125 Q 49.125,40.09375 49.125,35.203125 L 49.125,0 Z"
         id="LiberationSans-6e"
         inkscape:connector-curvature="0"
         style="stroke-linecap:butt;stroke-linejoin:round;stroke-miterlimit:100000" />
      <path
         d="m 51.421875,26.46875 q 0,-13.875 -6.109375,-20.671875 -6.109375,-6.78125 -17.71875,-6.78125 -5.515625,0 -9.875,1.65625 -4.34375,1.671875 -7.34375,5.09375 -3,3.421875 -4.59375,8.5625 -1.578125,5.15625 -1.578125,12.140625 0,27.34375 23.671875,27.34375 6.15625,0 10.625,-1.71875 4.46875,-1.703125 7.328125,-5.125 2.859375,-3.40625 4.21875,-8.546875 1.375,-5.125 1.375,-11.953125 m -9.234375,0 q 0,6.15625 -0.953125,10.15625 -0.953125,4 -2.78125,6.390625 -1.828125,2.390625 -4.46875,3.34375 -2.640625,0.953125 -5.953125,0.953125 -3.375,0 -6.09375,-1 -2.703125,-1 -4.609375,-3.421875 -1.890625,-2.40625 -2.90625,-6.421875 -1,-4 -1,-10 0,-6.15625 1.078125,-10.1875 1.078125,-4.03125 2.953125,-6.421875 1.890625,-2.390625 4.453125,-3.375 2.5625,-0.96875 5.578125,-0.96875 3.375,0 6.109375,0.953125 2.734375,0.953125 4.640625,3.34375 1.90625,2.390625 2.921875,6.4375 1.03125,4.0625 1.03125,10.21875"
         id="LiberationSans-6f"
         inkscape:connector-curvature="0"
         style="stroke-linecap:butt;stroke-linejoin:round;stroke-miterlimit:100000" />
    </defs>
    <g
       style="fill:#ff0000;fill-opacity:1;stroke-linecap:butt;stroke-linejoin:round;stroke-miterlimit:100000"
       transform="matrix(0.1152,0,0,-0.1152,102.23373,104.57158)"
       id="g82">
      <text
         xml:space="preserve"
         style="font-style:normal;font-variant:normal;font-weight:normal;font-stretch:normal;font-size:75.40081024px;line-height:125%;font-family:Arial;-inkscape-font-specification:'Arial, Normal';text-align:center;letter-spacing:0px;word-spacing:0px;writing-mode:lr-tb;text-anchor:middle;fill:#ff0000;fill-opacity:1;stroke:none;stroke-width:1px;stroke-linecap:butt;stroke-linejoin:miter;stroke-miterlimit:100000;stroke-opacity:1"
         x="789.57318"
         y="-412.35205"
         id="text4949"
         sodipodi:linespacing="125%"
         transform="scale(1,-1)"><tspan
           sodipodi:role="line"
           id="tspan4951"
           style="fill:#ff0000;fill-opacity:1;stroke-linecap:butt;stroke-linejoin:round;stroke-miterlimit:100000"
           x="789.57318"
           y="-412.35205">inhibitors (306)</tspan></text>
    </g>
  </g>
  <defs
     id="defs380">
    <clipPath
       id="pf91d9b13d8"
       style="stroke-linecap:butt;stroke-linejoin:round;stroke-miterlimit:100000">
      <rect
         height="177.54546"
         width="177.54546"
         x="276.05453"
         y="86.727272"
         id="rect383"
         style="stroke-linecap:butt;stroke-linejoin:round;stroke-miterlimit:100000" />
    </clipPath>
    <clipPath
       id="pa4e771aa16"
       style="stroke-linecap:butt;stroke-linejoin:round;stroke-miterlimit:100000">
      <rect
         height="177.54546"
         width="177.54546"
         x="63"
         y="86.727272"
         id="rect386"
         style="stroke-linecap:butt;stroke-linejoin:round;stroke-miterlimit:100000" />
    </clipPath>
  </defs>
  <g
     transform="matrix(1.1512549,0,0,1.1512549,-63.890699,-1.7974975)"
     style="fill:#0089ff;fill-opacity:1;stroke-linecap:butt;stroke-linejoin:round;stroke-miterlimit:100000"
     id="g4953">
    <!-- inhibitors -->
    <defs
       id="defs4955">
      <path
         style="stroke-linecap:butt;stroke-linejoin:round;stroke-miterlimit:100000"
         inkscape:connector-curvature="0"
         id="path4957"
         d="m 46.390625,14.59375 q 0,-3.703125 -1.453125,-6.609375 Q 43.5,5.078125 40.765625,3.09375 38.03125,1.125 34.046875,0.0625 q -3.96875,-1.046875 -9.09375,-1.046875 -4.59375,0 -8.28125,0.71875 Q 12.984375,0.4375 10.203125,2 7.421875,3.5625 5.53125,6.125 q -1.875,2.5625 -2.75,6.28125 l 7.765625,1.515625 q 1.125,-4.25 4.640625,-6.234375 3.515625,-1.96875 9.765625,-1.96875 2.828125,0 5.1875,0.390625 2.375,0.390625 4.078125,1.34375 1.71875,0.953125 2.671875,2.53125 0.953125,1.59375 0.953125,3.9375 0,2.390625 -1.125,3.921875 -1.125,1.546875 -3.125,2.5625 -2,1.03125 -4.859375,1.78125 -2.859375,0.765625 -6.265625,1.6875 -3.1875,0.828125 -6.3125,1.859375 -3.125,1.03125 -5.640625,2.703125 -2.5,1.6875 -4.0625,4.171875 -1.5625,2.5 -1.5625,6.265625 0,7.21875 5.140625,11 5.15625,3.78125 15.015625,3.78125 8.75,0 13.890625,-3.078125 5.15625,-3.0625 6.515625,-9.859375 L 37.546875,39.75 q -0.4375,2.046875 -1.609375,3.4375 -1.171875,1.390625 -2.828125,2.25 -1.65625,0.859375 -3.734375,1.21875 -2.078125,0.359375 -4.328125,0.359375 -5.953125,0 -8.796875,-1.8125 Q 13.421875,43.40625 13.421875,39.75 q 0,-2.15625 1.046875,-3.546875 1.0625,-1.390625 2.9375,-2.34375 1.875,-0.953125 4.515625,-1.65625 2.640625,-0.703125 5.8125,-1.484375 2.09375,-0.546875 4.296875,-1.15625 2.203125,-0.609375 4.265625,-1.46875 2.078125,-0.84375 3.90625,-2 1.84375,-1.140625 3.203125,-2.75 1.375,-1.609375 2.171875,-3.765625 0.8125,-2.140625 0.8125,-4.984375" />
      <path
         style="stroke-linecap:butt;stroke-linejoin:round;stroke-miterlimit:100000"
         inkscape:connector-curvature="0"
         id="path4959"
         d="m 6.9375,0 0,40.53125 q 0,1.65625 -0.03125,3.390625 Q 6.890625,45.65625 6.828125,47.265625 6.78125,48.875 6.734375,50.28125 6.6875,51.703125 6.640625,52.828125 l 8.296875,0 q 0.04687,-1.125 0.125,-2.5625 0.07813,-1.4375 0.140625,-2.953125 0.07813,-1.515625 0.09375,-2.90625 0.03125,-1.390625 0.03125,-2.359375 l 0.203125,0 Q 16.453125,45.0625 17.5,47.28125 q 1.0625,2.234375 2.46875,3.671875 1.421875,1.4375 3.375,2.140625 1.953125,0.71875 4.734375,0.71875 1.078125,0 2.046875,-0.171875 0.984375,-0.171875 1.515625,-0.3125 l 0,-8.0625 q -0.875,0.25 -2.046875,0.359375 -1.171875,0.125 -2.640625,0.125 -3.03125,0 -5.15625,-1.375 -2.125,-1.359375 -3.46875,-3.78125 Q 17,38.1875 16.359375,34.84375 15.71875,31.5 15.71875,27.546875 L 15.71875,0 Z" />
      <path
         style="stroke-linecap:butt;stroke-linejoin:round;stroke-miterlimit:100000"
         inkscape:connector-curvature="0"
         id="path4961"
         d="m 51.421875,26.65625 q 0,-27.640625 -19.4375,-27.640625 -6,0 -9.984375,2.171875 -3.984375,2.1875 -6.46875,7.015625 l -0.09375,0 q 0,-1.265625 -0.07813,-2.640625 -0.07813,-1.359375 -0.15625,-2.53125 -0.0625,-1.171875 -0.140625,-2 Q 14.984375,0.203125 14.9375,0 L 6.453125,0 Q 6.5,0.4375 6.546875,1.484375 6.59375,2.546875 6.640625,4 q 0.046875,1.46875 0.0625,3.21875 0.03125,1.765625 0.03125,3.671875 l 0,61.578125 8.796875,0 0,-20.65625 Q 15.53125,50.34375 15.5,49 15.484375,47.65625 15.4375,46.625 15.375,45.40625 15.328125,44.34375 l 0.203125,0 q 2.4375,5.078125 6.46875,7.265625 4.03125,2.203125 9.984375,2.203125 10.015625,0 14.71875,-6.75 4.71875,-6.734375 4.71875,-20.40625 M 42.1875,26.375 q 0,5.46875 -0.6875,9.375 -0.671875,3.90625 -2.1875,6.40625 -1.515625,2.515625 -3.859375,3.6875 -2.34375,1.171875 -5.71875,1.171875 -3.46875,0 -6.125,-1.125 -2.65625,-1.109375 -4.4375,-3.609375 -1.78125,-2.484375 -2.71875,-6.546875 -0.921875,-4.046875 -0.921875,-9.90625 0,-5.65625 0.921875,-9.515625 0.9375,-3.859375 2.71875,-6.28125 1.78125,-2.40625 4.40625,-3.46875 2.640625,-1.046875 6.0625,-1.046875 3.21875,0 5.5625,1.125 2.34375,1.125 3.90625,3.609375 1.5625,2.5 2.3125,6.46875 0.765625,3.984375 0.765625,9.65625" />
      <path
         style="stroke-linecap:butt;stroke-linejoin:round;stroke-miterlimit:100000"
         inkscape:connector-curvature="0"
         id="path4963"
         d="m 27.046875,0.390625 q -2,-0.53125 -4.078125,-0.84375 Q 20.90625,-0.78125 18.171875,-0.78125 7.625,-0.78125 7.625,11.1875 l 0,35.25 -6.109375,0 0,6.390625 6.4375,0 2.59375,11.828125 5.859375,0 0,-11.828125 9.765625,0 0,-6.390625 -9.765625,0 0,-33.34375 q 0,-3.8125 1.234375,-5.359375 1.25,-1.53125 4.328125,-1.53125 1.28125,0 2.46875,0.1875 1.203125,0.203125 2.609375,0.5 z" />
      <path
         style="stroke-linecap:butt;stroke-linejoin:round;stroke-miterlimit:100000"
         inkscape:connector-curvature="0"
         id="path4965"
         d="m 15.484375,43.796875 q 1.453125,2.6875 3.15625,4.5625 1.71875,1.890625 3.765625,3.109375 2.0625,1.21875 4.5,1.78125 2.4375,0.5625 5.46875,0.5625 5.078125,0 8.328125,-1.375 3.25,-1.359375 5.125,-3.828125 1.875,-2.46875 2.578125,-5.890625 Q 49.125,39.3125 49.125,35.203125 L 49.125,0 l -8.84375,0 0,33.5 q 0,3.359375 -0.421875,5.890625 -0.40625,2.546875 -1.578125,4.234375 -1.171875,1.6875 -3.328125,2.53125 -2.140625,0.859375 -5.5625,0.859375 -3.125,0 -5.640625,-1.125 Q 21.234375,44.78125 19.453125,42.71875 17.671875,40.671875 16.6875,37.734375 15.71875,34.8125 15.71875,31.15625 L 15.71875,0 6.9375,0 l 0,72.46875 8.78125,0 0,-18.859375 q 0,-1.609375 -0.04687,-3.21875 -0.04687,-1.609375 -0.125,-2.984375 -0.0625,-1.359375 -0.125,-2.3125 -0.04687,-0.953125 -0.09375,-1.296875 z" />
      <path
         style="stroke-linecap:butt;stroke-linejoin:round;stroke-miterlimit:100000"
         inkscape:connector-curvature="0"
         id="path4967"
         d="m 6.6875,64.0625 0,8.40625 8.796875,0 0,-8.40625 z m 0,-64.0625 0,52.828125 8.796875,0 0,-52.828125 z" />
      <path
         style="stroke-linecap:butt;stroke-linejoin:round;stroke-miterlimit:100000"
         inkscape:connector-curvature="0"
         id="path4969"
         d="m 40.28125,0 0,33.5 q 0,3.859375 -0.5625,6.4375 -0.5625,2.59375 -1.828125,4.171875 -1.265625,1.59375 -3.34375,2.25 -2.078125,0.65625 -5.15625,0.65625 -3.125,0 -5.640625,-1.09375 Q 21.234375,44.828125 19.453125,42.75 17.671875,40.671875 16.6875,37.625 15.71875,34.578125 15.71875,30.609375 L 15.71875,0 6.9375,0 l 0,41.546875 q 0,1.671875 -0.03125,3.5 Q 6.890625,46.875 6.828125,48.5 6.78125,50.140625 6.734375,51.3125 6.6875,52.484375 6.640625,52.828125 l 8.296875,0 q 0.04687,-0.234375 0.09375,-1.3125 0.0625,-1.078125 0.125,-2.46875 0.07813,-1.390625 0.125,-2.828125 0.04687,-1.4375 0.04687,-2.421875 l 0.15625,0 q 1.265625,2.296875 2.78125,4.15625 1.515625,1.859375 3.515625,3.140625 2,1.296875 4.578125,2 2.59375,0.71875 6.015625,0.71875 4.390625,0 7.5625,-1.078125 3.171875,-1.078125 5.21875,-3.328125 2.0625,-2.234375 3.015625,-5.78125 Q 49.125,40.09375 49.125,35.203125 L 49.125,0 Z" />
      <path
         style="stroke-linecap:butt;stroke-linejoin:round;stroke-miterlimit:100000"
         inkscape:connector-curvature="0"
         id="path4971"
         d="m 51.421875,26.46875 q 0,-13.875 -6.109375,-20.671875 -6.109375,-6.78125 -17.71875,-6.78125 -5.515625,0 -9.875,1.65625 -4.34375,1.671875 -7.34375,5.09375 -3,3.421875 -4.59375,8.5625 -1.578125,5.15625 -1.578125,12.140625 0,27.34375 23.671875,27.34375 6.15625,0 10.625,-1.71875 4.46875,-1.703125 7.328125,-5.125 2.859375,-3.40625 4.21875,-8.546875 1.375,-5.125 1.375,-11.953125 m -9.234375,0 q 0,6.15625 -0.953125,10.15625 -0.953125,4 -2.78125,6.390625 -1.828125,2.390625 -4.46875,3.34375 -2.640625,0.953125 -5.953125,0.953125 -3.375,0 -6.09375,-1 -2.703125,-1 -4.609375,-3.421875 -1.890625,-2.40625 -2.90625,-6.421875 -1,-4 -1,-10 0,-6.15625 1.078125,-10.1875 1.078125,-4.03125 2.953125,-6.421875 1.890625,-2.390625 4.453125,-3.375 2.5625,-0.96875 5.578125,-0.96875 3.375,0 6.109375,0.953125 2.734375,0.953125 4.640625,3.34375 1.90625,2.390625 2.921875,6.4375 1.03125,4.0625 1.03125,10.21875" />
    </defs>
    <g
       id="g4973"
       transform="matrix(0.1152,0,0,-0.1152,102.23373,104.57158)"
       style="fill:#0089ff;fill-opacity:1;stroke-linecap:butt;stroke-linejoin:round;stroke-miterlimit:100000">
      <text
         transform="scale(1,-1)"
         sodipodi:linespacing="125%"
         id="text4975"
         y="-388.38443"
         x="770.9317"
         style="font-style:normal;font-variant:normal;font-weight:normal;font-stretch:normal;font-size:75.40081024px;line-height:125%;font-family:Arial;-inkscape-font-specification:'Arial, Normal';text-align:center;letter-spacing:0px;word-spacing:0px;writing-mode:lr-tb;text-anchor:middle;fill:#0089ff;fill-opacity:1;stroke:none;stroke-width:1px;stroke-linecap:butt;stroke-linejoin:miter;stroke-miterlimit:100000;stroke-opacity:1"
         xml:space="preserve"><tspan
           y="-388.38443"
           x="770.9317"
           style="fill:#0089ff;fill-opacity:1;stroke-linecap:butt;stroke-linejoin:round;stroke-miterlimit:100000"
           id="tspan4977"
           sodipodi:role="line">activators (128)</tspan></text>
    </g>
  </g>
  <text
     xml:space="preserve"
     style="font-style:normal;font-variant:normal;font-weight:normal;font-stretch:normal;font-size:10px;line-height:125%;font-family:Arial;-inkscape-font-specification:'Arial, Normal';text-align:center;letter-spacing:0px;word-spacing:0px;writing-mode:lr-tb;text-anchor:middle;fill:#000000;fill-opacity:1;stroke:none;stroke-width:1px;stroke-linecap:butt;stroke-linejoin:miter;stroke-miterlimit:100000;stroke-opacity:1"
     x="86.517761"
     y="12.563228"
     id="text5031"
     sodipodi:linespacing="125%"><tspan
       sodipodi:role="line"
       id="tspan5033"
       style="stroke-linecap:butt;stroke-linejoin:round;stroke-miterlimit:100000"
       x="86.517761"
       y="12.563228">all <tspan
   style="font-style:italic;stroke-linecap:butt;stroke-linejoin:round;stroke-miterlimit:100000"
   id="tspan5035">E. coli</tspan> metabolites (1039)</tspan></text>
  <text
     xml:space="preserve"
     style="font-style:normal;font-variant:normal;font-weight:normal;font-stretch:normal;font-size:10px;line-height:125%;font-family:Arial;-inkscape-font-specification:'Arial, Normal';text-align:center;letter-spacing:0px;word-spacing:0px;writing-mode:lr-tb;text-anchor:middle;fill:#000000;fill-opacity:1;stroke:none;stroke-width:1px;stroke-linecap:butt;stroke-linejoin:miter;stroke-miterlimit:100000;stroke-opacity:1"
     x="105.58995"
     y="100.50715"
     id="text5095"
     sodipodi:linespacing="125%"><tspan
       sodipodi:role="line"
       id="tspan5097"
       style="stroke-linecap:butt;stroke-linejoin:round;stroke-miterlimit:100000"
       x="105.58995"
       y="100.50715">113</tspan></text>
  <text
     xml:space="preserve"
     style="font-style:normal;font-variant:normal;font-weight:normal;font-stretch:normal;font-size:10px;line-height:125%;font-family:Arial;-inkscape-font-specification:'Arial, Normal';text-align:center;letter-spacing:0px;word-spacing:0px;writing-mode:lr-tb;text-anchor:middle;fill:#000000;fill-opacity:1;stroke:none;stroke-width:1px;stroke-linecap:butt;stroke-linejoin:miter;stroke-miterlimit:100000;stroke-opacity:1"
     x="85.047058"
     y="176.32176"
     id="text5099"
     sodipodi:linespacing="125%"><tspan
       sodipodi:role="line"
       id="tspan5101"
       style="stroke-linecap:butt;stroke-linejoin:round;stroke-miterlimit:100000"
       x="85.047058"
       y="176.32176">718</tspan></text>
  <text
     xml:space="preserve"
     style="font-style:normal;font-variant:normal;font-weight:normal;font-stretch:normal;font-size:10px;line-height:125%;font-family:Arial;-inkscape-font-specification:'Arial, Normal';text-align:center;letter-spacing:0px;word-spacing:0px;writing-mode:lr-tb;text-anchor:middle;fill:#000000;fill-opacity:1;stroke:none;stroke-width:1px;stroke-linecap:butt;stroke-linejoin:miter;stroke-miterlimit:100000;stroke-opacity:1"
     x="58.262688"
     y="101.21354"
     id="text5117"
     sodipodi:linespacing="125%"><tspan
       sodipodi:role="line"
       id="tspan5119"
       style="stroke-linecap:butt;stroke-linejoin:round;stroke-miterlimit:100000"
       x="58.262688"
       y="101.21354">193</tspan></text>
  <text
     xml:space="preserve"
     style="font-style:normal;font-variant:normal;font-weight:normal;font-stretch:normal;font-size:10px;line-height:125%;font-family:Arial;-inkscape-font-specification:'Arial, Normal';text-align:center;letter-spacing:0px;word-spacing:0px;writing-mode:lr-tb;text-anchor:middle;fill:#000000;fill-opacity:1;stroke:none;stroke-width:1px;stroke-linecap:butt;stroke-linejoin:miter;stroke-miterlimit:100000;stroke-opacity:1"
     x="133.65695"
     y="99.859909"
     id="text5121"
     sodipodi:linespacing="125%"><tspan
       sodipodi:role="line"
       id="tspan5123"
       style="stroke-linecap:butt;stroke-linejoin:round;stroke-miterlimit:100000"
       x="133.65695"
       y="99.859909">15</tspan></text>
  <ellipse
     ry="72.695549"
     rx="71.520668"
     cy="110.21983"
     cx="289.30496"
     id="ellipse5127"
     style="opacity:1;fill:#e1d8a1;fill-opacity:1;stroke:none;stroke-width:1.60000002;stroke-linecap:square;stroke-linejoin:round;stroke-miterlimit:4;stroke-dasharray:1.6, 1.6;stroke-dashoffset:0;stroke-opacity:1" />
  <circle
     r="52.149208"
     cy="109.01723"
     cx="286.42859"
     id="circle5129"
     style="opacity:1;fill:#ff0000;fill-opacity:0.39215686;stroke:none;stroke-width:2;stroke-linecap:square;stroke-linejoin:round;stroke-miterlimit:4;stroke-dasharray:2, 2;stroke-dashoffset:0;stroke-opacity:1" />
  <ellipse
     ry="31.146074"
     rx="30.783911"
     cy="109.36703"
     cx="317.56305"
     id="ellipse5131"
     style="opacity:1;fill:#0089ff;fill-opacity:0.39215686;stroke:none;stroke-width:2;stroke-linecap:square;stroke-linejoin:round;stroke-miterlimit:4;stroke-dasharray:2, 2;stroke-dashoffset:0;stroke-opacity:1" />
  <g
     transform="matrix(1.1512549,0,0,1.1512549,68.580387,-12.433728)"
     style="fill:#ff0000;fill-opacity:1;stroke-linecap:butt;stroke-linejoin:round;stroke-miterlimit:100000"
     id="g5133">
    <!-- inhibitors -->
    <defs
       id="defs5135">
      <path
         style="stroke-linecap:butt;stroke-linejoin:round;stroke-miterlimit:100000"
         inkscape:connector-curvature="0"
         id="path5137"
         d="m 46.390625,14.59375 q 0,-3.703125 -1.453125,-6.609375 Q 43.5,5.078125 40.765625,3.09375 38.03125,1.125 34.046875,0.0625 q -3.96875,-1.046875 -9.09375,-1.046875 -4.59375,0 -8.28125,0.71875 Q 12.984375,0.4375 10.203125,2 7.421875,3.5625 5.53125,6.125 q -1.875,2.5625 -2.75,6.28125 l 7.765625,1.515625 q 1.125,-4.25 4.640625,-6.234375 3.515625,-1.96875 9.765625,-1.96875 2.828125,0 5.1875,0.390625 2.375,0.390625 4.078125,1.34375 1.71875,0.953125 2.671875,2.53125 0.953125,1.59375 0.953125,3.9375 0,2.390625 -1.125,3.921875 -1.125,1.546875 -3.125,2.5625 -2,1.03125 -4.859375,1.78125 -2.859375,0.765625 -6.265625,1.6875 -3.1875,0.828125 -6.3125,1.859375 -3.125,1.03125 -5.640625,2.703125 -2.5,1.6875 -4.0625,4.171875 -1.5625,2.5 -1.5625,6.265625 0,7.21875 5.140625,11 5.15625,3.78125 15.015625,3.78125 8.75,0 13.890625,-3.078125 5.15625,-3.0625 6.515625,-9.859375 L 37.546875,39.75 q -0.4375,2.046875 -1.609375,3.4375 -1.171875,1.390625 -2.828125,2.25 -1.65625,0.859375 -3.734375,1.21875 -2.078125,0.359375 -4.328125,0.359375 -5.953125,0 -8.796875,-1.8125 Q 13.421875,43.40625 13.421875,39.75 q 0,-2.15625 1.046875,-3.546875 1.0625,-1.390625 2.9375,-2.34375 1.875,-0.953125 4.515625,-1.65625 2.640625,-0.703125 5.8125,-1.484375 2.09375,-0.546875 4.296875,-1.15625 2.203125,-0.609375 4.265625,-1.46875 2.078125,-0.84375 3.90625,-2 1.84375,-1.140625 3.203125,-2.75 1.375,-1.609375 2.171875,-3.765625 0.8125,-2.140625 0.8125,-4.984375" />
      <path
         style="stroke-linecap:butt;stroke-linejoin:round;stroke-miterlimit:100000"
         inkscape:connector-curvature="0"
         id="path5139"
         d="m 6.9375,0 0,40.53125 q 0,1.65625 -0.03125,3.390625 Q 6.890625,45.65625 6.828125,47.265625 6.78125,48.875 6.734375,50.28125 6.6875,51.703125 6.640625,52.828125 l 8.296875,0 q 0.04687,-1.125 0.125,-2.5625 0.07813,-1.4375 0.140625,-2.953125 0.07813,-1.515625 0.09375,-2.90625 0.03125,-1.390625 0.03125,-2.359375 l 0.203125,0 Q 16.453125,45.0625 17.5,47.28125 q 1.0625,2.234375 2.46875,3.671875 1.421875,1.4375 3.375,2.140625 1.953125,0.71875 4.734375,0.71875 1.078125,0 2.046875,-0.171875 0.984375,-0.171875 1.515625,-0.3125 l 0,-8.0625 q -0.875,0.25 -2.046875,0.359375 -1.171875,0.125 -2.640625,0.125 -3.03125,0 -5.15625,-1.375 -2.125,-1.359375 -3.46875,-3.78125 Q 17,38.1875 16.359375,34.84375 15.71875,31.5 15.71875,27.546875 L 15.71875,0 Z" />
      <path
         style="stroke-linecap:butt;stroke-linejoin:round;stroke-miterlimit:100000"
         inkscape:connector-curvature="0"
         id="path5141"
         d="m 51.421875,26.65625 q 0,-27.640625 -19.4375,-27.640625 -6,0 -9.984375,2.171875 -3.984375,2.1875 -6.46875,7.015625 l -0.09375,0 q 0,-1.265625 -0.07813,-2.640625 -0.07813,-1.359375 -0.15625,-2.53125 -0.0625,-1.171875 -0.140625,-2 Q 14.984375,0.203125 14.9375,0 L 6.453125,0 Q 6.5,0.4375 6.546875,1.484375 6.59375,2.546875 6.640625,4 q 0.046875,1.46875 0.0625,3.21875 0.03125,1.765625 0.03125,3.671875 l 0,61.578125 8.796875,0 0,-20.65625 Q 15.53125,50.34375 15.5,49 15.484375,47.65625 15.4375,46.625 15.375,45.40625 15.328125,44.34375 l 0.203125,0 q 2.4375,5.078125 6.46875,7.265625 4.03125,2.203125 9.984375,2.203125 10.015625,0 14.71875,-6.75 4.71875,-6.734375 4.71875,-20.40625 M 42.1875,26.375 q 0,5.46875 -0.6875,9.375 -0.671875,3.90625 -2.1875,6.40625 -1.515625,2.515625 -3.859375,3.6875 -2.34375,1.171875 -5.71875,1.171875 -3.46875,0 -6.125,-1.125 -2.65625,-1.109375 -4.4375,-3.609375 -1.78125,-2.484375 -2.71875,-6.546875 -0.921875,-4.046875 -0.921875,-9.90625 0,-5.65625 0.921875,-9.515625 0.9375,-3.859375 2.71875,-6.28125 1.78125,-2.40625 4.40625,-3.46875 2.640625,-1.046875 6.0625,-1.046875 3.21875,0 5.5625,1.125 2.34375,1.125 3.90625,3.609375 1.5625,2.5 2.3125,6.46875 0.765625,3.984375 0.765625,9.65625" />
      <path
         style="stroke-linecap:butt;stroke-linejoin:round;stroke-miterlimit:100000"
         inkscape:connector-curvature="0"
         id="path5143"
         d="m 27.046875,0.390625 q -2,-0.53125 -4.078125,-0.84375 Q 20.90625,-0.78125 18.171875,-0.78125 7.625,-0.78125 7.625,11.1875 l 0,35.25 -6.109375,0 0,6.390625 6.4375,0 2.59375,11.828125 5.859375,0 0,-11.828125 9.765625,0 0,-6.390625 -9.765625,0 0,-33.34375 q 0,-3.8125 1.234375,-5.359375 1.25,-1.53125 4.328125,-1.53125 1.28125,0 2.46875,0.1875 1.203125,0.203125 2.609375,0.5 z" />
      <path
         style="stroke-linecap:butt;stroke-linejoin:round;stroke-miterlimit:100000"
         inkscape:connector-curvature="0"
         id="path5145"
         d="m 15.484375,43.796875 q 1.453125,2.6875 3.15625,4.5625 1.71875,1.890625 3.765625,3.109375 2.0625,1.21875 4.5,1.78125 2.4375,0.5625 5.46875,0.5625 5.078125,0 8.328125,-1.375 3.25,-1.359375 5.125,-3.828125 1.875,-2.46875 2.578125,-5.890625 Q 49.125,39.3125 49.125,35.203125 L 49.125,0 l -8.84375,0 0,33.5 q 0,3.359375 -0.421875,5.890625 -0.40625,2.546875 -1.578125,4.234375 -1.171875,1.6875 -3.328125,2.53125 -2.140625,0.859375 -5.5625,0.859375 -3.125,0 -5.640625,-1.125 Q 21.234375,44.78125 19.453125,42.71875 17.671875,40.671875 16.6875,37.734375 15.71875,34.8125 15.71875,31.15625 L 15.71875,0 6.9375,0 l 0,72.46875 8.78125,0 0,-18.859375 q 0,-1.609375 -0.04687,-3.21875 -0.04687,-1.609375 -0.125,-2.984375 -0.0625,-1.359375 -0.125,-2.3125 -0.04687,-0.953125 -0.09375,-1.296875 z" />
      <path
         style="stroke-linecap:butt;stroke-linejoin:round;stroke-miterlimit:100000"
         inkscape:connector-curvature="0"
         id="path5147"
         d="m 6.6875,64.0625 0,8.40625 8.796875,0 0,-8.40625 z m 0,-64.0625 0,52.828125 8.796875,0 0,-52.828125 z" />
      <path
         style="stroke-linecap:butt;stroke-linejoin:round;stroke-miterlimit:100000"
         inkscape:connector-curvature="0"
         id="path5149"
         d="m 40.28125,0 0,33.5 q 0,3.859375 -0.5625,6.4375 -0.5625,2.59375 -1.828125,4.171875 -1.265625,1.59375 -3.34375,2.25 -2.078125,0.65625 -5.15625,0.65625 -3.125,0 -5.640625,-1.09375 Q 21.234375,44.828125 19.453125,42.75 17.671875,40.671875 16.6875,37.625 15.71875,34.578125 15.71875,30.609375 L 15.71875,0 6.9375,0 l 0,41.546875 q 0,1.671875 -0.03125,3.5 Q 6.890625,46.875 6.828125,48.5 6.78125,50.140625 6.734375,51.3125 6.6875,52.484375 6.640625,52.828125 l 8.296875,0 q 0.04687,-0.234375 0.09375,-1.3125 0.0625,-1.078125 0.125,-2.46875 0.07813,-1.390625 0.125,-2.828125 0.04687,-1.4375 0.04687,-2.421875 l 0.15625,0 q 1.265625,2.296875 2.78125,4.15625 1.515625,1.859375 3.515625,3.140625 2,1.296875 4.578125,2 2.59375,0.71875 6.015625,0.71875 4.390625,0 7.5625,-1.078125 3.171875,-1.078125 5.21875,-3.328125 2.0625,-2.234375 3.015625,-5.78125 Q 49.125,40.09375 49.125,35.203125 L 49.125,0 Z" />
      <path
         style="stroke-linecap:butt;stroke-linejoin:round;stroke-miterlimit:100000"
         inkscape:connector-curvature="0"
         id="path5151"
         d="m 51.421875,26.46875 q 0,-13.875 -6.109375,-20.671875 -6.109375,-6.78125 -17.71875,-6.78125 -5.515625,0 -9.875,1.65625 -4.34375,1.671875 -7.34375,5.09375 -3,3.421875 -4.59375,8.5625 -1.578125,5.15625 -1.578125,12.140625 0,27.34375 23.671875,27.34375 6.15625,0 10.625,-1.71875 4.46875,-1.703125 7.328125,-5.125 2.859375,-3.40625 4.21875,-8.546875 1.375,-5.125 1.375,-11.953125 m -9.234375,0 q 0,6.15625 -0.953125,10.15625 -0.953125,4 -2.78125,6.390625 -1.828125,2.390625 -4.46875,3.34375 -2.640625,0.953125 -5.953125,0.953125 -3.375,0 -6.09375,-1 -2.703125,-1 -4.609375,-3.421875 -1.890625,-2.40625 -2.90625,-6.421875 -1,-4 -1,-10 0,-6.15625 1.078125,-10.1875 1.078125,-4.03125 2.953125,-6.421875 1.890625,-2.390625 4.453125,-3.375 2.5625,-0.96875 5.578125,-0.96875 3.375,0 6.109375,0.953125 2.734375,0.953125 4.640625,3.34375 1.90625,2.390625 2.921875,6.4375 1.03125,4.0625 1.03125,10.21875" />
    </defs>
    <g
       id="g5153"
       transform="matrix(0.1152,0,0,-0.1152,102.23373,104.57158)"
       style="fill:#ff0000;fill-opacity:1;stroke-linecap:butt;stroke-linejoin:round;stroke-miterlimit:100000">
      <text
         transform="scale(1,-1)"
         sodipodi:linespacing="125%"
         id="text5155"
         y="-412.35205"
         x="789.57318"
         style="font-style:normal;font-variant:normal;font-weight:normal;font-stretch:normal;font-size:75.40081024px;line-height:125%;font-family:Arial;-inkscape-font-specification:'Arial, Normal';text-align:center;letter-spacing:0px;word-spacing:0px;writing-mode:lr-tb;text-anchor:middle;fill:#ff0000;fill-opacity:1;stroke:none;stroke-width:1px;stroke-linecap:butt;stroke-linejoin:miter;stroke-miterlimit:100000;stroke-opacity:1"
         xml:space="preserve"><tspan
           y="-412.35205"
           x="789.57318"
           style="fill:#ff0000;fill-opacity:1;stroke-linecap:butt;stroke-linejoin:round;stroke-miterlimit:100000"
           id="tspan5157"
           sodipodi:role="line">inhibited (349)</tspan></text>
    </g>
  </g>
  <g
     id="g5159"
     style="fill:#0089ff;fill-opacity:1;stroke-linecap:butt;stroke-linejoin:round;stroke-miterlimit:100000"
     transform="matrix(1.1512549,0,0,1.1512549,135.02735,12.495172)">
    <!-- inhibitors -->
    <defs
       id="defs5161">
      <path
         d="m 46.390625,14.59375 q 0,-3.703125 -1.453125,-6.609375 Q 43.5,5.078125 40.765625,3.09375 38.03125,1.125 34.046875,0.0625 q -3.96875,-1.046875 -9.09375,-1.046875 -4.59375,0 -8.28125,0.71875 Q 12.984375,0.4375 10.203125,2 7.421875,3.5625 5.53125,6.125 q -1.875,2.5625 -2.75,6.28125 l 7.765625,1.515625 q 1.125,-4.25 4.640625,-6.234375 3.515625,-1.96875 9.765625,-1.96875 2.828125,0 5.1875,0.390625 2.375,0.390625 4.078125,1.34375 1.71875,0.953125 2.671875,2.53125 0.953125,1.59375 0.953125,3.9375 0,2.390625 -1.125,3.921875 -1.125,1.546875 -3.125,2.5625 -2,1.03125 -4.859375,1.78125 -2.859375,0.765625 -6.265625,1.6875 -3.1875,0.828125 -6.3125,1.859375 -3.125,1.03125 -5.640625,2.703125 -2.5,1.6875 -4.0625,4.171875 -1.5625,2.5 -1.5625,6.265625 0,7.21875 5.140625,11 5.15625,3.78125 15.015625,3.78125 8.75,0 13.890625,-3.078125 5.15625,-3.0625 6.515625,-9.859375 L 37.546875,39.75 q -0.4375,2.046875 -1.609375,3.4375 -1.171875,1.390625 -2.828125,2.25 -1.65625,0.859375 -3.734375,1.21875 -2.078125,0.359375 -4.328125,0.359375 -5.953125,0 -8.796875,-1.8125 Q 13.421875,43.40625 13.421875,39.75 q 0,-2.15625 1.046875,-3.546875 1.0625,-1.390625 2.9375,-2.34375 1.875,-0.953125 4.515625,-1.65625 2.640625,-0.703125 5.8125,-1.484375 2.09375,-0.546875 4.296875,-1.15625 2.203125,-0.609375 4.265625,-1.46875 2.078125,-0.84375 3.90625,-2 1.84375,-1.140625 3.203125,-2.75 1.375,-1.609375 2.171875,-3.765625 0.8125,-2.140625 0.8125,-4.984375"
         id="path5163"
         inkscape:connector-curvature="0"
         style="stroke-linecap:butt;stroke-linejoin:round;stroke-miterlimit:100000" />
      <path
         d="m 6.9375,0 0,40.53125 q 0,1.65625 -0.03125,3.390625 Q 6.890625,45.65625 6.828125,47.265625 6.78125,48.875 6.734375,50.28125 6.6875,51.703125 6.640625,52.828125 l 8.296875,0 q 0.04687,-1.125 0.125,-2.5625 0.07813,-1.4375 0.140625,-2.953125 0.07813,-1.515625 0.09375,-2.90625 0.03125,-1.390625 0.03125,-2.359375 l 0.203125,0 Q 16.453125,45.0625 17.5,47.28125 q 1.0625,2.234375 2.46875,3.671875 1.421875,1.4375 3.375,2.140625 1.953125,0.71875 4.734375,0.71875 1.078125,0 2.046875,-0.171875 0.984375,-0.171875 1.515625,-0.3125 l 0,-8.0625 q -0.875,0.25 -2.046875,0.359375 -1.171875,0.125 -2.640625,0.125 -3.03125,0 -5.15625,-1.375 -2.125,-1.359375 -3.46875,-3.78125 Q 17,38.1875 16.359375,34.84375 15.71875,31.5 15.71875,27.546875 L 15.71875,0 Z"
         id="path5165"
         inkscape:connector-curvature="0"
         style="stroke-linecap:butt;stroke-linejoin:round;stroke-miterlimit:100000" />
      <path
         d="m 51.421875,26.65625 q 0,-27.640625 -19.4375,-27.640625 -6,0 -9.984375,2.171875 -3.984375,2.1875 -6.46875,7.015625 l -0.09375,0 q 0,-1.265625 -0.07813,-2.640625 -0.07813,-1.359375 -0.15625,-2.53125 -0.0625,-1.171875 -0.140625,-2 Q 14.984375,0.203125 14.9375,0 L 6.453125,0 Q 6.5,0.4375 6.546875,1.484375 6.59375,2.546875 6.640625,4 q 0.046875,1.46875 0.0625,3.21875 0.03125,1.765625 0.03125,3.671875 l 0,61.578125 8.796875,0 0,-20.65625 Q 15.53125,50.34375 15.5,49 15.484375,47.65625 15.4375,46.625 15.375,45.40625 15.328125,44.34375 l 0.203125,0 q 2.4375,5.078125 6.46875,7.265625 4.03125,2.203125 9.984375,2.203125 10.015625,0 14.71875,-6.75 4.71875,-6.734375 4.71875,-20.40625 M 42.1875,26.375 q 0,5.46875 -0.6875,9.375 -0.671875,3.90625 -2.1875,6.40625 -1.515625,2.515625 -3.859375,3.6875 -2.34375,1.171875 -5.71875,1.171875 -3.46875,0 -6.125,-1.125 -2.65625,-1.109375 -4.4375,-3.609375 -1.78125,-2.484375 -2.71875,-6.546875 -0.921875,-4.046875 -0.921875,-9.90625 0,-5.65625 0.921875,-9.515625 0.9375,-3.859375 2.71875,-6.28125 1.78125,-2.40625 4.40625,-3.46875 2.640625,-1.046875 6.0625,-1.046875 3.21875,0 5.5625,1.125 2.34375,1.125 3.90625,3.609375 1.5625,2.5 2.3125,6.46875 0.765625,3.984375 0.765625,9.65625"
         id="path5167"
         inkscape:connector-curvature="0"
         style="stroke-linecap:butt;stroke-linejoin:round;stroke-miterlimit:100000" />
      <path
         d="m 27.046875,0.390625 q -2,-0.53125 -4.078125,-0.84375 Q 20.90625,-0.78125 18.171875,-0.78125 7.625,-0.78125 7.625,11.1875 l 0,35.25 -6.109375,0 0,6.390625 6.4375,0 2.59375,11.828125 5.859375,0 0,-11.828125 9.765625,0 0,-6.390625 -9.765625,0 0,-33.34375 q 0,-3.8125 1.234375,-5.359375 1.25,-1.53125 4.328125,-1.53125 1.28125,0 2.46875,0.1875 1.203125,0.203125 2.609375,0.5 z"
         id="path5169"
         inkscape:connector-curvature="0"
         style="stroke-linecap:butt;stroke-linejoin:round;stroke-miterlimit:100000" />
      <path
         d="m 15.484375,43.796875 q 1.453125,2.6875 3.15625,4.5625 1.71875,1.890625 3.765625,3.109375 2.0625,1.21875 4.5,1.78125 2.4375,0.5625 5.46875,0.5625 5.078125,0 8.328125,-1.375 3.25,-1.359375 5.125,-3.828125 1.875,-2.46875 2.578125,-5.890625 Q 49.125,39.3125 49.125,35.203125 L 49.125,0 l -8.84375,0 0,33.5 q 0,3.359375 -0.421875,5.890625 -0.40625,2.546875 -1.578125,4.234375 -1.171875,1.6875 -3.328125,2.53125 -2.140625,0.859375 -5.5625,0.859375 -3.125,0 -5.640625,-1.125 Q 21.234375,44.78125 19.453125,42.71875 17.671875,40.671875 16.6875,37.734375 15.71875,34.8125 15.71875,31.15625 L 15.71875,0 6.9375,0 l 0,72.46875 8.78125,0 0,-18.859375 q 0,-1.609375 -0.04687,-3.21875 -0.04687,-1.609375 -0.125,-2.984375 -0.0625,-1.359375 -0.125,-2.3125 -0.04687,-0.953125 -0.09375,-1.296875 z"
         id="path5171"
         inkscape:connector-curvature="0"
         style="stroke-linecap:butt;stroke-linejoin:round;stroke-miterlimit:100000" />
      <path
         d="m 6.6875,64.0625 0,8.40625 8.796875,0 0,-8.40625 z m 0,-64.0625 0,52.828125 8.796875,0 0,-52.828125 z"
         id="path5173"
         inkscape:connector-curvature="0"
         style="stroke-linecap:butt;stroke-linejoin:round;stroke-miterlimit:100000" />
      <path
         d="m 40.28125,0 0,33.5 q 0,3.859375 -0.5625,6.4375 -0.5625,2.59375 -1.828125,4.171875 -1.265625,1.59375 -3.34375,2.25 -2.078125,0.65625 -5.15625,0.65625 -3.125,0 -5.640625,-1.09375 Q 21.234375,44.828125 19.453125,42.75 17.671875,40.671875 16.6875,37.625 15.71875,34.578125 15.71875,30.609375 L 15.71875,0 6.9375,0 l 0,41.546875 q 0,1.671875 -0.03125,3.5 Q 6.890625,46.875 6.828125,48.5 6.78125,50.140625 6.734375,51.3125 6.6875,52.484375 6.640625,52.828125 l 8.296875,0 q 0.04687,-0.234375 0.09375,-1.3125 0.0625,-1.078125 0.125,-2.46875 0.07813,-1.390625 0.125,-2.828125 0.04687,-1.4375 0.04687,-2.421875 l 0.15625,0 q 1.265625,2.296875 2.78125,4.15625 1.515625,1.859375 3.515625,3.140625 2,1.296875 4.578125,2 2.59375,0.71875 6.015625,0.71875 4.390625,0 7.5625,-1.078125 3.171875,-1.078125 5.21875,-3.328125 2.0625,-2.234375 3.015625,-5.78125 Q 49.125,40.09375 49.125,35.203125 L 49.125,0 Z"
         id="path5175"
         inkscape:connector-curvature="0"
         style="stroke-linecap:butt;stroke-linejoin:round;stroke-miterlimit:100000" />
      <path
         d="m 51.421875,26.46875 q 0,-13.875 -6.109375,-20.671875 -6.109375,-6.78125 -17.71875,-6.78125 -5.515625,0 -9.875,1.65625 -4.34375,1.671875 -7.34375,5.09375 -3,3.421875 -4.59375,8.5625 -1.578125,5.15625 -1.578125,12.140625 0,27.34375 23.671875,27.34375 6.15625,0 10.625,-1.71875 4.46875,-1.703125 7.328125,-5.125 2.859375,-3.40625 4.21875,-8.546875 1.375,-5.125 1.375,-11.953125 m -9.234375,0 q 0,6.15625 -0.953125,10.15625 -0.953125,4 -2.78125,6.390625 -1.828125,2.390625 -4.46875,3.34375 -2.640625,0.953125 -5.953125,0.953125 -3.375,0 -6.09375,-1 -2.703125,-1 -4.609375,-3.421875 -1.890625,-2.40625 -2.90625,-6.421875 -1,-4 -1,-10 0,-6.15625 1.078125,-10.1875 1.078125,-4.03125 2.953125,-6.421875 1.890625,-2.390625 4.453125,-3.375 2.5625,-0.96875 5.578125,-0.96875 3.375,0 6.109375,0.953125 2.734375,0.953125 4.640625,3.34375 1.90625,2.390625 2.921875,6.4375 1.03125,4.0625 1.03125,10.21875"
         id="path5177"
         inkscape:connector-curvature="0"
         style="stroke-linecap:butt;stroke-linejoin:round;stroke-miterlimit:100000" />
    </defs>
    <g
       style="fill:#0089ff;fill-opacity:1;stroke-linecap:butt;stroke-linejoin:round;stroke-miterlimit:100000"
       transform="matrix(0.1152,0,0,-0.1152,102.23373,104.57158)"
       id="g5179">
      <text
         xml:space="preserve"
         style="font-style:normal;font-variant:normal;font-weight:normal;font-stretch:normal;font-size:75.40081024px;line-height:125%;font-family:Arial;-inkscape-font-specification:'Arial, Normal';text-align:center;letter-spacing:0px;word-spacing:0px;writing-mode:lr-tb;text-anchor:middle;fill:#0089ff;fill-opacity:1;stroke:none;stroke-width:1px;stroke-linecap:butt;stroke-linejoin:miter;stroke-miterlimit:100000;stroke-opacity:1"
         x="827.5174"
         y="-413.53363"
         id="text5181"
         sodipodi:linespacing="125%"
         transform="scale(1,-1)"><tspan
           sodipodi:role="line"
           id="tspan5183"
           style="fill:#0089ff;fill-opacity:1;stroke-linecap:butt;stroke-linejoin:round;stroke-miterlimit:100000"
           x="827.5174"
           y="-413.53363">activated (128)</tspan></text>
    </g>
  </g>
  <text
     sodipodi:linespacing="125%"
     id="text5185"
     y="112.49476"
     x="317.54446"
     style="font-style:normal;font-variant:normal;font-weight:normal;font-stretch:normal;font-size:10px;line-height:125%;font-family:Arial;-inkscape-font-specification:'Arial, Normal';text-align:center;letter-spacing:0px;word-spacing:0px;writing-mode:lr-tb;text-anchor:middle;fill:#000000;fill-opacity:1;stroke:none;stroke-width:1px;stroke-linecap:butt;stroke-linejoin:miter;stroke-miterlimit:100000;stroke-opacity:1"
     xml:space="preserve"><tspan
       y="112.49476"
       x="317.54446"
       style="stroke-linecap:butt;stroke-linejoin:round;stroke-miterlimit:100000"
       id="tspan5187"
       sodipodi:role="line">113</tspan></text>
  <text
     sodipodi:linespacing="125%"
     id="text5189"
     y="175.59431"
     x="291.28296"
     style="font-style:normal;font-variant:normal;font-weight:normal;font-stretch:normal;font-size:10px;line-height:125%;font-family:Arial;-inkscape-font-specification:'Arial, Normal';text-align:center;letter-spacing:0px;word-spacing:0px;writing-mode:lr-tb;text-anchor:middle;fill:#000000;fill-opacity:1;stroke:none;stroke-width:1px;stroke-linecap:butt;stroke-linejoin:miter;stroke-miterlimit:100000;stroke-opacity:1"
     xml:space="preserve"><tspan
       y="175.59431"
       x="291.28296"
       style="stroke-linecap:butt;stroke-linejoin:round;stroke-miterlimit:100000"
       id="tspan5191"
       sodipodi:role="line">304</tspan></text>
  <text
     sodipodi:linespacing="125%"
     id="text5193"
     y="112.20219"
     x="257.7301"
     style="font-style:normal;font-variant:normal;font-weight:normal;font-stretch:normal;font-size:10px;line-height:125%;font-family:Arial;-inkscape-font-specification:'Arial, Normal';text-align:center;letter-spacing:0px;word-spacing:0px;writing-mode:lr-tb;text-anchor:middle;fill:#000000;fill-opacity:1;stroke:none;stroke-width:1px;stroke-linecap:butt;stroke-linejoin:miter;stroke-miterlimit:100000;stroke-opacity:1"
     xml:space="preserve"><tspan
       y="112.20219"
       x="257.7301"
       style="stroke-linecap:butt;stroke-linejoin:round;stroke-miterlimit:100000"
       id="tspan5195"
       sodipodi:role="line">236</tspan></text>
  <text
     sodipodi:linespacing="125%"
     id="text5197"
     y="112.66479"
     x="342.47638"
     style="font-style:normal;font-variant:normal;font-weight:normal;font-stretch:normal;font-size:10px;line-height:125%;font-family:Arial;-inkscape-font-specification:'Arial, Normal';text-align:center;letter-spacing:0px;word-spacing:0px;writing-mode:lr-tb;text-anchor:middle;fill:#000000;fill-opacity:1;stroke:none;stroke-width:1px;stroke-linecap:butt;stroke-linejoin:miter;stroke-miterlimit:100000;stroke-opacity:1"
     xml:space="preserve"><tspan
       y="112.66479"
       x="342.47638"
       style="stroke-linecap:butt;stroke-linejoin:round;stroke-miterlimit:100000"
       id="tspan5199"
       sodipodi:role="line">15</tspan></text>
  <text
     sodipodi:linespacing="125%"
     id="text5203"
     y="12.563228"
     x="291.32886"
     style="font-style:normal;font-variant:normal;font-weight:normal;font-stretch:normal;font-size:10px;line-height:125%;font-family:Arial;-inkscape-font-specification:'Arial, Normal';text-align:center;letter-spacing:0px;word-spacing:0px;writing-mode:lr-tb;text-anchor:middle;fill:#000000;fill-opacity:1;stroke:none;stroke-width:1px;stroke-linecap:butt;stroke-linejoin:miter;stroke-miterlimit:100000;stroke-opacity:1"
     xml:space="preserve"><tspan
       y="12.563228"
       x="291.32886"
       style="stroke-linecap:butt;stroke-linejoin:round;stroke-miterlimit:100000"
       id="tspan5205"
       sodipodi:role="line">all <tspan
   id="tspan5207"
   style="font-style:italic;stroke-linecap:butt;stroke-linejoin:round;stroke-miterlimit:100000">E. coli</tspan> reactions (668)</tspan></text>
</svg>
