<?xml version="1.0" encoding="utf-8" standalone="no"?>
<!DOCTYPE svg PUBLIC "-//W3C//DTD SVG 1.1//EN"
  "http://www.w3.org/Graphics/SVG/1.1/DTD/svg11.dtd">
<!-- Created with matplotlib (http://matplotlib.org/) -->
<svg height="360pt" version="1.1" viewBox="0 0 504 360" width="504pt" xmlns="http://www.w3.org/2000/svg" xmlns:xlink="http://www.w3.org/1999/xlink">
 <defs>
  <style type="text/css">
*{stroke-linecap:butt;stroke-linejoin:round;stroke-miterlimit:100000;}
  </style>
 </defs>
 <g id="figure_1">
  <g id="patch_1">
   <path d="M 0 360 
L 504 360 
L 504 0 
L 0 0 
z
" style="fill:#ffffff;"/>
  </g>
  <g id="axes_1">
   <g id="patch_2">
    <path clip-path="url(#pf90ffc8c63)" d="M 190.289128 110.671564 
C 192.588018 112.091825 194.740343 113.736663 196.714461 115.581898 
C 198.68858 117.427134 200.47477 119.463679 202.046774 121.661597 
C 203.689356 122.466414 205.24409 123.439346 206.686033 124.564782 
C 208.127975 125.690218 209.449373 126.962108 210.629026 128.360044 
C 207.803476 124.832222 204.666456 121.565576 201.255868 118.599578 
C 197.84528 115.633579 194.174918 112.980221 190.289128 110.671564 
M 187.603719 109.149572 
C 179.487604 104.766654 170.635752 101.909873 161.488687 100.721397 
C 152.341621 99.532922 143.053639 100.032801 134.086969 102.196158 
C 125.120299 104.359515 116.626196 108.149856 109.027378 113.378551 
C 101.42856 118.607246 94.85321 125.186095 89.628556 132.787692 
C 84.403903 140.389289 80.618079 148.885407 78.459491 157.853226 
C 76.300903 166.821045 75.805963 176.109292 76.999302 185.255724 
C 78.192641 194.402156 81.05413 203.252488 85.441363 211.366271 
C 89.828595 219.480054 95.667566 226.72042 102.66769 232.727045 
C 109.667815 238.733669 117.711012 243.405229 126.397001 246.509238 
C 135.082991 249.613246 144.265253 251.097344 153.486821 250.887673 
C 162.70839 250.678001 171.813709 248.778098 180.349644 245.282513 
C 188.885578 241.786929 196.708137 236.754628 203.428023 230.436051 
C 210.147909 224.117474 215.651766 216.619205 219.665688 208.314404 
C 223.679611 200.009604 226.135889 191.038362 226.912284 181.847144 
C 227.68868 172.655925 226.772094 163.399773 224.208144 154.53933 
C 221.644194 145.678888 217.476129 137.363618 211.911377 130.00734 
C 214.152723 133.133509 215.685846 136.711043 216.403679 140.490101 
C 217.121512 144.269158 217.006945 148.159671 216.067981 151.88994 
C 215.129016 155.62021 213.388032 159.101329 210.966613 162.09019 
C 208.545194 165.079051 205.50105 167.504419 202.046774 169.196914 
C 197.491127 175.566448 191.198805 180.493864 183.922805 183.389501 
C 176.646806 186.285137 168.689427 187.02869 161.002923 185.531177 
C 153.31642 184.033664 146.220144 180.357303 140.563305 174.942042 
C 134.906465 169.526782 130.924087 162.59761 129.092739 154.983738 
C 127.261391 147.369867 127.657161 139.387629 130.232687 131.992255 
C 132.808213 124.596882 137.456489 118.09563 143.621259 113.266501 
C 149.786029 108.437371 157.211164 105.481001 165.008102 104.751177 
C 172.80504 104.021354 180.64984 105.548399 187.603719 109.149572 
" style="fill:#0000ff;opacity:0.4;"/>
   </g>
   <g id="patch_3">
    <path clip-path="url(#pf90ffc8c63)" d="M 202.046774 121.661597 
C 200.47477 119.463679 198.68858 117.427134 196.714461 115.581898 
C 194.740343 113.736663 192.588018 112.091825 190.289128 110.671564 
C 189.846811 110.40877 189.401815 110.150511 188.954212 109.896826 
C 188.506609 109.64314 188.056421 109.394043 187.603719 109.149572 
C 180.64984 105.548399 172.80504 104.021354 165.008102 104.751177 
C 157.211164 105.481001 149.786029 108.437371 143.621259 113.266501 
C 137.456489 118.09563 132.808213 124.596882 130.232687 131.992255 
C 127.657161 139.387629 127.261391 147.369867 129.092739 154.983738 
C 130.924087 162.59761 134.906465 169.526782 140.563305 174.942042 
C 146.220144 180.357303 153.31642 184.033664 161.002923 185.531177 
C 168.689427 187.02869 176.646806 186.285137 183.922805 183.389501 
C 191.198805 180.493864 197.491127 175.566448 202.046774 169.196914 
C 198.011897 171.173887 193.53927 172.091218 189.051934 171.862144 
C 184.564598 171.633069 180.208637 170.265045 176.396056 167.887466 
C 172.583474 165.509887 169.43839 162.200154 167.258279 158.271315 
C 165.078168 154.342476 163.934002 149.922434 163.934002 145.429255 
C 163.934002 140.936076 165.078168 136.516034 167.258279 132.587195 
C 169.43839 128.658357 172.583474 125.348623 176.396056 122.971044 
C 180.208637 120.593465 184.564598 119.225441 189.051934 118.996367 
C 193.53927 118.767292 198.011897 119.684624 202.046774 121.661597 
" style="fill:#b200b2;opacity:0.4;"/>
   </g>
   <g id="patch_4">
    <path clip-path="url(#pf90ffc8c63)" d="M 202.046774 169.196914 
C 205.50105 167.504419 208.545194 165.079051 210.966613 162.09019 
C 213.388032 159.101329 215.129016 155.62021 216.067981 151.88994 
C 217.006945 148.159671 217.121512 144.269158 216.403679 140.490101 
C 215.685846 136.711043 214.152723 133.133509 211.911377 130.00734 
C 211.701465 129.729849 211.489635 129.453814 211.275902 129.179254 
C 211.062169 128.904695 210.846538 128.631619 210.629026 128.360044 
C 209.449373 126.962108 208.127975 125.690218 206.686033 124.564782 
C 205.24409 123.439346 203.689356 122.466414 202.046774 121.661597 
C 207.004809 128.593735 209.671621 136.906541 209.671621 145.429255 
C 209.671621 153.951969 207.004809 162.264775 202.046774 169.196914 
" style="fill:#0059b2;opacity:0.4;"/>
   </g>
   <g id="patch_5">
    <path clip-path="url(#pf90ffc8c63)" d="M 202.046774 169.196914 
C 207.004809 162.264775 209.671621 153.951969 209.671621 145.429255 
C 209.671621 136.906541 207.004809 128.593735 202.046774 121.661597 
C 198.011897 119.684624 193.53927 118.767292 189.051934 118.996367 
C 184.564598 119.225441 180.208637 120.593465 176.396056 122.971044 
C 172.583474 125.348623 169.43839 128.658357 167.258279 132.587195 
C 165.078168 136.516034 163.934002 140.936076 163.934002 145.429255 
C 163.934002 149.922434 165.078168 154.342476 167.258279 158.271315 
C 169.43839 162.200154 172.583474 165.509887 176.396056 167.887466 
C 180.208637 170.265045 184.564598 171.633069 189.051934 171.862144 
C 193.53927 172.091218 198.011897 171.173887 202.046774 169.196914 
" style="fill:#663366;opacity:0.4;"/>
   </g>
   <g id="text_1">
    <!-- 719 -->
    <defs>
     <path d="M 37.25 0 
L 28.46875 0 
L 28.46875 56 
Q 25.296875 52.984375 20.140625 49.953125 
Q 14.984375 46.921875 10.890625 45.40625 
L 10.890625 53.90625 
Q 18.265625 57.375 23.78125 62.296875 
Q 29.296875 67.234375 31.59375 71.875 
L 37.25 71.875 
z
" id="ArialMT-31"/>
     <path d="M 5.46875 16.546875 
L 13.921875 17.328125 
Q 14.984375 11.375 18.015625 8.6875 
Q 21.046875 6 25.78125 6 
Q 29.828125 6 32.875 7.859375 
Q 35.9375 9.71875 37.890625 12.8125 
Q 39.84375 15.921875 41.15625 21.1875 
Q 42.484375 26.46875 42.484375 31.9375 
Q 42.484375 32.515625 42.4375 33.6875 
Q 39.796875 29.5 35.234375 26.875 
Q 30.671875 24.265625 25.34375 24.265625 
Q 16.453125 24.265625 10.296875 30.703125 
Q 4.15625 37.15625 4.15625 47.703125 
Q 4.15625 58.59375 10.578125 65.234375 
Q 17 71.875 26.65625 71.875 
Q 33.640625 71.875 39.421875 68.109375 
Q 45.21875 64.359375 48.21875 57.390625 
Q 51.21875 50.4375 51.21875 37.25 
Q 51.21875 23.53125 48.234375 15.40625 
Q 45.265625 7.28125 39.375 3.03125 
Q 33.5 -1.21875 25.59375 -1.21875 
Q 17.1875 -1.21875 11.859375 3.4375 
Q 6.546875 8.109375 5.46875 16.546875 
M 41.453125 48.140625 
Q 41.453125 55.71875 37.421875 60.15625 
Q 33.40625 64.59375 27.734375 64.59375 
Q 21.875 64.59375 17.53125 59.8125 
Q 13.1875 55.03125 13.1875 47.40625 
Q 13.1875 40.578125 17.3125 36.296875 
Q 21.4375 32.03125 27.484375 32.03125 
Q 33.59375 32.03125 37.515625 36.296875 
Q 41.453125 40.578125 41.453125 48.140625 
" id="ArialMT-39"/>
     <path d="M 4.734375 62.203125 
L 4.734375 70.65625 
L 51.078125 70.65625 
L 51.078125 63.8125 
Q 44.234375 56.546875 37.515625 44.484375 
Q 30.8125 32.421875 27.15625 19.671875 
Q 24.515625 10.6875 23.78125 0 
L 14.75 0 
Q 14.890625 8.453125 18.0625 20.40625 
Q 21.234375 32.375 27.171875 43.484375 
Q 33.109375 54.59375 39.796875 62.203125 
z
" id="ArialMT-37"/>
    </defs>
    <g style="fill:#262626;" transform="translate(120.786708237 194.452399324)scale(0.096 -0.096)">
     <use xlink:href="#ArialMT-37"/>
     <use x="55.615234375" xlink:href="#ArialMT-31"/>
     <use x="111.23046875" xlink:href="#ArialMT-39"/>
    </g>
   </g>
   <g id="text_2">
    <!-- 192 -->
    <defs>
     <path d="M 50.34375 8.453125 
L 50.34375 0 
L 3.03125 0 
Q 2.9375 3.171875 4.046875 6.109375 
Q 5.859375 10.9375 9.828125 15.625 
Q 13.8125 20.3125 21.34375 26.46875 
Q 33.015625 36.03125 37.109375 41.625 
Q 41.21875 47.21875 41.21875 52.203125 
Q 41.21875 57.421875 37.46875 61 
Q 33.734375 64.59375 27.734375 64.59375 
Q 21.390625 64.59375 17.578125 60.78125 
Q 13.765625 56.984375 13.71875 50.25 
L 4.6875 51.171875 
Q 5.609375 61.28125 11.65625 66.578125 
Q 17.71875 71.875 27.9375 71.875 
Q 38.234375 71.875 44.234375 66.15625 
Q 50.25 60.453125 50.25 52 
Q 50.25 47.703125 48.484375 43.546875 
Q 46.734375 39.40625 42.65625 34.8125 
Q 38.578125 30.21875 29.109375 22.21875 
Q 21.1875 15.578125 18.9375 13.203125 
Q 16.703125 10.84375 15.234375 8.453125 
z
" id="ArialMT-32"/>
    </defs>
    <g style="fill:#262626;" transform="translate(139.901261635 151.263057562)scale(0.096 -0.096)">
     <use xlink:href="#ArialMT-31"/>
     <use x="55.615234375" xlink:href="#ArialMT-39"/>
     <use x="111.23046875" xlink:href="#ArialMT-32"/>
    </g>
   </g>
   <g id="text_3">
    <!-- 15 -->
    <defs>
     <path d="M 4.15625 18.75 
L 13.375 19.53125 
Q 14.40625 12.796875 18.140625 9.390625 
Q 21.875 6 27.15625 6 
Q 33.5 6 37.890625 10.78125 
Q 42.28125 15.578125 42.28125 23.484375 
Q 42.28125 31 38.0625 35.34375 
Q 33.84375 39.703125 27 39.703125 
Q 22.75 39.703125 19.328125 37.765625 
Q 15.921875 35.84375 13.96875 32.765625 
L 5.71875 33.84375 
L 12.640625 70.609375 
L 48.25 70.609375 
L 48.25 62.203125 
L 19.671875 62.203125 
L 15.828125 42.96875 
Q 22.265625 47.46875 29.34375 47.46875 
Q 38.71875 47.46875 45.15625 40.96875 
Q 51.609375 34.46875 51.609375 24.265625 
Q 51.609375 14.546875 45.953125 7.46875 
Q 39.0625 -1.21875 27.15625 -1.21875 
Q 17.390625 -1.21875 11.203125 4.25 
Q 5.03125 9.71875 4.15625 18.75 
" id="ArialMT-35"/>
    </defs>
    <g style="fill:#262626;" transform="translate(207.232740651 148.533593823)scale(0.096 -0.096)">
     <use xlink:href="#ArialMT-31"/>
     <use x="55.615234375" xlink:href="#ArialMT-35"/>
    </g>
   </g>
   <g id="text_4">
    <!-- 113 -->
    <defs>
     <path d="M 4.203125 18.890625 
L 12.984375 20.0625 
Q 14.5 12.59375 18.140625 9.296875 
Q 21.78125 6 27 6 
Q 33.203125 6 37.46875 10.296875 
Q 41.75 14.59375 41.75 20.953125 
Q 41.75 27 37.796875 30.921875 
Q 33.84375 34.859375 27.734375 34.859375 
Q 25.25 34.859375 21.53125 33.890625 
L 22.515625 41.609375 
Q 23.390625 41.5 23.921875 41.5 
Q 29.546875 41.5 34.03125 44.421875 
Q 38.53125 47.359375 38.53125 53.46875 
Q 38.53125 58.296875 35.25 61.46875 
Q 31.984375 64.65625 26.8125 64.65625 
Q 21.6875 64.65625 18.265625 61.421875 
Q 14.84375 58.203125 13.875 51.765625 
L 5.078125 53.328125 
Q 6.6875 62.15625 12.390625 67.015625 
Q 18.109375 71.875 26.609375 71.875 
Q 32.46875 71.875 37.390625 69.359375 
Q 42.328125 66.84375 44.9375 62.5 
Q 47.5625 58.15625 47.5625 53.265625 
Q 47.5625 48.640625 45.0625 44.828125 
Q 42.578125 41.015625 37.703125 38.765625 
Q 44.046875 37.3125 47.5625 32.6875 
Q 51.078125 28.078125 51.078125 21.140625 
Q 51.078125 11.765625 44.234375 5.25 
Q 37.40625 -1.265625 26.953125 -1.265625 
Q 17.53125 -1.265625 11.296875 4.34375 
Q 5.078125 9.96875 4.203125 18.890625 
" id="ArialMT-33"/>
    </defs>
    <g style="fill:#262626;" transform="translate(178.800311854 147.911005085)scale(0.096 -0.096)">
     <use xlink:href="#ArialMT-31"/>
     <use x="55.505859375" xlink:href="#ArialMT-31"/>
     <use x="111.12109375" xlink:href="#ArialMT-33"/>
    </g>
   </g>
   <g id="text_5">
    <!-- inhibitors -->
    <defs>
     <path d="M 14.703125 0 
L 6.546875 0 
L 6.546875 71.578125 
L 15.328125 71.578125 
L 15.328125 46.046875 
Q 20.90625 53.03125 29.546875 53.03125 
Q 34.328125 53.03125 38.59375 51.09375 
Q 42.875 49.171875 45.625 45.671875 
Q 48.390625 42.1875 49.953125 37.25 
Q 51.515625 32.328125 51.515625 26.703125 
Q 51.515625 13.375 44.921875 6.09375 
Q 38.328125 -1.171875 29.109375 -1.171875 
Q 19.921875 -1.171875 14.703125 6.5 
z
M 14.59375 26.3125 
Q 14.59375 17 17.140625 12.84375 
Q 21.296875 6.0625 28.375 6.0625 
Q 34.125 6.0625 38.328125 11.0625 
Q 42.53125 16.0625 42.53125 25.984375 
Q 42.53125 36.140625 38.5 40.96875 
Q 34.46875 45.796875 28.765625 45.796875 
Q 23 45.796875 18.796875 40.796875 
Q 14.59375 35.796875 14.59375 26.3125 
" id="ArialMT-62"/>
     <path d="M 25.78125 7.859375 
L 27.046875 0.09375 
Q 23.34375 -0.6875 20.40625 -0.6875 
Q 15.625 -0.6875 12.984375 0.828125 
Q 10.359375 2.34375 9.28125 4.8125 
Q 8.203125 7.28125 8.203125 15.1875 
L 8.203125 45.015625 
L 1.765625 45.015625 
L 1.765625 51.859375 
L 8.203125 51.859375 
L 8.203125 64.703125 
L 16.9375 69.96875 
L 16.9375 51.859375 
L 25.78125 51.859375 
L 25.78125 45.015625 
L 16.9375 45.015625 
L 16.9375 14.703125 
Q 16.9375 10.9375 17.40625 9.859375 
Q 17.875 8.796875 18.921875 8.15625 
Q 19.96875 7.515625 21.921875 7.515625 
Q 23.390625 7.515625 25.78125 7.859375 
" id="ArialMT-74"/>
     <path d="M 6.640625 61.46875 
L 6.640625 71.578125 
L 15.4375 71.578125 
L 15.4375 61.46875 
z
M 6.640625 0 
L 6.640625 51.859375 
L 15.4375 51.859375 
L 15.4375 0 
z
" id="ArialMT-69"/>
     <path d="M 6.59375 0 
L 6.59375 71.578125 
L 15.375 71.578125 
L 15.375 45.90625 
Q 21.53125 53.03125 30.90625 53.03125 
Q 36.671875 53.03125 40.921875 50.75 
Q 45.171875 48.484375 47 44.484375 
Q 48.828125 40.484375 48.828125 32.859375 
L 48.828125 0 
L 40.046875 0 
L 40.046875 32.859375 
Q 40.046875 39.453125 37.1875 42.453125 
Q 34.328125 45.453125 29.109375 45.453125 
Q 25.203125 45.453125 21.75 43.421875 
Q 18.3125 41.40625 16.84375 37.9375 
Q 15.375 34.46875 15.375 28.375 
L 15.375 0 
z
" id="ArialMT-68"/>
     <path d="M 6.5 0 
L 6.5 51.859375 
L 14.40625 51.859375 
L 14.40625 44 
Q 17.4375 49.515625 20 51.265625 
Q 22.5625 53.03125 25.640625 53.03125 
Q 30.078125 53.03125 34.671875 50.203125 
L 31.640625 42.046875 
Q 28.421875 43.953125 25.203125 43.953125 
Q 22.3125 43.953125 20.015625 42.21875 
Q 17.71875 40.484375 16.75 37.40625 
Q 15.28125 32.71875 15.28125 27.15625 
L 15.28125 0 
z
" id="ArialMT-72"/>
     <path d="M 3.078125 15.484375 
L 11.765625 16.84375 
Q 12.5 11.625 15.84375 8.84375 
Q 19.1875 6.0625 25.203125 6.0625 
Q 31.25 6.0625 34.171875 8.515625 
Q 37.109375 10.984375 37.109375 14.3125 
Q 37.109375 17.28125 34.515625 19 
Q 32.71875 20.171875 25.53125 21.96875 
Q 15.875 24.421875 12.140625 26.203125 
Q 8.40625 27.984375 6.46875 31.125 
Q 4.546875 34.28125 4.546875 38.09375 
Q 4.546875 41.546875 6.125 44.5 
Q 7.71875 47.46875 10.453125 49.421875 
Q 12.5 50.921875 16.03125 51.96875 
Q 19.578125 53.03125 23.640625 53.03125 
Q 29.734375 53.03125 34.34375 51.265625 
Q 38.96875 49.515625 41.15625 46.5 
Q 43.359375 43.5 44.1875 38.484375 
L 35.59375 37.3125 
Q 35.015625 41.3125 32.203125 43.546875 
Q 29.390625 45.796875 24.265625 45.796875 
Q 18.21875 45.796875 15.625 43.796875 
Q 13.03125 41.796875 13.03125 39.109375 
Q 13.03125 37.40625 14.109375 36.03125 
Q 15.1875 34.625 17.484375 33.6875 
Q 18.796875 33.203125 25.25 31.453125 
Q 34.578125 28.953125 38.25 27.359375 
Q 41.9375 25.78125 44.03125 22.75 
Q 46.140625 19.734375 46.140625 15.234375 
Q 46.140625 10.84375 43.578125 6.953125 
Q 41.015625 3.078125 36.171875 0.953125 
Q 31.34375 -1.171875 25.25 -1.171875 
Q 15.140625 -1.171875 9.84375 3.03125 
Q 4.546875 7.234375 3.078125 15.484375 
" id="ArialMT-73"/>
     <path d="M 3.328125 25.921875 
Q 3.328125 40.328125 11.328125 47.265625 
Q 18.015625 53.03125 27.640625 53.03125 
Q 38.328125 53.03125 45.109375 46.015625 
Q 51.90625 39.015625 51.90625 26.65625 
Q 51.90625 16.65625 48.90625 10.90625 
Q 45.90625 5.171875 40.15625 2 
Q 34.421875 -1.171875 27.640625 -1.171875 
Q 16.75 -1.171875 10.03125 5.8125 
Q 3.328125 12.796875 3.328125 25.921875 
M 12.359375 25.921875 
Q 12.359375 15.96875 16.703125 11.015625 
Q 21.046875 6.0625 27.640625 6.0625 
Q 34.1875 6.0625 38.53125 11.03125 
Q 42.875 16.015625 42.875 26.21875 
Q 42.875 35.84375 38.5 40.796875 
Q 34.125 45.75 27.640625 45.75 
Q 21.046875 45.75 16.703125 40.8125 
Q 12.359375 35.890625 12.359375 25.921875 
" id="ArialMT-6f"/>
     <path d="M 6.59375 0 
L 6.59375 51.859375 
L 14.5 51.859375 
L 14.5 44.484375 
Q 20.21875 53.03125 31 53.03125 
Q 35.6875 53.03125 39.625 51.34375 
Q 43.5625 49.65625 45.515625 46.921875 
Q 47.46875 44.1875 48.25 40.4375 
Q 48.734375 37.984375 48.734375 31.890625 
L 48.734375 0 
L 39.9375 0 
L 39.9375 31.546875 
Q 39.9375 36.921875 38.90625 39.578125 
Q 37.890625 42.234375 35.28125 43.8125 
Q 32.671875 45.40625 29.15625 45.40625 
Q 23.53125 45.40625 19.453125 41.84375 
Q 15.375 38.28125 15.375 28.328125 
L 15.375 0 
z
" id="ArialMT-6e"/>
    </defs>
    <g style="fill:#262626;" transform="translate(102.287981239 104.573361683)scale(0.1152 -0.1152)">
     <use xlink:href="#ArialMT-69"/>
     <use x="22.216796875" xlink:href="#ArialMT-6e"/>
     <use x="77.83203125" xlink:href="#ArialMT-68"/>
     <use x="133.447265625" xlink:href="#ArialMT-69"/>
     <use x="155.6640625" xlink:href="#ArialMT-62"/>
     <use x="211.279296875" xlink:href="#ArialMT-69"/>
     <use x="233.49609375" xlink:href="#ArialMT-74"/>
     <use x="261.279296875" xlink:href="#ArialMT-6f"/>
     <use x="316.89453125" xlink:href="#ArialMT-72"/>
     <use x="350.1953125" xlink:href="#ArialMT-73"/>
    </g>
   </g>
   <g id="text_6">
    <!-- activators -->
    <defs>
     <path d="M 40.4375 19 
L 49.078125 17.875 
Q 47.65625 8.9375 41.8125 3.875 
Q 35.984375 -1.171875 27.484375 -1.171875 
Q 16.84375 -1.171875 10.375 5.78125 
Q 3.90625 12.75 3.90625 25.734375 
Q 3.90625 34.125 6.6875 40.421875 
Q 9.46875 46.734375 15.15625 49.875 
Q 20.84375 53.03125 27.546875 53.03125 
Q 35.984375 53.03125 41.359375 48.75 
Q 46.734375 44.484375 48.25 36.625 
L 39.703125 35.296875 
Q 38.484375 40.53125 35.375 43.15625 
Q 32.28125 45.796875 27.875 45.796875 
Q 21.234375 45.796875 17.078125 41.03125 
Q 12.9375 36.28125 12.9375 25.984375 
Q 12.9375 15.53125 16.9375 10.796875 
Q 20.953125 6.0625 27.390625 6.0625 
Q 32.5625 6.0625 36.03125 9.234375 
Q 39.5 12.40625 40.4375 19 
" id="ArialMT-63"/>
     <path d="M 40.4375 6.390625 
Q 35.546875 2.25 31.03125 0.53125 
Q 26.515625 -1.171875 21.34375 -1.171875 
Q 12.796875 -1.171875 8.203125 3 
Q 3.609375 7.171875 3.609375 13.671875 
Q 3.609375 17.484375 5.34375 20.625 
Q 7.078125 23.78125 9.890625 25.6875 
Q 12.703125 27.59375 16.21875 28.5625 
Q 18.796875 29.25 24.03125 29.890625 
Q 34.671875 31.15625 39.703125 32.90625 
Q 39.75 34.71875 39.75 35.203125 
Q 39.75 40.578125 37.25 42.78125 
Q 33.890625 45.75 27.25 45.75 
Q 21.046875 45.75 18.09375 43.578125 
Q 15.140625 41.40625 13.71875 35.890625 
L 5.125 37.0625 
Q 6.296875 42.578125 8.984375 45.96875 
Q 11.671875 49.359375 16.75 51.1875 
Q 21.828125 53.03125 28.515625 53.03125 
Q 35.15625 53.03125 39.296875 51.46875 
Q 43.453125 49.90625 45.40625 47.53125 
Q 47.359375 45.171875 48.140625 41.546875 
Q 48.578125 39.3125 48.578125 33.453125 
L 48.578125 21.734375 
Q 48.578125 9.46875 49.140625 6.21875 
Q 49.703125 2.984375 51.375 0 
L 42.1875 0 
Q 40.828125 2.734375 40.4375 6.390625 
M 39.703125 26.03125 
Q 34.90625 24.078125 25.34375 22.703125 
Q 19.921875 21.921875 17.671875 20.9375 
Q 15.4375 19.96875 14.203125 18.09375 
Q 12.984375 16.21875 12.984375 13.921875 
Q 12.984375 10.40625 15.640625 8.0625 
Q 18.3125 5.71875 23.4375 5.71875 
Q 28.515625 5.71875 32.46875 7.9375 
Q 36.421875 10.15625 38.28125 14.015625 
Q 39.703125 17 39.703125 22.796875 
z
" id="ArialMT-61"/>
     <path d="M 21 0 
L 1.265625 51.859375 
L 10.546875 51.859375 
L 21.6875 20.796875 
Q 23.484375 15.765625 25 10.359375 
Q 26.171875 14.453125 28.265625 20.21875 
L 39.796875 51.859375 
L 48.828125 51.859375 
L 29.203125 0 
z
" id="ArialMT-76"/>
    </defs>
    <g style="fill:#262626;" transform="translate(203.634964877 118.961946745)scale(0.1152 -0.1152)">
     <use xlink:href="#ArialMT-61"/>
     <use x="55.615234375" xlink:href="#ArialMT-63"/>
     <use x="105.615234375" xlink:href="#ArialMT-74"/>
     <use x="133.3984375" xlink:href="#ArialMT-69"/>
     <use x="155.615234375" xlink:href="#ArialMT-76"/>
     <use x="205.615234375" xlink:href="#ArialMT-61"/>
     <use x="261.23046875" xlink:href="#ArialMT-74"/>
     <use x="289.013671875" xlink:href="#ArialMT-6f"/>
     <use x="344.62890625" xlink:href="#ArialMT-72"/>
     <use x="377.9296875" xlink:href="#ArialMT-73"/>
    </g>
   </g>
   <g id="text_7">
    <!-- E. coli metabolites -->
    <defs>
     <path d="M 42.09375 16.703125 
L 51.171875 15.578125 
Q 49.03125 7.625 43.21875 3.21875 
Q 37.40625 -1.171875 28.375 -1.171875 
Q 17 -1.171875 10.328125 5.828125 
Q 3.65625 12.84375 3.65625 25.484375 
Q 3.65625 38.578125 10.390625 45.796875 
Q 17.140625 53.03125 27.875 53.03125 
Q 38.28125 53.03125 44.875 45.953125 
Q 51.46875 38.875 51.46875 26.03125 
Q 51.46875 25.25 51.421875 23.6875 
L 12.75 23.6875 
Q 13.234375 15.140625 17.578125 10.59375 
Q 21.921875 6.0625 28.421875 6.0625 
Q 33.25 6.0625 36.671875 8.59375 
Q 40.09375 11.140625 42.09375 16.703125 
M 13.234375 30.90625 
L 42.1875 30.90625 
Q 41.609375 37.453125 38.875 40.71875 
Q 34.671875 45.796875 27.984375 45.796875 
Q 21.921875 45.796875 17.796875 41.75 
Q 13.671875 37.703125 13.234375 30.90625 
" id="ArialMT-65"/>
     <path d="M 9.078125 0 
L 9.078125 10.015625 
L 19.09375 10.015625 
L 19.09375 0 
z
" id="ArialMT-2e"/>
     <path d="M 7.90625 0 
L 7.90625 71.578125 
L 59.671875 71.578125 
L 59.671875 63.140625 
L 17.390625 63.140625 
L 17.390625 41.21875 
L 56.984375 41.21875 
L 56.984375 32.8125 
L 17.390625 32.8125 
L 17.390625 8.453125 
L 61.328125 8.453125 
L 61.328125 0 
z
" id="ArialMT-45"/>
     <path d="M 6.390625 0 
L 6.390625 71.578125 
L 15.1875 71.578125 
L 15.1875 0 
z
" id="ArialMT-6c"/>
     <path d="M 6.59375 0 
L 6.59375 51.859375 
L 14.453125 51.859375 
L 14.453125 44.578125 
Q 16.890625 48.390625 20.9375 50.703125 
Q 25 53.03125 30.171875 53.03125 
Q 35.9375 53.03125 39.625 50.640625 
Q 43.3125 48.25 44.828125 43.953125 
Q 50.984375 53.03125 60.84375 53.03125 
Q 68.5625 53.03125 72.703125 48.75 
Q 76.859375 44.484375 76.859375 35.59375 
L 76.859375 0 
L 68.109375 0 
L 68.109375 32.671875 
Q 68.109375 37.9375 67.25 40.25 
Q 66.40625 42.578125 64.15625 43.984375 
Q 61.921875 45.40625 58.890625 45.40625 
Q 53.421875 45.40625 49.796875 41.765625 
Q 46.1875 38.140625 46.1875 30.125 
L 46.1875 0 
L 37.40625 0 
L 37.40625 33.6875 
Q 37.40625 39.546875 35.25 42.46875 
Q 33.109375 45.40625 28.21875 45.40625 
Q 24.515625 45.40625 21.359375 43.453125 
Q 18.21875 41.5 16.796875 37.734375 
Q 15.375 33.984375 15.375 26.90625 
L 15.375 0 
z
" id="ArialMT-6d"/>
     <path id="ArialMT-20"/>
    </defs>
    <g style="fill:#262626;" transform="translate(105.033927273 266.693672412)scale(0.1152 -0.1152)">
     <use xlink:href="#ArialMT-45"/>
     <use x="66.69921875" xlink:href="#ArialMT-2e"/>
     <use x="94.482421875" xlink:href="#ArialMT-20"/>
     <use x="122.265625" xlink:href="#ArialMT-63"/>
     <use x="172.265625" xlink:href="#ArialMT-6f"/>
     <use x="227.880859375" xlink:href="#ArialMT-6c"/>
     <use x="250.09765625" xlink:href="#ArialMT-69"/>
     <use x="272.314453125" xlink:href="#ArialMT-20"/>
     <use x="300.09765625" xlink:href="#ArialMT-6d"/>
     <use x="383.3984375" xlink:href="#ArialMT-65"/>
     <use x="439.013671875" xlink:href="#ArialMT-74"/>
     <use x="466.796875" xlink:href="#ArialMT-61"/>
     <use x="522.412109375" xlink:href="#ArialMT-62"/>
     <use x="578.02734375" xlink:href="#ArialMT-6f"/>
     <use x="633.642578125" xlink:href="#ArialMT-6c"/>
     <use x="655.859375" xlink:href="#ArialMT-69"/>
     <use x="678.076171875" xlink:href="#ArialMT-74"/>
     <use x="705.859375" xlink:href="#ArialMT-65"/>
     <use x="761.474609375" xlink:href="#ArialMT-73"/>
    </g>
   </g>
   <g id="text_8">
    <!-- a -->
    <g style="fill:#262626;" transform="translate(66.5509090909 104.593806818)scale(0.2 -0.2)">
     <use xlink:href="#ArialMT-61"/>
    </g>
   </g>
  </g>
  <g id="axes_2">
   <g id="patch_6">
    <path clip-path="url(#p84c94ac472)" d="M 391.550239 104.986722 
C 396.884282 107.079653 401.855103 110.000627 406.279314 113.64188 
C 410.703525 117.283133 414.526039 121.599328 417.605832 126.431227 
C 420.37257 127.877308 422.920571 129.708042 425.173812 131.868805 
C 427.427052 134.029568 429.362899 136.498656 430.923592 139.202399 
C 426.639426 131.401123 421.007733 124.419581 414.289714 118.581583 
C 407.571695 112.743585 399.872845 108.140805 391.550239 104.986722 
M 387.216753 103.4934 
C 378.97175 100.929728 370.347342 99.801119 361.720296 100.156878 
C 353.09325 100.512638 344.591049 102.347508 336.585122 105.581332 
C 328.579194 108.815155 321.187845 113.400144 314.733973 119.135999 
C 308.280102 124.871854 302.859078 131.673814 298.707725 139.244729 
C 294.556372 146.815645 291.736035 155.043638 290.369924 163.56926 
C 289.003814 172.094882 289.112116 180.792148 290.6901 189.281109 
C 292.268085 197.77007 295.292433 205.925282 299.631022 213.390477 
C 303.969612 220.855671 309.558331 227.520533 316.153031 233.093901 
C 322.74773 238.667269 330.250959 243.066784 338.334929 246.100248 
C 346.4189 249.133712 354.964155 250.7563 363.597385 250.897126 
C 372.230615 251.037953 380.824245 249.694937 389.002853 246.92675 
C 397.181461 244.158563 404.82419 240.006111 411.59716 234.650798 
C 418.370129 229.295486 424.173253 222.816449 428.753017 215.496732 
C 433.33278 208.177015 436.621506 200.124782 438.475523 191.691804 
C 440.32954 183.258827 440.721451 174.56972 439.634136 166.004078 
C 438.54682 157.438435 435.996345 149.122832 432.09413 141.420546 
C 435.803487 149.146272 436.367025 158.019554 433.664846 166.152474 
C 430.962666 174.285394 425.201039 181.057126 417.605832 185.026887 
C 412.157749 193.574405 404.431975 200.435201 395.300486 204.834924 
C 386.168997 209.234648 375.988768 211.001302 365.908803 209.93549 
C 355.828837 208.869679 346.243188 205.013068 338.23375 198.800938 
C 330.224312 192.588808 324.104195 184.264008 320.564154 174.766126 
C 317.024113 165.268244 316.202537 154.968577 318.192155 145.029609 
C 320.181772 135.090641 324.904803 125.900914 331.828178 118.497635 
C 338.751553 111.094356 347.604617 105.76694 357.388162 103.116671 
C 367.171706 100.466403 377.503264 100.596888 387.216753 103.4934 
" style="fill:#0000ff;opacity:0.4;"/>
   </g>
   <g id="patch_7">
    <path clip-path="url(#p84c94ac472)" d="M 417.605832 126.431227 
C 414.526039 121.599328 410.703525 117.283133 406.279314 113.64188 
C 401.855103 110.000627 396.884282 107.079653 391.550239 104.986722 
C 390.835766 104.715953 390.117218 104.456058 389.394845 104.207127 
C 388.672472 103.958197 387.946358 103.720261 387.216753 103.4934 
C 377.503264 100.596888 367.171706 100.466403 357.388162 103.116671 
C 347.604617 105.76694 338.751553 111.094356 331.828178 118.497635 
C 324.904803 125.900914 320.181772 135.090641 318.192155 145.029609 
C 316.202537 154.968577 317.024113 165.268244 320.564154 174.766126 
C 324.104195 184.264008 330.224312 192.588808 338.23375 198.800938 
C 346.243188 205.013068 355.828837 208.869679 365.908803 209.93549 
C 375.988768 211.001302 386.168997 209.234648 395.300486 204.834924 
C 404.431975 200.435201 412.157749 193.574405 417.605832 185.026887 
C 412.567575 187.660216 406.934211 188.949937 401.252097 188.770965 
C 395.569984 188.591993 390.028951 186.950307 385.166404 184.005128 
C 380.303856 181.059949 376.282243 176.909672 373.491606 171.956815 
C 370.700969 167.003958 369.234539 161.413989 369.234539 155.729057 
C 369.234539 150.044125 370.700969 144.454156 373.491606 139.501299 
C 376.282243 134.548442 380.303856 130.398164 385.166404 127.452986 
C 390.028951 124.507807 395.569984 122.866121 401.252097 122.687149 
C 406.934211 122.508177 412.567575 123.797898 417.605832 126.431227 
" style="fill:#b200b2;opacity:0.4;"/>
   </g>
   <g id="patch_8">
    <path clip-path="url(#p84c94ac472)" d="M 417.605832 185.026887 
C 425.201039 181.057126 430.962666 174.285394 433.664846 166.152474 
C 436.367025 158.019554 435.803487 149.146272 432.09413 141.420546 
C 431.905206 141.047643 431.713184 140.676316 431.518084 140.306606 
C 431.322984 139.936895 431.124813 139.568814 430.923592 139.202399 
C 429.362899 136.498656 427.427052 134.029568 425.173812 131.868805 
C 422.920571 129.708042 420.37257 127.877308 417.605832 126.431227 
C 423.184497 135.183615 426.148959 145.349953 426.148959 155.729057 
C 426.148959 166.108161 423.184497 176.274499 417.605832 185.026887 
" style="fill:#0059b2;opacity:0.4;"/>
   </g>
   <g id="patch_9">
    <path clip-path="url(#p84c94ac472)" d="M 417.605832 185.026887 
C 423.184497 176.274499 426.148959 166.108161 426.148959 155.729057 
C 426.148959 145.349953 423.184497 135.183615 417.605832 126.431227 
C 412.567575 123.797898 406.934211 122.508177 401.252097 122.687149 
C 395.569984 122.866121 390.028951 124.507807 385.166404 127.452986 
C 380.303856 130.398164 376.282243 134.548442 373.491606 139.501299 
C 370.700969 144.454156 369.234539 150.044125 369.234539 155.729057 
C 369.234539 161.413989 370.700969 167.003958 373.491606 171.956815 
C 376.282243 176.909672 380.303856 181.059949 385.166404 184.005128 
C 390.028951 186.950307 395.569984 188.591993 401.252097 188.770965 
C 406.934211 188.949937 412.567575 187.660216 417.605832 185.026887 
" style="fill:#663366;opacity:0.4;"/>
   </g>
   <g id="text_9">
    <!-- 303 -->
    <defs>
     <path d="M 4.15625 35.296875 
Q 4.15625 48 6.765625 55.734375 
Q 9.375 63.484375 14.515625 67.671875 
Q 19.671875 71.875 27.484375 71.875 
Q 33.25 71.875 37.59375 69.546875 
Q 41.9375 67.234375 44.765625 62.859375 
Q 47.609375 58.5 49.21875 52.21875 
Q 50.828125 45.953125 50.828125 35.296875 
Q 50.828125 22.703125 48.234375 14.96875 
Q 45.65625 7.234375 40.5 3 
Q 35.359375 -1.21875 27.484375 -1.21875 
Q 17.140625 -1.21875 11.234375 6.203125 
Q 4.15625 15.140625 4.15625 35.296875 
M 13.1875 35.296875 
Q 13.1875 17.671875 17.3125 11.828125 
Q 21.4375 6 27.484375 6 
Q 33.546875 6 37.671875 11.859375 
Q 41.796875 17.71875 41.796875 35.296875 
Q 41.796875 52.984375 37.671875 58.78125 
Q 33.546875 64.59375 27.390625 64.59375 
Q 21.34375 64.59375 17.71875 59.46875 
Q 13.1875 52.9375 13.1875 35.296875 
" id="ArialMT-30"/>
    </defs>
    <g style="fill:#262626;" transform="translate(325.619470881 204.011676447)scale(0.096 -0.096)">
     <use xlink:href="#ArialMT-33"/>
     <use x="55.615234375" xlink:href="#ArialMT-30"/>
     <use x="111.23046875" xlink:href="#ArialMT-33"/>
    </g>
   </g>
   <g id="text_10">
    <!-- 235 -->
    <g style="fill:#262626;" transform="translate(340.500655691 164.148259868)scale(0.096 -0.096)">
     <use xlink:href="#ArialMT-32"/>
     <use x="55.615234375" xlink:href="#ArialMT-33"/>
     <use x="111.23046875" xlink:href="#ArialMT-35"/>
    </g>
   </g>
   <g id="text_11">
    <!-- 15 -->
    <g style="fill:#262626;" transform="translate(424.227954306 158.824997834)scale(0.096 -0.096)">
     <use xlink:href="#ArialMT-31"/>
     <use x="55.615234375" xlink:href="#ArialMT-35"/>
    </g>
   </g>
   <g id="text_12">
    <!-- 113 -->
    <g style="fill:#262626;" transform="translate(389.689249018 158.210806914)scale(0.096 -0.096)">
     <use xlink:href="#ArialMT-31"/>
     <use x="55.505859375" xlink:href="#ArialMT-31"/>
     <use x="111.12109375" xlink:href="#ArialMT-33"/>
    </g>
   </g>
   <g id="text_13">
    <!-- inhibited -->
    <defs>
     <path d="M 40.234375 0 
L 40.234375 6.546875 
Q 35.296875 -1.171875 25.734375 -1.171875 
Q 19.53125 -1.171875 14.328125 2.25 
Q 9.125 5.671875 6.265625 11.796875 
Q 3.421875 17.921875 3.421875 25.875 
Q 3.421875 33.640625 6 39.96875 
Q 8.59375 46.296875 13.765625 49.65625 
Q 18.953125 53.03125 25.34375 53.03125 
Q 30.03125 53.03125 33.6875 51.046875 
Q 37.359375 49.078125 39.65625 45.90625 
L 39.65625 71.578125 
L 48.390625 71.578125 
L 48.390625 0 
z
M 12.453125 25.875 
Q 12.453125 15.921875 16.640625 10.984375 
Q 20.84375 6.0625 26.5625 6.0625 
Q 32.328125 6.0625 36.34375 10.765625 
Q 40.375 15.484375 40.375 25.140625 
Q 40.375 35.796875 36.265625 40.765625 
Q 32.171875 45.75 26.171875 45.75 
Q 20.3125 45.75 16.375 40.96875 
Q 12.453125 36.1875 12.453125 25.875 
" id="ArialMT-64"/>
    </defs>
    <g style="fill:#262626;" transform="translate(301.475850341 101.220451207)scale(0.1152 -0.1152)">
     <use xlink:href="#ArialMT-69"/>
     <use x="22.216796875" xlink:href="#ArialMT-6e"/>
     <use x="77.83203125" xlink:href="#ArialMT-68"/>
     <use x="133.447265625" xlink:href="#ArialMT-69"/>
     <use x="155.6640625" xlink:href="#ArialMT-62"/>
     <use x="211.279296875" xlink:href="#ArialMT-69"/>
     <use x="233.49609375" xlink:href="#ArialMT-74"/>
     <use x="261.279296875" xlink:href="#ArialMT-65"/>
     <use x="316.89453125" xlink:href="#ArialMT-64"/>
    </g>
   </g>
   <g id="text_14">
    <!-- activated -->
    <g style="fill:#262626;" transform="translate(418.821979948 122.670763038)scale(0.1152 -0.1152)">
     <use xlink:href="#ArialMT-61"/>
     <use x="55.615234375" xlink:href="#ArialMT-63"/>
     <use x="105.615234375" xlink:href="#ArialMT-74"/>
     <use x="133.3984375" xlink:href="#ArialMT-69"/>
     <use x="155.615234375" xlink:href="#ArialMT-76"/>
     <use x="205.615234375" xlink:href="#ArialMT-61"/>
     <use x="261.23046875" xlink:href="#ArialMT-74"/>
     <use x="289.013671875" xlink:href="#ArialMT-65"/>
     <use x="344.62890625" xlink:href="#ArialMT-64"/>
    </g>
   </g>
   <g id="text_15">
    <!-- E. coli reactions -->
    <g style="fill:#262626;" transform="translate(324.171572727 266.693672412)scale(0.1152 -0.1152)">
     <use xlink:href="#ArialMT-45"/>
     <use x="66.69921875" xlink:href="#ArialMT-2e"/>
     <use x="94.482421875" xlink:href="#ArialMT-20"/>
     <use x="122.265625" xlink:href="#ArialMT-63"/>
     <use x="172.265625" xlink:href="#ArialMT-6f"/>
     <use x="227.880859375" xlink:href="#ArialMT-6c"/>
     <use x="250.09765625" xlink:href="#ArialMT-69"/>
     <use x="272.314453125" xlink:href="#ArialMT-20"/>
     <use x="300.09765625" xlink:href="#ArialMT-72"/>
     <use x="333.3984375" xlink:href="#ArialMT-65"/>
     <use x="389.013671875" xlink:href="#ArialMT-61"/>
     <use x="444.62890625" xlink:href="#ArialMT-63"/>
     <use x="494.62890625" xlink:href="#ArialMT-74"/>
     <use x="522.412109375" xlink:href="#ArialMT-69"/>
     <use x="544.62890625" xlink:href="#ArialMT-6f"/>
     <use x="600.244140625" xlink:href="#ArialMT-6e"/>
     <use x="655.859375" xlink:href="#ArialMT-73"/>
    </g>
   </g>
   <g id="text_16">
    <!-- b -->
    <g style="fill:#262626;" transform="translate(279.605454545 104.593806818)scale(0.2 -0.2)">
     <use xlink:href="#ArialMT-62"/>
    </g>
   </g>
  </g>
 </g>
 <defs>
  <clipPath id="p84c94ac472">
   <rect height="177.545454545" width="177.545454545" x="276.054545455" y="86.7272727273"/>
  </clipPath>
  <clipPath id="pf90ffc8c63">
   <rect height="177.545454545" width="177.545454545" x="63.0" y="86.7272727273"/>
  </clipPath>
 </defs>
</svg>
