<?xml version="1.0" encoding="utf-8" standalone="no"?>
<!DOCTYPE svg PUBLIC "-//W3C//DTD SVG 1.1//EN"
  "http://www.w3.org/Graphics/SVG/1.1/DTD/svg11.dtd">
<!-- Created with matplotlib (http://matplotlib.org/) -->
<svg height="360pt" version="1.1" viewBox="0 0 504 360" width="504pt" xmlns="http://www.w3.org/2000/svg" xmlns:xlink="http://www.w3.org/1999/xlink">
 <defs>
  <style type="text/css">
*{stroke-linecap:butt;stroke-linejoin:round;stroke-miterlimit:100000;}
  </style>
 </defs>
 <g id="figure_1">
  <g id="patch_1">
   <path d="M 0 360 
L 504 360 
L 504 0 
L 0 0 
z
" style="fill:#ffffff;"/>
  </g>
  <g id="axes_1">
   <g id="patch_2">
    <path clip-path="url(#pf41788ae7c)" d="M 191.786318 111.584808 
C 194.018259 113.036292 196.103483 114.701786 198.012422 116.557674 
C 199.92136 118.413562 201.644947 120.45103 203.158744 122.641187 
C 204.74291 123.46363 206.239102 124.445454 207.624094 125.571418 
C 209.009086 126.697381 210.275674 127.961629 211.404198 129.344535 
C 208.68884 125.836374 205.66919 122.574666 202.3804 119.597382 
C 199.091611 116.620098 195.546493 113.938835 191.786318 111.584808 
M 189.127433 109.995304 
C 181.105604 105.420776 172.311281 102.358472 163.18311 100.961135 
C 154.05494 99.563798 144.747255 99.855053 135.724309 101.820372 
C 126.701362 103.785692 118.115708 107.391848 110.395584 112.458971 
C 102.675461 117.526094 95.951395 123.968513 90.558772 131.46489 
C 85.166149 138.961266 81.196144 147.384858 78.846775 156.315507 
C 76.497406 165.246157 75.808394 174.532873 76.814105 183.712448 
C 77.819817 192.892022 80.503249 201.809254 84.730556 210.019365 
C 88.957862 218.229476 94.657572 225.593655 101.54539 231.74459 
C 108.433209 237.895525 116.392683 242.729218 125.026807 246.004574 
C 133.66093 249.27993 142.823723 250.941571 152.05816 250.906617 
C 161.292597 250.871662 170.442548 249.140703 179.051628 245.800077 
C 187.660708 242.459451 195.583362 237.56564 202.424418 231.362738 
C 209.265475 225.159836 214.909271 217.752718 219.074302 209.51084 
C 223.239334 201.268962 225.855182 192.331672 226.791373 183.144747 
C 227.727563 173.957822 226.968266 164.676588 224.551356 155.76398 
C 222.134446 146.851371 218.100785 138.458076 212.651566 131.002738 
C 214.773297 134.068315 216.218053 137.550881 216.889462 141.218129 
C 217.56087 144.885378 217.443662 148.653912 216.545656 152.272349 
C 215.647651 155.890786 213.989268 159.276839 211.681133 162.204639 
C 209.372998 165.132439 206.467599 167.535405 203.158744 169.253245 
C 198.65268 175.772609 192.351157 180.847335 185.020997 183.859887 
C 177.690838 186.87244 169.641944 187.695455 161.853775 186.228781 
C 154.065606 184.762107 146.867427 181.067752 141.135175 175.595276 
C 135.402922 170.122801 131.378942 163.103568 129.552907 155.391739 
C 127.726873 147.67991 128.175983 139.601523 130.845588 132.139625 
C 133.515193 124.677727 138.292426 118.147791 144.595955 113.344433 
C 150.899483 108.541076 158.462807 105.667374 166.365557 105.073023 
C 174.268307 104.478671 182.176373 106.188799 189.127433 109.995304 
" style="fill:#0000ff;opacity:0.4;"/>
   </g>
   <g id="patch_3">
    <path clip-path="url(#pf41788ae7c)" d="M 203.158744 122.641187 
C 201.644947 120.45103 199.92136 118.413562 198.012422 116.557674 
C 196.103483 114.701786 194.018259 113.036292 191.786318 111.584808 
C 191.348671 111.310822 190.908221 111.041339 190.465039 110.776401 
C 190.021856 110.511462 189.575964 110.251083 189.127433 109.995304 
C 182.176373 106.188799 174.268307 104.478671 166.365557 105.073023 
C 158.462807 105.667374 150.899483 108.541076 144.595955 113.344433 
C 138.292426 118.147791 133.515193 124.677727 130.845588 132.139625 
C 128.175983 139.601523 127.726873 147.67991 129.552907 155.391739 
C 131.378942 163.103568 135.402922 170.122801 141.135175 175.595276 
C 146.867427 181.067752 154.065606 184.762107 161.853775 186.228781 
C 169.641944 187.695455 177.690838 186.87244 185.020997 183.859887 
C 192.351157 180.847335 198.65268 175.772609 203.158744 169.253245 
C 199.156315 171.331164 194.685291 172.343439 190.178153 172.192154 
C 185.671015 172.040869 181.277933 170.731064 177.42385 168.389437 
C 173.569766 166.04781 170.383092 162.752378 168.172075 158.82191 
C 165.961057 154.891442 164.799363 150.456892 164.799363 145.947216 
C 164.799363 141.43754 165.961057 137.002991 168.172075 133.072523 
C 170.383092 129.142055 173.569766 125.846623 177.42385 123.504996 
C 181.277933 121.163368 185.671015 119.853563 190.178153 119.702278 
C 194.685291 119.550993 199.156315 120.563269 203.158744 122.641187 
" style="fill:#b200b2;opacity:0.4;"/>
   </g>
   <g id="patch_4">
    <path clip-path="url(#pf41788ae7c)" d="M 203.158744 169.253245 
C 206.467599 167.535405 209.372998 165.132439 211.681133 162.204639 
C 213.989268 159.276839 215.647651 155.890786 216.545656 152.272349 
C 217.443662 148.653912 217.56087 144.885378 216.889462 141.218129 
C 216.218053 137.550881 214.773297 134.068315 212.651566 131.002738 
C 212.447486 130.723527 212.241488 130.445723 212.033586 130.169346 
C 211.825684 129.892969 211.615883 129.618025 211.404198 129.344535 
C 210.275674 127.961629 209.009086 126.697381 207.624094 125.571418 
C 206.239102 124.445454 204.74291 123.46363 203.158744 122.641187 
C 207.892609 129.490133 210.429258 137.621501 210.429258 145.947216 
C 210.429258 154.272932 207.892609 162.404299 203.158744 169.253245 
" style="fill:#0059b2;opacity:0.4;"/>
   </g>
   <g id="patch_5">
    <path clip-path="url(#pf41788ae7c)" d="M 203.158744 169.253245 
C 207.892609 162.404299 210.429258 154.272932 210.429258 145.947216 
C 210.429258 137.621501 207.892609 129.490133 203.158744 122.641187 
C 199.156315 120.563269 194.685291 119.550993 190.178153 119.702278 
C 185.671015 119.853563 181.277933 121.163368 177.42385 123.504996 
C 173.569766 125.846623 170.383092 129.142055 168.172075 133.072523 
C 165.961057 137.002991 164.799363 141.43754 164.799363 145.947216 
C 164.799363 150.456892 165.961057 154.891442 168.172075 158.82191 
C 170.383092 162.752378 173.569766 166.04781 177.42385 168.389437 
C 181.277933 170.731064 185.671015 172.040869 190.178153 172.192154 
C 194.685291 172.343439 199.156315 171.331164 203.158744 169.253245 
" style="fill:#663366;opacity:0.4;"/>
   </g>
   <g id="text_1">
    <!-- 718 -->
    <defs>
     <path d="M 50.59375 61.671875 
Q 45.40625 53.765625 41.0625 46.453125 
Q 36.71875 39.15625 33.59375 31.75 
Q 30.46875 24.359375 28.734375 16.578125 
Q 27 8.796875 27 0 
L 17.828125 0 
Q 17.828125 8.25 19.78125 16.1875 
Q 21.734375 24.125 25.046875 31.765625 
Q 28.375 39.40625 32.765625 46.78125 
Q 37.15625 54.15625 42.09375 61.328125 
L 5.125 61.328125 
L 5.125 68.796875 
L 50.59375 68.796875 
z
" id="LiberationSans-37"/>
     <path d="M 7.625 0 
L 7.625 7.46875 
L 25.140625 7.46875 
L 25.140625 60.40625 
L 9.625 49.3125 
L 9.625 57.625 
L 25.875 68.796875 
L 33.984375 68.796875 
L 33.984375 7.46875 
L 50.734375 7.46875 
L 50.734375 0 
z
" id="LiberationSans-31"/>
     <path d="M 51.265625 19.1875 
Q 51.265625 14.796875 49.875 11.109375 
Q 48.484375 7.421875 45.625 4.734375 
Q 42.78125 2.046875 38.328125 0.53125 
Q 33.890625 -0.984375 27.828125 -0.984375 
Q 21.78125 -0.984375 17.359375 0.53125 
Q 12.9375 2.046875 10.03125 4.703125 
Q 7.125 7.375 5.734375 11.0625 
Q 4.34375 14.75 4.34375 19.09375 
Q 4.34375 22.859375 5.484375 25.78125 
Q 6.640625 28.71875 8.5625 30.828125 
Q 10.5 32.953125 12.96875 34.25 
Q 15.4375 35.546875 18.0625 35.984375 
L 18.0625 36.1875 
Q 15.1875 36.859375 12.90625 38.375 
Q 10.640625 39.890625 9.09375 42.015625 
Q 7.5625 44.140625 6.75 46.71875 
Q 5.953125 49.3125 5.953125 52.203125 
Q 5.953125 55.8125 7.34375 59 
Q 8.734375 62.203125 11.46875 64.625 
Q 14.203125 67.046875 18.25 68.4375 
Q 22.3125 69.828125 27.640625 69.828125 
Q 33.25 69.828125 37.375 68.40625 
Q 41.5 67 44.203125 64.578125 
Q 46.921875 62.15625 48.234375 58.9375 
Q 49.5625 55.71875 49.5625 52.09375 
Q 49.5625 49.265625 48.75 46.671875 
Q 47.953125 44.09375 46.40625 41.96875 
Q 44.875 39.84375 42.59375 38.34375 
Q 40.328125 36.859375 37.359375 36.28125 
L 37.359375 36.078125 
Q 40.328125 35.59375 42.859375 34.296875 
Q 45.40625 33.015625 47.265625 30.890625 
Q 49.125 28.765625 50.1875 25.828125 
Q 51.265625 22.90625 51.265625 19.1875 
M 40.4375 51.609375 
Q 40.4375 54.203125 39.765625 56.34375 
Q 39.109375 58.5 37.59375 60.03125 
Q 36.078125 61.578125 33.640625 62.421875 
Q 31.203125 63.28125 27.640625 63.28125 
Q 24.171875 63.28125 21.78125 62.421875 
Q 19.390625 61.578125 17.84375 60.03125 
Q 16.3125 58.5 15.625 56.34375 
Q 14.9375 54.203125 14.9375 51.609375 
Q 14.9375 49.5625 15.46875 47.40625 
Q 16.015625 45.265625 17.421875 43.5 
Q 18.84375 41.75 21.328125 40.625 
Q 23.828125 39.5 27.734375 39.5 
Q 31.890625 39.5 34.40625 40.625 
Q 36.921875 41.75 38.25 43.5 
Q 39.59375 45.265625 40.015625 47.40625 
Q 40.4375 49.5625 40.4375 51.609375 
M 42.140625 20.015625 
Q 42.140625 22.515625 41.453125 24.828125 
Q 40.765625 27.15625 39.109375 28.9375 
Q 37.453125 30.71875 34.640625 31.8125 
Q 31.84375 32.90625 27.640625 32.90625 
Q 23.78125 32.90625 21.0625 31.8125 
Q 18.359375 30.71875 16.671875 28.90625 
Q 14.984375 27.09375 14.203125 24.71875 
Q 13.421875 22.359375 13.421875 19.828125 
Q 13.421875 16.65625 14.203125 14.03125 
Q 14.984375 11.421875 16.6875 9.546875 
Q 18.40625 7.671875 21.1875 6.640625 
Q 23.96875 5.609375 27.9375 5.609375 
Q 31.9375 5.609375 34.671875 6.640625 
Q 37.40625 7.671875 39.0625 9.546875 
Q 40.71875 11.421875 41.421875 14.078125 
Q 42.140625 16.75 42.140625 20.015625 
" id="LiberationSans-38"/>
    </defs>
    <g style="fill:#262626;" transform="translate(120.187624543 194.222044946)scale(0.096 -0.096)">
     <use xlink:href="#LiberationSans-37"/>
     <use x="55.615234375" xlink:href="#LiberationSans-31"/>
     <use x="111.23046875" xlink:href="#LiberationSans-38"/>
    </g>
   </g>
   <g id="text_2">
    <!-- 195 -->
    <defs>
     <path d="M 51.421875 22.40625 
Q 51.421875 17.234375 49.859375 12.9375 
Q 48.296875 8.640625 45.21875 5.53125 
Q 42.140625 2.4375 37.578125 0.71875 
Q 33.015625 -0.984375 27 -0.984375 
Q 21.578125 -0.984375 17.546875 0.28125 
Q 13.53125 1.5625 10.734375 3.78125 
Q 7.953125 6 6.3125 8.984375 
Q 4.6875 11.96875 4 15.375 
L 12.890625 16.40625 
Q 13.421875 14.453125 14.390625 12.625 
Q 15.375 10.796875 17.0625 9.34375 
Q 18.75 7.90625 21.21875 7.046875 
Q 23.6875 6.203125 27.203125 6.203125 
Q 30.609375 6.203125 33.390625 7.25 
Q 36.1875 8.296875 38.15625 10.34375 
Q 40.140625 12.40625 41.203125 15.375 
Q 42.28125 18.359375 42.28125 22.21875 
Q 42.28125 25.390625 41.25 28.046875 
Q 40.234375 30.71875 38.328125 32.640625 
Q 36.421875 34.578125 33.65625 35.640625 
Q 30.90625 36.71875 27.390625 36.71875 
Q 25.203125 36.71875 23.34375 36.328125 
Q 21.484375 35.9375 19.890625 35.25 
Q 18.3125 34.578125 17.015625 33.671875 
Q 15.71875 32.765625 14.59375 31.78125 
L 6 31.78125 
L 8.296875 68.796875 
L 47.40625 68.796875 
L 47.40625 61.328125 
L 16.3125 61.328125 
L 14.984375 39.5 
Q 17.328125 41.3125 20.84375 42.59375 
Q 24.359375 43.890625 29.203125 43.890625 
Q 34.328125 43.890625 38.421875 42.328125 
Q 42.53125 40.765625 45.40625 37.90625 
Q 48.296875 35.0625 49.859375 31.109375 
Q 51.421875 27.15625 51.421875 22.40625 
" id="LiberationSans-35"/>
     <path d="M 50.875 35.796875 
Q 50.875 26.609375 49.140625 19.703125 
Q 47.40625 12.796875 44.1875 8.203125 
Q 40.96875 3.609375 36.34375 1.3125 
Q 31.734375 -0.984375 25.984375 -0.984375 
Q 22.015625 -0.984375 18.84375 -0.171875 
Q 15.671875 0.640625 13.171875 2.34375 
Q 10.6875 4.046875 8.921875 6.78125 
Q 7.171875 9.515625 6.109375 13.375 
L 14.5 14.703125 
Q 15.875 10.25 18.78125 8.171875 
Q 21.6875 6.109375 26.125 6.109375 
Q 29.6875 6.109375 32.640625 7.78125 
Q 35.59375 9.46875 37.671875 12.84375 
Q 39.75 16.21875 40.921875 21.296875 
Q 42.09375 26.375 42.1875 33.203125 
Q 41.15625 30.90625 39.375 29.09375 
Q 37.59375 27.296875 35.328125 26.046875 
Q 33.0625 24.8125 30.421875 24.140625 
Q 27.78125 23.484375 25.09375 23.484375 
Q 20.40625 23.484375 16.625 25.171875 
Q 12.84375 26.859375 10.203125 29.875 
Q 7.5625 32.90625 6.125 37.171875 
Q 4.6875 41.453125 4.6875 46.6875 
Q 4.6875 52 6.21875 56.296875 
Q 7.765625 60.59375 10.6875 63.59375 
Q 13.625 66.609375 17.890625 68.21875 
Q 22.171875 69.828125 27.59375 69.828125 
Q 39.0625 69.828125 44.96875 61.328125 
Q 50.875 52.828125 50.875 35.796875 
M 41.3125 44.28125 
Q 41.3125 48.09375 40.40625 51.453125 
Q 39.5 54.828125 37.71875 57.3125 
Q 35.9375 59.8125 33.328125 61.25 
Q 30.71875 62.703125 27.296875 62.703125 
Q 24.125 62.703125 21.578125 61.578125 
Q 19.046875 60.453125 17.28125 58.375 
Q 15.53125 56.296875 14.578125 53.3125 
Q 13.625 50.34375 13.625 46.6875 
Q 13.625 43.21875 14.46875 40.234375 
Q 15.328125 37.25 17.03125 35.078125 
Q 18.75 32.90625 21.28125 31.65625 
Q 23.828125 30.421875 27.203125 30.421875 
Q 29.640625 30.421875 32.15625 31.25 
Q 34.671875 32.078125 36.6875 33.78125 
Q 38.71875 35.5 40.015625 38.109375 
Q 41.3125 40.71875 41.3125 44.28125 
" id="LiberationSans-39"/>
    </defs>
    <g style="fill:#262626;" transform="translate(140.547082704 151.782223906)scale(0.096 -0.096)">
     <use xlink:href="#LiberationSans-31"/>
     <use x="55.615234375" xlink:href="#LiberationSans-39"/>
     <use x="111.23046875" xlink:href="#LiberationSans-35"/>
    </g>
   </g>
   <g id="text_3">
    <!-- 14 -->
    <defs>
     <path d="M 43.015625 15.578125 
L 43.015625 0 
L 34.71875 0 
L 34.71875 15.578125 
L 2.296875 15.578125 
L 2.296875 22.40625 
L 33.796875 68.796875 
L 43.015625 68.796875 
L 43.015625 22.515625 
L 52.6875 22.515625 
L 52.6875 15.578125 
z
M 34.71875 58.890625 
Q 34.625 58.640625 34.234375 57.9375 
Q 33.84375 57.234375 33.34375 56.34375 
Q 32.859375 55.46875 32.34375 54.5625 
Q 31.84375 53.65625 31.453125 53.078125 
L 13.8125 27.09375 
Q 13.578125 26.703125 13.109375 26.0625 
Q 12.640625 25.4375 12.15625 24.78125 
Q 11.671875 24.125 11.171875 23.484375 
Q 10.6875 22.859375 10.40625 22.515625 
L 34.71875 22.515625 
z
" id="LiberationSans-34"/>
    </defs>
    <g style="fill:#262626;" transform="translate(207.868433572 149.027878164)scale(0.096 -0.096)">
     <use xlink:href="#LiberationSans-31"/>
     <use x="55.615234375" xlink:href="#LiberationSans-34"/>
    </g>
   </g>
   <g id="text_4">
    <!-- 112 -->
    <defs>
     <path d="M 5.03125 0 
L 5.03125 6.203125 
Q 7.515625 11.921875 11.109375 16.28125 
Q 14.703125 20.65625 18.65625 24.1875 
Q 22.609375 27.734375 26.484375 30.765625 
Q 30.375 33.796875 33.5 36.8125 
Q 36.625 39.84375 38.546875 43.15625 
Q 40.484375 46.484375 40.484375 50.6875 
Q 40.484375 53.609375 39.59375 55.828125 
Q 38.71875 58.0625 37.0625 59.5625 
Q 35.40625 61.078125 33.078125 61.828125 
Q 30.765625 62.59375 27.9375 62.59375 
Q 25.296875 62.59375 22.96875 61.859375 
Q 20.65625 61.140625 18.84375 59.671875 
Q 17.046875 58.203125 15.890625 56.03125 
Q 14.75 53.859375 14.40625 50.984375 
L 5.421875 51.8125 
Q 5.859375 55.515625 7.46875 58.78125 
Q 9.078125 62.0625 11.90625 64.53125 
Q 14.75 67 18.71875 68.40625 
Q 22.703125 69.828125 27.9375 69.828125 
Q 33.0625 69.828125 37.0625 68.609375 
Q 41.0625 67.390625 43.8125 64.984375 
Q 46.578125 62.59375 48.046875 59.078125 
Q 49.515625 55.5625 49.515625 50.984375 
Q 49.515625 47.515625 48.265625 44.390625 
Q 47.015625 41.265625 44.9375 38.421875 
Q 42.875 35.59375 40.140625 32.953125 
Q 37.40625 30.328125 34.421875 27.8125 
Q 31.453125 25.296875 28.421875 22.828125 
Q 25.390625 20.359375 22.71875 17.859375 
Q 20.0625 15.375 17.96875 12.8125 
Q 15.875 10.25 14.703125 7.46875 
L 50.59375 7.46875 
L 50.59375 0 
z
" id="LiberationSans-32"/>
    </defs>
    <g style="fill:#262626;" transform="translate(179.606560433 148.429716299)scale(0.096 -0.096)">
     <use xlink:href="#LiberationSans-31"/>
     <use x="55.615234375" xlink:href="#LiberationSans-31"/>
     <use x="111.23046875" xlink:href="#LiberationSans-32"/>
    </g>
   </g>
   <g id="text_5">
    <!-- inhibitors -->
    <defs>
     <path d="M 46.390625 14.59375 
Q 46.390625 10.890625 44.9375 7.984375 
Q 43.5 5.078125 40.765625 3.09375 
Q 38.03125 1.125 34.046875 0.0625 
Q 30.078125 -0.984375 24.953125 -0.984375 
Q 20.359375 -0.984375 16.671875 -0.265625 
Q 12.984375 0.4375 10.203125 2 
Q 7.421875 3.5625 5.53125 6.125 
Q 3.65625 8.6875 2.78125 12.40625 
L 10.546875 13.921875 
Q 11.671875 9.671875 15.1875 7.6875 
Q 18.703125 5.71875 24.953125 5.71875 
Q 27.78125 5.71875 30.140625 6.109375 
Q 32.515625 6.5 34.21875 7.453125 
Q 35.9375 8.40625 36.890625 9.984375 
Q 37.84375 11.578125 37.84375 13.921875 
Q 37.84375 16.3125 36.71875 17.84375 
Q 35.59375 19.390625 33.59375 20.40625 
Q 31.59375 21.4375 28.734375 22.1875 
Q 25.875 22.953125 22.46875 23.875 
Q 19.28125 24.703125 16.15625 25.734375 
Q 13.03125 26.765625 10.515625 28.4375 
Q 8.015625 30.125 6.453125 32.609375 
Q 4.890625 35.109375 4.890625 38.875 
Q 4.890625 46.09375 10.03125 49.875 
Q 15.1875 53.65625 25.046875 53.65625 
Q 33.796875 53.65625 38.9375 50.578125 
Q 44.09375 47.515625 45.453125 40.71875 
L 37.546875 39.75 
Q 37.109375 41.796875 35.9375 43.1875 
Q 34.765625 44.578125 33.109375 45.4375 
Q 31.453125 46.296875 29.375 46.65625 
Q 27.296875 47.015625 25.046875 47.015625 
Q 19.09375 47.015625 16.25 45.203125 
Q 13.421875 43.40625 13.421875 39.75 
Q 13.421875 37.59375 14.46875 36.203125 
Q 15.53125 34.8125 17.40625 33.859375 
Q 19.28125 32.90625 21.921875 32.203125 
Q 24.5625 31.5 27.734375 30.71875 
Q 29.828125 30.171875 32.03125 29.5625 
Q 34.234375 28.953125 36.296875 28.09375 
Q 38.375 27.25 40.203125 26.09375 
Q 42.046875 24.953125 43.40625 23.34375 
Q 44.78125 21.734375 45.578125 19.578125 
Q 46.390625 17.4375 46.390625 14.59375 
" id="LiberationSans-73"/>
     <path d="M 6.9375 0 
L 6.9375 40.53125 
Q 6.9375 42.1875 6.90625 43.921875 
Q 6.890625 45.65625 6.828125 47.265625 
Q 6.78125 48.875 6.734375 50.28125 
Q 6.6875 51.703125 6.640625 52.828125 
L 14.9375 52.828125 
Q 14.984375 51.703125 15.0625 50.265625 
Q 15.140625 48.828125 15.203125 47.3125 
Q 15.28125 45.796875 15.296875 44.40625 
Q 15.328125 43.015625 15.328125 42.046875 
L 15.53125 42.046875 
Q 16.453125 45.0625 17.5 47.28125 
Q 18.5625 49.515625 19.96875 50.953125 
Q 21.390625 52.390625 23.34375 53.09375 
Q 25.296875 53.8125 28.078125 53.8125 
Q 29.15625 53.8125 30.125 53.640625 
Q 31.109375 53.46875 31.640625 53.328125 
L 31.640625 45.265625 
Q 30.765625 45.515625 29.59375 45.625 
Q 28.421875 45.75 26.953125 45.75 
Q 23.921875 45.75 21.796875 44.375 
Q 19.671875 43.015625 18.328125 40.59375 
Q 17 38.1875 16.359375 34.84375 
Q 15.71875 31.5 15.71875 27.546875 
L 15.71875 0 
z
" id="LiberationSans-72"/>
     <path d="M 51.421875 26.65625 
Q 51.421875 -0.984375 31.984375 -0.984375 
Q 25.984375 -0.984375 22 1.1875 
Q 18.015625 3.375 15.53125 8.203125 
L 15.4375 8.203125 
Q 15.4375 6.9375 15.359375 5.5625 
Q 15.28125 4.203125 15.203125 3.03125 
Q 15.140625 1.859375 15.0625 1.03125 
Q 14.984375 0.203125 14.9375 0 
L 6.453125 0 
Q 6.5 0.4375 6.546875 1.484375 
Q 6.59375 2.546875 6.640625 4 
Q 6.6875 5.46875 6.703125 7.21875 
Q 6.734375 8.984375 6.734375 10.890625 
L 6.734375 72.46875 
L 15.53125 72.46875 
L 15.53125 51.8125 
Q 15.53125 50.34375 15.5 49 
Q 15.484375 47.65625 15.4375 46.625 
Q 15.375 45.40625 15.328125 44.34375 
L 15.53125 44.34375 
Q 17.96875 49.421875 22 51.609375 
Q 26.03125 53.8125 31.984375 53.8125 
Q 42 53.8125 46.703125 47.0625 
Q 51.421875 40.328125 51.421875 26.65625 
M 42.1875 26.375 
Q 42.1875 31.84375 41.5 35.75 
Q 40.828125 39.65625 39.3125 42.15625 
Q 37.796875 44.671875 35.453125 45.84375 
Q 33.109375 47.015625 29.734375 47.015625 
Q 26.265625 47.015625 23.609375 45.890625 
Q 20.953125 44.78125 19.171875 42.28125 
Q 17.390625 39.796875 16.453125 35.734375 
Q 15.53125 31.6875 15.53125 25.828125 
Q 15.53125 20.171875 16.453125 16.3125 
Q 17.390625 12.453125 19.171875 10.03125 
Q 20.953125 7.625 23.578125 6.5625 
Q 26.21875 5.515625 29.640625 5.515625 
Q 32.859375 5.515625 35.203125 6.640625 
Q 37.546875 7.765625 39.109375 10.25 
Q 40.671875 12.75 41.421875 16.71875 
Q 42.1875 20.703125 42.1875 26.375 
" id="LiberationSans-62"/>
     <path d="M 27.046875 0.390625 
Q 25.046875 -0.140625 22.96875 -0.453125 
Q 20.90625 -0.78125 18.171875 -0.78125 
Q 7.625 -0.78125 7.625 11.1875 
L 7.625 46.4375 
L 1.515625 46.4375 
L 1.515625 52.828125 
L 7.953125 52.828125 
L 10.546875 64.65625 
L 16.40625 64.65625 
L 16.40625 52.828125 
L 26.171875 52.828125 
L 26.171875 46.4375 
L 16.40625 46.4375 
L 16.40625 13.09375 
Q 16.40625 9.28125 17.640625 7.734375 
Q 18.890625 6.203125 21.96875 6.203125 
Q 23.25 6.203125 24.4375 6.390625 
Q 25.640625 6.59375 27.046875 6.890625 
z
" id="LiberationSans-74"/>
     <path d="M 15.484375 43.796875 
Q 16.9375 46.484375 18.640625 48.359375 
Q 20.359375 50.25 22.40625 51.46875 
Q 24.46875 52.6875 26.90625 53.25 
Q 29.34375 53.8125 32.375 53.8125 
Q 37.453125 53.8125 40.703125 52.4375 
Q 43.953125 51.078125 45.828125 48.609375 
Q 47.703125 46.140625 48.40625 42.71875 
Q 49.125 39.3125 49.125 35.203125 
L 49.125 0 
L 40.28125 0 
L 40.28125 33.5 
Q 40.28125 36.859375 39.859375 39.390625 
Q 39.453125 41.9375 38.28125 43.625 
Q 37.109375 45.3125 34.953125 46.15625 
Q 32.8125 47.015625 29.390625 47.015625 
Q 26.265625 47.015625 23.75 45.890625 
Q 21.234375 44.78125 19.453125 42.71875 
Q 17.671875 40.671875 16.6875 37.734375 
Q 15.71875 34.8125 15.71875 31.15625 
L 15.71875 0 
L 6.9375 0 
L 6.9375 72.46875 
L 15.71875 72.46875 
L 15.71875 53.609375 
Q 15.71875 52 15.671875 50.390625 
Q 15.625 48.78125 15.546875 47.40625 
Q 15.484375 46.046875 15.421875 45.09375 
Q 15.375 44.140625 15.328125 43.796875 
z
" id="LiberationSans-68"/>
     <path d="M 6.6875 64.0625 
L 6.6875 72.46875 
L 15.484375 72.46875 
L 15.484375 64.0625 
z
M 6.6875 0 
L 6.6875 52.828125 
L 15.484375 52.828125 
L 15.484375 0 
z
" id="LiberationSans-69"/>
     <path d="M 40.28125 0 
L 40.28125 33.5 
Q 40.28125 37.359375 39.71875 39.9375 
Q 39.15625 42.53125 37.890625 44.109375 
Q 36.625 45.703125 34.546875 46.359375 
Q 32.46875 47.015625 29.390625 47.015625 
Q 26.265625 47.015625 23.75 45.921875 
Q 21.234375 44.828125 19.453125 42.75 
Q 17.671875 40.671875 16.6875 37.625 
Q 15.71875 34.578125 15.71875 30.609375 
L 15.71875 0 
L 6.9375 0 
L 6.9375 41.546875 
Q 6.9375 43.21875 6.90625 45.046875 
Q 6.890625 46.875 6.828125 48.5 
Q 6.78125 50.140625 6.734375 51.3125 
Q 6.6875 52.484375 6.640625 52.828125 
L 14.9375 52.828125 
Q 14.984375 52.59375 15.03125 51.515625 
Q 15.09375 50.4375 15.15625 49.046875 
Q 15.234375 47.65625 15.28125 46.21875 
Q 15.328125 44.78125 15.328125 43.796875 
L 15.484375 43.796875 
Q 16.75 46.09375 18.265625 47.953125 
Q 19.78125 49.8125 21.78125 51.09375 
Q 23.78125 52.390625 26.359375 53.09375 
Q 28.953125 53.8125 32.375 53.8125 
Q 36.765625 53.8125 39.9375 52.734375 
Q 43.109375 51.65625 45.15625 49.40625 
Q 47.21875 47.171875 48.171875 43.625 
Q 49.125 40.09375 49.125 35.203125 
L 49.125 0 
z
" id="LiberationSans-6e"/>
     <path d="M 51.421875 26.46875 
Q 51.421875 12.59375 45.3125 5.796875 
Q 39.203125 -0.984375 27.59375 -0.984375 
Q 22.078125 -0.984375 17.71875 0.671875 
Q 13.375 2.34375 10.375 5.765625 
Q 7.375 9.1875 5.78125 14.328125 
Q 4.203125 19.484375 4.203125 26.46875 
Q 4.203125 53.8125 27.875 53.8125 
Q 34.03125 53.8125 38.5 52.09375 
Q 42.96875 50.390625 45.828125 46.96875 
Q 48.6875 43.5625 50.046875 38.421875 
Q 51.421875 33.296875 51.421875 26.46875 
M 42.1875 26.46875 
Q 42.1875 32.625 41.234375 36.625 
Q 40.28125 40.625 38.453125 43.015625 
Q 36.625 45.40625 33.984375 46.359375 
Q 31.34375 47.3125 28.03125 47.3125 
Q 24.65625 47.3125 21.9375 46.3125 
Q 19.234375 45.3125 17.328125 42.890625 
Q 15.4375 40.484375 14.421875 36.46875 
Q 13.421875 32.46875 13.421875 26.46875 
Q 13.421875 20.3125 14.5 16.28125 
Q 15.578125 12.25 17.453125 9.859375 
Q 19.34375 7.46875 21.90625 6.484375 
Q 24.46875 5.515625 27.484375 5.515625 
Q 30.859375 5.515625 33.59375 6.46875 
Q 36.328125 7.421875 38.234375 9.8125 
Q 40.140625 12.203125 41.15625 16.25 
Q 42.1875 20.3125 42.1875 26.46875 
" id="LiberationSans-6f"/>
    </defs>
    <g style="fill:#262626;" transform="translate(102.845015518 104.957588028)scale(0.1152 -0.1152)">
     <use xlink:href="#LiberationSans-69"/>
     <use x="22.216796875" xlink:href="#LiberationSans-6e"/>
     <use x="77.83203125" xlink:href="#LiberationSans-68"/>
     <use x="133.447265625" xlink:href="#LiberationSans-69"/>
     <use x="155.6640625" xlink:href="#LiberationSans-62"/>
     <use x="211.279296875" xlink:href="#LiberationSans-69"/>
     <use x="233.49609375" xlink:href="#LiberationSans-74"/>
     <use x="261.279296875" xlink:href="#LiberationSans-6f"/>
     <use x="316.89453125" xlink:href="#LiberationSans-72"/>
     <use x="350.1953125" xlink:href="#LiberationSans-73"/>
    </g>
   </g>
   <g id="text_6">
    <!-- activators -->
    <defs>
     <path d="M 29.9375 0 
L 19.53125 0 
L 0.34375 52.828125 
L 9.71875 52.828125 
L 21.34375 18.453125 
Q 21.6875 17.390625 22.140625 15.84375 
Q 22.609375 14.3125 23.09375 12.640625 
Q 23.578125 10.984375 24 9.4375 
Q 24.421875 7.90625 24.703125 6.890625 
Q 25 7.90625 25.453125 9.4375 
Q 25.921875 10.984375 26.40625 12.59375 
Q 26.90625 14.203125 27.421875 15.734375 
Q 27.9375 17.28125 28.328125 18.359375 
L 40.328125 52.828125 
L 49.65625 52.828125 
z
" id="LiberationSans-76"/>
     <path d="M 20.21875 -0.984375 
Q 12.25 -0.984375 8.25 3.21875 
Q 4.25 7.421875 4.25 14.75 
Q 4.25 19.96875 6.21875 23.3125 
Q 8.203125 26.65625 11.390625 28.5625 
Q 14.59375 30.46875 18.6875 31.203125 
Q 22.796875 31.9375 27.046875 32.03125 
L 38.921875 32.234375 
L 38.921875 35.109375 
Q 38.921875 38.375 38.234375 40.671875 
Q 37.546875 42.96875 36.125 44.375 
Q 34.71875 45.796875 32.59375 46.453125 
Q 30.46875 47.125 27.59375 47.125 
Q 25.046875 47.125 23 46.75 
Q 20.953125 46.390625 19.4375 45.4375 
Q 17.921875 44.484375 16.984375 42.84375 
Q 16.0625 41.21875 15.765625 38.71875 
L 6.59375 39.546875 
Q 7.078125 42.671875 8.4375 45.28125 
Q 9.8125 47.90625 12.328125 49.796875 
Q 14.84375 51.703125 18.625 52.75 
Q 22.40625 53.8125 27.78125 53.8125 
Q 37.75 53.8125 42.765625 49.234375 
Q 47.796875 44.671875 47.796875 36.03125 
L 47.796875 13.28125 
Q 47.796875 9.375 48.828125 7.390625 
Q 49.859375 5.421875 52.734375 5.421875 
Q 53.46875 5.421875 54.203125 5.515625 
Q 54.9375 5.609375 55.609375 5.765625 
L 55.609375 0.296875 
Q 53.953125 -0.09375 52.3125 -0.28125 
Q 50.6875 -0.484375 48.828125 -0.484375 
Q 46.34375 -0.484375 44.5625 0.171875 
Q 42.78125 0.828125 41.65625 2.171875 
Q 40.53125 3.515625 39.9375 5.484375 
Q 39.359375 7.46875 39.203125 10.109375 
L 38.921875 10.109375 
Q 37.5 7.5625 35.8125 5.515625 
Q 34.125 3.46875 31.875 2.03125 
Q 29.640625 0.59375 26.78125 -0.1875 
Q 23.921875 -0.984375 20.21875 -0.984375 
M 22.21875 5.609375 
Q 26.421875 5.609375 29.5625 7.140625 
Q 32.71875 8.6875 34.78125 11.078125 
Q 36.859375 13.484375 37.890625 16.3125 
Q 38.921875 19.140625 38.921875 21.734375 
L 38.921875 26.078125 
L 29.296875 25.875 
Q 26.078125 25.828125 23.171875 25.40625 
Q 20.265625 25 18.0625 23.78125 
Q 15.875 22.5625 14.578125 20.359375 
Q 13.28125 18.171875 13.28125 14.59375 
Q 13.28125 10.296875 15.59375 7.953125 
Q 17.921875 5.609375 22.21875 5.609375 
" id="LiberationSans-61"/>
     <path d="M 13.421875 26.65625 
Q 13.421875 22.125 14.078125 18.3125 
Q 14.75 14.5 16.3125 11.734375 
Q 17.875 8.984375 20.4375 7.46875 
Q 23 5.953125 26.765625 5.953125 
Q 31.453125 5.953125 34.59375 8.484375 
Q 37.75 11.03125 38.484375 16.3125 
L 47.359375 15.71875 
Q 46.921875 12.453125 45.453125 9.421875 
Q 44 6.390625 41.484375 4.09375 
Q 38.96875 1.8125 35.34375 0.40625 
Q 31.734375 -0.984375 27 -0.984375 
Q 20.796875 -0.984375 16.453125 1.109375 
Q 12.109375 3.21875 9.390625 6.90625 
Q 6.6875 10.59375 5.46875 15.59375 
Q 4.25 20.609375 4.25 26.46875 
Q 4.25 31.78125 5.125 35.859375 
Q 6 39.9375 7.59375 42.984375 
Q 9.1875 46.046875 11.328125 48.125 
Q 13.484375 50.203125 15.984375 51.4375 
Q 18.5 52.6875 21.28125 53.25 
Q 24.078125 53.8125 26.90625 53.8125 
Q 31.34375 53.8125 34.8125 52.59375 
Q 38.28125 51.375 40.796875 49.25 
Q 43.3125 47.125 44.875 44.234375 
Q 46.4375 41.359375 47.078125 38.03125 
L 38.03125 37.359375 
Q 37.359375 41.75 34.5625 44.328125 
Q 31.78125 46.921875 26.65625 46.921875 
Q 22.90625 46.921875 20.390625 45.671875 
Q 17.875 44.4375 16.3125 41.921875 
Q 14.75 39.40625 14.078125 35.59375 
Q 13.421875 31.78125 13.421875 26.65625 
" id="LiberationSans-63"/>
    </defs>
    <g style="fill:#262626;" transform="translate(204.188940545 119.687497896)scale(0.1152 -0.1152)">
     <use xlink:href="#LiberationSans-61"/>
     <use x="55.615234375" xlink:href="#LiberationSans-63"/>
     <use x="105.615234375" xlink:href="#LiberationSans-74"/>
     <use x="133.3984375" xlink:href="#LiberationSans-69"/>
     <use x="155.615234375" xlink:href="#LiberationSans-76"/>
     <use x="205.615234375" xlink:href="#LiberationSans-61"/>
     <use x="261.23046875" xlink:href="#LiberationSans-74"/>
     <use x="289.013671875" xlink:href="#LiberationSans-6f"/>
     <use x="344.62890625" xlink:href="#LiberationSans-72"/>
     <use x="377.9296875" xlink:href="#LiberationSans-73"/>
    </g>
   </g>
   <g id="text_7">
    <!-- E. coli metabolites (1039 total) -->
    <defs>
     <path d="M 13.484375 24.5625 
Q 13.484375 20.40625 14.328125 16.90625 
Q 15.1875 13.421875 16.96875 10.90625 
Q 18.75 8.40625 21.53125 7 
Q 24.3125 5.609375 28.21875 5.609375 
Q 33.9375 5.609375 37.375 7.90625 
Q 40.828125 10.203125 42.046875 13.71875 
L 49.75 11.53125 
Q 48.921875 9.328125 47.4375 7.109375 
Q 45.953125 4.890625 43.453125 3.09375 
Q 40.96875 1.3125 37.234375 0.15625 
Q 33.5 -0.984375 28.21875 -0.984375 
Q 16.5 -0.984375 10.375 6 
Q 4.25 12.984375 4.25 26.765625 
Q 4.25 34.1875 6.09375 39.328125 
Q 7.953125 44.484375 11.171875 47.703125 
Q 14.40625 50.921875 18.703125 52.359375 
Q 23 53.8125 27.875 53.8125 
Q 34.515625 53.8125 38.984375 51.65625 
Q 43.453125 49.515625 46.15625 45.71875 
Q 48.875 41.9375 50.015625 36.8125 
Q 51.171875 31.6875 51.171875 25.734375 
L 51.171875 24.5625 
z
M 42.09375 31.296875 
Q 41.359375 39.65625 37.84375 43.484375 
Q 34.328125 47.3125 27.734375 47.3125 
Q 25.53125 47.3125 23.109375 46.609375 
Q 20.703125 45.90625 18.65625 44.09375 
Q 16.609375 42.28125 15.1875 39.171875 
Q 13.765625 36.078125 13.578125 31.296875 
z
" id="LiberationSans-65"/>
     <path d="M 51.703125 34.421875 
Q 51.703125 24.515625 49.828125 17.75 
Q 47.953125 10.984375 44.703125 6.8125 
Q 41.453125 2.640625 37.0625 0.828125 
Q 32.671875 -0.984375 27.6875 -0.984375 
Q 22.65625 -0.984375 18.3125 0.828125 
Q 13.96875 2.640625 10.765625 6.78125 
Q 7.5625 10.9375 5.734375 17.703125 
Q 3.90625 24.46875 3.90625 34.421875 
Q 3.90625 44.828125 5.734375 51.640625 
Q 7.5625 58.453125 10.78125 62.5 
Q 14.015625 66.546875 18.40625 68.1875 
Q 22.796875 69.828125 27.984375 69.828125 
Q 32.90625 69.828125 37.21875 68.1875 
Q 41.546875 66.546875 44.765625 62.5 
Q 48 58.453125 49.84375 51.640625 
Q 51.703125 44.828125 51.703125 34.421875 
M 42.78125 34.421875 
Q 42.78125 42.625 41.796875 48.0625 
Q 40.828125 53.515625 38.921875 56.765625 
Q 37.015625 60.015625 34.25 61.359375 
Q 31.5 62.703125 27.984375 62.703125 
Q 24.265625 62.703125 21.4375 61.328125 
Q 18.609375 59.96875 16.671875 56.71875 
Q 14.75 53.46875 13.765625 48.015625 
Q 12.796875 42.578125 12.796875 34.421875 
Q 12.796875 26.515625 13.796875 21.09375 
Q 14.796875 15.671875 16.71875 12.375 
Q 18.65625 9.078125 21.4375 7.640625 
Q 24.21875 6.203125 27.78125 6.203125 
Q 31.25 6.203125 34.03125 7.640625 
Q 36.8125 9.078125 38.734375 12.375 
Q 40.671875 15.671875 41.71875 21.09375 
Q 42.78125 26.515625 42.78125 34.421875 
" id="LiberationSans-30"/>
     <path d="M 6.203125 25.984375 
Q 6.203125 32.765625 7.21875 38.96875 
Q 8.25 45.171875 10.4375 50.875 
Q 12.640625 56.59375 16.0625 61.953125 
Q 19.484375 67.328125 24.21875 72.46875 
L 32.71875 72.46875 
Q 28.125 67.328125 24.78125 61.9375 
Q 21.4375 56.546875 19.28125 50.796875 
Q 17.140625 45.0625 16.09375 38.859375 
Q 15.046875 32.671875 15.046875 25.875 
Q 15.046875 19.09375 16.09375 12.890625 
Q 17.140625 6.6875 19.28125 0.921875 
Q 21.4375 -4.828125 24.78125 -10.203125 
Q 28.125 -15.578125 32.71875 -20.703125 
L 24.21875 -20.703125 
Q 19.484375 -15.578125 16.0625 -10.203125 
Q 12.640625 -4.828125 10.4375 0.875 
Q 8.25 6.59375 7.21875 12.765625 
Q 6.203125 18.953125 6.203125 25.78125 
z
" id="LiberationSans-28"/>
     <path d="M 9.125 0 
L 9.125 10.6875 
L 18.65625 10.6875 
L 18.65625 0 
z
" id="LiberationSans-2e"/>
     <path d="M 37.5 0 
L 37.5 33.5 
Q 37.5 37.359375 37.015625 39.9375 
Q 36.53125 42.53125 35.375 44.109375 
Q 34.234375 45.703125 32.375 46.359375 
Q 30.515625 47.015625 27.828125 47.015625 
Q 25.046875 47.015625 22.796875 45.921875 
Q 20.5625 44.828125 18.96875 42.75 
Q 17.390625 40.671875 16.53125 37.625 
Q 15.671875 34.578125 15.671875 30.609375 
L 15.671875 0 
L 6.9375 0 
L 6.9375 41.546875 
Q 6.9375 43.21875 6.90625 45.046875 
Q 6.890625 46.875 6.828125 48.5 
Q 6.78125 50.140625 6.734375 51.3125 
Q 6.6875 52.484375 6.640625 52.828125 
L 14.9375 52.828125 
Q 14.984375 52.59375 15.03125 51.515625 
Q 15.09375 50.4375 15.15625 49.046875 
Q 15.234375 47.65625 15.28125 46.21875 
Q 15.328125 44.78125 15.328125 43.796875 
L 15.484375 43.796875 
Q 16.65625 46.09375 18.015625 47.953125 
Q 19.390625 49.8125 21.21875 51.09375 
Q 23.046875 52.390625 25.40625 53.09375 
Q 27.78125 53.8125 30.90625 53.8125 
Q 36.921875 53.8125 40.40625 51.421875 
Q 43.890625 49.03125 45.265625 43.796875 
L 45.40625 43.796875 
Q 46.578125 46.09375 48.046875 47.953125 
Q 49.515625 49.8125 51.46875 51.09375 
Q 53.421875 52.390625 55.859375 53.09375 
Q 58.296875 53.8125 61.421875 53.8125 
Q 65.4375 53.8125 68.328125 52.734375 
Q 71.234375 51.65625 73.09375 49.40625 
Q 74.953125 47.171875 75.828125 43.625 
Q 76.703125 40.09375 76.703125 35.203125 
L 76.703125 0 
L 68.015625 0 
L 68.015625 33.5 
Q 68.015625 37.359375 67.53125 39.9375 
Q 67.046875 42.53125 65.890625 44.109375 
Q 64.75 45.703125 62.890625 46.359375 
Q 61.03125 47.015625 58.34375 47.015625 
Q 55.5625 47.015625 53.3125 45.96875 
Q 51.078125 44.921875 49.484375 42.875 
Q 47.90625 40.828125 47.046875 37.75 
Q 46.1875 34.671875 46.1875 30.609375 
L 46.1875 0 
z
" id="LiberationSans-6d"/>
     <path d="M 27.09375 25.78125 
Q 27.09375 18.953125 26.0625 12.765625 
Q 25.046875 6.59375 22.84375 0.875 
Q 20.65625 -4.828125 17.234375 -10.203125 
Q 13.8125 -15.578125 9.078125 -20.703125 
L 0.59375 -20.703125 
Q 5.171875 -15.578125 8.515625 -10.203125 
Q 11.859375 -4.828125 14 0.921875 
Q 16.15625 6.6875 17.203125 12.890625 
Q 18.265625 19.09375 18.265625 25.875 
Q 18.265625 32.671875 17.203125 38.859375 
Q 16.15625 45.0625 14 50.796875 
Q 11.859375 56.546875 8.515625 61.9375 
Q 5.171875 67.328125 0.59375 72.46875 
L 9.078125 72.46875 
Q 13.8125 67.328125 17.234375 61.953125 
Q 20.65625 56.59375 22.84375 50.875 
Q 25.046875 45.171875 26.0625 38.96875 
Q 27.09375 32.765625 27.09375 25.984375 
z
" id="LiberationSans-29"/>
     <path d="M 51.21875 19 
Q 51.21875 14.265625 49.671875 10.546875 
Q 48.140625 6.84375 45.1875 4.265625 
Q 42.234375 1.703125 37.859375 0.359375 
Q 33.5 -0.984375 27.875 -0.984375 
Q 21.484375 -0.984375 17.109375 0.609375 
Q 12.75 2.203125 9.90625 4.8125 
Q 7.078125 7.421875 5.65625 10.765625 
Q 4.25 14.109375 3.8125 17.671875 
L 12.890625 18.5 
Q 13.28125 15.765625 14.328125 13.515625 
Q 15.375 11.28125 17.1875 9.671875 
Q 19 8.0625 21.625 7.171875 
Q 24.265625 6.296875 27.875 6.296875 
Q 34.515625 6.296875 38.296875 9.5625 
Q 42.09375 12.84375 42.09375 19.28125 
Q 42.09375 23.09375 40.40625 25.40625 
Q 38.71875 27.734375 36.203125 29.03125 
Q 33.6875 30.328125 30.734375 30.765625 
Q 27.78125 31.203125 25.296875 31.203125 
L 20.3125 31.203125 
L 20.3125 38.8125 
L 25.09375 38.8125 
Q 27.59375 38.8125 30.265625 39.328125 
Q 32.953125 39.84375 35.171875 41.1875 
Q 37.40625 42.53125 38.84375 44.828125 
Q 40.28125 47.125 40.28125 50.6875 
Q 40.28125 56.203125 37.03125 59.390625 
Q 33.796875 62.59375 27.390625 62.59375 
Q 21.578125 62.59375 17.984375 59.609375 
Q 14.40625 56.640625 13.8125 51.21875 
L 4.984375 51.90625 
Q 5.515625 56.453125 7.46875 59.8125 
Q 9.421875 63.1875 12.421875 65.40625 
Q 15.4375 67.625 19.28125 68.71875 
Q 23.140625 69.828125 27.484375 69.828125 
Q 33.25 69.828125 37.390625 68.375 
Q 41.546875 66.9375 44.1875 64.46875 
Q 46.828125 62.015625 48.0625 58.6875 
Q 49.3125 55.375 49.3125 51.609375 
Q 49.3125 48.578125 48.484375 45.9375 
Q 47.65625 43.3125 45.890625 41.203125 
Q 44.140625 39.109375 41.421875 37.59375 
Q 38.71875 36.078125 34.90625 35.296875 
L 34.90625 35.109375 
Q 39.0625 34.671875 42.140625 33.21875 
Q 45.21875 31.78125 47.21875 29.625 
Q 49.21875 27.484375 50.21875 24.75 
Q 51.21875 22.015625 51.21875 19 
" id="LiberationSans-33"/>
     <path d="M 6.734375 0 
L 6.734375 72.46875 
L 15.53125 72.46875 
L 15.53125 0 
z
" id="LiberationSans-6c"/>
     <path id="LiberationSans-20"/>
     <path d="M 8.203125 0 
L 8.203125 68.796875 
L 60.40625 68.796875 
L 60.40625 61.1875 
L 17.53125 61.1875 
L 17.53125 39.109375 
L 57.46875 39.109375 
L 57.46875 31.59375 
L 17.53125 31.59375 
L 17.53125 7.625 
L 62.40625 7.625 
L 62.40625 0 
z
" id="LiberationSans-45"/>
    </defs>
    <g style="fill:#262626;" transform="translate(74.2989272727 266.796272412)scale(0.1152 -0.1152)">
     <use xlink:href="#LiberationSans-45"/>
     <use x="66.69921875" xlink:href="#LiberationSans-2e"/>
     <use x="94.482421875" xlink:href="#LiberationSans-20"/>
     <use x="122.265625" xlink:href="#LiberationSans-63"/>
     <use x="172.265625" xlink:href="#LiberationSans-6f"/>
     <use x="227.880859375" xlink:href="#LiberationSans-6c"/>
     <use x="250.09765625" xlink:href="#LiberationSans-69"/>
     <use x="272.314453125" xlink:href="#LiberationSans-20"/>
     <use x="300.09765625" xlink:href="#LiberationSans-6d"/>
     <use x="383.3984375" xlink:href="#LiberationSans-65"/>
     <use x="439.013671875" xlink:href="#LiberationSans-74"/>
     <use x="466.796875" xlink:href="#LiberationSans-61"/>
     <use x="522.412109375" xlink:href="#LiberationSans-62"/>
     <use x="578.02734375" xlink:href="#LiberationSans-6f"/>
     <use x="633.642578125" xlink:href="#LiberationSans-6c"/>
     <use x="655.859375" xlink:href="#LiberationSans-69"/>
     <use x="678.076171875" xlink:href="#LiberationSans-74"/>
     <use x="705.859375" xlink:href="#LiberationSans-65"/>
     <use x="761.474609375" xlink:href="#LiberationSans-73"/>
     <use x="811.474609375" xlink:href="#LiberationSans-20"/>
     <use x="839.2578125" xlink:href="#LiberationSans-28"/>
     <use x="872.55859375" xlink:href="#LiberationSans-31"/>
     <use x="928.173828125" xlink:href="#LiberationSans-30"/>
     <use x="983.7890625" xlink:href="#LiberationSans-33"/>
     <use x="1039.40429688" xlink:href="#LiberationSans-39"/>
     <use x="1095.01953125" xlink:href="#LiberationSans-20"/>
     <use x="1122.80273438" xlink:href="#LiberationSans-74"/>
     <use x="1150.5859375" xlink:href="#LiberationSans-6f"/>
     <use x="1206.20117188" xlink:href="#LiberationSans-74"/>
     <use x="1233.984375" xlink:href="#LiberationSans-61"/>
     <use x="1289.59960938" xlink:href="#LiberationSans-6c"/>
     <use x="1311.81640625" xlink:href="#LiberationSans-29"/>
    </g>
   </g>
   <g id="text_8">
    <!-- a -->
    <g style="fill:#262626;" transform="translate(66.5509090909 104.771931818)scale(0.2 -0.2)">
     <use xlink:href="#LiberationSans-61"/>
    </g>
   </g>
  </g>
  <g id="axes_2">
   <g id="patch_6">
    <path clip-path="url(#pbe956db9b9)" d="M 389.749653 104.330384 
C 395.294179 106.345157 400.474138 109.24869 405.086194 112.927008 
C 409.698249 116.605325 413.681253 121.009659 416.878856 125.96712 
C 419.758105 127.383914 422.414316 129.21492 424.762765 131.401736 
C 427.111214 133.588553 429.126664 136.107679 430.744831 138.878765 
C 426.296266 130.87143 420.425667 123.741281 413.421216 117.838332 
C 406.416764 111.935382 398.394983 107.35783 389.749653 104.330384 
M 385.397404 102.952712 
C 377.121069 100.606032 368.503864 99.692833 359.919509 100.25272 
C 351.335154 100.812607 342.909568 102.837368 335.008161 106.23919 
C 327.106754 109.641012 319.845427 114.369996 313.539097 120.22105 
C 307.232768 126.072104 301.97394 132.959403 297.990683 140.58425 
C 294.007427 148.209097 291.358171 156.459649 290.15781 164.978085 
C 288.95745 173.496522 289.223593 182.157892 290.944697 190.586559 
C 292.665801 199.015226 295.816619 207.087555 300.260505 214.453457 
C 304.704391 221.819358 310.376158 228.370786 317.029828 233.823611 
C 323.683499 239.276436 331.221473 243.550673 339.316835 246.460953 
C 347.412198 249.371233 355.946203 250.874867 364.548739 250.906642 
C 373.151274 250.938418 381.696155 249.49787 389.812796 246.647473 
C 397.929437 243.797076 405.498781 239.578642 412.192552 234.175119 
C 418.886323 228.771597 424.606334 222.262247 429.104513 214.929375 
C 433.602693 207.596503 436.813059 199.547671 438.596382 191.131948 
C 440.379705 182.716226 440.709826 174.057059 439.572427 165.529987 
C 438.435029 157.002915 435.846795 148.733018 431.919976 141.078953 
C 435.717353 148.88834 436.267943 157.893281 433.450278 166.107133 
C 430.632613 174.320986 424.670347 181.091768 416.878856 184.925731 
C 411.435344 193.365177 403.759161 200.134212 394.705008 204.479139 
C 385.650855 208.824066 375.567729 210.577407 365.578334 209.543937 
C 355.588939 208.510468 346.07832 204.730023 338.105436 198.623536 
C 330.132551 192.517049 324.004719 184.319897 320.404242 174.944789 
C 316.803765 165.569682 315.869424 155.377987 317.705254 145.504498 
C 319.541085 135.631008 324.076322 126.456301 330.805993 119.001933 
C 337.535664 111.547564 346.200369 106.100867 355.835339 103.268301 
C 365.470309 100.435735 375.704159 100.326484 385.397404 102.952712 
" style="fill:#0000ff;opacity:0.4;"/>
   </g>
   <g id="patch_7">
    <path clip-path="url(#pbe956db9b9)" d="M 416.878856 125.96712 
C 413.681253 121.009659 409.698249 116.605325 405.086194 112.927008 
C 400.474138 109.24869 395.294179 106.345157 389.749653 104.330384 
C 389.031438 104.078877 388.309456 103.838257 387.583957 103.608605 
C 386.858457 103.378954 386.129523 103.160298 385.397404 102.952712 
C 375.704159 100.326484 365.470309 100.435735 355.835339 103.268301 
C 346.200369 106.100867 337.535664 111.547564 330.805993 119.001933 
C 324.076322 126.456301 319.541085 135.631008 317.705254 145.504498 
C 315.869424 155.377987 316.803765 165.569682 320.404242 174.944789 
C 324.004719 184.319897 330.132551 192.517049 338.105436 198.623536 
C 346.07832 204.730023 355.588939 208.510468 365.578334 209.543937 
C 375.567729 210.577407 385.650855 208.824066 394.705008 204.479139 
C 403.759161 200.134212 411.435344 193.365177 416.878856 184.925731 
C 411.870128 187.390378 406.314928 188.538316 400.739552 188.260789 
C 395.164176 187.983263 389.750436 186.289322 385.011228 183.33945 
C 380.27202 180.389578 376.361888 176.27997 373.651276 171.399967 
C 370.940665 166.519965 369.517966 161.028704 369.517966 155.446425 
C 369.517966 149.864147 370.940665 144.372886 373.651276 139.492884 
C 376.361888 134.612881 380.27202 130.503273 385.011228 127.553401 
C 389.750436 124.603529 395.164176 122.909588 400.739552 122.632061 
C 406.314928 122.354535 411.870128 123.502473 416.878856 125.96712 
" style="fill:#b200b2;opacity:0.4;"/>
   </g>
   <g id="patch_8">
    <path clip-path="url(#pbe956db9b9)" d="M 416.878856 184.925731 
C 424.670347 181.091768 430.632613 174.320986 433.450278 166.107133 
C 436.267943 157.893281 435.717353 148.88834 431.919976 141.078953 
C 431.7302 140.709047 431.537369 140.340716 431.341501 139.974 
C 431.145634 139.607283 430.946737 139.242192 430.744831 138.878765 
C 429.126664 136.107679 427.111214 133.588553 424.762765 131.401736 
C 422.414316 129.21492 419.758105 127.383914 416.878856 125.96712 
C 422.546205 134.753597 425.561334 144.990755 425.561334 155.446425 
C 425.561334 165.902095 422.546205 176.139253 416.878856 184.925731 
" style="fill:#0059b2;opacity:0.4;"/>
   </g>
   <g id="patch_9">
    <path clip-path="url(#pbe956db9b9)" d="M 416.878856 184.925731 
C 422.546205 176.139253 425.561334 165.902095 425.561334 155.446425 
C 425.561334 144.990755 422.546205 134.753597 416.878856 125.96712 
C 411.870128 123.502473 406.314928 122.354535 400.739552 122.632061 
C 395.164176 122.909588 389.750436 124.603529 385.011228 127.553401 
C 380.27202 130.503273 376.361888 134.612881 373.651276 139.492884 
C 370.940665 144.372886 369.517966 149.864147 369.517966 155.446425 
C 369.517966 161.028704 370.940665 166.519965 373.651276 171.399967 
C 376.361888 176.27997 380.27202 180.389578 385.011228 183.33945 
C 389.750436 186.289322 395.164176 187.983263 400.739552 188.260789 
C 406.314928 188.538316 411.870128 187.390378 416.878856 184.925731 
" style="fill:#663366;opacity:0.4;"/>
   </g>
   <g id="text_9">
    <!-- 305 -->
    <g style="fill:#262626;" transform="translate(326.269471883 204.349256006)scale(0.096 -0.096)">
     <use xlink:href="#LiberationSans-33"/>
     <use x="55.615234375" xlink:href="#LiberationSans-30"/>
     <use x="111.23046875" xlink:href="#LiberationSans-35"/>
    </g>
   </g>
   <g id="text_10">
    <!-- 237 -->
    <g style="fill:#262626;" transform="translate(340.560789696 163.939958596)scale(0.096 -0.096)">
     <use xlink:href="#LiberationSans-32"/>
     <use x="55.615234375" xlink:href="#LiberationSans-33"/>
     <use x="111.23046875" xlink:href="#LiberationSans-37"/>
    </g>
   </g>
   <g id="text_11">
    <!-- 16 -->
    <defs>
     <path d="M 51.21875 22.515625 
Q 51.21875 17.328125 49.78125 13 
Q 48.34375 8.6875 45.53125 5.578125 
Q 42.71875 2.484375 38.5625 0.75 
Q 34.421875 -0.984375 29 -0.984375 
Q 23 -0.984375 18.5 1.3125 
Q 14.015625 3.609375 11.03125 7.921875 
Q 8.0625 12.25 6.5625 18.53125 
Q 5.078125 24.8125 5.078125 32.8125 
Q 5.078125 42 6.765625 48.921875 
Q 8.453125 55.859375 11.625 60.5 
Q 14.796875 65.140625 19.359375 67.484375 
Q 23.921875 69.828125 29.6875 69.828125 
Q 33.203125 69.828125 36.28125 69.09375 
Q 39.359375 68.359375 41.875 66.71875 
Q 44.390625 65.09375 46.28125 62.40625 
Q 48.1875 59.71875 49.3125 55.8125 
L 40.921875 54.296875 
Q 39.546875 58.734375 36.546875 60.71875 
Q 33.546875 62.703125 29.59375 62.703125 
Q 25.984375 62.703125 23.046875 60.984375 
Q 20.125 59.28125 18.0625 55.875 
Q 16.015625 52.484375 14.90625 47.359375 
Q 13.8125 42.234375 13.8125 35.40625 
Q 16.21875 39.84375 20.5625 42.15625 
Q 24.90625 44.484375 30.515625 44.484375 
Q 35.203125 44.484375 39.015625 42.96875 
Q 42.828125 41.453125 45.53125 38.59375 
Q 48.25 35.75 49.734375 31.671875 
Q 51.21875 27.59375 51.21875 22.515625 
M 42.28125 22.125 
Q 42.28125 25.6875 41.40625 28.5625 
Q 40.53125 31.453125 38.765625 33.46875 
Q 37.015625 35.5 34.421875 36.59375 
Q 31.84375 37.703125 28.421875 37.703125 
Q 26.03125 37.703125 23.578125 36.984375 
Q 21.140625 36.28125 19.15625 34.6875 
Q 17.1875 33.109375 15.9375 30.515625 
Q 14.703125 27.9375 14.703125 24.21875 
Q 14.703125 20.40625 15.671875 17.109375 
Q 16.65625 13.8125 18.484375 11.375 
Q 20.3125 8.9375 22.890625 7.515625 
Q 25.484375 6.109375 28.71875 6.109375 
Q 31.890625 6.109375 34.40625 7.203125 
Q 36.921875 8.296875 38.671875 10.375 
Q 40.4375 12.453125 41.359375 15.421875 
Q 42.28125 18.40625 42.28125 22.125 
" id="LiberationSans-36"/>
    </defs>
    <g style="fill:#262626;" transform="translate(423.850284381 158.565073672)scale(0.096 -0.096)">
     <use xlink:href="#LiberationSans-31"/>
     <use x="55.615234375" xlink:href="#LiberationSans-36"/>
    </g>
   </g>
   <g id="text_12">
    <!-- 111 -->
    <g style="fill:#262626;" transform="translate(389.531899946 157.928925383)scale(0.096 -0.096)">
     <use xlink:href="#LiberationSans-31"/>
     <use x="55.615234375" xlink:href="#LiberationSans-31"/>
     <use x="111.23046875" xlink:href="#LiberationSans-31"/>
    </g>
   </g>
   <g id="text_13">
    <!-- inhibited -->
    <defs>
     <path d="M 40.09375 8.5 
Q 37.640625 3.421875 33.609375 1.21875 
Q 29.59375 -0.984375 23.640625 -0.984375 
Q 13.625 -0.984375 8.90625 5.75 
Q 4.203125 12.5 4.203125 26.171875 
Q 4.203125 53.8125 23.640625 53.8125 
Q 29.640625 53.8125 33.640625 51.609375 
Q 37.640625 49.421875 40.09375 44.625 
L 40.1875 44.625 
Q 40.1875 45.125 40.15625 46.171875 
Q 40.140625 47.21875 40.109375 48.359375 
Q 40.09375 49.515625 40.09375 50.53125 
Q 40.09375 51.5625 40.09375 52 
L 40.09375 72.46875 
L 48.875 72.46875 
L 48.875 10.890625 
Q 48.875 8.984375 48.890625 7.21875 
Q 48.921875 5.46875 48.96875 4 
Q 49.03125 2.546875 49.078125 1.484375 
Q 49.125 0.4375 49.171875 0 
L 40.765625 0 
Q 40.671875 0.484375 40.59375 1.390625 
Q 40.53125 2.296875 40.453125 3.46875 
Q 40.375 4.640625 40.328125 5.9375 
Q 40.28125 7.234375 40.28125 8.5 
z
M 13.421875 26.46875 
Q 13.421875 21 14.109375 17.09375 
Q 14.796875 13.1875 16.3125 10.671875 
Q 17.828125 8.15625 20.171875 6.984375 
Q 22.515625 5.8125 25.875 5.8125 
Q 29.34375 5.8125 32 6.9375 
Q 34.671875 8.0625 36.453125 10.578125 
Q 38.234375 13.09375 39.15625 17.140625 
Q 40.09375 21.1875 40.09375 27.046875 
Q 40.09375 32.671875 39.15625 36.546875 
Q 38.234375 40.4375 36.421875 42.828125 
Q 34.625 45.21875 32 46.265625 
Q 29.390625 47.3125 25.984375 47.3125 
Q 22.75 47.3125 20.40625 46.1875 
Q 18.0625 45.0625 16.5 42.578125 
Q 14.9375 40.09375 14.171875 36.109375 
Q 13.421875 32.125 13.421875 26.46875 
" id="LiberationSans-64"/>
    </defs>
    <g style="fill:#262626;" transform="translate(301.071756047 101.060173603)scale(0.1152 -0.1152)">
     <use xlink:href="#LiberationSans-69"/>
     <use x="22.216796875" xlink:href="#LiberationSans-6e"/>
     <use x="77.83203125" xlink:href="#LiberationSans-68"/>
     <use x="133.447265625" xlink:href="#LiberationSans-69"/>
     <use x="155.6640625" xlink:href="#LiberationSans-62"/>
     <use x="211.279296875" xlink:href="#LiberationSans-69"/>
     <use x="233.49609375" xlink:href="#LiberationSans-74"/>
     <use x="261.279296875" xlink:href="#LiberationSans-65"/>
     <use x="316.89453125" xlink:href="#LiberationSans-64"/>
    </g>
   </g>
   <g id="text_14">
    <!-- activated -->
    <g style="fill:#262626;" transform="translate(418.80045436 122.591433259)scale(0.1152 -0.1152)">
     <use xlink:href="#LiberationSans-61"/>
     <use x="55.615234375" xlink:href="#LiberationSans-63"/>
     <use x="105.615234375" xlink:href="#LiberationSans-74"/>
     <use x="133.3984375" xlink:href="#LiberationSans-69"/>
     <use x="155.615234375" xlink:href="#LiberationSans-76"/>
     <use x="205.615234375" xlink:href="#LiberationSans-61"/>
     <use x="261.23046875" xlink:href="#LiberationSans-74"/>
     <use x="289.013671875" xlink:href="#LiberationSans-65"/>
     <use x="344.62890625" xlink:href="#LiberationSans-64"/>
    </g>
   </g>
   <g id="text_15">
    <!-- E. coli reactions (669 total) -->
    <g style="fill:#262626;" transform="translate(296.639672727 266.796272412)scale(0.1152 -0.1152)">
     <use xlink:href="#LiberationSans-45"/>
     <use x="66.69921875" xlink:href="#LiberationSans-2e"/>
     <use x="94.482421875" xlink:href="#LiberationSans-20"/>
     <use x="122.265625" xlink:href="#LiberationSans-63"/>
     <use x="172.265625" xlink:href="#LiberationSans-6f"/>
     <use x="227.880859375" xlink:href="#LiberationSans-6c"/>
     <use x="250.09765625" xlink:href="#LiberationSans-69"/>
     <use x="272.314453125" xlink:href="#LiberationSans-20"/>
     <use x="300.09765625" xlink:href="#LiberationSans-72"/>
     <use x="333.3984375" xlink:href="#LiberationSans-65"/>
     <use x="389.013671875" xlink:href="#LiberationSans-61"/>
     <use x="444.62890625" xlink:href="#LiberationSans-63"/>
     <use x="494.62890625" xlink:href="#LiberationSans-74"/>
     <use x="522.412109375" xlink:href="#LiberationSans-69"/>
     <use x="544.62890625" xlink:href="#LiberationSans-6f"/>
     <use x="600.244140625" xlink:href="#LiberationSans-6e"/>
     <use x="655.859375" xlink:href="#LiberationSans-73"/>
     <use x="705.859375" xlink:href="#LiberationSans-20"/>
     <use x="733.642578125" xlink:href="#LiberationSans-28"/>
     <use x="766.943359375" xlink:href="#LiberationSans-36"/>
     <use x="822.55859375" xlink:href="#LiberationSans-36"/>
     <use x="878.173828125" xlink:href="#LiberationSans-39"/>
     <use x="933.7890625" xlink:href="#LiberationSans-20"/>
     <use x="961.572265625" xlink:href="#LiberationSans-74"/>
     <use x="989.35546875" xlink:href="#LiberationSans-6f"/>
     <use x="1044.97070312" xlink:href="#LiberationSans-74"/>
     <use x="1072.75390625" xlink:href="#LiberationSans-61"/>
     <use x="1128.36914062" xlink:href="#LiberationSans-6c"/>
     <use x="1150.5859375" xlink:href="#LiberationSans-29"/>
    </g>
   </g>
   <g id="text_16">
    <!-- b -->
    <g style="fill:#262626;" transform="translate(279.605454545 104.771931818)scale(0.2 -0.2)">
     <use xlink:href="#LiberationSans-62"/>
    </g>
   </g>
  </g>
 </g>
 <defs>
  <clipPath id="pbe956db9b9">
   <rect height="177.545454545" width="177.545454545" x="276.054545455" y="86.7272727273"/>
  </clipPath>
  <clipPath id="pf41788ae7c">
   <rect height="177.545454545" width="177.545454545" x="63.0" y="86.7272727273"/>
  </clipPath>
 </defs>
</svg>
