<?xml version="1.0" encoding="utf-8" standalone="no"?>
<!DOCTYPE svg PUBLIC "-//W3C//DTD SVG 1.1//EN"
  "http://www.w3.org/Graphics/SVG/1.1/DTD/svg11.dtd">
<!-- Created with matplotlib (http://matplotlib.org/) -->
<svg height="360pt" version="1.1" viewBox="0 0 504 360" width="504pt" xmlns="http://www.w3.org/2000/svg" xmlns:xlink="http://www.w3.org/1999/xlink">
 <defs>
  <style type="text/css">
*{stroke-linecap:butt;stroke-linejoin:round;}
  </style>
 </defs>
 <g id="figure_1">
  <g id="patch_1">
   <path d="M 0 360 
L 504 360 
L 504 0 
L 0 0 
z
" style="fill:#ffffff;"/>
  </g>
  <g id="axes_1">
   <g id="patch_2">
    <path clip-path="url(#p796b412f53)" d="M 190.289128 114.271564 
C 192.588018 115.691825 194.740343 117.336663 196.714461 119.181898 
C 198.68858 121.027134 200.47477 123.063679 202.046774 125.261597 
C 203.689356 126.066414 205.24409 127.039346 206.686033 128.164782 
C 208.127975 129.290218 209.449373 130.562108 210.629026 131.960044 
C 207.803476 128.432222 204.666456 125.165576 201.255868 122.199578 
C 197.84528 119.233579 194.174918 116.580221 190.289128 114.271564 
M 187.603719 112.749572 
C 179.487604 108.366654 170.635752 105.509873 161.488687 104.321397 
C 152.341621 103.132922 143.053639 103.632801 134.086969 105.796158 
C 125.120299 107.959515 116.626196 111.749856 109.027378 116.978551 
C 101.42856 122.207246 94.85321 128.786095 89.628556 136.387692 
C 84.403903 143.989289 80.618079 152.485407 78.459491 161.453226 
C 76.300903 170.421045 75.805963 179.709292 76.999302 188.855724 
C 78.192641 198.002156 81.05413 206.852488 85.441363 214.966271 
C 89.828595 223.080054 95.667566 230.32042 102.66769 236.327045 
C 109.667815 242.333669 117.711012 247.005229 126.397001 250.109238 
C 135.082991 253.213246 144.265253 254.697344 153.486821 254.487673 
C 162.70839 254.278001 171.813709 252.378098 180.349644 248.882513 
C 188.885578 245.386929 196.708137 240.354628 203.428023 234.036051 
C 210.147909 227.717474 215.651766 220.219205 219.665688 211.914404 
C 223.679611 203.609604 226.135889 194.638362 226.912284 185.447144 
C 227.68868 176.255925 226.772094 166.999773 224.208144 158.13933 
C 221.644194 149.278888 217.476129 140.963618 211.911377 133.60734 
C 214.152723 136.733509 215.685846 140.311043 216.403679 144.090101 
C 217.121512 147.869158 217.006945 151.759671 216.067981 155.48994 
C 215.129016 159.22021 213.388032 162.701329 210.966613 165.69019 
C 208.545194 168.679051 205.50105 171.104419 202.046774 172.796914 
C 197.491127 179.166448 191.198805 184.093864 183.922805 186.989501 
C 176.646806 189.885137 168.689427 190.62869 161.002923 189.131177 
C 153.31642 187.633664 146.220144 183.957303 140.563305 178.542042 
C 134.906465 173.126782 130.924087 166.19761 129.092739 158.583738 
C 127.261391 150.969867 127.657161 142.987629 130.232687 135.592255 
C 132.808213 128.196882 137.456489 121.69563 143.621259 116.866501 
C 149.786029 112.037371 157.211164 109.081001 165.008102 108.351177 
C 172.80504 107.621354 180.64984 109.148399 187.603719 112.749572 
" style="fill:#0000ff;opacity:0.4;"/>
   </g>
   <g id="patch_3">
    <path clip-path="url(#p796b412f53)" d="M 202.046774 125.261597 
C 200.47477 123.063679 198.68858 121.027134 196.714461 119.181898 
C 194.740343 117.336663 192.588018 115.691825 190.289128 114.271564 
C 189.846811 114.00877 189.401815 113.750511 188.954212 113.496826 
C 188.506609 113.24314 188.056421 112.994043 187.603719 112.749572 
C 180.64984 109.148399 172.80504 107.621354 165.008102 108.351177 
C 157.211164 109.081001 149.786029 112.037371 143.621259 116.866501 
C 137.456489 121.69563 132.808213 128.196882 130.232687 135.592255 
C 127.657161 142.987629 127.261391 150.969867 129.092739 158.583738 
C 130.924087 166.19761 134.906465 173.126782 140.563305 178.542042 
C 146.220144 183.957303 153.31642 187.633664 161.002923 189.131177 
C 168.689427 190.62869 176.646806 189.885137 183.922805 186.989501 
C 191.198805 184.093864 197.491127 179.166448 202.046774 172.796914 
C 198.011897 174.773887 193.53927 175.691218 189.051934 175.462144 
C 184.564598 175.233069 180.208637 173.865045 176.396056 171.487466 
C 172.583474 169.109887 169.43839 165.800154 167.258279 161.871315 
C 165.078168 157.942476 163.934002 153.522434 163.934002 149.029255 
C 163.934002 144.536076 165.078168 140.116034 167.258279 136.187195 
C 169.43839 132.258357 172.583474 128.948623 176.396056 126.571044 
C 180.208637 124.193465 184.564598 122.825441 189.051934 122.596367 
C 193.53927 122.367292 198.011897 123.284624 202.046774 125.261597 
" style="fill:#b200b2;opacity:0.4;"/>
   </g>
   <g id="patch_4">
    <path clip-path="url(#p796b412f53)" d="M 202.046774 172.796914 
C 205.50105 171.104419 208.545194 168.679051 210.966613 165.69019 
C 213.388032 162.701329 215.129016 159.22021 216.067981 155.48994 
C 217.006945 151.759671 217.121512 147.869158 216.403679 144.090101 
C 215.685846 140.311043 214.152723 136.733509 211.911377 133.60734 
C 211.701465 133.329849 211.489635 133.053814 211.275902 132.779254 
C 211.062169 132.504695 210.846538 132.231619 210.629026 131.960044 
C 209.449373 130.562108 208.127975 129.290218 206.686033 128.164782 
C 205.24409 127.039346 203.689356 126.066414 202.046774 125.261597 
C 207.004809 132.193735 209.671621 140.506541 209.671621 149.029255 
C 209.671621 157.551969 207.004809 165.864775 202.046774 172.796914 
" style="fill:#0059b2;opacity:0.4;"/>
   </g>
   <g id="patch_5">
    <path clip-path="url(#p796b412f53)" d="M 202.046774 172.796914 
C 207.004809 165.864775 209.671621 157.551969 209.671621 149.029255 
C 209.671621 140.506541 207.004809 132.193735 202.046774 125.261597 
C 198.011897 123.284624 193.53927 122.367292 189.051934 122.596367 
C 184.564598 122.825441 180.208637 124.193465 176.396056 126.571044 
C 172.583474 128.948623 169.43839 132.258357 167.258279 136.187195 
C 165.078168 140.116034 163.934002 144.536076 163.934002 149.029255 
C 163.934002 153.522434 165.078168 157.942476 167.258279 161.871315 
C 169.43839 165.800154 172.583474 169.109887 176.396056 171.487466 
C 180.208637 173.865045 184.564598 175.233069 189.051934 175.462144 
C 193.53927 175.691218 198.011897 174.773887 202.046774 172.796914 
" style="fill:#663366;opacity:0.4;"/>
   </g>
   <g id="text_1">
    <!-- 719 -->
    <defs>
     <path d="M 50.59375 61.671875 
Q 45.40625 53.765625 41.0625 46.453125 
Q 36.71875 39.15625 33.59375 31.75 
Q 30.46875 24.359375 28.734375 16.578125 
Q 27 8.796875 27 0 
L 17.828125 0 
Q 17.828125 8.25 19.78125 16.1875 
Q 21.734375 24.125 25.046875 31.765625 
Q 28.375 39.40625 32.765625 46.78125 
Q 37.15625 54.15625 42.09375 61.328125 
L 5.125 61.328125 
L 5.125 68.796875 
L 50.59375 68.796875 
z
" id="LiberationSans-37"/>
     <path d="M 7.625 0 
L 7.625 7.46875 
L 25.140625 7.46875 
L 25.140625 60.40625 
L 9.625 49.3125 
L 9.625 57.625 
L 25.875 68.796875 
L 33.984375 68.796875 
L 33.984375 7.46875 
L 50.734375 7.46875 
L 50.734375 0 
z
" id="LiberationSans-31"/>
     <path d="M 50.875 35.796875 
Q 50.875 26.609375 49.140625 19.703125 
Q 47.40625 12.796875 44.1875 8.203125 
Q 40.96875 3.609375 36.34375 1.3125 
Q 31.734375 -0.984375 25.984375 -0.984375 
Q 22.015625 -0.984375 18.84375 -0.171875 
Q 15.671875 0.640625 13.171875 2.34375 
Q 10.6875 4.046875 8.921875 6.78125 
Q 7.171875 9.515625 6.109375 13.375 
L 14.5 14.703125 
Q 15.875 10.25 18.78125 8.171875 
Q 21.6875 6.109375 26.125 6.109375 
Q 29.6875 6.109375 32.640625 7.78125 
Q 35.59375 9.46875 37.671875 12.84375 
Q 39.75 16.21875 40.921875 21.296875 
Q 42.09375 26.375 42.1875 33.203125 
Q 41.15625 30.90625 39.375 29.09375 
Q 37.59375 27.296875 35.328125 26.046875 
Q 33.0625 24.8125 30.421875 24.140625 
Q 27.78125 23.484375 25.09375 23.484375 
Q 20.40625 23.484375 16.625 25.171875 
Q 12.84375 26.859375 10.203125 29.875 
Q 7.5625 32.90625 6.125 37.171875 
Q 4.6875 41.453125 4.6875 46.6875 
Q 4.6875 52 6.21875 56.296875 
Q 7.765625 60.59375 10.6875 63.59375 
Q 13.625 66.609375 17.890625 68.21875 
Q 22.171875 69.828125 27.59375 69.828125 
Q 39.0625 69.828125 44.96875 61.328125 
Q 50.875 52.828125 50.875 35.796875 
M 41.3125 44.28125 
Q 41.3125 48.09375 40.40625 51.453125 
Q 39.5 54.828125 37.71875 57.3125 
Q 35.9375 59.8125 33.328125 61.25 
Q 30.71875 62.703125 27.296875 62.703125 
Q 24.125 62.703125 21.578125 61.578125 
Q 19.046875 60.453125 17.28125 58.375 
Q 15.53125 56.296875 14.578125 53.3125 
Q 13.625 50.34375 13.625 46.6875 
Q 13.625 43.21875 14.46875 40.234375 
Q 15.328125 37.25 17.03125 35.078125 
Q 18.75 32.90625 21.28125 31.65625 
Q 23.828125 30.421875 27.203125 30.421875 
Q 29.640625 30.421875 32.15625 31.25 
Q 34.671875 32.078125 36.6875 33.78125 
Q 38.71875 35.5 40.015625 38.109375 
Q 41.3125 40.71875 41.3125 44.28125 
" id="LiberationSans-39"/>
    </defs>
    <g style="fill:#262626;" transform="translate(120.786708 198.053149)scale(0.096 -0.096)">
     <use xlink:href="#LiberationSans-37"/>
     <use x="55.615234" xlink:href="#LiberationSans-31"/>
     <use x="111.230469" xlink:href="#LiberationSans-39"/>
    </g>
   </g>
   <g id="text_2">
    <!-- 192 -->
    <defs>
     <path d="M 5.03125 0 
L 5.03125 6.203125 
Q 7.515625 11.921875 11.109375 16.28125 
Q 14.703125 20.65625 18.65625 24.1875 
Q 22.609375 27.734375 26.484375 30.765625 
Q 30.375 33.796875 33.5 36.8125 
Q 36.625 39.84375 38.546875 43.15625 
Q 40.484375 46.484375 40.484375 50.6875 
Q 40.484375 53.609375 39.59375 55.828125 
Q 38.71875 58.0625 37.0625 59.5625 
Q 35.40625 61.078125 33.078125 61.828125 
Q 30.765625 62.59375 27.9375 62.59375 
Q 25.296875 62.59375 22.96875 61.859375 
Q 20.65625 61.140625 18.84375 59.671875 
Q 17.046875 58.203125 15.890625 56.03125 
Q 14.75 53.859375 14.40625 50.984375 
L 5.421875 51.8125 
Q 5.859375 55.515625 7.46875 58.78125 
Q 9.078125 62.0625 11.90625 64.53125 
Q 14.75 67 18.71875 68.40625 
Q 22.703125 69.828125 27.9375 69.828125 
Q 33.0625 69.828125 37.0625 68.609375 
Q 41.0625 67.390625 43.8125 64.984375 
Q 46.578125 62.59375 48.046875 59.078125 
Q 49.515625 55.5625 49.515625 50.984375 
Q 49.515625 47.515625 48.265625 44.390625 
Q 47.015625 41.265625 44.9375 38.421875 
Q 42.875 35.59375 40.140625 32.953125 
Q 37.40625 30.328125 34.421875 27.8125 
Q 31.453125 25.296875 28.421875 22.828125 
Q 25.390625 20.359375 22.71875 17.859375 
Q 20.0625 15.375 17.96875 12.8125 
Q 15.875 10.25 14.703125 7.46875 
L 50.59375 7.46875 
L 50.59375 0 
z
" id="LiberationSans-32"/>
    </defs>
    <g style="fill:#262626;" transform="translate(139.901262 154.863808)scale(0.096 -0.096)">
     <use xlink:href="#LiberationSans-31"/>
     <use x="55.615234" xlink:href="#LiberationSans-39"/>
     <use x="111.230469" xlink:href="#LiberationSans-32"/>
    </g>
   </g>
   <g id="text_3">
    <!-- 15 -->
    <defs>
     <path d="M 51.421875 22.40625 
Q 51.421875 17.234375 49.859375 12.9375 
Q 48.296875 8.640625 45.21875 5.53125 
Q 42.140625 2.4375 37.578125 0.71875 
Q 33.015625 -0.984375 27 -0.984375 
Q 21.578125 -0.984375 17.546875 0.28125 
Q 13.53125 1.5625 10.734375 3.78125 
Q 7.953125 6 6.3125 8.984375 
Q 4.6875 11.96875 4 15.375 
L 12.890625 16.40625 
Q 13.421875 14.453125 14.390625 12.625 
Q 15.375 10.796875 17.0625 9.34375 
Q 18.75 7.90625 21.21875 7.046875 
Q 23.6875 6.203125 27.203125 6.203125 
Q 30.609375 6.203125 33.390625 7.25 
Q 36.1875 8.296875 38.15625 10.34375 
Q 40.140625 12.40625 41.203125 15.375 
Q 42.28125 18.359375 42.28125 22.21875 
Q 42.28125 25.390625 41.25 28.046875 
Q 40.234375 30.71875 38.328125 32.640625 
Q 36.421875 34.578125 33.65625 35.640625 
Q 30.90625 36.71875 27.390625 36.71875 
Q 25.203125 36.71875 23.34375 36.328125 
Q 21.484375 35.9375 19.890625 35.25 
Q 18.3125 34.578125 17.015625 33.671875 
Q 15.71875 32.765625 14.59375 31.78125 
L 6 31.78125 
L 8.296875 68.796875 
L 47.40625 68.796875 
L 47.40625 61.328125 
L 16.3125 61.328125 
L 14.984375 39.5 
Q 17.328125 41.3125 20.84375 42.59375 
Q 24.359375 43.890625 29.203125 43.890625 
Q 34.328125 43.890625 38.421875 42.328125 
Q 42.53125 40.765625 45.40625 37.90625 
Q 48.296875 35.0625 49.859375 31.109375 
Q 51.421875 27.15625 51.421875 22.40625 
" id="LiberationSans-35"/>
    </defs>
    <g style="fill:#262626;" transform="translate(207.232741 152.134344)scale(0.096 -0.096)">
     <use xlink:href="#LiberationSans-31"/>
     <use x="55.615234" xlink:href="#LiberationSans-35"/>
    </g>
   </g>
   <g id="text_4">
    <!-- 113 -->
    <defs>
     <path d="M 51.21875 19 
Q 51.21875 14.265625 49.671875 10.546875 
Q 48.140625 6.84375 45.1875 4.265625 
Q 42.234375 1.703125 37.859375 0.359375 
Q 33.5 -0.984375 27.875 -0.984375 
Q 21.484375 -0.984375 17.109375 0.609375 
Q 12.75 2.203125 9.90625 4.8125 
Q 7.078125 7.421875 5.65625 10.765625 
Q 4.25 14.109375 3.8125 17.671875 
L 12.890625 18.5 
Q 13.28125 15.765625 14.328125 13.515625 
Q 15.375 11.28125 17.1875 9.671875 
Q 19 8.0625 21.625 7.171875 
Q 24.265625 6.296875 27.875 6.296875 
Q 34.515625 6.296875 38.296875 9.5625 
Q 42.09375 12.84375 42.09375 19.28125 
Q 42.09375 23.09375 40.40625 25.40625 
Q 38.71875 27.734375 36.203125 29.03125 
Q 33.6875 30.328125 30.734375 30.765625 
Q 27.78125 31.203125 25.296875 31.203125 
L 20.3125 31.203125 
L 20.3125 38.8125 
L 25.09375 38.8125 
Q 27.59375 38.8125 30.265625 39.328125 
Q 32.953125 39.84375 35.171875 41.1875 
Q 37.40625 42.53125 38.84375 44.828125 
Q 40.28125 47.125 40.28125 50.6875 
Q 40.28125 56.203125 37.03125 59.390625 
Q 33.796875 62.59375 27.390625 62.59375 
Q 21.578125 62.59375 17.984375 59.609375 
Q 14.40625 56.640625 13.8125 51.21875 
L 4.984375 51.90625 
Q 5.515625 56.453125 7.46875 59.8125 
Q 9.421875 63.1875 12.421875 65.40625 
Q 15.4375 67.625 19.28125 68.71875 
Q 23.140625 69.828125 27.484375 69.828125 
Q 33.25 69.828125 37.390625 68.375 
Q 41.546875 66.9375 44.1875 64.46875 
Q 46.828125 62.015625 48.0625 58.6875 
Q 49.3125 55.375 49.3125 51.609375 
Q 49.3125 48.578125 48.484375 45.9375 
Q 47.65625 43.3125 45.890625 41.203125 
Q 44.140625 39.109375 41.421875 37.59375 
Q 38.71875 36.078125 34.90625 35.296875 
L 34.90625 35.109375 
Q 39.0625 34.671875 42.140625 33.21875 
Q 45.21875 31.78125 47.21875 29.625 
Q 49.21875 27.484375 50.21875 24.75 
Q 51.21875 22.015625 51.21875 19 
" id="LiberationSans-33"/>
    </defs>
    <g style="fill:#262626;" transform="translate(178.795062 151.511755)scale(0.096 -0.096)">
     <use xlink:href="#LiberationSans-31"/>
     <use x="55.615234" xlink:href="#LiberationSans-31"/>
     <use x="111.230469" xlink:href="#LiberationSans-33"/>
    </g>
   </g>
   <g id="text_5">
    <!-- inhibitors -->
    <defs>
     <path d="M 6.6875 64.0625 
L 6.6875 72.46875 
L 15.484375 72.46875 
L 15.484375 64.0625 
z
M 6.6875 0 
L 6.6875 52.828125 
L 15.484375 52.828125 
L 15.484375 0 
z
" id="LiberationSans-69"/>
     <path d="M 40.28125 0 
L 40.28125 33.5 
Q 40.28125 37.359375 39.71875 39.9375 
Q 39.15625 42.53125 37.890625 44.109375 
Q 36.625 45.703125 34.546875 46.359375 
Q 32.46875 47.015625 29.390625 47.015625 
Q 26.265625 47.015625 23.75 45.921875 
Q 21.234375 44.828125 19.453125 42.75 
Q 17.671875 40.671875 16.6875 37.625 
Q 15.71875 34.578125 15.71875 30.609375 
L 15.71875 0 
L 6.9375 0 
L 6.9375 41.546875 
Q 6.9375 43.21875 6.90625 45.046875 
Q 6.890625 46.875 6.828125 48.5 
Q 6.78125 50.140625 6.734375 51.3125 
Q 6.6875 52.484375 6.640625 52.828125 
L 14.9375 52.828125 
Q 14.984375 52.59375 15.03125 51.515625 
Q 15.09375 50.4375 15.15625 49.046875 
Q 15.234375 47.65625 15.28125 46.21875 
Q 15.328125 44.78125 15.328125 43.796875 
L 15.484375 43.796875 
Q 16.75 46.09375 18.265625 47.953125 
Q 19.78125 49.8125 21.78125 51.09375 
Q 23.78125 52.390625 26.359375 53.09375 
Q 28.953125 53.8125 32.375 53.8125 
Q 36.765625 53.8125 39.9375 52.734375 
Q 43.109375 51.65625 45.15625 49.40625 
Q 47.21875 47.171875 48.171875 43.625 
Q 49.125 40.09375 49.125 35.203125 
L 49.125 0 
z
" id="LiberationSans-6e"/>
     <path d="M 15.484375 43.796875 
Q 16.9375 46.484375 18.640625 48.359375 
Q 20.359375 50.25 22.40625 51.46875 
Q 24.46875 52.6875 26.90625 53.25 
Q 29.34375 53.8125 32.375 53.8125 
Q 37.453125 53.8125 40.703125 52.4375 
Q 43.953125 51.078125 45.828125 48.609375 
Q 47.703125 46.140625 48.40625 42.71875 
Q 49.125 39.3125 49.125 35.203125 
L 49.125 0 
L 40.28125 0 
L 40.28125 33.5 
Q 40.28125 36.859375 39.859375 39.390625 
Q 39.453125 41.9375 38.28125 43.625 
Q 37.109375 45.3125 34.953125 46.15625 
Q 32.8125 47.015625 29.390625 47.015625 
Q 26.265625 47.015625 23.75 45.890625 
Q 21.234375 44.78125 19.453125 42.71875 
Q 17.671875 40.671875 16.6875 37.734375 
Q 15.71875 34.8125 15.71875 31.15625 
L 15.71875 0 
L 6.9375 0 
L 6.9375 72.46875 
L 15.71875 72.46875 
L 15.71875 53.609375 
Q 15.71875 52 15.671875 50.390625 
Q 15.625 48.78125 15.546875 47.40625 
Q 15.484375 46.046875 15.421875 45.09375 
Q 15.375 44.140625 15.328125 43.796875 
z
" id="LiberationSans-68"/>
     <path d="M 51.421875 26.65625 
Q 51.421875 -0.984375 31.984375 -0.984375 
Q 25.984375 -0.984375 22 1.1875 
Q 18.015625 3.375 15.53125 8.203125 
L 15.4375 8.203125 
Q 15.4375 6.9375 15.359375 5.5625 
Q 15.28125 4.203125 15.203125 3.03125 
Q 15.140625 1.859375 15.0625 1.03125 
Q 14.984375 0.203125 14.9375 0 
L 6.453125 0 
Q 6.5 0.4375 6.546875 1.484375 
Q 6.59375 2.546875 6.640625 4 
Q 6.6875 5.46875 6.703125 7.21875 
Q 6.734375 8.984375 6.734375 10.890625 
L 6.734375 72.46875 
L 15.53125 72.46875 
L 15.53125 51.8125 
Q 15.53125 50.34375 15.5 49 
Q 15.484375 47.65625 15.4375 46.625 
Q 15.375 45.40625 15.328125 44.34375 
L 15.53125 44.34375 
Q 17.96875 49.421875 22 51.609375 
Q 26.03125 53.8125 31.984375 53.8125 
Q 42 53.8125 46.703125 47.0625 
Q 51.421875 40.328125 51.421875 26.65625 
M 42.1875 26.375 
Q 42.1875 31.84375 41.5 35.75 
Q 40.828125 39.65625 39.3125 42.15625 
Q 37.796875 44.671875 35.453125 45.84375 
Q 33.109375 47.015625 29.734375 47.015625 
Q 26.265625 47.015625 23.609375 45.890625 
Q 20.953125 44.78125 19.171875 42.28125 
Q 17.390625 39.796875 16.453125 35.734375 
Q 15.53125 31.6875 15.53125 25.828125 
Q 15.53125 20.171875 16.453125 16.3125 
Q 17.390625 12.453125 19.171875 10.03125 
Q 20.953125 7.625 23.578125 6.5625 
Q 26.21875 5.515625 29.640625 5.515625 
Q 32.859375 5.515625 35.203125 6.640625 
Q 37.546875 7.765625 39.109375 10.25 
Q 40.671875 12.75 41.421875 16.71875 
Q 42.1875 20.703125 42.1875 26.375 
" id="LiberationSans-62"/>
     <path d="M 27.046875 0.390625 
Q 25.046875 -0.140625 22.96875 -0.453125 
Q 20.90625 -0.78125 18.171875 -0.78125 
Q 7.625 -0.78125 7.625 11.1875 
L 7.625 46.4375 
L 1.515625 46.4375 
L 1.515625 52.828125 
L 7.953125 52.828125 
L 10.546875 64.65625 
L 16.40625 64.65625 
L 16.40625 52.828125 
L 26.171875 52.828125 
L 26.171875 46.4375 
L 16.40625 46.4375 
L 16.40625 13.09375 
Q 16.40625 9.28125 17.640625 7.734375 
Q 18.890625 6.203125 21.96875 6.203125 
Q 23.25 6.203125 24.4375 6.390625 
Q 25.640625 6.59375 27.046875 6.890625 
z
" id="LiberationSans-74"/>
     <path d="M 51.421875 26.46875 
Q 51.421875 12.59375 45.3125 5.796875 
Q 39.203125 -0.984375 27.59375 -0.984375 
Q 22.078125 -0.984375 17.71875 0.671875 
Q 13.375 2.34375 10.375 5.765625 
Q 7.375 9.1875 5.78125 14.328125 
Q 4.203125 19.484375 4.203125 26.46875 
Q 4.203125 53.8125 27.875 53.8125 
Q 34.03125 53.8125 38.5 52.09375 
Q 42.96875 50.390625 45.828125 46.96875 
Q 48.6875 43.5625 50.046875 38.421875 
Q 51.421875 33.296875 51.421875 26.46875 
M 42.1875 26.46875 
Q 42.1875 32.625 41.234375 36.625 
Q 40.28125 40.625 38.453125 43.015625 
Q 36.625 45.40625 33.984375 46.359375 
Q 31.34375 47.3125 28.03125 47.3125 
Q 24.65625 47.3125 21.9375 46.3125 
Q 19.234375 45.3125 17.328125 42.890625 
Q 15.4375 40.484375 14.421875 36.46875 
Q 13.421875 32.46875 13.421875 26.46875 
Q 13.421875 20.3125 14.5 16.28125 
Q 15.578125 12.25 17.453125 9.859375 
Q 19.34375 7.46875 21.90625 6.484375 
Q 24.46875 5.515625 27.484375 5.515625 
Q 30.859375 5.515625 33.59375 6.46875 
Q 36.328125 7.421875 38.234375 9.8125 
Q 40.140625 12.203125 41.15625 16.25 
Q 42.1875 20.3125 42.1875 26.46875 
" id="LiberationSans-6f"/>
     <path d="M 6.9375 0 
L 6.9375 40.53125 
Q 6.9375 42.1875 6.90625 43.921875 
Q 6.890625 45.65625 6.828125 47.265625 
Q 6.78125 48.875 6.734375 50.28125 
Q 6.6875 51.703125 6.640625 52.828125 
L 14.9375 52.828125 
Q 14.984375 51.703125 15.0625 50.265625 
Q 15.140625 48.828125 15.203125 47.3125 
Q 15.28125 45.796875 15.296875 44.40625 
Q 15.328125 43.015625 15.328125 42.046875 
L 15.53125 42.046875 
Q 16.453125 45.0625 17.5 47.28125 
Q 18.5625 49.515625 19.96875 50.953125 
Q 21.390625 52.390625 23.34375 53.09375 
Q 25.296875 53.8125 28.078125 53.8125 
Q 29.15625 53.8125 30.125 53.640625 
Q 31.109375 53.46875 31.640625 53.328125 
L 31.640625 45.265625 
Q 30.765625 45.515625 29.59375 45.625 
Q 28.421875 45.75 26.953125 45.75 
Q 23.921875 45.75 21.796875 44.375 
Q 19.671875 43.015625 18.328125 40.59375 
Q 17 38.1875 16.359375 34.84375 
Q 15.71875 31.5 15.71875 27.546875 
L 15.71875 0 
z
" id="LiberationSans-72"/>
     <path d="M 46.390625 14.59375 
Q 46.390625 10.890625 44.9375 7.984375 
Q 43.5 5.078125 40.765625 3.09375 
Q 38.03125 1.125 34.046875 0.0625 
Q 30.078125 -0.984375 24.953125 -0.984375 
Q 20.359375 -0.984375 16.671875 -0.265625 
Q 12.984375 0.4375 10.203125 2 
Q 7.421875 3.5625 5.53125 6.125 
Q 3.65625 8.6875 2.78125 12.40625 
L 10.546875 13.921875 
Q 11.671875 9.671875 15.1875 7.6875 
Q 18.703125 5.71875 24.953125 5.71875 
Q 27.78125 5.71875 30.140625 6.109375 
Q 32.515625 6.5 34.21875 7.453125 
Q 35.9375 8.40625 36.890625 9.984375 
Q 37.84375 11.578125 37.84375 13.921875 
Q 37.84375 16.3125 36.71875 17.84375 
Q 35.59375 19.390625 33.59375 20.40625 
Q 31.59375 21.4375 28.734375 22.1875 
Q 25.875 22.953125 22.46875 23.875 
Q 19.28125 24.703125 16.15625 25.734375 
Q 13.03125 26.765625 10.515625 28.4375 
Q 8.015625 30.125 6.453125 32.609375 
Q 4.890625 35.109375 4.890625 38.875 
Q 4.890625 46.09375 10.03125 49.875 
Q 15.1875 53.65625 25.046875 53.65625 
Q 33.796875 53.65625 38.9375 50.578125 
Q 44.09375 47.515625 45.453125 40.71875 
L 37.546875 39.75 
Q 37.109375 41.796875 35.9375 43.1875 
Q 34.765625 44.578125 33.109375 45.4375 
Q 31.453125 46.296875 29.375 46.65625 
Q 27.296875 47.015625 25.046875 47.015625 
Q 19.09375 47.015625 16.25 45.203125 
Q 13.421875 43.40625 13.421875 39.75 
Q 13.421875 37.59375 14.46875 36.203125 
Q 15.53125 34.8125 17.40625 33.859375 
Q 19.28125 32.90625 21.921875 32.203125 
Q 24.5625 31.5 27.734375 30.71875 
Q 29.828125 30.171875 32.03125 29.5625 
Q 34.234375 28.953125 36.296875 28.09375 
Q 38.375 27.25 40.203125 26.09375 
Q 42.046875 24.953125 43.40625 23.34375 
Q 44.78125 21.734375 45.578125 19.578125 
Q 46.390625 17.4375 46.390625 14.59375 
" id="LiberationSans-73"/>
    </defs>
    <g style="fill:#262626;" transform="translate(102.287981 108.173362)scale(0.1152 -0.1152)">
     <use xlink:href="#LiberationSans-69"/>
     <use x="22.216797" xlink:href="#LiberationSans-6e"/>
     <use x="77.832031" xlink:href="#LiberationSans-68"/>
     <use x="133.447266" xlink:href="#LiberationSans-69"/>
     <use x="155.664062" xlink:href="#LiberationSans-62"/>
     <use x="211.279297" xlink:href="#LiberationSans-69"/>
     <use x="233.496094" xlink:href="#LiberationSans-74"/>
     <use x="261.279297" xlink:href="#LiberationSans-6f"/>
     <use x="316.894531" xlink:href="#LiberationSans-72"/>
     <use x="350.195312" xlink:href="#LiberationSans-73"/>
    </g>
   </g>
   <g id="text_6">
    <!-- activators -->
    <defs>
     <path d="M 20.21875 -0.984375 
Q 12.25 -0.984375 8.25 3.21875 
Q 4.25 7.421875 4.25 14.75 
Q 4.25 19.96875 6.21875 23.3125 
Q 8.203125 26.65625 11.390625 28.5625 
Q 14.59375 30.46875 18.6875 31.203125 
Q 22.796875 31.9375 27.046875 32.03125 
L 38.921875 32.234375 
L 38.921875 35.109375 
Q 38.921875 38.375 38.234375 40.671875 
Q 37.546875 42.96875 36.125 44.375 
Q 34.71875 45.796875 32.59375 46.453125 
Q 30.46875 47.125 27.59375 47.125 
Q 25.046875 47.125 23 46.75 
Q 20.953125 46.390625 19.4375 45.4375 
Q 17.921875 44.484375 16.984375 42.84375 
Q 16.0625 41.21875 15.765625 38.71875 
L 6.59375 39.546875 
Q 7.078125 42.671875 8.4375 45.28125 
Q 9.8125 47.90625 12.328125 49.796875 
Q 14.84375 51.703125 18.625 52.75 
Q 22.40625 53.8125 27.78125 53.8125 
Q 37.75 53.8125 42.765625 49.234375 
Q 47.796875 44.671875 47.796875 36.03125 
L 47.796875 13.28125 
Q 47.796875 9.375 48.828125 7.390625 
Q 49.859375 5.421875 52.734375 5.421875 
Q 53.46875 5.421875 54.203125 5.515625 
Q 54.9375 5.609375 55.609375 5.765625 
L 55.609375 0.296875 
Q 53.953125 -0.09375 52.3125 -0.28125 
Q 50.6875 -0.484375 48.828125 -0.484375 
Q 46.34375 -0.484375 44.5625 0.171875 
Q 42.78125 0.828125 41.65625 2.171875 
Q 40.53125 3.515625 39.9375 5.484375 
Q 39.359375 7.46875 39.203125 10.109375 
L 38.921875 10.109375 
Q 37.5 7.5625 35.8125 5.515625 
Q 34.125 3.46875 31.875 2.03125 
Q 29.640625 0.59375 26.78125 -0.1875 
Q 23.921875 -0.984375 20.21875 -0.984375 
M 22.21875 5.609375 
Q 26.421875 5.609375 29.5625 7.140625 
Q 32.71875 8.6875 34.78125 11.078125 
Q 36.859375 13.484375 37.890625 16.3125 
Q 38.921875 19.140625 38.921875 21.734375 
L 38.921875 26.078125 
L 29.296875 25.875 
Q 26.078125 25.828125 23.171875 25.40625 
Q 20.265625 25 18.0625 23.78125 
Q 15.875 22.5625 14.578125 20.359375 
Q 13.28125 18.171875 13.28125 14.59375 
Q 13.28125 10.296875 15.59375 7.953125 
Q 17.921875 5.609375 22.21875 5.609375 
" id="LiberationSans-61"/>
     <path d="M 13.421875 26.65625 
Q 13.421875 22.125 14.078125 18.3125 
Q 14.75 14.5 16.3125 11.734375 
Q 17.875 8.984375 20.4375 7.46875 
Q 23 5.953125 26.765625 5.953125 
Q 31.453125 5.953125 34.59375 8.484375 
Q 37.75 11.03125 38.484375 16.3125 
L 47.359375 15.71875 
Q 46.921875 12.453125 45.453125 9.421875 
Q 44 6.390625 41.484375 4.09375 
Q 38.96875 1.8125 35.34375 0.40625 
Q 31.734375 -0.984375 27 -0.984375 
Q 20.796875 -0.984375 16.453125 1.109375 
Q 12.109375 3.21875 9.390625 6.90625 
Q 6.6875 10.59375 5.46875 15.59375 
Q 4.25 20.609375 4.25 26.46875 
Q 4.25 31.78125 5.125 35.859375 
Q 6 39.9375 7.59375 42.984375 
Q 9.1875 46.046875 11.328125 48.125 
Q 13.484375 50.203125 15.984375 51.4375 
Q 18.5 52.6875 21.28125 53.25 
Q 24.078125 53.8125 26.90625 53.8125 
Q 31.34375 53.8125 34.8125 52.59375 
Q 38.28125 51.375 40.796875 49.25 
Q 43.3125 47.125 44.875 44.234375 
Q 46.4375 41.359375 47.078125 38.03125 
L 38.03125 37.359375 
Q 37.359375 41.75 34.5625 44.328125 
Q 31.78125 46.921875 26.65625 46.921875 
Q 22.90625 46.921875 20.390625 45.671875 
Q 17.875 44.4375 16.3125 41.921875 
Q 14.75 39.40625 14.078125 35.59375 
Q 13.421875 31.78125 13.421875 26.65625 
" id="LiberationSans-63"/>
     <path d="M 29.9375 0 
L 19.53125 0 
L 0.34375 52.828125 
L 9.71875 52.828125 
L 21.34375 18.453125 
Q 21.6875 17.390625 22.140625 15.84375 
Q 22.609375 14.3125 23.09375 12.640625 
Q 23.578125 10.984375 24 9.4375 
Q 24.421875 7.90625 24.703125 6.890625 
Q 25 7.90625 25.453125 9.4375 
Q 25.921875 10.984375 26.40625 12.59375 
Q 26.90625 14.203125 27.421875 15.734375 
Q 27.9375 17.28125 28.328125 18.359375 
L 40.328125 52.828125 
L 49.65625 52.828125 
z
" id="LiberationSans-76"/>
    </defs>
    <g style="fill:#262626;" transform="translate(203.634965 122.561947)scale(0.1152 -0.1152)">
     <use xlink:href="#LiberationSans-61"/>
     <use x="55.615234" xlink:href="#LiberationSans-63"/>
     <use x="105.615234" xlink:href="#LiberationSans-74"/>
     <use x="133.398438" xlink:href="#LiberationSans-69"/>
     <use x="155.615234" xlink:href="#LiberationSans-76"/>
     <use x="205.615234" xlink:href="#LiberationSans-61"/>
     <use x="261.230469" xlink:href="#LiberationSans-74"/>
     <use x="289.013672" xlink:href="#LiberationSans-6f"/>
     <use x="344.628906" xlink:href="#LiberationSans-72"/>
     <use x="377.929688" xlink:href="#LiberationSans-73"/>
    </g>
   </g>
   <g id="text_7">
    <!-- E. coli metabolites -->
    <defs>
     <path d="M 8.203125 0 
L 8.203125 68.796875 
L 60.40625 68.796875 
L 60.40625 61.1875 
L 17.53125 61.1875 
L 17.53125 39.109375 
L 57.46875 39.109375 
L 57.46875 31.59375 
L 17.53125 31.59375 
L 17.53125 7.625 
L 62.40625 7.625 
L 62.40625 0 
z
" id="LiberationSans-45"/>
     <path d="M 9.125 0 
L 9.125 10.6875 
L 18.65625 10.6875 
L 18.65625 0 
z
" id="LiberationSans-2e"/>
     <path id="LiberationSans-20"/>
     <path d="M 6.734375 0 
L 6.734375 72.46875 
L 15.53125 72.46875 
L 15.53125 0 
z
" id="LiberationSans-6c"/>
     <path d="M 37.5 0 
L 37.5 33.5 
Q 37.5 37.359375 37.015625 39.9375 
Q 36.53125 42.53125 35.375 44.109375 
Q 34.234375 45.703125 32.375 46.359375 
Q 30.515625 47.015625 27.828125 47.015625 
Q 25.046875 47.015625 22.796875 45.921875 
Q 20.5625 44.828125 18.96875 42.75 
Q 17.390625 40.671875 16.53125 37.625 
Q 15.671875 34.578125 15.671875 30.609375 
L 15.671875 0 
L 6.9375 0 
L 6.9375 41.546875 
Q 6.9375 43.21875 6.90625 45.046875 
Q 6.890625 46.875 6.828125 48.5 
Q 6.78125 50.140625 6.734375 51.3125 
Q 6.6875 52.484375 6.640625 52.828125 
L 14.9375 52.828125 
Q 14.984375 52.59375 15.03125 51.515625 
Q 15.09375 50.4375 15.15625 49.046875 
Q 15.234375 47.65625 15.28125 46.21875 
Q 15.328125 44.78125 15.328125 43.796875 
L 15.484375 43.796875 
Q 16.65625 46.09375 18.015625 47.953125 
Q 19.390625 49.8125 21.21875 51.09375 
Q 23.046875 52.390625 25.40625 53.09375 
Q 27.78125 53.8125 30.90625 53.8125 
Q 36.921875 53.8125 40.40625 51.421875 
Q 43.890625 49.03125 45.265625 43.796875 
L 45.40625 43.796875 
Q 46.578125 46.09375 48.046875 47.953125 
Q 49.515625 49.8125 51.46875 51.09375 
Q 53.421875 52.390625 55.859375 53.09375 
Q 58.296875 53.8125 61.421875 53.8125 
Q 65.4375 53.8125 68.328125 52.734375 
Q 71.234375 51.65625 73.09375 49.40625 
Q 74.953125 47.171875 75.828125 43.625 
Q 76.703125 40.09375 76.703125 35.203125 
L 76.703125 0 
L 68.015625 0 
L 68.015625 33.5 
Q 68.015625 37.359375 67.53125 39.9375 
Q 67.046875 42.53125 65.890625 44.109375 
Q 64.75 45.703125 62.890625 46.359375 
Q 61.03125 47.015625 58.34375 47.015625 
Q 55.5625 47.015625 53.3125 45.96875 
Q 51.078125 44.921875 49.484375 42.875 
Q 47.90625 40.828125 47.046875 37.75 
Q 46.1875 34.671875 46.1875 30.609375 
L 46.1875 0 
z
" id="LiberationSans-6d"/>
     <path d="M 13.484375 24.5625 
Q 13.484375 20.40625 14.328125 16.90625 
Q 15.1875 13.421875 16.96875 10.90625 
Q 18.75 8.40625 21.53125 7 
Q 24.3125 5.609375 28.21875 5.609375 
Q 33.9375 5.609375 37.375 7.90625 
Q 40.828125 10.203125 42.046875 13.71875 
L 49.75 11.53125 
Q 48.921875 9.328125 47.4375 7.109375 
Q 45.953125 4.890625 43.453125 3.09375 
Q 40.96875 1.3125 37.234375 0.15625 
Q 33.5 -0.984375 28.21875 -0.984375 
Q 16.5 -0.984375 10.375 6 
Q 4.25 12.984375 4.25 26.765625 
Q 4.25 34.1875 6.09375 39.328125 
Q 7.953125 44.484375 11.171875 47.703125 
Q 14.40625 50.921875 18.703125 52.359375 
Q 23 53.8125 27.875 53.8125 
Q 34.515625 53.8125 38.984375 51.65625 
Q 43.453125 49.515625 46.15625 45.71875 
Q 48.875 41.9375 50.015625 36.8125 
Q 51.171875 31.6875 51.171875 25.734375 
L 51.171875 24.5625 
z
M 42.09375 31.296875 
Q 41.359375 39.65625 37.84375 43.484375 
Q 34.328125 47.3125 27.734375 47.3125 
Q 25.53125 47.3125 23.109375 46.609375 
Q 20.703125 45.90625 18.65625 44.09375 
Q 16.609375 42.28125 15.1875 39.171875 
Q 13.765625 36.078125 13.578125 31.296875 
z
" id="LiberationSans-65"/>
    </defs>
    <g style="fill:#262626;" transform="translate(105.033927 270.396272)scale(0.1152 -0.1152)">
     <use xlink:href="#LiberationSans-45"/>
     <use x="66.699219" xlink:href="#LiberationSans-2e"/>
     <use x="94.482422" xlink:href="#LiberationSans-20"/>
     <use x="122.265625" xlink:href="#LiberationSans-63"/>
     <use x="172.265625" xlink:href="#LiberationSans-6f"/>
     <use x="227.880859" xlink:href="#LiberationSans-6c"/>
     <use x="250.097656" xlink:href="#LiberationSans-69"/>
     <use x="272.314453" xlink:href="#LiberationSans-20"/>
     <use x="300.097656" xlink:href="#LiberationSans-6d"/>
     <use x="383.398438" xlink:href="#LiberationSans-65"/>
     <use x="439.013672" xlink:href="#LiberationSans-74"/>
     <use x="466.796875" xlink:href="#LiberationSans-61"/>
     <use x="522.412109" xlink:href="#LiberationSans-62"/>
     <use x="578.027344" xlink:href="#LiberationSans-6f"/>
     <use x="633.642578" xlink:href="#LiberationSans-6c"/>
     <use x="655.859375" xlink:href="#LiberationSans-69"/>
     <use x="678.076172" xlink:href="#LiberationSans-74"/>
     <use x="705.859375" xlink:href="#LiberationSans-65"/>
     <use x="761.474609" xlink:href="#LiberationSans-73"/>
    </g>
   </g>
   <g id="text_8">
    <!-- a -->
    <g style="fill:#262626;" transform="translate(66.550909 108.371932)scale(0.2 -0.2)">
     <use xlink:href="#LiberationSans-61"/>
    </g>
   </g>
  </g>
  <g id="axes_2">
   <g id="patch_6">
    <path clip-path="url(#p0ff0d2fd8a)" d="M 391.550239 108.586722 
C 396.884282 110.679653 401.855103 113.600627 406.279314 117.24188 
C 410.703525 120.883133 414.526039 125.199328 417.605832 130.031227 
C 420.37257 131.477308 422.920571 133.308042 425.173812 135.468805 
C 427.427052 137.629568 429.362899 140.098656 430.923592 142.802399 
C 426.639426 135.001123 421.007733 128.019581 414.289714 122.181583 
C 407.571695 116.343585 399.872845 111.740805 391.550239 108.586722 
M 387.216753 107.0934 
C 378.97175 104.529728 370.347342 103.401119 361.720296 103.756878 
C 353.09325 104.112638 344.591049 105.947508 336.585122 109.181332 
C 328.579194 112.415155 321.187845 117.000144 314.733973 122.735999 
C 308.280102 128.471854 302.859078 135.273814 298.707725 142.844729 
C 294.556372 150.415645 291.736035 158.643638 290.369924 167.16926 
C 289.003814 175.694882 289.112116 184.392148 290.6901 192.881109 
C 292.268085 201.37007 295.292433 209.525282 299.631022 216.990477 
C 303.969612 224.455671 309.558331 231.120533 316.153031 236.693901 
C 322.74773 242.267269 330.250959 246.666784 338.334929 249.700248 
C 346.4189 252.733712 354.964155 254.3563 363.597385 254.497126 
C 372.230615 254.637953 380.824245 253.294937 389.002853 250.52675 
C 397.181461 247.758563 404.82419 243.606111 411.59716 238.250798 
C 418.370129 232.895486 424.173253 226.416449 428.753017 219.096732 
C 433.33278 211.777015 436.621506 203.724782 438.475523 195.291804 
C 440.32954 186.858827 440.721451 178.16972 439.634136 169.604078 
C 438.54682 161.038435 435.996345 152.722832 432.09413 145.020546 
C 435.803487 152.746272 436.367025 161.619554 433.664846 169.752474 
C 430.962666 177.885394 425.201039 184.657126 417.605832 188.626887 
C 412.157749 197.174405 404.431975 204.035201 395.300486 208.434924 
C 386.168997 212.834648 375.988768 214.601302 365.908803 213.53549 
C 355.828837 212.469679 346.243188 208.613068 338.23375 202.400938 
C 330.224312 196.188808 324.104195 187.864008 320.564154 178.366126 
C 317.024113 168.868244 316.202537 158.568577 318.192155 148.629609 
C 320.181772 138.690641 324.904803 129.500914 331.828178 122.097635 
C 338.751553 114.694356 347.604617 109.36694 357.388162 106.716671 
C 367.171706 104.066403 377.503264 104.196888 387.216753 107.0934 
" style="fill:#0000ff;opacity:0.4;"/>
   </g>
   <g id="patch_7">
    <path clip-path="url(#p0ff0d2fd8a)" d="M 417.605832 130.031227 
C 414.526039 125.199328 410.703525 120.883133 406.279314 117.24188 
C 401.855103 113.600627 396.884282 110.679653 391.550239 108.586722 
C 390.835766 108.315953 390.117218 108.056058 389.394845 107.807127 
C 388.672472 107.558197 387.946358 107.320261 387.216753 107.0934 
C 377.503264 104.196888 367.171706 104.066403 357.388162 106.716671 
C 347.604617 109.36694 338.751553 114.694356 331.828178 122.097635 
C 324.904803 129.500914 320.181772 138.690641 318.192155 148.629609 
C 316.202537 158.568577 317.024113 168.868244 320.564154 178.366126 
C 324.104195 187.864008 330.224312 196.188808 338.23375 202.400938 
C 346.243188 208.613068 355.828837 212.469679 365.908803 213.53549 
C 375.988768 214.601302 386.168997 212.834648 395.300486 208.434924 
C 404.431975 204.035201 412.157749 197.174405 417.605832 188.626887 
C 412.567575 191.260216 406.934211 192.549937 401.252097 192.370965 
C 395.569984 192.191993 390.028951 190.550307 385.166404 187.605128 
C 380.303856 184.659949 376.282243 180.509672 373.491606 175.556815 
C 370.700969 170.603958 369.234539 165.013989 369.234539 159.329057 
C 369.234539 153.644125 370.700969 148.054156 373.491606 143.101299 
C 376.282243 138.148442 380.303856 133.998164 385.166404 131.052986 
C 390.028951 128.107807 395.569984 126.466121 401.252097 126.287149 
C 406.934211 126.108177 412.567575 127.397898 417.605832 130.031227 
" style="fill:#b200b2;opacity:0.4;"/>
   </g>
   <g id="patch_8">
    <path clip-path="url(#p0ff0d2fd8a)" d="M 417.605832 188.626887 
C 425.201039 184.657126 430.962666 177.885394 433.664846 169.752474 
C 436.367025 161.619554 435.803487 152.746272 432.09413 145.020546 
C 431.905206 144.647643 431.713184 144.276316 431.518084 143.906606 
C 431.322984 143.536895 431.124813 143.168814 430.923592 142.802399 
C 429.362899 140.098656 427.427052 137.629568 425.173812 135.468805 
C 422.920571 133.308042 420.37257 131.477308 417.605832 130.031227 
C 423.184497 138.783615 426.148959 148.949953 426.148959 159.329057 
C 426.148959 169.708161 423.184497 179.874499 417.605832 188.626887 
" style="fill:#0059b2;opacity:0.4;"/>
   </g>
   <g id="patch_9">
    <path clip-path="url(#p0ff0d2fd8a)" d="M 417.605832 188.626887 
C 423.184497 179.874499 426.148959 169.708161 426.148959 159.329057 
C 426.148959 148.949953 423.184497 138.783615 417.605832 130.031227 
C 412.567575 127.397898 406.934211 126.108177 401.252097 126.287149 
C 395.569984 126.466121 390.028951 128.107807 385.166404 131.052986 
C 380.303856 133.998164 376.282243 138.148442 373.491606 143.101299 
C 370.700969 148.054156 369.234539 153.644125 369.234539 159.329057 
C 369.234539 165.013989 370.700969 170.603958 373.491606 175.556815 
C 376.282243 180.509672 380.303856 184.659949 385.166404 187.605128 
C 390.028951 190.550307 395.569984 192.191993 401.252097 192.370965 
C 406.934211 192.549937 412.567575 191.260216 417.605832 188.626887 
" style="fill:#663366;opacity:0.4;"/>
   </g>
   <g id="text_9">
    <!-- 303 -->
    <defs>
     <path d="M 51.703125 34.421875 
Q 51.703125 24.515625 49.828125 17.75 
Q 47.953125 10.984375 44.703125 6.8125 
Q 41.453125 2.640625 37.0625 0.828125 
Q 32.671875 -0.984375 27.6875 -0.984375 
Q 22.65625 -0.984375 18.3125 0.828125 
Q 13.96875 2.640625 10.765625 6.78125 
Q 7.5625 10.9375 5.734375 17.703125 
Q 3.90625 24.46875 3.90625 34.421875 
Q 3.90625 44.828125 5.734375 51.640625 
Q 7.5625 58.453125 10.78125 62.5 
Q 14.015625 66.546875 18.40625 68.1875 
Q 22.796875 69.828125 27.984375 69.828125 
Q 32.90625 69.828125 37.21875 68.1875 
Q 41.546875 66.546875 44.765625 62.5 
Q 48 58.453125 49.84375 51.640625 
Q 51.703125 44.828125 51.703125 34.421875 
M 42.78125 34.421875 
Q 42.78125 42.625 41.796875 48.0625 
Q 40.828125 53.515625 38.921875 56.765625 
Q 37.015625 60.015625 34.25 61.359375 
Q 31.5 62.703125 27.984375 62.703125 
Q 24.265625 62.703125 21.4375 61.328125 
Q 18.609375 59.96875 16.671875 56.71875 
Q 14.75 53.46875 13.765625 48.015625 
Q 12.796875 42.578125 12.796875 34.421875 
Q 12.796875 26.515625 13.796875 21.09375 
Q 14.796875 15.671875 16.71875 12.375 
Q 18.65625 9.078125 21.4375 7.640625 
Q 24.21875 6.203125 27.78125 6.203125 
Q 31.25 6.203125 34.03125 7.640625 
Q 36.8125 9.078125 38.734375 12.375 
Q 40.671875 15.671875 41.71875 21.09375 
Q 42.78125 26.515625 42.78125 34.421875 
" id="LiberationSans-30"/>
    </defs>
    <g style="fill:#262626;" transform="translate(325.619471 207.612426)scale(0.096 -0.096)">
     <use xlink:href="#LiberationSans-33"/>
     <use x="55.615234" xlink:href="#LiberationSans-30"/>
     <use x="111.230469" xlink:href="#LiberationSans-33"/>
    </g>
   </g>
   <g id="text_10">
    <!-- 235 -->
    <g style="fill:#262626;" transform="translate(340.500656 167.74901)scale(0.096 -0.096)">
     <use xlink:href="#LiberationSans-32"/>
     <use x="55.615234" xlink:href="#LiberationSans-33"/>
     <use x="111.230469" xlink:href="#LiberationSans-35"/>
    </g>
   </g>
   <g id="text_11">
    <!-- 15 -->
    <g style="fill:#262626;" transform="translate(424.227954 162.425748)scale(0.096 -0.096)">
     <use xlink:href="#LiberationSans-31"/>
     <use x="55.615234" xlink:href="#LiberationSans-35"/>
    </g>
   </g>
   <g id="text_12">
    <!-- 113 -->
    <g style="fill:#262626;" transform="translate(389.683999 161.811557)scale(0.096 -0.096)">
     <use xlink:href="#LiberationSans-31"/>
     <use x="55.615234" xlink:href="#LiberationSans-31"/>
     <use x="111.230469" xlink:href="#LiberationSans-33"/>
    </g>
   </g>
   <g id="text_13">
    <!-- inhibited -->
    <defs>
     <path d="M 40.09375 8.5 
Q 37.640625 3.421875 33.609375 1.21875 
Q 29.59375 -0.984375 23.640625 -0.984375 
Q 13.625 -0.984375 8.90625 5.75 
Q 4.203125 12.5 4.203125 26.171875 
Q 4.203125 53.8125 23.640625 53.8125 
Q 29.640625 53.8125 33.640625 51.609375 
Q 37.640625 49.421875 40.09375 44.625 
L 40.1875 44.625 
Q 40.1875 45.125 40.15625 46.171875 
Q 40.140625 47.21875 40.109375 48.359375 
Q 40.09375 49.515625 40.09375 50.53125 
Q 40.09375 51.5625 40.09375 52 
L 40.09375 72.46875 
L 48.875 72.46875 
L 48.875 10.890625 
Q 48.875 8.984375 48.890625 7.21875 
Q 48.921875 5.46875 48.96875 4 
Q 49.03125 2.546875 49.078125 1.484375 
Q 49.125 0.4375 49.171875 0 
L 40.765625 0 
Q 40.671875 0.484375 40.59375 1.390625 
Q 40.53125 2.296875 40.453125 3.46875 
Q 40.375 4.640625 40.328125 5.9375 
Q 40.28125 7.234375 40.28125 8.5 
z
M 13.421875 26.46875 
Q 13.421875 21 14.109375 17.09375 
Q 14.796875 13.1875 16.3125 10.671875 
Q 17.828125 8.15625 20.171875 6.984375 
Q 22.515625 5.8125 25.875 5.8125 
Q 29.34375 5.8125 32 6.9375 
Q 34.671875 8.0625 36.453125 10.578125 
Q 38.234375 13.09375 39.15625 17.140625 
Q 40.09375 21.1875 40.09375 27.046875 
Q 40.09375 32.671875 39.15625 36.546875 
Q 38.234375 40.4375 36.421875 42.828125 
Q 34.625 45.21875 32 46.265625 
Q 29.390625 47.3125 25.984375 47.3125 
Q 22.75 47.3125 20.40625 46.1875 
Q 18.0625 45.0625 16.5 42.578125 
Q 14.9375 40.09375 14.171875 36.109375 
Q 13.421875 32.125 13.421875 26.46875 
" id="LiberationSans-64"/>
    </defs>
    <g style="fill:#262626;" transform="translate(301.47585 104.820451)scale(0.1152 -0.1152)">
     <use xlink:href="#LiberationSans-69"/>
     <use x="22.216797" xlink:href="#LiberationSans-6e"/>
     <use x="77.832031" xlink:href="#LiberationSans-68"/>
     <use x="133.447266" xlink:href="#LiberationSans-69"/>
     <use x="155.664062" xlink:href="#LiberationSans-62"/>
     <use x="211.279297" xlink:href="#LiberationSans-69"/>
     <use x="233.496094" xlink:href="#LiberationSans-74"/>
     <use x="261.279297" xlink:href="#LiberationSans-65"/>
     <use x="316.894531" xlink:href="#LiberationSans-64"/>
    </g>
   </g>
   <g id="text_14">
    <!-- activated -->
    <g style="fill:#262626;" transform="translate(418.82198 126.270763)scale(0.1152 -0.1152)">
     <use xlink:href="#LiberationSans-61"/>
     <use x="55.615234" xlink:href="#LiberationSans-63"/>
     <use x="105.615234" xlink:href="#LiberationSans-74"/>
     <use x="133.398438" xlink:href="#LiberationSans-69"/>
     <use x="155.615234" xlink:href="#LiberationSans-76"/>
     <use x="205.615234" xlink:href="#LiberationSans-61"/>
     <use x="261.230469" xlink:href="#LiberationSans-74"/>
     <use x="289.013672" xlink:href="#LiberationSans-65"/>
     <use x="344.628906" xlink:href="#LiberationSans-64"/>
    </g>
   </g>
   <g id="text_15">
    <!-- E. coli reactions -->
    <g style="fill:#262626;" transform="translate(324.171573 270.396272)scale(0.1152 -0.1152)">
     <use xlink:href="#LiberationSans-45"/>
     <use x="66.699219" xlink:href="#LiberationSans-2e"/>
     <use x="94.482422" xlink:href="#LiberationSans-20"/>
     <use x="122.265625" xlink:href="#LiberationSans-63"/>
     <use x="172.265625" xlink:href="#LiberationSans-6f"/>
     <use x="227.880859" xlink:href="#LiberationSans-6c"/>
     <use x="250.097656" xlink:href="#LiberationSans-69"/>
     <use x="272.314453" xlink:href="#LiberationSans-20"/>
     <use x="300.097656" xlink:href="#LiberationSans-72"/>
     <use x="333.398438" xlink:href="#LiberationSans-65"/>
     <use x="389.013672" xlink:href="#LiberationSans-61"/>
     <use x="444.628906" xlink:href="#LiberationSans-63"/>
     <use x="494.628906" xlink:href="#LiberationSans-74"/>
     <use x="522.412109" xlink:href="#LiberationSans-69"/>
     <use x="544.628906" xlink:href="#LiberationSans-6f"/>
     <use x="600.244141" xlink:href="#LiberationSans-6e"/>
     <use x="655.859375" xlink:href="#LiberationSans-73"/>
    </g>
   </g>
   <g id="text_16">
    <!-- b -->
    <g style="fill:#262626;" transform="translate(279.605455 108.371932)scale(0.2 -0.2)">
     <use xlink:href="#LiberationSans-62"/>
    </g>
   </g>
  </g>
 </g>
 <defs>
  <clipPath id="p796b412f53">
   <rect height="177.545455" width="177.545455" x="63" y="90.327273"/>
  </clipPath>
  <clipPath id="p0ff0d2fd8a">
   <rect height="177.545455" width="177.545455" x="276.054545" y="90.327273"/>
  </clipPath>
 </defs>
</svg>
