<?xml version="1.0" encoding="UTF-8" standalone="no"?>
<!-- Created with Inkscape (http://www.inkscape.org/) -->

<svg
   xmlns:dc="http://purl.org/dc/elements/1.1/"
   xmlns:cc="http://creativecommons.org/ns#"
   xmlns:rdf="http://www.w3.org/1999/02/22-rdf-syntax-ns#"
   xmlns:svg="http://www.w3.org/2000/svg"
   xmlns="http://www.w3.org/2000/svg"
   xmlns:sodipodi="http://sodipodi.sourceforge.net/DTD/sodipodi-0.dtd"
   xmlns:inkscape="http://www.inkscape.org/namespaces/inkscape"
   id="svg2"
   version="1.1"
   inkscape:version="0.91 r13725"
   xml:space="preserve"
   width="765"
   height="990"
   viewBox="0 0 765 990"
   sodipodi:docname="CCMBirdsEyeView.svg"><metadata
     id="metadata8"><rdf:RDF><cc:Work
         rdf:about=""><dc:format>image/svg+xml</dc:format><dc:type
           rdf:resource="http://purl.org/dc/dcmitype/StillImage" /><dc:title /></cc:Work></rdf:RDF></metadata><defs
     id="defs6"><marker
       inkscape:isstock="true"
       style="overflow:visible"
       id="marker5880"
       refX="0.0"
       refY="0.0"
       orient="auto"
       inkscape:stockid="TriangleOutS"><path
         transform="scale(0.2)"
         style="fill-rule:evenodd;stroke:#8a5ec9;stroke-width:1pt;stroke-opacity:1;fill:#8a5ec9;fill-opacity:1"
         d="M 5.77,0.0 L -2.88,5.0 L -2.88,-5.0 L 5.77,0.0 z "
         id="path5882" /></marker><marker
       inkscape:isstock="true"
       style="overflow:visible"
       id="marker5280"
       refX="0.0"
       refY="0.0"
       orient="auto"
       inkscape:stockid="TriangleOutS"><path
         transform="scale(0.2)"
         style="fill-rule:evenodd;stroke:#8a5ec9;stroke-width:1pt;stroke-opacity:1;fill:#8a5ec9;fill-opacity:1"
         d="M 5.77,0.0 L -2.88,5.0 L -2.88,-5.0 L 5.77,0.0 z "
         id="path5282" /></marker><marker
       inkscape:stockid="TriangleOutS"
       orient="auto"
       refY="0.0"
       refX="0.0"
       id="TriangleOutS"
       style="overflow:visible"
       inkscape:isstock="true"
       inkscape:collect="always"><path
         id="path4712"
         d="M 5.77,0.0 L -2.88,5.0 L -2.88,-5.0 L 5.77,0.0 z "
         style="fill-rule:evenodd;stroke:#8a5ec9;stroke-width:1pt;stroke-opacity:1;fill:#8a5ec9;fill-opacity:1"
         transform="scale(0.2)" /></marker><marker
       inkscape:stockid="TriangleOutM"
       orient="auto"
       refY="0.0"
       refX="0.0"
       id="TriangleOutM"
       style="overflow:visible"
       inkscape:isstock="true"><path
         id="path4709"
         d="M 5.77,0.0 L -2.88,5.0 L -2.88,-5.0 L 5.77,0.0 z "
         style="fill-rule:evenodd;stroke:#8a5ec9;stroke-width:1pt;stroke-opacity:1;fill:#8a5ec9;fill-opacity:1"
         transform="scale(0.4)" /></marker><marker
       inkscape:stockid="DiamondSstart"
       orient="auto"
       refY="0.0"
       refX="0.0"
       id="DiamondSstart"
       style="overflow:visible"
       inkscape:isstock="true"><path
         id="path4658"
         d="M 0,-7.0710768 L -7.0710894,0 L 0,7.0710589 L 7.0710462,0 L 0,-7.0710768 z "
         style="fill-rule:evenodd;stroke:#8a5ec9;stroke-width:1pt;stroke-opacity:1;fill:#8a5ec9;fill-opacity:1"
         transform="scale(0.2) translate(6,0)" /></marker></defs><sodipodi:namedview
     pagecolor="#ffffff"
     bordercolor="#666666"
     borderopacity="1"
     objecttolerance="10"
     gridtolerance="10"
     guidetolerance="10"
     inkscape:pageopacity="0"
     inkscape:pageshadow="2"
     inkscape:window-width="1865"
     inkscape:window-height="1176"
     id="namedview4"
     showgrid="false"
     inkscape:zoom="0.739248"
     inkscape:cx="167.8902"
     inkscape:cy="669.89743"
     inkscape:window-x="55"
     inkscape:window-y="24"
     inkscape:window-maximized="1"
     inkscape:current-layer="g10" /><g
     id="g10"
     inkscape:groupmode="layer"
     inkscape:label="CCMBirdsEyeView"
     transform="matrix(1.25,0,0,-1.25,0,990)"><rect
       style="opacity:1;fill:#f9f9f1;fill-opacity:1;stroke:none;stroke-width:3;stroke-linecap:square;stroke-linejoin:round;stroke-miterlimit:3.97728157;stroke-dasharray:none;stroke-dashoffset:0;stroke-opacity:1"
       id="rect4318"
       width="379.54785"
       height="735.83142"
       x="118.6087"
       y="-766.02374"
       transform="scale(1,-1)"
       rx="51.05162"
       ry="51.05162" /><path
       sodipodi:nodetypes="cc"
       inkscape:connector-curvature="0"
       id="path5878"
       d="m 168.7772,257.61031 c -1.83719,43.09649 31.37804,114.36819 119.9872,120.4779"
       style="fill:none;fill-rule:evenodd;stroke:#8a5ec9;stroke-width:5;stroke-linecap:butt;stroke-linejoin:miter;stroke-miterlimit:4;stroke-dasharray:none;stroke-opacity:1;marker-end:url(#marker5880)" /><path
       style="fill:none;fill-rule:evenodd;stroke:#8a5ec9;stroke-width:5;stroke-linecap:butt;stroke-linejoin:miter;stroke-miterlimit:4;stroke-dasharray:none;stroke-opacity:1;marker-end:url(#TriangleOutS)"
       d="M 308.19131,439.68111 C 256.37555,437.7843 211.95216,389.35893 263.5806,324.34216"
       id="path4912"
       inkscape:connector-curvature="0"
       sodipodi:nodetypes="cc" /><g
       transform="matrix(0,-1.19396,0.9655,0,-276.74082,704.01588)"
       id="g4556"
       style="stroke-width:4.65692234;stroke-miterlimit:4;stroke-dasharray:none" /><g
       transform="matrix(-0.96081,0,0,0.96081,763.91424,36.602843)"
       id="g4551"><path
         sodipodi:nodetypes="czc"
         inkscape:connector-curvature="0"
         id="path4553"
         style="fill:none;stroke:#8a5ec9;stroke-width:5.20410013;stroke-linecap:butt;stroke-linejoin:miter;stroke-miterlimit:4;stroke-dasharray:none;stroke-opacity:1"
         d="m 417.52311,682.16862 c -31.65283,-24.37714 -18.88439,-60.65137 -12.37073,-71.85773 6.51366,-11.20635 30.14987,-39.17846 65.81663,-43.80228" /></g><g
       id="g14"
       transform="matrix(0.96081,0,0,0.96081,0,36.794148)"><path
         d="m 179.14784,230.44025 c 33.3524,5.0602 99.9417,44.36994 106.1688,53.70364"
         style="fill:none;stroke:#939598;stroke-width:5.20410013;stroke-linecap:butt;stroke-linejoin:miter;stroke-miterlimit:4;stroke-dasharray:none;stroke-opacity:1"
         id="path16"
         inkscape:connector-curvature="0"
         sodipodi:nodetypes="cc" /></g><g
       id="g22"
       transform="matrix(0.96081,0,0,0.96081,0,36.794148)"><path
         d="m 179.05999,232.4815 c 0,0 43.97602,52.79901 104.19612,54.46691"
         style="fill:none;stroke:#939598;stroke-width:5.20410013;stroke-linecap:butt;stroke-linejoin:miter;stroke-miterlimit:4;stroke-dasharray:none;stroke-opacity:1"
         id="path24"
         inkscape:connector-curvature="0"
         sodipodi:nodetypes="cc" /></g><g
       id="g26"
       transform="matrix(0.96081,0,0,0.96081,0,36.794148)"><path
         d="m 274.9238,722.37775 -9e-4,-36.63088"
         style="fill:none;stroke:#f5821f;stroke-width:5.20410013;stroke-linecap:butt;stroke-linejoin:miter;stroke-miterlimit:4;stroke-dasharray:none;stroke-opacity:1"
         id="path28"
         inkscape:connector-curvature="0"
         sodipodi:nodetypes="cc" /></g><g
       id="g30"
       transform="matrix(1.39826,0,0,0.96081,0,36.794148)"><path
         d="m 189.38657,565.69871 27.34467,0"
         style="fill:none;stroke:#939598;stroke-width:5.20410013;stroke-linecap:butt;stroke-linejoin:miter;stroke-miterlimit:4;stroke-dasharray:none;stroke-opacity:1"
         id="path32"
         inkscape:connector-curvature="0"
         sodipodi:nodetypes="cc" /></g><g
       id="g34"
       transform="matrix(0.96081,0,0,1.30527,0,36.794148)"><path
         d="m 321.11094,261.67553 -0.0993,-28.46836"
         style="fill:none;stroke:#f5821f;stroke-width:5.20410013;stroke-linecap:butt;stroke-linejoin:miter;stroke-miterlimit:4;stroke-dasharray:none;stroke-opacity:1"
         id="path36"
         inkscape:connector-curvature="0"
         sodipodi:nodetypes="cc" /></g><g
       id="g38"
       transform="matrix(1.19396,0,0,0.9655,0,36.794148)"><path
         d="m 220.70899,595.00201 c 0.35434,-13.18267 18.14536,-25.61384 33.99085,-27.23613"
         style="fill:none;stroke:#8a5ec9;stroke-width:4.19469976;stroke-linecap:butt;stroke-linejoin:miter;stroke-miterlimit:4;stroke-dasharray:none;stroke-opacity:1"
         id="path40"
         inkscape:connector-curvature="0"
         sodipodi:nodetypes="cc" /></g><g
       id="g42"
       transform="matrix(1.19396,0,0,0.9655,0,36.794148)"><path
         d="m 220.6338,607.1692 0.32045,-43.76149"
         style="fill:none;stroke:#8a5ec9;stroke-width:4.19469976;stroke-linecap:butt;stroke-linejoin:miter;stroke-miterlimit:4;stroke-dasharray:none;stroke-opacity:1"
         id="path44"
         inkscape:connector-curvature="0"
         sodipodi:nodetypes="cc" /></g><path
       d="m 188.09631,241.64494 3.5654,3.4849 6.6563,-6.3399 4.53799,-3.67779 7.2553,-5.8886 7.5039,-5.6648 7.7176,-5.4422 7.8962,-5.2215 8.0407,-5.0017 8.1505,-4.7835 8.225,-4.5666 8.265,-4.3514 8.2703,-4.1378 8.2409,-3.9257 8.1763,-3.7162 8.0776,-3.5076 7.9432,-3.3009 7.7752,-3.0966 7.5716,-2.893 7.3335,-2.6927 7.0605,-2.4936 6.7533,-2.2963 6.4108,-2.1011 6.0347,-1.9077 5.6222,-1.7167 5.1764,-1.5267 4.6953,-1.3397 4.18,-1.1539 3.6294,-0.9709 3.0447,-0.7889 2.4254,-0.6097 1.7713,-0.432 1.0843,-0.2568 7.64608,-1.82705 -1.1236,-4.8246 -7.68808,1.83665 -1.1115,0.2637 -1.8037,0.4399 -2.4599,0.6182 -3.0815,0.7986 -3.668,0.981 -4.2203,1.1653 -4.7378,1.3516 -5.2211,1.5404 -5.6693,1.7308 -6.0835,1.923 -6.4629,2.1181 -6.8077,2.315 -7.1184,2.5141 -7.3942,2.7147 -7.6357,2.918 -7.8426,3.1232 -8.0152,3.331 -8.153,3.5405 -8.2568,3.7525 -8.3259,3.9665 -8.3605,4.1831 -8.3608,4.4019 -8.3265,4.6227 -8.2581,4.847 -8.1548,5.0726 -8.0175,5.3013 -7.8451,5.533 -7.6388,5.7668 -7.3976,6.0038 -4.68659,3.80869 z m -7.2579,10.736 13.7177,-4.5326 -9.1134,-9.161 z"
       style="fill:#f5821f;fill-opacity:1;fill-rule:nonzero;stroke:none"
       id="path46"
       inkscape:connector-curvature="0"
       sodipodi:nodetypes="ccccccccccccccccccccccccccccccccccccccccccccccccccccccccccccccccccccccc" /><path
       d="m 290.5563,163.19495 0.0782,4.1494 3e-4,0 2.2904,-0.034 2.2473,-0.0431 2.2025,-0.0505 2.1558,-0.0581 2.107,-0.0643 2.0562,-0.0709 2.0033,-0.0757 1.9488,-0.0808 1.8924,-0.0845 1.8337,-0.0881 1.7737,-0.0913 1.711,-0.093 1.6466,-0.0949 1.5806,-0.0958 1.5123,-0.0961 1.4422,-0.0958 1.3703,-0.095 1.2963,-0.0933 1.2206,-0.0915 1.1418,-0.0885 1.063,-0.0847 0.9811,-0.0811 0.8974,-0.076 0.8121,-0.0714 0.7237,-0.0649 0.635,-0.0584 0.5431,-0.0513 0.4493,-0.0434 0.3554,-0.0348 0.2574,-0.0264 0.1562,-0.0159 0.0601,-0.006 -0.6412,-4.1159 -0.0419,0.004 -0.1483,0.0153 -0.2449,0.0246 -0.3413,0.0338 -0.4374,0.0422 -0.5301,0.0502 -0.6207,0.0572 -0.7107,0.0638 -0.7968,0.0697 -0.8827,0.0749 -0.9663,0.0799 -1.0472,0.0836 -1.127,0.0873 -1.2042,0.0899 -1.2798,0.0921 -1.3533,0.0938 -1.4252,0.0947 -1.4947,0.095 -1.5625,0.0947 -1.6285,0.0938 -1.6923,0.0924 -1.7538,0.0901 -1.8139,0.0871 -1.872,0.0839 -1.9278,0.0796 -1.9823,0.0751 -2.0341,0.0698 -2.0843,0.0638 -2.1325,0.0575 -2.1788,0.0499 -2.2235,0.0425 -2.2654,0.034 3e-4,0 z m -113.2651,-16.7743 -1.8584,3.8557 2.7788,0.8872 2.9033,0.876 3.0214,0.864 3.1317,0.8509 3.2358,0.8368 3.3324,0.8215 3.422,0.8047 3.5039,0.7875 3.5796,0.7688 3.647,0.7483 3.708,0.7274 3.7613,0.7047 3.8072,0.6811 3.8464,0.6557 3.8772,0.6296 3.9016,0.602 3.918,0.5732 3.928,0.5434 3.93,0.5114 3.9242,0.4787 3.9124,0.4448 3.8923,0.4093 3.865,0.3731 3.831,0.335 3.7888,0.2957 3.7403,0.2548 3.6842,0.2135 3.621,0.1695 3.5504,0.1255 3.473,0.0791 3.3885,0.0318 3.297,-0.017 -0.0782,-4.1494 -3.2052,0.0165 -3.3034,-0.0312 -3.3948,-0.0774 -3.4773,-0.1227 -3.5529,-0.1667 -3.6196,-0.2095 -3.6796,-0.2509 -3.7316,-0.2911 -3.7754,-0.3299 -3.8123,-0.368 -3.8413,-0.4042 -3.8625,-0.4391 -3.8761,-0.4731 -3.8823,-0.5051 -3.8803,-0.5366 -3.8722,-0.5664 -3.8551,-0.5947 -3.8307,-0.6222 -3.7987,-0.6477 -3.7596,-0.6727 -3.7125,-0.6956 -3.6582,-0.7172 -3.5954,-0.7381 -3.5258,-0.7569 -3.4483,-0.7749 -3.363,-0.7912 -3.2701,-0.8062 -3.1688,-0.8192 -3.0609,-0.8317 -2.9443,-0.8419 -2.8194,-0.8509 -2.6875,-0.8578 z m -11.2399,-1.4624 8.7301,8.6596 3.4356,-10.4482 -12.1657,1.7886 z"
       style="fill:#f5821f;fill-opacity:1;fill-rule:nonzero;stroke:none"
       id="path48"
       inkscape:connector-curvature="0" /><g
       id="g50"
       transform="matrix(0.94558,0,0,0.93241,0,36.794148)"><path
         d="m 239.8311,190.07568 c 27.12708,-18.34016 80.23572,14.05562 86.38973,134.58905"
         style="fill:none;stroke:#f5821f;stroke-width:5.30870008;stroke-linecap:butt;stroke-linejoin:miter;stroke-miterlimit:4;stroke-dasharray:none;stroke-opacity:1"
         id="path52"
         inkscape:connector-curvature="0"
         sodipodi:nodetypes="cc" /></g><g
       id="g56"
       transform="matrix(0,-0.96081,0.96081,0,0,36.794148)" /><g
       id="g60"
       transform="matrix(0.9512,0,0,0.33167,0,36.794148)" /><g
       id="g64"
       transform="matrix(0.96081,0,0,1.47658,0,36.794148)" /><g
       id="g68"
       transform="matrix(0.96081,0.00144,0.00144,-0.96081,0,36.794148)"><path
         id="path70"
         style="fill:none;stroke:#8a5ec9;stroke-width:5.20410013;stroke-linecap:butt;stroke-linejoin:miter;stroke-miterlimit:4;stroke-dasharray:none;stroke-opacity:1"
         d="m 419.55888,-608.86696 c 0,0 -15.51962,15.71764 -35.72569,16.27771 -20.20607,0.56007 -53.57222,1.04595 -58.73849,-1.40675 -3.7071,-1.7598 -5.4899,-4.75384 -5.6777,-13.29245 -0.1878,-8.53861 0.10466,-32.02786 0.003,-36.23937 -0.10166,-4.21151 3.36046,-21.13818 -43.02808,-37.22586"
         inkscape:connector-curvature="0"
         sodipodi:nodetypes="czczzc" /></g><g
       id="g72"
       transform="matrix(-0.96081,0,0,0.96081,0,36.794148)"><path
         d="m -370.99631,609.63853 c 0,0 1.68588,-17.22419 28.93836,-16.776 27.25248,0.44818 24.73283,-18.25134 20.40105,-25.60494"
         style="fill:none;stroke:#8a5ec9;stroke-width:5.20410013;stroke-linecap:butt;stroke-linejoin:miter;stroke-miterlimit:4;stroke-dasharray:none;stroke-opacity:1"
         id="path74"
         inkscape:connector-curvature="0"
         sodipodi:nodetypes="czc" /></g><g
       id="g76"
       transform="matrix(-0.96081,0,0,-0.96081,0,36.794148)" /><g
       id="g80"
       transform="matrix(1.14289,0,0,1.14289,0,36.794148)"><path
         d="M 352.79733,572.93201 376.9394,542.70795"
         style="fill:none;stroke:#f5821f;stroke-width:4.375;stroke-linecap:butt;stroke-linejoin:miter;stroke-miterlimit:4;stroke-dasharray:none;stroke-opacity:1"
         id="path82"
         inkscape:connector-curvature="0"
         sodipodi:nodetypes="cc" /></g><g
       id="g84"
       transform="matrix(-1.08212,0,0,1.08212,0,36.794148)"><path
         d="m -399.42583,571.98005 27.16707,-30.01234"
         style="fill:none;stroke:#939598;stroke-width:4.62050009;stroke-linecap:butt;stroke-linejoin:miter;stroke-miterlimit:4;stroke-dasharray:none;stroke-opacity:1"
         id="path86"
         inkscape:connector-curvature="0"
         sodipodi:nodetypes="cc" /></g><g
       id="g88"
       transform="matrix(0.94159,0,0,0.22262,0,36.794148)"><path
         d="m 459.47181,2790.7448 c -0.60142,109.9171 1.94482,221.6496 -6.47149,327.0594"
         style="fill:none;stroke:#f5821f;stroke-width:5.31069994;stroke-linecap:butt;stroke-linejoin:miter;stroke-miterlimit:4;stroke-dasharray:none;stroke-opacity:1"
         id="path90"
         inkscape:connector-curvature="0"
         sodipodi:nodetypes="cc" /></g><g
       id="g92"
       transform="matrix(0.96081,0,0,0.96081,0,36.794148)"><path
         d="m 367.5708,679.4583 c 0,0 -13.2849,-11.4922 -12.9016,-30.1033"
         style="fill:none;stroke:#939598;stroke-width:5.20410013;stroke-linecap:butt;stroke-linejoin:miter;stroke-miterlimit:4;stroke-dasharray:none;stroke-opacity:1"
         id="path94"
         inkscape:connector-curvature="0" /></g><g
       id="g96"
       transform="matrix(0.96081,0,0,0.96081,0,36.794148)"><path
         d="m 417.52311,682.16862 c -0.60913,-0.9137 -38.98868,-34.11409 -2.30416,-70.06443"
         style="fill:none;stroke:#8a5ec9;stroke-width:5.20410013;stroke-linecap:butt;stroke-linejoin:miter;stroke-miterlimit:4;stroke-dasharray:none;stroke-opacity:1"
         id="path98"
         inkscape:connector-curvature="0"
         sodipodi:nodetypes="cc" /></g><g
       id="g100"
       transform="matrix(-0.96081,0,0,0.96081,0,36.794148)" /><g
       id="g104"
       transform="matrix(-1.10917,0,0,-0.96081,0,36.794148)" /><g
       id="g108"
       transform="matrix(0,0.40203,-0.96081,0,0,36.794148)"
       style="fill:none;fill-opacity:1;stroke:#8a5ec9;stroke-width:8.04492569;stroke-miterlimit:4;stroke-dasharray:none;stroke-opacity:1" /><g
       id="g112"
       transform="matrix(-0.96081,0,0,0.96081,0,36.794148)" /><g
       id="g116"
       transform="matrix(0.96081,0,0,-0.96081,0,36.794148)"><path
         d="m 371.97654,-610.79751 c 0,0 -17.69654,-20.32249 -17.31334,-38.93329"
         style="fill:none;stroke:#939598;stroke-width:5.20410013;stroke-linecap:butt;stroke-linejoin:miter;stroke-miterlimit:4;stroke-dasharray:none;stroke-opacity:1"
         id="path118"
         inkscape:connector-curvature="0"
         sodipodi:nodetypes="cc" /></g><g
       id="g120"
       transform="matrix(-1.07652,0,0,-1.07652,0,36.794148)"><path
         id="path122"
         style="fill:none;stroke:#939598;stroke-width:4.64459991;stroke-linecap:butt;stroke-linejoin:miter;stroke-miterlimit:4;stroke-dasharray:none;stroke-opacity:1"
         d="m -286.2169,-506.35478 c -20.75949,-14.58775 -30.67476,-48.52748 -30.37345,-70.10037 0.30131,-21.57289 33.60374,-35.67844 68.4916,-34.43487"
         inkscape:connector-curvature="0"
         sodipodi:nodetypes="czc" /></g><g
       id="g124"
       transform="matrix(0.96081,0,0,0.96081,0,36.794148)"><path
         d="m 214.9078,45.0184 c 0,0 72.2971,-51.999 150.0001,0.6673"
         style="fill:none;stroke:#939598;stroke-width:5.20410013;stroke-linecap:butt;stroke-linejoin:miter;stroke-miterlimit:4;stroke-dasharray:none;stroke-opacity:1"
         id="path126"
         inkscape:connector-curvature="0" /></g><g
       id="g128"
       transform="matrix(0.96081,0,0,0.96081,0,36.794148)"><path
         d="m 163.47351,108.8824 c 2.138,-19.398535 16.08123,-43.470673 40.32447,-57.798292"
         style="fill:none;stroke:#f5821f;stroke-width:5.20410013;stroke-linecap:butt;stroke-linejoin:miter;stroke-miterlimit:4;stroke-dasharray:none;stroke-opacity:1"
         id="path130"
         inkscape:connector-curvature="0"
         sodipodi:nodetypes="cc" /></g><g
       id="g132"
       transform="matrix(0.96081,0,0,0.96081,0,36.794148)"><path
         d="M 401.54671,227.59549 323.0763,313.75481"
         style="fill:none;stroke:#8a5ec9;stroke-width:5.20410013;stroke-linecap:butt;stroke-linejoin:miter;stroke-miterlimit:4;stroke-dasharray:none;stroke-opacity:1"
         id="path134"
         inkscape:connector-curvature="0"
         sodipodi:nodetypes="cc" /></g><g
       id="g136"
       transform="matrix(0.97713,0,0,0.96081,0,36.794148)"><path
         d="m 286.63201,286.35277 c 0,0 72.51601,-17.17717 108.19803,-59.11049"
         style="fill:none;stroke:#8a5ec9;stroke-width:5.11709976;stroke-linecap:butt;stroke-linejoin:miter;stroke-miterlimit:4;stroke-dasharray:none;stroke-opacity:1"
         id="path138"
         inkscape:connector-curvature="0"
         sodipodi:nodetypes="cc" /></g><g
       id="g142"
       transform="matrix(0.96081,0,0,0.96081,0,36.794148)"><path
         d="m 157.78639,166.89117 c -2.51488,-5.17065 -5.24477,-40.80629 4.47593,-54.75836"
         style="fill:none;stroke:#939598;stroke-width:5.20410013;stroke-linecap:butt;stroke-linejoin:miter;stroke-miterlimit:4;stroke-dasharray:none;stroke-opacity:1"
         id="path144"
         inkscape:connector-curvature="0"
         sodipodi:nodetypes="cc" /></g><g
       id="g146"
       transform="matrix(0.96081,0,0,0.96081,0,36.794148)"><path
         d="M 175.66912,227.49784 C 164.99417,207.08144 159.96186,195.18696 157.88063,169.5009"
         style="fill:none;stroke:#f5821f;stroke-width:5.20410013;stroke-linecap:butt;stroke-linejoin:miter;stroke-miterlimit:4;stroke-dasharray:none;stroke-opacity:1"
         id="path148"
         inkscape:connector-curvature="0"
         sodipodi:nodetypes="cc" /></g><g
       id="g150"
       transform="matrix(0.9605,0.02439,-0.02439,0.9605,0,36.794148)"><path
         d="m 369.37673,37.49699 c 25.80129,18.681091 35.76322,35.773074 47.4616,64.38543"
         style="fill:none;stroke:#f5821f;stroke-width:5.20410013;stroke-linecap:butt;stroke-linejoin:miter;stroke-miterlimit:4;stroke-dasharray:none;stroke-opacity:1"
         id="path152"
         inkscape:connector-curvature="0"
         sodipodi:nodetypes="cc" /></g><path
       d="m 410.53791,325.54075 -21.63271,0.0474 -0.1429,4.9833 21.63271,-0.0473 z m 12.6751,2.4679 -12.9282,-6.4338 0.0243,12.9161 z"
       style="fill:#939598;fill-opacity:1;fill-rule:nonzero;stroke:none"
       id="path154"
       inkscape:connector-curvature="0"
       sodipodi:nodetypes="ccccccccc" /><path
       d="m 358.2017,330.56295 0.3152,-4.9901 -2.0557,-0.0907 -2.0058,-0.0136 -1.9547,0.0598 -1.9021,0.1275 -1.8482,0.1911 -1.7929,0.2492 -1.7371,0.3027 -1.6803,0.3509 -1.6217,0.3946 -1.5633,0.4331 -1.503,0.4669 -1.4422,0.4952 -1.3808,0.519 -1.3187,0.5386 -1.2543,0.5519 -1.1911,0.5613 -1.1259,0.5658 -1.0608,0.5649 -0.9941,0.5602 -0.9269,0.5493 -0.8595,0.5352 -0.7903,0.515 -0.7211,0.4907 -0.6511,0.4615 -0.58,0.4275 -0.5085,0.3886 -0.4363,0.3455 -0.3634,0.2977 -0.2885,0.2443 -0.2121,0.1846 -0.1363,0.1224 -0.072,0.0663 3.4208,3.6465 0.003,-0.003 0.0887,-0.0793 0.1616,-0.1409 0.2308,-0.1956 0.3004,-0.2461 0.3711,-0.2939 0.4399,-0.3365 0.5074,-0.3742 0.5746,-0.407 0.6406,-0.4363 0.7053,-0.4595 0.7693,-0.479 0.8328,-0.4938 0.8949,-0.504 0.9559,-0.5094 1.0165,-0.5108 1.0755,-0.5068 1.1341,-0.4992 1.1911,-0.4864 1.2481,-0.4692 1.3039,-0.4481 1.3584,-0.4221 1.4125,-0.3912 1.4658,-0.3566 1.5182,-0.3175 1.5699,-0.2732 1.6211,-0.2254 1.6713,-0.1729 1.7212,-0.1156 1.7705,-0.0542 1.8193,0.0119 1.8686,0.0828 z m 12.9223,-1.6886 -12.5257,-7.2845 -0.8173,12.9345 13.343,-5.65 z"
       style="fill:#00aeef;fill-opacity:1;fill-rule:nonzero;stroke:none"
       id="path156"
       inkscape:connector-curvature="0" /><path
       d="m 319.1335,343.91445 11.6793,8.5773 2.19,-12.7743 -13.8693,4.197 z m 110.3737,-8.445 -3.6567,-3.4101 -1.5318,1.4564 -1.804,1.3785 -2.0659,1.2969 -2.3108,1.2104 -2.5376,1.1199 -2.7445,1.029 -2.931,0.9369 -3.0971,0.8472 -3.2443,0.7586 -3.3706,0.6729 -3.4782,0.5908 -3.5662,0.5111 -3.6355,0.4356 -3.6853,0.3637 -3.7165,0.2963 -3.7295,0.2321 -3.7233,0.1721 -3.6984,0.1162 -3.6558,0.0646 -3.5944,0.0173 -3.5141,-0.0263 -3.416,-0.0655 -3.2998,-0.1004 -3.1638,-0.1309 -3.0107,-0.1576 -2.8383,-0.18 -2.6475,-0.1973 -2.437,-0.2112 -2.2079,-0.2203 -1.9579,-0.2242 -1.6863,-0.2239 -1.3881,-0.2169 -0.8448,4.9283 1.5231,0.2379 1.7855,0.2369 2.0379,0.2339 2.2765,0.2271 2.4987,0.2162 2.7048,0.2019 2.8933,0.1834 3.0652,0.1604 3.2187,0.1332 3.3548,0.1021 3.4733,0.0666 3.5742,0.0264 3.6567,-0.0173 3.7227,-0.0658 3.7698,-0.1185 3.7999,-0.176 3.8123,-0.2373 3.8066,-0.303 3.7846,-0.3739 3.7442,-0.4487 3.6871,-0.5287 3.6124,-0.6134 3.5215,-0.703 3.4138,-0.7988 3.2893,-0.8994 3.1487,-1.0072 2.9923,-1.1219 2.8199,-1.2453 2.6311,-1.3787 2.4248,-1.5237 2.1991,-1.6823 1.9468,-1.8533 z"
       style="fill:#f5821f;fill-opacity:1;fill-rule:nonzero;stroke:none"
       id="path158"
       inkscape:connector-curvature="0" /><g
       id="g160"
       transform="matrix(1.44189,0,0,0.96081,0,36.794148)"><path
         d="m 188.735,722.6861 43.6725,0"
         style="fill:none;stroke:#8a5ec9;stroke-width:5.20410013;stroke-linecap:butt;stroke-linejoin:miter;stroke-miterlimit:4;stroke-dasharray:none;stroke-opacity:1"
         id="path162"
         inkscape:connector-curvature="0" /></g><g
       id="g164"
       transform="matrix(1.47582,0,0,-0.99389,0,36.794148)"><path
         d="m 237.1252,-698.8802 45.5706,0"
         style="fill:none;stroke:#939598;stroke-width:5.20410013;stroke-linecap:butt;stroke-linejoin:miter;stroke-miterlimit:4;stroke-dasharray:none;stroke-opacity:1"
         id="path166"
         inkscape:connector-curvature="0" /></g><path
       d="m 342.53042,740.12796 c 5.32961,0 9.65029,-4.06653 9.65029,-9.08258 0,-5.01644 -4.32068,-9.08284 -9.65029,-9.08284 -5.32974,0 -9.65043,4.0664 -9.65043,9.08284 0,5.01605 4.32069,9.08258 9.65043,9.08258 z"
       style="fill:#939598;fill-opacity:1;fill-rule:evenodd;stroke:#f9f9f1;stroke-width:3.12000012;stroke-linecap:butt;stroke-linejoin:miter;stroke-miterlimit:22.92558479;stroke-dasharray:none;stroke-opacity:1"
       id="path170"
       inkscape:connector-curvature="0" /><path
       d="m 266.34214,635.56411 -2.9387,14.1879 12.5257,-3.3242 -9.587,-10.8637 z m 1.1335,44.8492 3.6641,3.4021 0.8416,-1.0327 0.7129,-1.1239 0.595,-1.1968 0.491,-1.2572 0.3994,-1.3096 0.3177,-1.3555 0.2455,-1.3952 0.1806,-1.4295 0.1225,-1.4582 0.0688,-1.4808 0.0216,-1.4964 -0.0213,-1.506 -0.0598,-1.5083 -0.0938,-1.5035 -0.1239,-1.4919 -0.1491,-1.4718 -0.1712,-1.4451 -0.1888,-1.4102 -0.2024,-1.3677 -0.212,-1.3167 -0.2177,-1.2592 -0.2197,-1.1931 -0.2174,-1.1179 -0.2115,-1.0367 -0.2015,-0.9462 -0.188,-0.8481 -0.1701,-0.7415 -0.1485,-0.6271 -0.123,-0.504 -0.0933,-0.3736 -0.0601,-0.2347 -0.0243,-0.0921 -4.8325,1.2824 0.0153,0.0592 0.0538,0.2092 0.0865,0.3458 0.1156,0.4746 0.1406,0.5941 0.1622,0.7064 0.1794,0.8101 0.193,0.9054 0.2024,0.9924 0.2084,1.0721 0.2106,1.1415 0.2081,1.2036 0.2024,1.2572 0.1927,1.3019 0.1792,1.3383 0.1615,1.3657 0.1406,1.385 0.116,1.3949 0.087,1.3964 0.0553,1.3881 0.0195,1.3711 -0.0192,1.3451 -0.061,1.3079 -0.1054,1.2619 -0.1523,1.2056 -0.2001,1.1384 -0.248,1.0602 -0.2957,0.9717 -0.3401,0.8733 -0.3802,0.7665 -0.4141,0.6557 -0.4448,0.5474 z"
       style="fill:#8a5ec9;fill-opacity:1;fill-rule:nonzero;stroke:none"
       id="path172"
       inkscape:connector-curvature="0" /><path
       d="m 260.47736,683.33885 3.1444,-14.1437 -12.5728,3.1419 9.4284,11.0018 z m 0.0331,-42.5809 -3.664,-3.4021 -0.8272,1.0017 -0.7129,1.0843 -0.6063,1.1494 -0.5106,1.2042 -0.4249,1.2498 -0.3486,1.2895 -0.2798,1.3238 -0.218,1.3524 -0.1613,1.3748 -0.1108,1.3918 -0.0649,1.4031 -0.0233,1.4091 0.0142,1.4077 0.0471,1.4006 0.0768,1.3867 0.102,1.3666 0.1245,1.3394 0.1423,1.3048 0.1564,1.2642 0.1678,1.2161 0.1749,1.161 0.1786,1.0996 0.1789,1.0295 0.1752,0.9536 0.1683,0.87 0.1579,0.7792 0.1438,0.682 0.1264,0.5763 0.1049,0.4632 0.0802,0.3436 0.0513,0.214 0.0221,0.0893 4.8506,-1.2121 -0.0119,-0.0491 -0.0456,-0.1907 -0.0734,-0.3135 -0.0975,-0.4309 -0.1185,-0.54 -0.1358,-0.6429 -0.1494,-0.7384 -0.1599,-0.8258 -0.1666,-0.9065 -0.1698,-0.9791 -0.1701,-1.044 -0.1658,-1.1015 -0.1588,-1.1515 -0.1479,-1.1933 -0.1338,-1.2289 -0.1165,-1.2549 -0.0953,-1.2736 -0.0711,-1.2846 -0.0437,-1.2878 -0.013,-1.2824 0.0209,-1.2685 0.0576,-1.2467 0.0967,-1.216 0.138,-1.1759 0.1811,-1.1273 0.226,-1.0692 0.2704,-1.0026 0.3143,-0.9267 0.3564,-0.8419 0.3954,-0.7514 0.4306,-0.6568 0.4654,-0.5647 z"
       style="fill:#8a5ec9;fill-opacity:1;fill-rule:nonzero;stroke:none"
       id="path174"
       inkscape:connector-curvature="0" /><g
       id="g176"
       transform="matrix(0.9512,0,0,0.58237,0,36.794148)" /><g
       id="g180"
       transform="matrix(-0.96081,0,0,0.96081,0,34.498495)"><path
         d="m -494.76849,646.93005 c -1.20361,-63.60538 3.65724,-81.57374 55.82839,-80.57805"
         style="fill:none;stroke:#939598;stroke-width:5.20410013;stroke-linecap:butt;stroke-linejoin:miter;stroke-miterlimit:4;stroke-dasharray:none;stroke-opacity:1"
         id="path182"
         inkscape:connector-curvature="0"
         sodipodi:nodetypes="cc" /></g><path
       d="m 329.4624,394.64665 4.2998,0.2902 4.0145,0.4318 3.7389,0.5629 3.4733,0.6829 3.2167,0.7917 2.9701,0.8898 2.7332,0.9768 2.507,1.0531 2.2904,1.1183 2.0846,1.1735 1.8898,1.2189 1.7059,1.2538 1.5319,1.2795 1.3694,1.2963 1.2169,1.3037 1.0743,1.3028 0.9417,1.2928 0.8186,1.2742 0.7044,1.2473 0.5993,1.2109 0.5026,1.1659 0.4147,1.1112 0.3347,1.0468 0.264,0.9737 0.2009,0.8895 0.1469,0.7966 0.1009,0.6919 0.0632,0.578 0.0346,0.4552 0.0141,0.3212 0.003,0.182 -3e-4,-0.006 4.9986,0.1316 10e-4,-0.1729 -0.005,-0.3056 -0.0215,-0.4657 -0.0471,-0.6112 -0.0819,-0.7475 -0.1276,-0.8722 -0.1819,-0.9859 -0.2469,-1.0902 -0.3212,-1.1835 -0.4056,-1.2668 -0.5004,-1.3391 -0.604,-1.4 -0.7183,-1.4508 -0.8416,-1.4893 -0.9746,-1.5168 -1.1168,-1.5327 -1.2677,-1.5364 -1.4272,-1.5287 -1.5945,-1.5089 -1.7705,-1.4785 -1.9537,-1.4358 -2.1444,-1.3827 -2.3431,-1.3187 -2.5489,-1.2447 -2.7627,-1.1602 -2.9837,-1.0664 -3.2139,-0.9629 -3.4521,-0.8496 -3.6983,-0.7271 -3.9538,-0.5952 -4.2185,-0.4539 -4.4904,-0.3027 -0.242,4.9941 z m -12.6542,-3.1159 12.6315,7.0997 0.627,-12.945 -13.2585,5.8453 z"
       style="fill:#939598;fill-opacity:1;fill-rule:nonzero;stroke:none"
       id="path184"
       inkscape:connector-curvature="0" /><g
       id="g186"
       transform="matrix(0.94159,0,0,0.21654,0,36.794148)"><path
         d="m 400.6216,1781.1079 0,730.586"
         style="fill:none;stroke:#939598;stroke-width:5.31069994;stroke-linecap:butt;stroke-linejoin:miter;stroke-miterlimit:4;stroke-dasharray:none;stroke-opacity:1"
         id="path188"
         inkscape:connector-curvature="0" /></g><path
       d="m 475.06,665.77625 -6.4797,12.9591 12.9594,0 -6.4797,-12.9591 z m 2.4998,36.6185 0,-23.8295 -4.9997,0 0,23.8295 4.9997,0 z"
       style="fill:#f5821f;fill-opacity:1;fill-rule:nonzero;stroke:none"
       id="path190"
       inkscape:connector-curvature="0" /><g
       id="g192"
       transform="matrix(-1.31545,0,0,0.96442,0,36.794148)"><path
         d="m -331.1702,720.1528 c 0,0 -30.2284,0.8677 -29.9673,-30.7443"
         style="fill:none;stroke:#f5821f;stroke-width:3.80100012;stroke-linecap:butt;stroke-linejoin:miter;stroke-miterlimit:4;stroke-dasharray:none;stroke-opacity:1"
         id="path194"
         inkscape:connector-curvature="0" /></g><path
       d="m 320.97805,578.62859 12.8962,6.4519 0.003,-12.8976 -12.8993,6.4457 z m 100.76765,-2.4625 -88.03015,-0.0224 -0.0182,4.976 88.03015,0.0224 z"
       style="fill:#939598;fill-opacity:1;fill-rule:nonzero;stroke:none"
       id="path196"
       inkscape:connector-curvature="0"
       sodipodi:nodetypes="cccccccccc" /><g
       id="g198"
       transform="matrix(0.96081,0,0,0.81777,0,36.794148)"><path
         d="m 321.02609,665.40054 -0.001,-41.4376"
         style="fill:none;stroke:#939598;stroke-width:5.20410013;stroke-linecap:butt;stroke-linejoin:miter;stroke-miterlimit:4;stroke-dasharray:none;stroke-opacity:1"
         id="path200"
         inkscape:connector-curvature="0"
         sodipodi:nodetypes="cc" /></g><path
       d="m 308.6362,545.24606 0,-35.71775 z"
       style="fill:#ff6600;fill-opacity:1;fill-rule:evenodd;stroke:#939598;stroke-width:5;stroke-linecap:butt;stroke-linejoin:miter;stroke-miterlimit:22.92558479;stroke-dasharray:none;stroke-opacity:1"
       id="path202"
       inkscape:connector-curvature="0"
       sodipodi:nodetypes="ccc" /><path
       d="m 308.6362,508.48164 0,-34.72979 z"
       style="fill:#ff6600;fill-opacity:1;fill-rule:evenodd;stroke:#939598;stroke-width:5;stroke-linecap:butt;stroke-linejoin:miter;stroke-miterlimit:22.92558479;stroke-dasharray:none;stroke-opacity:1"
       id="path204"
       inkscape:connector-curvature="0"
       sodipodi:nodetypes="ccc" /><path
       d="m 308.6362,472.8303 0,-31.66892 z"
       style="fill:#ff6600;fill-opacity:1;fill-rule:evenodd;stroke:#939598;stroke-width:5;stroke-linecap:butt;stroke-linejoin:miter;stroke-miterlimit:22.92558479;stroke-dasharray:none;stroke-opacity:1"
       id="path206"
       inkscape:connector-curvature="0"
       sodipodi:nodetypes="ccc" /><path
       d="m 310.80617,390.22664 -2.4463,14.156 12.3032,-3.7052 -9.8569,-10.4508 z m 0.8711,37.1979 3.664,3.036 0.7943,-0.8578 0.6829,-0.9261 0.5785,-0.9791 0.4853,-1.023 0.4014,-1.0599 0.3263,-1.091 0.2585,-1.1174 0.1984,-1.1387 0.1434,-1.156 0.0942,-1.1687 0.0496,-1.1772 0.009,-1.1798 -0.0266,-1.1778 -0.0587,-1.1707 -0.0873,-1.1585 -0.1111,-1.1407 -0.1324,-1.1171 -0.1494,-1.088 -0.1633,-1.0536 -0.1729,-1.0128 -0.1794,-0.9669 -0.1823,-0.9153 -0.1822,-0.8572 -0.178,-0.7929 -0.1704,-0.7242 -0.1596,-0.648 -0.1446,-0.5664 -0.1275,-0.4808 -0.106,-0.3858 -0.0803,-0.2848 -0.0516,-0.1792 -0.0226,-0.0757 -4.8286,1.1577 0.0114,0.0388 0.0453,0.1565 0.0734,0.2599 0.0976,0.3552 0.1179,0.4456 0.136,0.5324 0.1506,0.6106 0.1607,0.6834 0.1684,0.7503 0.172,0.8102 0.1727,0.8642 0.1692,0.912 0.1627,0.9538 0.1531,0.989 0.1397,1.0177 0.1233,1.0394 0.1032,1.0556 0.0799,1.0645 0.0536,1.0669 0.0244,1.0627 -0.008,1.0511 -0.0434,1.0327 -0.0811,1.0071 -0.1207,0.974 -0.1622,0.9335 -0.2046,0.8849 -0.2475,0.8286 -0.2891,0.7662 -0.3294,0.6959 -0.3666,0.6214 -0.3999,0.5439 -0.4337,0.4694 z"
       style="fill:#8a5ec9;fill-opacity:1;fill-rule:nonzero;stroke:none"
       id="path210"
       inkscape:connector-curvature="0" /><path
       d="m 304.88659,431.07227 2.7244,-14.1211 -12.3866,3.4688 9.6622,10.6523 z m -0.3529,-37.7632 -3.6641,-3.0359 -0.7957,0.8603 -0.6848,0.9295 -0.582,0.9842 -0.4895,1.0298 -0.4071,1.0681 -0.3333,1.101 -0.2676,1.1293 -0.2081,1.1529 -0.1542,1.1713 -0.1057,1.1854 -0.0618,1.1948 -0.0221,1.1988 0.0133,1.1976 0.0448,1.1914 0.0731,1.1795 0.0975,1.1617 0.1182,1.1389 0.1358,1.1095 0.1491,1.0746 0.1599,1.0338 0.1667,0.987 0.1701,0.934 0.1703,0.8754 0.167,0.8101 0.1601,0.7396 0.1506,0.6627 0.1369,0.5794 0.1204,0.4896 0.0998,0.394 0.0768,0.2934 0.0491,0.1822 0.021,0.076 4.8506,-1.0817 -0.0113,-0.0414 -0.0434,-0.1613 -0.0695,-0.2644 -0.0924,-0.3651 -0.1125,-0.4584 -0.129,-0.5448 -0.142,-0.6254 -0.1516,-0.7004 -0.1585,-0.7682 -0.1613,-0.83 -0.1616,-0.8852 -0.1576,-0.9338 -0.1508,-0.9759 -0.1406,-1.0117 -0.1273,-1.0409 -0.1102,-1.0636 -0.0907,-1.0794 -0.0675,-1.0882 -0.0414,-1.0905 -0.0122,-1.0859 0.0199,-1.0741 0.0544,-1.0548 0.0916,-1.0278 0.1309,-0.9944 0.1712,-0.9516 0.2138,-0.9025 0.2551,-0.8448 0.2965,-0.7789 0.3353,-0.7073 0.3711,-0.6293 0.4031,-0.5485 0.4334,-0.4697 z"
       style="fill:#f5821f;fill-opacity:1;fill-rule:nonzero;stroke:none"
       id="path212"
       inkscape:connector-curvature="0" /><path
       d="m 357.59249,631.51816 c 5.32974,0 9.65042,-4.0664 9.65042,-9.08245 0,-5.01644 -4.32068,-9.08297 -9.65042,-9.08297 -5.32961,0 -9.65029,4.06653 -9.65029,9.08297 0,5.01605 4.32068,9.08245 9.65029,9.08245 z"
       style="fill:#939598;fill-opacity:1;fill-rule:evenodd;stroke:#f9f9f1;stroke-width:3.12000012;stroke-linecap:butt;stroke-linejoin:miter;stroke-miterlimit:22.92558479;stroke-dasharray:none;stroke-opacity:1"
       id="path216"
       inkscape:connector-curvature="0" /><path
       d="m 361.19248,703.51816 c 5.32974,0 9.65043,-4.0664 9.65043,-9.08245 0,-5.01644 -4.32069,-9.08297 -9.65043,-9.08297 -5.32961,0 -9.65029,4.06653 -9.65029,9.08297 0,5.01605 4.32068,9.08245 9.65029,9.08245 z"
       style="fill:#939598;fill-opacity:1;fill-rule:evenodd;stroke:#f9f9f1;stroke-width:3.12000012;stroke-linecap:butt;stroke-linejoin:miter;stroke-miterlimit:22.92558479;stroke-dasharray:none;stroke-opacity:1"
       id="path218"
       inkscape:connector-curvature="0" /><path
       d="m 402.95249,701.35816 c 5.32974,0 9.65042,-4.0664 9.65042,-9.08245 0,-5.01644 -4.32068,-9.08297 -9.65042,-9.08297 -5.32961,0 -9.65029,4.06653 -9.65029,9.08297 0,5.01605 4.32068,9.08245 9.65029,9.08245 z"
       style="fill:#939598;fill-opacity:1;fill-rule:evenodd;stroke:#f9f9f1;stroke-width:3.12000012;stroke-linecap:butt;stroke-linejoin:miter;stroke-miterlimit:22.92558479;stroke-dasharray:none;stroke-opacity:1"
       id="path220"
       inkscape:connector-curvature="0" /><path
       d="m 401.51249,632.23816 c 5.32974,0 9.65041,-4.0664 9.65041,-9.08245 0,-5.01644 -4.32067,-9.08297 -9.65041,-9.08297 -5.32961,0 -9.6503,4.06653 -9.6503,9.08297 0,5.01605 4.32069,9.08245 9.6503,9.08245 z"
       style="fill:#939598;fill-opacity:1;fill-rule:evenodd;stroke:#f9f9f1;stroke-width:3.12000012;stroke-linecap:butt;stroke-linejoin:miter;stroke-miterlimit:22.92558479;stroke-dasharray:none;stroke-opacity:1"
       id="path222"
       inkscape:connector-curvature="0" /><path
       d="m 169.63139,265.59946 c 5.32973,0 9.65042,-4.0664 9.65042,-9.08258 0,-5.01644 -4.32069,-9.08284 -9.65042,-9.08284 -5.32961,0 -9.65029,4.0664 -9.65029,9.08284 0,5.01618 4.32068,9.08258 9.65029,9.08258 z"
       style="fill:#939598;fill-opacity:1;fill-rule:evenodd;stroke:#f9f9f1;stroke-width:3.12000012;stroke-linecap:butt;stroke-linejoin:miter;stroke-miterlimit:22.92558479;stroke-dasharray:none;stroke-opacity:1"
       id="path224"
       inkscape:connector-curvature="0" /><g
       id="g228"
       transform="matrix(-0.78705,-0.5511,0.5511,-0.78705,0,36.794148)"><path
         d="m -438.88875,104.08394 c -1.8338,-0.5022 -20.22815,-32.51866 -19.64638,-59.013005"
         style="fill:none;stroke:#939598;stroke-width:5.20410013;stroke-linecap:butt;stroke-linejoin:miter;stroke-miterlimit:4;stroke-dasharray:none;stroke-opacity:1"
         id="path230"
         inkscape:connector-curvature="0"
         sodipodi:nodetypes="cc" /></g><g
       id="g232"
       transform="matrix(-0.92807,-0.24868,0.24868,-0.92807,8.2516287,34.359241)"><path
         d="m -423.70745,-7.5882936 c 1.77105,3.514801 -12.5883,-20.2924694 -15.88625,-47.6838884"
         style="fill:none;stroke:#939598;stroke-width:5.51620007;stroke-linecap:butt;stroke-linejoin:miter;stroke-miterlimit:4;stroke-dasharray:none;stroke-opacity:1"
         id="path234"
         inkscape:connector-curvature="0"
         sodipodi:nodetypes="cc" /></g><path
       d="m 264.05042,740.12796 c 5.32961,0 9.65029,-4.06653 9.65029,-9.08258 0,-5.01644 -4.32068,-9.08284 -9.65029,-9.08284 -5.32974,0 -9.65042,4.0664 -9.65042,9.08284 0,5.01605 4.32068,9.08258 9.65042,9.08258 z"
       style="fill:#939598;fill-opacity:1;fill-rule:evenodd;stroke:#f9f9f1;stroke-width:3.12000012;stroke-linecap:butt;stroke-linejoin:miter;stroke-miterlimit:22.92558479;stroke-dasharray:none;stroke-opacity:1"
       id="path238"
       inkscape:connector-curvature="0" /><path
       d="m 426.77042,740.12796 c 5.32961,0 9.65028,-4.06653 9.65028,-9.08258 0,-5.01644 -4.32067,-9.08284 -9.65028,-9.08284 -5.32974,0 -9.65042,4.0664 -9.65042,9.08284 0,5.01605 4.32068,9.08258 9.65042,9.08258 z"
       style="fill:#939598;fill-opacity:1;fill-rule:evenodd;stroke:#f9f9f1;stroke-width:3.12000012;stroke-linecap:butt;stroke-linejoin:miter;stroke-miterlimit:22.92558479;stroke-dasharray:none;stroke-opacity:1"
       id="path242"
       inkscape:connector-curvature="0" /><path
       d="m 475.0886,662.93504 c 5.32961,0 9.65042,-4.06653 9.65042,-9.08258 0,-5.01644 -4.32081,-9.08284 -9.65042,-9.08284 -5.32961,0 -9.65042,4.0664 -9.65042,9.08284 0,5.01605 4.32081,9.08258 9.65042,9.08258 z"
       style="fill:#939598;fill-opacity:1;fill-rule:evenodd;stroke:#f9f9f1;stroke-width:3.12000012;stroke-linecap:butt;stroke-linejoin:miter;stroke-miterlimit:22.92558479;stroke-dasharray:none;stroke-opacity:1"
       id="path246"
       inkscape:connector-curvature="0" /><path
       d="m 432.6086,665.77576 c 5.32961,0 9.65042,-4.06653 9.65042,-9.08258 0,-5.01644 -4.32081,-9.08284 -9.65042,-9.08284 -5.32961,0 -9.65042,4.0664 -9.65042,9.08284 0,5.01605 4.32081,9.08258 9.65042,9.08258 z"
       style="fill:#939598;fill-opacity:1;fill-rule:evenodd;stroke:#f9f9f1;stroke-width:3.12000012;stroke-linecap:butt;stroke-linejoin:miter;stroke-miterlimit:22.92558479;stroke-dasharray:none;stroke-opacity:1"
       id="path250"
       inkscape:connector-curvature="0" /><path
       d="m 264.05042,702.50905 c 5.32961,0 9.65029,-4.06653 9.65029,-9.08258 0,-5.01644 -4.32068,-9.08284 -9.65029,-9.08284 -5.32974,0 -9.65042,4.0664 -9.65042,9.08284 0,5.01605 4.32068,9.08258 9.65042,9.08258 z"
       style="fill:#939598;fill-opacity:1;fill-rule:evenodd;stroke:#f9f9f1;stroke-width:3.12000012;stroke-linecap:butt;stroke-linejoin:miter;stroke-miterlimit:22.92558479;stroke-dasharray:none;stroke-opacity:1"
       id="path254"
       inkscape:connector-curvature="0" /><path
       d="m 264.05042,634.14833 c 5.32961,0 9.65029,-4.06653 9.65029,-9.08258 0,-5.01644 -4.32068,-9.08284 -9.65029,-9.08284 -5.32974,0 -9.65042,4.0664 -9.65042,9.08284 0,5.01605 4.32068,9.08258 9.65042,9.08258 z"
       style="fill:#939598;fill-opacity:1;fill-rule:evenodd;stroke:#f9f9f1;stroke-width:3.12000012;stroke-linecap:butt;stroke-linejoin:miter;stroke-miterlimit:22.92558479;stroke-dasharray:none;stroke-opacity:1"
       id="path258"
       inkscape:connector-curvature="0" /><path
       d="m 264.05042,589.64796 c 5.3296,0 9.65028,-4.06653 9.65028,-9.08258 0,-5.01644 -4.32068,-9.08284 -9.65028,-9.08284 -5.32974,0 -9.65042,4.0664 -9.65042,9.08284 0,5.01605 4.32068,9.08258 9.65042,9.08258 z"
       style="fill:#939598;fill-opacity:1;fill-rule:evenodd;stroke:#f9f9f1;stroke-width:3.12000012;stroke-linecap:butt;stroke-linejoin:miter;stroke-miterlimit:22.92558479;stroke-dasharray:none;stroke-opacity:1"
       id="path262"
       inkscape:connector-curvature="0" /><path
       d="m 308.69042,589.64796 c 5.32961,0 9.65029,-4.06653 9.65029,-9.08258 0,-5.01644 -4.32068,-9.08284 -9.65029,-9.08284 -5.32974,0 -9.65042,4.0664 -9.65042,9.08284 0,5.01605 4.32068,9.08258 9.65042,9.08258 z"
       style="fill:#939598;fill-opacity:1;fill-rule:evenodd;stroke:#f9f9f1;stroke-width:3.12000012;stroke-linecap:butt;stroke-linejoin:miter;stroke-miterlimit:22.92558479;stroke-dasharray:none;stroke-opacity:1"
       id="path266"
       inkscape:connector-curvature="0" /><path
       d="m 308.69042,555.08796 c 5.32961,0 9.65028,-4.06653 9.65028,-9.08258 0,-5.01644 -4.32067,-9.08284 -9.65028,-9.08284 -5.32974,0 -9.65043,4.0664 -9.65043,9.08284 0,5.01605 4.32069,9.08258 9.65043,9.08258 z"
       style="fill:#939598;fill-opacity:1;fill-rule:evenodd;stroke:#f9f9f1;stroke-width:3.12000012;stroke-linecap:butt;stroke-linejoin:miter;stroke-miterlimit:22.92558479;stroke-dasharray:none;stroke-opacity:1"
       id="path270"
       inkscape:connector-curvature="0" /><path
       d="m 308.69042,517.64796 c 5.32961,0 9.65028,-4.06653 9.65028,-9.08258 0,-5.01644 -4.32067,-9.08284 -9.65028,-9.08284 -5.32974,0 -9.65043,4.0664 -9.65043,9.08284 0,5.01605 4.32069,9.08258 9.65043,9.08258 z"
       style="fill:#939598;fill-opacity:1;fill-rule:evenodd;stroke:#f9f9f1;stroke-width:3.12000012;stroke-linecap:butt;stroke-linejoin:miter;stroke-miterlimit:22.92558479;stroke-dasharray:none;stroke-opacity:1"
       id="path274"
       inkscape:connector-curvature="0" /><path
       d="m 308.69042,482.36796 c 5.32961,0 9.65029,-4.06653 9.65029,-9.08258 0,-5.01644 -4.32068,-9.08284 -9.65029,-9.08284 -5.32974,0 -9.65042,4.0664 -9.65042,9.08284 0,5.01605 4.32068,9.08258 9.65042,9.08258 z"
       style="fill:#939598;fill-opacity:1;fill-rule:evenodd;stroke:#f9f9f1;stroke-width:3.12000012;stroke-linecap:butt;stroke-linejoin:miter;stroke-miterlimit:22.92558479;stroke-dasharray:none;stroke-opacity:1"
       id="path278"
       inkscape:connector-curvature="0" /><path
       sodipodi:nodetypes="cc"
       inkscape:connector-curvature="0"
       id="path5278"
       d="m 277.0087,311.83407 c -8.53368,13.53693 -27.36354,88.26867 16.14483,116.89658"
       style="fill:none;fill-rule:evenodd;stroke:#8a5ec9;stroke-width:5;stroke-linecap:butt;stroke-linejoin:miter;stroke-miterlimit:4;stroke-dasharray:none;stroke-opacity:1;marker-end:url(#marker5280)" /><path
       d="m 308.69042,448.52796 c 5.32961,0 9.65028,-4.06653 9.65028,-9.08258 0,-5.01644 -4.32067,-9.08284 -9.65028,-9.08284 -5.32974,0 -9.65043,4.0664 -9.65043,9.08284 0,5.01605 4.32069,9.08258 9.65043,9.08258 z"
       style="fill:#939598;fill-opacity:1;fill-rule:evenodd;stroke:#f9f9f1;stroke-width:3.12000012;stroke-linecap:butt;stroke-linejoin:miter;stroke-miterlimit:22.92558479;stroke-dasharray:none;stroke-opacity:1"
       id="path282"
       inkscape:connector-curvature="0" /><path
       d="m 308.14933,388.94687 c 5.32961,0 9.65029,-4.06653 9.65029,-9.08258 0,-5.01644 -4.32068,-9.08284 -9.65029,-9.08284 -5.32974,0 -9.65042,4.0664 -9.65042,9.08284 0,5.01605 4.32068,9.08258 9.65042,9.08258 z"
       style="fill:#939598;fill-opacity:1;fill-rule:evenodd;stroke:#f9f9f1;stroke-width:3.12000012;stroke-linecap:butt;stroke-linejoin:miter;stroke-miterlimit:22.92558479;stroke-dasharray:none;stroke-opacity:1"
       id="path286"
       inkscape:connector-curvature="0" /><path
       d="m 308.69042,349.88796 c 5.32961,0 9.65028,-4.06653 9.65028,-9.08258 0,-5.01644 -4.32067,-9.08284 -9.65028,-9.08284 -5.32974,0 -9.65043,4.0664 -9.65043,9.08284 0,5.01605 4.32069,9.08258 9.65043,9.08258 z"
       style="fill:#939598;fill-opacity:1;fill-rule:evenodd;stroke:#f9f9f1;stroke-width:3.12000012;stroke-linecap:butt;stroke-linejoin:miter;stroke-miterlimit:22.92558479;stroke-dasharray:none;stroke-opacity:1"
       id="path290"
       inkscape:connector-curvature="0" /><path
       d="m 383.75128,337.64796 c 5.32961,0 9.65029,-4.06653 9.65029,-9.08258 0,-5.01644 -4.32068,-9.08284 -9.65029,-9.08284 -5.32974,0 -9.65042,4.0664 -9.65042,9.08284 0,5.01605 4.32068,9.08258 9.65042,9.08258 z"
       style="fill:#939598;fill-opacity:1;fill-rule:evenodd;stroke:#f9f9f1;stroke-width:3.12000012;stroke-linecap:butt;stroke-linejoin:miter;stroke-miterlimit:22.92558479;stroke-dasharray:none;stroke-opacity:1"
       id="path294"
       inkscape:connector-curvature="0" /><path
       d="m 434.22346,337.8272 c 5.32975,0 9.65043,-4.06653 9.65043,-9.08258 0,-5.01644 -4.32068,-9.08284 -9.65043,-9.08284 -5.3296,0 -9.65028,4.0664 -9.65028,9.08284 0,5.01605 4.32068,9.08258 9.65028,9.08258 z"
       style="fill:#939598;fill-opacity:1;fill-rule:evenodd;stroke:#f9f9f1;stroke-width:3.12000012;stroke-linecap:butt;stroke-linejoin:miter;stroke-miterlimit:22.92558479;stroke-dasharray:none;stroke-opacity:1"
       id="path296"
       inkscape:connector-curvature="0" /><path
       d="m 277.3392,321.12585 c 5.32961,0 9.65042,-4.0664 9.65042,-9.08245 0,-5.01644 -4.32081,-9.08284 -9.65042,-9.08284 -5.32974,0 -9.65042,4.0664 -9.65042,9.08284 0,5.01605 4.32068,9.08245 9.65042,9.08245 z"
       style="fill:#939598;fill-opacity:1;fill-rule:evenodd;stroke:#f9f9f1;stroke-width:3.12000012;stroke-linecap:butt;stroke-linejoin:miter;stroke-miterlimit:22.92558479;stroke-dasharray:none;stroke-opacity:1"
       id="path300"
       inkscape:connector-curvature="0" /><path
       d="m 380.7771,262.856 c 4.61578,2.66461 10.39064,1.30338 12.89873,-3.04057 2.50835,-4.34473 0.79963,-10.02664 -3.81589,-12.69125 -4.61552,-2.66539 -10.39064,-1.30377 -12.89912,3.04122 -2.50796,4.34356 -0.79924,10.02547 3.81628,12.6906 z"
       style="fill:#939598;fill-opacity:1;fill-rule:evenodd;stroke:#f9f9f1;stroke-width:3.12000012;stroke-linecap:butt;stroke-linejoin:miter;stroke-miterlimit:22.92558479;stroke-dasharray:none;stroke-opacity:1"
       id="path304"
       inkscape:connector-curvature="0" /><path
       d="m 402.588,206.18643 c 5.32961,0 9.65003,-4.06692 9.65042,-9.08297 -3.9e-4,-5.01605 -4.32107,-9.08284 -9.65081,-9.08219 -5.32922,-2.6e-4 -9.65042,4.06614 -9.65003,9.08219 0,5.01644 4.32042,9.08297 9.65042,9.08297 z"
       style="fill:#939598;fill-opacity:1;fill-rule:evenodd;stroke:#f9f9f1;stroke-width:3.12000012;stroke-linecap:butt;stroke-linejoin:miter;stroke-miterlimit:22.92558479;stroke-dasharray:none;stroke-opacity:1"
       id="path308"
       inkscape:connector-curvature="0" /><path
       d="m 398.06159,153.25566 c 5.32974,0 9.65042,-4.06679 9.65042,-9.08258 0,-5.01644 -4.32068,-9.08284 -9.65042,-9.08284 -5.32922,0 -9.65029,4.0664 -9.65029,9.08284 0,5.01605 4.32107,9.08258 9.65029,9.08258 z"
       style="fill:#939598;fill-opacity:1;fill-rule:evenodd;stroke:#f9f9f1;stroke-width:3.12000012;stroke-linecap:butt;stroke-linejoin:miter;stroke-miterlimit:22.92558479;stroke-dasharray:none;stroke-opacity:1"
       id="path312"
       inkscape:connector-curvature="0" /><path
       d="m 280.1112,194.42806 c 5.32961,0 9.65042,-4.06653 9.65042,-9.08258 0,-5.01644 -4.32081,-9.08284 -9.65042,-9.08284 -5.32974,0 -9.65042,4.0664 -9.65042,9.08284 0,5.01605 4.32068,9.08258 9.65042,9.08258 z"
       style="fill:#939598;fill-opacity:1;fill-rule:evenodd;stroke:#f9f9f1;stroke-width:3.12000012;stroke-linecap:butt;stroke-linejoin:miter;stroke-miterlimit:22.92558479;stroke-dasharray:none;stroke-opacity:1"
       id="path316"
       inkscape:connector-curvature="0" /><path
       d="m 354.206,91.931758 c 5.32961,0 9.65042,-4.0664 9.65042,-9.08245 0,-5.01644 -4.32081,-9.08297 -9.65042,-9.08297 -5.32974,0 -9.65042,4.06653 -9.65042,9.08297 0,5.01605 4.32068,9.08245 9.65042,9.08245 z"
       style="fill:#939598;fill-opacity:1;fill-rule:evenodd;stroke:#f9f9f1;stroke-width:3.12000012;stroke-linecap:butt;stroke-linejoin:miter;stroke-miterlimit:22.92558479;stroke-dasharray:none;stroke-opacity:1"
       id="path320"
       inkscape:connector-curvature="0" /><path
       d="m 200.00488,93.450858 c 5.32974,0 9.65042,-4.0664 9.65042,-9.08258 0,-5.01644 -4.32068,-9.08284 -9.65042,-9.08284 -5.32961,0 -9.65029,4.0664 -9.65029,9.08284 0,5.01618 4.32068,9.08258 9.65029,9.08258 z"
       style="fill:#939598;fill-opacity:1;fill-rule:evenodd;stroke:#f9f9f1;stroke-width:3.12000012;stroke-linecap:butt;stroke-linejoin:miter;stroke-miterlimit:22.92558479;stroke-dasharray:none;stroke-opacity:1"
       id="path324"
       inkscape:connector-curvature="0" /><path
       d="m 156.3415,151.90746 c 5.32961,0 9.65042,-4.0664 9.65042,-9.08245 0,-5.01644 -4.32081,-9.08297 -9.65042,-9.08297 -5.32974,0 -9.65042,4.06653 -9.65042,9.08297 0,5.01605 4.32068,9.08245 9.65042,9.08245 z"
       style="fill:#939598;fill-opacity:1;fill-rule:evenodd;stroke:#f9f9f1;stroke-width:3.12000012;stroke-linecap:butt;stroke-linejoin:miter;stroke-miterlimit:22.92558479;stroke-dasharray:none;stroke-opacity:1"
       id="path328"
       inkscape:connector-curvature="0" /><path
       d="m 150.90411,208.29826 c 5.32962,0 9.65029,-4.06653 9.65029,-9.08258 0,-5.01644 -4.32067,-9.08284 -9.65029,-9.08284 -5.32974,0 -9.65041,4.0664 -9.65041,9.08284 0,5.01605 4.32067,9.08258 9.65041,9.08258 z"
       style="fill:#939598;fill-opacity:1;fill-rule:evenodd;stroke:#f9f9f1;stroke-width:3.12000012;stroke-linecap:butt;stroke-linejoin:miter;stroke-miterlimit:22.92558479;stroke-dasharray:none;stroke-opacity:1"
       id="path332"
       inkscape:connector-curvature="0" /></g></svg>